<svg width="285" height="331" viewBox="0 0 285 331" fill="none" xmlns="http://www.w3.org/2000/svg">
<rect width="285" height="331" rx="10" fill="#D9D9D9"/>
<g clip-path="url(#clip0_2895_606)">
<path fill-rule="evenodd" clip-rule="evenodd" d="M95.5111 307.395C96.7689 301.901 97.9833 295.456 99.1543 288.361C100.369 280.964 101.583 272.918 102.798 264.569C103.405 260.46 103.969 256.307 104.576 252.111L104.793 250.554C105.096 248.478 105.4 246.358 105.66 244.238V243.849C105.834 242.854 106.007 241.902 106.137 240.907C107.655 230.006 109.26 219.149 110.952 209.026C111.082 208.334 111.168 207.599 111.298 206.907C113.12 196.222 115.028 186.403 117.154 178.313C119.279 186.446 121.231 196.265 123.052 206.993C123.182 207.685 123.269 208.378 123.399 209.026C125.091 219.192 126.696 230.05 128.257 240.907C128.387 241.946 128.517 242.897 128.691 243.892V244.282C129.038 246.315 129.341 248.391 129.601 250.424L129.905 252.587C130.165 254.404 130.426 256.221 130.686 258.038H134.199C134.112 257.432 134.025 256.87 133.939 256.264C133.765 254.88 133.548 253.495 133.375 252.154C132.811 248.261 132.291 244.368 131.683 240.475V240.172C130.295 230.05 128.777 219.927 127.086 209.719C126.912 208.594 126.696 207.512 126.522 206.431C124.961 197.433 123.269 188.263 120.97 179.395V179.352C120.797 178.746 120.667 178.14 120.493 177.535L117.154 164.73L113.814 177.535C113.641 178.14 113.51 178.746 113.337 179.352V179.438C111.212 187.83 109.737 196.438 108.219 204.917C108.132 205.436 108.046 205.955 107.959 206.474C107.785 207.556 107.568 208.68 107.395 209.762C105.66 220.014 104.185 230.136 102.798 240.259V240.561C102.147 244.584 101.583 248.651 101.019 252.674C100.846 253.885 100.672 255.139 100.499 256.35C99.0242 266.949 97.5062 277.547 95.7279 287.972C94.7304 294.288 93.5593 300.603 92.0413 306.746C91.9112 307.222 91.8245 307.698 91.6943 308.173" fill="black"/>
<path fill-rule="evenodd" clip-rule="evenodd" d="M169.2 37.0334C169.2 37.3795 169.157 37.7688 169.114 38.2446C168.68 43.7816 167.682 56.9753 169.374 60.5224C173.234 68.3088 176.227 77.3064 178.872 85.4389C182.732 97.5943 186.072 110.053 188.588 122.511C189.412 126.62 190.149 130.903 190.843 135.272C192.057 143.275 192.925 151.537 192.968 159.453C192.968 162.524 192.881 165.509 192.578 168.451C192.448 170.094 192.318 171.695 192.188 173.339C191.233 184.153 189.889 194.881 188.588 205.566C187.98 210.497 187.373 215.429 186.723 220.36C185.118 232.905 183.557 245.493 182.342 258.038H185.942C187.113 245.45 188.891 231.261 190.67 216.77C191.103 213.179 191.58 209.589 192.014 205.955C193.142 196.698 194.269 187.398 195.18 178.443C195.527 175.156 195.831 171.954 196.091 168.797C196.265 166.72 196.395 164.601 196.438 162.438C196.438 161.486 196.438 160.491 196.438 159.496C196.438 155.992 196.221 152.315 195.918 148.595V148.379C195.831 147.427 195.744 146.476 195.657 145.524C195.657 145.178 195.571 144.789 195.527 144.443C195.527 144.27 195.527 144.096 195.484 143.967C195.18 141.112 194.79 138.213 194.356 135.315C193.966 132.72 193.532 130.081 193.055 127.485C192.708 125.669 192.361 123.852 192.014 122.035C189.325 108.755 185.725 95.691 182.169 84.5737C178.612 73.4565 175.099 64.3723 172.583 59.1381C171.629 57.0618 171.889 48.8428 172.757 37.5092C172.8 36.7306 172.887 35.952 172.93 35.1733M52.0525 298.008V297.921C53.2236 292.774 53.3971 286.804 53.3971 281.44C53.3971 274.129 52.7465 266.646 52.0525 259.335C50.9249 245.969 49.2334 232.602 47.5852 219.235C47.0214 214.65 46.4142 210.065 45.8937 205.479C44.5925 194.795 43.248 184.067 42.2938 173.252C42.1637 171.652 41.9902 170.008 41.8601 168.364C41.5999 165.423 41.4698 162.438 41.4698 159.366C41.4698 151.364 42.3372 143.015 43.595 134.969C44.2456 130.687 45.0696 126.491 45.8937 122.424C48.4093 109.966 51.7489 97.4646 55.609 85.3524C58.2981 77.1767 61.2908 68.2223 64.9774 60.4359C66.9725 56.5427 65.628 41.489 65.1509 37.0334L61.6378 34.957C61.6811 35.7357 61.7679 36.5143 61.8112 37.2497V37.3795C62.6787 48.6698 62.9389 56.8455 61.9847 58.9219V59.0084C59.3824 64.2426 55.8693 73.2834 52.3128 84.3142C48.7563 95.4314 45.1998 108.495 42.5107 121.775C42.1637 123.592 41.8167 125.409 41.4698 127.183C40.9927 129.821 40.5589 132.46 40.1252 135.099C39.6915 138.04 39.3012 140.939 38.9976 143.794C38.9976 143.967 38.9976 144.14 38.9542 144.313C38.9542 144.616 38.8674 144.962 38.8674 145.264C38.7807 146.173 38.694 147.125 38.6072 148.033V148.249V148.422C38.2169 152.229 38 155.906 38 159.453C38 160.448 38 161.443 38 162.438C38.0434 164.601 38.1735 166.72 38.347 168.753C38.6072 171.954 38.9542 175.199 39.2578 178.443C40.1686 187.398 41.2963 196.698 42.4239 205.955C42.8577 209.546 43.2914 213.136 43.7685 216.683C45.6768 231.823 47.4985 246.661 48.6695 259.681C49.4068 267.771 49.8406 275.124 49.9273 281.483C49.9707 287.842 49.6237 293.163 48.7563 297.186V297.272" fill="black"/>
<path d="M203 239H215V288H203" stroke="black" stroke-miterlimit="10" stroke-dasharray="4 4"/>
<path d="M117.762 184.802C124.831 212.92 127.043 244.455 131.294 264.786C134.72 281.181 142.961 288.578 155.148 288.578C175.316 288.578 182.906 280.445 186.68 261.628C187.721 256.437 192.101 221.225 192.101 221.225C194.747 201.932 195.788 189.561 195.788 184.283L117.762 184.802Z" fill="#D3D3D5"/>
<path d="M155.148 289.356C142.223 289.356 133.939 281.137 130.513 264.959C128.778 256.74 127.39 246.618 125.916 235.89C123.704 219.884 121.188 201.759 116.981 184.975L116.721 183.98L196.569 183.418V184.197C196.569 190.339 195.181 204.225 192.839 221.269C192.665 222.696 188.458 256.61 187.417 261.758C183.427 281.873 174.666 289.313 155.105 289.313L155.148 289.356ZM118.759 185.581C122.88 202.149 125.308 219.971 127.477 235.673C128.952 246.358 130.34 256.48 132.074 264.613C135.327 280.186 142.874 287.756 155.148 287.756C173.972 287.756 182.039 280.878 185.899 261.455C186.897 256.351 191.277 221.442 191.321 221.096C193.533 204.787 194.92 191.464 195.007 185.019L118.759 185.538V185.581Z" fill="black"/>
<path d="M158.315 245.623C143.004 245.623 126.783 243.244 126.783 238.832C126.783 234.419 143.048 232.04 158.315 232.04C173.582 232.04 189.846 234.419 189.846 238.832C189.846 243.244 173.582 245.623 158.315 245.623ZM158.315 232.862C139.925 232.862 127.564 235.976 127.564 238.832C127.564 241.687 139.925 244.801 158.315 244.801C176.704 244.801 189.065 241.687 189.065 238.832C189.065 235.976 176.704 232.862 158.315 232.862Z" fill="black"/>
<path d="M158.314 232.083C173.625 232.083 189.846 234.462 189.846 238.875C189.846 243.287 173.581 245.666 158.314 245.666C143.047 245.666 126.783 243.287 126.783 238.875C126.783 234.462 143.047 232.083 158.314 232.083ZM158.314 244.844C176.704 244.844 189.065 241.73 189.065 238.875C189.065 236.02 176.704 232.905 158.314 232.905C139.925 232.905 127.564 236.02 127.564 238.875C127.564 241.73 139.925 244.844 158.314 244.844ZM158.314 231.478C147.211 231.478 126.176 233.035 126.176 238.831C126.176 244.628 147.211 246.185 158.314 246.185C169.418 246.185 190.453 244.628 190.453 238.831C190.453 233.035 169.418 231.478 158.314 231.478ZM158.314 244.239C138.493 244.239 128.171 240.735 128.171 238.831C128.171 236.928 138.537 233.424 158.314 233.424C178.092 233.424 188.458 236.928 188.458 238.831C188.458 240.735 178.092 244.239 158.314 244.239Z" fill="black"/>
<path d="M197.914 239.221H197.133V288.535H197.914V239.221Z" fill="black"/>
<path d="M201.383 287.972H193.663V289.14H201.383V287.972Z" fill="black"/>
<path d="M201.383 238.658H193.663V239.826H201.383V238.658Z" fill="black"/>
<path d="M245.449 206.302H251.001C250.09 212.228 244.842 214.434 239.811 214.434C234.346 214.434 228.534 211.796 228.534 204.615C228.534 197.434 234.346 194.752 239.811 194.752C244.799 194.752 250.09 196.958 251.001 202.884H245.449C244.842 200.289 243.194 198.559 239.811 198.559C235.951 198.559 233.999 200.938 233.999 204.615C233.999 208.292 235.951 210.628 239.811 210.628C243.194 210.628 244.842 208.854 245.449 206.302Z" fill="black"/>
<path d="M178.526 233.38L177.398 232.991L187.157 203.489H223.893V204.7H188.025L178.526 233.38Z" fill="black"/>
<path d="M180.738 234.288C180.218 235.846 178.526 236.667 177.008 236.192C175.447 235.673 174.623 233.986 175.1 232.471C175.62 230.914 177.312 230.092 178.83 230.568C180.391 231.087 181.215 232.774 180.738 234.288Z" fill="white"/>
<path d="M181.085 234.419C181.649 232.645 180.694 230.742 178.959 230.179C177.225 229.617 175.273 230.569 174.709 232.299C174.145 234.073 175.099 235.976 176.834 236.538C178.612 237.101 180.521 236.149 181.085 234.419C181.649 232.645 180.521 236.192 181.085 234.419ZM175.446 232.558C175.88 231.217 177.355 230.482 178.699 230.915C180.044 231.347 180.781 232.818 180.347 234.159C179.914 235.5 178.439 236.235 177.094 235.803C175.75 235.37 175.013 233.899 175.446 232.558C175.88 231.217 175.013 233.899 175.446 232.558Z" fill="black"/>
</g>
<path d="M231.48 266.315C232.725 266.75 233.64 267.53 233.655 268.88C233.625 271.7 230.685 272.21 228.06 272.21C225.435 272.21 222.495 271.7 222.45 268.88C222.465 267.53 223.38 266.75 224.625 266.315C223.695 265.94 223.02 265.31 223.02 264.26C223.05 262.205 225.06 261.275 228.06 261.275C231.045 261.275 233.055 262.205 233.085 264.26C233.085 265.31 232.425 265.94 231.48 266.315ZM228.06 263.255C226.56 263.255 225.765 263.57 225.765 264.44C225.765 265.4 226.935 265.55 228.06 265.55C229.17 265.55 230.34 265.4 230.34 264.44C230.34 263.57 229.545 263.255 228.06 263.255ZM228.06 270.245C229.845 270.245 230.76 269.87 230.76 268.745C230.76 267.62 229.845 267.23 228.06 267.23C226.26 267.23 225.345 267.62 225.345 268.745C225.345 269.87 226.26 270.245 228.06 270.245ZM243.543 270.365C244.863 270.365 245.598 269.675 245.823 268.73H248.283C247.863 271.22 245.673 272.21 243.543 272.21C241.203 272.21 238.593 271.085 238.593 267.995C238.593 264.905 241.203 263.78 243.543 263.78C245.673 263.78 247.863 264.785 248.283 267.275H245.823C245.598 266.315 244.863 265.625 243.543 265.625C241.893 265.625 241.158 266.69 241.158 267.995C241.158 269.3 241.893 270.365 243.543 270.365ZM260.418 263.78C262.473 263.78 263.628 264.905 263.628 266.705V272H260.913V267.305C260.913 266.135 260.268 265.745 259.443 265.745C258.618 265.745 257.898 266.18 257.898 267.305V272H255.198V267.305C255.198 266.135 254.553 265.745 253.728 265.745C252.888 265.745 252.183 266.18 252.183 267.305V272H249.483V264.005H252.183V265.1C252.483 264.635 253.338 263.78 254.703 263.78C256.098 263.78 257.088 264.305 257.568 265.205C257.778 264.875 258.858 263.78 260.418 263.78Z" fill="black"/>
<defs>
<clipPath id="clip0_2895_606">
<rect width="213" height="273" fill="white" transform="translate(38 35)"/>
</clipPath>
</defs>
</svg>
