<svg width="285" height="331" viewBox="0 0 285 331" fill="none" xmlns="http://www.w3.org/2000/svg">
<rect width="285" height="331" rx="10" fill="#D9D9D9"/>
<path fill-rule="evenodd" clip-rule="evenodd" d="M106.511 307.395C107.769 301.901 108.983 295.456 110.154 288.361C111.369 280.964 112.583 272.918 113.798 264.569C114.405 260.46 114.969 256.307 115.576 252.111L115.793 250.554C116.096 248.478 116.4 246.358 116.66 244.238V243.849C116.834 242.854 117.007 241.902 117.137 240.907C118.655 230.006 120.26 219.149 121.952 209.026C122.082 208.334 122.168 207.599 122.298 206.907C124.12 196.222 126.028 186.403 128.154 178.313C130.279 186.446 132.231 196.265 134.052 206.993C134.182 207.685 134.269 208.378 134.399 209.026C136.091 219.192 137.696 230.05 139.257 240.907C139.387 241.946 139.517 242.897 139.691 243.892V244.282C140.038 246.315 140.341 248.391 140.601 250.424L140.905 252.587C141.165 254.404 141.426 256.221 141.686 258.038H145.199C145.112 257.432 145.025 256.87 144.939 256.264C144.765 254.88 144.548 253.495 144.375 252.154C143.811 248.261 143.291 244.368 142.683 240.475V240.172C141.295 230.05 139.777 219.927 138.086 209.719C137.912 208.594 137.696 207.512 137.522 206.431C135.961 197.433 134.269 188.263 131.97 179.395V179.352C131.797 178.746 131.667 178.14 131.493 177.535L128.154 164.73L124.814 177.535C124.641 178.14 124.51 178.746 124.337 179.352V179.438C122.212 187.83 120.737 196.438 119.219 204.917C119.132 205.436 119.046 205.955 118.959 206.474C118.785 207.556 118.568 208.68 118.395 209.762C116.66 220.014 115.185 230.136 113.798 240.259V240.561C113.147 244.584 112.583 248.651 112.019 252.674C111.846 253.885 111.672 255.139 111.499 256.35C110.024 266.949 108.506 277.547 106.728 287.972C105.73 294.288 104.559 300.603 103.041 306.746C102.911 307.222 102.824 307.698 102.694 308.173" fill="black"/>
<path fill-rule="evenodd" clip-rule="evenodd" d="M180.2 37.0334C180.2 37.3795 180.157 37.7688 180.114 38.2446C179.68 43.7816 178.682 56.9753 180.374 60.5224C184.234 68.3088 187.227 77.3064 189.872 85.4389C193.732 97.5943 197.072 110.053 199.588 122.511C200.412 126.62 201.149 130.903 201.843 135.272C203.057 143.275 203.925 151.537 203.968 159.453C203.968 162.524 203.881 165.509 203.578 168.451C203.448 170.094 203.318 171.695 203.188 173.339C202.233 184.153 200.889 194.881 199.588 205.566C198.98 210.497 198.373 215.429 197.723 220.36C196.118 232.905 194.557 245.493 193.342 258.038H196.942C198.113 245.45 199.891 231.261 201.67 216.77C202.103 213.179 202.58 209.589 203.014 205.955C204.142 196.698 205.269 187.398 206.18 178.443C206.527 175.156 206.831 171.954 207.091 168.797C207.265 166.72 207.395 164.601 207.438 162.438C207.438 161.486 207.438 160.491 207.438 159.496C207.438 155.992 207.221 152.315 206.918 148.595V148.379C206.831 147.427 206.744 146.476 206.657 145.524C206.657 145.178 206.571 144.789 206.527 144.443C206.527 144.27 206.527 144.096 206.484 143.967C206.18 141.112 205.79 138.213 205.356 135.315C204.966 132.72 204.532 130.081 204.055 127.485C203.708 125.669 203.361 123.852 203.014 122.035C200.325 108.755 196.725 95.691 193.169 84.5737C189.612 73.4565 186.099 64.3723 183.583 59.1381C182.629 57.0618 182.889 48.8428 183.757 37.5092C183.8 36.7306 183.887 35.952 183.93 35.1733M63.0525 298.008V297.921C64.2236 292.774 64.3971 286.804 64.3971 281.44C64.3971 274.129 63.7465 266.646 63.0525 259.335C61.9249 245.969 60.2334 232.602 58.5852 219.235C58.0214 214.65 57.4142 210.065 56.8937 205.479C55.5925 194.795 54.248 184.067 53.2938 173.252C53.1637 171.652 52.9902 170.008 52.8601 168.364C52.5999 165.423 52.4698 162.438 52.4698 159.366C52.4698 151.364 53.3372 143.015 54.595 134.969C55.2456 130.687 56.0696 126.491 56.8937 122.424C59.4093 109.966 62.7489 97.4646 66.609 85.3524C69.2981 77.1767 72.2908 68.2223 75.9774 60.4359C77.9725 56.5427 76.628 41.489 76.1509 37.0334L72.6378 34.957C72.6811 35.7357 72.7679 36.5143 72.8112 37.2497V37.3795C73.6787 48.6698 73.9389 56.8455 72.9847 58.9219V59.0084C70.3824 64.2426 66.8693 73.2834 63.3128 84.3142C59.7563 95.4314 56.1998 108.495 53.5107 121.775C53.1637 123.592 52.8167 125.409 52.4698 127.183C51.9927 129.821 51.5589 132.46 51.1252 135.099C50.6915 138.04 50.3012 140.939 49.9976 143.794C49.9976 143.967 49.9976 144.14 49.9542 144.313C49.9542 144.616 49.8674 144.962 49.8674 145.264C49.7807 146.173 49.694 147.125 49.6072 148.033V148.249V148.422C49.2169 152.229 49 155.906 49 159.453C49 160.448 49 161.443 49 162.438C49.0434 164.601 49.1735 166.72 49.347 168.753C49.6072 171.954 49.9542 175.199 50.2578 178.443C51.1686 187.398 52.2963 196.698 53.4239 205.955C53.8577 209.546 54.2914 213.136 54.7685 216.683C56.6768 231.823 58.4985 246.661 59.6695 259.681C60.4068 267.771 60.8406 275.124 60.9273 281.483C60.9707 287.842 60.6237 293.163 59.7563 297.186V297.272" fill="black"/>
<path d="M215 239H222V259H215" stroke="black" stroke-miterlimit="10" stroke-dasharray="4 4"/>
<path d="M128.762 184.802C135.831 212.92 138.043 244.455 142.294 264.786C145.72 281.181 153.961 288.578 166.148 288.578C186.316 288.578 193.906 280.445 197.68 261.628C198.721 256.437 203.101 221.225 203.101 221.225C205.747 201.932 206.788 189.561 206.788 184.283L128.762 184.802Z" fill="#D3D3D5"/>
<path d="M166.148 289.356C153.223 289.356 144.939 281.137 141.513 264.959C139.778 256.74 138.39 246.618 136.916 235.89C134.704 219.884 132.188 201.759 127.981 184.975L127.721 183.98L207.569 183.418V184.197C207.569 190.339 206.181 204.225 203.839 221.269C203.665 222.696 199.458 256.61 198.417 261.758C194.427 281.873 185.666 289.313 166.105 289.313L166.148 289.356ZM129.759 185.581C133.88 202.149 136.308 219.971 138.477 235.673C139.952 246.358 141.34 256.48 143.074 264.613C146.327 280.186 153.874 287.756 166.148 287.756C184.972 287.756 193.039 280.878 196.899 261.455C197.897 256.351 202.277 221.442 202.321 221.096C204.533 204.787 205.92 191.464 206.007 185.019L129.759 185.538V185.581Z" fill="black"/>
<path d="M169.315 245.622C154.004 245.622 137.783 243.243 137.783 238.831C137.783 234.418 154.048 232.039 169.315 232.039C184.582 232.039 200.846 234.418 200.846 238.831C200.846 243.243 184.582 245.622 169.315 245.622ZM169.315 232.861C150.925 232.861 138.564 235.976 138.564 238.831C138.564 241.686 150.925 244.8 169.315 244.8C187.704 244.8 200.065 241.686 200.065 238.831C200.065 235.976 187.704 232.861 169.315 232.861Z" fill="black"/>
<path d="M169.314 232.082C184.625 232.082 200.846 234.461 200.846 238.874C200.846 243.286 184.581 245.665 169.314 245.665C154.047 245.665 137.783 243.286 137.783 238.874C137.783 234.461 154.047 232.082 169.314 232.082ZM169.314 244.843C187.704 244.843 200.065 241.729 200.065 238.874C200.065 236.019 187.704 232.904 169.314 232.904C150.925 232.904 138.564 236.019 138.564 238.874C138.564 241.729 150.925 244.843 169.314 244.843ZM169.314 231.477C158.211 231.477 137.176 233.034 137.176 238.83C137.176 244.627 158.211 246.184 169.314 246.184C180.418 246.184 201.453 244.627 201.453 238.83C201.453 233.034 180.418 231.477 169.314 231.477ZM169.314 244.238C149.493 244.238 139.171 240.734 139.171 238.83C139.171 236.927 149.537 233.423 169.314 233.423C189.092 233.423 199.458 236.927 199.458 238.83C199.458 240.734 189.092 244.238 169.314 244.238Z" fill="black"/>
<path d="M212.383 238.657V239.825H209.022V258H212.383V259.168H209.022V259.22H208.022V259.168H204.662V258H208.022V239.825H204.662V238.657H212.383Z" fill="black"/>
<path d="M246.901 206.301H252.453C251.542 212.227 246.294 214.433 241.263 214.433C235.798 214.433 229.986 211.795 229.986 204.614C229.986 197.433 235.798 194.751 241.263 194.751C246.251 194.751 251.542 196.957 252.453 202.883H246.901C246.294 200.288 244.646 198.558 241.263 198.558C237.403 198.558 235.451 200.937 235.451 204.614C235.451 208.291 237.403 210.627 241.263 210.627C244.646 210.627 246.294 208.853 246.901 206.301Z" fill="black"/>
<path d="M179.979 233.38L178.852 232.991L188.61 203.489H225.346V204.7H189.478L179.979 233.38Z" fill="black"/>
<path d="M182.191 234.288C181.671 235.846 179.979 236.667 178.461 236.192C176.9 235.673 176.076 233.986 176.553 232.471C177.073 230.914 178.765 230.092 180.283 230.568C181.844 231.087 182.668 232.774 182.191 234.288Z" fill="white"/>
<path d="M182.538 234.419C183.102 232.645 182.147 230.742 180.413 230.179C178.678 229.617 176.726 230.569 176.162 232.299C175.598 234.073 176.552 235.976 178.287 236.538C180.066 237.101 181.974 236.149 182.538 234.419C183.102 232.645 181.974 236.192 182.538 234.419ZM176.899 232.558C177.333 231.217 178.808 230.482 180.152 230.915C181.497 231.347 182.234 232.818 181.801 234.159C181.367 235.5 179.892 236.235 178.548 235.803C177.203 235.37 176.466 233.899 176.899 232.558C177.333 231.217 176.466 233.899 176.899 232.558Z" fill="black"/>
<path d="M132.304 264.862L140.633 257.964L144.259 260.165L164.939 263.982L184.43 263.15L192.759 260.948L198.595 257.964L206.527 265.107L204.884 268.727L201.031 272.984L191.343 277.191L169.982 279.295L154.797 278.561L142.616 275.528L137.743 273.179L134.23 268.776L132.304 264.862Z" fill="white"/>
<path d="M169.472 278.12C139.272 278.12 135.646 268.726 135.646 268.726C136.269 268.922 137.742 269.949 138.422 270.145C139.272 270.39 140.179 270.634 141.142 270.83C149.414 272.689 161.936 273.276 169.528 273.276V270.977C160.066 270.977 151.454 270.292 145.788 269.313C144.202 269.069 142.728 268.775 141.425 268.482C134.116 266.671 133.776 265.35 133.776 264.323L140.122 258.941C143.352 263.345 160.066 264.568 169.472 264.568V262.66C153.494 262.66 144.145 259.431 141.879 257.327C141.425 256.935 140.802 256.887 140.349 257.229L131 264.714C131 265.938 135.136 271.123 135.646 271.711C135.646 271.76 135.703 271.808 135.759 271.857C142.785 278.462 157.97 280.077 169.528 280.077V278.022L169.472 278.12Z" fill="black"/>
<path d="M169.472 280.113C180.973 280.113 196.158 278.498 203.241 271.894C203.297 271.845 203.297 271.796 203.354 271.747C203.864 271.16 208 265.974 208 264.751L198.651 257.265C198.198 256.874 197.575 256.923 197.121 257.363C194.855 259.418 185.506 262.696 169.528 262.696V264.604C178.934 264.604 195.025 263.626 198.255 259.222L205.224 264.408C205.224 265.436 204.94 266.708 197.575 268.567C196.271 268.909 194.798 269.154 193.212 269.399C187.546 270.377 178.934 271.062 169.472 271.062V273.361C177.007 273.361 189.586 272.725 197.858 270.915C198.821 270.72 199.728 270.475 200.578 270.23C201.257 270.035 204.26 268.029 204.884 267.784C204.884 267.784 199.728 278.205 169.528 278.205V280.26L169.472 280.113Z" fill="black"/>
<path d="M233.435 247.055C236.09 247.055 238.28 247.955 238.28 250.46C238.28 253.325 235.805 254.21 233.15 254.21C230 254.21 227.6 252.86 227.6 248.75C227.6 244.73 230.12 243.275 233.15 243.275C235.16 243.275 237.8 243.98 238.07 246.29H235.25C235.04 245.585 234.26 245.255 233.15 245.255C231.14 245.255 230.48 246.41 230.375 248.165C231.02 247.46 232.175 247.055 233.435 247.055ZM233.15 252.245C234.62 252.245 235.52 251.765 235.52 250.46C235.52 249.14 234.455 248.735 233.3 248.735C231.605 248.735 230.675 249.2 230.675 250.46C230.675 251.81 231.605 252.245 233.15 252.245ZM248.176 252.365C249.496 252.365 250.231 251.675 250.456 250.73H252.916C252.496 253.22 250.306 254.21 248.176 254.21C245.836 254.21 243.226 253.085 243.226 249.995C243.226 246.905 245.836 245.78 248.176 245.78C250.306 245.78 252.496 246.785 252.916 249.275H250.456C250.231 248.315 249.496 247.625 248.176 247.625C246.526 247.625 245.791 248.69 245.791 249.995C245.791 251.3 246.526 252.365 248.176 252.365ZM265.052 245.78C267.107 245.78 268.262 246.905 268.262 248.705V254H265.547V249.305C265.547 248.135 264.902 247.745 264.077 247.745C263.252 247.745 262.532 248.18 262.532 249.305V254H259.832V249.305C259.832 248.135 259.187 247.745 258.362 247.745C257.522 247.745 256.817 248.18 256.817 249.305V254H254.117V246.005H256.817V247.1C257.117 246.635 257.972 245.78 259.337 245.78C260.732 245.78 261.722 246.305 262.202 247.205C262.412 246.875 263.492 245.78 265.052 245.78Z" fill="black"/>
</svg>
