<svg width="285" height="331" viewBox="0 0 285 331" fill="none" xmlns="http://www.w3.org/2000/svg">
<rect width="285" height="331" rx="10" fill="black"/>
<path fill-rule="evenodd" clip-rule="evenodd" d="M105.511 307.391C106.769 301.897 107.983 295.452 109.154 288.357C110.369 280.96 111.583 272.914 112.798 264.566C113.405 260.456 113.969 256.303 114.576 252.107L114.793 250.55C115.096 248.474 115.4 246.354 115.66 244.234V243.845C115.834 242.85 116.007 241.898 116.137 240.904C117.655 230.003 119.26 219.145 120.952 209.023C121.082 208.33 121.168 207.595 121.298 206.903C123.12 196.218 125.028 186.399 127.154 178.31C129.279 186.442 131.231 196.261 133.052 206.989C133.182 207.682 133.269 208.374 133.399 209.023C135.091 219.188 136.696 230.046 138.257 240.904C138.387 241.942 138.517 242.893 138.691 243.888V244.278C139.038 246.311 139.341 248.387 139.601 250.42L139.905 252.583C140.165 254.4 140.426 256.217 140.686 258.034H144.199C144.112 257.428 144.025 256.866 143.939 256.26C143.765 254.876 143.548 253.492 143.375 252.151C142.811 248.257 142.291 244.364 141.683 240.471V240.168C140.295 230.046 138.777 219.924 137.086 209.715C136.912 208.59 136.696 207.509 136.522 206.427C134.961 197.429 133.269 188.259 130.97 179.391V179.348C130.797 178.742 130.667 178.136 130.493 177.531L127.154 164.727L123.814 177.531C123.641 178.136 123.51 178.742 123.337 179.348V179.434C121.212 187.826 119.737 196.435 118.219 204.913C118.132 205.432 118.046 205.951 117.959 206.47C117.785 207.552 117.568 208.676 117.395 209.758C115.66 220.01 114.185 230.132 112.798 240.255V240.557C112.147 244.58 111.583 248.647 111.019 252.67C110.846 253.881 110.672 255.135 110.499 256.347C109.024 266.945 107.506 277.543 105.728 287.968C104.73 294.284 103.559 300.599 102.041 306.742C101.911 307.218 101.824 307.694 101.694 308.169" fill="white"/>
<path fill-rule="evenodd" clip-rule="evenodd" d="M179.2 37.0295C179.2 37.3756 179.157 37.7649 179.114 38.2407C178.68 43.7777 177.682 56.9713 179.374 60.5185C183.234 68.3049 186.227 77.3025 188.872 85.435C192.732 97.5904 196.072 110.049 198.588 122.507C199.412 126.616 200.149 130.899 200.843 135.268C202.057 143.271 202.925 151.533 202.968 159.449C202.968 162.52 202.881 165.505 202.578 168.447C202.448 170.09 202.318 171.691 202.188 173.335C201.233 184.149 199.889 194.877 198.588 205.562C197.98 210.493 197.373 215.425 196.723 220.356C195.118 232.901 193.557 245.489 192.342 258.034H195.942C197.113 245.446 198.891 231.257 200.67 216.766C201.103 213.175 201.58 209.585 202.014 205.951C203.142 196.694 204.269 187.394 205.18 178.439C205.527 175.152 205.831 171.951 206.091 168.793C206.265 166.716 206.395 164.597 206.438 162.434C206.438 161.482 206.438 160.487 206.438 159.492C206.438 155.988 206.221 152.312 205.918 148.591V148.375C205.831 147.423 205.744 146.472 205.657 145.52C205.657 145.174 205.571 144.785 205.527 144.439C205.527 144.266 205.527 144.093 205.484 143.963C205.18 141.108 204.79 138.21 204.356 135.311C203.966 132.716 203.532 130.077 203.055 127.482C202.708 125.665 202.361 123.848 202.014 122.031C199.325 108.751 195.725 95.6871 192.169 84.5698C188.612 73.4526 185.099 64.3684 182.583 59.1342C181.629 57.0579 181.889 48.8389 182.757 37.5053C182.8 36.7267 182.887 35.9481 182.93 35.1694M62.0525 298.004V297.917C63.2236 292.77 63.3971 286.8 63.3971 281.436C63.3971 274.126 62.7465 266.642 62.0525 259.331C60.9249 245.965 59.2334 232.598 57.5852 219.231C57.0214 214.646 56.4142 210.061 55.8937 205.475C54.5925 194.791 53.248 184.063 52.2938 173.248C52.1637 171.648 51.9902 170.004 51.8601 168.36C51.5999 165.419 51.4698 162.434 51.4698 159.363C51.4698 151.36 52.3372 143.011 53.595 134.965C54.2456 130.683 55.0696 126.487 55.8937 122.42C58.4093 109.962 61.7489 97.4607 65.609 85.3485C68.2981 77.1727 71.2908 68.2184 74.9774 60.432C76.9725 56.5388 75.628 41.4851 75.1509 37.0295L71.6378 34.9531C71.6811 35.7318 71.7679 36.5104 71.8112 37.2458V37.3756C72.6787 48.6658 72.9389 56.8416 71.9847 58.9179V59.0045C69.3824 64.2387 65.8693 73.2795 62.3128 84.3103C58.7563 95.4275 55.1998 108.491 52.5107 121.772C52.1637 123.588 51.8167 125.405 51.4698 127.179C50.9927 129.817 50.5589 132.456 50.1252 135.095C49.6915 138.036 49.3012 140.935 48.9976 143.79C48.9976 143.963 48.9976 144.136 48.9542 144.309C48.9542 144.612 48.8674 144.958 48.8674 145.261C48.7807 146.169 48.694 147.121 48.6072 148.029V148.245V148.418C48.2169 152.225 48 155.902 48 159.449C48 160.444 48 161.439 48 162.434C48.0434 164.597 48.1735 166.716 48.347 168.75C48.6072 171.951 48.9542 175.195 49.2578 178.439C50.1686 187.394 51.2963 196.694 52.4239 205.951C52.8577 209.542 53.2914 213.132 53.7685 216.679C55.6768 231.819 57.4985 246.657 58.6695 259.677C59.4068 267.767 59.8406 275.12 59.9273 281.479C59.9707 287.838 59.6237 293.159 58.7563 297.182V297.268" fill="white"/>
<path d="M216 239H223V259H216" stroke="white" stroke-miterlimit="10" stroke-dasharray="4 4"/>
<path d="M127.762 184.808C134.831 212.926 137.043 244.461 141.294 264.792C144.72 281.187 152.961 288.584 165.148 288.584C185.316 288.584 192.906 280.451 196.68 261.634C197.721 256.443 202.101 221.231 202.101 221.231C204.747 201.938 205.788 189.567 205.788 184.289L127.762 184.808Z" fill="#2D2D2D"/>
<path d="M165.148 289.36C152.223 289.36 143.939 281.141 140.513 264.963C138.778 256.744 137.39 246.622 135.916 235.894C133.704 219.888 131.188 201.763 126.981 184.979L126.721 183.984L206.569 183.422V184.201C206.569 190.343 205.181 204.229 202.839 221.272C202.665 222.7 198.458 256.614 197.417 261.762C193.427 281.877 184.666 289.317 165.105 289.317L165.148 289.36ZM128.759 185.585C132.88 202.153 135.308 219.975 137.477 235.677C138.952 246.362 140.34 256.484 142.074 264.617C145.327 280.19 152.874 287.76 165.148 287.76C183.972 287.76 192.039 280.882 195.899 261.459C196.897 256.355 201.277 221.445 201.321 221.099C203.533 204.791 204.92 191.468 205.007 185.022L128.759 185.541V185.585Z" fill="white"/>
<path d="M168.315 241.639C153.004 241.639 136.783 240.098 136.783 237.241C136.783 234.384 153.048 232.844 168.315 232.844C183.582 232.844 199.846 234.384 199.846 237.241C199.846 240.098 183.582 241.639 168.315 241.639ZM168.315 233.376C149.925 233.376 137.564 235.393 137.564 237.241C137.564 239.09 149.925 241.107 168.315 241.107C186.704 241.107 199.065 239.09 199.065 237.241C199.065 235.393 186.704 233.376 168.315 233.376Z" fill="white"/>
<path d="M168.314 232.869C183.625 232.869 199.846 234.409 199.846 237.266C199.846 240.123 183.581 241.664 168.314 241.664C153.047 241.664 136.783 240.123 136.783 237.266C136.783 234.409 153.047 232.869 168.314 232.869ZM168.314 241.132C186.704 241.132 199.065 239.115 199.065 237.266C199.065 235.418 186.704 233.401 168.314 233.401C149.925 233.401 137.564 235.418 137.564 237.266C137.564 239.115 149.925 241.132 168.314 241.132ZM168.314 232.477C157.211 232.477 136.176 233.485 136.176 237.238C136.176 240.992 157.211 242 168.314 242C179.418 242 200.453 240.992 200.453 237.238C200.453 233.485 179.418 232.477 168.314 232.477ZM168.314 240.74C148.493 240.74 138.171 238.471 138.171 237.238C138.171 236.006 148.537 233.737 168.314 233.737C188.092 233.737 198.458 236.006 198.458 237.238C198.458 238.471 188.092 240.74 168.314 240.74Z" fill="white"/>
<path d="M212.72 238.656V239.824H209.36V258H212.72V259.168H209.36V259.219H208.36V259.168H205V258H208.36V239.824H205V238.656H212.72Z" fill="white"/>
<path d="M255.448 206.3H261C260.089 212.226 254.841 214.432 249.81 214.432C244.345 214.432 238.533 211.794 238.533 204.613C238.533 197.432 244.345 194.75 249.81 194.75C254.798 194.75 260.089 196.956 261 202.882H255.448C254.841 200.287 253.193 198.557 249.81 198.557C245.95 198.557 243.998 200.936 243.998 204.613C243.998 208.29 245.95 210.626 249.81 210.626C253.193 210.626 254.841 208.852 255.448 206.3Z" fill="white"/>
<path d="M188.526 233.383L187.398 232.994L197.157 203.492H233.893V204.703H198.025L188.526 233.383Z" fill="white"/>
<path d="M190.738 234.292C190.218 235.849 188.526 236.671 187.008 236.196C185.447 235.676 184.623 233.989 185.1 232.475C185.62 230.918 187.312 230.096 188.83 230.572C190.391 231.091 191.215 232.778 190.738 234.292Z" fill="black"/>
<path d="M191.085 234.424C191.649 232.651 190.694 230.748 188.959 230.185C187.225 229.623 185.273 230.574 184.709 232.305C184.145 234.078 185.099 235.982 186.834 236.544C188.612 237.106 190.521 236.155 191.085 234.424C191.649 232.651 190.521 236.198 191.085 234.424ZM185.446 232.564C185.88 231.223 187.355 230.488 188.699 230.921C190.044 231.353 190.781 232.824 190.347 234.165C189.914 235.506 188.439 236.241 187.094 235.809C185.75 235.376 185.013 233.905 185.446 232.564C185.88 231.223 185.013 233.905 185.446 232.564Z" fill="white"/>
<path d="M197.685 259H139.268C138.983 259 138.697 259.204 138.555 259.571L136.178 264.665C135.941 265.154 135.941 265.846 136.178 266.335L138.602 271.429C138.793 271.796 139.03 272 139.315 272H197.732C198.017 272 198.303 271.796 198.445 271.429L200.822 266.335C201.059 265.846 201.059 265.154 200.822 264.665L198.398 259.571C198.207 259.204 197.97 259 197.685 259Z" fill="black" stroke="white" stroke-width="1.5" stroke-miterlimit="10"/>
<path d="M136 266L201 266" stroke="white" stroke-width="1.5" stroke-miterlimit="10"/>
<path d="M231.304 251.012H238.066V253H228.42C228.742 246.966 235.448 248.814 235.448 246.098C235.448 245.356 234.958 244.74 233.488 244.74C232.102 244.74 231.528 245.258 231.388 246.28H228.84C229.064 243.928 230.94 242.99 233.53 242.99C235.784 242.99 237.954 243.69 237.954 246.112C237.954 249.976 232.466 249.052 231.304 251.012ZM240.569 250.424C241.325 250.424 241.941 251.054 241.941 251.81C241.941 252.58 241.325 253.196 240.569 253.196C239.799 253.196 239.183 252.58 239.183 251.81C239.183 251.054 239.799 250.424 240.569 250.424ZM253.493 249.43V251.152H251.757V253H249.237V251.152H243.063V249.29L248.425 243.2H251.757V249.43H253.493ZM245.555 249.43H249.237V245.16L245.555 249.43ZM258.522 243.2H261.308V253H258.522V243.2ZM268.116 245.328C270.034 245.328 271.238 246.378 271.238 248.058V253H268.718V248.618C268.718 247.792 268.2 247.162 267.066 247.162C265.946 247.162 265.372 247.792 265.372 248.618V253H262.852V245.538H265.372V246.602C265.666 246.168 266.562 245.328 268.116 245.328Z" fill="white"/>
</svg>
