<svg width="285" height="332" viewBox="0 0 285 332" fill="none" xmlns="http://www.w3.org/2000/svg">
<rect width="285" height="332" rx="10" fill="#D9D9D9"/>
<path d="M27.9597 307.3H30.7207V315H28.9497V308.917L26.3647 315H24.6817L22.0967 308.917V315H20.3257V307.3H23.0867L25.5177 313.218L27.9597 307.3ZM35.0652 308.983C36.7482 308.983 38.2222 309.467 38.2222 311.194V315H36.5502V314.219C36.2972 314.604 35.4502 315.165 34.1412 315.165C32.7662 315.165 31.8202 314.593 31.8202 313.438C31.8202 312.206 32.4582 311.216 36.5502 311.469V311.194C36.5502 310.578 36.2752 310.127 35.0652 310.127C34.0532 310.127 33.7342 310.424 33.6462 310.831H32.0842C32.2712 309.533 33.4592 308.983 35.0652 308.983ZM36.5502 313.284V312.459C34.3282 312.338 33.5032 312.547 33.5032 313.383C33.5032 313.933 33.9102 314.153 34.6362 314.153C35.5382 314.153 36.2422 313.801 36.5502 313.284ZM44.1609 315L42.3019 312.525L41.2129 313.537V315H39.5409V307.3H41.2129V311.689L43.9189 309.137H45.9539L43.4459 311.469L46.0969 315H44.1609ZM52.8066 312.503H47.6036C47.7356 313.306 48.2966 314.01 49.5176 314.01C50.4086 314.01 50.9806 313.614 51.2116 313.119H52.6856C52.3006 314.582 50.9696 315.165 49.5176 315.165C47.8456 315.165 46.0966 314.241 46.0966 312.074C46.0966 309.907 47.8236 308.983 49.5066 308.983C51.2116 308.983 52.9826 310.028 52.8066 312.503ZM49.5066 310.127C48.4616 310.127 47.8786 310.699 47.6586 311.403H51.2776C51.1016 310.699 50.6066 310.127 49.5066 310.127ZM60.2002 311.469C61.8502 311.755 62.9722 311.876 62.9722 313.229C62.9722 314.571 61.8282 315.165 59.7052 315.165C57.6372 315.165 56.3502 314.516 56.3502 313.196H58.1652C58.1652 313.779 58.8582 314.032 59.8152 314.032C60.7612 314.032 61.2562 313.856 61.2562 313.405C61.2562 312.877 60.5302 312.811 58.9682 312.547C57.4172 312.294 56.5812 311.964 56.5812 310.798C56.5812 309.621 57.6262 308.983 59.6062 308.983C61.6742 308.983 62.7082 309.753 62.7082 310.831H61.0252C61.0252 310.457 60.5962 310.083 59.5842 310.083C58.6712 310.083 58.1762 310.27 58.1762 310.721C58.1762 311.227 59.1552 311.282 60.2002 311.469ZM66.2374 315.165C64.7304 315.165 63.8504 314.34 63.8504 313.02V309.137H65.5224V312.602C65.5224 313.306 65.9294 313.911 66.9634 313.911C67.9974 313.911 68.4594 313.284 68.4594 312.602V309.137H70.1314V315H68.4594V314.175C68.2064 314.527 67.4914 315.165 66.2374 315.165ZM75.3169 308.994C75.7019 308.994 75.9879 309.027 76.1859 309.082V310.622H76.1309C75.9219 310.534 75.5259 310.435 75.0199 310.435C73.6339 310.435 73.1279 311.304 73.1279 312.217V315H71.4559V309.137H73.1279V310.215C73.3699 309.797 74.0629 308.994 75.3169 308.994ZM83.3359 312.503H78.1329C78.2649 313.306 78.8259 314.01 80.0469 314.01C80.9379 314.01 81.5099 313.614 81.7409 313.119H83.2149C82.8299 314.582 81.4989 315.165 80.0469 315.165C78.3749 315.165 76.6259 314.241 76.6259 312.074C76.6259 309.907 78.3529 308.983 80.0359 308.983C81.7409 308.983 83.5119 310.028 83.3359 312.503ZM80.0359 310.127C78.9909 310.127 78.4079 310.699 78.1879 311.403H81.8069C81.6309 310.699 81.1359 310.127 80.0359 310.127ZM91.4665 310.281H89.7505V312.745C89.7505 313.702 90.1025 313.889 91.4665 313.746V315C91.2465 315.033 90.9825 315.088 90.5975 315.088C88.4855 315.088 88.0785 314.175 88.0785 312.712V310.281H86.9895V309.137H88.0785V307.619H89.7505V309.137H91.4665V310.281ZM95.6249 308.983C97.3409 308.983 99.1229 309.863 99.1229 312.074C99.1229 314.285 97.3409 315.165 95.6249 315.165C93.9199 315.165 92.1269 314.285 92.1269 312.074C92.1269 309.863 93.9199 308.983 95.6249 308.983ZM95.6249 314.01C97.0329 314.01 97.5609 313.097 97.5609 312.074C97.5609 311.04 97.0329 310.127 95.6249 310.127C94.2169 310.127 93.6999 311.04 93.6999 312.074C93.6999 313.097 94.2169 314.01 95.6249 314.01ZM110.965 308.983C112.472 308.983 113.253 309.797 113.253 311.117V315H111.581V311.535C111.581 310.831 111.273 310.226 110.338 310.226C109.403 310.226 109.062 310.842 109.062 311.535V315H107.39V311.535C107.39 310.831 107.082 310.226 106.147 310.226C105.212 310.226 104.86 310.853 104.86 311.535V315H103.199V309.137H104.86V309.907C105.069 309.544 105.575 308.983 106.774 308.983C107.797 308.983 108.479 309.357 108.809 310.006C109.018 309.687 109.678 308.983 110.965 308.983ZM120.955 312.503H115.752C115.884 313.306 116.445 314.01 117.666 314.01C118.557 314.01 119.129 313.614 119.36 313.119H120.834C120.449 314.582 119.118 315.165 117.666 315.165C115.994 315.165 114.245 314.241 114.245 312.074C114.245 309.907 115.972 308.983 117.655 308.983C119.36 308.983 121.131 310.028 120.955 312.503ZM117.655 310.127C116.61 310.127 116.027 310.699 115.807 311.403H119.426C119.25 310.699 118.755 310.127 117.655 310.127ZM124.773 308.983C126.456 308.983 127.93 309.467 127.93 311.194V315H126.258V314.219C126.005 314.604 125.158 315.165 123.849 315.165C122.474 315.165 121.528 314.593 121.528 313.438C121.528 312.206 122.166 311.216 126.258 311.469V311.194C126.258 310.578 125.983 310.127 124.773 310.127C123.761 310.127 123.442 310.424 123.354 310.831H121.792C121.979 309.533 123.167 308.983 124.773 308.983ZM126.258 313.284V312.459C124.036 312.338 123.211 312.547 123.211 313.383C123.211 313.933 123.618 314.153 124.344 314.153C125.246 314.153 125.95 313.801 126.258 313.284ZM132.549 311.469C134.199 311.755 135.321 311.876 135.321 313.229C135.321 314.571 134.177 315.165 132.054 315.165C129.986 315.165 128.699 314.516 128.699 313.196H130.514C130.514 313.779 131.207 314.032 132.164 314.032C133.11 314.032 133.605 313.856 133.605 313.405C133.605 312.877 132.879 312.811 131.317 312.547C129.766 312.294 128.93 311.964 128.93 310.798C128.93 309.621 129.975 308.983 131.955 308.983C134.023 308.983 135.057 309.753 135.057 310.831H133.374C133.374 310.457 132.945 310.083 131.933 310.083C131.02 310.083 130.525 310.27 130.525 310.721C130.525 311.227 131.504 311.282 132.549 311.469ZM138.586 315.165C137.079 315.165 136.199 314.34 136.199 313.02V309.137H137.871V312.602C137.871 313.306 138.278 313.911 139.312 313.911C140.346 313.911 140.808 313.284 140.808 312.602V309.137H142.48V315H140.808V314.175C140.555 314.527 139.84 315.165 138.586 315.165ZM147.666 308.994C148.051 308.994 148.337 309.027 148.535 309.082V310.622H148.48C148.271 310.534 147.875 310.435 147.369 310.435C145.983 310.435 145.477 311.304 145.477 312.217V315H143.805V309.137H145.477V310.215C145.719 309.797 146.412 308.994 147.666 308.994ZM155.685 312.503H150.482C150.614 313.306 151.175 314.01 152.396 314.01C153.287 314.01 153.859 313.614 154.09 313.119H155.564C155.179 314.582 153.848 315.165 152.396 315.165C150.724 315.165 148.975 314.241 148.975 312.074C148.975 309.907 150.702 308.983 152.385 308.983C154.09 308.983 155.861 310.028 155.685 312.503ZM152.385 310.127C151.34 310.127 150.757 310.699 150.537 311.403H154.156C153.98 310.699 153.485 310.127 152.385 310.127ZM159.778 306.882H161.45V315H159.778V306.882ZM162.775 315V309.137H164.436V315H162.775ZM163.6 308.455C163.094 308.455 162.742 308.169 162.742 307.674C162.742 307.168 163.094 306.882 163.6 306.882C164.106 306.882 164.469 307.168 164.469 307.674C164.469 308.169 164.106 308.455 163.6 308.455ZM169.656 308.983C171.163 308.983 172.043 309.797 172.043 311.117V315H170.371V311.535C170.371 310.831 169.964 310.226 168.93 310.226C167.896 310.226 167.434 310.853 167.434 311.535V315H165.762V309.137H167.434V309.962C167.687 309.61 168.402 308.983 169.656 308.983ZM179.747 312.503H174.544C174.676 313.306 175.237 314.01 176.458 314.01C177.349 314.01 177.921 313.614 178.152 313.119H179.626C179.241 314.582 177.91 315.165 176.458 315.165C174.786 315.165 173.037 314.241 173.037 312.074C173.037 309.907 174.764 308.983 176.447 308.983C178.152 308.983 179.923 310.028 179.747 312.503ZM176.447 310.127C175.402 310.127 174.819 310.699 174.599 311.403H178.218C178.042 310.699 177.547 310.127 176.447 310.127ZM183.565 308.983C185.248 308.983 186.722 309.467 186.722 311.194V315H185.05V314.219C184.797 314.604 183.95 315.165 182.641 315.165C181.266 315.165 180.32 314.593 180.32 313.438C180.32 312.206 180.958 311.216 185.05 311.469V311.194C185.05 310.578 184.775 310.127 183.565 310.127C182.553 310.127 182.234 310.424 182.146 310.831H180.584C180.771 309.533 181.959 308.983 183.565 308.983ZM185.05 313.284V312.459C182.828 312.338 182.003 312.547 182.003 313.383C182.003 313.933 182.41 314.153 183.136 314.153C184.038 314.153 184.742 313.801 185.05 313.284ZM191.902 308.994C192.287 308.994 192.573 309.027 192.771 309.082V310.622H192.716C192.507 310.534 192.111 310.435 191.605 310.435C190.219 310.435 189.713 311.304 189.713 312.217V315H188.041V309.137H189.713V310.215C189.955 309.797 190.648 308.994 191.902 308.994ZM201.604 307.3H203.276V315H201.604V314.274C201.175 314.824 200.493 315.165 199.503 315.165C197.798 315.165 196.401 314.065 196.401 312.074C196.401 310.083 197.798 308.983 199.503 308.983C200.493 308.983 201.175 309.324 201.604 309.874V307.3ZM199.877 314.01C201.076 314.01 201.813 313.306 201.813 312.074C201.813 310.842 201.076 310.127 199.877 310.127C198.667 310.127 197.974 310.842 197.974 312.074C197.974 313.306 198.667 314.01 199.877 314.01ZM204.595 315V309.137H206.256V315H204.595ZM205.42 308.455C204.914 308.455 204.562 308.169 204.562 307.674C204.562 307.168 204.914 306.882 205.42 306.882C205.926 306.882 206.289 307.168 206.289 307.674C206.289 308.169 205.926 308.455 205.42 308.455ZM215.347 308.983C216.854 308.983 217.635 309.797 217.635 311.117V315H215.963V311.535C215.963 310.831 215.655 310.226 214.72 310.226C213.785 310.226 213.444 310.842 213.444 311.535V315H211.772V311.535C211.772 310.831 211.464 310.226 210.529 310.226C209.594 310.226 209.242 310.853 209.242 311.535V315H207.581V309.137H209.242V309.907C209.451 309.544 209.957 308.983 211.156 308.983C212.179 308.983 212.861 309.357 213.191 310.006C213.4 309.687 214.06 308.983 215.347 308.983ZM225.337 312.503H220.134C220.266 313.306 220.827 314.01 222.048 314.01C222.939 314.01 223.511 313.614 223.742 313.119H225.216C224.831 314.582 223.5 315.165 222.048 315.165C220.376 315.165 218.627 314.241 218.627 312.074C218.627 309.907 220.354 308.983 222.037 308.983C223.742 308.983 225.513 310.028 225.337 312.503ZM222.037 310.127C220.992 310.127 220.409 310.699 220.189 311.403H223.808C223.632 310.699 223.137 310.127 222.037 310.127ZM230.242 308.983C231.748 308.983 232.629 309.797 232.629 311.117V315H230.957V311.535C230.957 310.831 230.55 310.226 229.516 310.226C228.482 310.226 228.02 310.853 228.02 311.535V315H226.348V309.137H228.02V309.962C228.273 309.61 228.988 308.983 230.242 308.983ZM237.253 311.469C238.903 311.755 240.025 311.876 240.025 313.229C240.025 314.571 238.881 315.165 236.758 315.165C234.69 315.165 233.403 314.516 233.403 313.196H235.218C235.218 313.779 235.911 314.032 236.868 314.032C237.814 314.032 238.309 313.856 238.309 313.405C238.309 312.877 237.583 312.811 236.021 312.547C234.47 312.294 233.634 311.964 233.634 310.798C233.634 309.621 234.679 308.983 236.659 308.983C238.727 308.983 239.761 309.753 239.761 310.831H238.078C238.078 310.457 237.649 310.083 236.637 310.083C235.724 310.083 235.229 310.27 235.229 310.721C235.229 311.227 236.208 311.282 237.253 311.469ZM240.903 315V309.137H242.564V315H240.903ZM241.728 308.455C241.222 308.455 240.87 308.169 240.87 307.674C240.87 307.168 241.222 306.882 241.728 306.882C242.234 306.882 242.597 307.168 242.597 307.674C242.597 308.169 242.234 308.455 241.728 308.455ZM247.057 308.983C248.773 308.983 250.555 309.863 250.555 312.074C250.555 314.285 248.773 315.165 247.057 315.165C245.352 315.165 243.559 314.285 243.559 312.074C243.559 309.863 245.352 308.983 247.057 308.983ZM247.057 314.01C248.465 314.01 248.993 313.097 248.993 312.074C248.993 311.04 248.465 310.127 247.057 310.127C245.649 310.127 245.132 311.04 245.132 312.074C245.132 313.097 245.649 314.01 247.057 314.01ZM255.443 308.983C256.95 308.983 257.83 309.797 257.83 311.117V315H256.158V311.535C256.158 310.831 255.751 310.226 254.717 310.226C253.683 310.226 253.221 310.853 253.221 311.535V315H251.549V309.137H253.221V309.962C253.474 309.61 254.189 308.983 255.443 308.983ZM262.454 311.469C264.104 311.755 265.226 311.876 265.226 313.229C265.226 314.571 264.082 315.165 261.959 315.165C259.891 315.165 258.604 314.516 258.604 313.196H260.419C260.419 313.779 261.112 314.032 262.069 314.032C263.015 314.032 263.51 313.856 263.51 313.405C263.51 312.877 262.784 312.811 261.222 312.547C259.671 312.294 258.835 311.964 258.835 310.798C258.835 309.621 259.88 308.983 261.86 308.983C263.928 308.983 264.962 309.753 264.962 310.831H263.279C263.279 310.457 262.85 310.083 261.838 310.083C260.925 310.083 260.43 310.27 260.43 310.721C260.43 311.227 261.409 311.282 262.454 311.469Z" fill="black"/>
<g clip-path="url(#clip0_2894_317)">
<path d="M205.26 225.342C195.325 225.342 190.279 212.035 189.522 206.107H192.077C192.645 209.135 196.902 223.198 205.102 223.198C220.934 223.198 225.349 216.04 227.179 206.234H229.765C227.21 216.198 223.615 225.342 205.291 225.342H205.26Z" fill="#FBFBFB"/>
<path fill-rule="evenodd" clip-rule="evenodd" d="M164.828 256.559C165.743 252.554 166.626 247.856 167.477 242.685C168.36 237.293 169.243 231.428 170.126 225.342C170.568 222.346 170.978 219.319 171.419 216.261L171.577 215.125C171.798 213.612 172.019 212.067 172.208 210.522V210.238C172.334 209.513 172.46 208.819 172.555 208.094C173.659 200.148 174.826 192.233 176.056 184.854C176.15 184.35 176.213 183.814 176.308 183.309C177.632 175.521 179.02 168.363 180.565 162.467C182.111 168.395 183.53 175.552 184.855 183.372C184.949 183.877 185.012 184.381 185.107 184.854C186.337 192.265 187.504 200.179 188.639 208.094C188.734 208.85 188.828 209.544 188.954 210.269V210.553C189.207 212.035 189.428 213.549 189.617 215.031L189.837 216.607C190.027 217.932 190.216 219.256 190.405 220.58H192.96C192.897 220.139 192.834 219.729 192.771 219.288C192.644 218.279 192.487 217.27 192.361 216.292C191.951 213.454 191.572 210.616 191.131 207.778V207.558C190.121 200.179 189.018 192.801 187.788 185.359C187.661 184.539 187.504 183.751 187.378 182.963C186.242 176.404 185.012 169.719 183.341 163.255V163.223C183.215 162.782 183.12 162.34 182.994 161.899L180.565 152.565L178.137 161.899C178.011 162.34 177.916 162.782 177.79 163.223V163.286C176.245 169.404 175.172 175.679 174.069 181.859C174.006 182.237 173.942 182.616 173.879 182.994C173.753 183.782 173.596 184.602 173.469 185.391C172.208 192.864 171.136 200.242 170.126 207.621V207.841C169.653 210.774 169.243 213.738 168.833 216.67C168.707 217.553 168.581 218.468 168.455 219.351C167.383 227.076 166.279 234.802 164.986 242.401C164.26 247.005 163.409 251.608 162.305 256.086C162.21 256.433 162.147 256.78 162.053 257.126" fill="black"/>
<path fill-rule="evenodd" clip-rule="evenodd" d="M218.411 59.4823C218.411 59.7346 218.379 60.0183 218.348 60.3652C218.032 64.4013 217.307 74.0187 218.537 76.6043C221.344 82.2801 223.52 88.8388 225.444 94.7669C228.251 103.627 230.679 112.709 232.508 121.79C233.108 124.786 233.644 127.907 234.148 131.092C235.031 136.926 235.662 142.948 235.694 148.719C235.694 150.957 235.631 153.133 235.41 155.277C235.315 156.476 235.221 157.642 235.126 158.84C234.432 166.723 233.454 174.543 232.508 182.332C232.067 185.927 231.625 189.521 231.152 193.116C229.985 202.26 228.85 211.436 227.967 220.581H230.584C231.436 211.405 232.729 201.062 234.022 190.499C234.337 187.882 234.684 185.264 235 182.616C235.82 175.868 236.64 169.088 237.302 162.561C237.554 160.165 237.775 157.831 237.964 155.53C238.09 154.016 238.185 152.471 238.217 150.894C238.217 150.201 238.217 149.475 238.217 148.75C238.217 146.196 238.059 143.516 237.838 140.804V140.646C237.775 139.953 237.712 139.259 237.649 138.565C237.649 138.313 237.586 138.029 237.554 137.777C237.554 137.651 237.554 137.525 237.523 137.43C237.302 135.349 237.018 133.236 236.703 131.124C236.419 129.232 236.104 127.308 235.757 125.416C235.504 124.092 235.252 122.768 235 121.443C233.044 111.763 230.427 102.24 227.841 94.1362C225.255 86.0325 222.7 79.4107 220.871 75.5953C220.177 74.0817 220.366 68.0906 220.997 59.8292C221.029 59.2616 221.092 58.694 221.123 58.1264M133.227 249.716V249.653C134.079 245.901 134.205 241.549 134.205 237.64C134.205 232.311 133.732 226.855 133.227 221.527C132.407 211.783 131.177 202.04 129.979 192.296C129.569 188.954 129.128 185.611 128.749 182.269C127.803 174.48 126.825 166.66 126.131 158.777C126.037 157.611 125.911 156.412 125.816 155.214C125.627 153.07 125.532 150.894 125.532 148.656C125.532 142.822 126.163 136.736 127.078 130.871C127.551 127.75 128.15 124.691 128.749 121.727C130.578 112.646 133.007 103.533 135.814 94.7038C137.769 88.7442 139.945 82.2171 142.626 76.5412C144.076 73.7033 143.099 62.7301 142.752 59.4823L140.197 57.9688C140.229 58.5363 140.292 59.1039 140.323 59.64V59.7346C140.954 67.9645 141.143 73.9241 140.45 75.4376V75.5007C138.557 79.3161 136.003 85.9063 133.417 93.947C130.831 102.051 128.244 111.574 126.289 121.254C126.037 122.578 125.785 123.903 125.532 125.196C125.185 127.119 124.87 129.042 124.555 130.966C124.239 133.11 123.955 135.223 123.735 137.304C123.735 137.43 123.735 137.556 123.703 137.682C123.703 137.903 123.64 138.155 123.64 138.376C123.577 139.038 123.514 139.732 123.451 140.394V140.552V140.678C123.23 143.421 123.104 146.101 123.072 148.656C123.072 149.381 123.072 150.106 123.072 150.831C123.104 152.408 123.198 153.953 123.325 155.435C123.514 157.768 123.766 160.133 123.987 162.498C124.649 169.025 125.469 175.805 126.289 182.553C126.604 185.17 126.92 187.787 127.267 190.373C128.654 201.409 129.979 212.225 130.831 221.716C131.367 227.612 131.682 232.973 131.745 237.608C131.777 242.243 131.524 246.122 130.894 249.054V249.117" fill="black"/>
<path d="M236.764 163.474C236.7 167.504 235.907 176.225 234.094 189.548V189.554L234.093 189.555C234.093 189.555 234.093 189.557 234.093 189.559C234.092 189.562 234.092 189.566 234.091 189.572C234.089 189.584 234.087 189.603 234.084 189.627C234.078 189.675 234.069 189.747 234.058 189.84C234.034 190.027 234 190.302 233.956 190.653C233.868 191.355 233.743 192.363 233.589 193.583C233.281 196.024 232.863 199.317 232.422 202.728C231.537 209.563 230.562 216.829 230.188 218.684V218.686C228.855 225.429 226.841 230.155 223.442 233.207C220.052 236.251 215.197 237.707 208.003 237.707C203.729 237.707 200.187 236.412 197.408 233.706C194.793 231.159 192.815 227.323 191.574 222.029L191.336 220.951C189.811 213.641 188.656 204.311 187.238 194.236C185.851 184.378 184.212 173.828 181.737 163.844L236.764 163.474Z" fill="#D3D3D5" stroke="black"/>
<path d="M237.275 162.971C237.275 167.378 236.271 177.341 234.599 189.643L234.598 189.65C234.469 190.712 231.445 215.115 230.693 218.81V218.812C229.267 226.019 227.004 230.863 223.436 233.917C219.883 236.957 214.951 238.296 208.01 238.305L208.003 238.274C203.467 238.274 199.783 236.834 196.927 233.997C194.238 231.327 192.249 227.384 191.007 222.142L190.769 221.076C189.543 215.168 188.536 207.903 187.463 200.142C185.887 188.605 184.054 175.493 181.019 163.386L181.017 163.375L180.998 163.309L237.275 162.906V162.971ZM236.604 163.038L181.761 163.417L181.762 163.933L181.342 164.037C184.299 175.957 186.062 188.765 187.607 200.12V200.121C188.679 207.841 189.69 215.143 190.893 221.027L190.894 221.029C192.071 226.694 194.05 230.976 196.898 233.845C199.761 236.727 203.458 238.14 207.972 238.14C214.803 238.14 219.78 236.894 223.396 233.789C227.008 230.689 229.175 225.809 230.57 218.754V218.753C231.3 215.04 234.426 189.848 234.455 189.614L234.454 189.613C236.062 177.856 237.045 168.214 237.108 163.545L237.115 163.035L236.604 163.038Z" fill="black" stroke="black"/>
<path d="M270.419 205.035H258.371V191.318H261.556V202.607H270.419V205.035Z" fill="#050A0A"/>
<path d="M246.542 157.61H246.006V238.837H246.542V157.61Z" fill="black"/>
<path d="M248.939 238.428H243.609V239.248H248.939V238.428Z" fill="black"/>
<path d="M248.939 157.2H243.609V158.02H248.939V157.2Z" fill="black"/>
<path d="M178.325 158.016L19.2617 158.016" stroke="#1D1D1B" stroke-miterlimit="10" stroke-dasharray="4 4"/>
<path d="M30.8866 166.326C30.8866 168.628 29.5342 170.325 26.1964 170.325H21.391V174.41H19.2617V162.327H26.5129C29.7932 162.327 30.8866 164.255 30.8866 166.297V166.326ZM28.6998 166.326C28.6998 164.974 27.9516 164.14 26.1676 164.14H21.391V168.57H26.1964C28.0667 168.57 28.6998 167.621 28.6998 166.355V166.326Z" fill="#050A0A"/>
<path d="M42.1379 170.498H33.8508C34.081 172.081 35.2032 173.116 37.1599 173.116C38.9439 173.116 39.7208 172.253 40.0373 171.592H41.9077C41.4473 173.462 39.6345 174.67 37.1887 174.67C34.5702 174.67 31.9805 173.174 31.9805 169.837C31.9805 166.499 34.5126 164.975 37.1599 164.975C40.0661 164.975 42.4256 166.701 42.1667 170.498H42.1379ZM40.2388 168.945C39.951 167.506 38.9727 166.528 37.1311 166.528C35.4334 166.528 34.2537 167.506 33.9084 168.945H40.2388Z" fill="#050A0A"/>
<path d="M50.7121 165.032V167.132H50.6546C50.2805 167.017 49.8201 166.959 49.2446 166.959C46.9139 166.959 46.0219 168.311 46.0219 169.75V174.41H43.8926V165.204H46.0219V166.93C46.4247 166.269 47.7196 164.945 49.705 164.945C50.1079 164.945 50.3669 164.945 50.7121 165.003V165.032Z" fill="#050A0A"/>
<path d="M52.3818 162.903C52.3818 162.241 52.8422 161.867 53.504 161.867C54.1659 161.867 54.655 162.241 54.655 162.903C54.655 163.565 54.1946 163.939 53.504 163.939C52.8135 163.939 52.3818 163.565 52.3818 162.903ZM52.4394 165.233H54.5687V174.439H52.4394V165.233Z" fill="#050A0A"/>
<path d="M66.3366 168.484V174.44H64.2072V169.117C64.2072 167.564 63.3728 166.701 61.6751 166.701C59.9774 166.701 59.0854 167.679 59.0854 169.117V174.44H56.9561V165.234H59.0854V166.643C59.517 166.039 60.6967 164.975 62.5959 164.975C64.9842 164.975 66.3078 166.327 66.3078 168.484H66.3366Z" fill="#050A0A"/>
<path d="M78.2775 170.498H69.9905C70.2207 172.081 71.3429 173.116 73.2995 173.116C75.0836 173.116 75.8605 172.253 76.177 171.592H78.0473C77.587 173.462 75.7742 174.67 73.3283 174.67C70.7098 174.67 68.1201 173.174 68.1201 169.837C68.1201 166.499 70.6523 164.975 73.2995 164.975C76.2058 164.975 78.5653 166.701 78.3351 170.498H78.2775ZM76.3784 168.945C76.0907 167.506 75.1123 166.528 73.2708 166.528C71.5731 166.528 70.3933 167.506 70.048 168.945H76.3784Z" fill="#050A0A"/>
<path d="M89.3859 165.233V174.44H87.2566V173.03C86.825 173.634 85.6452 174.699 83.7461 174.699C81.3578 174.699 80.0342 173.346 80.0342 171.189V165.233H82.1635V170.556C82.1635 172.109 82.998 172.972 84.6957 172.972C86.3934 172.972 87.2854 171.994 87.2854 170.556V165.233H89.4147H89.3859Z" fill="#050A0A"/>
<path d="M107.082 168.484V174.44H104.952V169.117C104.952 167.564 104.377 166.701 102.765 166.701C101.154 166.701 100.492 167.736 100.492 169.117V174.44H98.3628V169.117C98.3628 167.564 97.7873 166.701 96.1759 166.701C94.5646 166.701 93.9028 167.736 93.9028 169.117V174.44H91.7734V165.234H93.9028V166.586C94.248 165.982 95.1401 164.975 96.9241 164.975C98.5067 164.975 99.5426 165.55 100.061 166.586C100.521 165.953 101.672 164.975 103.513 164.975C105.902 164.975 107.082 166.327 107.082 168.484Z" fill="#050A0A"/>
</g>
<defs>
<clipPath id="clip0_2894_317">
<rect width="274" height="199" fill="white" transform="translate(9 58)"/>
</clipPath>
</defs>
</svg>
