<svg width="285" height="332" viewBox="0 0 285 332" fill="none" xmlns="http://www.w3.org/2000/svg">
<rect width="285" height="332" rx="10" fill="black"/>
<path fill-rule="evenodd" clip-rule="evenodd" d="M241.72 162V163.168H238.359V232H241.72V233.168H234V232H237.359V163.168H234V162H241.72Z" fill="white"/>
<path d="M276 207H259V188H263.495V203.637H276V207Z" fill="white"/>
<path d="M245 162H253V233H245" stroke="white" stroke-miterlimit="10" stroke-dasharray="4 4"/>
<path d="M200.245 223.295C190.565 223.295 185.648 210.39 184.91 204.641H187.399C187.953 207.576 192.101 221.216 200.092 221.216C215.519 221.216 219.822 214.274 221.604 204.763H224.124C221.635 214.427 218.131 223.295 200.276 223.295H200.245Z" fill="white"/>
<path fill-rule="evenodd" clip-rule="evenodd" d="M160.847 253.569C161.738 249.685 162.599 245.128 163.428 240.113C164.289 234.883 165.149 229.195 166.01 223.293C166.44 220.388 166.84 217.452 167.27 214.486L167.424 213.385C167.639 211.917 167.854 210.418 168.038 208.92V208.645C168.161 207.941 168.284 207.268 168.376 206.565C169.452 198.858 170.589 191.182 171.788 184.026C171.88 183.537 171.941 183.017 172.033 182.528C173.324 174.974 174.676 168.032 176.182 162.314C177.688 168.063 179.071 175.005 180.362 182.589C180.454 183.078 180.516 183.568 180.608 184.026C181.806 191.213 182.943 198.889 184.05 206.565C184.142 207.299 184.234 207.972 184.357 208.675V208.95C184.603 210.388 184.818 211.856 185.002 213.293L185.218 214.822C185.402 216.106 185.586 217.391 185.771 218.675H188.26C188.199 218.247 188.137 217.85 188.076 217.421C187.953 216.443 187.799 215.464 187.676 214.516C187.277 211.764 186.908 209.012 186.478 206.259V206.045C185.494 198.889 184.418 191.733 183.22 184.516C183.097 183.721 182.943 182.956 182.82 182.192C181.714 175.831 180.516 169.347 178.887 163.078V163.047C178.764 162.619 178.672 162.191 178.549 161.763L176.182 152.711L173.816 161.763C173.693 162.191 173.601 162.619 173.478 163.047V163.109C171.972 169.041 170.927 175.127 169.851 181.121C169.79 181.488 169.729 181.855 169.667 182.222C169.544 182.987 169.391 183.782 169.268 184.546C168.038 191.794 166.993 198.95 166.01 206.106V206.32C165.549 209.164 165.149 212.039 164.75 214.883C164.627 215.739 164.504 216.626 164.381 217.483C163.336 224.975 162.261 232.468 161.001 239.838C160.294 244.303 159.464 248.768 158.388 253.11C158.296 253.446 158.235 253.783 158.143 254.119" fill="white"/>
<path fill-rule="evenodd" clip-rule="evenodd" d="M213.061 62.4367C213.061 62.6813 213.03 62.9565 213 63.2929C212.692 67.2074 211.986 76.5347 213.184 79.0424C215.919 84.5471 218.04 90.9081 219.914 96.6574C222.65 105.251 225.016 114.058 226.798 122.866C227.382 125.771 227.905 128.799 228.396 131.887C229.257 137.545 229.872 143.386 229.902 148.982C229.902 151.154 229.841 153.264 229.626 155.343C229.534 156.505 229.441 157.637 229.349 158.799C228.673 166.444 227.72 174.029 226.798 181.582C226.368 185.069 225.938 188.555 225.477 192.041C224.34 200.91 223.233 209.809 222.373 218.678H224.924C225.754 209.778 227.014 199.748 228.274 189.503C228.581 186.965 228.919 184.426 229.226 181.858C230.025 175.313 230.824 168.738 231.47 162.408C231.716 160.083 231.931 157.82 232.115 155.588C232.238 154.12 232.33 152.622 232.361 151.093C232.361 150.42 232.361 149.716 232.361 149.013C232.361 146.536 232.207 143.936 231.992 141.306V141.154C231.931 140.481 231.869 139.808 231.808 139.135C231.808 138.89 231.746 138.615 231.716 138.371C231.716 138.248 231.716 138.126 231.685 138.034C231.47 136.016 231.193 133.967 230.886 131.918C230.609 130.083 230.302 128.218 229.964 126.383C229.718 125.098 229.472 123.814 229.226 122.529C227.321 113.141 224.77 103.905 222.25 96.0458C219.73 88.1863 217.241 81.7642 215.458 78.0638C214.782 76.5959 214.967 70.7854 215.581 62.7731C215.612 62.2226 215.673 61.6721 215.704 61.1217M130.054 246.935V246.874C130.884 243.235 131.007 239.014 131.007 235.222C131.007 230.054 130.546 224.763 130.054 219.595C129.255 210.145 128.056 200.696 126.889 191.246C126.489 188.004 126.059 184.763 125.69 181.521C124.768 173.967 123.815 166.383 123.139 158.738C123.047 157.606 122.924 156.444 122.832 155.282C122.648 153.203 122.555 151.093 122.555 148.921C122.555 143.264 123.17 137.361 124.061 131.673C124.522 128.646 125.106 125.679 125.69 122.805C127.472 113.997 129.839 105.159 132.574 96.5962C134.479 90.8163 136.6 84.4859 139.212 78.9813C140.626 76.2289 139.673 65.5866 139.335 62.4367L136.846 60.9688C136.876 61.5192 136.938 62.0697 136.969 62.5896V62.6813C137.583 70.6631 137.768 76.443 137.092 77.9109V77.9721C135.248 81.6724 132.758 88.064 130.238 95.8623C127.718 103.722 125.198 112.957 123.293 122.346C123.047 123.63 122.801 124.915 122.555 126.169C122.217 128.034 121.91 129.9 121.603 131.765C121.295 133.845 121.019 135.893 120.804 137.912C120.804 138.034 120.804 138.157 120.773 138.279C120.773 138.493 120.711 138.738 120.711 138.952C120.65 139.594 120.588 140.267 120.527 140.909V141.062V141.184C120.312 143.845 120.189 146.444 120.158 148.921C120.158 149.625 120.158 150.328 120.158 151.031C120.189 152.56 120.281 154.059 120.404 155.496C120.588 157.759 120.834 160.053 121.049 162.347C121.695 168.677 122.494 175.252 123.293 181.796C123.6 184.335 123.908 186.873 124.246 189.381C125.598 200.084 126.889 210.574 127.718 219.779C128.241 225.497 128.548 230.696 128.61 235.192C128.64 239.687 128.394 243.449 127.78 246.293V246.354" fill="white"/>
<path d="M176.705 163.172C181.684 182.836 183.22 204.915 186.201 219.136C188.598 230.604 194.376 235.772 202.92 235.772C217.056 235.772 222.404 230.084 225.016 216.934C225.753 213.295 228.827 188.646 228.827 188.646C230.671 175.16 231.439 166.505 231.439 162.805L176.736 163.172H176.705Z" fill="#2D2D2D"/>
<path d="M202.92 236.326C193.854 236.326 188.045 230.577 185.648 219.262C184.45 213.512 183.466 206.448 182.421 198.925C180.885 187.732 179.102 175.041 176.152 163.328L175.968 162.655L231.931 162.258V162.808C231.931 167.12 230.947 176.815 229.319 188.741C229.196 189.751 226.245 213.451 225.508 217.06C222.711 231.127 216.565 236.357 202.858 236.357L202.92 236.326ZM177.412 163.726C180.301 175.316 182.022 187.763 183.528 198.772C184.573 206.265 185.556 213.329 186.724 219.017C188.998 229.904 194.315 235.225 202.889 235.225C216.104 235.225 221.728 230.424 224.432 216.815C225.139 213.237 228.182 188.833 228.212 188.589C229.78 177.182 230.732 167.854 230.794 163.359L177.351 163.726H177.412Z" fill="white"/>
<path d="M173.785 157.703H9" stroke="white" stroke-miterlimit="10" stroke-dasharray="1.18 1.18 1.18 1.18 1.18 1.18 1.18 1.18"/>
<rect width="285" height="332" rx="10" fill="black"/>
<path d="M241.72 162V163.168H238.359V232H241.72V233.168H234V232H237.359V163.168H234V162H241.72Z" fill="white"/>
<path d="M276 207H259V188H263.495V203.637H276V207Z" fill="white"/>
<path d="M245 162H253V233H245" stroke="white" stroke-miterlimit="10" stroke-dasharray="4 4"/>
<path d="M200.245 223.295C190.565 223.295 185.648 210.39 184.91 204.641H187.399C187.953 207.576 192.101 221.216 200.092 221.216C215.519 221.216 219.822 214.274 221.604 204.763H224.124C221.635 214.427 218.131 223.295 200.276 223.295H200.245Z" fill="white"/>
<path fill-rule="evenodd" clip-rule="evenodd" d="M160.847 253.569C161.738 249.685 162.599 245.128 163.428 240.113C164.289 234.883 165.149 229.195 166.01 223.293C166.44 220.388 166.84 217.452 167.27 214.486L167.424 213.385C167.639 211.917 167.854 210.418 168.038 208.92V208.645C168.161 207.941 168.284 207.268 168.376 206.565C169.452 198.858 170.589 191.182 171.788 184.026C171.88 183.537 171.941 183.017 172.033 182.528C173.324 174.974 174.676 168.032 176.182 162.314C177.688 168.063 179.071 175.005 180.362 182.589C180.454 183.078 180.516 183.568 180.608 184.026C181.806 191.213 182.943 198.889 184.05 206.565C184.142 207.299 184.234 207.972 184.357 208.675V208.95C184.603 210.388 184.818 211.856 185.002 213.293L185.218 214.822C185.402 216.106 185.586 217.391 185.771 218.675H188.26C188.199 218.247 188.137 217.85 188.076 217.421C187.953 216.443 187.799 215.464 187.676 214.516C187.277 211.764 186.908 209.012 186.478 206.259V206.045C185.494 198.889 184.418 191.733 183.22 184.516C183.097 183.721 182.943 182.956 182.82 182.192C181.714 175.831 180.516 169.347 178.887 163.078V163.047C178.764 162.619 178.672 162.191 178.549 161.763L176.182 152.711L173.816 161.763C173.693 162.191 173.601 162.619 173.478 163.047V163.109C171.972 169.041 170.927 175.127 169.851 181.121C169.79 181.488 169.729 181.855 169.667 182.222C169.544 182.987 169.391 183.782 169.268 184.546C168.038 191.794 166.993 198.95 166.01 206.106V206.32C165.549 209.164 165.149 212.039 164.75 214.883C164.627 215.739 164.504 216.626 164.381 217.483C163.336 224.975 162.261 232.468 161.001 239.838C160.294 244.303 159.464 248.768 158.388 253.11C158.296 253.446 158.235 253.783 158.143 254.119" fill="white"/>
<path fill-rule="evenodd" clip-rule="evenodd" d="M213.061 62.4367C213.061 62.6813 213.03 62.9565 213 63.2929C212.692 67.2074 211.986 76.5347 213.184 79.0424C215.919 84.5471 218.04 90.9081 219.914 96.6574C222.65 105.251 225.016 114.058 226.798 122.866C227.382 125.771 227.905 128.799 228.396 131.887C229.257 137.545 229.872 143.386 229.902 148.982C229.902 151.154 229.841 153.264 229.626 155.343C229.534 156.505 229.441 157.637 229.349 158.799C228.673 166.444 227.72 174.029 226.798 181.582C226.368 185.069 225.938 188.555 225.477 192.041C224.34 200.91 223.233 209.809 222.373 218.678H224.924C225.754 209.778 227.014 199.748 228.274 189.503C228.581 186.965 228.919 184.426 229.226 181.858C230.025 175.313 230.824 168.738 231.47 162.408C231.716 160.083 231.931 157.82 232.115 155.588C232.238 154.12 232.33 152.622 232.361 151.093C232.361 150.42 232.361 149.716 232.361 149.013C232.361 146.536 232.207 143.936 231.992 141.306V141.154C231.931 140.481 231.869 139.808 231.808 139.135C231.808 138.89 231.746 138.615 231.716 138.371C231.716 138.248 231.716 138.126 231.685 138.034C231.47 136.016 231.193 133.967 230.886 131.918C230.609 130.083 230.302 128.218 229.964 126.383C229.718 125.098 229.472 123.814 229.226 122.529C227.321 113.141 224.77 103.905 222.25 96.0458C219.73 88.1863 217.241 81.7642 215.458 78.0638C214.782 76.5959 214.967 70.7854 215.581 62.7731C215.612 62.2226 215.673 61.6721 215.704 61.1217M130.054 246.935V246.874C130.884 243.235 131.007 239.014 131.007 235.222C131.007 230.054 130.546 224.763 130.054 219.595C129.255 210.145 128.056 200.696 126.889 191.246C126.489 188.004 126.059 184.763 125.69 181.521C124.768 173.967 123.815 166.383 123.139 158.738C123.047 157.606 122.924 156.444 122.832 155.282C122.648 153.203 122.555 151.093 122.555 148.921C122.555 143.264 123.17 137.361 124.061 131.673C124.522 128.646 125.106 125.679 125.69 122.805C127.472 113.997 129.839 105.159 132.574 96.5962C134.479 90.8163 136.6 84.4859 139.212 78.9813C140.626 76.2289 139.673 65.5866 139.335 62.4367L136.846 60.9688C136.876 61.5192 136.938 62.0697 136.969 62.5896V62.6813C137.583 70.6631 137.768 76.443 137.092 77.9109V77.9721C135.248 81.6724 132.758 88.064 130.238 95.8623C127.718 103.722 125.198 112.957 123.293 122.346C123.047 123.63 122.801 124.915 122.555 126.169C122.217 128.034 121.91 129.9 121.603 131.765C121.295 133.845 121.019 135.893 120.804 137.912C120.804 138.034 120.804 138.157 120.773 138.279C120.773 138.493 120.711 138.738 120.711 138.952C120.65 139.594 120.588 140.267 120.527 140.909V141.062V141.184C120.312 143.845 120.189 146.444 120.158 148.921C120.158 149.625 120.158 150.328 120.158 151.031C120.189 152.56 120.281 154.059 120.404 155.496C120.588 157.759 120.834 160.053 121.049 162.347C121.695 168.677 122.494 175.252 123.293 181.796C123.6 184.335 123.908 186.873 124.246 189.381C125.598 200.084 126.889 210.574 127.718 219.779C128.241 225.497 128.548 230.696 128.61 235.192C128.64 239.687 128.394 243.449 127.78 246.293V246.354" fill="white"/>
<path d="M176.705 163.172C181.684 182.836 183.22 204.915 186.201 219.136C188.598 230.604 194.376 235.772 202.92 235.772C217.056 235.772 222.404 230.084 225.016 216.934C225.753 213.295 228.827 188.646 228.827 188.646C230.671 175.16 231.439 166.505 231.439 162.805L176.736 163.172H176.705Z" fill="#2D2D2D"/>
<path d="M202.92 236.326C193.854 236.326 188.045 230.577 185.648 219.262C184.45 213.512 183.466 206.448 182.421 198.925C180.885 187.732 179.102 175.041 176.152 163.328L175.968 162.655L231.931 162.258V162.808C231.931 167.12 230.947 176.815 229.319 188.741C229.196 189.751 226.245 213.451 225.508 217.06C222.711 231.127 216.565 236.357 202.858 236.357L202.92 236.326ZM177.412 163.726C180.301 175.316 182.022 187.763 183.528 198.772C184.573 206.265 185.556 213.329 186.724 219.017C188.998 229.904 194.315 235.225 202.889 235.225C216.104 235.225 221.728 230.424 224.432 216.815C225.139 213.237 228.182 188.833 228.212 188.589C229.78 177.182 230.732 167.854 230.794 163.359L177.351 163.726H177.412Z" fill="white"/>
<path d="M173.785 157.703H9" stroke="white" stroke-miterlimit="10" stroke-dasharray="1.18 1.18 1.18 1.18 1.18 1.18 1.18 1.18"/>
<path d="M18 163.4C21.42 163.4 22.554 165.398 22.554 167.558C22.554 169.97 21.132 171.734 17.658 171.734H12.654V176H10.44V163.4H18ZM17.658 169.88C19.602 169.88 20.268 168.872 20.268 167.558C20.268 166.136 19.494 165.272 17.622 165.272H12.654V169.88H17.658ZM29.0377 166.136C32.0797 166.136 34.5277 167.936 34.2757 171.914H25.6357C25.8877 173.552 27.0577 174.632 29.0737 174.632C30.9457 174.632 31.7377 173.732 32.0617 173.048H34.0057C33.5197 175.01 31.6477 176.27 29.0737 176.27C26.3377 176.27 23.6377 174.704 23.6377 171.212C23.6377 167.774 26.2837 166.136 29.0377 166.136ZM25.6897 170.294H32.2957C32.0077 168.782 30.9637 167.774 29.0377 167.774C27.2557 167.774 26.0317 168.782 25.6897 170.294ZM42.1658 166.136C42.5978 166.136 42.8498 166.154 43.2278 166.208V168.404H43.1558C42.7778 168.296 42.2918 168.224 41.6798 168.224C39.2498 168.224 38.3318 169.628 38.3318 171.122V176H36.0998V166.406H38.3318V168.206C38.7638 167.504 40.0958 166.136 42.1658 166.136ZM45.0295 176V166.406H47.2435V176H45.0295ZM46.1275 165.074C45.4435 165.074 44.9575 164.678 44.9575 163.994C44.9575 163.31 45.4435 162.914 46.1275 162.914C46.8295 162.914 47.3155 163.31 47.3155 163.994C47.3155 164.678 46.8295 165.074 46.1275 165.074ZM55.644 166.136C58.146 166.136 59.514 167.558 59.514 169.79V176H57.3V170.456C57.3 168.836 56.418 167.936 54.672 167.936C52.926 167.936 51.972 168.944 51.972 170.456V176H49.758V166.406H51.972V167.882C52.422 167.252 53.646 166.136 55.644 166.136ZM66.7076 166.136C69.7496 166.136 72.1976 167.936 71.9456 171.914H63.3056C63.5576 173.552 64.7276 174.632 66.7436 174.632C68.6156 174.632 69.4076 173.732 69.7316 173.048H71.6756C71.1896 175.01 69.3176 176.27 66.7436 176.27C64.0076 176.27 61.3076 174.704 61.3076 171.212C61.3076 167.774 63.9536 166.136 66.7076 166.136ZM63.3596 170.294H69.9656C69.6776 168.782 68.6336 167.774 66.7076 167.774C64.9256 167.774 63.7016 168.782 63.3596 170.294ZM81.3118 166.406H83.5258V176H81.3118V174.524C80.8618 175.154 79.6378 176.27 77.6398 176.27C75.1378 176.27 73.7698 174.848 73.7698 172.616V166.406H75.9838V171.95C75.9838 173.57 76.8658 174.47 78.6118 174.47C80.3578 174.47 81.3118 173.462 81.3118 171.95V166.406ZM98.2793 166.136C100.781 166.136 101.987 167.558 101.987 169.79V176H99.7553V170.456C99.7553 168.836 99.1613 167.936 97.4693 167.936C95.7953 167.936 95.1113 169.016 95.1113 170.456V176H92.8973V170.456C92.8973 168.836 92.2853 167.936 90.6113 167.936C88.9373 167.936 88.2533 169.016 88.2533 170.456V176H86.0393V166.406H88.2533V167.81C88.6133 167.18 89.5313 166.136 91.4033 166.136C93.0593 166.136 94.1393 166.748 94.6793 167.81C95.1653 167.162 96.3533 166.136 98.2793 166.136Z" fill="white"/>
<path d="M41.6397 307H43.5897V314H42.3597V307.99L39.7197 314H38.3897L35.7497 307.99V314H34.5197V307H36.4597L39.0497 312.91L41.6397 307ZM47.4836 308.52C48.9536 308.52 50.2036 309.01 50.2036 310.54V314H48.9736V313.31C48.7136 313.61 48.0736 314.15 46.8236 314.15C45.5436 314.15 44.6936 313.62 44.6936 312.6C44.6936 311.5 45.2936 310.63 48.9736 310.87V310.54C48.9736 309.8 48.5936 309.43 47.4836 309.43C46.5336 309.43 46.1436 309.74 46.0536 310.19H44.9036C45.0636 309.07 46.1036 308.52 47.4836 308.52ZM48.9736 312.5V311.61C46.7536 311.5 45.9536 311.69 45.9536 312.52C45.9536 313.06 46.3736 313.33 47.0836 313.33C48.0236 313.33 48.6436 312.98 48.9736 312.5ZM55.8072 314L53.9972 311.58L52.8472 312.66V314H51.6072V307H52.8472V311.26L55.5972 308.67H57.1372L54.8672 310.78L57.2672 314H55.8072ZM60.467 308.52C62.157 308.52 63.517 309.52 63.377 311.73H58.577C58.717 312.64 59.367 313.24 60.487 313.24C61.527 313.24 61.967 312.74 62.147 312.36H63.227C62.957 313.45 61.917 314.15 60.487 314.15C58.967 314.15 57.467 313.28 57.467 311.34C57.467 309.43 58.937 308.52 60.467 308.52ZM58.607 310.83H62.277C62.117 309.99 61.537 309.43 60.467 309.43C59.477 309.43 58.797 309.99 58.607 310.83ZM70.1008 310.88C71.6108 311.14 72.4608 311.34 72.4608 312.39C72.4608 313.63 71.4308 314.15 69.6508 314.15C68.0308 314.15 66.7908 313.59 66.7908 312.38H68.0608C68.0608 312.96 68.6308 313.22 69.7508 313.22C70.8408 313.22 71.2308 312.95 71.2308 312.55C71.2308 311.96 70.3408 311.95 68.9808 311.7C67.6008 311.44 66.9908 311.12 66.9908 310.17C66.9908 309.1 67.9908 308.52 69.5608 308.52C71.2708 308.52 72.1908 309.2 72.1908 310.19H71.0408C71.0408 309.85 70.6808 309.43 69.5408 309.43C68.4708 309.43 68.1008 309.7 68.1008 310.11C68.1008 310.65 69.1508 310.72 70.1008 310.88ZM77.6527 308.67H78.8827V314H77.6527V313.18C77.4027 313.53 76.7227 314.15 75.6127 314.15C74.2227 314.15 73.4627 313.36 73.4627 312.12V308.67H74.6927V311.75C74.6927 312.65 75.1827 313.15 76.1527 313.15C77.1227 313.15 77.6527 312.59 77.6527 311.75V308.67ZM83.6491 308.52C83.8891 308.52 84.0291 308.53 84.2391 308.56V309.78H84.1991C83.9891 309.72 83.7191 309.68 83.3791 309.68C82.0291 309.68 81.5191 310.46 81.5191 311.29V314H80.2791V308.67H81.5191V309.67C81.7591 309.28 82.4991 308.52 83.6491 308.52ZM87.7424 308.52C89.4324 308.52 90.7924 309.52 90.6524 311.73H85.8524C85.9924 312.64 86.6424 313.24 87.7624 313.24C88.8024 313.24 89.2424 312.74 89.4224 312.36H90.5024C90.2324 313.45 89.1924 314.15 87.7624 314.15C86.2424 314.15 84.7424 313.28 84.7424 311.34C84.7424 309.43 86.2124 308.52 87.7424 308.52ZM85.8824 310.83H89.5524C89.3924 309.99 88.8124 309.43 87.7424 309.43C86.7524 309.43 86.0724 309.99 85.8824 310.83ZM98.0462 309.61H96.4362V312.01C96.4362 312.91 96.7962 313.16 98.0462 313.03V313.99C97.8662 314.04 97.5962 314.08 97.3462 314.08C95.7262 314.08 95.2062 313.42 95.2062 312.01V309.61H94.1662V308.67H95.2062V307.29H96.4362V308.67H98.0462V309.61ZM101.796 308.52C103.356 308.52 104.856 309.37 104.856 311.34C104.856 313.31 103.356 314.15 101.796 314.15C100.236 314.15 98.7463 313.31 98.7463 311.34C98.7463 309.37 100.236 308.52 101.796 308.52ZM101.796 313.24C103.226 313.24 103.716 312.27 103.716 311.34C103.716 310.4 103.226 309.43 101.796 309.43C100.366 309.43 99.8763 310.4 99.8763 311.34C99.8763 312.27 100.366 313.24 101.796 313.24ZM115.556 308.52C116.946 308.52 117.616 309.31 117.616 310.55V314H116.376V310.92C116.376 310.02 116.046 309.52 115.106 309.52C114.176 309.52 113.796 310.12 113.796 310.92V314H112.566V310.92C112.566 310.02 112.226 309.52 111.296 309.52C110.366 309.52 109.986 310.12 109.986 310.92V314H108.756V308.67H109.986V309.45C110.186 309.1 110.696 308.52 111.736 308.52C112.656 308.52 113.256 308.86 113.556 309.45C113.826 309.09 114.486 308.52 115.556 308.52ZM121.619 308.52C123.309 308.52 124.669 309.52 124.529 311.73H119.729C119.869 312.64 120.519 313.24 121.639 313.24C122.679 313.24 123.119 312.74 123.299 312.36H124.379C124.109 313.45 123.069 314.15 121.639 314.15C120.119 314.15 118.619 313.28 118.619 311.34C118.619 309.43 120.089 308.52 121.619 308.52ZM119.759 310.83H123.429C123.269 309.99 122.689 309.43 121.619 309.43C120.629 309.43 119.949 309.99 119.759 310.83ZM127.933 308.52C129.403 308.52 130.653 309.01 130.653 310.54V314H129.423V313.31C129.163 313.61 128.523 314.15 127.273 314.15C125.993 314.15 125.143 313.62 125.143 312.6C125.143 311.5 125.743 310.63 129.423 310.87V310.54C129.423 309.8 129.043 309.43 127.933 309.43C126.983 309.43 126.593 309.74 126.503 310.19H125.353C125.513 309.07 126.553 308.52 127.933 308.52ZM129.423 312.5V311.61C127.203 311.5 126.403 311.69 126.403 312.52C126.403 313.06 126.823 313.33 127.533 313.33C128.473 313.33 129.093 312.98 129.423 312.5ZM134.866 310.88C136.376 311.14 137.226 311.34 137.226 312.39C137.226 313.63 136.196 314.15 134.416 314.15C132.796 314.15 131.556 313.59 131.556 312.38H132.826C132.826 312.96 133.396 313.22 134.516 313.22C135.606 313.22 135.996 312.95 135.996 312.55C135.996 311.96 135.106 311.95 133.746 311.7C132.366 311.44 131.756 311.12 131.756 310.17C131.756 309.1 132.756 308.52 134.326 308.52C136.036 308.52 136.956 309.2 136.956 310.19H135.806C135.806 309.85 135.446 309.43 134.306 309.43C133.236 309.43 132.866 309.7 132.866 310.11C132.866 310.65 133.916 310.72 134.866 310.88ZM142.418 308.67H143.648V314H142.418V313.18C142.168 313.53 141.488 314.15 140.378 314.15C138.988 314.15 138.228 313.36 138.228 312.12V308.67H139.458V311.75C139.458 312.65 139.948 313.15 140.918 313.15C141.888 313.15 142.418 312.59 142.418 311.75V308.67ZM148.415 308.52C148.655 308.52 148.795 308.53 149.005 308.56V309.78H148.965C148.755 309.72 148.485 309.68 148.145 309.68C146.795 309.68 146.285 310.46 146.285 311.29V314H145.045V308.67H146.285V309.67C146.525 309.28 147.265 308.52 148.415 308.52ZM152.508 308.52C154.198 308.52 155.558 309.52 155.418 311.73H150.618C150.758 312.64 151.408 313.24 152.528 313.24C153.568 313.24 154.008 312.74 154.188 312.36H155.268C154.998 313.45 153.958 314.15 152.528 314.15C151.008 314.15 149.508 313.28 149.508 311.34C149.508 309.43 150.978 308.52 152.508 308.52ZM150.648 310.83H154.318C154.158 309.99 153.578 309.43 152.508 309.43C151.518 309.43 150.838 309.99 150.648 310.83ZM159.332 306.62H160.562V314H159.332V306.62ZM161.959 314V308.67H163.189V314H161.959ZM162.569 307.93C162.189 307.93 161.919 307.71 161.919 307.33C161.919 306.95 162.189 306.73 162.569 306.73C162.959 306.73 163.229 306.95 163.229 307.33C163.229 307.71 162.959 307.93 162.569 307.93ZM167.856 308.52C169.246 308.52 170.006 309.31 170.006 310.55V314H168.776V310.92C168.776 310.02 168.286 309.52 167.316 309.52C166.346 309.52 165.816 310.08 165.816 310.92V314H164.586V308.67H165.816V309.49C166.066 309.14 166.746 308.52 167.856 308.52ZM174.002 308.52C175.692 308.52 177.052 309.52 176.912 311.73H172.112C172.252 312.64 172.902 313.24 174.022 313.24C175.062 313.24 175.502 312.74 175.682 312.36H176.762C176.492 313.45 175.452 314.15 174.022 314.15C172.502 314.15 171.002 313.28 171.002 311.34C171.002 309.43 172.472 308.52 174.002 308.52ZM172.142 310.83H175.812C175.652 309.99 175.072 309.43 174.002 309.43C173.012 309.43 172.332 309.99 172.142 310.83ZM180.316 308.52C181.786 308.52 183.036 309.01 183.036 310.54V314H181.806V313.31C181.546 313.61 180.906 314.15 179.656 314.15C178.376 314.15 177.526 313.62 177.526 312.6C177.526 311.5 178.126 310.63 181.806 310.87V310.54C181.806 309.8 181.426 309.43 180.316 309.43C179.366 309.43 178.976 309.74 178.886 310.19H177.736C177.896 309.07 178.936 308.52 180.316 308.52ZM181.806 312.5V311.61C179.586 311.5 178.786 311.69 178.786 312.52C178.786 313.06 179.206 313.33 179.916 313.33C180.856 313.33 181.476 312.98 181.806 312.5ZM187.809 308.52C188.049 308.52 188.189 308.53 188.399 308.56V309.78H188.359C188.149 309.72 187.879 309.68 187.539 309.68C186.189 309.68 185.679 310.46 185.679 311.29V314H184.439V308.67H185.679V309.67C185.919 309.28 186.659 308.52 187.809 308.52ZM196.621 307H197.851V314H196.621V313.3C196.201 313.81 195.561 314.15 194.671 314.15C193.111 314.15 191.901 313.14 191.901 311.34C191.901 309.53 193.111 308.52 194.671 308.52C195.561 308.52 196.201 308.86 196.621 309.37V307ZM194.911 313.24C196.181 313.24 196.811 312.44 196.811 311.34C196.811 310.23 196.201 309.43 194.911 309.43C193.611 309.43 193.041 310.21 193.041 311.34C193.041 312.46 193.631 313.24 194.911 313.24ZM199.254 314V308.67H200.484V314H199.254ZM199.864 307.93C199.484 307.93 199.214 307.71 199.214 307.33C199.214 306.95 199.484 306.73 199.864 306.73C200.254 306.73 200.524 306.95 200.524 307.33C200.524 307.71 200.254 307.93 199.864 307.93ZM208.681 308.52C210.071 308.52 210.741 309.31 210.741 310.55V314H209.501V310.92C209.501 310.02 209.171 309.52 208.231 309.52C207.301 309.52 206.921 310.12 206.921 310.92V314H205.691V310.92C205.691 310.02 205.351 309.52 204.421 309.52C203.491 309.52 203.111 310.12 203.111 310.92V314H201.881V308.67H203.111V309.45C203.311 309.1 203.821 308.52 204.861 308.52C205.781 308.52 206.381 308.86 206.681 309.45C206.951 309.09 207.611 308.52 208.681 308.52ZM214.744 308.52C216.434 308.52 217.794 309.52 217.654 311.73H212.854C212.994 312.64 213.644 313.24 214.764 313.24C215.804 313.24 216.244 312.74 216.424 312.36H217.504C217.234 313.45 216.194 314.15 214.764 314.15C213.244 314.15 211.744 313.28 211.744 311.34C211.744 309.43 213.214 308.52 214.744 308.52ZM212.884 310.83H216.554C216.394 309.99 215.814 309.43 214.744 309.43C213.754 309.43 213.074 309.99 212.884 310.83ZM221.938 308.52C223.328 308.52 224.088 309.31 224.088 310.55V314H222.858V310.92C222.858 310.02 222.368 309.52 221.398 309.52C220.428 309.52 219.898 310.08 219.898 310.92V314H218.668V308.67H219.898V309.49C220.148 309.14 220.828 308.52 221.938 308.52ZM228.294 310.88C229.804 311.14 230.654 311.34 230.654 312.39C230.654 313.63 229.624 314.15 227.844 314.15C226.224 314.15 224.984 313.59 224.984 312.38H226.254C226.254 312.96 226.824 313.22 227.944 313.22C229.034 313.22 229.424 312.95 229.424 312.55C229.424 311.96 228.534 311.95 227.174 311.7C225.794 311.44 225.184 311.12 225.184 310.17C225.184 309.1 226.184 308.52 227.754 308.52C229.464 308.52 230.384 309.2 230.384 310.19H229.234C229.234 309.85 228.874 309.43 227.734 309.43C226.664 309.43 226.294 309.7 226.294 310.11C226.294 310.65 227.344 310.72 228.294 310.88ZM231.656 314V308.67H232.886V314H231.656ZM232.266 307.93C231.886 307.93 231.616 307.71 231.616 307.33C231.616 306.95 231.886 306.73 232.266 306.73C232.656 306.73 232.926 306.95 232.926 307.33C232.926 307.71 232.656 307.93 232.266 307.93ZM236.933 308.52C238.493 308.52 239.993 309.37 239.993 311.34C239.993 313.31 238.493 314.15 236.933 314.15C235.373 314.15 233.883 313.31 233.883 311.34C233.883 309.37 235.373 308.52 236.933 308.52ZM236.933 313.24C238.363 313.24 238.853 312.27 238.853 311.34C238.853 310.4 238.363 309.43 236.933 309.43C235.503 309.43 235.013 310.4 235.013 311.34C235.013 312.27 235.503 313.24 236.933 313.24ZM244.262 308.52C245.652 308.52 246.412 309.31 246.412 310.55V314H245.182V310.92C245.182 310.02 244.692 309.52 243.722 309.52C242.752 309.52 242.222 310.08 242.222 310.92V314H240.992V308.67H242.222V309.49C242.472 309.14 243.152 308.52 244.262 308.52ZM250.618 310.88C252.128 311.14 252.978 311.34 252.978 312.39C252.978 313.63 251.948 314.15 250.168 314.15C248.548 314.15 247.308 313.59 247.308 312.38H248.578C248.578 312.96 249.148 313.22 250.268 313.22C251.358 313.22 251.748 312.95 251.748 312.55C251.748 311.96 250.858 311.95 249.498 311.7C248.118 311.44 247.508 311.12 247.508 310.17C247.508 309.1 248.508 308.52 250.078 308.52C251.788 308.52 252.708 309.2 252.708 310.19H251.558C251.558 309.85 251.198 309.43 250.058 309.43C248.988 309.43 248.618 309.7 248.618 310.11C248.618 310.65 249.668 310.72 250.618 310.88Z" fill="white"/>
</svg>
