<svg width="285" height="332" viewBox="0 0 285 332" fill="none" xmlns="http://www.w3.org/2000/svg">
<rect width="285" height="332" rx="10" fill="#D9D9D9"/>
<path d="M38.2973 306L37.6483 304.493H33.4243L32.7643 306H30.8833L34.4473 298.3H36.6253L40.1783 306H38.2973ZM34.0183 303.14H37.0543L35.5363 299.642L34.0183 303.14ZM44.1353 302.469C45.7853 302.755 46.9073 302.876 46.9073 304.229C46.9073 305.571 45.7633 306.165 43.6403 306.165C41.5723 306.165 40.2853 305.516 40.2853 304.196H42.1003C42.1003 304.779 42.7933 305.032 43.7503 305.032C44.6963 305.032 45.1913 304.856 45.1913 304.405C45.1913 303.877 44.4653 303.811 42.9033 303.547C41.3523 303.294 40.5163 302.964 40.5163 301.798C40.5163 300.621 41.5613 299.983 43.5413 299.983C45.6093 299.983 46.6433 300.753 46.6433 301.831H44.9603C44.9603 301.457 44.5313 301.083 43.5193 301.083C42.6063 301.083 42.1113 301.27 42.1113 301.721C42.1113 302.227 43.0903 302.282 44.1353 302.469ZM54.1655 303.503H48.9625C49.0945 304.306 49.6555 305.01 50.8765 305.01C51.7675 305.01 52.3395 304.614 52.5705 304.119H54.0445C53.6595 305.582 52.3285 306.165 50.8765 306.165C49.2045 306.165 47.4555 305.241 47.4555 303.074C47.4555 300.907 49.1825 299.983 50.8655 299.983C52.5705 299.983 54.3415 301.028 54.1655 303.503ZM50.8655 301.127C49.8205 301.127 49.2375 301.699 49.0175 302.403H52.6365C52.4605 301.699 51.9655 301.127 50.8655 301.127ZM60.0491 300.137H61.7101V305.45C61.7101 307.738 59.8071 308.046 58.1241 308.046C56.1661 308.046 55.0441 307.375 54.9341 306.253H56.4961C56.6171 306.616 57.2001 306.891 58.1241 306.891C59.4551 306.891 60.0491 306.506 60.0491 305.45V304.911C59.6091 305.384 58.9381 305.637 57.9481 305.637C56.2321 305.637 54.8461 304.856 54.8461 302.865C54.8461 300.874 56.2321 299.983 57.9481 299.983C58.8501 299.983 59.5761 300.324 60.0491 300.907V300.137ZM58.3111 304.592C59.5211 304.592 60.2581 303.965 60.2581 302.865C60.2581 301.754 59.5211 301.138 58.3111 301.138C57.1121 301.138 56.4191 301.765 56.4191 302.865C56.4191 303.965 57.1121 304.592 58.3111 304.592ZM65.4157 306.165C63.9087 306.165 63.0287 305.34 63.0287 304.02V300.137H64.7007V303.602C64.7007 304.306 65.1077 304.911 66.1417 304.911C67.1757 304.911 67.6377 304.284 67.6377 303.602V300.137H69.3097V306H67.6377V305.175C67.3847 305.527 66.6697 306.165 65.4157 306.165ZM66.3287 297.805H68.2097L66.7467 299.334H65.4487L66.3287 297.805ZM74.4951 299.994C74.8801 299.994 75.1661 300.027 75.3641 300.082V301.622H75.3091C75.1001 301.534 74.7041 301.435 74.1981 301.435C72.8121 301.435 72.3061 302.304 72.3061 303.217V306H70.6341V300.137H72.3061V301.215C72.5481 300.797 73.2411 299.994 74.4951 299.994ZM82.5141 303.503H77.3111C77.4431 304.306 78.0041 305.01 79.2251 305.01C80.1161 305.01 80.6881 304.614 80.9191 304.119H82.3931C82.0081 305.582 80.6771 306.165 79.2251 306.165C77.5531 306.165 75.8041 305.241 75.8041 303.074C75.8041 300.907 77.5311 299.983 79.2141 299.983C80.9191 299.983 82.6901 301.028 82.5141 303.503ZM79.2141 301.127C78.1691 301.127 77.5861 301.699 77.3661 302.403H80.9851C80.8091 301.699 80.3141 301.127 79.2141 301.127ZM86.8247 302.469C88.4747 302.755 89.5967 302.876 89.5967 304.229C89.5967 305.571 88.4527 306.165 86.3297 306.165C84.2617 306.165 82.9747 305.516 82.9747 304.196H84.7897C84.7897 304.779 85.4827 305.032 86.4397 305.032C87.3857 305.032 87.8807 304.856 87.8807 304.405C87.8807 303.877 87.1547 303.811 85.5927 303.547C84.0417 303.294 83.2057 302.964 83.2057 301.798C83.2057 300.621 84.2507 299.983 86.2307 299.983C88.2987 299.983 89.3327 300.753 89.3327 301.831H87.6497C87.6497 301.457 87.2207 301.083 86.2087 301.083C85.2957 301.083 84.8007 301.27 84.8007 301.721C84.8007 302.227 85.7797 302.282 86.8247 302.469ZM96.8549 303.503H91.6519C91.7839 304.306 92.3449 305.01 93.5659 305.01C94.4569 305.01 95.0289 304.614 95.2599 304.119H96.7339C96.3489 305.582 95.0179 306.165 93.5659 306.165C91.8939 306.165 90.1449 305.241 90.1449 303.074C90.1449 300.907 91.8719 299.983 93.5549 299.983C95.2599 299.983 97.0309 301.028 96.8549 303.503ZM93.5549 301.127C92.5099 301.127 91.9269 301.699 91.7069 302.403H95.3259C95.1499 301.699 94.6549 301.127 93.5549 301.127ZM105.822 298.3H107.494V306H105.822V305.274C105.393 305.824 104.711 306.165 103.721 306.165C102.016 306.165 100.619 305.065 100.619 303.074C100.619 301.083 102.016 299.983 103.721 299.983C104.711 299.983 105.393 300.324 105.822 300.874V298.3ZM104.095 305.01C105.294 305.01 106.031 304.306 106.031 303.074C106.031 301.842 105.294 301.127 104.095 301.127C102.885 301.127 102.192 301.842 102.192 303.074C102.192 304.306 102.885 305.01 104.095 305.01ZM115.192 303.503H109.989C110.121 304.306 110.682 305.01 111.903 305.01C112.794 305.01 113.366 304.614 113.597 304.119H115.071C114.686 305.582 113.355 306.165 111.903 306.165C110.231 306.165 108.482 305.241 108.482 303.074C108.482 300.907 110.209 299.983 111.892 299.983C113.597 299.983 115.368 301.028 115.192 303.503ZM111.892 301.127C110.847 301.127 110.264 301.699 110.044 302.403H113.663C113.487 301.699 112.992 301.127 111.892 301.127ZM127.051 299.983C128.558 299.983 129.339 300.797 129.339 302.117V306H127.667V302.535C127.667 301.831 127.359 301.226 126.424 301.226C125.489 301.226 125.148 301.842 125.148 302.535V306H123.476V302.535C123.476 301.831 123.168 301.226 122.233 301.226C121.298 301.226 120.946 301.853 120.946 302.535V306H119.285V300.137H120.946V300.907C121.155 300.544 121.661 299.983 122.86 299.983C123.883 299.983 124.565 300.357 124.895 301.006C125.104 300.687 125.764 299.983 127.051 299.983ZM137.041 303.503H131.838C131.97 304.306 132.531 305.01 133.752 305.01C134.643 305.01 135.215 304.614 135.446 304.119H136.92C136.535 305.582 135.204 306.165 133.752 306.165C132.08 306.165 130.331 305.241 130.331 303.074C130.331 300.907 132.058 299.983 133.741 299.983C135.446 299.983 137.217 301.028 137.041 303.503ZM133.741 301.127C132.696 301.127 132.113 301.699 131.893 302.403H135.512C135.336 301.699 134.841 301.127 133.741 301.127ZM142.925 298.3H144.597V306H142.925V305.274C142.496 305.824 141.814 306.165 140.824 306.165C139.119 306.165 137.722 305.065 137.722 303.074C137.722 301.083 139.119 299.983 140.824 299.983C141.814 299.983 142.496 300.324 142.925 300.874V298.3ZM141.198 305.01C142.397 305.01 143.134 304.306 143.134 303.074C143.134 301.842 142.397 301.127 141.198 301.127C139.988 301.127 139.295 301.842 139.295 303.074C139.295 304.306 139.988 305.01 141.198 305.01ZM145.915 306V300.137H147.576V306H145.915ZM146.74 299.455C146.234 299.455 145.882 299.169 145.882 298.674C145.882 298.168 146.234 297.882 146.74 297.882C147.246 297.882 147.609 298.168 147.609 298.674C147.609 299.169 147.246 299.455 146.74 299.455ZM152.763 299.994C153.148 299.994 153.434 300.027 153.632 300.082V301.622H153.577C153.368 301.534 152.972 301.435 152.466 301.435C151.08 301.435 150.574 302.304 150.574 303.217V306H148.902V300.137H150.574V301.215C150.816 300.797 151.509 299.994 152.763 299.994ZM157.592 297.882H159.264V306H157.592V297.882ZM163.504 299.983C165.187 299.983 166.661 300.467 166.661 302.194V306H164.989V305.219C164.736 305.604 163.889 306.165 162.58 306.165C161.205 306.165 160.259 305.593 160.259 304.438C160.259 303.206 160.897 302.216 164.989 302.469V302.194C164.989 301.578 164.714 301.127 163.504 301.127C162.492 301.127 162.173 301.424 162.085 301.831H160.523C160.71 300.533 161.898 299.983 163.504 299.983ZM164.989 304.284V303.459C162.767 303.338 161.942 303.547 161.942 304.383C161.942 304.933 162.349 305.153 163.075 305.153C163.977 305.153 164.681 304.801 164.989 304.284ZM171.28 302.469C172.93 302.755 174.052 302.876 174.052 304.229C174.052 305.571 172.908 306.165 170.785 306.165C168.717 306.165 167.43 305.516 167.43 304.196H169.245C169.245 304.779 169.938 305.032 170.895 305.032C171.841 305.032 172.336 304.856 172.336 304.405C172.336 303.877 171.61 303.811 170.048 303.547C168.497 303.294 167.661 302.964 167.661 301.798C167.661 300.621 168.706 299.983 170.686 299.983C172.754 299.983 173.788 300.753 173.788 301.831H172.105C172.105 301.457 171.676 301.083 170.664 301.083C169.751 301.083 169.256 301.27 169.256 301.721C169.256 302.227 170.235 302.282 171.28 302.469ZM182.886 298.3H184.558V306H182.886V305.274C182.457 305.824 181.775 306.165 180.785 306.165C179.08 306.165 177.683 305.065 177.683 303.074C177.683 301.083 179.08 299.983 180.785 299.983C181.775 299.983 182.457 300.324 182.886 300.874V298.3ZM181.159 305.01C182.358 305.01 183.095 304.306 183.095 303.074C183.095 301.842 182.358 301.127 181.159 301.127C179.949 301.127 179.256 301.842 179.256 303.074C179.256 304.306 179.949 305.01 181.159 305.01ZM185.876 306V300.137H187.537V306H185.876ZM186.701 299.455C186.195 299.455 185.843 299.169 185.843 298.674C185.843 298.168 186.195 297.882 186.701 297.882C187.207 297.882 187.57 298.168 187.57 298.674C187.57 299.169 187.207 299.455 186.701 299.455ZM196.629 299.983C198.136 299.983 198.917 300.797 198.917 302.117V306H197.245V302.535C197.245 301.831 196.937 301.226 196.002 301.226C195.067 301.226 194.726 301.842 194.726 302.535V306H193.054V302.535C193.054 301.831 192.746 301.226 191.811 301.226C190.876 301.226 190.524 301.853 190.524 302.535V306H188.863V300.137H190.524V300.907C190.733 300.544 191.239 299.983 192.438 299.983C193.461 299.983 194.143 300.357 194.473 301.006C194.682 300.687 195.342 299.983 196.629 299.983ZM206.619 303.503H201.416C201.548 304.306 202.109 305.01 203.33 305.01C204.221 305.01 204.793 304.614 205.024 304.119H206.498C206.113 305.582 204.782 306.165 203.33 306.165C201.658 306.165 199.909 305.241 199.909 303.074C199.909 300.907 201.636 299.983 203.319 299.983C205.024 299.983 206.795 301.028 206.619 303.503ZM203.319 301.127C202.274 301.127 201.691 301.699 201.471 302.403H205.09C204.914 301.699 204.419 301.127 203.319 301.127ZM211.523 299.983C213.03 299.983 213.91 300.797 213.91 302.117V306H212.238V302.535C212.238 301.831 211.831 301.226 210.797 301.226C209.763 301.226 209.301 301.853 209.301 302.535V306H207.629V300.137H209.301V300.962C209.554 300.61 210.269 299.983 211.523 299.983ZM218.535 302.469C220.185 302.755 221.307 302.876 221.307 304.229C221.307 305.571 220.163 306.165 218.04 306.165C215.972 306.165 214.685 305.516 214.685 304.196H216.5C216.5 304.779 217.193 305.032 218.15 305.032C219.096 305.032 219.591 304.856 219.591 304.405C219.591 303.877 218.865 303.811 217.303 303.547C215.752 303.294 214.916 302.964 214.916 301.798C214.916 300.621 215.961 299.983 217.941 299.983C220.009 299.983 221.043 300.753 221.043 301.831H219.36C219.36 301.457 218.931 301.083 217.919 301.083C217.006 301.083 216.511 301.27 216.511 301.721C216.511 302.227 217.49 302.282 218.535 302.469ZM222.185 306V300.137H223.846V306H222.185ZM223.01 299.455C222.504 299.455 222.152 299.169 222.152 298.674C222.152 298.168 222.504 297.882 223.01 297.882C223.516 297.882 223.879 298.168 223.879 298.674C223.879 299.169 223.516 299.455 223.01 299.455ZM228.339 299.983C230.055 299.983 231.837 300.863 231.837 303.074C231.837 305.285 230.055 306.165 228.339 306.165C226.634 306.165 224.841 305.285 224.841 303.074C224.841 300.863 226.634 299.983 228.339 299.983ZM228.339 305.01C229.747 305.01 230.275 304.097 230.275 303.074C230.275 302.04 229.747 301.127 228.339 301.127C226.931 301.127 226.414 302.04 226.414 303.074C226.414 304.097 226.931 305.01 228.339 305.01ZM236.724 299.983C238.231 299.983 239.111 300.797 239.111 302.117V306H237.439V302.535C237.439 301.831 237.032 301.226 235.998 301.226C234.964 301.226 234.502 301.853 234.502 302.535V306H232.83V300.137H234.502V300.962C234.755 300.61 235.47 299.983 236.724 299.983ZM246.816 303.503H241.613C241.745 304.306 242.306 305.01 243.527 305.01C244.418 305.01 244.99 304.614 245.221 304.119H246.695C246.31 305.582 244.979 306.165 243.527 306.165C241.855 306.165 240.106 305.241 240.106 303.074C240.106 300.907 241.833 299.983 243.516 299.983C245.221 299.983 246.992 301.028 246.816 303.503ZM243.516 301.127C242.471 301.127 241.888 301.699 241.668 302.403H245.287C245.111 301.699 244.616 301.127 243.516 301.127ZM251.127 302.469C252.777 302.755 253.899 302.876 253.899 304.229C253.899 305.571 252.755 306.165 250.632 306.165C248.564 306.165 247.277 305.516 247.277 304.196H249.092C249.092 304.779 249.785 305.032 250.742 305.032C251.688 305.032 252.183 304.856 252.183 304.405C252.183 303.877 251.457 303.811 249.895 303.547C248.344 303.294 247.508 302.964 247.508 301.798C247.508 300.621 248.553 299.983 250.533 299.983C252.601 299.983 253.635 300.753 253.635 301.831H251.952C251.952 301.457 251.523 301.083 250.511 301.083C249.598 301.083 249.103 301.27 249.103 301.721C249.103 302.227 250.082 302.282 251.127 302.469ZM120.36 311.882H122.032V320H120.36V311.882ZM123.357 320V314.137H125.018V320H123.357ZM124.182 313.455C123.676 313.455 123.324 313.169 123.324 312.674C123.324 312.168 123.676 311.882 124.182 311.882C124.688 311.882 125.051 312.168 125.051 312.674C125.051 313.169 124.688 313.455 124.182 313.455ZM130.237 313.983C131.744 313.983 132.624 314.797 132.624 316.117V320H130.952V316.535C130.952 315.831 130.545 315.226 129.511 315.226C128.477 315.226 128.015 315.853 128.015 316.535V320H126.343V314.137H128.015V314.962C128.268 314.61 128.983 313.983 130.237 313.983ZM140.329 317.503H135.126C135.258 318.306 135.819 319.01 137.04 319.01C137.931 319.01 138.503 318.614 138.734 318.119H140.208C139.823 319.582 138.492 320.165 137.04 320.165C135.368 320.165 133.619 319.241 133.619 317.074C133.619 314.907 135.346 313.983 137.029 313.983C138.734 313.983 140.505 315.028 140.329 317.503ZM137.029 315.127C135.984 315.127 135.401 315.699 135.181 316.403H138.8C138.624 315.699 138.129 315.127 137.029 315.127ZM144.147 313.983C145.83 313.983 147.304 314.467 147.304 316.194V320H145.632V319.219C145.379 319.604 144.532 320.165 143.223 320.165C141.848 320.165 140.902 319.593 140.902 318.438C140.902 317.206 141.54 316.216 145.632 316.469V316.194C145.632 315.578 145.357 315.127 144.147 315.127C143.135 315.127 142.816 315.424 142.728 315.831H141.166C141.353 314.533 142.541 313.983 144.147 313.983ZM145.632 318.284V317.459C143.41 317.338 142.585 317.547 142.585 318.383C142.585 318.933 142.992 319.153 143.718 319.153C144.62 319.153 145.324 318.801 145.632 318.284ZM148.622 311.882H150.294V320H148.622V311.882ZM157.999 317.503H152.796C152.928 318.306 153.489 319.01 154.71 319.01C155.601 319.01 156.173 318.614 156.404 318.119H157.878C157.493 319.582 156.162 320.165 154.71 320.165C153.038 320.165 151.289 319.241 151.289 317.074C151.289 314.907 153.016 313.983 154.699 313.983C156.404 313.983 158.175 315.028 157.999 317.503ZM154.699 315.127C153.654 315.127 153.071 315.699 152.851 316.403H156.47C156.294 315.699 155.799 315.127 154.699 315.127ZM162.31 316.469C163.96 316.755 165.082 316.876 165.082 318.229C165.082 319.571 163.938 320.165 161.815 320.165C159.747 320.165 158.46 319.516 158.46 318.196H160.275C160.275 318.779 160.968 319.032 161.925 319.032C162.871 319.032 163.366 318.856 163.366 318.405C163.366 317.877 162.64 317.811 161.078 317.547C159.527 317.294 158.691 316.964 158.691 315.798C158.691 314.621 159.736 313.983 161.716 313.983C163.784 313.983 164.818 314.753 164.818 315.831H163.135C163.135 315.457 162.706 315.083 161.694 315.083C160.781 315.083 160.286 315.27 160.286 315.721C160.286 316.227 161.265 316.282 162.31 316.469Z" fill="black"/>
<path d="M205.259 225.342C195.325 225.342 190.279 212.035 189.522 206.107H192.077C192.644 209.135 196.902 223.198 205.102 223.198C220.934 223.198 225.349 216.04 227.178 206.234H229.764C227.21 216.198 223.614 225.342 205.291 225.342H205.259Z" fill="#FBFBFB"/>
<path fill-rule="evenodd" clip-rule="evenodd" d="M164.828 256.56C165.743 252.555 166.626 247.857 167.477 242.686C168.36 237.294 169.243 231.429 170.126 225.343C170.568 222.347 170.978 219.32 171.419 216.262L171.577 215.126C171.798 213.613 172.019 212.068 172.208 210.523V210.239C172.334 209.514 172.46 208.82 172.555 208.095C173.659 200.149 174.826 192.234 176.056 184.855C176.15 184.351 176.213 183.815 176.308 183.31C177.632 175.522 179.02 168.364 180.565 162.468C182.111 168.396 183.53 175.553 184.855 183.373C184.949 183.878 185.012 184.382 185.107 184.855C186.337 192.266 187.504 200.18 188.639 208.095C188.734 208.851 188.828 209.545 188.954 210.27V210.554C189.207 212.036 189.428 213.55 189.617 215.032L189.837 216.608C190.027 217.933 190.216 219.257 190.405 220.581H192.96C192.897 220.14 192.834 219.73 192.771 219.289C192.644 218.28 192.487 217.271 192.361 216.293C191.951 213.455 191.572 210.617 191.131 207.779V207.559C190.121 200.18 189.018 192.802 187.788 185.36C187.661 184.54 187.504 183.752 187.378 182.963C186.242 176.405 185.012 169.72 183.341 163.256V163.224C183.215 162.783 183.12 162.341 182.994 161.9L180.565 152.566L178.137 161.9C178.011 162.341 177.916 162.783 177.79 163.224V163.287C176.245 169.405 175.172 175.68 174.069 181.86C174.006 182.238 173.942 182.617 173.879 182.995C173.753 183.783 173.596 184.603 173.469 185.391C172.208 192.865 171.136 200.243 170.126 207.622V207.842C169.653 210.775 169.243 213.739 168.833 216.671C168.707 217.554 168.581 218.469 168.455 219.352C167.383 227.077 166.279 234.802 164.986 242.402C164.26 247.005 163.409 251.609 162.305 256.087C162.21 256.434 162.147 256.78 162.053 257.127" fill="black"/>
<path fill-rule="evenodd" clip-rule="evenodd" d="M218.411 59.4823C218.411 59.7346 218.379 60.0183 218.348 60.3652C218.032 64.4013 217.307 74.0187 218.537 76.6043C221.344 82.2801 223.52 88.8388 225.444 94.7669C228.25 103.627 230.679 112.709 232.508 121.79C233.107 124.786 233.643 127.907 234.148 131.092C235.031 136.926 235.662 142.948 235.693 148.719C235.693 150.957 235.63 153.133 235.41 155.277C235.315 156.476 235.22 157.642 235.126 158.84C234.432 166.723 233.454 174.543 232.508 182.332C232.067 185.927 231.625 189.521 231.152 193.116C229.985 202.26 228.85 211.436 227.967 220.581H230.584C231.436 211.405 232.729 201.062 234.022 190.499C234.337 187.882 234.684 185.264 235 182.616C235.82 175.868 236.639 169.088 237.302 162.561C237.554 160.165 237.775 157.831 237.964 155.53C238.09 154.016 238.185 152.471 238.216 150.894C238.216 150.201 238.216 149.475 238.216 148.75C238.216 146.196 238.059 143.516 237.838 140.804V140.646C237.775 139.953 237.712 139.259 237.649 138.565C237.649 138.313 237.586 138.029 237.554 137.777C237.554 137.651 237.554 137.525 237.523 137.43C237.302 135.349 237.018 133.236 236.703 131.124C236.419 129.232 236.103 127.308 235.756 125.416C235.504 124.092 235.252 122.768 235 121.443C233.044 111.763 230.427 102.24 227.84 94.1362C225.254 86.0325 222.7 79.4107 220.871 75.5953C220.177 74.0817 220.366 68.0906 220.997 59.8292C221.028 59.2616 221.091 58.694 221.123 58.1264M133.227 249.716V249.653C134.079 245.901 134.205 241.549 134.205 237.64C134.205 232.311 133.732 226.855 133.227 221.527C132.407 211.783 131.177 202.04 129.979 192.296C129.569 188.954 129.127 185.611 128.749 182.269C127.803 174.48 126.825 166.66 126.131 158.777C126.037 157.611 125.91 156.412 125.816 155.214C125.627 153.07 125.532 150.894 125.532 148.656C125.532 142.822 126.163 136.736 127.077 130.871C127.55 127.75 128.15 124.691 128.749 121.727C130.578 112.646 133.006 103.533 135.813 94.7038C137.769 88.7442 139.945 82.2171 142.625 76.5412C144.076 73.7033 143.099 62.7301 142.752 59.4823L140.197 57.9688C140.229 58.5363 140.292 59.1039 140.323 59.64V59.7346C140.954 67.9645 141.143 73.9241 140.449 75.4376V75.5007C138.557 79.3161 136.003 85.9063 133.416 93.947C130.83 102.051 128.244 111.574 126.289 121.254C126.037 122.578 125.784 123.903 125.532 125.196C125.185 127.119 124.87 129.042 124.554 130.966C124.239 133.11 123.955 135.223 123.734 137.304C123.734 137.43 123.734 137.556 123.703 137.682C123.703 137.903 123.64 138.155 123.64 138.376C123.577 139.038 123.514 139.732 123.45 140.394V140.552V140.678C123.23 143.421 123.104 146.101 123.072 148.656C123.072 149.381 123.072 150.106 123.072 150.831C123.104 152.408 123.198 153.953 123.324 155.435C123.514 157.768 123.766 160.133 123.987 162.498C124.649 169.025 125.469 175.805 126.289 182.553C126.604 185.17 126.92 187.787 127.267 190.373C128.654 201.409 129.979 212.225 130.83 221.716C131.366 227.612 131.682 232.973 131.745 237.608C131.776 242.243 131.524 246.122 130.893 249.054V249.117" fill="black"/>
<path d="M236.763 163.476C236.7 167.506 235.906 176.227 234.094 189.55V189.556L234.093 189.557C234.092 189.557 234.093 189.559 234.093 189.561C234.092 189.564 234.091 189.568 234.091 189.574C234.089 189.586 234.087 189.605 234.084 189.629C234.078 189.677 234.069 189.748 234.057 189.842C234.034 190.029 234 190.304 233.956 190.655C233.868 191.357 233.742 192.365 233.589 193.585C233.281 196.026 232.863 199.319 232.422 202.729C231.537 209.565 230.562 216.831 230.188 218.686V218.688C228.855 225.431 226.841 230.157 223.442 233.209C220.052 236.253 215.196 237.709 208.003 237.709C203.729 237.709 200.186 236.414 197.408 233.708C194.793 231.161 192.815 227.325 191.574 222.031L191.336 220.953C189.811 213.643 188.655 204.312 187.238 194.238C185.851 184.38 184.212 173.83 181.737 163.846L236.763 163.476Z" fill="#D3D3D5" stroke="black"/>
<path d="M237.275 162.972C237.275 167.379 236.27 177.342 234.598 189.644L234.597 189.651C234.469 190.713 231.445 215.116 230.693 218.811V218.813C229.267 226.02 227.004 230.864 223.435 233.918C219.883 236.958 214.95 238.297 208.01 238.306L208.003 238.275C203.467 238.275 199.783 236.835 196.927 233.998C194.238 231.328 192.248 227.385 191.007 222.143L190.768 221.077C189.543 215.169 188.536 207.904 187.463 200.143C185.886 188.606 184.053 175.494 181.018 163.387L181.016 163.376L180.998 163.31L237.275 162.907V162.972ZM236.604 163.039L181.76 163.418L181.761 163.934L181.342 164.038C184.299 175.958 186.061 188.766 187.607 200.121V200.122C188.679 207.842 189.69 215.144 190.892 221.028L190.893 221.03C192.071 226.695 194.049 230.977 196.898 233.846C199.76 236.728 203.458 238.141 207.971 238.141C214.803 238.141 219.779 236.895 223.396 233.79C227.008 230.69 229.175 225.81 230.57 218.755V218.754C231.3 215.041 234.426 189.849 234.455 189.615L234.454 189.614C236.062 177.857 237.045 168.215 237.108 163.546L237.115 163.036L236.604 163.039Z" fill="black" stroke="black"/>
<path d="M270.418 205.035H258.371V191.318H261.556V202.607H270.418V205.035Z" fill="#050A0A"/>
<path d="M246.542 157.611H246.006V238.838H246.542V157.611Z" fill="black"/>
<path d="M248.939 238.428H243.609V239.248H248.939V238.428Z" fill="black"/>
<path d="M248.939 157.201H243.609V158.021H248.939V157.201Z" fill="black"/>
<path d="M178.326 158.016L19.2622 158.016" stroke="#1D1D1B" stroke-miterlimit="10" stroke-dasharray="4 4"/>
<path d="M28 163.4C31.42 163.4 32.554 165.398 32.554 167.558C32.554 169.97 31.132 171.734 27.658 171.734H22.654V176H20.44V163.4H28ZM27.658 169.88C29.602 169.88 30.268 168.872 30.268 167.558C30.268 166.136 29.494 165.272 27.622 165.272H22.654V169.88H27.658ZM39.0377 166.136C42.0797 166.136 44.5277 167.936 44.2757 171.914H35.6357C35.8877 173.552 37.0577 174.632 39.0737 174.632C40.9457 174.632 41.7377 173.732 42.0617 173.048H44.0057C43.5197 175.01 41.6477 176.27 39.0737 176.27C36.3377 176.27 33.6377 174.704 33.6377 171.212C33.6377 167.774 36.2837 166.136 39.0377 166.136ZM35.6897 170.294H42.2957C42.0077 168.782 40.9637 167.774 39.0377 167.774C37.2557 167.774 36.0317 168.782 35.6897 170.294ZM52.1658 166.136C52.5978 166.136 52.8498 166.154 53.2278 166.208V168.404H53.1558C52.7778 168.296 52.2918 168.224 51.6798 168.224C49.2498 168.224 48.3318 169.628 48.3318 171.122V176H46.0998V166.406H48.3318V168.206C48.7638 167.504 50.0958 166.136 52.1658 166.136ZM55.0295 176V166.406H57.2435V176H55.0295ZM56.1275 165.074C55.4435 165.074 54.9575 164.678 54.9575 163.994C54.9575 163.31 55.4435 162.914 56.1275 162.914C56.8295 162.914 57.3155 163.31 57.3155 163.994C57.3155 164.678 56.8295 165.074 56.1275 165.074ZM65.644 166.136C68.146 166.136 69.514 167.558 69.514 169.79V176H67.3V170.456C67.3 168.836 66.418 167.936 64.672 167.936C62.926 167.936 61.972 168.944 61.972 170.456V176H59.758V166.406H61.972V167.882C62.422 167.252 63.646 166.136 65.644 166.136ZM76.7076 166.136C79.7496 166.136 82.1976 167.936 81.9456 171.914H73.3056C73.5576 173.552 74.7276 174.632 76.7436 174.632C78.6156 174.632 79.4076 173.732 79.7316 173.048H81.6756C81.1896 175.01 79.3176 176.27 76.7436 176.27C74.0076 176.27 71.3076 174.704 71.3076 171.212C71.3076 167.774 73.9536 166.136 76.7076 166.136ZM73.3596 170.294H79.9656C79.6776 168.782 78.6336 167.774 76.7076 167.774C74.9256 167.774 73.7016 168.782 73.3596 170.294ZM88.5398 166.136C91.3478 166.136 94.0478 167.666 94.0478 171.212C94.0478 174.758 91.3478 176.27 88.5398 176.27C85.7318 176.27 83.0498 174.758 83.0498 171.212C83.0498 167.666 85.7318 166.136 88.5398 166.136ZM88.5398 174.632C91.1138 174.632 91.9958 172.886 91.9958 171.212C91.9958 169.52 91.1138 167.774 88.5398 167.774C85.9658 167.774 85.0838 169.52 85.0838 171.212C85.0838 172.886 85.9658 174.632 88.5398 174.632Z" fill="black"/>
</svg>
