<svg width="285" height="332" viewBox="0 0 285 332" fill="none" xmlns="http://www.w3.org/2000/svg">
<rect width="285" height="332" rx="10" fill="#D9D9D9"/>
<path d="M24.4828 304L23.8338 302.493H19.6098L18.9498 304H17.0688L20.6328 296.3H22.8108L26.3638 304H24.4828ZM20.2038 301.14H23.2398L21.7218 297.642L20.2038 301.14ZM30.3208 300.469C31.9708 300.755 33.0928 300.876 33.0928 302.229C33.0928 303.571 31.9488 304.165 29.8258 304.165C27.7578 304.165 26.4708 303.516 26.4708 302.196H28.2858C28.2858 302.779 28.9788 303.032 29.9358 303.032C30.8818 303.032 31.3768 302.856 31.3768 302.405C31.3768 301.877 30.6508 301.811 29.0888 301.547C27.5378 301.294 26.7018 300.964 26.7018 299.798C26.7018 298.621 27.7468 297.983 29.7268 297.983C31.7948 297.983 32.8288 298.753 32.8288 299.831H31.1458C31.1458 299.457 30.7168 299.083 29.7048 299.083C28.7918 299.083 28.2968 299.27 28.2968 299.721C28.2968 300.227 29.2758 300.282 30.3208 300.469ZM37.271 300.469C38.921 300.755 40.043 300.876 40.043 302.229C40.043 303.571 38.899 304.165 36.776 304.165C34.708 304.165 33.421 303.516 33.421 302.196H35.236C35.236 302.779 35.929 303.032 36.886 303.032C37.832 303.032 38.327 302.856 38.327 302.405C38.327 301.877 37.601 301.811 36.039 301.547C34.488 301.294 33.652 300.964 33.652 299.798C33.652 298.621 34.697 297.983 36.677 297.983C38.745 297.983 39.779 298.753 39.779 299.831H38.096C38.096 299.457 37.667 299.083 36.655 299.083C35.742 299.083 35.247 299.27 35.247 299.721C35.247 300.227 36.226 300.282 37.271 300.469ZM43.3082 304.165C41.8012 304.165 40.9212 303.34 40.9212 302.02V298.137H42.5932V301.602C42.5932 302.306 43.0002 302.911 44.0342 302.911C45.0682 302.911 45.5302 302.284 45.5302 301.602V298.137H47.2022V304H45.5302V303.175C45.2772 303.527 44.5622 304.165 43.3082 304.165ZM52.3877 297.994C52.7727 297.994 53.0587 298.027 53.2567 298.082V299.622H53.2017C52.9927 299.534 52.5967 299.435 52.0907 299.435C50.7047 299.435 50.1987 300.304 50.1987 301.217V304H48.5267V298.137H50.1987V299.215C50.4407 298.797 51.1337 297.994 52.3877 297.994ZM60.4067 301.503H55.2037C55.3357 302.306 55.8967 303.01 57.1177 303.01C58.0087 303.01 58.5807 302.614 58.8117 302.119H60.2857C59.9007 303.582 58.5697 304.165 57.1177 304.165C55.4457 304.165 53.6967 303.241 53.6967 301.074C53.6967 298.907 55.4237 297.983 57.1067 297.983C58.8117 297.983 60.5827 299.028 60.4067 301.503ZM57.1067 299.127C56.0617 299.127 55.4787 299.699 55.2587 300.403H58.8777C58.7017 299.699 58.2067 299.127 57.1067 299.127ZM63.3145 302.702H67.1535V304H60.9825V302.812L64.7115 299.446H61.1915V298.137H67.0545V299.325L63.3145 302.702ZM68.3594 300.326H72.0664V301.481H68.3594V300.326ZM78.0811 298.137H79.8191L77.1461 304H75.5071L72.8341 298.137H74.5721L76.3321 302.306L78.0811 298.137ZM83.4271 297.983C85.1431 297.983 86.9251 298.863 86.9251 301.074C86.9251 303.285 85.1431 304.165 83.4271 304.165C81.7221 304.165 79.9291 303.285 79.9291 301.074C79.9291 298.863 81.7221 297.983 83.4271 297.983ZM83.4271 303.01C84.8351 303.01 85.3631 302.097 85.3631 301.074C85.3631 300.04 84.8351 299.127 83.4271 299.127C82.0191 299.127 81.5021 300.04 81.5021 301.074C81.5021 302.097 82.0191 303.01 83.4271 303.01ZM90.3053 304.165C88.7983 304.165 87.9183 303.34 87.9183 302.02V298.137H89.5903V301.602C89.5903 302.306 89.9973 302.911 91.0313 302.911C92.0653 302.911 92.5273 302.284 92.5273 301.602V298.137H94.1993V304H92.5273V303.175C92.2743 303.527 91.5593 304.165 90.3053 304.165ZM98.8238 300.469C100.474 300.755 101.596 300.876 101.596 302.229C101.596 303.571 100.452 304.165 98.3288 304.165C96.2608 304.165 94.9738 303.516 94.9738 302.196H96.7888C96.7888 302.779 97.4818 303.032 98.4388 303.032C99.3848 303.032 99.8798 302.856 99.8798 302.405C99.8798 301.877 99.1538 301.811 97.5918 301.547C96.0408 301.294 95.2048 300.964 95.2048 299.798C95.2048 298.621 96.2498 297.983 98.2298 297.983C100.298 297.983 101.332 298.753 101.332 299.831H99.6488C99.6488 299.457 99.2198 299.083 98.2078 299.083C97.2948 299.083 96.7998 299.27 96.7998 299.721C96.7998 300.227 97.7788 300.282 98.8238 300.469ZM110.43 296.3H112.102V304H110.43V303.274C110.001 303.824 109.319 304.165 108.329 304.165C106.624 304.165 105.227 303.065 105.227 301.074C105.227 299.083 106.624 297.983 108.329 297.983C109.319 297.983 110.001 298.324 110.43 298.874V296.3ZM108.703 303.01C109.902 303.01 110.639 302.306 110.639 301.074C110.639 299.842 109.902 299.127 108.703 299.127C107.493 299.127 106.8 299.842 106.8 301.074C106.8 302.306 107.493 303.01 108.703 303.01ZM119.8 301.503H114.597C114.729 302.306 115.29 303.01 116.511 303.01C117.402 303.01 117.974 302.614 118.205 302.119H119.679C119.294 303.582 117.963 304.165 116.511 304.165C114.839 304.165 113.09 303.241 113.09 301.074C113.09 298.907 114.817 297.983 116.5 297.983C118.205 297.983 119.976 299.028 119.8 301.503ZM116.5 299.127C115.455 299.127 114.872 299.699 114.652 300.403H118.271C118.095 299.699 117.6 299.127 116.5 299.127ZM131.66 297.983C133.167 297.983 133.948 298.797 133.948 300.117V304H132.276V300.535C132.276 299.831 131.968 299.226 131.033 299.226C130.098 299.226 129.757 299.842 129.757 300.535V304H128.085V300.535C128.085 299.831 127.777 299.226 126.842 299.226C125.907 299.226 125.555 299.853 125.555 300.535V304H123.894V298.137H125.555V298.907C125.764 298.544 126.27 297.983 127.469 297.983C128.492 297.983 129.174 298.357 129.504 299.006C129.713 298.687 130.373 297.983 131.66 297.983ZM141.65 301.503H136.447C136.579 302.306 137.14 303.01 138.361 303.01C139.252 303.01 139.824 302.614 140.055 302.119H141.529C141.144 303.582 139.813 304.165 138.361 304.165C136.689 304.165 134.94 303.241 134.94 301.074C134.94 298.907 136.667 297.983 138.35 297.983C140.055 297.983 141.826 299.028 141.65 301.503ZM138.35 299.127C137.305 299.127 136.722 299.699 136.502 300.403H140.121C139.945 299.699 139.45 299.127 138.35 299.127ZM145.96 300.469C147.61 300.755 148.732 300.876 148.732 302.229C148.732 303.571 147.588 304.165 145.465 304.165C143.397 304.165 142.11 303.516 142.11 302.196H143.925C143.925 302.779 144.618 303.032 145.575 303.032C146.521 303.032 147.016 302.856 147.016 302.405C147.016 301.877 146.29 301.811 144.728 301.547C143.177 301.294 142.341 300.964 142.341 299.798C142.341 298.621 143.386 297.983 145.366 297.983C147.434 297.983 148.468 298.753 148.468 299.831H146.785C146.785 299.457 146.356 299.083 145.344 299.083C144.431 299.083 143.936 299.27 143.936 299.721C143.936 300.227 144.915 300.282 145.96 300.469ZM151.998 304.165C150.491 304.165 149.611 303.34 149.611 302.02V298.137H151.283V301.602C151.283 302.306 151.69 302.911 152.724 302.911C153.758 302.911 154.22 302.284 154.22 301.602V298.137H155.892V304H154.22V303.175C153.967 303.527 153.252 304.165 151.998 304.165ZM161.077 297.994C161.462 297.994 161.748 298.027 161.946 298.082V299.622H161.891C161.682 299.534 161.286 299.435 160.78 299.435C159.394 299.435 158.888 300.304 158.888 301.217V304H157.216V298.137H158.888V299.215C159.13 298.797 159.823 297.994 161.077 297.994ZM169.096 301.503H163.893C164.025 302.306 164.586 303.01 165.807 303.01C166.698 303.01 167.27 302.614 167.501 302.119H168.975C168.59 303.582 167.259 304.165 165.807 304.165C164.135 304.165 162.386 303.241 162.386 301.074C162.386 298.907 164.113 297.983 165.796 297.983C167.501 297.983 169.272 299.028 169.096 301.503ZM165.796 299.127C164.751 299.127 164.168 299.699 163.948 300.403H167.567C167.391 299.699 166.896 299.127 165.796 299.127ZM173.968 297.994C174.353 297.994 174.639 298.027 174.837 298.082V299.622H174.782C174.573 299.534 174.177 299.435 173.671 299.435C172.285 299.435 171.779 300.304 171.779 301.217V304H170.107V298.137H171.779V299.215C172.021 298.797 172.714 297.994 173.968 297.994ZM178.797 295.882H180.469V304H178.797V295.882ZM188.174 301.503H182.971C183.103 302.306 183.664 303.01 184.885 303.01C185.776 303.01 186.348 302.614 186.579 302.119H188.053C187.668 303.582 186.337 304.165 184.885 304.165C183.213 304.165 181.464 303.241 181.464 301.074C181.464 298.907 183.191 297.983 184.874 297.983C186.579 297.983 188.35 299.028 188.174 301.503ZM184.874 299.127C183.829 299.127 183.246 299.699 183.026 300.403H186.645C186.469 299.699 185.974 299.127 184.874 299.127ZM192.485 300.469C194.135 300.755 195.257 300.876 195.257 302.229C195.257 303.571 194.113 304.165 191.99 304.165C189.922 304.165 188.635 303.516 188.635 302.196H190.45C190.45 302.779 191.143 303.032 192.1 303.032C193.046 303.032 193.541 302.856 193.541 302.405C193.541 301.877 192.815 301.811 191.253 301.547C189.702 301.294 188.866 300.964 188.866 299.798C188.866 298.621 189.911 297.983 191.891 297.983C193.959 297.983 194.993 298.753 194.993 299.831H193.31C193.31 299.457 192.881 299.083 191.869 299.083C190.956 299.083 190.461 299.27 190.461 299.721C190.461 300.227 191.44 300.282 192.485 300.469ZM204.091 296.3H205.763V304H204.091V303.274C203.662 303.824 202.98 304.165 201.99 304.165C200.285 304.165 198.888 303.065 198.888 301.074C198.888 299.083 200.285 297.983 201.99 297.983C202.98 297.983 203.662 298.324 204.091 298.874V296.3ZM202.364 303.01C203.563 303.01 204.3 302.306 204.3 301.074C204.3 299.842 203.563 299.127 202.364 299.127C201.154 299.127 200.461 299.842 200.461 301.074C200.461 302.306 201.154 303.01 202.364 303.01ZM207.081 304V298.137H208.742V304H207.081ZM207.906 297.455C207.4 297.455 207.048 297.169 207.048 296.674C207.048 296.168 207.4 295.882 207.906 295.882C208.412 295.882 208.775 296.168 208.775 296.674C208.775 297.169 208.412 297.455 207.906 297.455ZM217.834 297.983C219.341 297.983 220.122 298.797 220.122 300.117V304H218.45V300.535C218.45 299.831 218.142 299.226 217.207 299.226C216.272 299.226 215.931 299.842 215.931 300.535V304H214.259V300.535C214.259 299.831 213.951 299.226 213.016 299.226C212.081 299.226 211.729 299.853 211.729 300.535V304H210.068V298.137H211.729V298.907C211.938 298.544 212.444 297.983 213.643 297.983C214.666 297.983 215.348 298.357 215.678 299.006C215.887 298.687 216.547 297.983 217.834 297.983ZM227.824 301.503H222.621C222.753 302.306 223.314 303.01 224.535 303.01C225.426 303.01 225.998 302.614 226.229 302.119H227.703C227.318 303.582 225.987 304.165 224.535 304.165C222.863 304.165 221.114 303.241 221.114 301.074C221.114 298.907 222.841 297.983 224.524 297.983C226.229 297.983 228 299.028 227.824 301.503ZM224.524 299.127C223.479 299.127 222.896 299.699 222.676 300.403H226.295C226.119 299.699 225.624 299.127 224.524 299.127ZM232.728 297.983C234.235 297.983 235.115 298.797 235.115 300.117V304H233.443V300.535C233.443 299.831 233.036 299.226 232.002 299.226C230.968 299.226 230.506 299.853 230.506 300.535V304H228.834V298.137H230.506V298.962C230.759 298.61 231.474 297.983 232.728 297.983ZM239.74 300.469C241.39 300.755 242.512 300.876 242.512 302.229C242.512 303.571 241.368 304.165 239.245 304.165C237.177 304.165 235.89 303.516 235.89 302.196H237.705C237.705 302.779 238.398 303.032 239.355 303.032C240.301 303.032 240.796 302.856 240.796 302.405C240.796 301.877 240.07 301.811 238.508 301.547C236.957 301.294 236.121 300.964 236.121 299.798C236.121 298.621 237.166 297.983 239.146 297.983C241.214 297.983 242.248 298.753 242.248 299.831H240.565C240.565 299.457 240.136 299.083 239.124 299.083C238.211 299.083 237.716 299.27 237.716 299.721C237.716 300.227 238.695 300.282 239.74 300.469ZM243.39 304V298.137H245.051V304H243.39ZM244.215 297.455C243.709 297.455 243.357 297.169 243.357 296.674C243.357 296.168 243.709 295.882 244.215 295.882C244.721 295.882 245.084 296.168 245.084 296.674C245.084 297.169 244.721 297.455 244.215 297.455ZM249.544 297.983C251.26 297.983 253.042 298.863 253.042 301.074C253.042 303.285 251.26 304.165 249.544 304.165C247.839 304.165 246.046 303.285 246.046 301.074C246.046 298.863 247.839 297.983 249.544 297.983ZM249.544 303.01C250.952 303.01 251.48 302.097 251.48 301.074C251.48 300.04 250.952 299.127 249.544 299.127C248.136 299.127 247.619 300.04 247.619 301.074C247.619 302.097 248.136 303.01 249.544 303.01ZM257.929 297.983C259.436 297.983 260.316 298.797 260.316 300.117V304H258.644V300.535C258.644 299.831 258.237 299.226 257.203 299.226C256.169 299.226 255.707 299.853 255.707 300.535V304H254.035V298.137H255.707V298.962C255.96 298.61 256.675 297.983 257.929 297.983ZM264.941 300.469C266.591 300.755 267.713 300.876 267.713 302.229C267.713 303.571 266.569 304.165 264.446 304.165C262.378 304.165 261.091 303.516 261.091 302.196H262.906C262.906 302.779 263.599 303.032 264.556 303.032C265.502 303.032 265.997 302.856 265.997 302.405C265.997 301.877 265.271 301.811 263.709 301.547C262.158 301.294 261.322 300.964 261.322 299.798C261.322 298.621 262.367 297.983 264.347 297.983C266.415 297.983 267.449 298.753 267.449 299.831H265.766C265.766 299.457 265.337 299.083 264.325 299.083C263.412 299.083 262.917 299.27 262.917 299.721C262.917 300.227 263.896 300.282 264.941 300.469ZM117.615 309.882H119.287V318H117.615V309.882ZM120.612 318V312.137H122.273V318H120.612ZM121.437 311.455C120.931 311.455 120.579 311.169 120.579 310.674C120.579 310.168 120.931 309.882 121.437 309.882C121.943 309.882 122.306 310.168 122.306 310.674C122.306 311.169 121.943 311.455 121.437 311.455ZM127.492 311.983C128.999 311.983 129.879 312.797 129.879 314.117V318H128.207V314.535C128.207 313.831 127.8 313.226 126.766 313.226C125.732 313.226 125.27 313.853 125.27 314.535V318H123.598V312.137H125.27V312.962C125.523 312.61 126.238 311.983 127.492 311.983ZM137.584 315.503H132.381C132.513 316.306 133.074 317.01 134.295 317.01C135.186 317.01 135.758 316.614 135.989 316.119H137.463C137.078 317.582 135.747 318.165 134.295 318.165C132.623 318.165 130.874 317.241 130.874 315.074C130.874 312.907 132.601 311.983 134.284 311.983C135.989 311.983 137.76 313.028 137.584 315.503ZM134.284 313.127C133.239 313.127 132.656 313.699 132.436 314.403H136.055C135.879 313.699 135.384 313.127 134.284 313.127ZM134.394 309.805H136.275L134.812 311.334H133.514L134.394 309.805ZM141.402 311.983C143.085 311.983 144.559 312.467 144.559 314.194V318H142.887V317.219C142.634 317.604 141.787 318.165 140.478 318.165C139.103 318.165 138.157 317.593 138.157 316.438C138.157 315.206 138.795 314.216 142.887 314.469V314.194C142.887 313.578 142.612 313.127 141.402 313.127C140.39 313.127 140.071 313.424 139.983 313.831H138.421C138.608 312.533 139.796 311.983 141.402 311.983ZM142.887 316.284V315.459C140.665 315.338 139.84 315.547 139.84 316.383C139.84 316.933 140.247 317.153 140.973 317.153C141.875 317.153 142.579 316.801 142.887 316.284ZM145.878 318V312.137H147.539V318H145.878ZM146.703 311.455C146.197 311.455 145.845 311.169 145.845 310.674C145.845 310.168 146.197 309.882 146.703 309.882C147.209 309.882 147.572 310.168 147.572 310.674C147.572 311.169 147.209 311.455 146.703 311.455ZM152.725 311.994C153.11 311.994 153.396 312.027 153.594 312.082V313.622H153.539C153.33 313.534 152.934 313.435 152.428 313.435C151.042 313.435 150.536 314.304 150.536 315.217V318H148.864V312.137H150.536V313.215C150.778 312.797 151.471 311.994 152.725 311.994ZM160.744 315.503H155.541C155.673 316.306 156.234 317.01 157.455 317.01C158.346 317.01 158.918 316.614 159.149 316.119H160.623C160.238 317.582 158.907 318.165 157.455 318.165C155.783 318.165 154.034 317.241 154.034 315.074C154.034 312.907 155.761 311.983 157.444 311.983C159.149 311.983 160.92 313.028 160.744 315.503ZM157.444 313.127C156.399 313.127 155.816 313.699 155.596 314.403H159.215C159.039 313.699 158.544 313.127 157.444 313.127ZM165.055 314.469C166.705 314.755 167.827 314.876 167.827 316.229C167.827 317.571 166.683 318.165 164.56 318.165C162.492 318.165 161.205 317.516 161.205 316.196H163.02C163.02 316.779 163.713 317.032 164.67 317.032C165.616 317.032 166.111 316.856 166.111 316.405C166.111 315.877 165.385 315.811 163.823 315.547C162.272 315.294 161.436 314.964 161.436 313.798C161.436 312.621 162.481 311.983 164.461 311.983C166.529 311.983 167.563 312.753 167.563 313.831H165.88C165.88 313.457 165.451 313.083 164.439 313.083C163.526 313.083 163.031 313.27 163.031 313.721C163.031 314.227 164.01 314.282 165.055 314.469Z" fill="black"/>
<path d="M205.259 225.342C195.325 225.342 190.279 212.035 189.522 206.107H192.077C192.644 209.135 196.902 223.198 205.102 223.198C220.934 223.198 225.349 216.04 227.178 206.234H229.764C227.21 216.198 223.614 225.342 205.291 225.342H205.259Z" fill="#FBFBFB"/>
<path fill-rule="evenodd" clip-rule="evenodd" d="M164.828 256.56C165.743 252.555 166.626 247.857 167.477 242.686C168.36 237.294 169.243 231.429 170.126 225.343C170.568 222.347 170.978 219.32 171.419 216.262L171.577 215.126C171.798 213.613 172.019 212.068 172.208 210.523V210.239C172.334 209.514 172.46 208.82 172.555 208.095C173.659 200.149 174.826 192.234 176.056 184.855C176.15 184.351 176.213 183.815 176.308 183.31C177.632 175.522 179.02 168.364 180.565 162.468C182.111 168.396 183.53 175.553 184.855 183.373C184.949 183.878 185.012 184.382 185.107 184.855C186.337 192.266 187.504 200.18 188.639 208.095C188.734 208.851 188.828 209.545 188.954 210.27V210.554C189.207 212.036 189.428 213.55 189.617 215.032L189.837 216.608C190.027 217.933 190.216 219.257 190.405 220.581H192.96C192.897 220.14 192.834 219.73 192.771 219.289C192.644 218.28 192.487 217.271 192.361 216.293C191.951 213.455 191.572 210.617 191.131 207.779V207.559C190.121 200.18 189.018 192.802 187.788 185.36C187.661 184.54 187.504 183.752 187.378 182.963C186.242 176.405 185.012 169.72 183.341 163.256V163.224C183.215 162.783 183.12 162.341 182.994 161.9L180.565 152.566L178.137 161.9C178.011 162.341 177.916 162.783 177.79 163.224V163.287C176.245 169.405 175.172 175.68 174.069 181.86C174.006 182.238 173.942 182.617 173.879 182.995C173.753 183.783 173.596 184.603 173.469 185.391C172.208 192.865 171.136 200.243 170.126 207.622V207.842C169.653 210.775 169.243 213.739 168.833 216.671C168.707 217.554 168.581 218.469 168.455 219.352C167.383 227.077 166.279 234.802 164.986 242.402C164.26 247.005 163.409 251.609 162.305 256.087C162.21 256.434 162.147 256.78 162.053 257.127" fill="black"/>
<path fill-rule="evenodd" clip-rule="evenodd" d="M218.411 59.4823C218.411 59.7346 218.379 60.0183 218.348 60.3652C218.032 64.4013 217.307 74.0187 218.537 76.6043C221.344 82.2801 223.52 88.8388 225.444 94.7669C228.25 103.627 230.679 112.709 232.508 121.79C233.107 124.786 233.643 127.907 234.148 131.092C235.031 136.926 235.662 142.948 235.693 148.719C235.693 150.957 235.63 153.133 235.41 155.277C235.315 156.476 235.22 157.642 235.126 158.84C234.432 166.723 233.454 174.543 232.508 182.332C232.067 185.927 231.625 189.521 231.152 193.116C229.985 202.26 228.85 211.436 227.967 220.581H230.584C231.436 211.405 232.729 201.062 234.022 190.499C234.337 187.882 234.684 185.264 235 182.616C235.82 175.868 236.639 169.088 237.302 162.561C237.554 160.165 237.775 157.831 237.964 155.53C238.09 154.016 238.185 152.471 238.216 150.894C238.216 150.201 238.216 149.475 238.216 148.75C238.216 146.196 238.059 143.516 237.838 140.804V140.646C237.775 139.953 237.712 139.259 237.649 138.565C237.649 138.313 237.586 138.029 237.554 137.777C237.554 137.651 237.554 137.525 237.523 137.43C237.302 135.349 237.018 133.236 236.703 131.124C236.419 129.232 236.103 127.308 235.756 125.416C235.504 124.092 235.252 122.768 235 121.443C233.044 111.763 230.427 102.24 227.84 94.1362C225.254 86.0325 222.7 79.4107 220.871 75.5953C220.177 74.0817 220.366 68.0906 220.997 59.8292C221.028 59.2616 221.091 58.694 221.123 58.1264M133.227 249.716V249.653C134.079 245.901 134.205 241.549 134.205 237.64C134.205 232.311 133.732 226.855 133.227 221.527C132.407 211.783 131.177 202.04 129.979 192.296C129.569 188.954 129.127 185.611 128.749 182.269C127.803 174.48 126.825 166.66 126.131 158.777C126.037 157.611 125.91 156.412 125.816 155.214C125.627 153.07 125.532 150.894 125.532 148.656C125.532 142.822 126.163 136.736 127.077 130.871C127.55 127.75 128.15 124.691 128.749 121.727C130.578 112.646 133.006 103.533 135.813 94.7038C137.769 88.7442 139.945 82.2171 142.625 76.5412C144.076 73.7033 143.099 62.7301 142.752 59.4823L140.197 57.9688C140.229 58.5363 140.292 59.1039 140.323 59.64V59.7346C140.954 67.9645 141.143 73.9241 140.449 75.4376V75.5007C138.557 79.3161 136.003 85.9063 133.416 93.947C130.83 102.051 128.244 111.574 126.289 121.254C126.037 122.578 125.784 123.903 125.532 125.196C125.185 127.119 124.87 129.042 124.554 130.966C124.239 133.11 123.955 135.223 123.734 137.304C123.734 137.43 123.734 137.556 123.703 137.682C123.703 137.903 123.64 138.155 123.64 138.376C123.577 139.038 123.514 139.732 123.45 140.394V140.552V140.678C123.23 143.421 123.104 146.101 123.072 148.656C123.072 149.381 123.072 150.106 123.072 150.831C123.104 152.408 123.198 153.953 123.324 155.435C123.514 157.768 123.766 160.133 123.987 162.498C124.649 169.025 125.469 175.805 126.289 182.553C126.604 185.17 126.92 187.787 127.267 190.373C128.654 201.409 129.979 212.225 130.83 221.716C131.366 227.612 131.682 232.973 131.745 237.608C131.776 242.243 131.524 246.122 130.893 249.054V249.117" fill="black"/>
<path d="M236.763 163.476C236.7 167.506 235.906 176.227 234.094 189.55V189.556L234.093 189.557C234.092 189.557 234.093 189.559 234.093 189.561C234.092 189.564 234.091 189.568 234.091 189.574C234.089 189.586 234.087 189.605 234.084 189.629C234.078 189.677 234.069 189.748 234.057 189.842C234.034 190.029 234 190.304 233.956 190.655C233.868 191.357 233.742 192.365 233.589 193.585C233.281 196.026 232.863 199.319 232.422 202.729C231.537 209.565 230.562 216.831 230.188 218.686V218.688C228.855 225.431 226.841 230.157 223.442 233.209C220.052 236.253 215.196 237.709 208.003 237.709C203.729 237.709 200.186 236.414 197.408 233.708C194.793 231.161 192.815 227.325 191.574 222.031L191.336 220.953C189.811 213.643 188.655 204.312 187.238 194.238C185.851 184.38 184.212 173.83 181.737 163.846L236.763 163.476Z" fill="#D3D3D5" stroke="black"/>
<path d="M237.275 162.972C237.275 167.379 236.27 177.342 234.598 189.644L234.597 189.651C234.469 190.713 231.445 215.116 230.693 218.811V218.813C229.267 226.02 227.004 230.864 223.435 233.918C219.883 236.958 214.95 238.297 208.01 238.306L208.003 238.275C203.467 238.275 199.783 236.835 196.927 233.998C194.238 231.328 192.248 227.385 191.007 222.143L190.768 221.077C189.543 215.169 188.536 207.904 187.463 200.143C185.886 188.606 184.053 175.494 181.018 163.387L181.016 163.376L180.998 163.31L237.275 162.907V162.972ZM236.604 163.039L181.76 163.418L181.761 163.934L181.342 164.038C184.299 175.958 186.061 188.766 187.607 200.121V200.122C188.679 207.842 189.69 215.144 190.892 221.028L190.893 221.03C192.071 226.695 194.049 230.977 196.898 233.846C199.76 236.728 203.458 238.141 207.971 238.141C214.803 238.141 219.779 236.895 223.396 233.79C227.008 230.69 229.175 225.81 230.57 218.755V218.754C231.3 215.041 234.426 189.849 234.455 189.615L234.454 189.614C236.062 177.857 237.045 168.215 237.108 163.546L237.115 163.036L236.604 163.039Z" fill="black" stroke="black"/>
<path d="M270.418 205.035H258.371V191.318H261.556V202.607H270.418V205.035Z" fill="#050A0A"/>
<path d="M246.542 157.611H246.006V238.838H246.542V157.611Z" fill="black"/>
<path d="M248.939 238.428H243.609V239.248H248.939V238.428Z" fill="black"/>
<path d="M248.939 157.201H243.609V158.021H248.939V157.201Z" fill="black"/>
<path d="M178.326 158.016L19.2622 158.016" stroke="#1D1D1B" stroke-miterlimit="10" stroke-dasharray="4 4"/>
<path d="M28 163.4C31.42 163.4 32.554 165.398 32.554 167.558C32.554 169.97 31.132 171.734 27.658 171.734H22.654V176H20.44V163.4H28ZM27.658 169.88C29.602 169.88 30.268 168.872 30.268 167.558C30.268 166.136 29.494 165.272 27.622 165.272H22.654V169.88H27.658ZM39.0377 166.136C42.0797 166.136 44.5277 167.936 44.2757 171.914H35.6357C35.8877 173.552 37.0577 174.632 39.0737 174.632C40.9457 174.632 41.7377 173.732 42.0617 173.048H44.0057C43.5197 175.01 41.6477 176.27 39.0737 176.27C36.3377 176.27 33.6377 174.704 33.6377 171.212C33.6377 167.774 36.2837 166.136 39.0377 166.136ZM35.6897 170.294H42.2957C42.0077 168.782 40.9637 167.774 39.0377 167.774C37.2557 167.774 36.0317 168.782 35.6897 170.294ZM39.5417 162.77H41.8817L39.6497 165.092H38.2097L39.5417 162.77ZM52.1658 166.136C52.5978 166.136 52.8498 166.154 53.2278 166.208V168.404H53.1558C52.7778 168.296 52.2918 168.224 51.6798 168.224C49.2498 168.224 48.3318 169.628 48.3318 171.122V176H46.0998V166.406H48.3318V168.206C48.7638 167.504 50.0958 166.136 52.1658 166.136ZM55.0295 176V166.406H57.2435V176H55.0295ZM56.1275 165.074C55.4435 165.074 54.9575 164.678 54.9575 163.994C54.9575 163.31 55.4435 162.914 56.1275 162.914C56.8295 162.914 57.3155 163.31 57.3155 163.994C57.3155 164.678 56.8295 165.074 56.1275 165.074ZM65.644 166.136C68.146 166.136 69.514 167.558 69.514 169.79V176H67.3V170.456C67.3 168.836 66.418 167.936 64.672 167.936C62.926 167.936 61.972 168.944 61.972 170.456V176H59.758V166.406H61.972V167.882C62.422 167.252 63.646 166.136 65.644 166.136ZM76.7076 166.136C79.7496 166.136 82.1976 167.936 81.9456 171.914H73.3056C73.5576 173.552 74.7276 174.632 76.7436 174.632C78.6156 174.632 79.4076 173.732 79.7316 173.048H81.6756C81.1896 175.01 79.3176 176.27 76.7436 176.27C74.0076 176.27 71.3076 174.704 71.3076 171.212C71.3076 167.774 73.9536 166.136 76.7076 166.136ZM73.3596 170.294H79.9656C79.6776 168.782 78.6336 167.774 76.7076 167.774C74.9256 167.774 73.7016 168.782 73.3596 170.294ZM77.2116 162.77H79.5516L77.3196 165.092H75.8796L77.2116 162.77ZM88.4498 166.136C91.4918 166.136 93.9398 167.936 93.6878 171.914H85.0478C85.2998 173.552 86.4698 174.632 88.4858 174.632C90.3578 174.632 91.1498 173.732 91.4738 173.048H93.4178C92.9318 175.01 91.0598 176.27 88.4858 176.27C85.7498 176.27 83.0498 174.704 83.0498 171.212C83.0498 167.774 85.6958 166.136 88.4498 166.136ZM85.1018 170.294H91.7078C91.4198 168.782 90.3758 167.774 88.4498 167.774C86.6678 167.774 85.4438 168.782 85.1018 170.294Z" fill="black"/>
</svg>
