<svg width="285" height="332" viewBox="0 0 285 332" fill="none" xmlns="http://www.w3.org/2000/svg">
<rect width="285" height="332" rx="10" fill="#D9D9D9"/>
<path d="M43.4804 306L42.8314 304.493H38.6074L37.9474 306H36.0664L39.6304 298.3H41.8084L45.3614 306H43.4804ZM39.2014 303.14H42.2374L40.7194 299.642L39.2014 303.14ZM48.9936 305.01C50.0936 305.01 50.6326 304.449 50.8306 303.712H52.3266C52.0186 305.472 50.5336 306.165 48.9936 306.165C47.2776 306.165 45.4736 305.34 45.4736 303.074C45.4736 300.808 47.2776 299.983 48.9936 299.983C50.5336 299.983 52.0186 300.676 52.3266 302.436H50.8306C50.6326 301.688 50.0936 301.127 48.9936 301.127C47.5856 301.127 47.0466 302.04 47.0466 303.074C47.0466 304.097 47.5856 305.01 48.9936 305.01ZM57.2063 299.983C58.7133 299.983 59.5933 300.797 59.5933 302.117V306H57.9323V302.535C57.9323 301.831 57.5143 301.226 56.4803 301.226C55.4463 301.226 54.9843 301.853 54.9843 302.535V306H53.3123V298.3H54.9843V300.962C55.2483 300.61 55.9633 299.983 57.2063 299.983ZM64.74 301.281H63.024V303.745C63.024 304.702 63.376 304.889 64.74 304.746V306C64.52 306.033 64.256 306.088 63.871 306.088C61.759 306.088 61.352 305.175 61.352 303.712V301.281H60.263V300.137H61.352V298.619H63.024V300.137H64.74V301.281ZM72.1103 303.503H66.9073C67.0393 304.306 67.6003 305.01 68.8213 305.01C69.7123 305.01 70.2843 304.614 70.5153 304.119H71.9893C71.6043 305.582 70.2733 306.165 68.8213 306.165C67.1493 306.165 65.4003 305.241 65.4003 303.074C65.4003 300.907 67.1273 299.983 68.8103 299.983C70.5153 299.983 72.2863 301.028 72.1103 303.503ZM68.8103 301.127C67.7653 301.127 67.1823 301.699 66.9623 302.403H70.5813C70.4053 301.699 69.9103 301.127 68.8103 301.127ZM77.0149 299.983C78.5219 299.983 79.4019 300.797 79.4019 302.117V306H77.7299V302.535C77.7299 301.831 77.3229 301.226 76.2889 301.226C75.2549 301.226 74.7929 301.853 74.7929 302.535V306H73.1209V300.137H74.7929V300.962C75.0459 300.61 75.7609 299.983 77.0149 299.983ZM87.9454 301.413C90.0684 301.71 91.5424 301.886 91.5424 303.602C91.5424 305.274 90.1674 306.165 87.4284 306.165C84.7664 306.165 83.3694 305.164 83.3694 303.602H85.2174C85.2614 304.405 86.1854 304.812 87.5824 304.812C89.0454 304.812 89.6614 304.427 89.6614 303.844C89.6614 303.052 88.4734 303.129 86.3724 302.777C84.2714 302.425 83.6114 301.787 83.6114 300.577C83.6114 299.312 84.4694 298.146 87.2964 298.146C90.0134 298.146 91.0694 299.18 91.1134 300.544H89.3974C89.3314 299.994 88.6934 299.499 87.2744 299.499C85.6904 299.499 85.3164 299.928 85.3164 300.456C85.3164 301.182 86.5924 301.226 87.9454 301.413ZM92.5321 306V300.137H94.1931V306H92.5321ZM93.3571 299.455C92.8511 299.455 92.4991 299.169 92.4991 298.674C92.4991 298.168 92.8511 297.882 93.3571 297.882C93.8631 297.882 94.2261 298.168 94.2261 298.674C94.2261 299.169 93.8631 299.455 93.3571 299.455ZM101.898 303.503H96.6954C96.8274 304.306 97.3884 305.01 98.6094 305.01C99.5004 305.01 100.072 304.614 100.303 304.119H101.777C101.392 305.582 100.061 306.165 98.6094 306.165C96.9374 306.165 95.1884 305.241 95.1884 303.074C95.1884 300.907 96.9154 299.983 98.5984 299.983C100.303 299.983 102.074 301.028 101.898 303.503ZM98.5984 301.127C97.5534 301.127 96.9704 301.699 96.7504 302.403H100.369C100.193 301.699 99.6984 301.127 98.5984 301.127ZM110.865 298.3H112.537V306H110.865V305.274C110.436 305.824 109.754 306.165 108.764 306.165C107.059 306.165 105.662 305.065 105.662 303.074C105.662 301.083 107.059 299.983 108.764 299.983C109.754 299.983 110.436 300.324 110.865 300.874V298.3ZM109.138 305.01C110.337 305.01 111.074 304.306 111.074 303.074C111.074 301.842 110.337 301.127 109.138 301.127C107.928 301.127 107.235 301.842 107.235 303.074C107.235 304.306 107.928 305.01 109.138 305.01ZM116.77 299.983C118.453 299.983 119.927 300.467 119.927 302.194V306H118.255V305.219C118.002 305.604 117.155 306.165 115.846 306.165C114.471 306.165 113.525 305.593 113.525 304.438C113.525 303.206 114.163 302.216 118.255 302.469V302.194C118.255 301.578 117.98 301.127 116.77 301.127C115.758 301.127 115.439 301.424 115.351 301.831H113.789C113.976 300.533 115.164 299.983 116.77 299.983ZM118.255 304.284V303.459C116.033 303.338 115.208 303.547 115.208 304.383C115.208 304.933 115.615 305.153 116.341 305.153C117.243 305.153 117.947 304.801 118.255 304.284ZM125.107 299.994C125.492 299.994 125.778 300.027 125.976 300.082V301.622H125.921C125.712 301.534 125.316 301.435 124.81 301.435C123.424 301.435 122.918 302.304 122.918 303.217V306H121.246V300.137H122.918V301.215C123.16 300.797 123.853 299.994 125.107 299.994ZM129.554 299.983C131.237 299.983 132.711 300.467 132.711 302.194V306H131.039V305.219C130.786 305.604 129.939 306.165 128.63 306.165C127.255 306.165 126.309 305.593 126.309 304.438C126.309 303.206 126.947 302.216 131.039 302.469V302.194C131.039 301.578 130.764 301.127 129.554 301.127C128.542 301.127 128.223 301.424 128.135 301.831H126.573C126.76 300.533 127.948 299.983 129.554 299.983ZM131.039 304.284V303.459C128.817 303.338 127.992 303.547 127.992 304.383C127.992 304.933 128.399 305.153 129.125 305.153C130.027 305.153 130.731 304.801 131.039 304.284ZM136.416 306.165C134.909 306.165 134.029 305.34 134.029 304.02V300.137H135.701V303.602C135.701 304.306 136.108 304.911 137.142 304.911C138.176 304.911 138.638 304.284 138.638 303.602V300.137H140.31V306H138.638V305.175C138.385 305.527 137.67 306.165 136.416 306.165ZM145.518 299.147C144.429 299.059 143.835 299.103 143.835 300.137H145.364V301.281H143.835V306H142.174V301.281H141.195V300.137H142.174C142.174 298.971 142.581 297.882 144.539 297.882C144.924 297.882 145.177 297.915 145.518 297.959V299.147ZM146.613 304.383H148.274L147.218 307.012H146.173L146.613 304.383ZM152.463 297.882H154.135V306H152.463V297.882ZM155.46 306V300.137H157.121V306H155.46ZM156.285 299.455C155.779 299.455 155.427 299.169 155.427 298.674C155.427 298.168 155.779 297.882 156.285 297.882C156.791 297.882 157.154 298.168 157.154 298.674C157.154 299.169 156.791 299.455 156.285 299.455ZM162.34 299.983C163.847 299.983 164.727 300.797 164.727 302.117V306H163.055V302.535C163.055 301.831 162.648 301.226 161.614 301.226C160.58 301.226 160.118 301.853 160.118 302.535V306H158.446V300.137H160.118V300.962C160.371 300.61 161.086 299.983 162.34 299.983ZM172.432 303.503H167.229C167.361 304.306 167.922 305.01 169.143 305.01C170.034 305.01 170.606 304.614 170.837 304.119H172.311C171.926 305.582 170.595 306.165 169.143 306.165C167.471 306.165 165.722 305.241 165.722 303.074C165.722 300.907 167.449 299.983 169.132 299.983C170.837 299.983 172.608 301.028 172.432 303.503ZM169.132 301.127C168.087 301.127 167.504 301.699 167.284 302.403H170.903C170.727 301.699 170.232 301.127 169.132 301.127ZM176.25 299.983C177.933 299.983 179.407 300.467 179.407 302.194V306H177.735V305.219C177.482 305.604 176.635 306.165 175.326 306.165C173.951 306.165 173.005 305.593 173.005 304.438C173.005 303.206 173.643 302.216 177.735 302.469V302.194C177.735 301.578 177.46 301.127 176.25 301.127C175.238 301.127 174.919 301.424 174.831 301.831H173.269C173.456 300.533 174.644 299.983 176.25 299.983ZM177.735 304.284V303.459C175.513 303.338 174.688 303.547 174.688 304.383C174.688 304.933 175.095 305.153 175.821 305.153C176.723 305.153 177.427 304.801 177.735 304.284ZM184.586 299.994C184.971 299.994 185.257 300.027 185.455 300.082V301.622H185.4C185.191 301.534 184.795 301.435 184.289 301.435C182.903 301.435 182.397 302.304 182.397 303.217V306H180.725V300.137H182.397V301.215C182.639 300.797 183.332 299.994 184.586 299.994ZM192.605 303.503H187.402C187.534 304.306 188.095 305.01 189.316 305.01C190.207 305.01 190.779 304.614 191.01 304.119H192.484C192.099 305.582 190.768 306.165 189.316 306.165C187.644 306.165 185.895 305.241 185.895 303.074C185.895 300.907 187.622 299.983 189.305 299.983C191.01 299.983 192.781 301.028 192.605 303.503ZM189.305 301.127C188.26 301.127 187.677 301.699 187.457 302.403H191.076C190.9 301.699 190.405 301.127 189.305 301.127ZM204.443 298.3H207.204V306H205.433V299.917L202.848 306H201.165L198.58 299.917V306H196.809V298.3H199.57L202.001 304.218L204.443 298.3ZM211.549 299.983C213.232 299.983 214.706 300.467 214.706 302.194V306H213.034V305.219C212.781 305.604 211.934 306.165 210.625 306.165C209.25 306.165 208.304 305.593 208.304 304.438C208.304 303.206 208.942 302.216 213.034 302.469V302.194C213.034 301.578 212.759 301.127 211.549 301.127C210.537 301.127 210.218 301.424 210.13 301.831H208.568C208.755 300.533 209.943 299.983 211.549 299.983ZM213.034 304.284V303.459C210.812 303.338 209.987 303.547 209.987 304.383C209.987 304.933 210.394 305.153 211.12 305.153C212.022 305.153 212.726 304.801 213.034 304.284ZM221.733 301.798C222.657 302.007 223.482 302.513 223.482 303.756C223.482 305.362 222.316 306.165 220.424 306.165C219.918 306.165 219.28 306.077 218.906 306V304.867C219.071 304.9 219.599 305.01 220.215 305.01C221.293 305.01 221.876 304.57 221.876 303.69C221.876 302.953 221.425 302.557 220.182 302.557H218.906V301.402H220.083C220.864 301.402 221.271 301.017 221.271 300.368C221.271 299.818 220.842 299.301 219.456 299.301C218.191 299.301 217.586 299.829 217.586 301.138V306H216.024V301.028C216.024 298.806 217.531 298.146 219.489 298.146C221.26 298.146 222.789 298.707 222.789 300.28C222.789 301.105 222.327 301.556 221.733 301.798ZM230.848 303.503H225.645C225.777 304.306 226.338 305.01 227.559 305.01C228.45 305.01 229.022 304.614 229.253 304.119H230.727C230.342 305.582 229.011 306.165 227.559 306.165C225.887 306.165 224.138 305.241 224.138 303.074C224.138 300.907 225.865 299.983 227.548 299.983C229.253 299.983 231.024 301.028 230.848 303.503ZM227.548 301.127C226.503 301.127 225.92 301.699 225.7 302.403H229.319C229.143 301.699 228.648 301.127 227.548 301.127ZM237.053 304.702H240.892V306H234.721V304.812L238.45 301.446H234.93V300.137H240.793V301.325L237.053 304.702ZM244.375 306.165C242.868 306.165 241.988 305.34 241.988 304.02V300.137H243.66V303.602C243.66 304.306 244.067 304.911 245.101 304.911C246.135 304.911 246.597 304.284 246.597 303.602V300.137H248.269V306H246.597V305.175C246.344 305.527 245.629 306.165 244.375 306.165ZM113.665 314.137H115.403L112.73 320H111.091L108.418 314.137H110.156L111.916 318.306L113.665 314.137ZM122.223 317.503H117.02C117.152 318.306 117.713 319.01 118.934 319.01C119.825 319.01 120.397 318.614 120.628 318.119H122.102C121.717 319.582 120.386 320.165 118.934 320.165C117.262 320.165 115.513 319.241 115.513 317.074C115.513 314.907 117.24 313.983 118.923 313.983C120.628 313.983 122.399 315.028 122.223 317.503ZM118.923 315.127C117.878 315.127 117.295 315.699 117.075 316.403H120.694C120.518 315.699 120.023 315.127 118.923 315.127ZM127.094 313.994C127.479 313.994 127.765 314.027 127.963 314.082V315.622H127.908C127.699 315.534 127.303 315.435 126.797 315.435C125.411 315.435 124.905 316.304 124.905 317.217V320H123.233V314.137H124.905V315.215C125.147 314.797 125.84 313.994 127.094 313.994ZM137.322 314.137H139.06L136.695 320H135.166L133.67 316.04L132.185 320H130.645L128.291 314.137H130.029L131.481 318.086L132.966 314.137H134.385L135.87 318.086L137.322 314.137ZM145.877 317.503H140.674C140.806 318.306 141.367 319.01 142.588 319.01C143.479 319.01 144.051 318.614 144.282 318.119H145.756C145.371 319.582 144.04 320.165 142.588 320.165C140.916 320.165 139.167 319.241 139.167 317.074C139.167 314.907 140.894 313.983 142.577 313.983C144.282 313.983 146.053 315.028 145.877 317.503ZM142.577 315.127C141.532 315.127 140.949 315.699 140.729 316.403H144.348C144.172 315.699 143.677 315.127 142.577 315.127ZM150.782 313.983C152.289 313.983 153.169 314.797 153.169 316.117V320H151.497V316.535C151.497 315.831 151.09 315.226 150.056 315.226C149.022 315.226 148.56 315.853 148.56 316.535V320H146.888V314.137H148.56V314.962C148.813 314.61 149.528 313.983 150.782 313.983ZM159.366 312.3H161.038V320H159.366V319.274C158.937 319.824 158.255 320.165 157.265 320.165C155.56 320.165 154.163 319.065 154.163 317.074C154.163 315.083 155.56 313.983 157.265 313.983C158.255 313.983 158.937 314.324 159.366 314.874V312.3ZM157.639 319.01C158.838 319.01 159.575 318.306 159.575 317.074C159.575 315.842 158.838 315.127 157.639 315.127C156.429 315.127 155.736 315.842 155.736 317.074C155.736 318.306 156.429 319.01 157.639 319.01ZM168.736 317.503H163.533C163.665 318.306 164.226 319.01 165.447 319.01C166.338 319.01 166.91 318.614 167.141 318.119H168.615C168.23 319.582 166.899 320.165 165.447 320.165C163.775 320.165 162.026 319.241 162.026 317.074C162.026 314.907 163.753 313.983 165.436 313.983C167.141 313.983 168.912 315.028 168.736 317.503ZM165.436 315.127C164.391 315.127 163.808 315.699 163.588 316.403H167.207C167.031 315.699 166.536 315.127 165.436 315.127ZM173.641 313.983C175.148 313.983 176.028 314.797 176.028 316.117V320H174.356V316.535C174.356 315.831 173.949 315.226 172.915 315.226C171.881 315.226 171.419 315.853 171.419 316.535V320H169.747V314.137H171.419V314.962C171.672 314.61 172.387 313.983 173.641 313.983Z" fill="black"/>
<path d="M205.259 225.342C195.325 225.342 190.279 212.035 189.522 206.107H192.077C192.644 209.135 196.902 223.198 205.102 223.198C220.934 223.198 225.349 216.04 227.178 206.234H229.764C227.21 216.198 223.614 225.342 205.291 225.342H205.259Z" fill="#FBFBFB"/>
<path fill-rule="evenodd" clip-rule="evenodd" d="M164.828 256.56C165.743 252.555 166.626 247.857 167.477 242.686C168.36 237.294 169.243 231.429 170.126 225.343C170.568 222.347 170.978 219.32 171.419 216.262L171.577 215.126C171.798 213.613 172.019 212.068 172.208 210.523V210.239C172.334 209.514 172.46 208.82 172.555 208.095C173.659 200.149 174.826 192.234 176.056 184.855C176.15 184.351 176.213 183.815 176.308 183.31C177.632 175.522 179.02 168.364 180.565 162.468C182.111 168.396 183.53 175.553 184.855 183.373C184.949 183.878 185.012 184.382 185.107 184.855C186.337 192.266 187.504 200.18 188.639 208.095C188.734 208.851 188.828 209.545 188.954 210.27V210.554C189.207 212.036 189.428 213.55 189.617 215.032L189.837 216.608C190.027 217.933 190.216 219.257 190.405 220.581H192.96C192.897 220.14 192.834 219.73 192.771 219.289C192.644 218.28 192.487 217.271 192.361 216.293C191.951 213.455 191.572 210.617 191.131 207.779V207.559C190.121 200.18 189.018 192.802 187.788 185.36C187.661 184.54 187.504 183.752 187.378 182.963C186.242 176.405 185.012 169.72 183.341 163.256V163.224C183.215 162.783 183.12 162.341 182.994 161.9L180.565 152.566L178.137 161.9C178.011 162.341 177.916 162.783 177.79 163.224V163.287C176.245 169.405 175.172 175.68 174.069 181.86C174.006 182.238 173.942 182.617 173.879 182.995C173.753 183.783 173.596 184.603 173.469 185.391C172.208 192.865 171.136 200.243 170.126 207.622V207.842C169.653 210.775 169.243 213.739 168.833 216.671C168.707 217.554 168.581 218.469 168.455 219.352C167.383 227.077 166.279 234.802 164.986 242.402C164.26 247.005 163.409 251.609 162.305 256.087C162.21 256.434 162.147 256.78 162.053 257.127" fill="black"/>
<path fill-rule="evenodd" clip-rule="evenodd" d="M218.411 59.4823C218.411 59.7346 218.379 60.0183 218.348 60.3652C218.032 64.4013 217.307 74.0187 218.537 76.6043C221.344 82.2801 223.52 88.8388 225.444 94.7669C228.25 103.627 230.679 112.709 232.508 121.79C233.107 124.786 233.643 127.907 234.148 131.092C235.031 136.926 235.662 142.948 235.693 148.719C235.693 150.957 235.63 153.133 235.41 155.277C235.315 156.476 235.22 157.642 235.126 158.84C234.432 166.723 233.454 174.543 232.508 182.332C232.067 185.927 231.625 189.521 231.152 193.116C229.985 202.26 228.85 211.436 227.967 220.581H230.584C231.436 211.405 232.729 201.062 234.022 190.499C234.337 187.882 234.684 185.264 235 182.616C235.82 175.868 236.639 169.088 237.302 162.561C237.554 160.165 237.775 157.831 237.964 155.53C238.09 154.016 238.185 152.471 238.216 150.894C238.216 150.201 238.216 149.475 238.216 148.75C238.216 146.196 238.059 143.516 237.838 140.804V140.646C237.775 139.953 237.712 139.259 237.649 138.565C237.649 138.313 237.586 138.029 237.554 137.777C237.554 137.651 237.554 137.525 237.523 137.43C237.302 135.349 237.018 133.236 236.703 131.124C236.419 129.232 236.103 127.308 235.756 125.416C235.504 124.092 235.252 122.768 235 121.443C233.044 111.763 230.427 102.24 227.84 94.1362C225.254 86.0325 222.7 79.4107 220.871 75.5953C220.177 74.0817 220.366 68.0906 220.997 59.8292C221.028 59.2616 221.091 58.694 221.123 58.1264M133.227 249.716V249.653C134.079 245.901 134.205 241.549 134.205 237.64C134.205 232.311 133.732 226.855 133.227 221.527C132.407 211.783 131.177 202.04 129.979 192.296C129.569 188.954 129.127 185.611 128.749 182.269C127.803 174.48 126.825 166.66 126.131 158.777C126.037 157.611 125.91 156.412 125.816 155.214C125.627 153.07 125.532 150.894 125.532 148.656C125.532 142.822 126.163 136.736 127.077 130.871C127.55 127.75 128.15 124.691 128.749 121.727C130.578 112.646 133.006 103.533 135.813 94.7038C137.769 88.7442 139.945 82.2171 142.625 76.5412C144.076 73.7033 143.099 62.7301 142.752 59.4823L140.197 57.9688C140.229 58.5363 140.292 59.1039 140.323 59.64V59.7346C140.954 67.9645 141.143 73.9241 140.449 75.4376V75.5007C138.557 79.3161 136.003 85.9063 133.416 93.947C130.83 102.051 128.244 111.574 126.289 121.254C126.037 122.578 125.784 123.903 125.532 125.196C125.185 127.119 124.87 129.042 124.554 130.966C124.239 133.11 123.955 135.223 123.734 137.304C123.734 137.43 123.734 137.556 123.703 137.682C123.703 137.903 123.64 138.155 123.64 138.376C123.577 139.038 123.514 139.732 123.45 140.394V140.552V140.678C123.23 143.421 123.104 146.101 123.072 148.656C123.072 149.381 123.072 150.106 123.072 150.831C123.104 152.408 123.198 153.953 123.324 155.435C123.514 157.768 123.766 160.133 123.987 162.498C124.649 169.025 125.469 175.805 126.289 182.553C126.604 185.17 126.92 187.787 127.267 190.373C128.654 201.409 129.979 212.225 130.83 221.716C131.366 227.612 131.682 232.973 131.745 237.608C131.776 242.243 131.524 246.122 130.893 249.054V249.117" fill="black"/>
<path d="M236.763 163.476C236.7 167.506 235.906 176.227 234.094 189.55V189.556L234.093 189.557C234.092 189.557 234.093 189.559 234.093 189.561C234.092 189.564 234.091 189.568 234.091 189.574C234.089 189.586 234.087 189.605 234.084 189.629C234.078 189.677 234.069 189.748 234.057 189.842C234.034 190.029 234 190.304 233.956 190.655C233.868 191.357 233.742 192.365 233.589 193.585C233.281 196.026 232.863 199.319 232.422 202.729C231.537 209.565 230.562 216.831 230.188 218.686V218.688C228.855 225.431 226.841 230.157 223.442 233.209C220.052 236.253 215.196 237.709 208.003 237.709C203.729 237.709 200.186 236.414 197.408 233.708C194.793 231.161 192.815 227.325 191.574 222.031L191.336 220.953C189.811 213.643 188.655 204.312 187.238 194.238C185.851 184.38 184.212 173.83 181.737 163.846L236.763 163.476Z" fill="#D3D3D5" stroke="black"/>
<path d="M237.275 162.972C237.275 167.379 236.27 177.342 234.598 189.644L234.597 189.651C234.469 190.713 231.445 215.116 230.693 218.811V218.813C229.267 226.02 227.004 230.864 223.435 233.918C219.883 236.958 214.95 238.297 208.01 238.306L208.003 238.275C203.467 238.275 199.783 236.835 196.927 233.998C194.238 231.328 192.248 227.385 191.007 222.143L190.768 221.077C189.543 215.169 188.536 207.904 187.463 200.143C185.886 188.606 184.053 175.494 181.018 163.387L181.016 163.376L180.998 163.31L237.275 162.907V162.972ZM236.604 163.039L181.76 163.418L181.761 163.934L181.342 164.038C184.299 175.958 186.061 188.766 187.607 200.121V200.122C188.679 207.842 189.69 215.144 190.892 221.028L190.893 221.03C192.071 226.695 194.049 230.977 196.898 233.846C199.76 236.728 203.458 238.141 207.971 238.141C214.803 238.141 219.779 236.895 223.396 233.79C227.008 230.69 229.175 225.81 230.57 218.755V218.754C231.3 215.041 234.426 189.849 234.455 189.615L234.454 189.614C236.062 177.857 237.045 168.215 237.108 163.546L237.115 163.036L236.604 163.039Z" fill="black" stroke="black"/>
<path d="M270.418 205.035H258.371V191.318H261.556V202.607H270.418V205.035Z" fill="#050A0A"/>
<path d="M246.542 157.611H246.006V238.838H246.542V157.611Z" fill="black"/>
<path d="M248.939 238.428H243.609V239.248H248.939V238.428Z" fill="black"/>
<path d="M248.939 157.201H243.609V158.021H248.939V157.201Z" fill="black"/>
<path d="M178.326 158.016L19.2622 158.016" stroke="#1D1D1B" stroke-miterlimit="10" stroke-dasharray="4 4"/>
<path d="M28 163.4C31.42 163.4 32.554 165.398 32.554 167.558C32.554 169.97 31.132 171.734 27.658 171.734H22.654V176H20.44V163.4H28ZM27.658 169.88C29.602 169.88 30.268 168.872 30.268 167.558C30.268 166.136 29.494 165.272 27.622 165.272H22.654V169.88H27.658ZM39.0377 166.136C42.0797 166.136 44.5277 167.936 44.2757 171.914H35.6357C35.8877 173.552 37.0577 174.632 39.0737 174.632C40.9457 174.632 41.7377 173.732 42.0617 173.048H44.0057C43.5197 175.01 41.6477 176.27 39.0737 176.27C36.3377 176.27 33.6377 174.704 33.6377 171.212C33.6377 167.774 36.2837 166.136 39.0377 166.136ZM35.6897 170.294H42.2957C42.0077 168.782 40.9637 167.774 39.0377 167.774C37.2557 167.774 36.0317 168.782 35.6897 170.294ZM52.1658 166.136C52.5978 166.136 52.8498 166.154 53.2278 166.208V168.404H53.1558C52.7778 168.296 52.2918 168.224 51.6798 168.224C49.2498 168.224 48.3318 169.628 48.3318 171.122V176H46.0998V166.406H48.3318V168.206C48.7638 167.504 50.0958 166.136 52.1658 166.136ZM55.0295 176V166.406H57.2435V176H55.0295ZM56.1275 165.074C55.4435 165.074 54.9575 164.678 54.9575 163.994C54.9575 163.31 55.4435 162.914 56.1275 162.914C56.8295 162.914 57.3155 163.31 57.3155 163.994C57.3155 164.678 56.8295 165.074 56.1275 165.074ZM65.644 166.136C68.146 166.136 69.514 167.558 69.514 169.79V176H67.3V170.456C67.3 168.836 66.418 167.936 64.672 167.936C62.926 167.936 61.972 168.944 61.972 170.456V176H59.758V166.406H61.972V167.882C62.422 167.252 63.646 166.136 65.644 166.136ZM76.7076 166.136C79.7496 166.136 82.1976 167.936 81.9456 171.914H73.3056C73.5576 173.552 74.7276 174.632 76.7436 174.632C78.6156 174.632 79.4076 173.732 79.7316 173.048H81.6756C81.1896 175.01 79.3176 176.27 76.7436 176.27C74.0076 176.27 71.3076 174.704 71.3076 171.212C71.3076 167.774 73.9536 166.136 76.7076 166.136ZM73.3596 170.294H79.9656C79.6776 168.782 78.6336 167.774 76.7076 167.774C74.9256 167.774 73.7016 168.782 73.3596 170.294ZM91.3118 166.406H93.5258V176H91.3118V174.524C90.8618 175.154 89.6378 176.27 87.6398 176.27C85.1378 176.27 83.7698 174.848 83.7698 172.616V166.406H85.9838V171.95C85.9838 173.57 86.8658 174.47 88.6118 174.47C90.3578 174.47 91.3118 173.462 91.3118 171.95V166.406ZM108.279 166.136C110.781 166.136 111.987 167.558 111.987 169.79V176H109.755V170.456C109.755 168.836 109.161 167.936 107.469 167.936C105.795 167.936 105.111 169.016 105.111 170.456V176H102.897V170.456C102.897 168.836 102.285 167.936 100.611 167.936C98.9373 167.936 98.2533 169.016 98.2533 170.456V176H96.0393V166.406H98.2533V167.81C98.6133 167.18 99.5313 166.136 101.403 166.136C103.059 166.136 104.139 166.748 104.679 167.81C105.165 167.162 106.353 166.136 108.279 166.136Z" fill="black"/>
</svg>
