<svg width="285" height="332" viewBox="0 0 285 332" fill="none" xmlns="http://www.w3.org/2000/svg">
<rect width="285" height="332" rx="10" fill="black"/>
<path d="M241.72 162V163.168H238.359V232H241.72V233.168H234V232H237.359V163.168H234V162H241.72Z" fill="white"/>
<path d="M276 207H259V188H263.495V203.637H276V207Z" fill="white"/>
<path d="M245 162H253V233H245" stroke="white" stroke-miterlimit="10" stroke-dasharray="4 4"/>
<path d="M200.245 223.295C190.565 223.295 185.648 210.39 184.91 204.641H187.399C187.953 207.576 192.101 221.216 200.092 221.216C215.519 221.216 219.822 214.274 221.604 204.763H224.124C221.635 214.427 218.131 223.295 200.276 223.295H200.245Z" fill="white"/>
<path fill-rule="evenodd" clip-rule="evenodd" d="M160.847 253.569C161.738 249.685 162.599 245.128 163.428 240.113C164.289 234.883 165.149 229.195 166.01 223.293C166.44 220.388 166.84 217.452 167.27 214.486L167.424 213.385C167.639 211.917 167.854 210.418 168.038 208.92V208.645C168.161 207.941 168.284 207.268 168.376 206.565C169.452 198.858 170.589 191.182 171.788 184.026C171.88 183.537 171.941 183.017 172.033 182.528C173.324 174.974 174.676 168.032 176.182 162.314C177.688 168.063 179.071 175.005 180.362 182.589C180.454 183.078 180.516 183.568 180.608 184.026C181.806 191.213 182.943 198.889 184.05 206.565C184.142 207.299 184.234 207.972 184.357 208.675V208.95C184.603 210.388 184.818 211.856 185.002 213.293L185.218 214.822C185.402 216.106 185.586 217.391 185.771 218.675H188.26C188.199 218.247 188.137 217.85 188.076 217.421C187.953 216.443 187.799 215.464 187.676 214.516C187.277 211.764 186.908 209.012 186.478 206.259V206.045C185.494 198.889 184.418 191.733 183.22 184.516C183.097 183.721 182.943 182.956 182.82 182.192C181.714 175.831 180.516 169.347 178.887 163.078V163.047C178.764 162.619 178.672 162.191 178.549 161.763L176.182 152.711L173.816 161.763C173.693 162.191 173.601 162.619 173.478 163.047V163.109C171.972 169.041 170.927 175.127 169.851 181.121C169.79 181.488 169.729 181.855 169.667 182.222C169.544 182.987 169.391 183.782 169.268 184.546C168.038 191.794 166.993 198.95 166.01 206.106V206.32C165.549 209.164 165.149 212.039 164.75 214.883C164.627 215.739 164.504 216.626 164.381 217.483C163.336 224.975 162.261 232.468 161.001 239.838C160.294 244.303 159.464 248.768 158.388 253.11C158.296 253.446 158.235 253.783 158.143 254.119" fill="white"/>
<path fill-rule="evenodd" clip-rule="evenodd" d="M213.061 62.4367C213.061 62.6813 213.03 62.9565 213 63.2929C212.692 67.2074 211.986 76.5347 213.184 79.0424C215.919 84.5471 218.04 90.9081 219.914 96.6574C222.65 105.251 225.016 114.058 226.798 122.866C227.382 125.771 227.905 128.799 228.396 131.887C229.257 137.545 229.872 143.386 229.902 148.982C229.902 151.154 229.841 153.264 229.626 155.343C229.534 156.505 229.441 157.637 229.349 158.799C228.673 166.444 227.72 174.029 226.798 181.582C226.368 185.069 225.938 188.555 225.477 192.041C224.34 200.91 223.233 209.809 222.373 218.678H224.924C225.754 209.778 227.014 199.748 228.274 189.503C228.581 186.965 228.919 184.426 229.226 181.858C230.025 175.313 230.824 168.738 231.47 162.408C231.716 160.083 231.931 157.82 232.115 155.588C232.238 154.12 232.33 152.622 232.361 151.093C232.361 150.42 232.361 149.716 232.361 149.013C232.361 146.536 232.207 143.936 231.992 141.306V141.154C231.931 140.481 231.869 139.808 231.808 139.135C231.808 138.89 231.746 138.615 231.716 138.371C231.716 138.248 231.716 138.126 231.685 138.034C231.47 136.016 231.193 133.967 230.886 131.918C230.609 130.083 230.302 128.218 229.964 126.383C229.718 125.098 229.472 123.814 229.226 122.529C227.321 113.141 224.77 103.905 222.25 96.0458C219.73 88.1863 217.241 81.7642 215.458 78.0638C214.782 76.5959 214.967 70.7854 215.581 62.7731C215.612 62.2226 215.673 61.6721 215.704 61.1217M130.054 246.935V246.874C130.884 243.235 131.007 239.014 131.007 235.222C131.007 230.054 130.546 224.763 130.054 219.595C129.255 210.145 128.056 200.696 126.889 191.246C126.489 188.004 126.059 184.763 125.69 181.521C124.768 173.967 123.815 166.383 123.139 158.738C123.047 157.606 122.924 156.444 122.832 155.282C122.648 153.203 122.555 151.093 122.555 148.921C122.555 143.264 123.17 137.361 124.061 131.673C124.522 128.646 125.106 125.679 125.69 122.805C127.472 113.997 129.839 105.159 132.574 96.5962C134.479 90.8163 136.6 84.4859 139.212 78.9813C140.626 76.2289 139.673 65.5866 139.335 62.4367L136.846 60.9688C136.876 61.5192 136.938 62.0697 136.969 62.5896V62.6813C137.583 70.6631 137.768 76.443 137.092 77.9109V77.9721C135.248 81.6724 132.758 88.064 130.238 95.8623C127.718 103.722 125.198 112.957 123.293 122.346C123.047 123.63 122.801 124.915 122.555 126.169C122.217 128.034 121.91 129.9 121.603 131.765C121.295 133.845 121.019 135.893 120.804 137.912C120.804 138.034 120.804 138.157 120.773 138.279C120.773 138.493 120.711 138.738 120.711 138.952C120.65 139.594 120.588 140.267 120.527 140.909V141.062V141.184C120.312 143.845 120.189 146.444 120.158 148.921C120.158 149.625 120.158 150.328 120.158 151.031C120.189 152.56 120.281 154.059 120.404 155.496C120.588 157.759 120.834 160.053 121.049 162.347C121.695 168.677 122.494 175.252 123.293 181.796C123.6 184.335 123.908 186.873 124.246 189.381C125.598 200.084 126.889 210.574 127.718 219.779C128.241 225.497 128.548 230.696 128.61 235.192C128.64 239.687 128.394 243.449 127.78 246.293V246.354" fill="white"/>
<path d="M176.705 163.172C181.684 182.836 183.22 204.915 186.201 219.136C188.598 230.604 194.376 235.772 202.92 235.772C217.056 235.772 222.404 230.084 225.016 216.934C225.753 213.295 228.827 188.646 228.827 188.646C230.671 175.16 231.439 166.505 231.439 162.805L176.736 163.172H176.705Z" fill="#2D2D2D"/>
<path d="M202.92 236.326C193.854 236.326 188.045 230.577 185.648 219.262C184.45 213.512 183.466 206.448 182.421 198.925C180.885 187.732 179.102 175.041 176.152 163.328L175.968 162.655L231.931 162.258V162.808C231.931 167.12 230.947 176.815 229.319 188.741C229.196 189.751 226.245 213.451 225.508 217.06C222.711 231.127 216.565 236.357 202.858 236.357L202.92 236.326ZM177.412 163.726C180.301 175.316 182.022 187.763 183.528 198.772C184.573 206.265 185.556 213.329 186.724 219.017C188.998 229.904 194.315 235.225 202.889 235.225C216.104 235.225 221.728 230.424 224.432 216.815C225.139 213.237 228.182 188.833 228.212 188.589C229.78 177.182 230.732 167.854 230.794 163.359L177.351 163.726H177.412Z" fill="white"/>
<path d="M173.785 157.703H9" stroke="white" stroke-miterlimit="10" stroke-dasharray="1.18 1.18 1.18 1.18 1.18 1.18 1.18 1.18"/>
<rect width="285" height="332" rx="10" fill="black"/>
<path d="M241.72 162V163.168H238.359V232H241.72V233.168H234V232H237.359V163.168H234V162H241.72Z" fill="white"/>
<path d="M276 207H259V188H263.495V203.637H276V207Z" fill="white"/>
<path d="M245 162H253V233H245" stroke="white" stroke-miterlimit="10" stroke-dasharray="4 4"/>
<path d="M200.245 223.295C190.565 223.295 185.648 210.39 184.91 204.641H187.399C187.953 207.576 192.101 221.216 200.092 221.216C215.519 221.216 219.822 214.274 221.604 204.763H224.124C221.635 214.427 218.131 223.295 200.276 223.295H200.245Z" fill="white"/>
<path fill-rule="evenodd" clip-rule="evenodd" d="M160.847 253.569C161.738 249.685 162.599 245.128 163.428 240.113C164.289 234.883 165.149 229.195 166.01 223.293C166.44 220.388 166.84 217.452 167.27 214.486L167.424 213.385C167.639 211.917 167.854 210.418 168.038 208.92V208.645C168.161 207.941 168.284 207.268 168.376 206.565C169.452 198.858 170.589 191.182 171.788 184.026C171.88 183.537 171.941 183.017 172.033 182.528C173.324 174.974 174.676 168.032 176.182 162.314C177.688 168.063 179.071 175.005 180.362 182.589C180.454 183.078 180.516 183.568 180.608 184.026C181.806 191.213 182.943 198.889 184.05 206.565C184.142 207.299 184.234 207.972 184.357 208.675V208.95C184.603 210.388 184.818 211.856 185.002 213.293L185.218 214.822C185.402 216.106 185.586 217.391 185.771 218.675H188.26C188.199 218.247 188.137 217.85 188.076 217.421C187.953 216.443 187.799 215.464 187.676 214.516C187.277 211.764 186.908 209.012 186.478 206.259V206.045C185.494 198.889 184.418 191.733 183.22 184.516C183.097 183.721 182.943 182.956 182.82 182.192C181.714 175.831 180.516 169.347 178.887 163.078V163.047C178.764 162.619 178.672 162.191 178.549 161.763L176.182 152.711L173.816 161.763C173.693 162.191 173.601 162.619 173.478 163.047V163.109C171.972 169.041 170.927 175.127 169.851 181.121C169.79 181.488 169.729 181.855 169.667 182.222C169.544 182.987 169.391 183.782 169.268 184.546C168.038 191.794 166.993 198.95 166.01 206.106V206.32C165.549 209.164 165.149 212.039 164.75 214.883C164.627 215.739 164.504 216.626 164.381 217.483C163.336 224.975 162.261 232.468 161.001 239.838C160.294 244.303 159.464 248.768 158.388 253.11C158.296 253.446 158.235 253.783 158.143 254.119" fill="white"/>
<path fill-rule="evenodd" clip-rule="evenodd" d="M213.061 62.4367C213.061 62.6813 213.03 62.9565 213 63.2929C212.692 67.2074 211.986 76.5347 213.184 79.0424C215.919 84.5471 218.04 90.9081 219.914 96.6574C222.65 105.251 225.016 114.058 226.798 122.866C227.382 125.771 227.905 128.799 228.396 131.887C229.257 137.545 229.872 143.386 229.902 148.982C229.902 151.154 229.841 153.264 229.626 155.343C229.534 156.505 229.441 157.637 229.349 158.799C228.673 166.444 227.72 174.029 226.798 181.582C226.368 185.069 225.938 188.555 225.477 192.041C224.34 200.91 223.233 209.809 222.373 218.678H224.924C225.754 209.778 227.014 199.748 228.274 189.503C228.581 186.965 228.919 184.426 229.226 181.858C230.025 175.313 230.824 168.738 231.47 162.408C231.716 160.083 231.931 157.82 232.115 155.588C232.238 154.12 232.33 152.622 232.361 151.093C232.361 150.42 232.361 149.716 232.361 149.013C232.361 146.536 232.207 143.936 231.992 141.306V141.154C231.931 140.481 231.869 139.808 231.808 139.135C231.808 138.89 231.746 138.615 231.716 138.371C231.716 138.248 231.716 138.126 231.685 138.034C231.47 136.016 231.193 133.967 230.886 131.918C230.609 130.083 230.302 128.218 229.964 126.383C229.718 125.098 229.472 123.814 229.226 122.529C227.321 113.141 224.77 103.905 222.25 96.0458C219.73 88.1863 217.241 81.7642 215.458 78.0638C214.782 76.5959 214.967 70.7854 215.581 62.7731C215.612 62.2226 215.673 61.6721 215.704 61.1217M130.054 246.935V246.874C130.884 243.235 131.007 239.014 131.007 235.222C131.007 230.054 130.546 224.763 130.054 219.595C129.255 210.145 128.056 200.696 126.889 191.246C126.489 188.004 126.059 184.763 125.69 181.521C124.768 173.967 123.815 166.383 123.139 158.738C123.047 157.606 122.924 156.444 122.832 155.282C122.648 153.203 122.555 151.093 122.555 148.921C122.555 143.264 123.17 137.361 124.061 131.673C124.522 128.646 125.106 125.679 125.69 122.805C127.472 113.997 129.839 105.159 132.574 96.5962C134.479 90.8163 136.6 84.4859 139.212 78.9813C140.626 76.2289 139.673 65.5866 139.335 62.4367L136.846 60.9688C136.876 61.5192 136.938 62.0697 136.969 62.5896V62.6813C137.583 70.6631 137.768 76.443 137.092 77.9109V77.9721C135.248 81.6724 132.758 88.064 130.238 95.8623C127.718 103.722 125.198 112.957 123.293 122.346C123.047 123.63 122.801 124.915 122.555 126.169C122.217 128.034 121.91 129.9 121.603 131.765C121.295 133.845 121.019 135.893 120.804 137.912C120.804 138.034 120.804 138.157 120.773 138.279C120.773 138.493 120.711 138.738 120.711 138.952C120.65 139.594 120.588 140.267 120.527 140.909V141.062V141.184C120.312 143.845 120.189 146.444 120.158 148.921C120.158 149.625 120.158 150.328 120.158 151.031C120.189 152.56 120.281 154.059 120.404 155.496C120.588 157.759 120.834 160.053 121.049 162.347C121.695 168.677 122.494 175.252 123.293 181.796C123.6 184.335 123.908 186.873 124.246 189.381C125.598 200.084 126.889 210.574 127.718 219.779C128.241 225.497 128.548 230.696 128.61 235.192C128.64 239.687 128.394 243.449 127.78 246.293V246.354" fill="white"/>
<path d="M176.705 163.172C181.684 182.836 183.22 204.915 186.201 219.136C188.598 230.604 194.376 235.772 202.92 235.772C217.056 235.772 222.404 230.084 225.016 216.934C225.753 213.295 228.827 188.646 228.827 188.646C230.671 175.16 231.439 166.505 231.439 162.805L176.736 163.172H176.705Z" fill="#2D2D2D"/>
<path d="M202.92 236.326C193.854 236.326 188.045 230.577 185.648 219.262C184.45 213.512 183.466 206.448 182.421 198.925C180.885 187.732 179.102 175.041 176.152 163.328L175.968 162.655L231.931 162.258V162.808C231.931 167.12 230.947 176.815 229.319 188.741C229.196 189.751 226.245 213.451 225.508 217.06C222.711 231.127 216.565 236.357 202.858 236.357L202.92 236.326ZM177.412 163.726C180.301 175.316 182.022 187.763 183.528 198.772C184.573 206.265 185.556 213.329 186.724 219.017C188.998 229.904 194.315 235.225 202.889 235.225C216.104 235.225 221.728 230.424 224.432 216.815C225.139 213.237 228.182 188.833 228.212 188.589C229.78 177.182 230.732 167.854 230.794 163.359L177.351 163.726H177.412Z" fill="white"/>
<path d="M173.785 157.703H9" stroke="white" stroke-miterlimit="10" stroke-dasharray="1.18 1.18 1.18 1.18 1.18 1.18 1.18 1.18"/>
<path d="M18 163.4C21.42 163.4 22.554 165.398 22.554 167.558C22.554 169.97 21.132 171.734 17.658 171.734H12.654V176H10.44V163.4H18ZM17.658 169.88C19.602 169.88 20.268 168.872 20.268 167.558C20.268 166.136 19.494 165.272 17.622 165.272H12.654V169.88H17.658ZM29.0377 166.136C32.0797 166.136 34.5277 167.936 34.2757 171.914H25.6357C25.8877 173.552 27.0577 174.632 29.0737 174.632C30.9457 174.632 31.7377 173.732 32.0617 173.048H34.0057C33.5197 175.01 31.6477 176.27 29.0737 176.27C26.3377 176.27 23.6377 174.704 23.6377 171.212C23.6377 167.774 26.2837 166.136 29.0377 166.136ZM25.6897 170.294H32.2957C32.0077 168.782 30.9637 167.774 29.0377 167.774C27.2557 167.774 26.0317 168.782 25.6897 170.294ZM42.1658 166.136C42.5978 166.136 42.8498 166.154 43.2278 166.208V168.404H43.1558C42.7778 168.296 42.2918 168.224 41.6798 168.224C39.2498 168.224 38.3318 169.628 38.3318 171.122V176H36.0998V166.406H38.3318V168.206C38.7638 167.504 40.0958 166.136 42.1658 166.136ZM45.0295 176V166.406H47.2435V176H45.0295ZM46.1275 165.074C45.4435 165.074 44.9575 164.678 44.9575 163.994C44.9575 163.31 45.4435 162.914 46.1275 162.914C46.8295 162.914 47.3155 163.31 47.3155 163.994C47.3155 164.678 46.8295 165.074 46.1275 165.074ZM55.644 166.136C58.146 166.136 59.514 167.558 59.514 169.79V176H57.3V170.456C57.3 168.836 56.418 167.936 54.672 167.936C52.926 167.936 51.972 168.944 51.972 170.456V176H49.758V166.406H51.972V167.882C52.422 167.252 53.646 166.136 55.644 166.136ZM66.7076 166.136C69.7496 166.136 72.1976 167.936 71.9456 171.914H63.3056C63.5576 173.552 64.7276 174.632 66.7436 174.632C68.6156 174.632 69.4076 173.732 69.7316 173.048H71.6756C71.1896 175.01 69.3176 176.27 66.7436 176.27C64.0076 176.27 61.3076 174.704 61.3076 171.212C61.3076 167.774 63.9536 166.136 66.7076 166.136ZM63.3596 170.294H69.9656C69.6776 168.782 68.6336 167.774 66.7076 167.774C64.9256 167.774 63.7016 168.782 63.3596 170.294ZM78.5398 166.136C81.3478 166.136 84.0478 167.666 84.0478 171.212C84.0478 174.758 81.3478 176.27 78.5398 176.27C75.7318 176.27 73.0498 174.758 73.0498 171.212C73.0498 167.666 75.7318 166.136 78.5398 166.136ZM78.5398 174.632C81.1138 174.632 81.9958 172.886 81.9958 171.212C81.9958 169.52 81.1138 167.774 78.5398 167.774C75.9658 167.774 75.0838 169.52 75.0838 171.212C75.0838 172.886 75.9658 174.632 78.5398 174.632Z" fill="white"/>
<path d="M30.2549 314L29.5449 312.44H25.5349L24.8349 314H23.5049L26.7449 307H28.3449L31.5849 314H30.2549ZM26.0049 311.4H29.0849L27.5449 307.97L26.0049 311.4ZM35.0911 310.88C36.6011 311.14 37.4511 311.34 37.4511 312.39C37.4511 313.63 36.4211 314.15 34.6411 314.15C33.0211 314.15 31.7811 313.59 31.7811 312.38H33.0511C33.0511 312.96 33.6211 313.22 34.7411 313.22C35.8311 313.22 36.2211 312.95 36.2211 312.55C36.2211 311.96 35.3311 311.95 33.9711 311.7C32.5911 311.44 31.9811 311.12 31.9811 310.17C31.9811 309.1 32.9811 308.52 34.5511 308.52C36.2611 308.52 37.1811 309.2 37.1811 310.19H36.0311C36.0311 309.85 35.6711 309.43 34.5311 309.43C33.4611 309.43 33.0911 309.7 33.0911 310.11C33.0911 310.65 34.1411 310.72 35.0911 310.88ZM41.0529 308.52C42.7429 308.52 44.1029 309.52 43.9629 311.73H39.1629C39.3029 312.64 39.9529 313.24 41.0729 313.24C42.1129 313.24 42.5529 312.74 42.7329 312.36H43.8129C43.5429 313.45 42.5029 314.15 41.0729 314.15C39.5529 314.15 38.0529 313.28 38.0529 311.34C38.0529 309.43 39.5229 308.52 41.0529 308.52ZM39.1929 310.83H42.8629C42.7029 309.99 42.1229 309.43 41.0529 309.43C40.0629 309.43 39.3829 309.99 39.1929 310.83ZM49.3064 308.67H50.5364V313.49C50.5364 315.55 48.9664 315.86 47.4364 315.86C45.7664 315.86 44.7664 315.27 44.6564 314.26H45.7964C45.8764 314.58 46.2764 314.93 47.4364 314.93C48.9264 314.93 49.3064 314.45 49.3064 313.49V312.9C48.9164 313.37 48.2864 313.67 47.3464 313.67C45.7964 313.67 44.5764 312.9 44.5764 311.15C44.5764 309.39 45.7964 308.52 47.3464 308.52C48.2864 308.52 48.9164 308.87 49.3064 309.39V308.67ZM47.5864 312.87C48.7364 312.87 49.4964 312.25 49.4964 311.15C49.4964 310.04 48.7564 309.43 47.5864 309.43C46.4264 309.43 45.7164 310.02 45.7164 311.15C45.7164 312.27 46.4364 312.87 47.5864 312.87ZM56.1293 308.67H57.3593V314H56.1293V313.18C55.8793 313.53 55.1993 314.15 54.0893 314.15C52.6993 314.15 51.9393 313.36 51.9393 312.12V308.67H53.1693V311.75C53.1693 312.65 53.6593 313.15 54.6293 313.15C55.5993 313.15 56.1293 312.59 56.1293 311.75V308.67ZM54.9693 306.65H56.2693L55.0293 307.94H54.2293L54.9693 306.65ZM62.1257 308.52C62.3657 308.52 62.5057 308.53 62.7157 308.56V309.78H62.6757C62.4657 309.72 62.1957 309.68 61.8557 309.68C60.5057 309.68 59.9957 310.46 59.9957 311.29V314H58.7557V308.67H59.9957V309.67C60.2357 309.28 60.9757 308.52 62.1257 308.52ZM65.9113 308.52C67.3813 308.52 68.6313 309.01 68.6313 310.54V314H67.4013V313.31C67.1413 313.61 66.5013 314.15 65.2513 314.15C63.9713 314.15 63.1213 313.62 63.1213 312.6C63.1213 311.5 63.7213 310.63 67.4013 310.87V310.54C67.4013 309.8 67.0213 309.43 65.9113 309.43C64.9613 309.43 64.5713 309.74 64.4813 310.19H63.3313C63.4913 309.07 64.5313 308.52 65.9113 308.52ZM67.4013 312.5V311.61C65.1813 311.5 64.3813 311.69 64.3813 312.52C64.3813 313.06 64.8013 313.33 65.5113 313.33C66.4513 313.33 67.0713 312.98 67.4013 312.5ZM73.3196 309.61H71.7096V312.01C71.7096 312.91 72.0696 313.16 73.3196 313.03V313.99C73.1396 314.04 72.8696 314.08 72.6196 314.08C70.9996 314.08 70.4796 313.42 70.4796 312.01V309.61H69.4396V308.67H70.4796V307.29H71.7096V308.67H73.3196V309.61ZM77.0197 308.52C78.7097 308.52 80.0697 309.52 79.9297 311.73H75.1297C75.2697 312.64 75.9197 313.24 77.0397 313.24C78.0797 313.24 78.5197 312.74 78.6997 312.36H79.7797C79.5097 313.45 78.4697 314.15 77.0397 314.15C75.5197 314.15 74.0197 313.28 74.0197 311.34C74.0197 309.43 75.4897 308.52 77.0197 308.52ZM75.1597 310.83H78.8297C78.6697 309.99 78.0897 309.43 77.0197 309.43C76.0297 309.43 75.3497 309.99 75.1597 310.83ZM88.1636 307H89.3936V314H88.1636V313.3C87.7436 313.81 87.1036 314.15 86.2136 314.15C84.6536 314.15 83.4436 313.14 83.4436 311.34C83.4436 309.53 84.6536 308.52 86.2136 308.52C87.1036 308.52 87.7436 308.86 88.1636 309.37V307ZM86.4536 313.24C87.7236 313.24 88.3536 312.44 88.3536 311.34C88.3536 310.23 87.7436 309.43 86.4536 309.43C85.1536 309.43 84.5836 310.21 84.5836 311.34C84.5836 312.46 85.1736 313.24 86.4536 313.24ZM93.3967 308.52C95.0867 308.52 96.4467 309.52 96.3067 311.73H91.5067C91.6467 312.64 92.2967 313.24 93.4167 313.24C94.4567 313.24 94.8967 312.74 95.0767 312.36H96.1567C95.8867 313.45 94.8467 314.15 93.4167 314.15C91.8967 314.15 90.3967 313.28 90.3967 311.34C90.3967 309.43 91.8667 308.52 93.3967 308.52ZM91.5367 310.83H95.2067C95.0467 309.99 94.4667 309.43 93.3967 309.43C92.4067 309.43 91.7267 309.99 91.5367 310.83ZM107.021 308.52C108.411 308.52 109.081 309.31 109.081 310.55V314H107.841V310.92C107.841 310.02 107.511 309.52 106.571 309.52C105.641 309.52 105.261 310.12 105.261 310.92V314H104.031V310.92C104.031 310.02 103.691 309.52 102.761 309.52C101.831 309.52 101.451 310.12 101.451 310.92V314H100.221V308.67H101.451V309.45C101.651 309.1 102.161 308.52 103.201 308.52C104.121 308.52 104.721 308.86 105.021 309.45C105.291 309.09 105.951 308.52 107.021 308.52ZM113.084 308.52C114.774 308.52 116.134 309.52 115.994 311.73H111.194C111.334 312.64 111.984 313.24 113.104 313.24C114.144 313.24 114.584 312.74 114.764 312.36H115.844C115.574 313.45 114.534 314.15 113.104 314.15C111.584 314.15 110.084 313.28 110.084 311.34C110.084 309.43 111.554 308.52 113.084 308.52ZM111.224 310.83H114.894C114.734 309.99 114.154 309.43 113.084 309.43C112.094 309.43 111.414 309.99 111.224 310.83ZM121.328 307H122.558V314H121.328V313.3C120.908 313.81 120.268 314.15 119.378 314.15C117.818 314.15 116.608 313.14 116.608 311.34C116.608 309.53 117.818 308.52 119.378 308.52C120.268 308.52 120.908 308.86 121.328 309.37V307ZM119.618 313.24C120.888 313.24 121.518 312.44 121.518 311.34C121.518 310.23 120.908 309.43 119.618 309.43C118.318 309.43 117.748 310.21 117.748 311.34C117.748 312.46 118.338 313.24 119.618 313.24ZM123.961 314V308.67H125.191V314H123.961ZM124.571 307.93C124.191 307.93 123.921 307.71 123.921 307.33C123.921 306.95 124.191 306.73 124.571 306.73C124.961 306.73 125.231 306.95 125.231 307.33C125.231 307.71 124.961 307.93 124.571 307.93ZM129.958 308.52C130.198 308.52 130.338 308.53 130.548 308.56V309.78H130.508C130.298 309.72 130.028 309.68 129.688 309.68C128.338 309.68 127.828 310.46 127.828 311.29V314H126.588V308.67H127.828V309.67C128.068 309.28 128.808 308.52 129.958 308.52ZM134.449 306.62H135.679V314H134.449V306.62ZM139.466 308.52C140.936 308.52 142.186 309.01 142.186 310.54V314H140.956V313.31C140.696 313.61 140.056 314.15 138.806 314.15C137.526 314.15 136.676 313.62 136.676 312.6C136.676 311.5 137.276 310.63 140.956 310.87V310.54C140.956 309.8 140.576 309.43 139.466 309.43C138.516 309.43 138.126 309.74 138.036 310.19H136.886C137.046 309.07 138.086 308.52 139.466 308.52ZM140.956 312.5V311.61C138.736 311.5 137.936 311.69 137.936 312.52C137.936 313.06 138.356 313.33 139.066 313.33C140.006 313.33 140.626 312.98 140.956 312.5ZM146.4 310.88C147.91 311.14 148.76 311.34 148.76 312.39C148.76 313.63 147.73 314.15 145.95 314.15C144.33 314.15 143.09 313.59 143.09 312.38H144.36C144.36 312.96 144.93 313.22 146.05 313.22C147.14 313.22 147.53 312.95 147.53 312.55C147.53 311.96 146.64 311.95 145.28 311.7C143.9 311.44 143.29 311.12 143.29 310.17C143.29 309.1 144.29 308.52 145.86 308.52C147.57 308.52 148.49 309.2 148.49 310.19H147.34C147.34 309.85 146.98 309.43 145.84 309.43C144.77 309.43 144.4 309.7 144.4 310.11C144.4 310.65 145.45 310.72 146.4 310.88ZM156.982 307H158.212V314H156.982V313.3C156.562 313.81 155.922 314.15 155.032 314.15C153.472 314.15 152.262 313.14 152.262 311.34C152.262 309.53 153.472 308.52 155.032 308.52C155.922 308.52 156.562 308.86 156.982 309.37V307ZM155.272 313.24C156.542 313.24 157.172 312.44 157.172 311.34C157.172 310.23 156.562 309.43 155.272 309.43C153.972 309.43 153.402 310.21 153.402 311.34C153.402 312.46 153.992 313.24 155.272 313.24ZM159.615 314V308.67H160.845V314H159.615ZM160.225 307.93C159.845 307.93 159.575 307.71 159.575 307.33C159.575 306.95 159.845 306.73 160.225 306.73C160.615 306.73 160.885 306.95 160.885 307.33C160.885 307.71 160.615 307.93 160.225 307.93ZM169.042 308.52C170.432 308.52 171.102 309.31 171.102 310.55V314H169.862V310.92C169.862 310.02 169.532 309.52 168.592 309.52C167.662 309.52 167.282 310.12 167.282 310.92V314H166.052V310.92C166.052 310.02 165.712 309.52 164.782 309.52C163.852 309.52 163.472 310.12 163.472 310.92V314H162.242V308.67H163.472V309.45C163.672 309.1 164.182 308.52 165.222 308.52C166.142 308.52 166.742 308.86 167.042 309.45C167.312 309.09 167.972 308.52 169.042 308.52ZM175.106 308.52C176.796 308.52 178.156 309.52 178.016 311.73H173.216C173.356 312.64 174.006 313.24 175.126 313.24C176.166 313.24 176.606 312.74 176.786 312.36H177.866C177.596 313.45 176.556 314.15 175.126 314.15C173.606 314.15 172.106 313.28 172.106 311.34C172.106 309.43 173.576 308.52 175.106 308.52ZM173.246 310.83H176.916C176.756 309.99 176.176 309.43 175.106 309.43C174.116 309.43 173.436 309.99 173.246 310.83ZM182.299 308.52C183.689 308.52 184.449 309.31 184.449 310.55V314H183.219V310.92C183.219 310.02 182.729 309.52 181.759 309.52C180.789 309.52 180.259 310.08 180.259 310.92V314H179.029V308.67H180.259V309.49C180.509 309.14 181.189 308.52 182.299 308.52ZM188.656 310.88C190.166 311.14 191.016 311.34 191.016 312.39C191.016 313.63 189.986 314.15 188.206 314.15C186.586 314.15 185.346 313.59 185.346 312.38H186.616C186.616 312.96 187.186 313.22 188.306 313.22C189.396 313.22 189.786 312.95 189.786 312.55C189.786 311.96 188.896 311.95 187.536 311.7C186.156 311.44 185.546 311.12 185.546 310.17C185.546 309.1 186.546 308.52 188.116 308.52C189.826 308.52 190.746 309.2 190.746 310.19H189.596C189.596 309.85 189.236 309.43 188.096 309.43C187.026 309.43 186.656 309.7 186.656 310.11C186.656 310.65 187.706 310.72 188.656 310.88ZM192.017 314V308.67H193.247V314H192.017ZM192.627 307.93C192.247 307.93 191.977 307.71 191.977 307.33C191.977 306.95 192.247 306.73 192.627 306.73C193.017 306.73 193.287 306.95 193.287 307.33C193.287 307.71 193.017 307.93 192.627 307.93ZM197.294 308.52C198.854 308.52 200.354 309.37 200.354 311.34C200.354 313.31 198.854 314.15 197.294 314.15C195.734 314.15 194.244 313.31 194.244 311.34C194.244 309.37 195.734 308.52 197.294 308.52ZM197.294 313.24C198.724 313.24 199.214 312.27 199.214 311.34C199.214 310.4 198.724 309.43 197.294 309.43C195.864 309.43 195.374 310.4 195.374 311.34C195.374 312.27 195.864 313.24 197.294 313.24ZM204.623 308.52C206.013 308.52 206.773 309.31 206.773 310.55V314H205.543V310.92C205.543 310.02 205.053 309.52 204.083 309.52C203.113 309.52 202.583 310.08 202.583 310.92V314H201.353V308.67H202.583V309.49C202.833 309.14 203.513 308.52 204.623 308.52ZM210.77 308.52C212.46 308.52 213.82 309.52 213.68 311.73H208.88C209.02 312.64 209.67 313.24 210.79 313.24C211.83 313.24 212.27 312.74 212.45 312.36H213.53C213.26 313.45 212.22 314.15 210.79 314.15C209.27 314.15 207.77 313.28 207.77 311.34C207.77 309.43 209.24 308.52 210.77 308.52ZM208.91 310.83H212.58C212.42 309.99 211.84 309.43 210.77 309.43C209.78 309.43 209.1 309.99 208.91 310.83ZM217.503 310.88C219.013 311.14 219.863 311.34 219.863 312.39C219.863 313.63 218.833 314.15 217.053 314.15C215.433 314.15 214.193 313.59 214.193 312.38H215.463C215.463 312.96 216.033 313.22 217.153 313.22C218.243 313.22 218.633 312.95 218.633 312.55C218.633 311.96 217.743 311.95 216.383 311.7C215.003 311.44 214.393 311.12 214.393 310.17C214.393 309.1 215.393 308.52 216.963 308.52C218.673 308.52 219.593 309.2 219.593 310.19H218.443C218.443 309.85 218.083 309.43 216.943 309.43C215.873 309.43 215.503 309.7 215.503 310.11C215.503 310.65 216.553 310.72 217.503 310.88ZM223.765 306.62H224.995V314H223.765V306.62ZM226.392 314V308.67H227.622V314H226.392ZM227.002 307.93C226.622 307.93 226.352 307.71 226.352 307.33C226.352 306.95 226.622 306.73 227.002 306.73C227.392 306.73 227.662 306.95 227.662 307.33C227.662 307.71 227.392 307.93 227.002 307.93ZM232.289 308.52C233.679 308.52 234.439 309.31 234.439 310.55V314H233.209V310.92C233.209 310.02 232.719 309.52 231.749 309.52C230.779 309.52 230.249 310.08 230.249 310.92V314H229.019V308.67H230.249V309.49C230.499 309.14 231.179 308.52 232.289 308.52ZM238.436 308.52C240.126 308.52 241.486 309.52 241.346 311.73H236.546C236.686 312.64 237.336 313.24 238.456 313.24C239.496 313.24 239.936 312.74 240.116 312.36H241.196C240.926 313.45 239.886 314.15 238.456 314.15C236.936 314.15 235.436 313.28 235.436 311.34C235.436 309.43 236.906 308.52 238.436 308.52ZM236.576 310.83H240.246C240.086 309.99 239.506 309.43 238.436 309.43C237.446 309.43 236.766 309.99 236.576 310.83ZM244.749 308.52C246.219 308.52 247.469 309.01 247.469 310.54V314H246.239V313.31C245.979 313.61 245.339 314.15 244.089 314.15C242.809 314.15 241.959 313.62 241.959 312.6C241.959 311.5 242.559 310.63 246.239 310.87V310.54C246.239 309.8 245.859 309.43 244.749 309.43C243.799 309.43 243.409 309.74 243.319 310.19H242.169C242.329 309.07 243.369 308.52 244.749 308.52ZM246.239 312.5V311.61C244.019 311.5 243.219 311.69 243.219 312.52C243.219 313.06 243.639 313.33 244.349 313.33C245.289 313.33 245.909 312.98 246.239 312.5ZM248.873 306.62H250.103V314H248.873V306.62ZM254.1 308.52C255.79 308.52 257.15 309.52 257.01 311.73H252.21C252.35 312.64 253 313.24 254.12 313.24C255.16 313.24 255.6 312.74 255.78 312.36H256.86C256.59 313.45 255.55 314.15 254.12 314.15C252.6 314.15 251.1 313.28 251.1 311.34C251.1 309.43 252.57 308.52 254.1 308.52ZM252.24 310.83H255.91C255.75 309.99 255.17 309.43 254.1 309.43C253.11 309.43 252.43 309.99 252.24 310.83ZM260.833 310.88C262.343 311.14 263.193 311.34 263.193 312.39C263.193 313.63 262.163 314.15 260.383 314.15C258.763 314.15 257.523 313.59 257.523 312.38H258.793C258.793 312.96 259.363 313.22 260.483 313.22C261.573 313.22 261.963 312.95 261.963 312.55C261.963 311.96 261.073 311.95 259.713 311.7C258.333 311.44 257.723 311.12 257.723 310.17C257.723 309.1 258.723 308.52 260.293 308.52C262.003 308.52 262.923 309.2 262.923 310.19H261.773C261.773 309.85 261.413 309.43 260.273 309.43C259.203 309.43 258.833 309.7 258.833 310.11C258.833 310.65 259.883 310.72 260.833 310.88Z" fill="white"/>
</svg>
