<svg width="285" height="332" viewBox="0 0 285 332" fill="none" xmlns="http://www.w3.org/2000/svg">
<rect width="285" height="332" rx="10" fill="black"/>
<path d="M241.72 162V163.168H238.359V232H241.72V233.168H234V232H237.359V163.168H234V162H241.72Z" fill="white"/>
<path d="M276 207H259V188H263.495V203.637H276V207Z" fill="white"/>
<path d="M245 162H253V233H245" stroke="white" stroke-miterlimit="10" stroke-dasharray="4 4"/>
<path d="M200.245 223.295C190.565 223.295 185.648 210.39 184.91 204.641H187.399C187.953 207.576 192.101 221.216 200.092 221.216C215.519 221.216 219.822 214.274 221.604 204.763H224.124C221.635 214.427 218.131 223.295 200.276 223.295H200.245Z" fill="white"/>
<path fill-rule="evenodd" clip-rule="evenodd" d="M160.847 253.569C161.738 249.685 162.599 245.128 163.428 240.113C164.289 234.883 165.149 229.195 166.01 223.293C166.44 220.388 166.84 217.452 167.27 214.486L167.424 213.385C167.639 211.917 167.854 210.418 168.038 208.92V208.645C168.161 207.941 168.284 207.268 168.376 206.565C169.452 198.858 170.589 191.182 171.788 184.026C171.88 183.537 171.941 183.017 172.033 182.528C173.324 174.974 174.676 168.032 176.182 162.314C177.688 168.063 179.071 175.005 180.362 182.589C180.454 183.078 180.516 183.568 180.608 184.026C181.806 191.213 182.943 198.889 184.05 206.565C184.142 207.299 184.234 207.972 184.357 208.675V208.95C184.603 210.388 184.818 211.856 185.002 213.293L185.218 214.822C185.402 216.106 185.586 217.391 185.771 218.675H188.26C188.199 218.247 188.137 217.85 188.076 217.421C187.953 216.443 187.799 215.464 187.676 214.516C187.277 211.764 186.908 209.012 186.478 206.259V206.045C185.494 198.889 184.418 191.733 183.22 184.516C183.097 183.721 182.943 182.956 182.82 182.192C181.714 175.831 180.516 169.347 178.887 163.078V163.047C178.764 162.619 178.672 162.191 178.549 161.763L176.182 152.711L173.816 161.763C173.693 162.191 173.601 162.619 173.478 163.047V163.109C171.972 169.041 170.927 175.127 169.851 181.121C169.79 181.488 169.729 181.855 169.667 182.222C169.544 182.987 169.391 183.782 169.268 184.546C168.038 191.794 166.993 198.95 166.01 206.106V206.32C165.549 209.164 165.149 212.039 164.75 214.883C164.627 215.739 164.504 216.626 164.381 217.483C163.336 224.975 162.261 232.468 161.001 239.838C160.294 244.303 159.464 248.768 158.388 253.11C158.296 253.446 158.235 253.783 158.143 254.119" fill="white"/>
<path fill-rule="evenodd" clip-rule="evenodd" d="M213.061 62.4367C213.061 62.6813 213.03 62.9565 213 63.2929C212.692 67.2074 211.986 76.5347 213.184 79.0424C215.919 84.5471 218.04 90.9081 219.914 96.6574C222.65 105.251 225.016 114.058 226.798 122.866C227.382 125.771 227.905 128.799 228.396 131.887C229.257 137.545 229.872 143.386 229.902 148.982C229.902 151.154 229.841 153.264 229.626 155.343C229.534 156.505 229.441 157.637 229.349 158.799C228.673 166.444 227.72 174.029 226.798 181.582C226.368 185.069 225.938 188.555 225.477 192.041C224.34 200.91 223.233 209.809 222.373 218.678H224.924C225.754 209.778 227.014 199.748 228.274 189.503C228.581 186.965 228.919 184.426 229.226 181.858C230.025 175.313 230.824 168.738 231.47 162.408C231.716 160.083 231.931 157.82 232.115 155.588C232.238 154.12 232.33 152.622 232.361 151.093C232.361 150.42 232.361 149.716 232.361 149.013C232.361 146.536 232.207 143.936 231.992 141.306V141.154C231.931 140.481 231.869 139.808 231.808 139.135C231.808 138.89 231.746 138.615 231.716 138.371C231.716 138.248 231.716 138.126 231.685 138.034C231.47 136.016 231.193 133.967 230.886 131.918C230.609 130.083 230.302 128.218 229.964 126.383C229.718 125.098 229.472 123.814 229.226 122.529C227.321 113.141 224.77 103.905 222.25 96.0458C219.73 88.1863 217.241 81.7642 215.458 78.0638C214.782 76.5959 214.967 70.7854 215.581 62.7731C215.612 62.2226 215.673 61.6721 215.704 61.1217M130.054 246.935V246.874C130.884 243.235 131.007 239.014 131.007 235.222C131.007 230.054 130.546 224.763 130.054 219.595C129.255 210.145 128.056 200.696 126.889 191.246C126.489 188.004 126.059 184.763 125.69 181.521C124.768 173.967 123.815 166.383 123.139 158.738C123.047 157.606 122.924 156.444 122.832 155.282C122.648 153.203 122.555 151.093 122.555 148.921C122.555 143.264 123.17 137.361 124.061 131.673C124.522 128.646 125.106 125.679 125.69 122.805C127.472 113.997 129.839 105.159 132.574 96.5962C134.479 90.8163 136.6 84.4859 139.212 78.9813C140.626 76.2289 139.673 65.5866 139.335 62.4367L136.846 60.9688C136.876 61.5192 136.938 62.0697 136.969 62.5896V62.6813C137.583 70.6631 137.768 76.443 137.092 77.9109V77.9721C135.248 81.6724 132.758 88.064 130.238 95.8623C127.718 103.722 125.198 112.957 123.293 122.346C123.047 123.63 122.801 124.915 122.555 126.169C122.217 128.034 121.91 129.9 121.603 131.765C121.295 133.845 121.019 135.893 120.804 137.912C120.804 138.034 120.804 138.157 120.773 138.279C120.773 138.493 120.711 138.738 120.711 138.952C120.65 139.594 120.588 140.267 120.527 140.909V141.062V141.184C120.312 143.845 120.189 146.444 120.158 148.921C120.158 149.625 120.158 150.328 120.158 151.031C120.189 152.56 120.281 154.059 120.404 155.496C120.588 157.759 120.834 160.053 121.049 162.347C121.695 168.677 122.494 175.252 123.293 181.796C123.6 184.335 123.908 186.873 124.246 189.381C125.598 200.084 126.889 210.574 127.718 219.779C128.241 225.497 128.548 230.696 128.61 235.192C128.64 239.687 128.394 243.449 127.78 246.293V246.354" fill="white"/>
<path d="M176.705 163.172C181.684 182.836 183.22 204.915 186.201 219.136C188.598 230.604 194.376 235.772 202.92 235.772C217.056 235.772 222.404 230.084 225.016 216.934C225.753 213.295 228.827 188.646 228.827 188.646C230.671 175.16 231.439 166.505 231.439 162.805L176.736 163.172H176.705Z" fill="#2D2D2D"/>
<path d="M202.92 236.326C193.854 236.326 188.045 230.577 185.648 219.262C184.45 213.512 183.466 206.448 182.421 198.925C180.885 187.732 179.102 175.041 176.152 163.328L175.968 162.655L231.931 162.258V162.808C231.931 167.12 230.947 176.815 229.319 188.741C229.196 189.751 226.245 213.451 225.508 217.06C222.711 231.127 216.565 236.357 202.858 236.357L202.92 236.326ZM177.412 163.726C180.301 175.316 182.022 187.763 183.528 198.772C184.573 206.265 185.556 213.329 186.724 219.017C188.998 229.904 194.315 235.225 202.889 235.225C216.104 235.225 221.728 230.424 224.432 216.815C225.139 213.237 228.182 188.833 228.212 188.589C229.78 177.182 230.732 167.854 230.794 163.359L177.351 163.726H177.412Z" fill="white"/>
<path d="M173.785 157.703H9" stroke="white" stroke-miterlimit="10" stroke-dasharray="1.18 1.18 1.18 1.18 1.18 1.18 1.18 1.18"/>
<rect width="285" height="332" rx="10" fill="black"/>
<path d="M241.72 162V163.168H238.359V232H241.72V233.168H234V232H237.359V163.168H234V162H241.72Z" fill="white"/>
<path d="M276 207H259V188H263.495V203.637H276V207Z" fill="white"/>
<path d="M245 162H253V233H245" stroke="white" stroke-miterlimit="10" stroke-dasharray="4 4"/>
<path d="M200.245 223.295C190.565 223.295 185.648 210.39 184.91 204.641H187.399C187.953 207.576 192.101 221.216 200.092 221.216C215.519 221.216 219.822 214.274 221.604 204.763H224.124C221.635 214.427 218.131 223.295 200.276 223.295H200.245Z" fill="white"/>
<path fill-rule="evenodd" clip-rule="evenodd" d="M160.847 253.569C161.738 249.685 162.599 245.128 163.428 240.113C164.289 234.883 165.149 229.195 166.01 223.293C166.44 220.388 166.84 217.452 167.27 214.486L167.424 213.385C167.639 211.917 167.854 210.418 168.038 208.92V208.645C168.161 207.941 168.284 207.268 168.376 206.565C169.452 198.858 170.589 191.182 171.788 184.026C171.88 183.537 171.941 183.017 172.033 182.528C173.324 174.974 174.676 168.032 176.182 162.314C177.688 168.063 179.071 175.005 180.362 182.589C180.454 183.078 180.516 183.568 180.608 184.026C181.806 191.213 182.943 198.889 184.05 206.565C184.142 207.299 184.234 207.972 184.357 208.675V208.95C184.603 210.388 184.818 211.856 185.002 213.293L185.218 214.822C185.402 216.106 185.586 217.391 185.771 218.675H188.26C188.199 218.247 188.137 217.85 188.076 217.421C187.953 216.443 187.799 215.464 187.676 214.516C187.277 211.764 186.908 209.012 186.478 206.259V206.045C185.494 198.889 184.418 191.733 183.22 184.516C183.097 183.721 182.943 182.956 182.82 182.192C181.714 175.831 180.516 169.347 178.887 163.078V163.047C178.764 162.619 178.672 162.191 178.549 161.763L176.182 152.711L173.816 161.763C173.693 162.191 173.601 162.619 173.478 163.047V163.109C171.972 169.041 170.927 175.127 169.851 181.121C169.79 181.488 169.729 181.855 169.667 182.222C169.544 182.987 169.391 183.782 169.268 184.546C168.038 191.794 166.993 198.95 166.01 206.106V206.32C165.549 209.164 165.149 212.039 164.75 214.883C164.627 215.739 164.504 216.626 164.381 217.483C163.336 224.975 162.261 232.468 161.001 239.838C160.294 244.303 159.464 248.768 158.388 253.11C158.296 253.446 158.235 253.783 158.143 254.119" fill="white"/>
<path fill-rule="evenodd" clip-rule="evenodd" d="M213.061 62.4367C213.061 62.6813 213.03 62.9565 213 63.2929C212.692 67.2074 211.986 76.5347 213.184 79.0424C215.919 84.5471 218.04 90.9081 219.914 96.6574C222.65 105.251 225.016 114.058 226.798 122.866C227.382 125.771 227.905 128.799 228.396 131.887C229.257 137.545 229.872 143.386 229.902 148.982C229.902 151.154 229.841 153.264 229.626 155.343C229.534 156.505 229.441 157.637 229.349 158.799C228.673 166.444 227.72 174.029 226.798 181.582C226.368 185.069 225.938 188.555 225.477 192.041C224.34 200.91 223.233 209.809 222.373 218.678H224.924C225.754 209.778 227.014 199.748 228.274 189.503C228.581 186.965 228.919 184.426 229.226 181.858C230.025 175.313 230.824 168.738 231.47 162.408C231.716 160.083 231.931 157.82 232.115 155.588C232.238 154.12 232.33 152.622 232.361 151.093C232.361 150.42 232.361 149.716 232.361 149.013C232.361 146.536 232.207 143.936 231.992 141.306V141.154C231.931 140.481 231.869 139.808 231.808 139.135C231.808 138.89 231.746 138.615 231.716 138.371C231.716 138.248 231.716 138.126 231.685 138.034C231.47 136.016 231.193 133.967 230.886 131.918C230.609 130.083 230.302 128.218 229.964 126.383C229.718 125.098 229.472 123.814 229.226 122.529C227.321 113.141 224.77 103.905 222.25 96.0458C219.73 88.1863 217.241 81.7642 215.458 78.0638C214.782 76.5959 214.967 70.7854 215.581 62.7731C215.612 62.2226 215.673 61.6721 215.704 61.1217M130.054 246.935V246.874C130.884 243.235 131.007 239.014 131.007 235.222C131.007 230.054 130.546 224.763 130.054 219.595C129.255 210.145 128.056 200.696 126.889 191.246C126.489 188.004 126.059 184.763 125.69 181.521C124.768 173.967 123.815 166.383 123.139 158.738C123.047 157.606 122.924 156.444 122.832 155.282C122.648 153.203 122.555 151.093 122.555 148.921C122.555 143.264 123.17 137.361 124.061 131.673C124.522 128.646 125.106 125.679 125.69 122.805C127.472 113.997 129.839 105.159 132.574 96.5962C134.479 90.8163 136.6 84.4859 139.212 78.9813C140.626 76.2289 139.673 65.5866 139.335 62.4367L136.846 60.9688C136.876 61.5192 136.938 62.0697 136.969 62.5896V62.6813C137.583 70.6631 137.768 76.443 137.092 77.9109V77.9721C135.248 81.6724 132.758 88.064 130.238 95.8623C127.718 103.722 125.198 112.957 123.293 122.346C123.047 123.63 122.801 124.915 122.555 126.169C122.217 128.034 121.91 129.9 121.603 131.765C121.295 133.845 121.019 135.893 120.804 137.912C120.804 138.034 120.804 138.157 120.773 138.279C120.773 138.493 120.711 138.738 120.711 138.952C120.65 139.594 120.588 140.267 120.527 140.909V141.062V141.184C120.312 143.845 120.189 146.444 120.158 148.921C120.158 149.625 120.158 150.328 120.158 151.031C120.189 152.56 120.281 154.059 120.404 155.496C120.588 157.759 120.834 160.053 121.049 162.347C121.695 168.677 122.494 175.252 123.293 181.796C123.6 184.335 123.908 186.873 124.246 189.381C125.598 200.084 126.889 210.574 127.718 219.779C128.241 225.497 128.548 230.696 128.61 235.192C128.64 239.687 128.394 243.449 127.78 246.293V246.354" fill="white"/>
<path d="M176.705 163.172C181.684 182.836 183.22 204.915 186.201 219.136C188.598 230.604 194.376 235.772 202.92 235.772C217.056 235.772 222.404 230.084 225.016 216.934C225.753 213.295 228.827 188.646 228.827 188.646C230.671 175.16 231.439 166.505 231.439 162.805L176.736 163.172H176.705Z" fill="#2D2D2D"/>
<path d="M202.92 236.326C193.854 236.326 188.045 230.577 185.648 219.262C184.45 213.512 183.466 206.448 182.421 198.925C180.885 187.732 179.102 175.041 176.152 163.328L175.968 162.655L231.931 162.258V162.808C231.931 167.12 230.947 176.815 229.319 188.741C229.196 189.751 226.245 213.451 225.508 217.06C222.711 231.127 216.565 236.357 202.858 236.357L202.92 236.326ZM177.412 163.726C180.301 175.316 182.022 187.763 183.528 198.772C184.573 206.265 185.556 213.329 186.724 219.017C188.998 229.904 194.315 235.225 202.889 235.225C216.104 235.225 221.728 230.424 224.432 216.815C225.139 213.237 228.182 188.833 228.212 188.589C229.78 177.182 230.732 167.854 230.794 163.359L177.351 163.726H177.412Z" fill="white"/>
<path d="M173.785 157.703H9" stroke="white" stroke-miterlimit="10" stroke-dasharray="1.18 1.18 1.18 1.18 1.18 1.18 1.18 1.18"/>
<path d="M18 163.4C21.42 163.4 22.554 165.398 22.554 167.558C22.554 169.97 21.132 171.734 17.658 171.734H12.654V176H10.44V163.4H18ZM17.658 169.88C19.602 169.88 20.268 168.872 20.268 167.558C20.268 166.136 19.494 165.272 17.622 165.272H12.654V169.88H17.658ZM29.0377 166.136C32.0797 166.136 34.5277 167.936 34.2757 171.914H25.6357C25.8877 173.552 27.0577 174.632 29.0737 174.632C30.9457 174.632 31.7377 173.732 32.0617 173.048H34.0057C33.5197 175.01 31.6477 176.27 29.0737 176.27C26.3377 176.27 23.6377 174.704 23.6377 171.212C23.6377 167.774 26.2837 166.136 29.0377 166.136ZM25.6897 170.294H32.2957C32.0077 168.782 30.9637 167.774 29.0377 167.774C27.2557 167.774 26.0317 168.782 25.6897 170.294ZM42.1658 166.136C42.5978 166.136 42.8498 166.154 43.2278 166.208V168.404H43.1558C42.7778 168.296 42.2918 168.224 41.6798 168.224C39.2498 168.224 38.3318 169.628 38.3318 171.122V176H36.0998V166.406H38.3318V168.206C38.7638 167.504 40.0958 166.136 42.1658 166.136ZM45.0295 176V166.406H47.2435V176H45.0295ZM46.1275 165.074C45.4435 165.074 44.9575 164.678 44.9575 163.994C44.9575 163.31 45.4435 162.914 46.1275 162.914C46.8295 162.914 47.3155 163.31 47.3155 163.994C47.3155 164.678 46.8295 165.074 46.1275 165.074ZM55.644 166.136C58.146 166.136 59.514 167.558 59.514 169.79V176H57.3V170.456C57.3 168.836 56.418 167.936 54.672 167.936C52.926 167.936 51.972 168.944 51.972 170.456V176H49.758V166.406H51.972V167.882C52.422 167.252 53.646 166.136 55.644 166.136ZM66.7076 166.136C69.7496 166.136 72.1976 167.936 71.9456 171.914H63.3056C63.5576 173.552 64.7276 174.632 66.7436 174.632C68.6156 174.632 69.4076 173.732 69.7316 173.048H71.6756C71.1896 175.01 69.3176 176.27 66.7436 176.27C64.0076 176.27 61.3076 174.704 61.3076 171.212C61.3076 167.774 63.9536 166.136 66.7076 166.136ZM63.3596 170.294H69.9656C69.6776 168.782 68.6336 167.774 66.7076 167.774C64.9256 167.774 63.7016 168.782 63.3596 170.294ZM81.3118 166.406H83.5258V176H81.3118V174.524C80.8618 175.154 79.6378 176.27 77.6398 176.27C75.1378 176.27 73.7698 174.848 73.7698 172.616V166.406H75.9838V171.95C75.9838 173.57 76.8658 174.47 78.6118 174.47C80.3578 174.47 81.3118 173.462 81.3118 171.95V166.406ZM98.2793 166.136C100.781 166.136 101.987 167.558 101.987 169.79V176H99.7553V170.456C99.7553 168.836 99.1613 167.936 97.4693 167.936C95.7953 167.936 95.1113 169.016 95.1113 170.456V176H92.8973V170.456C92.8973 168.836 92.2853 167.936 90.6113 167.936C88.9373 167.936 88.2533 169.016 88.2533 170.456V176H86.0393V166.406H88.2533V167.81C88.6133 167.18 89.5313 166.136 91.4033 166.136C93.0593 166.136 94.1393 166.748 94.6793 167.81C95.1653 167.162 96.3533 166.136 98.2793 166.136Z" fill="white"/>
<path d="M23.707 314L22.997 312.44H18.987L18.287 314H16.957L20.197 307H21.797L25.037 314H23.707ZM19.457 311.4H22.537L20.997 307.97L19.457 311.4ZM28.3055 313.24C29.3855 313.24 29.9255 312.61 30.0755 312.01H31.2255C30.9655 313.43 29.7455 314.15 28.3055 314.15C26.7455 314.15 25.2355 313.31 25.2355 311.34C25.2355 309.37 26.7455 308.52 28.3055 308.52C29.7455 308.52 30.9655 309.24 31.2255 310.66H30.0755C29.9255 310.06 29.3855 309.43 28.3055 309.43C26.8755 309.43 26.3655 310.4 26.3655 311.34C26.3655 312.27 26.8755 313.24 28.3055 313.24ZM35.4973 308.52C36.8873 308.52 37.6473 309.31 37.6473 310.55V314H36.4173V310.92C36.4173 310.02 35.9273 309.52 34.9573 309.52C33.9873 309.52 33.4573 310.08 33.4573 310.92V314H32.2273V307H33.4573V309.49C33.7073 309.14 34.3873 308.52 35.4973 308.52ZM42.3284 309.61H40.7184V312.01C40.7184 312.91 41.0784 313.16 42.3284 313.03V313.99C42.1484 314.04 41.8784 314.08 41.6284 314.08C40.0084 314.08 39.4884 313.42 39.4884 312.01V309.61H38.4484V308.67H39.4884V307.29H40.7184V308.67H42.3284V309.61ZM46.0285 308.52C47.7185 308.52 49.0785 309.52 48.9385 311.73H44.1385C44.2785 312.64 44.9285 313.24 46.0485 313.24C47.0885 313.24 47.5285 312.74 47.7085 312.36H48.7885C48.5185 313.45 47.4785 314.15 46.0485 314.15C44.5285 314.15 43.0285 313.28 43.0285 311.34C43.0285 309.43 44.4985 308.52 46.0285 308.52ZM44.1685 310.83H47.8385C47.6785 309.99 47.0985 309.43 46.0285 309.43C45.0385 309.43 44.3585 309.99 44.1685 310.83ZM53.222 308.52C54.612 308.52 55.372 309.31 55.372 310.55V314H54.142V310.92C54.142 310.02 53.652 309.52 52.682 309.52C51.712 309.52 51.182 310.08 51.182 310.92V314H49.952V308.67H51.182V309.49C51.432 309.14 52.112 308.52 53.222 308.52ZM63.0888 309.96C65.0688 310.23 66.2588 310.53 66.2588 311.89C66.2588 313.21 65.2688 314.15 62.8188 314.15C60.2088 314.15 59.1688 313.18 59.1688 311.92H60.4888C60.5288 312.65 61.3488 313.11 62.8588 313.11C64.1588 313.11 64.9788 312.79 64.9788 312.04C64.9788 311.2 63.8188 311.27 61.8688 310.95C60.1888 310.68 59.4088 310.14 59.4088 309C59.4088 307.78 60.2988 306.86 62.6088 306.86C65.0088 306.86 65.9188 307.95 65.9188 308.95H64.6588C64.5988 308.44 64.0688 307.9 62.5788 307.9C61.0188 307.9 60.6488 308.37 60.6488 308.91C60.6488 309.67 61.5888 309.75 63.0888 309.96ZM67.2566 314V308.67H68.4866V314H67.2566ZM67.8666 307.93C67.4866 307.93 67.2166 307.71 67.2166 307.33C67.2166 306.95 67.4866 306.73 67.8666 306.73C68.2566 306.73 68.5266 306.95 68.5266 307.33C68.5266 307.71 68.2566 307.93 67.8666 307.93ZM72.4836 308.52C74.1736 308.52 75.5336 309.52 75.3936 311.73H70.5936C70.7336 312.64 71.3836 313.24 72.5036 313.24C73.5436 313.24 73.9836 312.74 74.1636 312.36H75.2436C74.9736 313.45 73.9336 314.15 72.5036 314.15C70.9836 314.15 69.4836 313.28 69.4836 311.34C69.4836 309.43 70.9536 308.52 72.4836 308.52ZM70.6236 310.83H74.2936C74.1336 309.99 73.5536 309.43 72.4836 309.43C71.4936 309.43 70.8136 309.99 70.6236 310.83ZM83.6274 307H84.8574V314H83.6274V313.3C83.2074 313.81 82.5674 314.15 81.6774 314.15C80.1174 314.15 78.9074 313.14 78.9074 311.34C78.9074 309.53 80.1174 308.52 81.6774 308.52C82.5674 308.52 83.2074 308.86 83.6274 309.37V307ZM81.9174 313.24C83.1874 313.24 83.8174 312.44 83.8174 311.34C83.8174 310.23 83.2074 309.43 81.9174 309.43C80.6174 309.43 80.0474 310.21 80.0474 311.34C80.0474 312.46 80.6374 313.24 81.9174 313.24ZM88.6505 308.52C90.1205 308.52 91.3705 309.01 91.3705 310.54V314H90.1405V313.31C89.8805 313.61 89.2405 314.15 87.9905 314.15C86.7105 314.15 85.8605 313.62 85.8605 312.6C85.8605 311.5 86.4605 310.63 90.1405 310.87V310.54C90.1405 309.8 89.7605 309.43 88.6505 309.43C87.7005 309.43 87.3105 309.74 87.2205 310.19H86.0705C86.2305 309.07 87.2705 308.52 88.6505 308.52ZM90.1405 312.5V311.61C87.9205 311.5 87.1205 311.69 87.1205 312.52C87.1205 313.06 87.5405 313.33 88.2505 313.33C89.1905 313.33 89.8105 312.98 90.1405 312.5ZM96.1442 308.52C96.3842 308.52 96.5242 308.53 96.7342 308.56V309.78H96.6942C96.4842 309.72 96.2142 309.68 95.8742 309.68C94.5242 309.68 94.0142 310.46 94.0142 311.29V314H92.7742V308.67H94.0142V309.67C94.2542 309.28 94.9942 308.52 96.1442 308.52ZM99.9298 308.52C101.4 308.52 102.65 309.01 102.65 310.54V314H101.42V313.31C101.16 313.61 100.52 314.15 99.2698 314.15C97.9898 314.15 97.1398 313.62 97.1398 312.6C97.1398 311.5 97.7398 310.63 101.42 310.87V310.54C101.42 309.8 101.04 309.43 99.9298 309.43C98.9798 309.43 98.5898 309.74 98.4998 310.19H97.3498C97.5098 309.07 98.5498 308.52 99.9298 308.52ZM101.42 312.5V311.61C99.1998 311.5 98.3998 311.69 98.3998 312.52C98.3998 313.06 98.8198 313.33 99.5298 313.33C100.47 313.33 101.09 312.98 101.42 312.5ZM108.244 308.67H109.474V314H108.244V313.18C107.994 313.53 107.314 314.15 106.204 314.15C104.814 314.15 104.054 313.36 104.054 312.12V308.67H105.284V311.75C105.284 312.65 105.774 313.15 106.744 313.15C107.714 313.15 108.244 312.59 108.244 311.75V308.67ZM114.122 307.65C112.872 307.53 112.532 307.72 112.532 308.67H113.982V309.61H112.532V314H111.302V309.61H110.372V308.67H111.302C111.302 307.58 111.682 306.62 113.212 306.62C113.572 306.62 113.832 306.64 114.122 306.68V307.65ZM115.218 312.52H116.448L115.478 314.92H114.818L115.218 312.52ZM120.45 306.62H121.68V314H120.45V306.62ZM123.077 314V308.67H124.307V314H123.077ZM123.687 307.93C123.307 307.93 123.037 307.71 123.037 307.33C123.037 306.95 123.307 306.73 123.687 306.73C124.077 306.73 124.347 306.95 124.347 307.33C124.347 307.71 124.077 307.93 123.687 307.93ZM128.974 308.52C130.364 308.52 131.124 309.31 131.124 310.55V314H129.894V310.92C129.894 310.02 129.404 309.52 128.434 309.52C127.464 309.52 126.934 310.08 126.934 310.92V314H125.704V308.67H126.934V309.49C127.184 309.14 127.864 308.52 128.974 308.52ZM135.12 308.52C136.81 308.52 138.17 309.52 138.03 311.73H133.23C133.37 312.64 134.02 313.24 135.14 313.24C136.18 313.24 136.62 312.74 136.8 312.36H137.88C137.61 313.45 136.57 314.15 135.14 314.15C133.62 314.15 132.12 313.28 132.12 311.34C132.12 309.43 133.59 308.52 135.12 308.52ZM133.26 310.83H136.93C136.77 309.99 136.19 309.43 135.12 309.43C134.13 309.43 133.45 309.99 133.26 310.83ZM141.434 308.52C142.904 308.52 144.154 309.01 144.154 310.54V314H142.924V313.31C142.664 313.61 142.024 314.15 140.774 314.15C139.494 314.15 138.644 313.62 138.644 312.6C138.644 311.5 139.244 310.63 142.924 310.87V310.54C142.924 309.8 142.544 309.43 141.434 309.43C140.484 309.43 140.094 309.74 140.004 310.19H138.854C139.014 309.07 140.054 308.52 141.434 308.52ZM142.924 312.5V311.61C140.704 311.5 139.904 311.69 139.904 312.52C139.904 313.06 140.324 313.33 141.034 313.33C141.974 313.33 142.594 312.98 142.924 312.5ZM148.927 308.52C149.167 308.52 149.307 308.53 149.517 308.56V309.78H149.477C149.267 309.72 148.997 309.68 148.657 309.68C147.307 309.68 146.797 310.46 146.797 311.29V314H145.557V308.67H146.797V309.67C147.037 309.28 147.777 308.52 148.927 308.52ZM153.021 308.52C154.711 308.52 156.071 309.52 155.931 311.73H151.131C151.271 312.64 151.921 313.24 153.041 313.24C154.081 313.24 154.521 312.74 154.701 312.36H155.781C155.511 313.45 154.471 314.15 153.041 314.15C151.521 314.15 150.021 313.28 150.021 311.34C150.021 309.43 151.491 308.52 153.021 308.52ZM151.161 310.83H154.831C154.671 309.99 154.091 309.43 153.021 309.43C152.031 309.43 151.351 309.99 151.161 310.83ZM167.065 307H169.015V314H167.785V307.99L165.145 314H163.815L161.175 307.99V314H159.945V307H161.885L164.475 312.91L167.065 307ZM172.908 308.52C174.378 308.52 175.628 309.01 175.628 310.54V314H174.398V313.31C174.138 313.61 173.498 314.15 172.248 314.15C170.968 314.15 170.118 313.62 170.118 312.6C170.118 311.5 170.718 310.63 174.398 310.87V310.54C174.398 309.8 174.018 309.43 172.908 309.43C171.958 309.43 171.568 309.74 171.478 310.19H170.328C170.488 309.07 171.528 308.52 172.908 308.52ZM174.398 312.5V311.61C172.178 311.5 171.378 311.69 171.378 312.52C171.378 313.06 171.798 313.33 172.508 313.33C173.448 313.33 174.068 312.98 174.398 312.5ZM182.002 310.19C182.842 310.35 183.572 310.8 183.572 311.98C183.572 313.38 182.612 314.15 180.892 314.15C180.432 314.15 179.942 314.07 179.602 314V313.11C179.752 313.14 180.292 313.24 180.802 313.24C181.972 313.24 182.402 312.72 182.402 311.92C182.402 311.25 182.052 310.77 180.662 310.77H179.602V309.92H180.572C181.542 309.92 181.852 309.45 181.852 308.86C181.852 308.36 181.522 307.72 180.002 307.72C178.582 307.72 178.162 308.49 178.162 309.67V314H177.032V309.58C177.032 307.5 178.342 306.86 180.032 306.86C181.652 306.86 182.942 307.44 182.942 308.78C182.942 309.59 182.522 309.99 182.002 310.19ZM187.171 308.52C188.861 308.52 190.221 309.52 190.081 311.73H185.281C185.421 312.64 186.071 313.24 187.191 313.24C188.231 313.24 188.671 312.74 188.851 312.36H189.931C189.661 313.45 188.621 314.15 187.191 314.15C185.671 314.15 184.171 313.28 184.171 311.34C184.171 309.43 185.641 308.52 187.171 308.52ZM185.311 310.83H188.981C188.821 309.99 188.241 309.43 187.171 309.43C186.181 309.43 185.501 309.99 185.311 310.83ZM195.405 312.96H199.025V314H193.695V313.01L197.225 309.71H193.885V308.67H198.935V309.66L195.405 312.96ZM204.318 308.67H205.548V314H204.318V313.18C204.068 313.53 203.388 314.15 202.278 314.15C200.888 314.15 200.128 313.36 200.128 312.12V308.67H201.358V311.75C201.358 312.65 201.848 313.15 202.818 313.15C203.788 313.15 204.318 312.59 204.318 311.75V308.67ZM214.115 308.67H215.415L213.025 314H211.735L209.345 308.67H210.645L212.385 312.8L214.115 308.67ZM218.616 308.52C220.306 308.52 221.666 309.52 221.526 311.73H216.726C216.866 312.64 217.516 313.24 218.636 313.24C219.676 313.24 220.116 312.74 220.296 312.36H221.376C221.106 313.45 220.066 314.15 218.636 314.15C217.116 314.15 215.616 313.28 215.616 311.34C215.616 309.43 217.086 308.52 218.616 308.52ZM216.756 310.83H220.426C220.266 309.99 219.686 309.43 218.616 309.43C217.626 309.43 216.946 309.99 216.756 310.83ZM225.91 308.52C226.15 308.52 226.29 308.53 226.5 308.56V309.78H226.46C226.25 309.72 225.98 309.68 225.64 309.68C224.29 309.68 223.78 310.46 223.78 311.29V314H222.54V308.67H223.78V309.67C224.02 309.28 224.76 308.52 225.91 308.52ZM235.211 308.67H236.511L234.411 314H233.211L231.751 310.14L230.301 314H229.101L227.001 308.67H228.301L229.731 312.58L231.201 308.67H232.311L233.781 312.58L235.211 308.67ZM239.71 308.52C241.4 308.52 242.76 309.52 242.62 311.73H237.82C237.96 312.64 238.61 313.24 239.73 313.24C240.77 313.24 241.21 312.74 241.39 312.36H242.47C242.2 313.45 241.16 314.15 239.73 314.15C238.21 314.15 236.71 313.28 236.71 311.34C236.71 309.43 238.18 308.52 239.71 308.52ZM237.85 310.83H241.52C241.36 309.99 240.78 309.43 239.71 309.43C238.72 309.43 238.04 309.99 237.85 310.83ZM246.904 308.52C248.294 308.52 249.054 309.31 249.054 310.55V314H247.824V310.92C247.824 310.02 247.334 309.52 246.364 309.52C245.394 309.52 244.864 310.08 244.864 310.92V314H243.634V308.67H244.864V309.49C245.114 309.14 245.794 308.52 246.904 308.52ZM254.77 307H256V314H254.77V313.3C254.35 313.81 253.71 314.15 252.82 314.15C251.26 314.15 250.05 313.14 250.05 311.34C250.05 309.53 251.26 308.52 252.82 308.52C253.71 308.52 254.35 308.86 254.77 309.37V307ZM253.06 313.24C254.33 313.24 254.96 312.44 254.96 311.34C254.96 310.23 254.35 309.43 253.06 309.43C251.76 309.43 251.19 310.21 251.19 311.34C251.19 312.46 251.78 313.24 253.06 313.24ZM260.003 308.52C261.693 308.52 263.053 309.52 262.913 311.73H258.113C258.253 312.64 258.903 313.24 260.023 313.24C261.063 313.24 261.503 312.74 261.683 312.36H262.763C262.493 313.45 261.453 314.15 260.023 314.15C258.503 314.15 257.003 313.28 257.003 311.34C257.003 309.43 258.473 308.52 260.003 308.52ZM258.143 310.83H261.813C261.653 309.99 261.073 309.43 260.003 309.43C259.013 309.43 258.333 309.99 258.143 310.83ZM267.197 308.52C268.587 308.52 269.347 309.31 269.347 310.55V314H268.117V310.92C268.117 310.02 267.627 309.52 266.657 309.52C265.687 309.52 265.157 310.08 265.157 310.92V314H263.927V308.67H265.157V309.49C265.407 309.14 266.087 308.52 267.197 308.52Z" fill="white"/>
</svg>
