<svg width="286" height="332" viewBox="0 0 286 332" fill="none" xmlns="http://www.w3.org/2000/svg">
<rect x="0.0371094" width="285.963" height="332" rx="10" fill="#D9D9D9"/>
<path fill-rule="evenodd" clip-rule="evenodd" d="M150.534 261.541C151.485 257.314 152.402 252.4 153.32 246.961C154.271 241.293 155.156 235.133 156.074 228.744C156.533 225.599 156.959 222.421 157.418 219.21L157.582 217.998C157.811 216.393 158.04 214.787 158.27 213.182V212.887C158.401 212.133 158.532 211.38 158.63 210.626C159.81 202.271 161.023 193.982 162.302 186.217C162.4 185.66 162.498 185.136 162.564 184.612C163.941 176.421 165.416 168.918 167.055 162.693C168.661 168.918 170.169 176.454 171.545 184.644C171.644 185.169 171.709 185.693 171.808 186.217C173.119 193.982 174.332 202.304 175.512 210.626C175.61 211.412 175.708 212.166 175.839 212.887V213.182C176.102 214.754 176.331 216.327 176.561 217.9L176.79 219.571C176.987 220.979 177.183 222.356 177.38 223.732H180.068C180.002 223.273 179.937 222.814 179.871 222.388C179.707 221.34 179.576 220.291 179.412 219.243C178.986 216.262 178.56 213.28 178.134 210.298V210.069C177.085 202.337 175.938 194.572 174.594 186.741C174.463 185.889 174.299 185.07 174.168 184.219C172.955 177.305 171.676 170.327 169.939 163.512V163.479C169.808 163.02 169.71 162.562 169.579 162.103L167.022 152.307L164.465 162.103C164.334 162.562 164.236 163.02 164.105 163.479V163.545C162.498 169.966 161.351 176.552 160.204 183.072C160.138 183.465 160.073 183.858 160.007 184.251C159.876 185.103 159.712 185.922 159.581 186.774C158.27 194.605 157.123 202.37 156.074 210.102V210.331C155.582 213.411 155.156 216.524 154.697 219.603C154.566 220.554 154.435 221.471 154.304 222.421C153.156 230.546 152.042 238.639 150.665 246.633C149.879 251.45 148.993 256.299 147.846 261.017C147.748 261.377 147.682 261.738 147.584 262.098" fill="black"/>
<path fill-rule="evenodd" clip-rule="evenodd" d="M206.816 54.5722C206.816 54.8343 206.783 55.1292 206.75 55.4896C206.422 59.7489 205.668 69.8074 206.947 72.5268C209.897 78.4898 212.191 85.3702 214.224 91.5953C217.174 100.9 219.731 110.434 221.632 119.969C222.255 123.114 222.845 126.39 223.369 129.732C224.32 135.859 224.975 142.183 225.008 148.244C225.008 150.57 224.942 152.896 224.713 155.124C224.615 156.369 224.516 157.614 224.385 158.859C223.631 167.148 222.648 175.339 221.632 183.53C221.173 187.298 220.714 191.066 220.222 194.834C219.01 204.434 217.797 214.066 216.879 223.666H219.6C220.485 214.001 221.828 203.189 223.205 192.082C223.533 189.33 223.894 186.577 224.221 183.825C225.106 176.715 225.926 169.606 226.647 162.758C226.909 160.268 227.139 157.778 227.368 155.354C227.499 153.748 227.598 152.143 227.63 150.504C227.63 149.751 227.63 148.997 227.63 148.244C227.63 145.557 227.466 142.739 227.237 139.889V139.725C227.171 139.004 227.106 138.284 227.04 137.563C227.04 137.301 226.975 137.006 226.942 136.744C226.942 136.613 226.942 136.482 226.909 136.383C226.68 134.188 226.385 131.993 226.024 129.765C225.729 127.766 225.369 125.768 225.008 123.769C224.746 122.393 224.484 120.984 224.189 119.576C222.123 109.419 219.37 99.393 216.682 90.9072C213.962 82.3886 211.274 75.4427 209.373 71.4456C208.619 69.8401 208.848 63.5495 209.504 54.8999C209.536 54.2773 209.602 53.7204 209.635 53.1306M114.805 253.71L117.329 254.333V254.267C118.247 250.336 118.346 245.749 118.346 241.653C118.346 236.051 117.854 230.317 117.329 224.747C116.477 214.525 115.199 204.27 113.92 194.048C113.494 190.542 113.035 187.036 112.609 183.498C111.593 175.307 110.61 167.116 109.856 158.826C109.758 157.581 109.626 156.336 109.528 155.091C109.331 152.863 109.233 150.537 109.233 148.211C109.233 142.084 109.889 135.695 110.839 129.536C111.364 126.259 111.954 123.016 112.609 119.936C114.543 110.402 117.067 100.835 120.017 91.5625C122.05 85.3046 124.344 78.457 127.163 72.4612C128.671 69.4797 127.655 57.9469 127.294 54.5395L124.606 52.9668C124.639 53.5565 124.705 54.1463 124.737 54.736V54.8343C125.393 63.4512 125.623 69.7418 124.869 71.3145V71.38C122.869 75.3772 120.181 82.2904 117.493 90.7434C114.773 99.262 112.052 109.255 109.987 119.412C109.725 120.821 109.43 122.197 109.2 123.573C108.84 125.604 108.479 127.635 108.184 129.634C107.856 131.862 107.561 134.09 107.332 136.285C107.332 136.416 107.332 136.547 107.299 136.678C107.299 136.908 107.234 137.17 107.234 137.399C107.168 138.12 107.102 138.808 107.037 139.496V139.66V139.791C106.807 142.674 106.676 145.492 106.644 148.178C106.644 148.932 106.644 149.718 106.644 150.439C106.676 152.11 106.775 153.715 106.906 155.255C107.135 157.713 107.365 160.17 107.627 162.693C108.315 169.573 109.168 176.65 110.053 183.76C110.38 186.512 110.741 189.231 111.069 191.951C112.511 203.549 113.92 214.885 114.805 224.878C115.363 231.071 115.723 236.706 115.756 241.588C115.789 246.437 115.527 250.532 114.838 253.612V253.678" fill="black"/>
<path d="M235.89 152.144H235.3V212.2H235.89V152.144Z" fill="black"/>
<path d="M238.512 211.708H232.678V212.691H238.512V211.708Z" fill="black"/>
<path d="M238.512 151.685H232.678V152.667H238.512V151.685Z" fill="black"/>
<path d="M165.145 151.544L9.65918 151.544" stroke="#1D1D1B" stroke-miterlimit="10" stroke-dasharray="4 4"/>
<path d="M21.4302 161.597C21.4302 163.927 20.0608 165.645 16.681 165.645H11.8152V169.78H9.65918V157.549H17.0015C20.323 157.549 21.4302 159.5 21.4302 161.597ZM19.1867 161.597C19.1867 160.228 18.4291 159.384 16.6227 159.384H11.7861V163.868H16.6518C18.5457 163.868 19.1867 162.878 19.1867 161.626V161.597Z" fill="#1D1D1B"/>
<path d="M32.7938 165.82H24.4026C24.6357 167.422 25.772 168.47 27.7533 168.47C29.5597 168.47 30.3464 167.596 30.6669 166.927H32.5607C32.0946 168.82 30.259 170.043 27.7824 170.043C25.131 170.043 22.5088 168.528 22.5088 165.121C22.5088 161.714 25.0728 160.199 27.7533 160.199C30.696 160.199 33.0852 161.947 32.8521 165.791L32.7938 165.82ZM30.8708 164.247C30.5795 162.791 29.5889 161.801 27.695 161.801C25.976 161.801 24.7814 162.791 24.4318 164.247H30.8417H30.8708Z" fill="#1D1D1B"/>
<path d="M41.4756 160.287V162.413H41.4173C41.0385 162.296 40.5723 162.238 39.9896 162.238C37.6296 162.238 36.7264 163.607 36.7264 165.063V169.781H34.5703V160.461H36.7264V162.209C37.1343 161.539 38.4454 160.199 40.4558 160.199C40.8637 160.199 41.1259 160.199 41.4756 160.257V160.287Z" fill="#1D1D1B"/>
<path d="M43.166 158.131C43.166 157.462 43.6322 157.083 44.3023 157.083C44.9725 157.083 45.4678 157.462 45.4678 158.131C45.4678 158.801 45.0016 159.18 44.3023 159.18C43.6031 159.18 43.166 158.801 43.166 158.131ZM43.2534 160.49H45.4095V169.81H43.2534V160.49Z" fill="#1D1D1B"/>
<path d="M57.2962 163.752V169.781H55.1401V164.393C55.1401 162.82 54.2952 161.947 52.5762 161.947C50.8571 161.947 49.9539 162.937 49.9539 164.393V169.781H47.7979V160.461H49.9539V161.888C50.391 161.277 51.5855 160.199 53.5085 160.199C55.9268 160.199 57.2671 161.568 57.2671 163.752H57.2962Z" fill="#1D1D1B"/>
<path d="M69.3886 165.82H60.9974C61.2304 167.422 62.3668 168.47 64.348 168.47C66.1544 168.47 66.9411 167.596 67.2616 166.927H69.1555C68.6893 168.82 66.8537 170.043 64.3771 170.043C61.7258 170.043 59.1035 168.528 59.1035 165.121C59.1035 161.714 61.6675 160.199 64.348 160.199C67.2908 160.199 69.6799 161.947 69.4468 165.791L69.3886 165.82ZM67.4656 164.247C67.1742 162.791 66.1836 161.801 64.2897 161.801C62.5707 161.801 61.3761 162.791 61.0265 164.247H67.4364H67.4656Z" fill="#1D1D1B"/>
<path d="M80.6343 160.49V169.809H78.4782V168.382C78.0411 168.994 76.8466 170.072 74.9236 170.072C72.5053 170.072 71.165 168.703 71.165 166.519V160.49H73.3211V165.878C73.3211 167.451 74.1661 168.324 75.8851 168.324C77.6041 168.324 78.5073 167.334 78.5073 165.878V160.49H80.6634H80.6343Z" fill="#1D1D1B"/>
<path d="M98.5531 163.752V169.781H96.3971V164.393C96.3971 162.82 95.8143 161.947 94.1827 161.947C92.5511 161.947 91.881 162.995 91.881 164.393V169.781H89.7249V164.393C89.7249 162.82 89.1422 161.947 87.5106 161.947C85.8789 161.947 85.2088 162.995 85.2088 164.393V169.781H83.0527V160.461H85.2088V161.83C85.5584 161.219 86.4617 160.199 88.2681 160.199C89.8706 160.199 90.9195 160.782 91.4439 161.83C91.9101 161.189 93.0755 160.199 94.9403 160.199C97.3585 160.199 98.5531 161.568 98.5531 163.752Z" fill="#1D1D1B"/>
<path d="M168.53 161.743C173.807 183.367 175.446 207.612 178.626 223.24C181.182 235.854 187.312 241.523 196.392 241.523C211.437 241.523 217.108 235.265 219.894 220.816C220.648 216.819 223.926 189.756 223.926 189.756C225.893 174.914 226.68 165.412 226.68 161.35L168.497 161.776L168.53 161.743Z" fill="#D3D3D5" stroke="#1D1D1B" stroke-width="1.5" stroke-miterlimit="10"/>
<path d="M223.697 213.379H175.643C175.413 213.379 175.184 213.543 175.053 213.838L173.086 217.9C172.889 218.293 172.889 218.85 173.086 219.244L175.085 223.339C175.217 223.634 175.446 223.798 175.676 223.798H223.729C223.959 223.798 224.188 223.634 224.319 223.339L226.286 219.276C226.483 218.883 226.483 218.326 226.286 217.933L224.287 213.838C224.155 213.543 223.926 213.379 223.697 213.379Z" fill="white" stroke="#1D1D1B" stroke-miterlimit="10"/>
<path d="M274.963 188.282H262.441V174.029H265.752V185.759H274.963V188.282Z" fill="black"/>
<path d="M244.118 152.012H252.444V211.707H244.151" stroke="black" stroke-miterlimit="10" stroke-dasharray="4 4"/>
<path d="M172.756 218.684H226.578" stroke="black"/>
</svg>
