<svg width="286" height="332" viewBox="0 0 286 332" fill="none" xmlns="http://www.w3.org/2000/svg">
<rect width="285.963" height="332" rx="10" fill="#D9D9D9"/>
<path fill-rule="evenodd" clip-rule="evenodd" d="M150.497 261.541C151.448 257.314 152.366 252.4 153.284 246.961C154.234 241.293 155.119 235.133 156.037 228.744C156.496 225.599 156.922 222.421 157.381 219.21L157.545 217.998C157.774 216.393 158.004 214.787 158.233 213.182V212.887C158.364 212.133 158.496 211.38 158.594 210.626C159.774 202.271 160.987 193.982 162.265 186.217C162.363 185.66 162.462 185.136 162.527 184.612C163.904 176.421 165.379 168.918 167.018 162.693C168.624 168.918 170.132 176.454 171.509 184.644C171.607 185.169 171.673 185.693 171.771 186.217C173.082 193.982 174.295 202.304 175.475 210.626C175.573 211.412 175.672 212.166 175.803 212.887V213.182C176.065 214.754 176.294 216.327 176.524 217.9L176.753 219.571C176.95 220.979 177.147 222.356 177.343 223.732H180.031C179.966 223.273 179.9 222.814 179.835 222.388C179.671 221.34 179.54 220.291 179.376 219.243C178.95 216.262 178.523 213.28 178.097 210.298V210.069C177.048 202.337 175.901 194.572 174.557 186.741C174.426 185.889 174.262 185.07 174.131 184.219C172.918 177.305 171.64 170.327 169.903 163.512V163.479C169.771 163.02 169.673 162.562 169.542 162.103L166.985 152.307L164.428 162.103C164.297 162.562 164.199 163.02 164.068 163.479V163.545C162.462 169.966 161.314 176.552 160.167 183.072C160.102 183.465 160.036 183.858 159.971 184.251C159.839 185.103 159.676 185.922 159.544 186.774C158.233 194.605 157.086 202.37 156.037 210.102V210.331C155.545 213.411 155.119 216.524 154.66 219.603C154.529 220.554 154.398 221.471 154.267 222.421C153.12 230.546 152.005 238.639 150.629 246.633C149.842 251.45 148.957 256.299 147.81 261.017C147.711 261.377 147.646 261.738 147.547 262.098" fill="black"/>
<path fill-rule="evenodd" clip-rule="evenodd" d="M206.779 54.5722C206.779 54.8343 206.746 55.1292 206.713 55.4896C206.385 59.7489 205.631 69.8074 206.91 72.5268C209.86 78.4898 212.154 85.3702 214.187 91.5953C217.137 100.9 219.694 110.434 221.595 119.969C222.218 123.114 222.808 126.39 223.332 129.732C224.283 135.859 224.938 142.183 224.971 148.244C224.971 150.57 224.905 152.896 224.676 155.124C224.578 156.369 224.479 157.614 224.348 158.859C223.594 167.148 222.611 175.339 221.595 183.53C221.136 187.298 220.677 191.066 220.185 194.834C218.972 204.434 217.76 214.066 216.842 223.666H219.562C220.447 214.001 221.791 203.189 223.168 192.082C223.496 189.33 223.856 186.577 224.184 183.825C225.069 176.715 225.889 169.606 226.61 162.758C226.872 160.268 227.102 157.778 227.331 155.354C227.462 153.748 227.56 152.143 227.593 150.504C227.593 149.751 227.593 148.997 227.593 148.244C227.593 145.557 227.429 142.739 227.2 139.889V139.725C227.134 139.004 227.069 138.284 227.003 137.563C227.003 137.301 226.938 137.006 226.905 136.744C226.905 136.613 226.905 136.482 226.872 136.383C226.643 134.188 226.348 131.993 225.987 129.765C225.692 127.766 225.331 125.768 224.971 123.769C224.709 122.393 224.446 120.984 224.151 119.576C222.086 109.419 219.333 99.393 216.645 90.9072C213.924 82.3886 211.237 75.4427 209.335 71.4456C208.582 69.8401 208.811 63.5495 209.467 54.8999C209.499 54.2773 209.565 53.7204 209.598 53.1306M114.768 253.71L117.292 254.333V254.267C118.21 250.336 118.308 245.749 118.308 241.653C118.308 236.051 117.817 230.317 117.292 224.747C116.44 214.525 115.162 204.27 113.883 194.048C113.457 190.542 112.998 187.036 112.572 183.498C111.556 175.307 110.573 167.116 109.819 158.826C109.72 157.581 109.589 156.336 109.491 155.091C109.294 152.863 109.196 150.537 109.196 148.211C109.196 142.084 109.852 135.695 110.802 129.536C111.327 126.259 111.917 123.016 112.572 119.936C114.506 110.402 117.03 100.835 119.98 91.5625C122.013 85.3046 124.307 78.457 127.126 72.4612C128.634 69.4797 127.618 57.9469 127.257 54.5395L124.569 52.9668C124.602 53.5565 124.668 54.1463 124.7 54.736V54.8343C125.356 63.4512 125.585 69.7418 124.831 71.3145V71.38C122.832 75.3772 120.144 82.2904 117.456 90.7434C114.736 99.262 112.015 109.255 109.95 119.412C109.688 120.821 109.393 122.197 109.163 123.573C108.803 125.604 108.442 127.635 108.147 129.634C107.819 131.862 107.524 134.09 107.295 136.285C107.295 136.416 107.295 136.547 107.262 136.678C107.262 136.908 107.196 137.17 107.196 137.399C107.131 138.12 107.065 138.808 107 139.496V139.66V139.791C106.77 142.674 106.639 145.492 106.606 148.178C106.606 148.932 106.606 149.718 106.606 150.439C106.639 152.11 106.738 153.715 106.869 155.255C107.098 157.713 107.328 160.17 107.59 162.693C108.278 169.573 109.13 176.65 110.015 183.76C110.343 186.512 110.704 189.231 111.032 191.951C112.474 203.549 113.883 214.885 114.768 224.878C115.326 231.071 115.686 236.706 115.719 241.588C115.752 246.437 115.49 250.532 114.801 253.612V253.678" fill="black"/>
<path d="M235.854 152.143H235.264V212.199H235.854V152.143Z" fill="black"/>
<path d="M238.476 211.707H232.641V212.69H238.476V211.707Z" fill="black"/>
<path d="M238.476 151.684H232.641V152.667H238.476V151.684Z" fill="black"/>
<path d="M165.107 151.545L9.62158 151.545" stroke="#1D1D1B" stroke-miterlimit="10" stroke-dasharray="4 4"/>
<path d="M168.493 161.743C173.77 183.367 175.409 207.612 178.589 223.24C181.145 235.854 187.275 241.523 196.355 241.523C211.4 241.523 217.071 235.265 219.857 220.816C220.611 216.819 223.889 189.756 223.889 189.756C225.856 174.914 226.642 165.412 226.642 161.35L168.46 161.776L168.493 161.743Z" fill="#D3D3D5" stroke="#1D1D1B" stroke-width="1.5" stroke-miterlimit="10"/>
<path d="M223.659 213.379H175.606C175.376 213.379 175.147 213.543 175.016 213.838L173.049 217.9C172.852 218.293 172.852 218.85 173.049 219.244L175.048 223.339C175.18 223.634 175.409 223.798 175.638 223.798H223.692C223.922 223.798 224.151 223.634 224.282 223.339L226.249 219.276C226.446 218.883 226.446 218.326 226.249 217.933L224.249 213.838C224.118 213.543 223.889 213.379 223.659 213.379Z" fill="white" stroke="#1D1D1B" stroke-miterlimit="10"/>
<path d="M274.926 188.282H262.404V174.029H265.715V185.759H274.926V188.282Z" fill="black"/>
<path d="M244.081 152.012H252.406V211.707H244.113" stroke="black" stroke-miterlimit="10" stroke-dasharray="4 4"/>
<path d="M172.718 218.684H226.54" stroke="black"/>
<path d="M17 163.4C20.42 163.4 21.554 165.398 21.554 167.558C21.554 169.97 20.132 171.734 16.658 171.734H11.654V176H9.44V163.4H17ZM16.658 169.88C18.602 169.88 19.268 168.872 19.268 167.558C19.268 166.136 18.494 165.272 16.622 165.272H11.654V169.88H16.658ZM28.0377 166.136C31.0797 166.136 33.5277 167.936 33.2757 171.914H24.6357C24.8877 173.552 26.0577 174.632 28.0737 174.632C29.9457 174.632 30.7377 173.732 31.0617 173.048H33.0057C32.5197 175.01 30.6477 176.27 28.0737 176.27C25.3377 176.27 22.6377 174.704 22.6377 171.212C22.6377 167.774 25.2837 166.136 28.0377 166.136ZM24.6897 170.294H31.2957C31.0077 168.782 29.9637 167.774 28.0377 167.774C26.2557 167.774 25.0317 168.782 24.6897 170.294ZM41.1658 166.136C41.5978 166.136 41.8498 166.154 42.2278 166.208V168.404H42.1558C41.7778 168.296 41.2918 168.224 40.6798 168.224C38.2498 168.224 37.3318 169.628 37.3318 171.122V176H35.0998V166.406H37.3318V168.206C37.7638 167.504 39.0958 166.136 41.1658 166.136ZM44.0295 176V166.406H46.2435V176H44.0295ZM45.1275 165.074C44.4435 165.074 43.9575 164.678 43.9575 163.994C43.9575 163.31 44.4435 162.914 45.1275 162.914C45.8295 162.914 46.3155 163.31 46.3155 163.994C46.3155 164.678 45.8295 165.074 45.1275 165.074ZM54.644 166.136C57.146 166.136 58.514 167.558 58.514 169.79V176H56.3V170.456C56.3 168.836 55.418 167.936 53.672 167.936C51.926 167.936 50.972 168.944 50.972 170.456V176H48.758V166.406H50.972V167.882C51.422 167.252 52.646 166.136 54.644 166.136ZM65.7076 166.136C68.7496 166.136 71.1976 167.936 70.9456 171.914H62.3056C62.5576 173.552 63.7276 174.632 65.7436 174.632C67.6156 174.632 68.4076 173.732 68.7316 173.048H70.6756C70.1896 175.01 68.3176 176.27 65.7436 176.27C63.0076 176.27 60.3076 174.704 60.3076 171.212C60.3076 167.774 62.9536 166.136 65.7076 166.136ZM62.3596 170.294H68.9656C68.6776 168.782 67.6336 167.774 65.7076 167.774C63.9256 167.774 62.7016 168.782 62.3596 170.294ZM77.5398 166.136C80.3478 166.136 83.0478 167.666 83.0478 171.212C83.0478 174.758 80.3478 176.27 77.5398 176.27C74.7318 176.27 72.0498 174.758 72.0498 171.212C72.0498 167.666 74.7318 166.136 77.5398 166.136ZM77.5398 174.632C80.1138 174.632 80.9958 172.886 80.9958 171.212C80.9958 169.52 80.1138 167.774 77.5398 167.774C74.9658 167.774 74.0838 169.52 74.0838 171.212C74.0838 172.886 74.9658 174.632 77.5398 174.632Z" fill="black"/>
</svg>
