<svg width="285" height="332" viewBox="0 0 285 332" fill="none" xmlns="http://www.w3.org/2000/svg">
<rect width="285" height="332" rx="10" fill="black"/>
<path d="M241.72 162V163.168H238.359V209H241.72V210.168H234V209H237.359V163.168H234V162H241.72Z" fill="white"/>
<path d="M67.2217 303L66.5117 301.44H62.5017L61.8017 303H60.4717L63.7117 296H65.3117L68.5517 303H67.2217ZM62.9717 300.4H66.0517L64.5117 296.97L62.9717 300.4ZM72.0579 299.88C73.5679 300.14 74.4179 300.34 74.4179 301.39C74.4179 302.63 73.3879 303.15 71.6079 303.15C69.9879 303.15 68.7479 302.59 68.7479 301.38H70.0179C70.0179 301.96 70.5879 302.22 71.7079 302.22C72.7979 302.22 73.1879 301.95 73.1879 301.55C73.1879 300.96 72.2979 300.95 70.9379 300.7C69.5579 300.44 68.9479 300.12 68.9479 299.17C68.9479 298.1 69.9479 297.52 71.5179 297.52C73.2279 297.52 74.1479 298.2 74.1479 299.19H72.9979C72.9979 298.85 72.6379 298.43 71.4979 298.43C70.4279 298.43 70.0579 298.7 70.0579 299.11C70.0579 299.65 71.1079 299.72 72.0579 299.88ZM78.2297 299.88C79.7397 300.14 80.5897 300.34 80.5897 301.39C80.5897 302.63 79.5597 303.15 77.7797 303.15C76.1597 303.15 74.9197 302.59 74.9197 301.38H76.1897C76.1897 301.96 76.7597 302.22 77.8797 302.22C78.9697 302.22 79.3597 301.95 79.3597 301.55C79.3597 300.96 78.4697 300.95 77.1097 300.7C75.7297 300.44 75.1197 300.12 75.1197 299.17C75.1197 298.1 76.1197 297.52 77.6897 297.52C79.3997 297.52 80.3197 298.2 80.3197 299.19H79.1697C79.1697 298.85 78.8097 298.43 77.6697 298.43C76.5997 298.43 76.2297 298.7 76.2297 299.11C76.2297 299.65 77.2797 299.72 78.2297 299.88ZM85.7816 297.67H87.0116V303H85.7816V302.18C85.5316 302.53 84.8516 303.15 83.7416 303.15C82.3516 303.15 81.5916 302.36 81.5916 301.12V297.67H82.8216V300.75C82.8216 301.65 83.3116 302.15 84.2816 302.15C85.2516 302.15 85.7816 301.59 85.7816 300.75V297.67ZM91.778 297.52C92.018 297.52 92.158 297.53 92.368 297.56V298.78H92.328C92.118 298.72 91.848 298.68 91.508 298.68C90.158 298.68 89.648 299.46 89.648 300.29V303H88.408V297.67H89.648V298.67C89.888 298.28 90.628 297.52 91.778 297.52ZM95.8713 297.52C97.5613 297.52 98.9213 298.52 98.7813 300.73H93.9813C94.1213 301.64 94.7713 302.24 95.8913 302.24C96.9313 302.24 97.3713 301.74 97.5513 301.36H98.6313C98.3613 302.45 97.3213 303.15 95.8913 303.15C94.3713 303.15 92.8713 302.28 92.8713 300.34C92.8713 298.43 94.3413 297.52 95.8713 297.52ZM94.0113 299.83H97.6813C97.5213 298.99 96.9413 298.43 95.8713 298.43C94.8813 298.43 94.2013 298.99 94.0113 299.83ZM101.009 301.96H104.629V303H99.2994V302.01L102.829 298.71H99.4894V297.67H104.539V298.66L101.009 301.96ZM105.832 299.76H109.012V300.61H105.832V299.76ZM114.68 297.67H115.98L113.59 303H112.3L109.91 297.67H111.21L112.95 301.8L114.68 297.67ZM119.232 297.52C120.792 297.52 122.292 298.37 122.292 300.34C122.292 302.31 120.792 303.15 119.232 303.15C117.672 303.15 116.182 302.31 116.182 300.34C116.182 298.37 117.672 297.52 119.232 297.52ZM119.232 302.24C120.662 302.24 121.152 301.27 121.152 300.34C121.152 299.4 120.662 298.43 119.232 298.43C117.802 298.43 117.312 299.4 117.312 300.34C117.312 301.27 117.802 302.24 119.232 302.24ZM127.481 297.67H128.711V303H127.481V302.18C127.231 302.53 126.551 303.15 125.441 303.15C124.051 303.15 123.291 302.36 123.291 301.12V297.67H124.521V300.75C124.521 301.65 125.011 302.15 125.981 302.15C126.951 302.15 127.481 301.59 127.481 300.75V297.67ZM132.917 299.88C134.427 300.14 135.277 300.34 135.277 301.39C135.277 302.63 134.247 303.15 132.467 303.15C130.847 303.15 129.607 302.59 129.607 301.38H130.877C130.877 301.96 131.447 302.22 132.567 302.22C133.657 302.22 134.047 301.95 134.047 301.55C134.047 300.96 133.157 300.95 131.797 300.7C130.417 300.44 129.807 300.12 129.807 299.17C129.807 298.1 130.807 297.52 132.377 297.52C134.087 297.52 135.007 298.2 135.007 299.19H133.857C133.857 298.85 133.497 298.43 132.357 298.43C131.287 298.43 130.917 298.7 130.917 299.11C130.917 299.65 131.967 299.72 132.917 299.88ZM143.499 296H144.729V303H143.499V302.3C143.079 302.81 142.439 303.15 141.549 303.15C139.989 303.15 138.779 302.14 138.779 300.34C138.779 298.53 139.989 297.52 141.549 297.52C142.439 297.52 143.079 297.86 143.499 298.37V296ZM141.789 302.24C143.059 302.24 143.689 301.44 143.689 300.34C143.689 299.23 143.079 298.43 141.789 298.43C140.489 298.43 139.919 299.21 139.919 300.34C139.919 301.46 140.509 302.24 141.789 302.24ZM148.733 297.52C150.423 297.52 151.783 298.52 151.643 300.73H146.843C146.983 301.64 147.633 302.24 148.753 302.24C149.793 302.24 150.233 301.74 150.413 301.36H151.493C151.223 302.45 150.183 303.15 148.753 303.15C147.233 303.15 145.733 302.28 145.733 300.34C145.733 298.43 147.203 297.52 148.733 297.52ZM146.873 299.83H150.543C150.383 298.99 149.803 298.43 148.733 298.43C147.743 298.43 147.063 298.99 146.873 299.83ZM162.356 297.52C163.746 297.52 164.416 298.31 164.416 299.55V303H163.176V299.92C163.176 299.02 162.846 298.52 161.906 298.52C160.976 298.52 160.596 299.12 160.596 299.92V303H159.366V299.92C159.366 299.02 159.026 298.52 158.096 298.52C157.166 298.52 156.786 299.12 156.786 299.92V303H155.556V297.67H156.786V298.45C156.986 298.1 157.496 297.52 158.536 297.52C159.456 297.52 160.056 297.86 160.356 298.45C160.626 298.09 161.286 297.52 162.356 297.52ZM168.42 297.52C170.11 297.52 171.47 298.52 171.33 300.73H166.53C166.67 301.64 167.32 302.24 168.44 302.24C169.48 302.24 169.92 301.74 170.1 301.36H171.18C170.91 302.45 169.87 303.15 168.44 303.15C166.92 303.15 165.42 302.28 165.42 300.34C165.42 298.43 166.89 297.52 168.42 297.52ZM166.56 299.83H170.23C170.07 298.99 169.49 298.43 168.42 298.43C167.43 298.43 166.75 298.99 166.56 299.83ZM175.154 299.88C176.664 300.14 177.514 300.34 177.514 301.39C177.514 302.63 176.484 303.15 174.704 303.15C173.084 303.15 171.844 302.59 171.844 301.38H173.114C173.114 301.96 173.684 302.22 174.804 302.22C175.894 302.22 176.284 301.95 176.284 301.55C176.284 300.96 175.394 300.95 174.034 300.7C172.654 300.44 172.044 300.12 172.044 299.17C172.044 298.1 173.044 297.52 174.614 297.52C176.324 297.52 177.244 298.2 177.244 299.19H176.094C176.094 298.85 175.734 298.43 174.594 298.43C173.524 298.43 173.154 298.7 173.154 299.11C173.154 299.65 174.204 299.72 175.154 299.88ZM182.705 297.67H183.935V303H182.705V302.18C182.455 302.53 181.775 303.15 180.665 303.15C179.275 303.15 178.515 302.36 178.515 301.12V297.67H179.745V300.75C179.745 301.65 180.235 302.15 181.205 302.15C182.175 302.15 182.705 301.59 182.705 300.75V297.67ZM188.702 297.52C188.942 297.52 189.082 297.53 189.292 297.56V298.78H189.252C189.042 298.72 188.772 298.68 188.432 298.68C187.082 298.68 186.572 299.46 186.572 300.29V303H185.332V297.67H186.572V298.67C186.812 298.28 187.552 297.52 188.702 297.52ZM192.795 297.52C194.485 297.52 195.845 298.52 195.705 300.73H190.905C191.045 301.64 191.695 302.24 192.815 302.24C193.855 302.24 194.295 301.74 194.475 301.36H195.555C195.285 302.45 194.245 303.15 192.815 303.15C191.295 303.15 189.795 302.28 189.795 300.34C189.795 298.43 191.265 297.52 192.795 297.52ZM190.935 299.83H194.605C194.445 298.99 193.865 298.43 192.795 298.43C191.805 298.43 191.125 298.99 190.935 299.83ZM200.089 297.52C200.329 297.52 200.469 297.53 200.679 297.56V298.78H200.639C200.429 298.72 200.159 298.68 199.819 298.68C198.469 298.68 197.959 299.46 197.959 300.29V303H196.719V297.67H197.959V298.67C198.199 298.28 198.939 297.52 200.089 297.52ZM208.9 296H210.13V303H208.9V302.3C208.48 302.81 207.84 303.15 206.95 303.15C205.39 303.15 204.18 302.14 204.18 300.34C204.18 298.53 205.39 297.52 206.95 297.52C207.84 297.52 208.48 297.86 208.9 298.37V296ZM207.19 302.24C208.46 302.24 209.09 301.44 209.09 300.34C209.09 299.23 208.48 298.43 207.19 298.43C205.89 298.43 205.32 299.21 205.32 300.34C205.32 301.46 205.91 302.24 207.19 302.24ZM214.133 297.52C215.823 297.52 217.183 298.52 217.043 300.73H212.243C212.383 301.64 213.033 302.24 214.153 302.24C215.193 302.24 215.633 301.74 215.813 301.36H216.893C216.623 302.45 215.583 303.15 214.153 303.15C212.633 303.15 211.133 302.28 211.133 300.34C211.133 298.43 212.603 297.52 214.133 297.52ZM212.273 299.83H215.943C215.783 298.99 215.203 298.43 214.133 298.43C213.143 298.43 212.463 298.99 212.273 299.83ZM220.866 299.88C222.376 300.14 223.226 300.34 223.226 301.39C223.226 302.63 222.196 303.15 220.416 303.15C218.796 303.15 217.556 302.59 217.556 301.38H218.826C218.826 301.96 219.396 302.22 220.516 302.22C221.606 302.22 221.996 301.95 221.996 301.55C221.996 300.96 221.106 300.95 219.746 300.7C218.366 300.44 217.756 300.12 217.756 299.17C217.756 298.1 218.756 297.52 220.326 297.52C222.036 297.52 222.956 298.2 222.956 299.19H221.806C221.806 298.85 221.446 298.43 220.306 298.43C219.236 298.43 218.866 298.7 218.866 299.11C218.866 299.65 219.916 299.72 220.866 299.88ZM92.0835 309H93.3135V316H92.0835V315.3C91.6635 315.81 91.0235 316.15 90.1335 316.15C88.5735 316.15 87.3635 315.14 87.3635 313.34C87.3635 311.53 88.5735 310.52 90.1335 310.52C91.0235 310.52 91.6635 310.86 92.0835 311.37V309ZM90.3735 315.24C91.6435 315.24 92.2735 314.44 92.2735 313.34C92.2735 312.23 91.6635 311.43 90.3735 311.43C89.0735 311.43 88.5035 312.21 88.5035 313.34C88.5035 314.46 89.0935 315.24 90.3735 315.24ZM94.7166 316V310.67H95.9466V316H94.7166ZM95.3266 309.93C94.9466 309.93 94.6766 309.71 94.6766 309.33C94.6766 308.95 94.9466 308.73 95.3266 308.73C95.7166 308.73 95.9866 308.95 95.9866 309.33C95.9866 309.71 95.7166 309.93 95.3266 309.93ZM104.144 310.52C105.534 310.52 106.204 311.31 106.204 312.55V316H104.964V312.92C104.964 312.02 104.634 311.52 103.694 311.52C102.764 311.52 102.384 312.12 102.384 312.92V316H101.154V312.92C101.154 312.02 100.814 311.52 99.8836 311.52C98.9536 311.52 98.5736 312.12 98.5736 312.92V316H97.3436V310.67H98.5736V311.45C98.7736 311.1 99.2836 310.52 100.324 310.52C101.244 310.52 101.844 310.86 102.144 311.45C102.414 311.09 103.074 310.52 104.144 310.52ZM110.207 310.52C111.897 310.52 113.257 311.52 113.117 313.73H108.317C108.457 314.64 109.107 315.24 110.227 315.24C111.267 315.24 111.707 314.74 111.887 314.36H112.967C112.697 315.45 111.657 316.15 110.227 316.15C108.707 316.15 107.207 315.28 107.207 313.34C107.207 311.43 108.677 310.52 110.207 310.52ZM108.347 312.83H112.017C111.857 311.99 111.277 311.43 110.207 311.43C109.217 311.43 108.537 311.99 108.347 312.83ZM117.401 310.52C118.791 310.52 119.551 311.31 119.551 312.55V316H118.321V312.92C118.321 312.02 117.831 311.52 116.861 311.52C115.891 311.52 115.361 312.08 115.361 312.92V316H114.131V310.67H115.361V311.49C115.611 311.14 116.291 310.52 117.401 310.52ZM123.757 312.88C125.267 313.14 126.117 313.34 126.117 314.39C126.117 315.63 125.087 316.15 123.307 316.15C121.687 316.15 120.447 315.59 120.447 314.38H121.717C121.717 314.96 122.287 315.22 123.407 315.22C124.497 315.22 124.887 314.95 124.887 314.55C124.887 313.96 123.997 313.95 122.637 313.7C121.257 313.44 120.647 313.12 120.647 312.17C120.647 311.1 121.647 310.52 123.217 310.52C124.927 310.52 125.847 311.2 125.847 312.19H124.697C124.697 311.85 124.337 311.43 123.197 311.43C122.127 311.43 121.757 311.7 121.757 312.11C121.757 312.65 122.807 312.72 123.757 312.88ZM127.119 316V310.67H128.349V316H127.119ZM127.729 309.93C127.349 309.93 127.079 309.71 127.079 309.33C127.079 308.95 127.349 308.73 127.729 308.73C128.119 308.73 128.389 308.95 128.389 309.33C128.389 309.71 128.119 309.93 127.729 309.93ZM132.396 310.52C133.956 310.52 135.456 311.37 135.456 313.34C135.456 315.31 133.956 316.15 132.396 316.15C130.836 316.15 129.346 315.31 129.346 313.34C129.346 311.37 130.836 310.52 132.396 310.52ZM132.396 315.24C133.826 315.24 134.316 314.27 134.316 313.34C134.316 312.4 133.826 311.43 132.396 311.43C130.966 311.43 130.476 312.4 130.476 313.34C130.476 314.27 130.966 315.24 132.396 315.24ZM139.725 310.52C141.115 310.52 141.875 311.31 141.875 312.55V316H140.645V312.92C140.645 312.02 140.155 311.52 139.185 311.52C138.215 311.52 137.685 312.08 137.685 312.92V316H136.455V310.67H137.685V311.49C137.935 311.14 138.615 310.52 139.725 310.52ZM146.081 312.88C147.591 313.14 148.441 313.34 148.441 314.39C148.441 315.63 147.411 316.15 145.631 316.15C144.011 316.15 142.771 315.59 142.771 314.38H144.041C144.041 314.96 144.611 315.22 145.731 315.22C146.821 315.22 147.211 314.95 147.211 314.55C147.211 313.96 146.321 313.95 144.961 313.7C143.581 313.44 142.971 313.12 142.971 312.17C142.971 311.1 143.971 310.52 145.541 310.52C147.251 310.52 148.171 311.2 148.171 312.19H147.021C147.021 311.85 146.661 311.43 145.521 311.43C144.451 311.43 144.081 311.7 144.081 312.11C144.081 312.65 145.131 312.72 146.081 312.88ZM152.344 308.62H153.574V316H152.344V308.62ZM154.971 316V310.67H156.201V316H154.971ZM155.581 309.93C155.201 309.93 154.931 309.71 154.931 309.33C154.931 308.95 155.201 308.73 155.581 308.73C155.971 308.73 156.241 308.95 156.241 309.33C156.241 309.71 155.971 309.93 155.581 309.93ZM160.867 310.52C162.257 310.52 163.017 311.31 163.017 312.55V316H161.787V312.92C161.787 312.02 161.297 311.52 160.327 311.52C159.357 311.52 158.827 312.08 158.827 312.92V316H157.597V310.67H158.827V311.49C159.077 311.14 159.757 310.52 160.867 310.52ZM167.014 310.52C168.704 310.52 170.064 311.52 169.924 313.73H165.124C165.264 314.64 165.914 315.24 167.034 315.24C168.074 315.24 168.514 314.74 168.694 314.36H169.774C169.504 315.45 168.464 316.15 167.034 316.15C165.514 316.15 164.014 315.28 164.014 313.34C164.014 311.43 165.484 310.52 167.014 310.52ZM165.154 312.83H168.824C168.664 311.99 168.084 311.43 167.014 311.43C166.024 311.43 165.344 311.99 165.154 312.83ZM167.294 308.65H168.594L167.354 309.94H166.554L167.294 308.65ZM173.327 310.52C174.797 310.52 176.047 311.01 176.047 312.54V316H174.817V315.31C174.557 315.61 173.917 316.15 172.667 316.15C171.387 316.15 170.537 315.62 170.537 314.6C170.537 313.5 171.137 312.63 174.817 312.87V312.54C174.817 311.8 174.437 311.43 173.327 311.43C172.377 311.43 171.987 311.74 171.897 312.19H170.747C170.907 311.07 171.947 310.52 173.327 310.52ZM174.817 314.5V313.61C172.597 313.5 171.797 313.69 171.797 314.52C171.797 315.06 172.217 315.33 172.927 315.33C173.867 315.33 174.487 314.98 174.817 314.5ZM177.451 316V310.67H178.681V316H177.451ZM178.061 309.93C177.681 309.93 177.411 309.71 177.411 309.33C177.411 308.95 177.681 308.73 178.061 308.73C178.451 308.73 178.721 308.95 178.721 309.33C178.721 309.71 178.451 309.93 178.061 309.93ZM183.448 310.52C183.688 310.52 183.828 310.53 184.038 310.56V311.78H183.998C183.788 311.72 183.518 311.68 183.178 311.68C181.828 311.68 181.318 312.46 181.318 313.29V316H180.078V310.67H181.318V311.67C181.558 311.28 182.298 310.52 183.448 310.52ZM187.541 310.52C189.231 310.52 190.591 311.52 190.451 313.73H185.651C185.791 314.64 186.441 315.24 187.561 315.24C188.601 315.24 189.041 314.74 189.221 314.36H190.301C190.031 315.45 188.991 316.15 187.561 316.15C186.041 316.15 184.541 315.28 184.541 313.34C184.541 311.43 186.011 310.52 187.541 310.52ZM185.681 312.83H189.351C189.191 311.99 188.611 311.43 187.541 311.43C186.551 311.43 185.871 311.99 185.681 312.83ZM194.275 312.88C195.785 313.14 196.635 313.34 196.635 314.39C196.635 315.63 195.605 316.15 193.825 316.15C192.205 316.15 190.965 315.59 190.965 314.38H192.235C192.235 314.96 192.805 315.22 193.925 315.22C195.015 315.22 195.405 314.95 195.405 314.55C195.405 313.96 194.515 313.95 193.155 313.7C191.775 313.44 191.165 313.12 191.165 312.17C191.165 311.1 192.165 310.52 193.735 310.52C195.445 310.52 196.365 311.2 196.365 312.19H195.215C195.215 311.85 194.855 311.43 193.715 311.43C192.645 311.43 192.275 311.7 192.275 312.11C192.275 312.65 193.325 312.72 194.275 312.88Z" fill="white"/>
<path d="M200.245 223.295C190.565 223.295 185.648 210.39 184.91 204.641H187.399C187.953 207.576 192.101 221.216 200.092 221.216C215.519 221.216 219.822 214.274 221.604 204.763H224.124C221.635 214.427 218.131 223.295 200.276 223.295H200.245Z" fill="white"/>
<path fill-rule="evenodd" clip-rule="evenodd" d="M160.847 253.569C161.738 249.685 162.599 245.128 163.428 240.113C164.289 234.883 165.149 229.195 166.01 223.293C166.44 220.388 166.84 217.452 167.27 214.486L167.424 213.385C167.639 211.917 167.854 210.418 168.038 208.92V208.645C168.161 207.941 168.284 207.268 168.376 206.565C169.452 198.858 170.589 191.182 171.788 184.026C171.88 183.537 171.941 183.017 172.033 182.528C173.324 174.974 174.676 168.032 176.182 162.314C177.688 168.063 179.071 175.005 180.362 182.589C180.454 183.078 180.516 183.568 180.608 184.026C181.806 191.213 182.943 198.889 184.05 206.565C184.142 207.299 184.234 207.972 184.357 208.675V208.95C184.603 210.388 184.818 211.856 185.002 213.293L185.218 214.822C185.402 216.106 185.586 217.391 185.771 218.675H188.26C188.199 218.247 188.137 217.85 188.076 217.421C187.953 216.443 187.799 215.464 187.676 214.516C187.277 211.764 186.908 209.012 186.478 206.259V206.045C185.494 198.889 184.418 191.733 183.22 184.516C183.097 183.721 182.943 182.956 182.82 182.192C181.714 175.831 180.516 169.347 178.887 163.078V163.047C178.764 162.619 178.672 162.191 178.549 161.763L176.182 152.711L173.816 161.763C173.693 162.191 173.601 162.619 173.478 163.047V163.109C171.972 169.041 170.927 175.127 169.851 181.121C169.79 181.488 169.729 181.855 169.667 182.222C169.544 182.987 169.391 183.782 169.268 184.546C168.038 191.794 166.993 198.95 166.01 206.106V206.32C165.549 209.164 165.149 212.039 164.75 214.883C164.627 215.739 164.504 216.626 164.381 217.483C163.336 224.975 162.261 232.468 161.001 239.838C160.294 244.303 159.464 248.768 158.388 253.11C158.296 253.446 158.235 253.783 158.143 254.119" fill="white"/>
<path fill-rule="evenodd" clip-rule="evenodd" d="M213.061 62.4367C213.061 62.6813 213.03 62.9565 213 63.2929C212.692 67.2074 211.986 76.5347 213.184 79.0424C215.919 84.5471 218.04 90.9081 219.914 96.6574C222.65 105.251 225.016 114.058 226.798 122.866C227.382 125.771 227.905 128.799 228.396 131.887C229.257 137.545 229.872 143.386 229.902 148.982C229.902 151.154 229.841 153.264 229.626 155.343C229.534 156.505 229.441 157.637 229.349 158.799C228.673 166.444 227.72 174.029 226.798 181.582C226.368 185.069 225.938 188.555 225.477 192.041C224.34 200.91 223.233 209.809 222.373 218.678H224.924C225.754 209.778 227.014 199.748 228.274 189.503C228.581 186.965 228.919 184.426 229.226 181.858C230.025 175.313 230.824 168.738 231.47 162.408C231.716 160.083 231.931 157.82 232.115 155.588C232.238 154.12 232.33 152.622 232.361 151.093C232.361 150.42 232.361 149.716 232.361 149.013C232.361 146.536 232.207 143.936 231.992 141.306V141.154C231.931 140.481 231.869 139.808 231.808 139.135C231.808 138.89 231.746 138.615 231.716 138.371C231.716 138.248 231.716 138.126 231.685 138.034C231.47 136.016 231.193 133.967 230.886 131.918C230.609 130.083 230.302 128.218 229.964 126.383C229.718 125.098 229.472 123.814 229.226 122.529C227.321 113.141 224.77 103.905 222.25 96.0458C219.73 88.1863 217.241 81.7642 215.458 78.0638C214.782 76.5959 214.967 70.7854 215.581 62.7731C215.612 62.2226 215.673 61.6721 215.704 61.1217M130.054 246.935V246.874C130.884 243.235 131.007 239.014 131.007 235.222C131.007 230.054 130.546 224.763 130.054 219.595C129.255 210.145 128.056 200.696 126.889 191.246C126.489 188.004 126.059 184.763 125.69 181.521C124.768 173.967 123.815 166.383 123.139 158.738C123.047 157.606 122.924 156.444 122.832 155.282C122.648 153.203 122.555 151.093 122.555 148.921C122.555 143.264 123.17 137.361 124.061 131.673C124.522 128.646 125.106 125.679 125.69 122.805C127.472 113.997 129.839 105.159 132.574 96.5962C134.479 90.8163 136.6 84.4859 139.212 78.9813C140.626 76.2289 139.673 65.5866 139.335 62.4367L136.846 60.9688C136.876 61.5192 136.938 62.0697 136.969 62.5896V62.6813C137.583 70.6631 137.768 76.443 137.092 77.9109V77.9721C135.248 81.6724 132.758 88.064 130.238 95.8623C127.718 103.722 125.198 112.957 123.293 122.346C123.047 123.63 122.801 124.915 122.555 126.169C122.217 128.034 121.91 129.9 121.603 131.765C121.295 133.845 121.019 135.893 120.804 137.912C120.804 138.034 120.804 138.157 120.773 138.279C120.773 138.493 120.711 138.738 120.711 138.952C120.65 139.594 120.588 140.267 120.527 140.909V141.062V141.184C120.312 143.845 120.189 146.444 120.158 148.921C120.158 149.625 120.158 150.328 120.158 151.031C120.189 152.56 120.281 154.059 120.404 155.496C120.588 157.759 120.834 160.053 121.049 162.347C121.695 168.677 122.494 175.252 123.293 181.796C123.6 184.335 123.908 186.873 124.246 189.381C125.598 200.084 126.889 210.574 127.718 219.779C128.241 225.497 128.548 230.696 128.61 235.192C128.64 239.687 128.394 243.449 127.78 246.293V246.354" fill="white"/>
<path d="M176.705 163.172C181.684 182.836 183.22 204.915 186.201 219.136C188.598 230.604 194.376 235.772 202.92 235.772C217.056 235.772 222.404 230.084 225.016 216.934C225.753 213.295 228.827 188.646 228.827 188.646C230.671 175.16 231.439 166.505 231.439 162.805L176.736 163.172H176.705Z" fill="#2D2D2D"/>
<path d="M202.92 236.326C193.854 236.326 188.045 230.577 185.648 219.262C184.45 213.512 183.466 206.448 182.421 198.925C180.885 187.732 179.102 175.041 176.152 163.328L175.968 162.655L231.931 162.258V162.808C231.931 167.12 230.947 176.815 229.319 188.741C229.196 189.751 226.245 213.451 225.508 217.06C222.711 231.127 216.565 236.357 202.858 236.357L202.92 236.326ZM177.412 163.726C180.301 175.316 182.022 187.763 183.528 198.772C184.573 206.265 185.556 213.329 186.724 219.017C188.998 229.904 194.315 235.225 202.889 235.225C216.104 235.225 221.728 230.424 224.432 216.815C225.139 213.237 228.182 188.833 228.212 188.589C229.78 177.182 230.732 167.854 230.794 163.359L177.351 163.726H177.412Z" fill="white"/>
<path d="M227.45 210H182.514C182.294 210 182.075 210.125 181.965 210.351L180.137 213.486C179.954 213.787 179.954 214.213 180.137 214.514L182.002 217.649C182.148 217.875 182.331 218 182.55 218H227.486C227.706 218 227.925 217.875 228.035 217.649L229.863 214.514C230.046 214.213 230.046 213.787 229.863 213.486L227.998 210.351C227.852 210.125 227.669 210 227.45 210Z" fill="black" stroke="white" stroke-miterlimit="10"/>
<path d="M180 214L230 214" stroke="white" stroke-miterlimit="10"/>
<path d="M276 196H259V177H263.495V192.637H276V196Z" fill="white"/>
<path d="M173.785 157.703H9" stroke="white" stroke-miterlimit="10" stroke-dasharray="1.18 1.18 1.18 1.18 1.18 1.18 1.18 1.18"/>
<path d="M245 162H253V210H245" stroke="white" stroke-miterlimit="10" stroke-dasharray="4 4"/>
<path d="M18 163.4C21.42 163.4 22.554 165.398 22.554 167.558C22.554 169.97 21.132 171.734 17.658 171.734H12.654V176H10.44V163.4H18ZM17.658 169.88C19.602 169.88 20.268 168.872 20.268 167.558C20.268 166.136 19.494 165.272 17.622 165.272H12.654V169.88H17.658ZM29.0377 166.136C32.0797 166.136 34.5277 167.936 34.2757 171.914H25.6357C25.8877 173.552 27.0577 174.632 29.0737 174.632C30.9457 174.632 31.7377 173.732 32.0617 173.048H34.0057C33.5197 175.01 31.6477 176.27 29.0737 176.27C26.3377 176.27 23.6377 174.704 23.6377 171.212C23.6377 167.774 26.2837 166.136 29.0377 166.136ZM25.6897 170.294H32.2957C32.0077 168.782 30.9637 167.774 29.0377 167.774C27.2557 167.774 26.0317 168.782 25.6897 170.294ZM29.5417 162.77H31.8817L29.6497 165.092H28.2097L29.5417 162.77ZM42.1658 166.136C42.5978 166.136 42.8498 166.154 43.2278 166.208V168.404H43.1558C42.7778 168.296 42.2918 168.224 41.6798 168.224C39.2498 168.224 38.3318 169.628 38.3318 171.122V176H36.0998V166.406H38.3318V168.206C38.7638 167.504 40.0958 166.136 42.1658 166.136ZM45.0295 176V166.406H47.2435V176H45.0295ZM46.1275 165.074C45.4435 165.074 44.9575 164.678 44.9575 163.994C44.9575 163.31 45.4435 162.914 46.1275 162.914C46.8295 162.914 47.3155 163.31 47.3155 163.994C47.3155 164.678 46.8295 165.074 46.1275 165.074ZM55.644 166.136C58.146 166.136 59.514 167.558 59.514 169.79V176H57.3V170.456C57.3 168.836 56.418 167.936 54.672 167.936C52.926 167.936 51.972 168.944 51.972 170.456V176H49.758V166.406H51.972V167.882C52.422 167.252 53.646 166.136 55.644 166.136ZM66.7076 166.136C69.7496 166.136 72.1976 167.936 71.9456 171.914H63.3056C63.5576 173.552 64.7276 174.632 66.7436 174.632C68.6156 174.632 69.4076 173.732 69.7316 173.048H71.6756C71.1896 175.01 69.3176 176.27 66.7436 176.27C64.0076 176.27 61.3076 174.704 61.3076 171.212C61.3076 167.774 63.9536 166.136 66.7076 166.136ZM63.3596 170.294H69.9656C69.6776 168.782 68.6336 167.774 66.7076 167.774C64.9256 167.774 63.7016 168.782 63.3596 170.294ZM67.2116 162.77H69.5516L67.3196 165.092H65.8796L67.2116 162.77ZM78.4498 166.136C81.4918 166.136 83.9398 167.936 83.6878 171.914H75.0478C75.2998 173.552 76.4698 174.632 78.4858 174.632C80.3578 174.632 81.1498 173.732 81.4738 173.048H83.4178C82.9318 175.01 81.0598 176.27 78.4858 176.27C75.7498 176.27 73.0498 174.704 73.0498 171.212C73.0498 167.774 75.6958 166.136 78.4498 166.136ZM75.1018 170.294H81.7078C81.4198 168.782 80.3758 167.774 78.4498 167.774C76.6678 167.774 75.4438 168.782 75.1018 170.294Z" fill="white"/>
</svg>
