<svg width="132" height="187" viewBox="0 0 132 187" fill="none" xmlns="http://www.w3.org/2000/svg">
<rect width="132" height="187" rx="10" fill="white"/>
<path d="M45.379 172.944C47.335 172.944 48.067 171.78 48.307 170.676H49.855C49.471 173.052 47.575 174.18 45.379 174.18C43.051 174.18 40.771 172.908 40.771 169.8C40.771 166.692 43.051 165.432 45.379 165.432C47.575 165.432 49.471 166.56 49.855 168.936H48.307C48.067 167.832 47.335 166.668 45.379 166.668C43.363 166.668 42.295 167.868 42.295 169.8C42.295 171.732 43.363 172.944 45.379 172.944ZM54.354 167.424C56.226 167.424 58.026 168.444 58.026 170.808C58.026 173.172 56.226 174.18 54.354 174.18C52.482 174.18 50.694 173.172 50.694 170.808C50.694 168.444 52.482 167.424 54.354 167.424ZM54.354 173.088C56.07 173.088 56.658 171.924 56.658 170.808C56.658 169.68 56.07 168.516 54.354 168.516C52.638 168.516 52.05 169.68 52.05 170.808C52.05 171.924 52.638 173.088 54.354 173.088ZM64.2528 167.604H65.7288V174H64.2528V173.016C63.9528 173.436 63.1368 174.18 61.8048 174.18C60.1368 174.18 59.2248 173.232 59.2248 171.744V167.604H60.7008V171.3C60.7008 172.38 61.2888 172.98 62.4528 172.98C63.6168 172.98 64.2528 172.308 64.2528 171.3V167.604ZM70.7765 170.256C72.5885 170.568 73.6085 170.808 73.6085 172.068C73.6085 173.556 72.3725 174.18 70.2365 174.18C68.2925 174.18 66.8045 173.508 66.8045 172.056H68.3285C68.3285 172.752 69.0125 173.064 70.3565 173.064C71.6645 173.064 72.1325 172.74 72.1325 172.26C72.1325 171.552 71.0645 171.54 69.4325 171.24C67.7765 170.928 67.0445 170.544 67.0445 169.404C67.0445 168.12 68.2445 167.424 70.1285 167.424C72.1805 167.424 73.2845 168.24 73.2845 169.428H71.9045C71.9045 169.02 71.4725 168.516 70.1045 168.516C68.8205 168.516 68.3765 168.84 68.3765 169.332C68.3765 169.98 69.6365 170.064 70.7765 170.256ZM78.1827 170.256C79.9947 170.568 81.0147 170.808 81.0147 172.068C81.0147 173.556 79.7787 174.18 77.6427 174.18C75.6987 174.18 74.2107 173.508 74.2107 172.056H75.7347C75.7347 172.752 76.4187 173.064 77.7627 173.064C79.0707 173.064 79.5387 172.74 79.5387 172.26C79.5387 171.552 78.4707 171.54 76.8387 171.24C75.1827 170.928 74.4507 170.544 74.4507 169.404C74.4507 168.12 75.6507 167.424 77.5347 167.424C79.5867 167.424 80.6907 168.24 80.6907 169.428H79.3107C79.3107 169.02 78.8787 168.516 77.5107 168.516C76.2267 168.516 75.7827 168.84 75.7827 169.332C75.7827 169.98 77.0427 170.064 78.1827 170.256ZM82.217 174V167.604H83.693V174H82.217ZM82.949 166.716C82.493 166.716 82.169 166.452 82.169 165.996C82.169 165.54 82.493 165.276 82.949 165.276C83.417 165.276 83.741 165.54 83.741 165.996C83.741 166.452 83.417 166.716 82.949 166.716ZM89.2933 167.424C90.9613 167.424 91.8733 168.372 91.8733 169.86V174H90.3973V170.304C90.3973 169.224 89.8093 168.624 88.6453 168.624C87.4813 168.624 86.8453 169.296 86.8453 170.304V174H85.3693V167.604H86.8453V168.588C87.1453 168.168 87.9613 167.424 89.2933 167.424Z" fill="black"/>
<g clip-path="url(#clip0_9391_4515)">
<rect width="65" height="120" transform="translate(33 22)" fill="white"/>
<path fill-rule="evenodd" clip-rule="evenodd" d="M57.6296 140.789C58.113 137.782 58.5963 134.507 59.0797 131.089C59.3109 129.421 59.563 127.732 59.7942 126.002L59.8783 125.364C60.0044 124.519 60.1094 123.655 60.2355 122.79V122.625C60.3196 122.234 60.3616 121.822 60.4247 121.43C61.0341 116.982 61.6856 112.575 62.3581 108.456C62.4001 108.168 62.4631 107.88 62.5052 107.591C63.2407 103.246 64.0183 99.2509 64.8589 95.9353C65.7205 99.2509 66.4981 103.246 67.2336 107.612C67.2756 107.88 67.3176 108.168 67.3807 108.456C68.0742 112.596 68.7047 117.023 69.3351 121.43C69.3982 121.842 69.4402 122.234 69.5032 122.645V122.79C69.6503 123.634 69.7554 124.458 69.8815 125.281L70.0076 126.167C70.1127 126.908 70.2177 127.65 70.3228 128.391H71.7519C71.7098 128.144 71.6888 127.917 71.6468 127.67C71.5627 127.114 71.4997 126.558 71.4156 125.982C71.1844 124.396 70.9743 122.81 70.7431 121.224V121.101C70.1757 116.982 69.5873 112.863 68.8938 108.703C68.8097 108.25 68.7467 107.797 68.6626 107.365C68.0322 103.699 67.3387 99.9717 66.435 96.3472V96.3266C66.372 96.0795 66.3089 95.8324 66.2459 95.5852L64.9009 90.375L63.5559 95.5852C63.4929 95.8324 63.4298 96.0795 63.3668 96.3266V96.3472C62.5052 99.7658 61.9167 103.267 61.3073 106.726C61.2653 106.932 61.2443 107.138 61.2022 107.365C61.1182 107.818 61.0551 108.25 60.9711 108.703C60.2776 112.884 59.6681 117.003 59.1217 121.122V121.245C58.8695 122.893 58.6384 124.54 58.4072 126.167C58.3442 126.661 58.2601 127.156 58.1971 127.67C57.5876 131.995 56.9992 136.299 56.2847 140.541" fill="black"/>
<path fill-rule="evenodd" clip-rule="evenodd" d="M87.2192 23.6269C87.2192 23.8328 87.1772 24.0388 87.1562 24.2653C87.1351 24.5742 87.0931 24.8831 87.0721 25.192C87.0721 25.3774 87.0301 25.5627 87.0091 25.7481C86.8619 27.2308 86.7148 28.693 86.5887 30.1757C86.3366 32.9353 86.0844 35.6949 85.8322 38.475C85.8322 38.6192 85.8112 38.7839 85.7902 38.9693C85.6221 41.2346 85.2228 46.589 85.8952 48.0305C87.4504 51.202 88.6482 54.8471 89.72 58.1627C91.2751 63.1052 92.6201 68.1919 93.6288 73.2579C93.9441 74.926 94.2593 76.6765 94.5325 78.4476C95.0369 81.7014 95.3731 85.0582 95.3941 88.2914C95.3941 89.527 95.3521 90.7627 95.247 91.9571C95.205 92.6161 95.1419 93.2751 95.0789 93.9341C94.6796 98.3412 94.1542 102.707 93.6288 107.052C93.3977 109.05 93.1455 111.068 92.8933 113.066C92.2629 118.173 91.6114 123.301 91.128 128.408H92.5781C93.0404 123.28 93.7549 117.514 94.4905 111.604C94.6796 110.141 94.8477 108.679 95.0369 107.217C95.4992 103.448 95.9405 99.6592 96.3188 96.0141C96.4449 94.6755 96.571 93.3781 96.6971 92.0807C96.7601 91.2363 96.8232 90.3714 96.8232 89.4858C96.8232 89.0946 96.8232 88.6827 96.8232 88.2914C96.8232 86.8704 96.7391 85.3671 96.613 83.8431V83.7402C96.571 83.3489 96.5499 82.9782 96.5079 82.5869C96.5079 82.4428 96.4869 82.2986 96.4659 82.1339C96.4659 82.0721 96.4659 82.0103 96.4449 81.9279C96.3188 80.7747 96.1717 79.5802 95.9825 78.4064C95.8144 77.3561 95.6463 76.2852 95.4572 75.2143C95.3311 74.473 95.184 73.7316 95.0369 72.9902C93.9441 67.5946 92.494 62.2609 91.065 57.7508C89.636 53.2202 88.2279 49.5339 87.1982 47.3921C86.7989 46.5478 86.925 43.191 87.2612 38.5986C87.2822 38.2691 87.3033 37.9602 87.3243 37.6513C87.4504 35.9832 87.6185 34.1503 87.8076 32.2351V32.1939C87.8707 31.4937 87.9337 30.7935 88.0178 30.0728C88.0598 29.5785 88.1018 29.0843 88.1649 28.59V28.4664C88.27 27.5603 88.354 26.6336 88.4381 25.7069V25.5627L88.5011 25.1097V25.0685V25.0067L88.5852 24.1829V24.1212C88.6693 23.421 88.7953 22.0206 88.7953 22.0206L87.2402 23.6475L87.2192 23.6269ZM39.1995 137.984C39.1995 135.019 38.9263 131.971 38.6531 128.985C38.1908 123.548 37.5183 118.091 36.8458 112.654C36.6146 110.78 36.3834 108.926 36.1523 107.052C35.6269 102.707 35.1015 98.3412 34.7022 93.9341C34.6392 93.2751 34.5972 92.6161 34.5341 91.9571C34.429 90.7627 34.387 89.5476 34.387 88.2914C34.387 85.0376 34.7232 81.6396 35.2276 78.3652C35.5008 76.6147 35.816 74.9054 36.1523 73.2579C37.161 68.1919 38.506 63.1052 40.0611 58.1627C41.1329 54.8471 42.3518 51.1814 43.8228 48.01C44.6214 46.4242 44.096 40.2873 43.8859 38.475C43.6757 35.7155 43.4446 32.9559 43.1924 30.1963C43.0663 28.7136 42.9192 27.2102 42.7721 25.7275C42.7721 25.5421 42.73 25.3568 42.709 25.1714C42.688 24.8419 42.646 24.533 42.625 24.2035C42.625 24.0182 42.5829 23.8123 42.5619 23.6269L41.0488 22C41.0488 22 41.2169 23.6475 41.28 24.4507V24.5124L41.322 24.9655V25.0273L41.364 25.5009C41.4691 26.51 41.5532 27.4985 41.6583 28.487V28.5488C41.7213 29.0431 41.7633 29.5373 41.8054 30.011C41.8684 30.7318 41.9315 31.4525 42.0155 32.1527V32.2145C42.2047 34.1091 42.3518 35.9214 42.4989 37.5895C42.5199 37.8984 42.5409 38.2279 42.5619 38.5162V38.5574C42.9192 43.1498 43.0242 46.486 42.625 47.3304V47.3715C41.5742 49.5133 40.1662 53.179 38.7371 57.6684C37.3081 62.1991 35.8581 67.5123 34.7863 72.9078C34.6392 73.6492 34.4921 74.3906 34.366 75.1114C34.1769 76.1823 33.9877 77.2737 33.8406 78.3446C33.6725 79.539 33.5044 80.7129 33.3783 81.8867C33.3783 81.9485 33.3783 82.0309 33.3573 82.0927C33.3573 82.2162 33.3362 82.3398 33.3152 82.484C33.2732 82.8546 33.2522 83.2253 33.2102 83.596V83.6784V83.7402C33.0841 85.2641 33.021 86.7675 33 88.1884C33 88.6003 33 88.9916 33 89.4035C33 90.289 33.063 91.1333 33.1261 91.9777C33.2312 93.2751 33.3573 94.5931 33.5044 95.9317C33.8826 99.5768 34.324 103.366 34.7863 107.135C34.9544 108.597 35.1435 110.059 35.3117 111.501C36.0682 117.679 36.8248 123.692 37.2871 129.005C37.5813 132.3 37.7704 135.307 37.7915 137.881" fill="black"/>
<path d="M65.3423 99.7422C68.1583 111.069 69.041 123.775 70.7432 131.971C72.1092 138.582 75.3875 141.548 80.2421 141.548C88.2699 141.548 91.3171 138.273 92.8091 130.695C93.2294 128.615 94.9737 114.405 94.9737 114.405C96.0245 106.62 96.4448 101.637 96.4448 99.5156L65.3423 99.7422Z" fill="#D3D3D5" stroke="black" stroke-width="0.44" stroke-miterlimit="10"/>
<path d="M87.4295 98.667C87.4295 92.6743 91.8427 87.8141 97.3066 87.8141C97.3487 87.8141 97.3907 87.8141 97.4537 87.8141C97.3276 86.1872 97.1385 84.5397 96.8653 82.8922C96.5501 79.8649 94.5957 70.5977 94.5957 70.5977L41.133 52.8047C41.133 52.8047 36.9089 63.5752 36.0894 68.2088C62.6105 74.6753 94.0493 76.2404 66.3092 107.749L68.81 124.389L94.3225 124.78C94.9319 119.776 95.7725 114.648 96.466 109.438C91.4014 108.964 87.4295 104.372 87.4295 98.6876V98.667Z" fill="white" stroke="black" stroke-width="0.5" stroke-miterlimit="10"/>
</g>
<defs>
<clipPath id="clip0_9391_4515">
<rect width="65" height="120" fill="white" transform="translate(33 22)"/>
</clipPath>
</defs>
</svg>
