<svg width="217" height="195" viewBox="0 0 217 195" fill="none" xmlns="http://www.w3.org/2000/svg">
<rect x="8.52372e-06" y="2.47442e-05" width="217" height="195" rx="10" fill="#D9D9D9"/>
<g clip-path="url(#clip0_3841_2186)">
<path fill-rule="evenodd" clip-rule="evenodd" d="M98.7979 151.582C99.3631 148.075 99.9282 144.255 100.493 140.266C100.764 138.32 101.059 136.35 101.329 134.332L101.427 133.587C101.575 132.602 101.697 131.593 101.845 130.584V130.391C101.943 129.935 101.992 129.454 102.066 128.998C102.779 123.808 103.54 118.667 104.327 113.862C104.376 113.525 104.449 113.189 104.499 112.852C105.359 107.783 106.268 103.122 107.251 99.2537C108.258 103.122 109.167 107.783 110.027 112.876C110.076 113.189 110.125 113.525 110.199 113.862C111.01 118.691 111.747 123.856 112.484 128.998C112.558 129.478 112.607 129.935 112.681 130.415V130.584C112.853 131.569 112.976 132.53 113.123 133.491L113.271 134.524C113.393 135.389 113.516 136.254 113.639 137.119H115.31C115.261 136.83 115.236 136.566 115.187 136.278C115.089 135.629 115.015 134.98 114.917 134.308C114.647 132.458 114.401 130.608 114.131 128.758V128.614C113.467 123.808 112.779 119.003 111.968 114.15C111.87 113.621 111.796 113.093 111.698 112.588C110.961 108.312 110.15 103.963 109.093 99.7342V99.7102C109.02 99.4219 108.946 99.1335 108.872 98.8452L107.3 92.7666L105.727 98.8452C105.653 99.1335 105.58 99.4219 105.506 99.7102V99.7342C104.499 103.723 103.811 107.807 103.098 111.843C103.049 112.084 103.024 112.324 102.975 112.588C102.877 113.117 102.803 113.621 102.705 114.15C101.894 119.027 101.181 123.832 100.543 128.638V128.782C100.248 130.704 99.9774 132.626 99.7071 134.524C99.6334 135.101 99.5351 135.677 99.4614 136.278C98.7488 141.323 98.0608 146.345 97.2254 151.294" fill="#050A0A"/>
<path fill-rule="evenodd" clip-rule="evenodd" d="M133.395 14.8981C133.395 15.1383 133.346 15.3786 133.321 15.6429C133.296 16.0033 133.247 16.3637 133.223 16.7241C133.223 16.9403 133.174 17.1565 133.149 17.3728C132.977 19.1027 132.805 20.8085 132.658 22.5384C132.363 25.7579 132.068 28.9774 131.773 32.2209C131.773 32.3891 131.748 32.5813 131.724 32.7975C131.527 35.4404 131.06 41.6872 131.847 43.369C133.665 47.069 135.066 51.3216 136.319 55.1898C138.137 60.9561 139.71 66.8905 140.889 72.801C141.258 74.7471 141.626 76.7893 141.946 78.8555C142.535 82.6517 142.929 86.5679 142.953 90.34C142.953 91.7816 142.904 93.2231 142.781 94.6166C142.732 95.3855 142.658 96.1543 142.585 96.9231C142.118 102.065 141.503 107.158 140.889 112.228C140.619 114.558 140.324 116.913 140.029 119.243C139.292 125.202 138.53 131.184 137.965 137.143H139.661C140.201 131.16 141.037 124.433 141.897 117.538C142.118 115.832 142.314 114.126 142.535 112.42C143.076 108.023 143.592 103.602 144.034 99.3498C144.182 97.7881 144.329 96.2744 144.477 94.7608C144.55 93.7757 144.624 92.7666 144.624 91.7335C144.624 91.277 144.624 90.7965 144.624 90.34C144.624 88.6822 144.526 86.9283 144.378 85.1504V85.0302C144.329 84.5737 144.305 84.1413 144.255 83.6848C144.255 83.5166 144.231 83.3484 144.206 83.1562C144.206 83.0841 144.206 83.012 144.182 82.9159C144.034 81.5705 143.862 80.177 143.641 78.8075C143.445 77.5821 143.248 76.3328 143.027 75.0834C142.879 74.2185 142.707 73.3536 142.535 72.4886C141.258 66.1938 139.562 59.971 137.891 54.7093C136.221 49.4236 134.574 45.1229 133.37 42.6242C132.903 41.6391 133.051 37.7229 133.444 32.3651C133.468 31.9806 133.493 31.6202 133.518 31.2598C133.665 29.3137 133.862 27.1754 134.083 24.941V24.8929C134.156 24.076 134.23 23.2592 134.328 22.4183C134.378 21.8416 134.427 21.265 134.5 20.6884V20.5442C134.623 19.4871 134.722 18.4059 134.82 17.3247V17.1565L134.894 16.628V16.5799V16.5078L134.992 15.5468V15.4747C135.09 14.6578 135.238 13.0241 135.238 13.0241L133.419 14.9221L133.395 14.8981ZM77.2486 148.315C77.2486 144.855 76.9292 141.299 76.6098 137.816C76.0692 131.473 75.2829 125.106 74.4966 118.763C74.2263 116.576 73.956 114.414 73.6858 112.228C73.0715 107.158 72.4572 102.065 71.9903 96.9231C71.9166 96.1543 71.8675 95.3855 71.7937 94.6166C71.6709 93.2231 71.6217 91.8056 71.6217 90.34C71.6217 86.5439 72.0149 82.5796 72.6046 78.7594C72.924 76.7172 73.2926 74.723 73.6858 72.801C74.8652 66.8905 76.4378 60.9561 78.2561 55.1898C79.5092 51.3216 80.9344 47.045 82.6544 43.345C83.5881 41.495 82.9738 34.3352 82.7281 32.2209C82.4824 29.0014 82.2121 25.7819 81.9172 22.5624C81.7698 20.8325 81.5978 19.0786 81.4258 17.3487C81.4258 17.1325 81.3767 16.9163 81.3521 16.7C81.3275 16.3156 81.2784 15.9552 81.2538 15.5708C81.2538 15.3546 81.2047 15.1143 81.1801 14.8981L79.4109 13C79.4109 13 79.6075 14.9221 79.6812 15.8591V15.9312L79.7304 16.4598V16.5319L79.7795 17.0845C79.9024 18.2617 80.0007 19.415 80.1235 20.5682V20.6403C80.1972 21.2169 80.2464 21.7936 80.2955 22.3462C80.3692 23.1871 80.4429 24.028 80.5412 24.8449V24.917C80.7624 27.1274 80.9344 29.2417 81.1064 31.1878C81.1309 31.5482 81.1555 31.9326 81.1801 32.2689V32.317C81.5978 37.6748 81.7207 41.567 81.2538 42.5521V42.6002C80.0252 45.0989 78.3789 49.3755 76.7081 54.6132C75.0372 59.8989 73.3417 66.0977 72.0886 72.3925C71.9166 73.2574 71.7446 74.1224 71.5972 74.9633C71.376 76.2127 71.1549 77.486 70.9829 78.7354C70.7863 80.1289 70.5897 81.4984 70.4423 82.8679C70.4423 82.94 70.4423 83.0361 70.4177 83.1081C70.4177 83.2523 70.3932 83.3965 70.3686 83.5646C70.3194 83.9971 70.2949 84.4296 70.2457 84.862V84.9582V85.0302C70.0983 86.8082 70.0246 88.5621 70 90.2199C70 90.7004 70 91.1569 70 91.6374C70 92.6705 70.0737 93.6556 70.1474 94.6407C70.2703 96.1543 70.4177 97.692 70.5897 99.2537C71.032 103.506 71.548 107.927 72.0886 112.324C72.2852 114.03 72.5063 115.736 72.7029 117.417C73.5875 124.625 74.472 131.641 75.0126 137.84C75.3566 141.684 75.5778 145.192 75.6023 148.195" fill="#050A0A"/>
<path d="M107.816 103.699C111.108 116.913 112.14 131.737 114.131 141.3C115.728 149.012 119.561 152.472 125.237 152.472C134.623 152.472 138.186 148.652 139.931 139.81C140.422 137.383 142.462 120.805 142.462 120.805C143.69 111.724 144.182 105.909 144.182 103.435L107.816 103.699Z" fill="#D3D3D5" stroke="#050A0A" stroke-width="0.44" stroke-miterlimit="10"/>
<path d="M133.64 102.449C133.64 95.4579 138.8 89.7877 145.189 89.7877C145.238 89.7877 145.287 89.7877 145.361 89.7877C145.214 87.8897 144.993 85.9676 144.673 84.0455C144.305 80.5137 142.019 69.7019 142.019 69.7019L79.5092 48.9434C79.5092 48.9434 74.5703 61.509 73.612 66.9149C104.621 74.4591 141.381 76.2851 108.946 113.045L111.87 132.458L141.7 132.915C142.413 127.076 143.395 121.094 144.206 115.015C138.284 114.463 133.64 109.105 133.64 102.474V102.449Z" fill="white" stroke="#1D1D1B" stroke-width="0.5" stroke-miterlimit="10"/>
</g>
<path d="M79.8387 180.592C82.4467 180.592 83.4227 179.04 83.7427 177.568H85.8067C85.2947 180.736 82.7667 182.24 79.8387 182.24C76.7347 182.24 73.6947 180.544 73.6947 176.4C73.6947 172.256 76.7347 170.576 79.8387 170.576C82.7667 170.576 85.2947 172.08 85.8067 175.248H83.7427C83.4227 173.776 82.4467 172.224 79.8387 172.224C77.1507 172.224 75.7267 173.824 75.7267 176.4C75.7267 178.976 77.1507 180.592 79.8387 180.592ZM91.8053 173.232C94.3013 173.232 96.7013 174.592 96.7013 177.744C96.7013 180.896 94.3013 182.24 91.8053 182.24C89.3093 182.24 86.9253 180.896 86.9253 177.744C86.9253 174.592 89.3093 173.232 91.8053 173.232ZM91.8053 180.784C94.0933 180.784 94.8773 179.232 94.8773 177.744C94.8773 176.24 94.0933 174.688 91.8053 174.688C89.5173 174.688 88.7333 176.24 88.7333 177.744C88.7333 179.232 89.5173 180.784 91.8053 180.784ZM105.004 173.472H106.972V182H105.004V180.688C104.604 181.248 103.516 182.24 101.74 182.24C99.5157 182.24 98.2997 180.976 98.2997 178.992V173.472H100.268V178.4C100.268 179.84 101.052 180.64 102.604 180.64C104.156 180.64 105.004 179.744 105.004 178.4V173.472ZM113.702 177.008C116.118 177.424 117.478 177.744 117.478 179.424C117.478 181.408 115.83 182.24 112.982 182.24C110.39 182.24 108.406 181.344 108.406 179.408H110.438C110.438 180.336 111.35 180.752 113.142 180.752C114.886 180.752 115.51 180.32 115.51 179.68C115.51 178.736 114.086 178.72 111.91 178.32C109.702 177.904 108.726 177.392 108.726 175.872C108.726 174.16 110.326 173.232 112.838 173.232C115.574 173.232 117.046 174.32 117.046 175.904H115.206C115.206 175.36 114.63 174.688 112.806 174.688C111.094 174.688 110.502 175.12 110.502 175.776C110.502 176.64 112.182 176.752 113.702 177.008ZM123.577 177.008C125.993 177.424 127.353 177.744 127.353 179.424C127.353 181.408 125.705 182.24 122.857 182.24C120.265 182.24 118.281 181.344 118.281 179.408H120.313C120.313 180.336 121.225 180.752 123.017 180.752C124.761 180.752 125.385 180.32 125.385 179.68C125.385 178.736 123.961 178.72 121.785 178.32C119.577 177.904 118.601 177.392 118.601 175.872C118.601 174.16 120.201 173.232 122.713 173.232C125.449 173.232 126.921 174.32 126.921 175.904H125.081C125.081 175.36 124.505 174.688 122.681 174.688C120.969 174.688 120.377 175.12 120.377 175.776C120.377 176.64 122.057 176.752 123.577 177.008ZM128.956 182V173.472H130.924V182H128.956ZM129.932 172.288C129.324 172.288 128.892 171.936 128.892 171.328C128.892 170.72 129.324 170.368 129.932 170.368C130.556 170.368 130.988 170.72 130.988 171.328C130.988 171.936 130.556 172.288 129.932 172.288ZM138.391 173.232C140.615 173.232 141.831 174.496 141.831 176.48V182H139.863V177.072C139.863 175.632 139.079 174.832 137.527 174.832C135.975 174.832 135.127 175.728 135.127 177.072V182H133.159V173.472H135.127V174.784C135.527 174.224 136.615 173.232 138.391 173.232Z" fill="black"/>
<defs>
<clipPath id="clip0_3841_2186">
<rect width="76" height="140" fill="white" transform="translate(70 13)"/>
</clipPath>
</defs>
</svg>
