<svg width="217" height="195" viewBox="0 0 217 195" fill="none" xmlns="http://www.w3.org/2000/svg">
<rect x="8.52372e-06" y="2.47442e-05" width="217" height="195" rx="10" fill="#D9D9D9"/>
<g clip-path="url(#clip0_3841_2150)">
<path fill-rule="evenodd" clip-rule="evenodd" d="M100.619 148.826C101.141 145.54 101.663 141.961 102.186 138.225C102.436 136.402 102.708 134.556 102.958 132.665L103.049 131.968C103.185 131.045 103.299 130.1 103.435 129.154V128.974C103.526 128.547 103.571 128.096 103.639 127.669C104.298 122.807 105.002 117.99 105.729 113.489C105.774 113.174 105.842 112.858 105.888 112.543C106.683 107.794 107.523 103.428 108.432 99.8038C109.363 103.428 110.203 107.794 110.998 112.566C111.044 112.858 111.089 113.174 111.157 113.489C111.907 118.013 112.588 122.852 113.269 127.669C113.338 128.119 113.383 128.547 113.451 128.997V129.154C113.61 130.077 113.724 130.977 113.86 131.878L113.996 132.846C114.11 133.656 114.223 134.466 114.337 135.276H115.881C115.836 135.006 115.813 134.759 115.768 134.489C115.677 133.881 115.609 133.273 115.518 132.643C115.268 130.91 115.041 129.177 114.791 127.444V127.309C114.178 122.807 113.542 118.305 112.792 113.759C112.702 113.264 112.633 112.768 112.543 112.296C111.861 108.289 111.112 104.215 110.135 100.254V100.231C110.067 99.9613 109.999 99.6912 109.931 99.4211L108.477 93.7266L107.024 99.4211C106.955 99.6912 106.887 99.9613 106.819 100.231V100.254C105.888 103.99 105.252 107.817 104.593 111.598C104.548 111.823 104.525 112.048 104.48 112.296C104.389 112.791 104.321 113.264 104.23 113.759C103.48 118.328 102.822 122.829 102.231 127.331V127.466C101.959 129.267 101.709 131.067 101.459 132.846C101.391 133.386 101.3 133.926 101.232 134.489C100.573 139.215 99.9373 143.92 99.165 148.556" fill="#050A0A"/>
<path fill-rule="evenodd" clip-rule="evenodd" d="M132.598 20.7782C132.598 21.0032 132.552 21.2283 132.53 21.4759C132.507 21.8135 132.461 22.1511 132.439 22.4888C132.439 22.6913 132.393 22.8939 132.371 23.0965C132.212 24.7171 132.053 26.3151 131.916 27.9357C131.644 30.9518 131.371 33.9679 131.099 37.0065C131.099 37.164 131.076 37.3441 131.053 37.5466C130.872 40.0225 130.44 45.8746 131.167 47.4502C132.848 50.9164 134.142 54.9003 135.301 58.5241C136.981 63.9261 138.435 69.4856 139.525 75.0225C139.866 76.8457 140.206 78.7589 140.502 80.6946C141.047 84.2508 141.41 87.9196 141.433 91.4534C141.433 92.8039 141.387 94.1544 141.274 95.4598C141.228 96.1801 141.16 96.9003 141.092 97.6206C140.661 102.437 140.093 107.209 139.525 111.958C139.275 114.141 139.003 116.347 138.73 118.531C138.049 124.113 137.345 129.717 136.822 135.299H138.389C138.889 129.695 139.661 123.392 140.456 116.932C140.661 115.334 140.842 113.736 141.047 112.138C141.546 108.019 142.023 103.878 142.432 99.8939C142.568 98.4309 142.705 97.0129 142.841 95.5949C142.909 94.672 142.977 93.7267 142.977 92.7589C142.977 92.3312 142.977 91.881 142.977 91.4534C142.977 89.9003 142.886 88.2573 142.75 86.5917V86.4791C142.705 86.0515 142.682 85.6463 142.637 85.2187C142.637 85.0611 142.614 84.9036 142.591 84.7235C142.591 84.656 142.591 84.5884 142.568 84.4984C142.432 83.238 142.273 81.9325 142.069 80.6495C141.887 79.5016 141.705 78.3312 141.501 77.1608C141.365 76.3505 141.206 75.5402 141.047 74.7299C139.866 68.8328 138.299 63.0032 136.754 58.074C135.21 53.1222 133.688 49.0933 132.575 46.7524C132.144 45.8296 132.28 42.1608 132.643 37.1415C132.666 36.7814 132.689 36.4438 132.711 36.1061C132.848 34.283 133.029 32.2798 133.234 30.1865V30.1415C133.302 29.3762 133.37 28.611 133.461 27.8232C133.506 27.283 133.552 26.7428 133.62 26.2026V26.0675C133.733 25.0772 133.824 24.0643 133.915 23.0515V22.8939L133.983 22.3987V22.3537V22.2862L134.074 21.3859V21.3184C134.165 20.5531 134.301 19.0225 134.301 19.0225L132.62 20.8007L132.598 20.7782ZM80.7001 145.765C80.7001 142.524 80.4049 139.193 80.1096 135.929C79.6099 129.987 78.8832 124.023 78.1564 118.08C77.9065 116.032 77.6567 114.006 77.4069 111.958C76.839 107.209 76.2712 102.437 75.8397 97.6206C75.7716 96.9003 75.7261 96.1801 75.658 95.4598C75.5444 94.1544 75.499 92.8264 75.499 91.4534C75.499 87.8971 75.8624 84.1833 76.4075 80.6045C76.7028 78.6913 77.0435 76.8232 77.4069 75.0225C78.497 69.4856 79.9506 63.9261 81.6313 58.5241C82.7897 54.9003 84.107 50.8939 85.6968 47.4277C86.5599 45.6946 85.9921 38.9872 85.765 37.0065C85.5379 33.9904 85.288 30.9743 85.0155 27.9582C84.8792 26.3376 84.7202 24.6946 84.5612 23.074C84.5612 22.8714 84.5158 22.6688 84.4931 22.4663C84.4704 22.1061 84.425 21.7685 84.4022 21.4084C84.4022 21.2058 84.3568 20.9807 84.3341 20.7782L82.6988 19C82.6988 19 82.8805 20.8007 82.9487 21.6785V21.746L82.9941 22.2412V22.3087L83.0395 22.8264C83.1531 23.9293 83.2439 25.0097 83.3575 26.0901V26.1576C83.4256 26.6978 83.471 27.238 83.5165 27.7557C83.5846 28.5434 83.6527 29.3312 83.7436 30.0965V30.164C83.948 32.2348 84.107 34.2155 84.266 36.0386C84.2887 36.3762 84.3114 36.7364 84.3341 37.0515V37.0965C84.7202 42.1158 84.8338 45.7621 84.4022 46.6849V46.7299C83.2666 49.0708 81.7449 53.0772 80.2005 57.9839C78.656 62.9357 77.0889 68.7428 75.9306 74.6399C75.7716 75.4502 75.6126 76.2605 75.4763 77.0483C75.2719 78.2187 75.0675 79.4116 74.9085 80.582C74.7268 81.8875 74.5451 83.1704 74.4088 84.4534C74.4088 84.5209 74.4088 84.611 74.3861 84.6785C74.3861 84.8135 74.3634 84.9486 74.3407 85.1061C74.2953 85.5113 74.2726 85.9164 74.2271 86.3216V86.4116V86.4791C74.0909 88.1447 74.0227 89.7878 74 91.3409C74 91.791 74 92.2187 74 92.6688C74 93.6367 74.0681 94.5595 74.1363 95.4823C74.2498 96.9003 74.3861 98.3409 74.5451 99.8039C74.9539 103.788 75.4309 107.929 75.9306 112.048C76.1123 113.646 76.3167 115.244 76.4984 116.82C77.316 123.572 78.1336 130.145 78.6333 135.952C78.9513 139.553 79.1557 142.839 79.1784 145.653" fill="#050A0A"/>
<path d="M108.795 103.968C111.839 116.348 112.793 130.235 114.632 139.193C116.109 146.418 119.652 149.66 124.898 149.66C133.575 149.66 136.868 146.081 138.48 137.798C138.935 135.525 140.82 119.994 140.82 119.994C141.955 111.486 142.41 106.039 142.41 103.721L108.795 103.968Z" fill="#D3D3D5" stroke="#050A0A" stroke-width="0.44" stroke-miterlimit="10"/>
<path d="M126.988 149.637H125.307V156.794H126.988V149.637Z" fill="#D3D3D5" stroke="#050A0A" stroke-width="0.29" stroke-miterlimit="10"/>
<path d="M126.148 158.663C125.739 158.663 125.466 158.483 125.398 158.077L124.989 156.547H127.26L126.852 158.077C126.784 158.483 126.511 158.663 126.102 158.663H126.148Z" fill="#D3D3D5" stroke="#050A0A" stroke-width="0.29" stroke-miterlimit="10"/>
<path d="M125.216 150.02L127.079 150.672" stroke="#050A0A" stroke-width="0.29" stroke-miterlimit="10"/>
<path d="M125.216 151.979L127.079 152.631" stroke="#050A0A" stroke-width="0.29" stroke-miterlimit="10"/>
<path d="M125.216 153.959L127.079 154.589" stroke="#050A0A" stroke-width="0.29" stroke-miterlimit="10"/>
<path d="M125.216 155.916L127.079 156.546" stroke="#050A0A" stroke-width="0.29" stroke-miterlimit="10"/>
<path d="M115.723 142.615H137.118" stroke="#1D1D1B" stroke-width="0.29" stroke-miterlimit="10"/>
</g>
<path d="M40.8621 166.8H43.0061L37.8221 178H35.2621L30.0781 166.8H32.2061L36.5421 176.448L40.8621 166.8ZM47.155 169.232C49.859 169.232 52.035 170.832 51.811 174.368H44.131C44.355 175.824 45.395 176.784 47.187 176.784C48.851 176.784 49.555 175.984 49.843 175.376H51.571C51.139 177.12 49.475 178.24 47.187 178.24C44.755 178.24 42.355 176.848 42.355 173.744C42.355 170.688 44.707 169.232 47.155 169.232ZM44.179 172.928H50.051C49.795 171.584 48.867 170.688 47.155 170.688C45.571 170.688 44.483 171.584 44.179 172.928ZM58.8245 169.232C59.2085 169.232 59.4325 169.248 59.7685 169.296V171.248H59.7045C59.3685 171.152 58.9365 171.088 58.3925 171.088C56.2325 171.088 55.4165 172.336 55.4165 173.664V178H53.4325V169.472H55.4165V171.072C55.8005 170.448 56.9845 169.232 58.8245 169.232ZM66.762 169.232C67.146 169.232 67.37 169.248 67.706 169.296V171.248H67.642C67.306 171.152 66.874 171.088 66.33 171.088C64.17 171.088 63.354 172.336 63.354 173.664V178H61.37V169.472H63.354V171.072C63.738 170.448 64.922 169.232 66.762 169.232ZM73.3913 169.232C75.8873 169.232 78.2873 170.592 78.2873 173.744C78.2873 176.896 75.8873 178.24 73.3913 178.24C70.8953 178.24 68.5113 176.896 68.5113 173.744C68.5113 170.592 70.8953 169.232 73.3913 169.232ZM73.3913 176.784C75.6793 176.784 76.4633 175.232 76.4633 173.744C76.4633 172.24 75.6793 170.688 73.3913 170.688C71.1033 170.688 70.3193 172.24 70.3193 173.744C70.3193 175.232 71.1033 176.784 73.3913 176.784ZM86.5896 169.472H88.5576V178H86.5896V176.688C86.1896 177.248 85.1016 178.24 83.3256 178.24C81.1016 178.24 79.8856 176.976 79.8856 174.992V169.472H81.8536V174.4C81.8536 175.84 82.6376 176.64 84.1896 176.64C85.7416 176.64 86.5896 175.744 86.5896 174.4V169.472ZM90.7919 178V169.472H92.7599V178H90.7919ZM91.7679 168.288C91.1599 168.288 90.7279 167.936 90.7279 167.328C90.7279 166.72 91.1599 166.368 91.7679 166.368C92.3919 166.368 92.8239 166.72 92.8239 167.328C92.8239 167.936 92.3919 168.288 91.7679 168.288ZM94.995 166.192H96.963V178H94.995V166.192ZM99.1981 166.192H101.166V178H99.1981V166.192ZM107.225 169.232C109.577 169.232 111.577 170.016 111.577 172.464V178H109.609V176.896C109.193 177.376 108.169 178.24 106.169 178.24C104.121 178.24 102.761 177.392 102.761 175.76C102.761 174 103.721 172.608 109.609 172.992V172.464C109.609 171.28 109.001 170.688 107.225 170.688C105.705 170.688 105.081 171.184 104.937 171.904H103.097C103.353 170.112 105.017 169.232 107.225 169.232ZM109.609 175.6V174.176C106.057 174 104.777 174.304 104.777 175.632C104.777 176.496 105.449 176.928 106.585 176.928C108.089 176.928 109.081 176.368 109.609 175.6ZM120.751 169.472H122.719V177.184C122.719 180.48 120.207 180.976 117.759 180.976C115.087 180.976 113.487 180.032 113.311 178.416H115.135C115.263 178.928 115.903 179.488 117.759 179.488C120.143 179.488 120.751 178.72 120.751 177.184V176.24C120.127 176.992 119.119 177.472 117.615 177.472C115.135 177.472 113.183 176.24 113.183 173.44C113.183 170.624 115.135 169.232 117.615 169.232C119.119 169.232 120.127 169.792 120.751 170.624V169.472ZM117.999 176.192C119.839 176.192 121.055 175.2 121.055 173.44C121.055 171.664 119.871 170.688 117.999 170.688C116.143 170.688 115.007 171.632 115.007 173.44C115.007 175.232 116.159 176.192 117.999 176.192ZM129.124 169.232C131.828 169.232 134.004 170.832 133.78 174.368H126.1C126.324 175.824 127.364 176.784 129.156 176.784C130.82 176.784 131.524 175.984 131.812 175.376H133.54C133.108 177.12 131.444 178.24 129.156 178.24C126.724 178.24 124.324 176.848 124.324 173.744C124.324 170.688 126.676 169.232 129.124 169.232ZM126.148 172.928H132.02C131.764 171.584 130.836 170.688 129.124 170.688C127.54 170.688 126.452 171.584 126.148 172.928ZM146.954 166.8H148.922V178H146.954V176.88C146.282 177.696 145.258 178.24 143.834 178.24C141.338 178.24 139.402 176.624 139.402 173.744C139.402 170.848 141.338 169.232 143.834 169.232C145.258 169.232 146.282 169.776 146.954 170.592V166.8ZM144.218 176.784C146.25 176.784 147.258 175.504 147.258 173.744C147.258 171.968 146.282 170.688 144.218 170.688C142.138 170.688 141.226 171.936 141.226 173.744C141.226 175.536 142.17 176.784 144.218 176.784ZM151.167 178V169.472H153.135V178H151.167ZM152.143 168.288C151.535 168.288 151.103 167.936 151.103 167.328C151.103 166.72 151.535 166.368 152.143 166.368C152.767 166.368 153.199 166.72 153.199 167.328C153.199 167.936 152.767 168.288 152.143 168.288ZM159.866 173.008C162.282 173.424 163.642 173.744 163.642 175.424C163.642 177.408 161.994 178.24 159.146 178.24C156.554 178.24 154.57 177.344 154.57 175.408H156.602C156.602 176.336 157.514 176.752 159.306 176.752C161.05 176.752 161.674 176.32 161.674 175.68C161.674 174.736 160.25 174.72 158.074 174.32C155.866 173.904 154.89 173.392 154.89 171.872C154.89 170.16 156.49 169.232 159.002 169.232C161.738 169.232 163.21 170.32 163.21 171.904H161.37C161.37 171.36 160.794 170.688 158.97 170.688C157.258 170.688 156.666 171.12 156.666 171.776C156.666 172.64 158.346 172.752 159.866 173.008ZM170.501 170.976H167.925V174.816C167.925 176.256 168.501 176.656 170.501 176.448V177.984C170.213 178.064 169.781 178.128 169.381 178.128C166.789 178.128 165.957 177.072 165.957 174.816V170.976H164.293V169.472H165.957V167.264H167.925V169.472H170.501V170.976ZM176.241 169.232C178.593 169.232 180.593 170.016 180.593 172.464V178H178.625V176.896C178.209 177.376 177.185 178.24 175.185 178.24C173.137 178.24 171.777 177.392 171.777 175.76C171.777 174 172.737 172.608 178.625 172.992V172.464C178.625 171.28 178.017 170.688 176.241 170.688C174.721 170.688 174.097 171.184 173.953 171.904H172.113C172.369 170.112 174.033 169.232 176.241 169.232ZM178.625 175.6V174.176C175.073 174 173.793 174.304 173.793 175.632C173.793 176.496 174.465 176.928 175.601 176.928C177.105 176.928 178.097 176.368 178.625 175.6ZM182.839 166.192H184.807V178H182.839V166.192Z" fill="black"/>
<defs>
<clipPath id="clip0_3841_2150">
<rect width="69" height="140" fill="white" transform="translate(74 19)"/>
</clipPath>
</defs>
</svg>
