<svg width="132" height="187" viewBox="0 0 132 187" fill="none" xmlns="http://www.w3.org/2000/svg">
<rect width="132" height="187" rx="10" fill="white"/>
<path d="M16.1466 168.6H17.7546L13.8666 177H11.9466L8.05859 168.6H9.65459L12.9066 175.836L16.1466 168.6ZM20.8663 170.424C22.8943 170.424 24.5263 171.624 24.3583 174.276H18.5983C18.7663 175.368 19.5463 176.088 20.8903 176.088C22.1383 176.088 22.6663 175.488 22.8823 175.032H24.1783C23.8543 176.34 22.6063 177.18 20.8903 177.18C19.0663 177.18 17.2663 176.136 17.2663 173.808C17.2663 171.516 19.0303 170.424 20.8663 170.424ZM18.6343 173.196H23.0383C22.8463 172.188 22.1503 171.516 20.8663 171.516C19.6783 171.516 18.8623 172.188 18.6343 173.196ZM29.6184 170.424C29.9064 170.424 30.0744 170.436 30.3264 170.472V171.936H30.2784C30.0264 171.864 29.7024 171.816 29.2944 171.816C27.6744 171.816 27.0624 172.752 27.0624 173.748V177H25.5744V170.604H27.0624V171.804C27.3504 171.336 28.2384 170.424 29.6184 170.424ZM35.5715 170.424C35.8595 170.424 36.0275 170.436 36.2795 170.472V171.936H36.2315C35.9795 171.864 35.6555 171.816 35.2475 171.816C33.6275 171.816 33.0155 172.752 33.0155 173.748V177H31.5275V170.604H33.0155V171.804C33.3035 171.336 34.1915 170.424 35.5715 170.424ZM40.5434 170.424C42.4154 170.424 44.2154 171.444 44.2154 173.808C44.2154 176.172 42.4154 177.18 40.5434 177.18C38.6714 177.18 36.8834 176.172 36.8834 173.808C36.8834 171.444 38.6714 170.424 40.5434 170.424ZM40.5434 176.088C42.2594 176.088 42.8474 174.924 42.8474 173.808C42.8474 172.68 42.2594 171.516 40.5434 171.516C38.8274 171.516 38.2394 172.68 38.2394 173.808C38.2394 174.924 38.8274 176.088 40.5434 176.088ZM50.4422 170.604H51.9182V177H50.4422V176.016C50.1422 176.436 49.3262 177.18 47.9942 177.18C46.3262 177.18 45.4142 176.232 45.4142 174.744V170.604H46.8902V174.3C46.8902 175.38 47.4782 175.98 48.6422 175.98C49.8062 175.98 50.4422 175.308 50.4422 174.3V170.604ZM53.5939 177V170.604H55.0699V177H53.5939ZM54.3259 169.716C53.8699 169.716 53.5459 169.452 53.5459 168.996C53.5459 168.54 53.8699 168.276 54.3259 168.276C54.7939 168.276 55.1179 168.54 55.1179 168.996C55.1179 169.452 54.7939 169.716 54.3259 169.716ZM56.7463 168.144H58.2223V177H56.7463V168.144ZM59.8986 168.144H61.3746V177H59.8986V168.144ZM65.9189 170.424C67.6829 170.424 69.1829 171.012 69.1829 172.848V177H67.7069V176.172C67.3949 176.532 66.6269 177.18 65.1269 177.18C63.5909 177.18 62.5709 176.544 62.5709 175.32C62.5709 174 63.2909 172.956 67.7069 173.244V172.848C67.7069 171.96 67.2509 171.516 65.9189 171.516C64.7789 171.516 64.3109 171.888 64.2029 172.428H62.8229C63.0149 171.084 64.2629 170.424 65.9189 170.424ZM67.7069 175.2V174.132C65.0429 174 64.0829 174.228 64.0829 175.224C64.0829 175.872 64.5869 176.196 65.4389 176.196C66.5669 176.196 67.3109 175.776 67.7069 175.2ZM76.0633 170.604H77.5393V176.388C77.5393 178.86 75.6553 179.232 73.8193 179.232C71.8153 179.232 70.6153 178.524 70.4833 177.312H71.8513C71.9473 177.696 72.4273 178.116 73.8193 178.116C75.6073 178.116 76.0633 177.54 76.0633 176.388V175.68C75.5953 176.244 74.8393 176.604 73.7113 176.604C71.8513 176.604 70.3873 175.68 70.3873 173.58C70.3873 171.468 71.8513 170.424 73.7113 170.424C74.8393 170.424 75.5953 170.844 76.0633 171.468V170.604ZM73.9993 175.644C75.3793 175.644 76.2913 174.9 76.2913 173.58C76.2913 172.248 75.4033 171.516 73.9993 171.516C72.6073 171.516 71.7553 172.224 71.7553 173.58C71.7553 174.924 72.6193 175.644 73.9993 175.644ZM82.3428 170.424C84.3708 170.424 86.0028 171.624 85.8348 174.276H80.0748C80.2428 175.368 81.0228 176.088 82.3668 176.088C83.6148 176.088 84.1428 175.488 84.3588 175.032H85.6548C85.3308 176.34 84.0828 177.18 82.3668 177.18C80.5428 177.18 78.7428 176.136 78.7428 173.808C78.7428 171.516 80.5068 170.424 82.3428 170.424ZM80.1108 173.196H84.5148C84.3228 172.188 83.6268 171.516 82.3428 171.516C81.1548 171.516 80.3388 172.188 80.1108 173.196ZM95.7154 168.6H97.1914V177H95.7154V176.16C95.2114 176.772 94.4434 177.18 93.3754 177.18C91.5034 177.18 90.0514 175.968 90.0514 173.808C90.0514 171.636 91.5034 170.424 93.3754 170.424C94.4434 170.424 95.2114 170.832 95.7154 171.444V168.6ZM93.6634 176.088C95.1874 176.088 95.9434 175.128 95.9434 173.808C95.9434 172.476 95.2114 171.516 93.6634 171.516C92.1034 171.516 91.4194 172.452 91.4194 173.808C91.4194 175.152 92.1274 176.088 93.6634 176.088ZM98.8752 177V170.604H100.351V177H98.8752ZM99.6072 169.716C99.1512 169.716 98.8272 169.452 98.8272 168.996C98.8272 168.54 99.1512 168.276 99.6072 168.276C100.075 168.276 100.399 168.54 100.399 168.996C100.399 169.452 100.075 169.716 99.6072 169.716ZM105.4 173.256C107.212 173.568 108.232 173.808 108.232 175.068C108.232 176.556 106.996 177.18 104.86 177.18C102.916 177.18 101.428 176.508 101.428 175.056H102.951C102.951 175.752 103.636 176.064 104.98 176.064C106.288 176.064 106.756 175.74 106.756 175.26C106.756 174.552 105.688 174.54 104.056 174.24C102.4 173.928 101.668 173.544 101.668 172.404C101.668 171.12 102.868 170.424 104.752 170.424C106.804 170.424 107.908 171.24 107.908 172.428H106.528C106.528 172.02 106.096 171.516 104.728 171.516C103.444 171.516 103 171.84 103 172.332C103 172.98 104.26 173.064 105.4 173.256ZM113.375 171.732H111.443V174.612C111.443 175.692 111.875 175.992 113.375 175.836V176.988C113.159 177.048 112.835 177.096 112.535 177.096C110.591 177.096 109.967 176.304 109.967 174.612V171.732H108.719V170.604H109.967V168.948H111.443V170.604H113.375V171.732ZM117.681 170.424C119.445 170.424 120.945 171.012 120.945 172.848V177H119.469V176.172C119.157 176.532 118.389 177.18 116.889 177.18C115.353 177.18 114.333 176.544 114.333 175.32C114.333 174 115.053 172.956 119.469 173.244V172.848C119.469 171.96 119.013 171.516 117.681 171.516C116.541 171.516 116.073 171.888 115.965 172.428H114.585C114.777 171.084 116.025 170.424 117.681 170.424ZM119.469 175.2V174.132C116.805 174 115.845 174.228 115.845 175.224C115.845 175.872 116.349 176.196 117.201 176.196C118.329 176.196 119.073 175.776 119.469 175.2ZM122.629 168.144H124.105V177H122.629V168.144Z" fill="black"/>
<g clip-path="url(#clip0_9391_4487)">
<path fill-rule="evenodd" clip-rule="evenodd" d="M58.3042 141.772C58.7812 138.791 59.2582 135.545 59.7351 132.155C59.9632 130.502 60.2121 128.827 60.4402 127.112L60.5231 126.479C60.6476 125.642 60.7512 124.785 60.8757 123.927V123.764C60.9586 123.376 61.0001 122.967 61.0623 122.579C61.6637 118.169 62.3065 113.8 62.9701 109.716C63.0116 109.43 63.0738 109.144 63.1153 108.859C63.8411 104.55 64.6084 100.589 65.4379 97.3019C66.2881 100.589 67.0554 104.55 67.7812 108.879C67.8227 109.144 67.8642 109.43 67.9264 109.716C68.6107 113.82 69.2328 118.21 69.8549 122.579C69.9171 122.988 69.9586 123.376 70.0208 123.784V123.927C70.166 124.764 70.2697 125.581 70.3941 126.398L70.5185 127.276C70.6222 128.011 70.7259 128.746 70.8296 129.481H72.2397C72.1983 129.236 72.1775 129.011 72.136 128.766C72.0531 128.215 71.9909 127.664 71.9079 127.092C71.6798 125.52 71.4724 123.947 71.2443 122.375V122.253C70.6844 118.169 70.1038 114.086 69.4194 109.961C69.3365 109.512 69.2743 109.063 69.1913 108.634C68.5692 105 67.8849 101.304 66.9932 97.7103V97.6899C66.931 97.4448 66.8688 97.1998 66.8065 96.9548L65.4794 91.7891L64.1522 96.9548C64.09 97.1998 64.0277 97.4448 63.9655 97.6899V97.7103C63.1153 101.1 62.5347 104.571 61.9333 108.001C61.8918 108.205 61.8711 108.409 61.8296 108.634C61.7466 109.083 61.6844 109.512 61.6015 109.961C60.9171 114.106 60.3158 118.19 59.7766 122.273V122.396C59.5277 124.029 59.2996 125.663 59.0715 127.276C59.0093 127.766 58.9264 128.256 58.8641 128.766C58.2628 133.054 57.6821 137.321 56.9771 141.527" fill="black"/>
<path fill-rule="evenodd" clip-rule="evenodd" d="M87.5023 25.613C87.5023 25.8172 87.4608 26.0214 87.4401 26.246C87.4194 26.5523 87.3779 26.8585 87.3571 27.1648C87.3571 27.3486 87.3157 27.5323 87.2949 27.7161C87.1498 29.1862 87.0046 30.6359 86.8802 32.1059C86.6313 34.842 86.3825 37.578 86.1336 40.3344C86.1336 40.4773 86.1129 40.6407 86.0922 40.8244C85.9263 43.0704 85.5323 48.3791 86.1959 49.8084C87.7304 52.9527 88.9124 56.5667 89.9701 59.854C91.5046 64.7543 92.8318 69.7976 93.8272 74.8204C94.1383 76.4743 94.4493 78.2098 94.7189 79.9658C95.2166 83.1918 95.5484 86.5199 95.5691 89.7256C95.5691 90.9506 95.5277 92.1757 95.424 93.36C95.3825 94.0133 95.3203 94.6667 95.2581 95.3201C94.8641 99.6895 94.3456 104.018 93.8272 108.326C93.5991 110.307 93.3502 112.308 93.1014 114.288C92.4793 119.352 91.8364 124.436 91.3595 129.5H92.7903C93.2465 124.416 93.9516 118.699 94.6774 112.839C94.8641 111.389 95.03 109.939 95.2166 108.49C95.6728 104.753 96.1083 100.996 96.4816 97.3823C96.606 96.0551 96.7304 94.7688 96.8548 93.4825C96.9171 92.6453 96.9793 91.7878 96.9793 90.9098C96.9793 90.5219 96.9793 90.1135 96.9793 89.7256C96.9793 88.3167 96.8963 86.8262 96.7719 85.3153V85.2132C96.7304 84.8252 96.7097 84.4577 96.6682 84.0698C96.6682 83.9268 96.6475 83.7839 96.6267 83.6206C96.6267 83.5593 96.6267 83.4981 96.606 83.4164C96.4816 82.273 96.3364 81.0887 96.1498 79.9249C95.9839 78.8836 95.818 77.8219 95.6313 76.7601C95.5069 76.0251 95.3618 75.29 95.2166 74.555C94.1383 69.2055 92.7074 63.9172 91.2972 59.4457C89.8871 54.9537 88.4977 51.2989 87.4816 49.1754C87.0876 48.3383 87.212 45.0101 87.5438 40.4569C87.5645 40.1302 87.5853 39.824 87.606 39.5177C87.7304 37.8638 87.8963 36.0466 88.083 34.1477V34.1069C88.1452 33.4127 88.2074 32.7185 88.2903 32.0039C88.3318 31.5138 88.3733 31.0238 88.4355 30.5338V30.4113C88.5392 29.5129 88.6221 28.5941 88.7051 27.6752V27.5323L88.7673 27.0831V27.0423V26.981L88.8502 26.1643V26.1031C88.9332 25.4088 89.0576 24.0204 89.0576 24.0204L87.523 25.6334L87.5023 25.613ZM40.1175 138.994C40.1175 136.054 39.8479 133.032 39.5783 130.072C39.1221 124.681 38.4585 119.27 37.7949 113.88C37.5668 112.022 37.3387 110.184 37.1106 108.326C36.5922 104.018 36.0737 99.6895 35.6797 95.3201C35.6175 94.6667 35.576 94.0133 35.5138 93.36C35.4101 92.1757 35.3687 90.9711 35.3687 89.7256C35.3687 86.4995 35.7005 83.1305 36.1982 79.8841C36.4677 78.1486 36.7788 76.4539 37.1106 74.8204C38.106 69.7976 39.4332 64.7543 40.9677 59.854C42.0253 56.5667 43.2281 52.9323 44.6797 49.7879C45.4677 48.2158 44.9493 42.1312 44.7419 40.3344C44.5346 37.5984 44.3065 34.8624 44.0576 32.1264C43.9332 30.6563 43.788 29.1658 43.6429 27.6957C43.6429 27.5119 43.6014 27.3281 43.5806 27.1444C43.5599 26.8177 43.5184 26.5114 43.4977 26.1847C43.4977 26.001 43.4562 25.7968 43.4355 25.613L41.9424 24C41.9424 24 42.1083 25.6334 42.1705 26.4297V26.491L42.212 26.9402V27.0014L42.2535 27.4711C42.3571 28.4715 42.4401 29.4516 42.5438 30.4317V30.4929C42.606 30.983 42.6475 31.473 42.6889 31.9426C42.7512 32.6572 42.8134 33.3719 42.8963 34.0661V34.1273C43.0829 36.0058 43.2281 37.8026 43.3733 39.4564C43.394 39.7627 43.4147 40.0894 43.4355 40.3752V40.4161C43.788 44.9693 43.8917 48.277 43.4977 49.1141V49.155C42.4608 51.2785 41.0714 54.9129 39.6613 59.364C38.2512 63.8559 36.8203 69.1238 35.7627 74.4733C35.6175 75.2084 35.4724 75.9434 35.3479 76.658C35.1613 77.7198 34.9747 78.8019 34.8295 79.8637C34.6636 81.0479 34.4977 82.2117 34.3733 83.3756C34.3733 83.4368 34.3733 83.5185 34.3525 83.5797C34.3525 83.7022 34.3318 83.8248 34.3111 83.9677C34.2696 84.3352 34.2488 84.7027 34.2074 85.0703V85.1519V85.2132C34.0829 86.7241 34.0207 88.2146 34 89.6235C34 90.0318 34 90.4198 34 90.8281C34 91.7061 34.0622 92.5432 34.1244 93.3804C34.2281 94.6667 34.3525 95.9735 34.4977 97.3006C34.871 100.915 35.3065 104.672 35.7627 108.408C35.9286 109.858 36.1152 111.307 36.2811 112.737C37.0277 118.862 37.7742 124.824 38.2304 130.092C38.5207 133.359 38.7074 136.34 38.7281 138.892" fill="black"/>
<path d="M65.7695 101.076C68.5483 112.306 69.4193 124.904 71.099 133.03C72.447 139.585 75.682 142.525 80.4723 142.525C88.394 142.525 91.4009 139.278 92.8732 131.764C93.288 129.702 95.0092 115.614 95.0092 115.614C96.046 107.896 96.4608 102.955 96.4608 100.852L65.7695 101.076Z" fill="#D3D3D5" stroke="black" stroke-width="0.44" stroke-miterlimit="10"/>
<path d="M82.3803 142.508H80.8457V149.001H82.3803V142.508Z" fill="#D3D3D5" stroke="black" stroke-width="0.29" stroke-miterlimit="10"/>
<path d="M81.6128 150.693C81.2395 150.693 80.9907 150.529 80.9284 150.162L80.5552 148.773H82.6289L82.2556 150.162C82.1934 150.529 81.9446 150.693 81.5713 150.693H81.6128Z" fill="#D3D3D5" stroke="black" stroke-width="0.29" stroke-miterlimit="10"/>
<path d="M80.7627 142.852L82.4632 143.444" stroke="black" stroke-width="0.29" stroke-miterlimit="10"/>
<path d="M80.7627 144.625L82.4632 145.217" stroke="black" stroke-width="0.29" stroke-miterlimit="10"/>
<path d="M80.7627 146.422L82.4632 146.994" stroke="black" stroke-width="0.29" stroke-miterlimit="10"/>
<path d="M80.7627 148.203L82.4632 148.775" stroke="black" stroke-width="0.29" stroke-miterlimit="10"/>
<path d="M72.0942 136.133H91.6288" stroke="black" stroke-width="0.29" stroke-miterlimit="10"/>
</g>
<defs>
<clipPath id="clip0_9391_4487">
<rect width="63" height="127" fill="white" transform="translate(34 24)"/>
</clipPath>
</defs>
</svg>
