<svg width="132" height="187" viewBox="0 0 132 187" fill="none" xmlns="http://www.w3.org/2000/svg">
<rect width="132" height="187" rx="10" fill="white"/>
<path d="M48.3801 175.752V177H41.4561V168.6H42.9321V175.752H48.3801ZM52.5713 170.424C54.3353 170.424 55.8353 171.012 55.8353 172.848V177H54.3593V176.172C54.0473 176.532 53.2793 177.18 51.7793 177.18C50.2433 177.18 49.2233 176.544 49.2233 175.32C49.2233 174 49.9433 172.956 54.3593 173.244V172.848C54.3593 171.96 53.9033 171.516 52.5713 171.516C51.4313 171.516 50.9633 171.888 50.8553 172.428H49.4753C49.6673 171.084 50.9153 170.424 52.5713 170.424ZM54.3593 175.2V174.132C51.6953 174 50.7353 174.228 50.7353 175.224C50.7353 175.872 51.2393 176.196 52.0913 176.196C53.2193 176.196 53.9633 175.776 54.3593 175.2ZM61.4437 170.424C63.1117 170.424 64.0237 171.372 64.0237 172.86V177H62.5477V173.304C62.5477 172.224 61.9597 171.624 60.7957 171.624C59.6317 171.624 58.9957 172.296 58.9957 173.304V177H57.5197V170.604H58.9957V171.588C59.2957 171.168 60.1117 170.424 61.4437 170.424ZM65.6994 177V170.604H67.1754V177H65.6994ZM66.4314 169.716C65.9754 169.716 65.6514 169.452 65.6514 168.996C65.6514 168.54 65.9754 168.276 66.4314 168.276C66.8994 168.276 67.2234 168.54 67.2234 168.996C67.2234 169.452 66.8994 169.716 66.4314 169.716ZM71.9717 170.424C73.9997 170.424 75.6317 171.624 75.4637 174.276H69.7037C69.8717 175.368 70.6517 176.088 71.9957 176.088C73.2437 176.088 73.7717 175.488 73.9877 175.032H75.2837C74.9597 176.34 73.7117 177.18 71.9957 177.18C70.1717 177.18 68.3717 176.136 68.3717 173.808C68.3717 171.516 70.1357 170.424 71.9717 170.424ZM69.7397 173.196H74.1437C73.9517 172.188 73.2557 171.516 71.9717 171.516C70.7837 171.516 69.9677 172.188 69.7397 173.196ZM71.7797 168.18L72.6677 169.728H71.7077L70.2197 168.18H71.7797ZM80.7238 170.424C81.0118 170.424 81.1798 170.436 81.4318 170.472V171.936H81.3838C81.1318 171.864 80.8078 171.816 80.3998 171.816C78.7798 171.816 78.1678 172.752 78.1678 173.748V177H76.6798V170.604H78.1678V171.804C78.4558 171.336 79.3438 170.424 80.7238 170.424ZM85.6358 170.424C87.6638 170.424 89.2958 171.624 89.1278 174.276H83.3678C83.5358 175.368 84.3158 176.088 85.6598 176.088C86.9078 176.088 87.4358 175.488 87.6518 175.032H88.9478C88.6238 176.34 87.3758 177.18 85.6598 177.18C83.8358 177.18 82.0358 176.136 82.0358 173.808C82.0358 171.516 83.7998 170.424 85.6358 170.424ZM83.4038 173.196H87.8078C87.6158 172.188 86.9198 171.516 85.6358 171.516C84.4478 171.516 83.6318 172.188 83.4038 173.196Z" fill="black"/>
<g clip-path="url(#clip0_9391_4504)">
<rect width="63" height="119" transform="translate(36 24)" fill="white"/>
<path fill-rule="evenodd" clip-rule="evenodd" d="M60.3042 142.997C60.7812 139.985 61.2582 136.705 61.7351 133.28C61.9632 131.609 62.2121 129.917 62.4402 128.184L62.5231 127.544C62.6476 126.698 62.7512 125.832 62.8757 124.965V124.8C62.9586 124.408 63.0001 123.996 63.0623 123.604C63.6637 119.148 64.3065 114.732 64.9701 110.606C65.0116 110.317 65.0738 110.029 65.1153 109.74C65.8411 105.387 66.6084 101.384 67.4379 98.0626C68.2881 101.384 69.0554 105.387 69.7812 109.76C69.8227 110.029 69.8642 110.317 69.9264 110.606C70.6107 114.753 71.2328 119.189 71.8549 123.604C71.9171 124.016 71.9586 124.408 72.0208 124.821V124.965C72.166 125.811 72.2697 126.637 72.3941 127.462L72.5185 128.349C72.6222 129.092 72.7259 129.834 72.8296 130.577H74.2397C74.1983 130.33 74.1775 130.103 74.136 129.855C74.0531 129.298 73.9909 128.741 73.9079 128.163C73.6798 126.575 73.4724 124.986 73.2443 123.398V123.274C72.6844 119.148 72.1038 115.021 71.4194 110.854C71.3365 110.4 71.2743 109.946 71.1913 109.513C70.5692 105.84 69.8849 102.106 68.9932 98.4752V98.4546C68.931 98.207 68.8688 97.9594 68.8065 97.7118L67.4794 92.4922L66.1522 97.7118C66.09 97.9594 66.0277 98.207 65.9655 98.4546V98.4752C65.1153 101.9 64.5347 105.407 63.9333 108.873C63.8918 109.08 63.8711 109.286 63.8296 109.513C63.7466 109.967 63.6844 110.4 63.6015 110.854C62.9171 115.042 62.3158 119.168 61.7766 123.294V123.418C61.5277 125.069 61.2996 126.719 61.0715 128.349C61.0093 128.844 60.9264 129.339 60.8641 129.855C60.2628 134.188 59.6821 138.499 58.9771 142.749" fill="black"/>
<path fill-rule="evenodd" clip-rule="evenodd" d="M89.5023 25.6299C89.5023 25.8362 89.4608 26.0425 89.4401 26.2694C89.4194 26.5789 89.3779 26.8883 89.3571 27.1978C89.3571 27.3835 89.3157 27.5692 89.2949 27.7549C89.1498 29.2403 89.0046 30.7051 88.8802 32.1905C88.6313 34.9551 88.3825 37.7197 88.1336 40.5049C88.1336 40.6493 88.1129 40.8143 88.0922 41C87.9263 43.2694 87.5323 48.6335 88.1959 50.0777C89.7304 53.2549 90.9124 56.9066 91.97 60.2282C93.5046 65.1796 94.8318 70.2755 95.8272 75.3507C96.1382 77.0218 96.4493 78.7755 96.7189 80.5498C97.2166 83.8095 97.5484 87.1723 97.5691 90.4114C97.5691 91.6493 97.5276 92.8871 97.424 94.0837C97.3825 94.7439 97.3203 95.4041 97.2581 96.0643C96.8641 100.479 96.3456 104.853 95.8272 109.206C95.5991 111.208 95.3502 113.229 95.1014 115.231C94.4793 120.347 93.8364 125.484 93.3594 130.601H94.7903C95.2465 125.464 95.9516 119.687 96.6774 113.766C96.8641 112.301 97.03 110.836 97.2166 109.371C97.6728 105.596 98.1083 101.8 98.4816 98.1481C98.606 96.807 98.7304 95.5073 98.8548 94.2075C98.917 93.3616 98.9793 92.4951 98.9793 91.608C98.9793 91.216 98.9793 90.8034 98.9793 90.4114C98.9793 88.9879 98.8963 87.4818 98.7719 85.9551V85.8519C98.7304 85.4599 98.7097 85.0886 98.6682 84.6966C98.6682 84.5522 98.6475 84.4078 98.6267 84.2427C98.6267 84.1808 98.6267 84.1189 98.606 84.0364C98.4816 82.8811 98.3364 81.6845 98.1498 80.5085C97.9839 79.4563 97.818 78.3835 97.6313 77.3107C97.5069 76.568 97.3617 75.8252 97.2166 75.0825C96.1382 69.6772 94.7074 64.3337 93.2972 59.8155C91.8871 55.2767 90.4977 51.5837 89.4816 49.4381C89.0876 48.5922 89.212 45.2294 89.5438 40.6286C89.5645 40.2985 89.5853 39.9891 89.606 39.6796C89.7304 38.0085 89.8963 36.1723 90.0829 34.2536V34.2124C90.1452 33.5109 90.2074 32.8095 90.2903 32.0874C90.3318 31.5922 90.3733 31.0971 90.4355 30.6019V30.4782C90.5392 29.5704 90.6221 28.642 90.7051 27.7136V27.5692L90.7673 27.1153V27.074V27.0121L90.8502 26.1869V26.125C90.9332 25.4235 91.0576 24.0206 91.0576 24.0206L89.523 25.6505L89.5023 25.6299ZM42.1175 140.194C42.1175 137.223 41.8479 134.17 41.5783 131.178C41.1221 125.732 40.4585 120.265 39.7949 114.818C39.5668 112.941 39.3387 111.084 39.1106 109.206C38.5922 104.853 38.0737 100.479 37.6797 96.0643C37.6175 95.4041 37.576 94.7439 37.5138 94.0837C37.4101 92.8871 37.3687 91.6699 37.3687 90.4114C37.3687 87.1517 37.7005 83.7476 38.1982 80.4672C38.4677 78.7136 38.7788 77.0012 39.1106 75.3507C40.106 70.2755 41.4332 65.1796 42.9677 60.2282C44.0253 56.9066 45.2281 53.2342 46.6797 50.057C47.4677 48.4684 46.9493 42.3204 46.7419 40.5049C46.5346 37.7403 46.3065 34.9757 46.0576 32.2112C45.9332 30.7257 45.788 29.2197 45.6429 27.7342C45.6429 27.5485 45.6014 27.3629 45.5806 27.1772C45.5599 26.8471 45.5184 26.5376 45.4977 26.2075C45.4977 26.0218 45.4562 25.8155 45.4355 25.6299L43.9424 24C43.9424 24 44.1083 25.6505 44.1705 26.4551V26.517L44.212 26.9709V27.0328L44.2535 27.5073C44.3571 28.5182 44.4401 29.5085 44.5438 30.4988V30.5607C44.606 31.0558 44.6475 31.551 44.6889 32.0255C44.7512 32.7476 44.8134 33.4697 44.8963 34.1711V34.233C45.0829 36.1311 45.2281 37.9466 45.3733 39.6177C45.394 39.9272 45.4147 40.2573 45.4355 40.5461V40.5874C45.788 45.1881 45.8917 48.5303 45.4977 49.3762V49.4175C44.4608 51.5631 43.0714 55.2354 41.6613 59.733C40.2512 64.2718 38.8203 69.5947 37.7627 75C37.6175 75.7427 37.4724 76.4854 37.3479 77.2075C37.1613 78.2803 36.9747 79.3738 36.8295 80.4466C36.6636 81.6432 36.4977 82.8192 36.3733 83.9951C36.3733 84.057 36.3733 84.1396 36.3525 84.2015C36.3525 84.3252 36.3318 84.449 36.3111 84.5934C36.2696 84.9648 36.2488 85.3362 36.2074 85.7075V85.7901V85.8519C36.0829 87.3786 36.0207 88.8847 36 90.3083C36 90.7209 36 91.1129 36 91.5255C36 92.4126 36.0622 93.2585 36.1244 94.1044C36.2281 95.4041 36.3525 96.7245 36.4977 98.0655C36.871 101.717 37.3065 105.513 37.7627 109.289C37.9286 110.754 38.1152 112.218 38.2811 113.663C39.0276 119.852 39.7742 125.876 40.2304 131.199C40.5207 134.5 40.7074 137.512 40.7281 140.091" fill="black"/>
<path d="M67.832 98.7894C70.6108 110.137 71.4818 122.866 73.1615 131.077C74.5095 137.7 77.7445 140.671 82.5348 140.671C90.4565 140.671 93.4634 137.39 94.9357 129.798C95.3505 127.714 97.0717 113.479 97.0717 113.479C98.1085 105.68 98.5233 100.688 98.5233 98.5625L67.832 98.7894Z" fill="#D3D3D5" stroke="black" stroke-width="0.44" stroke-miterlimit="10"/>
<path d="M74.1567 134.211H93.712" stroke="black" stroke-width="0.29" stroke-miterlimit="10"/>
<path d="M87.4702 105.164H79.8804V108.259H87.4702V105.164Z" stroke="black" stroke-width="0.29" stroke-miterlimit="10"/>
<path d="M86.1223 106.562H81.249V141.883H86.1223V106.562Z" fill="white" stroke="black" stroke-width="0.29" stroke-miterlimit="10"/>
</g>
<defs>
<clipPath id="clip0_9391_4504">
<rect width="63" height="119" fill="white" transform="translate(36 24)"/>
</clipPath>
</defs>
</svg>
