<svg width="132" height="219" viewBox="0 0 132 219" fill="none" xmlns="http://www.w3.org/2000/svg">
<rect width="132" height="219" rx="10" fill="white"/>
<g clip-path="url(#clip0_9377_4397)">
<path d="M111.431 27.8281L98.7467 153.558C97.9789 161.363 94.7651 168.681 89.6458 174.456H41.3541C36.2348 168.71 33.0211 161.363 32.2532 153.558L19.5688 27.8281H111.431Z" fill="white" stroke="#1D1D1B" stroke-linejoin="round"/>
<path d="M102.245 151.585C101.562 156.474 98.178 160.361 96.1871 162.591L94.9073 162.134C90.0725 160.447 86.9156 155.759 87.1431 150.613L87.3991 144.667C87.3991 143.952 86.8871 143.38 86.1761 143.352C85.4651 143.352 84.8963 143.866 84.8679 144.581C84.8679 144.61 84.8679 144.667 84.8679 144.695L85.1238 154.73C85.2376 159.332 82.6211 163.706 78.2128 165.679C73.8046 167.651 68.2018 166.308 64.7605 162.62L58.1339 155.502C54.4651 151.528 52.4174 146.325 52.389 140.922V83.3455C52.389 81.2871 51.5642 79.3146 50.1137 77.8566L38.766 66.45C38.5669 66.2499 38.2541 66.1927 37.9981 66.2784C35.9789 67.0217 33.7321 67.0217 31.7128 66.2784C26.4229 64.3345 23.977 57.9879 27.0202 52.8421C28.8403 49.7546 32.4807 47.9535 36.0073 48.4681C42.0651 49.2972 45.4495 55.3578 43.4871 60.7896C43.4018 61.0754 43.4303 61.3613 43.6578 61.5614L48.8055 66.7359C49.6303 67.5649 50.9669 67.5649 51.7917 66.7359C52.6165 65.9068 52.6165 64.5632 51.7917 63.7341C51.7064 63.6483 51.6495 63.5912 51.5642 63.534C46.2174 59.5603 45.1082 51.9845 49.0614 46.6099V27.5703H68.3725V46.5813C68.5147 46.7529 68.6284 46.953 68.7706 47.1531C72.411 52.7277 70.8752 60.2178 65.3293 63.8771C65.1303 64.02 64.988 64.2487 64.988 64.506V102.185C64.988 103.186 65.0734 104.186 65.3009 105.158C65.7844 107.216 66.5523 109.189 67.633 111.019C68.344 112.219 69.6238 112.991 71.0174 112.877C72.0128 112.791 73.0367 112.591 73.9752 112.277L80.1468 110.104C83.844 108.903 87.8257 108.846 91.5514 109.904L102.529 113.649L103.525 115.678C106.596 121.911 105.999 129.344 101.932 134.975L100.083 137.52C98.3486 136.919 96.6422 136.319 94.9358 135.69C90.1293 133.946 86.9725 129.286 87.2 124.169L87.4559 118.251C87.4559 117.537 86.944 116.965 86.233 116.936C85.522 116.936 84.9532 117.451 84.9247 118.166C84.9247 118.194 84.9247 118.223 84.9247 118.28L85.1807 124.226C85.4082 129.801 81.711 134.775 76.3073 136.062L66.8082 138.349C66.1541 138.52 65.7559 139.178 65.9266 139.807C66.0688 140.436 66.6945 140.836 67.3202 140.722C71.2449 139.349 75.1697 138.034 79.1229 136.776C82.7633 135.461 86.7165 135.261 90.4991 136.205C93.6275 137.091 96.7559 138.091 99.8275 139.178C99.8275 139.178 103.212 145.524 102.359 151.671L102.245 151.585Z" fill="white" stroke="#1D1D1B" stroke-linejoin="round"/>
<path d="M35.0119 61.7302C32.6715 61.7302 30.7743 59.8231 30.7743 57.4705C30.7743 55.118 32.6715 53.2109 35.0119 53.2109C37.3523 53.2109 39.2495 55.118 39.2495 57.4705C39.2495 59.8231 37.3523 61.7302 35.0119 61.7302Z" fill="white" stroke="#1D1D1B" stroke-width="1.5" stroke-linejoin="round"/>
<path d="M35.0119 61.7302C32.6715 61.7302 30.7743 59.8231 30.7743 57.4705C30.7743 55.118 32.6715 53.2109 35.0119 53.2109C37.3523 53.2109 39.2495 55.118 39.2495 57.4705C39.2495 59.8231 37.3523 61.7302 35.0119 61.7302Z" fill="white" stroke="#1D1D1B" stroke-width="1.5" stroke-linejoin="round"/>
<path d="M58.788 59.7307C55.4581 59.7307 52.7587 57.0172 52.7587 53.67C52.7587 50.3228 55.4581 47.6094 58.788 47.6094C62.118 47.6094 64.8174 50.3228 64.8174 53.67C64.8174 57.0172 62.118 59.7307 58.788 59.7307Z" fill="white" stroke="#1D1D1B" stroke-width="1.5" stroke-linejoin="round"/>
<path d="M58.788 59.7307C55.4581 59.7307 52.7587 57.0172 52.7587 53.67C52.7587 50.3228 55.4581 47.6094 58.788 47.6094C62.118 47.6094 64.8174 50.3228 64.8174 53.67C64.8174 57.0172 62.118 59.7307 58.788 59.7307Z" fill="white" stroke="#1D1D1B" stroke-width="1.5" stroke-linejoin="round"/>
<path d="M58.788 59.7307C55.4581 59.7307 52.7587 57.0172 52.7587 53.67C52.7587 50.3228 55.4581 47.6094 58.788 47.6094C62.118 47.6094 64.8174 50.3228 64.8174 53.67C64.8174 57.0172 62.118 59.7307 58.788 59.7307Z" fill="white" stroke="#1D1D1B" stroke-width="1.5" stroke-linejoin="round"/>
</g>
<path d="M56.9134 206.1V208.18H45.3734V194.18H47.8334V206.1H56.9134ZM63.9281 197.22C67.3081 197.22 70.0281 199.22 69.7481 203.64H60.1481C60.4281 205.46 61.7281 206.66 63.9681 206.66C66.0481 206.66 66.9281 205.66 67.2881 204.9H69.4481C68.9081 207.08 66.8281 208.48 63.9681 208.48C60.9281 208.48 57.9281 206.74 57.9281 202.86C57.9281 199.04 60.8681 197.22 63.9281 197.22ZM60.2081 201.84H67.5481C67.2281 200.16 66.0681 199.04 63.9281 199.04C61.9481 199.04 60.5881 200.16 60.2081 201.84ZM78.2797 195.48C75.7797 195.24 75.0997 195.62 75.0997 197.52H77.9997V199.4H75.0997V208.18H72.6397V199.4H70.7797V197.52H72.6397C72.6397 195.34 73.3997 193.42 76.4597 193.42C77.1797 193.42 77.6997 193.46 78.2797 193.54V195.48ZM87.2311 199.4H84.0111V204.2C84.0111 206 84.7311 206.5 87.2311 206.24V208.16C86.8711 208.26 86.3311 208.34 85.8311 208.34C82.5911 208.34 81.5511 207.02 81.5511 204.2V199.4H79.4711V197.52H81.5511V194.76H84.0111V197.52H87.2311V199.4Z" fill="black"/>
<defs>
<clipPath id="clip0_9377_4397">
<rect width="93" height="148" fill="white" transform="matrix(-1 0 0 1 112 27)"/>
</clipPath>
</defs>
</svg>
