<svg width="132" height="219" viewBox="0 0 132 219" fill="none" xmlns="http://www.w3.org/2000/svg">
<rect width="132" height="219" rx="10" fill="white"/>
<g clip-path="url(#clip0_9391_4543)">
<path d="M111.431 27.8281L98.7467 153.558C97.9789 161.363 94.7651 168.681 89.6458 174.456H41.3541C36.2348 168.71 33.0211 161.363 32.2532 153.558L19.5688 27.8281H111.431Z" fill="white" stroke="#1D1D1B" stroke-linejoin="round"/>
<path d="M102.245 151.585C101.562 156.474 98.178 160.361 96.1871 162.591L94.9073 162.134C90.0725 160.447 86.9156 155.759 87.1431 150.613L87.3991 144.667C87.3991 143.952 86.8871 143.38 86.1761 143.352C85.4651 143.352 84.8963 143.866 84.8679 144.581C84.8679 144.61 84.8679 144.667 84.8679 144.695L85.1238 154.73C85.2376 159.332 82.6211 163.706 78.2128 165.679C73.8046 167.651 68.2018 166.308 64.7605 162.62L58.1339 155.502C54.4651 151.528 52.4174 146.325 52.389 140.922V83.3455C52.389 81.2871 51.5642 79.3146 50.1137 77.8566L38.766 66.45C38.5669 66.2499 38.2541 66.1927 37.9981 66.2784C35.9789 67.0217 33.7321 67.0217 31.7128 66.2784C26.4229 64.3345 23.977 57.9879 27.0202 52.8421C28.8403 49.7546 32.4807 47.9535 36.0073 48.4681C42.0651 49.2972 45.4495 55.3578 43.4871 60.7896C43.4018 61.0754 43.4303 61.3613 43.6578 61.5614L48.8055 66.7359C49.6303 67.5649 50.9669 67.5649 51.7917 66.7359C52.6165 65.9068 52.6165 64.5632 51.7917 63.7341C51.7064 63.6483 51.6495 63.5912 51.5642 63.534C46.2174 59.5603 45.1082 51.9845 49.0614 46.6099V27.5703H68.3725V46.5813C68.5147 46.7529 68.6284 46.953 68.7706 47.1531C72.411 52.7277 70.8752 60.2178 65.3293 63.8771C65.1303 64.02 64.988 64.2487 64.988 64.506V102.185C64.988 103.186 65.0734 104.186 65.3009 105.158C65.7844 107.216 66.5523 109.189 67.633 111.019C68.344 112.219 69.6238 112.991 71.0174 112.877C72.0128 112.791 73.0367 112.591 73.9752 112.277L80.1468 110.104C83.844 108.903 87.8257 108.846 91.5514 109.904L102.529 113.649L103.525 115.678C106.596 121.911 105.999 129.344 101.932 134.975L100.083 137.52C98.3486 136.919 96.6422 136.319 94.9358 135.69C90.1293 133.946 86.9725 129.286 87.2 124.169L87.4559 118.251C87.4559 117.537 86.944 116.965 86.233 116.936C85.522 116.936 84.9532 117.451 84.9247 118.166C84.9247 118.194 84.9247 118.223 84.9247 118.28L85.1807 124.226C85.4082 129.801 81.711 134.775 76.3073 136.062L66.8082 138.349C66.1541 138.52 65.7559 139.178 65.9266 139.807C66.0688 140.436 66.6945 140.836 67.3202 140.722C71.2449 139.349 75.1697 138.034 79.1229 136.776C82.7633 135.461 86.7165 135.261 90.4991 136.205C93.6275 137.091 96.7559 138.091 99.8275 139.178C99.8275 139.178 103.212 145.524 102.359 151.671L102.245 151.585Z" fill="white" stroke="#1D1D1B" stroke-linejoin="round"/>
<path d="M35.0119 61.7302C32.6715 61.7302 30.7743 59.8231 30.7743 57.4705C30.7743 55.118 32.6715 53.2109 35.0119 53.2109C37.3523 53.2109 39.2495 55.118 39.2495 57.4705C39.2495 59.8231 37.3523 61.7302 35.0119 61.7302Z" fill="white" stroke="#1D1D1B" stroke-width="1.5" stroke-linejoin="round"/>
<path d="M35.0119 61.7302C32.6715 61.7302 30.7743 59.8231 30.7743 57.4705C30.7743 55.118 32.6715 53.2109 35.0119 53.2109C37.3523 53.2109 39.2495 55.118 39.2495 57.4705C39.2495 59.8231 37.3523 61.7302 35.0119 61.7302Z" fill="white" stroke="#1D1D1B" stroke-width="1.5" stroke-linejoin="round"/>
<path d="M58.788 59.7307C55.4581 59.7307 52.7587 57.0172 52.7587 53.67C52.7587 50.3228 55.4581 47.6094 58.788 47.6094C62.118 47.6094 64.8174 50.3228 64.8174 53.67C64.8174 57.0172 62.118 59.7307 58.788 59.7307Z" fill="white" stroke="#1D1D1B" stroke-width="1.5" stroke-linejoin="round"/>
<path d="M58.788 59.7307C55.4581 59.7307 52.7587 57.0172 52.7587 53.67C52.7587 50.3228 55.4581 47.6094 58.788 47.6094C62.118 47.6094 64.8174 50.3228 64.8174 53.67C64.8174 57.0172 62.118 59.7307 58.788 59.7307Z" fill="white" stroke="#1D1D1B" stroke-width="1.5" stroke-linejoin="round"/>
<path d="M58.788 59.7307C55.4581 59.7307 52.7587 57.0172 52.7587 53.67C52.7587 50.3228 55.4581 47.6094 58.788 47.6094C62.118 47.6094 64.8174 50.3228 64.8174 53.67C64.8174 57.0172 62.118 59.7307 58.788 59.7307Z" fill="white" stroke="#1D1D1B" stroke-width="1.5" stroke-linejoin="round"/>
</g>
<path d="M40.505 200.24C40.865 205.36 38.045 208.3 33.105 208.3C28.625 208.3 24.925 205.84 24.925 201C24.925 196.16 28.765 193.72 32.805 193.72C36.465 193.72 39.225 195.4 40.145 198.48H37.505C36.925 197.12 35.685 195.78 32.805 195.78C29.465 195.78 27.465 197.94 27.465 201C27.465 204.08 29.625 206.24 33.125 206.24C36.625 206.24 37.865 204.14 38.005 202.32H33.165V200.24H40.505ZM47.5316 197.04C50.4716 197.04 52.9716 198.02 52.9716 201.08V208H50.5116V206.62C49.9916 207.22 48.7116 208.3 46.2116 208.3C43.6516 208.3 41.9516 207.24 41.9516 205.2C41.9516 203 43.1516 201.26 50.5116 201.74V201.08C50.5116 199.6 49.7516 198.86 47.5316 198.86C45.6316 198.86 44.8516 199.48 44.6716 200.38H42.3716C42.6916 198.14 44.7716 197.04 47.5316 197.04ZM50.5116 205V203.22C46.0716 203 44.4716 203.38 44.4716 205.04C44.4716 206.12 45.3116 206.66 46.7316 206.66C48.6116 206.66 49.8516 205.96 50.5116 205ZM64.1589 197.34H66.6189V208H64.1589V206.36C63.6589 207.06 62.2989 208.3 60.0789 208.3C57.2989 208.3 55.7789 206.72 55.7789 204.24V197.34H58.2389V203.5C58.2389 205.3 59.2189 206.3 61.1589 206.3C63.0989 206.3 64.1589 205.18 64.1589 203.5V197.34ZM74.7517 206.48C76.9117 206.48 77.9917 205.22 78.2917 204.02H80.5917C80.0717 206.86 77.6317 208.3 74.7517 208.3C71.6317 208.3 68.6117 206.62 68.6117 202.68C68.6117 198.74 71.6317 197.04 74.7517 197.04C77.6317 197.04 80.0717 198.48 80.5917 201.32H78.2917C77.9917 200.12 76.9117 198.86 74.7517 198.86C71.8917 198.86 70.8717 200.8 70.8717 202.68C70.8717 204.54 71.8917 206.48 74.7517 206.48ZM89.1353 197.04C91.9153 197.04 93.4353 198.62 93.4353 201.1V208H90.9753V201.84C90.9753 200.04 89.9953 199.04 88.0553 199.04C86.1153 199.04 85.0553 200.16 85.0553 201.84V208H82.5953V194H85.0553V198.98C85.5553 198.28 86.9153 197.04 89.1353 197.04ZM101.428 197.04C104.808 197.04 107.528 199.04 107.248 203.46H97.6481C97.9281 205.28 99.2281 206.48 101.468 206.48C103.548 206.48 104.428 205.48 104.788 204.72H106.948C106.408 206.9 104.328 208.3 101.468 208.3C98.4281 208.3 95.4281 206.56 95.4281 202.68C95.4281 198.86 98.3681 197.04 101.428 197.04ZM97.7081 201.66H105.048C104.728 199.98 103.568 198.86 101.428 198.86C99.4481 198.86 98.0881 199.98 97.7081 201.66Z" fill="black"/>
<defs>
<clipPath id="clip0_9391_4543">
<rect width="93" height="148" fill="white" transform="matrix(-1 0 0 1 112 27)"/>
</clipPath>
</defs>
</svg>
