<svg width="132" height="219" viewBox="0 0 132 219" fill="none" xmlns="http://www.w3.org/2000/svg">
<rect width="132" height="219" rx="10" fill="white"/>
<g clip-path="url(#clip0_9410_4605)">
<path d="M111.431 27.8281L98.7467 153.558C97.9789 161.363 94.7651 168.681 89.6458 174.456H41.3541C36.2348 168.71 33.0211 161.363 32.2532 153.558L19.5688 27.8281H111.431Z" fill="white" stroke="#1D1D1B" stroke-linejoin="round"/>
<path d="M102.245 151.585C101.562 156.474 98.178 160.361 96.1871 162.591L94.9073 162.134C90.0725 160.447 86.9156 155.759 87.1431 150.613L87.3991 144.667C87.3991 143.952 86.8871 143.38 86.1761 143.352C85.4651 143.352 84.8963 143.866 84.8679 144.581C84.8679 144.61 84.8679 144.667 84.8679 144.695L85.1238 154.73C85.2376 159.332 82.6211 163.706 78.2128 165.679C73.8046 167.651 68.2018 166.308 64.7605 162.62L58.1339 155.502C54.4651 151.528 52.4174 146.325 52.389 140.922V83.3455C52.389 81.2871 51.5642 79.3146 50.1137 77.8566L38.766 66.45C38.5669 66.2499 38.2541 66.1927 37.9981 66.2784C35.9789 67.0217 33.7321 67.0217 31.7128 66.2784C26.4229 64.3345 23.977 57.9879 27.0202 52.8421C28.8403 49.7546 32.4807 47.9535 36.0073 48.4681C42.0651 49.2972 45.4495 55.3578 43.4871 60.7896C43.4018 61.0754 43.4303 61.3613 43.6578 61.5614L48.8055 66.7359C49.6303 67.5649 50.9669 67.5649 51.7917 66.7359C52.6165 65.9068 52.6165 64.5632 51.7917 63.7341C51.7064 63.6483 51.6495 63.5912 51.5642 63.534C46.2174 59.5603 45.1082 51.9845 49.0614 46.6099V27.5703H68.3725V46.5813C68.5147 46.7529 68.6284 46.953 68.7706 47.1531C72.411 52.7277 70.8752 60.2178 65.3293 63.8771C65.1303 64.02 64.988 64.2487 64.988 64.506V102.185C64.988 103.186 65.0734 104.186 65.3009 105.158C65.7844 107.216 66.5523 109.189 67.633 111.019C68.344 112.219 69.6238 112.991 71.0174 112.877C72.0128 112.791 73.0367 112.591 73.9752 112.277L80.1468 110.104C83.844 108.903 87.8257 108.846 91.5514 109.904L102.529 113.649L103.525 115.678C106.596 121.911 105.999 129.344 101.932 134.975L100.083 137.52C98.3486 136.919 96.6422 136.319 94.9358 135.69C90.1293 133.946 86.9725 129.286 87.2 124.169L87.4559 118.251C87.4559 117.537 86.944 116.965 86.233 116.936C85.522 116.936 84.9532 117.451 84.9247 118.166C84.9247 118.194 84.9247 118.223 84.9247 118.28L85.1807 124.226C85.4082 129.801 81.711 134.775 76.3073 136.062L66.8082 138.349C66.1541 138.52 65.7559 139.178 65.9266 139.807C66.0688 140.436 66.6945 140.836 67.3202 140.722C71.2449 139.349 75.1697 138.034 79.1229 136.776C82.7633 135.461 86.7165 135.261 90.4991 136.205C93.6275 137.091 96.7559 138.091 99.8275 139.178C99.8275 139.178 103.212 145.524 102.359 151.671L102.245 151.585Z" fill="white" stroke="#1D1D1B" stroke-linejoin="round"/>
<path d="M35.0119 61.7302C32.6715 61.7302 30.7743 59.8231 30.7743 57.4705C30.7743 55.118 32.6715 53.2109 35.0119 53.2109C37.3523 53.2109 39.2495 55.118 39.2495 57.4705C39.2495 59.8231 37.3523 61.7302 35.0119 61.7302Z" fill="white" stroke="#1D1D1B" stroke-width="1.5" stroke-linejoin="round"/>
<path d="M35.0119 61.7302C32.6715 61.7302 30.7743 59.8231 30.7743 57.4705C30.7743 55.118 32.6715 53.2109 35.0119 53.2109C37.3523 53.2109 39.2495 55.118 39.2495 57.4705C39.2495 59.8231 37.3523 61.7302 35.0119 61.7302Z" fill="white" stroke="#1D1D1B" stroke-width="1.5" stroke-linejoin="round"/>
<path d="M58.788 59.7307C55.4581 59.7307 52.7587 57.0172 52.7587 53.67C52.7587 50.3228 55.4581 47.6094 58.788 47.6094C62.118 47.6094 64.8174 50.3228 64.8174 53.67C64.8174 57.0172 62.118 59.7307 58.788 59.7307Z" fill="white" stroke="#1D1D1B" stroke-width="1.5" stroke-linejoin="round"/>
<path d="M58.788 59.7307C55.4581 59.7307 52.7587 57.0172 52.7587 53.67C52.7587 50.3228 55.4581 47.6094 58.788 47.6094C62.118 47.6094 64.8174 50.3228 64.8174 53.67C64.8174 57.0172 62.118 59.7307 58.788 59.7307Z" fill="white" stroke="#1D1D1B" stroke-width="1.5" stroke-linejoin="round"/>
<path d="M58.788 59.7307C55.4581 59.7307 52.7587 57.0172 52.7587 53.67C52.7587 50.3228 55.4581 47.6094 58.788 47.6094C62.118 47.6094 64.8174 50.3228 64.8174 53.67C64.8174 57.0172 62.118 59.7307 58.788 59.7307Z" fill="white" stroke="#1D1D1B" stroke-width="1.5" stroke-linejoin="round"/>
</g>
<path d="M17.5707 194H20.0307V208H17.5707V194ZM25.8548 205.92H33.0948V208H22.4348V206.02L29.4948 199.42H22.8148V197.34H32.9148V199.32L25.8548 205.92ZM43.5698 197.34H46.0298V211.34H43.5698V206.6C42.7298 207.62 41.4498 208.3 39.6498 208.3C36.5498 208.3 34.1098 206.28 34.1098 202.68C34.1098 199.06 36.5498 197.04 39.6498 197.04C41.4498 197.04 42.7298 197.72 43.5698 198.74V197.34ZM40.1298 206.48C42.7098 206.48 43.9498 204.88 43.9498 202.68C43.9498 200.46 42.6898 198.86 40.1298 198.86C37.5698 198.86 36.3898 200.42 36.3898 202.68C36.3898 204.92 37.5498 206.48 40.1298 206.48ZM57.2155 197.34H59.6755V208H57.2155V206.36C56.7155 207.06 55.3555 208.3 53.1355 208.3C50.3555 208.3 48.8355 206.72 48.8355 204.24V197.34H51.2955V203.5C51.2955 205.3 52.2755 206.3 54.2155 206.3C56.1555 206.3 57.2155 205.18 57.2155 203.5V197.34ZM62.4684 208V197.34H64.9284V208H62.4684ZM63.6884 195.86C62.9284 195.86 62.3884 195.42 62.3884 194.66C62.3884 193.9 62.9284 193.46 63.6884 193.46C64.4684 193.46 65.0084 193.9 65.0084 194.66C65.0084 195.42 64.4684 195.86 63.6884 195.86ZM72.9223 197.04C76.3023 197.04 79.0223 199.04 78.7423 203.46H69.1423C69.4223 205.28 70.7223 206.48 72.9623 206.48C75.0423 206.48 75.9223 205.48 76.2823 204.72H78.4423C77.9023 206.9 75.8223 208.3 72.9623 208.3C69.9223 208.3 66.9223 206.56 66.9223 202.68C66.9223 198.86 69.8623 197.04 72.9223 197.04ZM69.2023 201.66H76.5423C76.2223 199.98 75.0623 198.86 72.9223 198.86C70.9423 198.86 69.5823 199.98 69.2023 201.66ZM87.5091 197.04C87.9891 197.04 88.2691 197.06 88.6891 197.12V199.56H88.6091C88.1891 199.44 87.6491 199.36 86.9691 199.36C84.2691 199.36 83.2491 200.92 83.2491 202.58V208H80.7691V197.34H83.2491V199.34C83.7291 198.56 85.2091 197.04 87.5091 197.04ZM99.1357 194H101.596V208H99.1357V206.6C98.2957 207.62 97.0157 208.3 95.2357 208.3C92.1157 208.3 89.6957 206.28 89.6957 202.68C89.6957 199.06 92.1157 197.04 95.2357 197.04C97.0157 197.04 98.2957 197.72 99.1357 198.74V194ZM95.7157 206.48C98.2557 206.48 99.5157 204.88 99.5157 202.68C99.5157 200.46 98.2957 198.86 95.7157 198.86C93.1157 198.86 91.9757 200.42 91.9757 202.68C91.9757 204.92 93.1557 206.48 95.7157 206.48ZM109.182 197.04C112.122 197.04 114.622 198.02 114.622 201.08V208H112.162V206.62C111.642 207.22 110.362 208.3 107.862 208.3C105.302 208.3 103.602 207.24 103.602 205.2C103.602 203 104.802 201.26 112.162 201.74V201.08C112.162 199.6 111.402 198.86 109.182 198.86C107.282 198.86 106.502 199.48 106.322 200.38H104.022C104.342 198.14 106.422 197.04 109.182 197.04ZM112.162 205V203.22C107.722 203 106.122 203.38 106.122 205.04C106.122 206.12 106.962 206.66 108.382 206.66C110.262 206.66 111.502 205.96 112.162 205Z" fill="black"/>
<defs>
<clipPath id="clip0_9410_4605">
<rect width="93" height="148" fill="white" transform="matrix(-1 0 0 1 112 27)"/>
</clipPath>
</defs>
</svg>
