<svg width="132" height="219" viewBox="0 0 132 219" fill="none" xmlns="http://www.w3.org/2000/svg">
<rect width="132" height="219" rx="10" fill="white"/>
<path d="M52.6673 208.18H49.8273L46.7473 203.24C46.6073 203.24 46.4473 203.26 46.3073 203.26H41.0073V208.18H38.5473V194.18H47.1073C50.5873 194.18 52.1873 196 52.1873 198.7C52.1873 200.66 51.1873 202.12 49.2073 202.82L52.6673 208.18ZM41.0073 196.26V201.2H46.6073C48.5473 201.2 49.6673 200.36 49.6673 198.7C49.6673 197 48.6073 196.26 46.6073 196.26H41.0073ZM54.6754 208.18V197.52H57.1354V208.18H54.6754ZM55.8954 196.04C55.1354 196.04 54.5954 195.6 54.5954 194.84C54.5954 194.08 55.1354 193.64 55.8954 193.64C56.6754 193.64 57.2154 194.08 57.2154 194.84C57.2154 195.6 56.6754 196.04 55.8954 196.04ZM68.5893 197.52H71.0493V207.16C71.0493 211.28 67.9093 211.9 64.8493 211.9C61.5093 211.9 59.5093 210.72 59.2893 208.7H61.5693C61.7293 209.34 62.5293 210.04 64.8493 210.04C67.8293 210.04 68.5893 209.08 68.5893 207.16V205.98C67.8093 206.92 66.5493 207.52 64.6693 207.52C61.5693 207.52 59.1293 205.98 59.1293 202.48C59.1293 198.96 61.5693 197.22 64.6693 197.22C66.5493 197.22 67.8093 197.92 68.5893 198.96V197.52ZM65.1493 205.92C67.4493 205.92 68.9693 204.68 68.9693 202.48C68.9693 200.26 67.4893 199.04 65.1493 199.04C62.8293 199.04 61.4093 200.22 61.4093 202.48C61.4093 204.72 62.8493 205.92 65.1493 205.92ZM80.3951 197.22C83.1751 197.22 84.6951 198.8 84.6951 201.28V208.18H82.2351V202.02C82.2351 200.22 81.2551 199.22 79.3151 199.22C77.3751 199.22 76.3151 200.34 76.3151 202.02V208.18H73.8551V194.18H76.3151V199.16C76.8151 198.46 78.1751 197.22 80.3951 197.22ZM94.0573 199.4H90.8373V204.2C90.8373 206 91.5573 206.5 94.0573 206.24V208.16C93.6973 208.26 93.1573 208.34 92.6573 208.34C89.4173 208.34 88.3773 207.02 88.3773 204.2V199.4H86.2973V197.52H88.3773V194.76H90.8373V197.52H94.0573V199.4Z" fill="black"/>
<g clip-path="url(#clip0_8865_3209)">
<path d="M19.5688 27.8281L32.2533 153.558C33.0211 161.363 36.2349 168.681 41.3542 174.456H89.6459C94.7652 168.71 97.9789 161.363 98.7468 153.558L111.431 27.8281H19.5688Z" fill="white" stroke="#1D1D1B" stroke-linejoin="round"/>
<path d="M28.7551 151.585C29.4376 156.474 32.822 160.361 34.8129 162.591L36.0927 162.134C40.9275 160.447 44.0844 155.759 43.8569 150.613L43.6009 144.667C43.6009 143.952 44.1129 143.38 44.8239 143.352C45.5349 143.352 46.1037 143.866 46.1321 144.581C46.1321 144.61 46.1321 144.667 46.1321 144.695L45.8762 154.73C45.7624 159.332 48.3789 163.706 52.7872 165.679C57.1954 167.651 62.7982 166.308 66.2395 162.62L72.8661 155.502C76.5349 151.528 78.5826 146.325 78.611 140.922V83.3455C78.611 81.2871 79.4358 79.3146 80.8863 77.8566L92.234 66.45C92.4331 66.2499 92.7459 66.1927 93.0019 66.2784C95.0211 67.0217 97.2679 67.0217 99.2872 66.2784C104.577 64.3345 107.023 57.9879 103.98 52.8421C102.16 49.7546 98.5193 47.9535 94.9927 48.4681C88.9349 49.2972 85.5505 55.3578 87.5129 60.7896C87.5982 61.0754 87.5697 61.3613 87.3422 61.5614L82.1945 66.7359C81.3697 67.5649 80.0331 67.5649 79.2083 66.7359C78.3835 65.9068 78.3835 64.5632 79.2083 63.7341C79.2936 63.6483 79.3505 63.5912 79.4358 63.534C84.7826 59.5603 85.8918 51.9845 81.9386 46.6099V27.5703H62.6275V46.5813C62.4853 46.7529 62.3716 46.953 62.2294 47.1531C58.589 52.7277 60.1248 60.2178 65.6707 63.8771C65.8697 64.02 66.012 64.2487 66.012 64.506V102.185C66.012 103.186 65.9266 104.186 65.6991 105.158C65.2156 107.216 64.4477 109.189 63.367 111.019C62.656 112.219 61.3762 112.991 59.9826 112.877C58.9872 112.791 57.9633 112.591 57.0248 112.277L50.8532 110.104C47.156 108.903 43.1743 108.846 39.4486 109.904L28.4707 113.649L27.4752 115.678C24.4037 121.911 25.0009 129.344 29.0679 134.975L30.9165 137.52C32.6514 136.919 34.3578 136.319 36.0642 135.69C40.8707 133.946 44.0275 129.286 43.8 124.169L43.5441 118.251C43.5441 117.537 44.056 116.965 44.767 116.936C45.478 116.936 46.0468 117.451 46.0753 118.166C46.0753 118.194 46.0753 118.223 46.0753 118.28L45.8193 124.226C45.5918 129.801 49.289 134.775 54.6927 136.062L64.1918 138.349C64.8459 138.52 65.2441 139.178 65.0734 139.807C64.9312 140.436 64.3055 140.836 63.6798 140.722C59.7551 139.349 55.8303 138.034 51.8771 136.776C48.2367 135.461 44.2835 135.261 40.5009 136.205C37.3725 137.091 34.2441 138.091 31.1725 139.178C31.1725 139.178 27.7881 145.524 28.6413 151.671L28.7551 151.585Z" fill="white" stroke="#1D1D1B" stroke-linejoin="round"/>
<path d="M95.9881 61.7302C98.3285 61.7302 100.226 59.8231 100.226 57.4705C100.226 55.118 98.3285 53.2109 95.9881 53.2109C93.6477 53.2109 91.7505 55.118 91.7505 57.4705C91.7505 59.8231 93.6477 61.7302 95.9881 61.7302Z" fill="white" stroke="#1D1D1B" stroke-width="1.5" stroke-linejoin="round"/>
<path d="M95.9881 61.7302C98.3285 61.7302 100.226 59.8231 100.226 57.4705C100.226 55.118 98.3285 53.2109 95.9881 53.2109C93.6477 53.2109 91.7505 55.118 91.7505 57.4705C91.7505 59.8231 93.6477 61.7302 95.9881 61.7302Z" fill="white" stroke="#1D1D1B" stroke-width="1.5" stroke-linejoin="round"/>
<path d="M72.212 59.7307C75.5419 59.7307 78.2413 57.0172 78.2413 53.67C78.2413 50.3228 75.5419 47.6094 72.212 47.6094C68.882 47.6094 66.1826 50.3228 66.1826 53.67C66.1826 57.0172 68.882 59.7307 72.212 59.7307Z" fill="white" stroke="#1D1D1B" stroke-width="1.5" stroke-linejoin="round"/>
<path d="M72.212 59.7307C75.5419 59.7307 78.2413 57.0172 78.2413 53.67C78.2413 50.3228 75.5419 47.6094 72.212 47.6094C68.882 47.6094 66.1826 50.3228 66.1826 53.67C66.1826 57.0172 68.882 59.7307 72.212 59.7307Z" fill="white" stroke="#1D1D1B" stroke-width="1.5" stroke-linejoin="round"/>
<path d="M72.212 59.7307C75.5419 59.7307 78.2413 57.0172 78.2413 53.67C78.2413 50.3228 75.5419 47.6094 72.212 47.6094C68.882 47.6094 66.1826 50.3228 66.1826 53.67C66.1826 57.0172 68.882 59.7307 72.212 59.7307Z" fill="white" stroke="#1D1D1B" stroke-width="1.5" stroke-linejoin="round"/>
</g>
<defs>
<clipPath id="clip0_8865_3209">
<rect width="93" height="148" fill="white" transform="translate(19 27)"/>
</clipPath>
</defs>
</svg>
