<svg width="132" height="219" viewBox="0 0 132 219" fill="none" xmlns="http://www.w3.org/2000/svg">
<rect width="132" height="219" rx="10" fill="white"/>
<path d="M39.942 194C44.462 194 48.202 195.56 48.202 201C48.202 206.44 44.462 208 39.942 208H34.182V194H39.942ZM39.642 205.92C43.462 205.92 45.682 204.62 45.682 201C45.682 197.4 43.462 196.08 39.642 196.08H36.642V205.92H39.642ZM57.1478 197.04C57.6278 197.04 57.9078 197.06 58.3278 197.12V199.56H58.2478C57.8278 199.44 57.2878 199.36 56.6078 199.36C53.9078 199.36 52.8878 200.92 52.8878 202.58V208H50.4078V197.34H52.8878V199.34C53.3678 198.56 54.8478 197.04 57.1478 197.04ZM65.4344 197.04C68.5544 197.04 71.5544 198.74 71.5544 202.68C71.5544 206.62 68.5544 208.3 65.4344 208.3C62.3144 208.3 59.3344 206.62 59.3344 202.68C59.3344 198.74 62.3144 197.04 65.4344 197.04ZM65.4344 206.48C68.2944 206.48 69.2744 204.54 69.2744 202.68C69.2744 200.8 68.2944 198.86 65.4344 198.86C62.5744 198.86 61.5944 200.8 61.5944 202.68C61.5944 204.54 62.5744 206.48 65.4344 206.48ZM73.5523 208V197.34H76.0123V208H73.5523ZM74.7723 195.86C74.0123 195.86 73.4723 195.42 73.4723 194.66C73.4723 193.9 74.0123 193.46 74.7723 193.46C75.5523 193.46 76.0923 193.9 76.0923 194.66C76.0923 195.42 75.5523 195.86 74.7723 195.86ZM85.5709 199.22H82.3509V204.02C82.3509 205.82 83.0709 206.32 85.5709 206.06V207.98C85.2109 208.08 84.6709 208.16 84.1709 208.16C80.9309 208.16 79.8909 206.84 79.8909 204.02V199.22H77.8109V197.34H79.8909V194.58H82.3509V197.34H85.5709V199.22ZM92.9711 197.04C96.3511 197.04 99.0711 199.04 98.7911 203.46H89.1911C89.4711 205.28 90.7711 206.48 93.0111 206.48C95.0911 206.48 95.9711 205.48 96.3311 204.72H98.4911C97.9511 206.9 95.8711 208.3 93.0111 208.3C89.9711 208.3 86.9711 206.56 86.9711 202.68C86.9711 198.86 89.9111 197.04 92.9711 197.04ZM89.2511 201.66H96.5911C96.2711 199.98 95.1111 198.86 92.9711 198.86C90.9911 198.86 89.6311 199.98 89.2511 201.66Z" fill="black"/>
<g clip-path="url(#clip0_9391_4560)">
<path d="M19.5688 27.8281L32.2533 153.558C33.0211 161.363 36.2349 168.681 41.3542 174.456H89.6459C94.7652 168.71 97.9789 161.363 98.7468 153.558L111.431 27.8281H19.5688Z" fill="white" stroke="#1D1D1B" stroke-linejoin="round"/>
<path d="M28.7551 151.585C29.4376 156.474 32.822 160.361 34.8129 162.591L36.0927 162.134C40.9275 160.447 44.0844 155.759 43.8569 150.613L43.6009 144.667C43.6009 143.952 44.1129 143.38 44.8239 143.352C45.5349 143.352 46.1037 143.866 46.1321 144.581C46.1321 144.61 46.1321 144.667 46.1321 144.695L45.8762 154.73C45.7624 159.332 48.3789 163.706 52.7872 165.679C57.1954 167.651 62.7982 166.308 66.2395 162.62L72.8661 155.502C76.5349 151.528 78.5826 146.325 78.611 140.922V83.3455C78.611 81.2871 79.4358 79.3146 80.8863 77.8566L92.234 66.45C92.4331 66.2499 92.7459 66.1927 93.0019 66.2784C95.0211 67.0217 97.2679 67.0217 99.2872 66.2784C104.577 64.3345 107.023 57.9879 103.98 52.8421C102.16 49.7546 98.5193 47.9535 94.9927 48.4681C88.9349 49.2972 85.5505 55.3578 87.5129 60.7896C87.5982 61.0754 87.5697 61.3613 87.3422 61.5614L82.1945 66.7359C81.3697 67.5649 80.0331 67.5649 79.2083 66.7359C78.3835 65.9068 78.3835 64.5632 79.2083 63.7341C79.2936 63.6483 79.3505 63.5912 79.4358 63.534C84.7826 59.5603 85.8918 51.9845 81.9386 46.6099V27.5703H62.6275V46.5813C62.4853 46.7529 62.3716 46.953 62.2294 47.1531C58.589 52.7277 60.1248 60.2178 65.6707 63.8771C65.8697 64.02 66.012 64.2487 66.012 64.506V102.185C66.012 103.186 65.9266 104.186 65.6991 105.158C65.2156 107.216 64.4477 109.189 63.367 111.019C62.656 112.219 61.3762 112.991 59.9826 112.877C58.9872 112.791 57.9633 112.591 57.0248 112.277L50.8532 110.104C47.156 108.903 43.1743 108.846 39.4486 109.904L28.4707 113.649L27.4752 115.678C24.4037 121.911 25.0009 129.344 29.0679 134.975L30.9165 137.52C32.6514 136.919 34.3578 136.319 36.0642 135.69C40.8707 133.946 44.0275 129.286 43.8 124.169L43.5441 118.251C43.5441 117.537 44.056 116.965 44.767 116.936C45.478 116.936 46.0468 117.451 46.0753 118.166C46.0753 118.194 46.0753 118.223 46.0753 118.28L45.8193 124.226C45.5918 129.801 49.289 134.775 54.6927 136.062L64.1918 138.349C64.8459 138.52 65.2441 139.178 65.0734 139.807C64.9312 140.436 64.3055 140.836 63.6798 140.722C59.7551 139.349 55.8303 138.034 51.8771 136.776C48.2367 135.461 44.2835 135.261 40.5009 136.205C37.3725 137.091 34.2441 138.091 31.1725 139.178C31.1725 139.178 27.7881 145.524 28.6413 151.671L28.7551 151.585Z" fill="white" stroke="#1D1D1B" stroke-linejoin="round"/>
<path d="M95.9881 61.7302C98.3285 61.7302 100.226 59.8231 100.226 57.4705C100.226 55.118 98.3285 53.2109 95.9881 53.2109C93.6477 53.2109 91.7505 55.118 91.7505 57.4705C91.7505 59.8231 93.6477 61.7302 95.9881 61.7302Z" fill="white" stroke="#1D1D1B" stroke-width="1.5" stroke-linejoin="round"/>
<path d="M95.9881 61.7302C98.3285 61.7302 100.226 59.8231 100.226 57.4705C100.226 55.118 98.3285 53.2109 95.9881 53.2109C93.6477 53.2109 91.7505 55.118 91.7505 57.4705C91.7505 59.8231 93.6477 61.7302 95.9881 61.7302Z" fill="white" stroke="#1D1D1B" stroke-width="1.5" stroke-linejoin="round"/>
<path d="M72.212 59.7307C75.5419 59.7307 78.2413 57.0172 78.2413 53.67C78.2413 50.3228 75.5419 47.6094 72.212 47.6094C68.882 47.6094 66.1826 50.3228 66.1826 53.67C66.1826 57.0172 68.882 59.7307 72.212 59.7307Z" fill="white" stroke="#1D1D1B" stroke-width="1.5" stroke-linejoin="round"/>
<path d="M72.212 59.7307C75.5419 59.7307 78.2413 57.0172 78.2413 53.67C78.2413 50.3228 75.5419 47.6094 72.212 47.6094C68.882 47.6094 66.1826 50.3228 66.1826 53.67C66.1826 57.0172 68.882 59.7307 72.212 59.7307Z" fill="white" stroke="#1D1D1B" stroke-width="1.5" stroke-linejoin="round"/>
<path d="M72.212 59.7307C75.5419 59.7307 78.2413 57.0172 78.2413 53.67C78.2413 50.3228 75.5419 47.6094 72.212 47.6094C68.882 47.6094 66.1826 50.3228 66.1826 53.67C66.1826 57.0172 68.882 59.7307 72.212 59.7307Z" fill="white" stroke="#1D1D1B" stroke-width="1.5" stroke-linejoin="round"/>
</g>
<defs>
<clipPath id="clip0_9391_4560">
<rect width="93" height="148" fill="white" transform="translate(19 27)"/>
</clipPath>
</defs>
</svg>
