<svg width="132" height="219" viewBox="0 0 132 219" fill="none" xmlns="http://www.w3.org/2000/svg">
<rect width="132" height="219" rx="10" fill="white"/>
<path d="M43.1653 208H40.3253L37.2453 203.06C37.1053 203.06 36.9453 203.08 36.8053 203.08H31.5053V208H29.0453V194H37.6053C41.0853 194 42.6853 195.82 42.6853 198.52C42.6853 200.48 41.6853 201.94 39.7053 202.64L43.1653 208ZM31.5053 196.08V201.02H37.1053C39.0453 201.02 40.1653 200.18 40.1653 198.52C40.1653 196.82 39.1053 196.08 37.1053 196.08H31.5053ZM49.9828 197.04C53.3628 197.04 56.0828 199.04 55.8028 203.46H46.2028C46.4828 205.28 47.7828 206.48 50.0228 206.48C52.1028 206.48 52.9828 205.48 53.3428 204.72H55.5028C54.9628 206.9 52.8828 208.3 50.0228 208.3C46.9828 208.3 43.9828 206.56 43.9828 202.68C43.9828 198.86 46.9228 197.04 49.9828 197.04ZM46.2628 201.66H53.6028C53.2828 199.98 52.1228 198.86 49.9828 198.86C48.0028 198.86 46.6428 199.98 46.2628 201.66ZM63.1697 206.48C65.3297 206.48 66.4097 205.22 66.7097 204.02H69.0097C68.4897 206.86 66.0497 208.3 63.1697 208.3C60.0497 208.3 57.0297 206.62 57.0297 202.68C57.0297 198.74 60.0497 197.04 63.1697 197.04C66.0497 197.04 68.4897 198.48 69.0097 201.32H66.7097C66.4097 200.12 65.3297 198.86 63.1697 198.86C60.3097 198.86 59.2897 200.8 59.2897 202.68C59.2897 204.54 60.3097 206.48 63.1697 206.48ZM77.5533 197.04C80.3333 197.04 81.8533 198.62 81.8533 201.1V208H79.3933V201.84C79.3933 200.04 78.4133 199.04 76.4733 199.04C74.5333 199.04 73.4733 200.16 73.4733 201.84V208H71.0133V194H73.4733V198.98C73.9733 198.28 75.3333 197.04 77.5533 197.04ZM91.2155 199.22H87.9955V204.02C87.9955 205.82 88.7155 206.32 91.2155 206.06V207.98C90.8555 208.08 90.3155 208.16 89.8155 208.16C86.5755 208.16 85.5355 206.84 85.5355 204.02V199.22H83.4555V197.34H85.5355V194.58H87.9955V197.34H91.2155V199.22ZM99.2309 201.76C102.251 202.28 103.951 202.68 103.951 204.78C103.951 207.26 101.891 208.3 98.3309 208.3C95.0909 208.3 92.6109 207.18 92.6109 204.76H95.1509C95.1509 205.92 96.2909 206.44 98.5309 206.44C100.711 206.44 101.491 205.9 101.491 205.1C101.491 203.92 99.7109 203.9 96.9909 203.4C94.2309 202.88 93.0109 202.24 93.0109 200.34C93.0109 198.2 95.0109 197.04 98.1509 197.04C101.571 197.04 103.411 198.4 103.411 200.38H101.111C101.111 199.7 100.391 198.86 98.1109 198.86C95.9709 198.86 95.2309 199.4 95.2309 200.22C95.2309 201.3 97.3309 201.44 99.2309 201.76Z" fill="black"/>
<g clip-path="url(#clip0_9410_4658)">
<path d="M19.5688 27.8281L32.2533 153.558C33.0211 161.363 36.2349 168.681 41.3542 174.456H89.6459C94.7652 168.71 97.9789 161.363 98.7468 153.558L111.431 27.8281H19.5688Z" fill="white" stroke="#1D1D1B" stroke-linejoin="round"/>
<path d="M28.7551 151.585C29.4376 156.474 32.822 160.361 34.8129 162.591L36.0927 162.134C40.9275 160.447 44.0844 155.759 43.8569 150.613L43.6009 144.667C43.6009 143.952 44.1129 143.38 44.8239 143.352C45.5349 143.352 46.1037 143.866 46.1321 144.581C46.1321 144.61 46.1321 144.667 46.1321 144.695L45.8762 154.73C45.7624 159.332 48.3789 163.706 52.7872 165.679C57.1954 167.651 62.7982 166.308 66.2395 162.62L72.8661 155.502C76.5349 151.528 78.5826 146.325 78.611 140.922V83.3455C78.611 81.2871 79.4358 79.3146 80.8863 77.8566L92.234 66.45C92.4331 66.2499 92.7459 66.1927 93.0019 66.2784C95.0211 67.0217 97.2679 67.0217 99.2872 66.2784C104.577 64.3345 107.023 57.9879 103.98 52.8421C102.16 49.7546 98.5193 47.9535 94.9927 48.4681C88.9349 49.2972 85.5505 55.3578 87.5129 60.7896C87.5982 61.0754 87.5697 61.3613 87.3422 61.5614L82.1945 66.7359C81.3697 67.5649 80.0331 67.5649 79.2083 66.7359C78.3835 65.9068 78.3835 64.5632 79.2083 63.7341C79.2936 63.6483 79.3505 63.5912 79.4358 63.534C84.7826 59.5603 85.8918 51.9845 81.9386 46.6099V27.5703H62.6275V46.5813C62.4853 46.7529 62.3716 46.953 62.2294 47.1531C58.589 52.7277 60.1248 60.2178 65.6707 63.8771C65.8697 64.02 66.012 64.2487 66.012 64.506V102.185C66.012 103.186 65.9266 104.186 65.6991 105.158C65.2156 107.216 64.4477 109.189 63.367 111.019C62.656 112.219 61.3762 112.991 59.9826 112.877C58.9872 112.791 57.9633 112.591 57.0248 112.277L50.8532 110.104C47.156 108.903 43.1743 108.846 39.4486 109.904L28.4707 113.649L27.4752 115.678C24.4037 121.911 25.0009 129.344 29.0679 134.975L30.9165 137.52C32.6514 136.919 34.3578 136.319 36.0642 135.69C40.8707 133.946 44.0275 129.286 43.8 124.169L43.5441 118.251C43.5441 117.537 44.056 116.965 44.767 116.936C45.478 116.936 46.0468 117.451 46.0753 118.166C46.0753 118.194 46.0753 118.223 46.0753 118.28L45.8193 124.226C45.5918 129.801 49.289 134.775 54.6927 136.062L64.1918 138.349C64.8459 138.52 65.2441 139.178 65.0734 139.807C64.9312 140.436 64.3055 140.836 63.6798 140.722C59.7551 139.349 55.8303 138.034 51.8771 136.776C48.2367 135.461 44.2835 135.261 40.5009 136.205C37.3725 137.091 34.2441 138.091 31.1725 139.178C31.1725 139.178 27.7881 145.524 28.6413 151.671L28.7551 151.585Z" fill="white" stroke="#1D1D1B" stroke-linejoin="round"/>
<path d="M95.9881 61.7302C98.3285 61.7302 100.226 59.8231 100.226 57.4705C100.226 55.118 98.3285 53.2109 95.9881 53.2109C93.6477 53.2109 91.7505 55.118 91.7505 57.4705C91.7505 59.8231 93.6477 61.7302 95.9881 61.7302Z" fill="white" stroke="#1D1D1B" stroke-width="1.5" stroke-linejoin="round"/>
<path d="M95.9881 61.7302C98.3285 61.7302 100.226 59.8231 100.226 57.4705C100.226 55.118 98.3285 53.2109 95.9881 53.2109C93.6477 53.2109 91.7505 55.118 91.7505 57.4705C91.7505 59.8231 93.6477 61.7302 95.9881 61.7302Z" fill="white" stroke="#1D1D1B" stroke-width="1.5" stroke-linejoin="round"/>
<path d="M72.212 59.7307C75.5419 59.7307 78.2413 57.0172 78.2413 53.67C78.2413 50.3228 75.5419 47.6094 72.212 47.6094C68.882 47.6094 66.1826 50.3228 66.1826 53.67C66.1826 57.0172 68.882 59.7307 72.212 59.7307Z" fill="white" stroke="#1D1D1B" stroke-width="1.5" stroke-linejoin="round"/>
<path d="M72.212 59.7307C75.5419 59.7307 78.2413 57.0172 78.2413 53.67C78.2413 50.3228 75.5419 47.6094 72.212 47.6094C68.882 47.6094 66.1826 50.3228 66.1826 53.67C66.1826 57.0172 68.882 59.7307 72.212 59.7307Z" fill="white" stroke="#1D1D1B" stroke-width="1.5" stroke-linejoin="round"/>
<path d="M72.212 59.7307C75.5419 59.7307 78.2413 57.0172 78.2413 53.67C78.2413 50.3228 75.5419 47.6094 72.212 47.6094C68.882 47.6094 66.1826 50.3228 66.1826 53.67C66.1826 57.0172 68.882 59.7307 72.212 59.7307Z" fill="white" stroke="#1D1D1B" stroke-width="1.5" stroke-linejoin="round"/>
</g>
<defs>
<clipPath id="clip0_9410_4658">
<rect width="93" height="148" fill="white" transform="translate(19 27)"/>
</clipPath>
</defs>
</svg>
