<svg width="132" height="219" viewBox="0 0 132 219" fill="none" xmlns="http://www.w3.org/2000/svg">
<rect width="132" height="219" rx="10" fill="white"/>
<path d="M27.3151 194C31.8351 194 35.5751 195.56 35.5751 201C35.5751 206.44 31.8351 208 27.3151 208H21.5551V194H27.3151ZM27.0151 205.92C30.8351 205.92 33.0551 204.62 33.0551 201C33.0551 197.4 30.8351 196.08 27.0151 196.08H24.0151V205.92H27.0151ZM42.9809 197.04C46.3609 197.04 49.0809 199.04 48.8009 203.46H39.2009C39.4809 205.28 40.7809 206.48 43.0209 206.48C45.1009 206.48 45.9809 205.48 46.3409 204.72H48.5009C47.9609 206.9 45.8809 208.3 43.0209 208.3C39.9809 208.3 36.9809 206.56 36.9809 202.68C36.9809 198.86 39.9209 197.04 42.9809 197.04ZM39.2609 201.66H46.6009C46.2809 199.98 45.1209 198.86 42.9809 198.86C41.0009 198.86 39.6409 199.98 39.2609 201.66ZM57.5677 197.04C58.0477 197.04 58.3277 197.06 58.7477 197.12V199.56H58.6677C58.2477 199.44 57.7077 199.36 57.0277 199.36C54.3277 199.36 53.3077 200.92 53.3077 202.58V208H50.8277V197.34H53.3077V199.34C53.7877 198.56 55.2677 197.04 57.5677 197.04ZM65.7543 197.04C69.1343 197.04 71.8543 199.04 71.5743 203.46H61.9743C62.2543 205.28 63.5543 206.48 65.7943 206.48C67.8743 206.48 68.7543 205.48 69.1143 204.72H71.2743C70.7343 206.9 68.6543 208.3 65.7943 208.3C62.7543 208.3 59.7543 206.56 59.7543 202.68C59.7543 198.86 62.6943 197.04 65.7543 197.04ZM62.0343 201.66H69.3743C69.0543 199.98 67.8943 198.86 65.7543 198.86C63.7743 198.86 62.4143 199.98 62.0343 201.66ZM78.9412 206.48C81.1012 206.48 82.1812 205.22 82.4812 204.02H84.7812C84.2612 206.86 81.8212 208.3 78.9412 208.3C75.8212 208.3 72.8012 206.62 72.8012 202.68C72.8012 198.74 75.8212 197.04 78.9412 197.04C81.8212 197.04 84.2612 198.48 84.7812 201.32H82.4812C82.1812 200.12 81.1012 198.86 78.9412 198.86C76.0812 198.86 75.0612 200.8 75.0612 202.68C75.0612 204.54 76.0812 206.48 78.9412 206.48ZM93.3248 197.04C96.1048 197.04 97.6248 198.62 97.6248 201.1V208H95.1648V201.84C95.1648 200.04 94.1848 199.04 92.2448 199.04C90.3048 199.04 89.2448 200.16 89.2448 201.84V208H86.7848V194H89.2448V198.98C89.7448 198.28 91.1048 197.04 93.3248 197.04ZM105.198 197.04C108.138 197.04 110.638 198.02 110.638 201.08V208H108.178V206.62C107.658 207.22 106.378 208.3 103.878 208.3C101.318 208.3 99.6176 207.24 99.6176 205.2C99.6176 203 100.818 201.26 108.178 201.74V201.08C108.178 199.6 107.418 198.86 105.198 198.86C103.298 198.86 102.518 199.48 102.338 200.38H100.038C100.358 198.14 102.438 197.04 105.198 197.04ZM108.178 205V203.22C103.738 203 102.138 203.38 102.138 205.04C102.138 206.12 102.978 206.66 104.398 206.66C106.278 206.66 107.518 205.96 108.178 205Z" fill="black"/>
<g clip-path="url(#clip0_9410_4622)">
<path d="M19.5688 27.8281L32.2533 153.558C33.0211 161.363 36.2349 168.681 41.3542 174.456H89.6459C94.7652 168.71 97.9789 161.363 98.7468 153.558L111.431 27.8281H19.5688Z" fill="white" stroke="#1D1D1B" stroke-linejoin="round"/>
<path d="M28.7551 151.585C29.4376 156.474 32.822 160.361 34.8129 162.591L36.0927 162.134C40.9275 160.447 44.0844 155.759 43.8569 150.613L43.6009 144.667C43.6009 143.952 44.1129 143.38 44.8239 143.352C45.5349 143.352 46.1037 143.866 46.1321 144.581C46.1321 144.61 46.1321 144.667 46.1321 144.695L45.8762 154.73C45.7624 159.332 48.3789 163.706 52.7872 165.679C57.1954 167.651 62.7982 166.308 66.2395 162.62L72.8661 155.502C76.5349 151.528 78.5826 146.325 78.611 140.922V83.3455C78.611 81.2871 79.4358 79.3146 80.8863 77.8566L92.234 66.45C92.4331 66.2499 92.7459 66.1927 93.0019 66.2784C95.0211 67.0217 97.2679 67.0217 99.2872 66.2784C104.577 64.3345 107.023 57.9879 103.98 52.8421C102.16 49.7546 98.5193 47.9535 94.9927 48.4681C88.9349 49.2972 85.5505 55.3578 87.5129 60.7896C87.5982 61.0754 87.5697 61.3613 87.3422 61.5614L82.1945 66.7359C81.3697 67.5649 80.0331 67.5649 79.2083 66.7359C78.3835 65.9068 78.3835 64.5632 79.2083 63.7341C79.2936 63.6483 79.3505 63.5912 79.4358 63.534C84.7826 59.5603 85.8918 51.9845 81.9386 46.6099V27.5703H62.6275V46.5813C62.4853 46.7529 62.3716 46.953 62.2294 47.1531C58.589 52.7277 60.1248 60.2178 65.6707 63.8771C65.8697 64.02 66.012 64.2487 66.012 64.506V102.185C66.012 103.186 65.9266 104.186 65.6991 105.158C65.2156 107.216 64.4477 109.189 63.367 111.019C62.656 112.219 61.3762 112.991 59.9826 112.877C58.9872 112.791 57.9633 112.591 57.0248 112.277L50.8532 110.104C47.156 108.903 43.1743 108.846 39.4486 109.904L28.4707 113.649L27.4752 115.678C24.4037 121.911 25.0009 129.344 29.0679 134.975L30.9165 137.52C32.6514 136.919 34.3578 136.319 36.0642 135.69C40.8707 133.946 44.0275 129.286 43.8 124.169L43.5441 118.251C43.5441 117.537 44.056 116.965 44.767 116.936C45.478 116.936 46.0468 117.451 46.0753 118.166C46.0753 118.194 46.0753 118.223 46.0753 118.28L45.8193 124.226C45.5918 129.801 49.289 134.775 54.6927 136.062L64.1918 138.349C64.8459 138.52 65.2441 139.178 65.0734 139.807C64.9312 140.436 64.3055 140.836 63.6798 140.722C59.7551 139.349 55.8303 138.034 51.8771 136.776C48.2367 135.461 44.2835 135.261 40.5009 136.205C37.3725 137.091 34.2441 138.091 31.1725 139.178C31.1725 139.178 27.7881 145.524 28.6413 151.671L28.7551 151.585Z" fill="white" stroke="#1D1D1B" stroke-linejoin="round"/>
<path d="M95.9881 61.7302C98.3285 61.7302 100.226 59.8231 100.226 57.4705C100.226 55.118 98.3285 53.2109 95.9881 53.2109C93.6477 53.2109 91.7505 55.118 91.7505 57.4705C91.7505 59.8231 93.6477 61.7302 95.9881 61.7302Z" fill="white" stroke="#1D1D1B" stroke-width="1.5" stroke-linejoin="round"/>
<path d="M95.9881 61.7302C98.3285 61.7302 100.226 59.8231 100.226 57.4705C100.226 55.118 98.3285 53.2109 95.9881 53.2109C93.6477 53.2109 91.7505 55.118 91.7505 57.4705C91.7505 59.8231 93.6477 61.7302 95.9881 61.7302Z" fill="white" stroke="#1D1D1B" stroke-width="1.5" stroke-linejoin="round"/>
<path d="M72.212 59.7307C75.5419 59.7307 78.2413 57.0172 78.2413 53.67C78.2413 50.3228 75.5419 47.6094 72.212 47.6094C68.882 47.6094 66.1826 50.3228 66.1826 53.67C66.1826 57.0172 68.882 59.7307 72.212 59.7307Z" fill="white" stroke="#1D1D1B" stroke-width="1.5" stroke-linejoin="round"/>
<path d="M72.212 59.7307C75.5419 59.7307 78.2413 57.0172 78.2413 53.67C78.2413 50.3228 75.5419 47.6094 72.212 47.6094C68.882 47.6094 66.1826 50.3228 66.1826 53.67C66.1826 57.0172 68.882 59.7307 72.212 59.7307Z" fill="white" stroke="#1D1D1B" stroke-width="1.5" stroke-linejoin="round"/>
<path d="M72.212 59.7307C75.5419 59.7307 78.2413 57.0172 78.2413 53.67C78.2413 50.3228 75.5419 47.6094 72.212 47.6094C68.882 47.6094 66.1826 50.3228 66.1826 53.67C66.1826 57.0172 68.882 59.7307 72.212 59.7307Z" fill="white" stroke="#1D1D1B" stroke-width="1.5" stroke-linejoin="round"/>
</g>
<defs>
<clipPath id="clip0_9410_4622">
<rect width="93" height="148" fill="white" transform="translate(19 27)"/>
</clipPath>
</defs>
</svg>
