<svg width="285" height="332" viewBox="0 0 285 332" fill="none" xmlns="http://www.w3.org/2000/svg">
<rect width="285" height="332" rx="10" fill="black"/>
<rect width="285" height="332" rx="10" fill="black"/>
<path d="M159.739 261.29C160.431 186.545 161.112 111.671 161.805 36.9375H159.128C157.543 110.708 155.947 184.479 154.362 258.25C153.282 273.711 139.406 286.155 123.511 286.155H120.294C104.399 286.155 90.5228 273.711 89.4428 258.25C87.858 184.479 86.2614 110.708 84.6766 36.9375H82C82.6926 111.683 83.3735 186.557 84.0661 261.29C84.3714 267.583 80.8378 296.016 118.416 301.721C120.74 302.05 123.065 302.05 125.389 301.721C162.967 296.027 159.434 267.583 159.739 261.29Z" fill="#E2E2E4"/>
<path d="M183.993 45.1562H166.571V46.1776H183.993V45.1562Z" fill="#E2E2E4"/>
<path d="M167.698 44.0234L161.57 45.6552L167.698 47.2987V44.0234Z" fill="#E2E2E4"/>
<path d="M153.776 45.1562H145.229V46.1776H153.776V45.1562Z" fill="#E2E2E4"/>
<path d="M152.66 47.2987L158.776 45.6552L152.66 44.0234V47.2987Z" fill="#E2E2E4"/>
<path d="M183.288 147.062H165.866V148.084H183.288V147.062Z" fill="#E2E2E4"/>
<path d="M166.981 145.938L160.865 147.569L166.981 149.213V145.938Z" fill="#E2E2E4"/>
<path d="M151.615 147.062H143.068V148.084H151.615V147.062Z" fill="#E2E2E4"/>
<path d="M150.499 149.213L156.615 147.569L150.499 145.938V149.213Z" fill="#E2E2E4"/>
<path d="M178.137 135.432C180.249 135.432 182.229 136.656 182.229 139.8C182.229 142.956 180.249 144.18 178.137 144.18C176.013 144.18 174.033 142.956 174.033 139.8C174.033 136.656 176.013 135.432 178.137 135.432ZM178.137 142.824C179.913 142.824 180.489 141.456 180.489 139.8C180.489 138.156 179.913 136.776 178.137 136.776C176.349 136.776 175.785 138.156 175.785 139.8C175.785 141.456 176.349 142.824 178.137 142.824ZM183.716 142.152C184.268 142.152 184.724 142.608 184.724 143.172C184.724 143.724 184.268 144.18 183.716 144.18C183.164 144.18 182.708 143.724 182.708 143.172C182.708 142.608 183.164 142.152 183.716 142.152ZM187.105 135.6H188.389V144H186.577V137.364L184.369 138.732V137.304L187.105 135.6ZM196.282 139.476C197.254 139.8 197.974 140.424 197.974 141.528C197.974 143.7 195.718 144.18 193.714 144.18C191.71 144.18 189.466 143.7 189.466 141.528C189.466 140.424 190.174 139.8 191.146 139.476C190.438 139.152 189.922 138.636 189.922 137.808C189.946 136.164 191.41 135.432 193.714 135.432C196.018 135.432 197.494 136.164 197.518 137.808C197.518 138.636 197.002 139.152 196.282 139.476ZM193.714 136.788C192.286 136.788 191.662 137.196 191.662 137.916C191.662 138.732 192.454 139.02 193.714 139.02C194.974 139.02 195.778 138.732 195.778 137.916C195.778 137.196 195.142 136.788 193.714 136.788ZM193.714 142.812C195.418 142.812 196.114 142.38 196.114 141.48C196.114 140.58 195.358 140.136 193.714 140.136C192.082 140.136 191.314 140.58 191.314 141.48C191.314 142.38 192.022 142.812 193.714 142.812ZM202.412 144V137.604H204.224V144H202.412ZM203.312 136.86C202.76 136.86 202.376 136.548 202.376 136.008C202.376 135.456 202.76 135.144 203.312 135.144C203.864 135.144 204.26 135.456 204.26 136.008C204.26 136.548 203.864 136.86 203.312 136.86ZM209.918 137.436C211.562 137.436 212.522 138.324 212.522 139.764V144H210.698V140.22C210.698 139.452 210.254 138.792 209.126 138.792C207.998 138.792 207.494 139.476 207.494 140.22V144H205.67V137.604H207.494V138.504C207.77 138.12 208.55 137.436 209.918 137.436Z" fill="#E2E2E4"/>
<path d="M178.137 33.432C180.249 33.432 182.229 34.656 182.229 37.8C182.229 40.956 180.249 42.18 178.137 42.18C176.013 42.18 174.033 40.956 174.033 37.8C174.033 34.656 176.013 33.432 178.137 33.432ZM178.137 40.824C179.913 40.824 180.489 39.456 180.489 37.8C180.489 36.156 179.913 34.776 178.137 34.776C176.349 34.776 175.785 36.156 175.785 37.8C175.785 39.456 176.349 40.824 178.137 40.824ZM183.716 40.152C184.268 40.152 184.724 40.608 184.724 41.172C184.724 41.724 184.268 42.18 183.716 42.18C183.164 42.18 182.708 41.724 182.708 41.172C182.708 40.608 183.164 40.152 183.716 40.152ZM187.105 33.6H188.389V42H186.577V35.364L184.369 36.732V35.304L187.105 33.6ZM192.202 33.6H193.486V42H191.674V35.364L189.466 36.732V35.304L192.202 33.6ZM198.287 42V35.604H200.099V42H198.287ZM199.187 34.86C198.635 34.86 198.251 34.548 198.251 34.008C198.251 33.456 198.635 33.144 199.187 33.144C199.739 33.144 200.135 33.456 200.135 34.008C200.135 34.548 199.739 34.86 199.187 34.86ZM205.793 35.436C207.437 35.436 208.397 36.324 208.397 37.764V42H206.573V38.22C206.573 37.452 206.129 36.792 205.001 36.792C203.873 36.792 203.369 37.476 203.369 38.22V42H201.545V35.604H203.369V36.504C203.645 36.12 204.425 35.436 205.793 35.436Z" fill="#E2E2E4"/>
<path d="M182.36 248.812H164.938V249.834H182.36V248.812Z" fill="#E2E2E4"/>
<path d="M166.054 247.688L159.938 249.319L166.054 250.963V247.688Z" fill="#E2E2E4"/>
<path d="M149.055 248.812H140.509V249.834H149.055V248.812Z" fill="#E2E2E4"/>
<path d="M147.94 250.963L154.057 249.319L147.94 247.688V250.963Z" fill="#E2E2E4"/>
<path d="M179.137 237.432C181.249 237.432 183.229 238.656 183.229 241.8C183.229 244.956 181.249 246.18 179.137 246.18C177.013 246.18 175.033 244.956 175.033 241.8C175.033 238.656 177.013 237.432 179.137 237.432ZM179.137 244.824C180.913 244.824 181.489 243.456 181.489 241.8C181.489 240.156 180.913 238.776 179.137 238.776C177.349 238.776 176.785 240.156 176.785 241.8C176.785 243.456 177.349 244.824 179.137 244.824ZM184.716 244.152C185.268 244.152 185.724 244.608 185.724 245.172C185.724 245.724 185.268 246.18 184.716 246.18C184.164 246.18 183.708 245.724 183.708 245.172C183.708 244.608 184.164 244.152 184.716 244.152ZM188.616 244.524H194.472V246H186.564C186.732 241.176 192.576 242.544 192.576 240.06C192.576 239.352 192.192 238.692 190.716 238.692C189.384 238.692 188.808 239.256 188.7 240.132H186.96C187.164 238.236 188.64 237.432 190.752 237.432C192.744 237.432 194.352 238.116 194.352 240.072C194.352 243.456 189.348 242.628 188.616 244.524ZM197.358 244.524H203.214V246H195.306C195.474 241.176 201.318 242.544 201.318 240.06C201.318 239.352 200.934 238.692 199.458 238.692C198.126 238.692 197.55 239.256 197.442 240.132H195.702C195.906 238.236 197.382 237.432 199.494 237.432C201.486 237.432 203.094 238.116 203.094 240.072C203.094 243.456 198.09 242.628 197.358 244.524ZM207.772 246V239.604H209.584V246H207.772ZM208.672 238.86C208.12 238.86 207.736 238.548 207.736 238.008C207.736 237.456 208.12 237.144 208.672 237.144C209.224 237.144 209.62 237.456 209.62 238.008C209.62 238.548 209.224 238.86 208.672 238.86ZM215.278 239.436C216.922 239.436 217.882 240.324 217.882 241.764V246H216.058V242.22C216.058 241.452 215.614 240.792 214.486 240.792C213.358 240.792 212.854 241.476 212.854 242.22V246H211.03V239.604H212.854V240.504C213.13 240.12 213.91 239.436 215.278 239.436Z" fill="#E2E2E4"/>
<path d="M187.714 301.734H126.469V302.251H187.714V301.734Z" fill="#E2E2E4"/>
<path d="M187.714 285.969H154.057V286.485H187.714V285.969Z" fill="#E2E2E4"/>
<path d="M195.867 288.432C197.979 288.432 199.959 289.656 199.959 292.8C199.959 295.956 197.979 297.18 195.867 297.18C193.743 297.18 191.763 295.956 191.763 292.8C191.763 289.656 193.743 288.432 195.867 288.432ZM195.867 295.824C197.643 295.824 198.219 294.456 198.219 292.8C198.219 291.156 197.643 289.776 195.867 289.776C194.079 289.776 193.515 291.156 193.515 292.8C193.515 294.456 194.079 295.824 195.867 295.824ZM201.446 295.152C201.998 295.152 202.454 295.608 202.454 296.172C202.454 296.724 201.998 297.18 201.446 297.18C200.894 297.18 200.438 296.724 200.438 296.172C200.438 295.608 200.894 295.152 201.446 295.152ZM207.5 291.444C209.612 291.444 211.136 292.224 211.136 294.168C211.136 296.436 209.384 297.18 207.272 297.18C204.74 297.18 203.06 295.968 203.06 292.8C203.06 289.656 204.848 288.432 207.272 288.432C208.844 288.432 210.752 288.972 210.968 290.724H209.168C209.012 290.184 208.436 289.776 207.272 289.776C205.208 289.776 204.836 291.18 204.836 292.8C205.184 291.984 206.228 291.444 207.5 291.444ZM207.272 295.8C208.616 295.8 209.396 295.248 209.396 294.168C209.396 293.076 208.484 292.596 207.38 292.596C206.036 292.596 205.172 293.064 205.172 294.168C205.172 295.296 205.928 295.8 207.272 295.8ZM214.597 288.6H215.881V297H214.069V290.364L211.861 291.732V290.304L214.597 288.6ZM220.682 297V290.604H222.494V297H220.682ZM221.582 289.86C221.03 289.86 220.646 289.548 220.646 289.008C220.646 288.456 221.03 288.144 221.582 288.144C222.134 288.144 222.53 288.456 222.53 289.008C222.53 289.548 222.134 289.86 221.582 289.86ZM228.188 290.436C229.832 290.436 230.792 291.324 230.792 292.764V297H228.968V293.22C228.968 292.452 228.524 291.792 227.396 291.792C226.268 291.792 225.764 292.476 225.764 293.22V297H223.94V290.604H225.764V291.504C226.04 291.12 226.82 290.436 228.188 290.436Z" fill="#E2E2E4"/>
<path d="M154.068 285.93H128.101V286.517H154.068V285.93Z" fill="black"/>
<path d="M185.225 290.305H184.708V297.888H185.225V290.305Z" fill="#E2E2E4"/>
<path d="M183.616 291.228L184.954 286.227L186.305 291.228H183.616Z" fill="#E2E2E4"/>
<path d="M183.616 296.977L184.954 301.989L186.305 296.977H183.616Z" fill="#E2E2E4"/>
</svg>
