<svg width="217" height="195" viewBox="0 0 217 195" fill="none" xmlns="http://www.w3.org/2000/svg">
<rect width="217" height="195" rx="10" fill="#D9D9D9"/>
<g clip-path="url(#clip0_3843_2352)">
<path fill-rule="evenodd" clip-rule="evenodd" d="M144.792 28C145.623 36.7943 143.931 45.2125 142.981 54.0067C141.586 67.8345 138.32 82.0963 140.072 95.172C143.308 109.115 143.248 125.692 140.547 140.3H138.944C141.645 126.01 141.764 109.636 138.528 95.548C136.717 83.9188 139.33 72.087 140.517 60.4867C141.497 52.7049 142.566 44.9521 143.219 37.0835" fill="#1D1D1B"/>
<path fill-rule="evenodd" clip-rule="evenodd" d="M93.5825 141.95L93.8794 140.098C95.334 128.729 97.1746 116.955 94.9184 105.586L95.0669 105.21C95.809 103.619 96.284 101.768 96.6996 100.061C100.114 85.4522 101.301 70.4672 103.943 55.6848C104.062 54.9615 104.21 54.2383 104.329 53.5151C105.012 49.6676 105.695 45.7912 106.674 42.0016C106.793 41.5387 108.278 35.9555 108.426 35.377C112.374 48.8576 114.215 62.8879 116.204 76.7158C117.362 84.3529 118.312 91.99 120.093 99.4536C120.479 101.334 121.013 103.446 121.785 105.239L122.023 105.615C119.766 117.1 121.369 128.874 122.735 140.358H121.132C120.627 136.569 120.182 132.837 119.855 129.163C119.113 120.832 118.935 113.108 120.301 105.847C114.037 85.7993 113.829 61.8176 108.426 41.5677C107.387 45.4151 106.378 50.4776 105.546 55.4244C102.726 70.0911 101.835 86.4936 98.0059 101.045C97.2934 103.793 96.8481 106.599 97.1746 109.405C98.3027 119.096 96.8481 129.684 95.5122 139.664" fill="#1D1D1B"/>
<path fill-rule="evenodd" clip-rule="evenodd" d="M72.0892 28.0859C71.2876 44.4595 75.711 62.2794 76.8094 78.2479C77.2844 84.1494 77.8484 90.1665 76.8094 95.2C73.4251 109.896 73.6329 127.542 76.8094 142.672L78.6797 144.35C75.5922 129.596 74.9391 110.272 78.3531 95.5182C80.164 83.7733 77.4625 71.739 76.275 59.9941C75.325 52.3569 74.286 44.7487 73.6329 37.0538" fill="#1D1D1B"/>
<path d="M139.508 144.64C137.727 149.471 133.274 152.306 129.326 152.306C117.48 152.306 119.529 121.034 119.529 116.463C119.529 112.789 120.123 107.901 120.449 105.731C119.469 104.053 118.044 96.7052 117.302 92.1345C116.709 88.4606 113.443 67.4874 111.87 57.4492H143.249C142.922 59.2139 142.061 64.6235 141.26 72.1449C140.28 81.4309 140.992 88.8366 142.922 108.826L142.981 109.463C144.941 129.915 141.764 138.594 139.538 144.611L139.508 144.64Z" fill="#D3D3D5" stroke="#1D1D1B" stroke-width="0.5" stroke-miterlimit="10"/>
<path d="M122.438 146.953H138.41" stroke="#1D1D1B" stroke-width="0.5" stroke-miterlimit="10"/>
</g>
<path d="M93.0653 180.592C95.6733 180.592 96.6493 179.04 96.9693 177.568H99.0333C98.5213 180.736 95.9933 182.24 93.0653 182.24C89.9613 182.24 86.9213 180.544 86.9213 176.4C86.9213 172.256 89.9613 170.576 93.0653 170.576C95.9933 170.576 98.5213 172.08 99.0333 175.248H96.9693C96.6493 173.776 95.6733 172.224 93.0653 172.224C90.3773 172.224 88.9533 173.824 88.9533 176.4C88.9533 178.976 90.3773 180.592 93.0653 180.592ZM105.032 173.232C107.528 173.232 109.928 174.592 109.928 177.744C109.928 180.896 107.528 182.24 105.032 182.24C102.536 182.24 100.152 180.896 100.152 177.744C100.152 174.592 102.536 173.232 105.032 173.232ZM105.032 180.784C107.32 180.784 108.104 179.232 108.104 177.744C108.104 176.24 107.32 174.688 105.032 174.688C102.744 174.688 101.96 176.24 101.96 177.744C101.96 179.232 102.744 180.784 105.032 180.784ZM111.526 181.856V173.472H113.494V181.856C113.494 183.296 113.254 184.976 110.854 184.976C110.438 184.976 110.214 184.944 109.846 184.896V183.28C111.366 183.36 111.526 182.88 111.526 181.856ZM112.502 172.288C111.894 172.288 111.462 171.936 111.462 171.328C111.462 170.72 111.894 170.368 112.502 170.368C113.126 170.368 113.558 170.72 113.558 171.328C113.558 171.936 113.126 172.288 112.502 172.288ZM115.729 182V173.472H117.697V182H115.729ZM117.233 170.24H119.313L117.329 172.304H116.049L117.233 170.24ZM125.165 173.232C127.389 173.232 128.605 174.496 128.605 176.48V182H126.637V177.072C126.637 175.632 125.853 174.832 124.301 174.832C122.749 174.832 121.901 175.728 121.901 177.072V182H119.933V173.472H121.901V174.784C122.301 174.224 123.389 173.232 125.165 173.232Z" fill="black"/>
<defs>
<clipPath id="clip0_3843_2352">
<rect width="73" height="125" fill="white" transform="translate(72 28)"/>
</clipPath>
</defs>
</svg>
