<svg width="132" height="129" viewBox="0 0 132 129" fill="none" xmlns="http://www.w3.org/2000/svg">
<rect width="132" height="129" rx="10" fill="white"/>
<path d="M55.2989 119.944C57.2549 119.944 57.9869 118.78 58.2269 117.676H59.7749C59.3909 120.052 57.4949 121.18 55.2989 121.18C52.9709 121.18 50.6909 119.908 50.6909 116.8C50.6909 113.692 52.9709 112.432 55.2989 112.432C57.4949 112.432 59.3909 113.56 59.7749 115.936H58.2269C57.9869 114.832 57.2549 113.668 55.2989 113.668C53.2829 113.668 52.2149 114.868 52.2149 116.8C52.2149 118.732 53.2829 119.944 55.2989 119.944ZM64.2739 114.424C66.1459 114.424 67.9459 115.444 67.9459 117.808C67.9459 120.172 66.1459 121.18 64.2739 121.18C62.4019 121.18 60.6139 120.172 60.6139 117.808C60.6139 115.444 62.4019 114.424 64.2739 114.424ZM64.2739 120.088C65.9899 120.088 66.5779 118.924 66.5779 117.808C66.5779 116.68 65.9899 115.516 64.2739 115.516C62.5579 115.516 61.9699 116.68 61.9699 117.808C61.9699 118.924 62.5579 120.088 64.2739 120.088ZM69.1447 120.892V114.604H70.6207V120.892C70.6207 121.972 70.4407 123.232 68.6407 123.232C68.3287 123.232 68.1607 123.208 67.8847 123.172V121.96C69.0247 122.02 69.1447 121.66 69.1447 120.892ZM69.8767 113.716C69.4207 113.716 69.0967 113.452 69.0967 112.996C69.0967 112.54 69.4207 112.276 69.8767 112.276C70.3447 112.276 70.6687 112.54 70.6687 112.996C70.6687 113.452 70.3447 113.716 69.8767 113.716ZM72.297 121V114.604H73.773V121H72.297ZM73.425 112.18H74.985L73.497 113.728H72.537L73.425 112.18ZM79.3734 114.424C81.0414 114.424 81.9534 115.372 81.9534 116.86V121H80.4774V117.304C80.4774 116.224 79.8894 115.624 78.7254 115.624C77.5614 115.624 76.9254 116.296 76.9254 117.304V121H75.4494V114.604H76.9254V115.588C77.2254 115.168 78.0414 114.424 79.3734 114.424Z" fill="black"/>
<g clip-path="url(#clip0_9385_5059)">
<rect width="55" height="95" transform="translate(39 11)" fill="white"/>
<path fill-rule="evenodd" clip-rule="evenodd" d="M93.8436 11C94.4699 17.6836 93.195 24.0815 92.4793 30.7651C91.428 41.2742 88.9677 52.1132 90.2873 62.0507C92.7253 72.6478 92.6806 85.2455 90.6452 96.3483H89.4374C91.4727 85.4874 91.5622 73.0435 89.1242 62.3365C87.7599 53.4983 89.7281 44.5061 90.6228 35.6899C91.3609 29.7757 92.1661 23.8836 92.6582 17.9035" fill="black"/>
<path fill-rule="evenodd" clip-rule="evenodd" d="M55.2607 97.6045L55.4844 96.1974C56.5804 87.5571 57.9671 78.6089 56.2672 69.9686L56.3791 69.6827C56.9383 68.4735 57.2961 67.0664 57.6093 65.7693C60.1814 54.6665 61.0761 43.278 63.0668 32.0433C63.1562 31.4937 63.2681 30.944 63.3575 30.3944C63.872 27.4703 64.3864 24.5242 65.1245 21.6441C65.214 21.2923 66.3323 17.0491 66.4442 16.6094C69.4189 26.8547 70.8057 37.5177 72.3043 48.0269C73.1766 53.8311 73.8923 59.6353 75.2343 65.3076C75.5251 66.7367 75.9277 68.3416 76.5092 69.7047L76.6882 69.9905C74.9883 78.7188 76.1961 87.667 77.225 96.3953H76.0171C75.6369 93.5152 75.3014 90.679 75.0554 87.8869C74.4962 81.555 74.362 75.6848 75.3909 70.1664C70.6715 54.9304 70.5149 36.7043 66.4442 21.3143C65.6613 24.2384 64.9008 28.0859 64.2746 31.8454C62.1497 42.9922 61.4787 55.458 58.5934 66.5168C58.0566 68.6054 57.7211 70.7381 57.9671 72.8707C58.8171 80.2359 57.7211 88.2826 56.7146 95.8677" fill="black"/>
<path fill-rule="evenodd" clip-rule="evenodd" d="M39.0673 11.0625C38.4634 23.5064 41.7961 37.0495 42.6237 49.1856C42.9815 53.6707 43.4065 58.2437 42.6237 62.0692C40.0738 73.2379 40.2304 86.6492 42.6237 98.1477L44.0328 99.4228C41.7066 88.2102 41.2145 73.5237 43.7867 62.311C45.1511 53.3849 43.1157 44.2388 42.2211 35.3127C41.5053 29.5085 40.7225 23.7262 40.2304 17.8781" fill="black"/>
<path d="M89.8621 99.6476C88.5201 103.319 85.165 105.474 82.1903 105.474C73.2659 105.474 74.8092 81.7073 74.8092 78.2335C74.8092 75.4414 75.2565 71.7258 75.5026 70.0769C74.7645 68.8017 73.6909 63.2173 73.1317 59.7436C72.6844 56.9514 70.224 41.0118 69.0386 33.3828H92.6803C92.4343 34.7239 91.7856 38.8353 91.1817 44.5515C90.4436 51.6089 90.9804 57.2372 92.4343 72.4293L92.479 72.913C93.9552 88.4569 91.562 95.0526 89.8844 99.6256L89.8621 99.6476Z" fill="#D3D3D5" stroke="black" stroke-width="0.5" stroke-miterlimit="10"/>
<path d="M77.001 101.406H89.0343" stroke="black" stroke-width="0.5" stroke-miterlimit="10"/>
</g>
<defs>
<clipPath id="clip0_9385_5059">
<rect width="55" height="95" fill="white" transform="translate(39 11)"/>
</clipPath>
</defs>
</svg>
