<svg width="217" height="195" viewBox="0 0 217 195" fill="none" xmlns="http://www.w3.org/2000/svg">
<rect x="8.52372e-06" y="2.47442e-05" width="217" height="195" rx="10" fill="#D9D9D9"/>
<g clip-path="url(#clip0_3841_2265)">
<path fill-rule="evenodd" clip-rule="evenodd" d="M143.795 28C144.615 36.7572 142.946 45.1399 142.009 53.8971C140.633 67.6667 137.412 81.8683 139.139 94.8889C142.331 108.774 142.272 125.28 139.608 139.827H138.027C140.691 125.597 140.808 109.292 137.617 95.2634C135.831 83.6832 138.407 71.9013 139.579 60.3498C140.545 52.6008 141.599 44.8807 142.243 37.0453" fill="#1D1D1B"/>
<path fill-rule="evenodd" clip-rule="evenodd" d="M93.2866 141.469L93.5794 139.626C95.0142 128.305 96.8295 116.58 94.6042 105.259L94.7506 104.885C95.4826 103.3 95.9511 101.457 96.361 99.7573C99.7283 85.2099 100.899 70.2881 103.505 55.5679C103.623 54.8478 103.769 54.1276 103.886 53.4075C104.56 49.5762 105.233 45.7161 106.199 41.9424C106.316 41.4815 107.78 35.9219 107.927 35.3457C111.821 48.7696 113.636 62.7408 115.598 76.5103C116.74 84.1153 117.677 91.7202 119.434 99.1523C119.814 101.025 120.342 103.128 121.103 104.914L121.337 105.288C119.112 116.724 120.693 128.449 122.04 139.885H120.459C119.961 136.111 119.522 132.395 119.2 128.737C118.468 120.44 118.292 112.749 119.639 105.519C113.461 85.5556 113.256 61.6749 107.927 41.5103C106.902 45.3416 105.906 50.3828 105.087 55.3087C102.305 69.9136 101.427 86.247 97.6494 100.737C96.9467 103.473 96.5074 106.268 96.8295 109.062C97.9422 118.712 96.5075 129.255 95.1898 139.193" fill="#1D1D1B"/>
<path fill-rule="evenodd" clip-rule="evenodd" d="M72.0879 28.086C71.2973 44.3905 75.66 62.1353 76.7434 78.0366C77.2119 83.9131 77.7682 89.9049 76.7434 94.9172C73.4055 109.551 73.6104 127.123 76.7434 142.189L78.5881 143.86C75.5429 129.168 74.8988 109.925 78.266 95.2341C80.0521 83.5386 77.3876 71.5551 76.2164 59.8596C75.2794 52.2547 74.2546 44.6786 73.6104 37.016" fill="#1D1D1B"/>
<path d="M138.759 144.147C137.002 148.958 132.61 151.781 128.716 151.781C117.033 151.781 119.053 120.641 119.053 116.09C119.053 112.431 119.639 107.563 119.961 105.402C118.995 103.732 117.589 96.4148 116.857 91.8633C116.272 88.2049 113.051 67.3201 111.499 57.3242H142.448C142.126 59.0814 141.277 64.4683 140.486 71.958C139.52 81.2049 140.223 88.5794 142.126 108.485L142.185 109.118C144.117 129.485 140.984 138.127 138.788 144.118L138.759 144.147Z" fill="#D3D3D5" stroke="#1D1D1B" stroke-width="0.5" stroke-miterlimit="10"/>
<path d="M133.371 70.7774H124.909V74.2054H133.371V70.7774Z" stroke="#050A0A" stroke-width="0.29" stroke-miterlimit="10"/>
<path d="M122.538 146.453H138.32" stroke="#1D1D1B" stroke-width="0.5" stroke-miterlimit="10"/>
<path d="M131.848 72.3614H126.432V153.567H131.848V72.3614Z" fill="white" stroke="#050A0A" stroke-width="0.29" stroke-miterlimit="10"/>
</g>
<path d="M82.9481 180.592C85.5561 180.592 86.5321 179.04 86.8521 177.568H88.9161C88.4041 180.736 85.8761 182.24 82.9481 182.24C79.8441 182.24 76.8041 180.544 76.8041 176.4C76.8041 172.256 79.8441 170.576 82.9481 170.576C85.8761 170.576 88.4041 172.08 88.9161 175.248H86.8521C86.5321 173.776 85.5561 172.224 82.9481 172.224C80.2601 172.224 78.8361 173.824 78.8361 176.4C78.8361 178.976 80.2601 180.592 82.9481 180.592ZM94.9147 173.232C97.4107 173.232 99.8107 174.592 99.8107 177.744C99.8107 180.896 97.4107 182.24 94.9147 182.24C92.4187 182.24 90.0347 180.896 90.0347 177.744C90.0347 174.592 92.4187 173.232 94.9147 173.232ZM94.9147 180.784C97.2027 180.784 97.9867 179.232 97.9867 177.744C97.9867 176.24 97.2027 174.688 94.9147 174.688C92.6267 174.688 91.8427 176.24 91.8427 177.744C91.8427 179.232 92.6267 180.784 94.9147 180.784ZM106.801 173.232C107.185 173.232 107.409 173.248 107.745 173.296V175.248H107.681C107.345 175.152 106.913 175.088 106.369 175.088C104.209 175.088 103.393 176.336 103.393 177.664V182H101.409V173.472H103.393V175.072C103.777 174.448 104.961 173.232 106.801 173.232ZM116.102 170.8H118.07V182H116.102V180.88C115.43 181.696 114.406 182.24 112.982 182.24C110.486 182.24 108.55 180.624 108.55 177.744C108.55 174.848 110.486 173.232 112.982 173.232C114.406 173.232 115.43 173.776 116.102 174.592V170.8ZM113.366 180.784C115.398 180.784 116.406 179.504 116.406 177.744C116.406 175.968 115.43 174.688 113.366 174.688C111.286 174.688 110.374 175.936 110.374 177.744C110.374 179.536 111.318 180.784 113.366 180.784ZM124.555 173.232C127.051 173.232 129.451 174.592 129.451 177.744C129.451 180.896 127.051 182.24 124.555 182.24C122.059 182.24 119.675 180.896 119.675 177.744C119.675 174.592 122.059 173.232 124.555 173.232ZM124.555 180.784C126.843 180.784 127.627 179.232 127.627 177.744C127.627 176.24 126.843 174.688 124.555 174.688C122.267 174.688 121.483 176.24 121.483 177.744C121.483 179.232 122.267 180.784 124.555 180.784ZM125.067 170.24H127.147L125.163 172.304H123.883L125.067 170.24ZM136.282 173.232C138.506 173.232 139.722 174.496 139.722 176.48V182H137.754V177.072C137.754 175.632 136.97 174.832 135.418 174.832C133.866 174.832 133.018 175.728 133.018 177.072V182H131.05V173.472H133.018V174.784C133.418 174.224 134.506 173.232 136.282 173.232Z" fill="black"/>
<defs>
<clipPath id="clip0_3841_2265">
<rect width="72" height="126" fill="white" transform="translate(72 28)"/>
</clipPath>
</defs>
</svg>
