<svg width="132" height="129" viewBox="0 0 132 129" fill="none" xmlns="http://www.w3.org/2000/svg">
<rect width="132" height="129" rx="10" fill="white"/>
<path d="M29.4708 119.944C31.4268 119.944 32.1588 118.78 32.3988 117.676H33.9468C33.5628 120.052 31.6668 121.18 29.4708 121.18C27.1428 121.18 24.8628 119.908 24.8628 116.8C24.8628 113.692 27.1428 112.432 29.4708 112.432C31.6668 112.432 33.5628 113.56 33.9468 115.936H32.3988C32.1588 114.832 31.4268 113.668 29.4708 113.668C27.4548 113.668 26.3868 114.868 26.3868 116.8C26.3868 118.732 27.4548 119.944 29.4708 119.944ZM38.4458 114.424C40.3178 114.424 42.1178 115.444 42.1178 117.808C42.1178 120.172 40.3178 121.18 38.4458 121.18C36.5738 121.18 34.7858 120.172 34.7858 117.808C34.7858 115.444 36.5738 114.424 38.4458 114.424ZM38.4458 120.088C40.1618 120.088 40.7498 118.924 40.7498 117.808C40.7498 116.68 40.1618 115.516 38.4458 115.516C36.7298 115.516 36.1418 116.68 36.1418 117.808C36.1418 118.924 36.7298 120.088 38.4458 120.088ZM47.3606 114.424C47.6486 114.424 47.8166 114.436 48.0686 114.472V115.936H48.0206C47.7686 115.864 47.4446 115.816 47.0366 115.816C45.4166 115.816 44.8046 116.752 44.8046 117.748V121H43.3166V114.604H44.8046V115.804C45.0926 115.336 45.9806 114.424 47.3606 114.424ZM54.3365 112.6H55.8125V121H54.3365V120.16C53.8325 120.772 53.0645 121.18 51.9965 121.18C50.1245 121.18 48.6725 119.968 48.6725 117.808C48.6725 115.636 50.1245 114.424 51.9965 114.424C53.0645 114.424 53.8325 114.832 54.3365 115.444V112.6ZM52.2845 120.088C53.8085 120.088 54.5645 119.128 54.5645 117.808C54.5645 116.476 53.8325 115.516 52.2845 115.516C50.7245 115.516 50.0405 116.452 50.0405 117.808C50.0405 119.152 50.7485 120.088 52.2845 120.088ZM60.6763 114.424C62.5483 114.424 64.3483 115.444 64.3483 117.808C64.3483 120.172 62.5483 121.18 60.6763 121.18C58.8043 121.18 57.0163 120.172 57.0163 117.808C57.0163 115.444 58.8043 114.424 60.6763 114.424ZM60.6763 120.088C62.3923 120.088 62.9803 118.924 62.9803 117.808C62.9803 116.68 62.3923 115.516 60.6763 115.516C58.9603 115.516 58.3723 116.68 58.3723 117.808C58.3723 118.924 58.9603 120.088 60.6763 120.088ZM61.0603 112.18H62.6203L61.1323 113.728H60.1723L61.0603 112.18ZM69.471 114.424C71.139 114.424 72.051 115.372 72.051 116.86V121H70.575V117.304C70.575 116.224 69.987 115.624 68.823 115.624C67.659 115.624 67.023 116.296 67.023 117.304V121H65.547V114.604H67.023V115.588C67.323 115.168 68.139 114.424 69.471 114.424ZM82.3912 112.6H83.8672V121H82.3912V120.16C81.8872 120.772 81.1192 121.18 80.0512 121.18C78.1792 121.18 76.7272 119.968 76.7272 117.808C76.7272 115.636 78.1792 114.424 80.0512 114.424C81.1192 114.424 81.8872 114.832 82.3912 115.444V112.6ZM80.3392 120.088C81.8632 120.088 82.6192 119.128 82.6192 117.808C82.6192 116.476 81.8872 115.516 80.3392 115.516C78.7792 115.516 78.0952 116.452 78.0952 117.808C78.0952 119.152 78.8032 120.088 80.3392 120.088ZM85.5509 121V114.604H87.0269V121H85.5509ZM86.2829 113.716C85.8269 113.716 85.5029 113.452 85.5029 112.996C85.5029 112.54 85.8269 112.276 86.2829 112.276C86.7509 112.276 87.0749 112.54 87.0749 112.996C87.0749 113.452 86.7509 113.716 86.2829 113.716ZM92.0753 117.256C93.8873 117.568 94.9073 117.808 94.9073 119.068C94.9073 120.556 93.6713 121.18 91.5353 121.18C89.5913 121.18 88.1033 120.508 88.1033 119.056H89.6273C89.6273 119.752 90.3113 120.064 91.6553 120.064C92.9633 120.064 93.4313 119.74 93.4313 119.26C93.4313 118.552 92.3633 118.54 90.7313 118.24C89.0753 117.928 88.3433 117.544 88.3433 116.404C88.3433 115.12 89.5433 114.424 91.4273 114.424C93.4793 114.424 94.5833 115.24 94.5833 116.428H93.2033C93.2033 116.02 92.7713 115.516 91.4033 115.516C90.1193 115.516 89.6753 115.84 89.6753 116.332C89.6753 116.98 90.9353 117.064 92.0753 117.256ZM100.051 115.732H98.1192V118.612C98.1192 119.692 98.5512 119.992 100.051 119.836V120.988C99.8352 121.048 99.5112 121.096 99.2112 121.096C97.2672 121.096 96.6432 120.304 96.6432 118.612V115.732H95.3952V114.604H96.6432V112.948H98.1192V114.604H100.051V115.732ZM104.356 114.424C106.12 114.424 107.62 115.012 107.62 116.848V121H106.144V120.172C105.832 120.532 105.064 121.18 103.564 121.18C102.028 121.18 101.008 120.544 101.008 119.32C101.008 118 101.728 116.956 106.144 117.244V116.848C106.144 115.96 105.688 115.516 104.356 115.516C103.216 115.516 102.748 115.888 102.64 116.428H101.26C101.452 115.084 102.7 114.424 104.356 114.424ZM106.144 119.2V118.132C103.48 118 102.52 118.228 102.52 119.224C102.52 119.872 103.024 120.196 103.876 120.196C105.004 120.196 105.748 119.776 106.144 119.2ZM109.305 112.144H110.781V121H109.305V112.144Z" fill="black"/>
<g clip-path="url(#clip0_9385_5069)">
<rect width="54" height="96" transform="translate(39 11)" fill="white"/>
<path fill-rule="evenodd" clip-rule="evenodd" d="M92.8465 11C93.4614 17.6722 92.2096 24.059 91.5069 30.7311C90.4748 41.2222 88.0592 52.0425 89.3548 61.963C91.7485 72.5418 91.7046 85.118 89.7062 96.2016H88.5203C90.5187 85.3594 90.6066 72.9369 88.2129 62.2483C86.8733 53.4252 88.8058 44.4486 89.6842 35.6475C90.4089 29.7435 91.1995 23.8615 91.6826 17.8916" fill="black"/>
<path fill-rule="evenodd" clip-rule="evenodd" d="M54.9648 97.4497L55.1844 96.0451C56.2605 87.4195 57.622 78.4868 55.953 69.8612L56.0629 69.5759C56.6119 68.3688 56.9632 66.9641 57.2707 65.6692C59.7961 54.5855 60.6745 43.2165 62.6289 32.0012C62.7168 31.4525 62.8266 30.9038 62.9144 30.3551C63.4195 27.436 63.9246 24.495 64.6493 21.6198C64.7371 21.2686 65.8351 17.0327 65.9449 16.5938C68.8656 26.8215 70.2271 37.4662 71.6985 47.9573C72.5549 53.7515 73.2576 59.5457 74.5753 65.2083C74.8607 66.6349 75.256 68.2371 75.827 69.5979L76.0027 69.8832C74.3337 78.5965 75.5195 87.5293 76.5297 96.2426H75.3439C74.9705 93.3674 74.6411 90.5361 74.3996 87.7488C73.8506 81.4278 73.7188 75.5677 74.729 70.0588C70.0954 54.8489 69.9417 36.6541 65.9449 21.2906C65.1763 24.2097 64.4297 28.0505 63.8148 31.8036C61.7286 42.9312 61.0698 55.3756 58.2369 66.4154C57.7099 68.5005 57.3805 70.6294 57.622 72.7584C58.4565 80.1109 57.3805 88.1438 56.3923 95.7158" fill="black"/>
<path fill-rule="evenodd" clip-rule="evenodd" d="M39.066 11.0625C38.4731 23.485 41.7451 37.0049 42.5577 49.1201C42.909 53.5975 43.3263 58.1626 42.5577 61.9816C40.0542 73.1311 40.2079 86.5193 42.5577 97.998L43.9412 99.271C41.6573 88.0776 41.1742 73.4164 43.6996 62.223C45.0392 53.3122 43.0408 44.1818 42.1624 35.271C41.4597 29.4768 40.6911 23.7045 40.2079 17.8663" fill="black"/>
<path d="M89.0689 99.4946C87.7513 103.16 84.4573 105.311 81.5366 105.311C72.7745 105.311 74.2897 81.5852 74.2897 78.1174C74.2897 75.33 74.7289 71.6208 74.9705 69.9748C74.2458 68.7018 73.1917 63.127 72.6427 59.6592C72.2035 56.8719 69.7879 40.9597 68.624 33.3438H91.8359C91.5943 34.6826 90.9575 38.7868 90.3646 44.4933C89.6399 51.5385 90.1669 57.1572 91.5943 72.3232L91.6383 72.806C93.0876 88.3232 90.7379 94.9075 89.0909 99.4727L89.0689 99.4946Z" fill="#D3D3D5" stroke="black" stroke-width="0.5" stroke-miterlimit="10"/>
<path d="M85.0286 43.5938H78.6821V46.2055H85.0286V43.5938Z" stroke="black" stroke-width="0.29" stroke-miterlimit="10"/>
<path d="M76.9033 101.25H88.7398" stroke="black" stroke-width="0.5" stroke-miterlimit="10"/>
<path d="M83.8864 44.7969H79.8237V106.668H83.8864V44.7969Z" fill="white" stroke="black" stroke-width="0.29" stroke-miterlimit="10"/>
</g>
<defs>
<clipPath id="clip0_9385_5069">
<rect width="54" height="96" fill="white" transform="translate(39 11)"/>
</clipPath>
</defs>
</svg>
