<svg width="132" height="129" viewBox="0 0 132 129" fill="none" xmlns="http://www.w3.org/2000/svg">
<rect width="132" height="129" rx="10" fill="white"/>
<path d="M28.2646 117.632C29.2486 117.92 29.7766 118.496 29.7766 119.528C29.7766 121.052 28.9126 122 26.5246 122H21.3526V113.6H26.6686C28.6846 113.6 29.4646 114.368 29.4646 115.748C29.4646 116.66 29.0686 117.248 28.2646 117.572V117.632ZM26.6446 114.836H22.8286V117.176H26.6446C27.7366 117.176 28.0606 116.684 28.0606 116.012C28.0606 115.292 27.6886 114.836 26.6446 114.836ZM26.6926 120.764C27.9766 120.764 28.2646 120.176 28.2646 119.456C28.2646 118.736 27.8206 118.328 26.6926 118.328H22.8286V120.764H26.6926ZM31.0998 113.144H32.5758V122H31.0998V113.144ZM37.4321 115.424C39.3041 115.424 41.1041 116.444 41.1041 118.808C41.1041 121.172 39.3041 122.18 37.4321 122.18C35.5601 122.18 33.7721 121.172 33.7721 118.808C33.7721 116.444 35.5601 115.424 37.4321 115.424ZM37.4321 121.088C39.1481 121.088 39.7361 119.924 39.7361 118.808C39.7361 117.68 39.1481 116.516 37.4321 116.516C35.7161 116.516 35.1281 117.68 35.1281 118.808C35.1281 119.924 35.7161 121.088 37.4321 121.088ZM47.4989 115.604H48.9749V124.004H47.4989V121.16C46.9949 121.772 46.2269 122.18 45.1469 122.18C43.2869 122.18 41.8229 120.968 41.8229 118.808C41.8229 116.636 43.2869 115.424 45.1469 115.424C46.2269 115.424 46.9949 115.832 47.4989 116.444V115.604ZM45.4349 121.088C46.9829 121.088 47.7269 120.128 47.7269 118.808C47.7269 117.476 46.9709 116.516 45.4349 116.516C43.8989 116.516 43.1909 117.452 43.1909 118.808C43.1909 120.152 43.8869 121.088 45.4349 121.088ZM55.6864 115.604H57.1624V122H55.6864V121.016C55.3864 121.436 54.5704 122.18 53.2384 122.18C51.5704 122.18 50.6584 121.232 50.6584 119.744V115.604H52.1344V119.3C52.1344 120.38 52.7224 120.98 53.8864 120.98C55.0504 120.98 55.6864 120.308 55.6864 119.3V115.604ZM61.958 115.424C63.986 115.424 65.618 116.624 65.45 119.276H59.69C59.858 120.368 60.638 121.088 61.982 121.088C63.23 121.088 63.758 120.488 63.974 120.032H65.27C64.946 121.34 63.698 122.18 61.982 122.18C60.158 122.18 58.358 121.136 58.358 118.808C58.358 116.516 60.122 115.424 61.958 115.424ZM59.726 118.196H64.13C63.938 117.188 63.242 116.516 61.958 116.516C60.77 116.516 59.954 117.188 59.726 118.196ZM69.8462 115.424C71.7182 115.424 73.5182 116.444 73.5182 118.808C73.5182 121.172 71.7182 122.18 69.8462 122.18C67.9742 122.18 66.1862 121.172 66.1862 118.808C66.1862 116.444 67.9742 115.424 69.8462 115.424ZM69.8462 121.088C71.5622 121.088 72.1502 119.924 72.1502 118.808C72.1502 117.68 71.5622 116.516 69.8462 116.516C68.1302 116.516 67.5422 117.68 67.5422 118.808C67.5422 119.924 68.1302 121.088 69.8462 121.088ZM83.3814 113.6H84.8574V122H83.3814V121.16C82.8774 121.772 82.1094 122.18 81.0414 122.18C79.1694 122.18 77.7174 120.968 77.7174 118.808C77.7174 116.636 79.1694 115.424 81.0414 115.424C82.1094 115.424 82.8774 115.832 83.3814 116.444V113.6ZM81.3294 121.088C82.8534 121.088 83.6094 120.128 83.6094 118.808C83.6094 117.476 82.8774 116.516 81.3294 116.516C79.7694 116.516 79.0854 117.452 79.0854 118.808C79.0854 120.152 79.7934 121.088 81.3294 121.088ZM86.5412 122V115.604H88.0172V122H86.5412ZM87.2732 114.716C86.8172 114.716 86.4932 114.452 86.4932 113.996C86.4932 113.54 86.8172 113.276 87.2732 113.276C87.7412 113.276 88.0652 113.54 88.0652 113.996C88.0652 114.452 87.7412 114.716 87.2732 114.716ZM93.0655 118.256C94.8775 118.568 95.8975 118.808 95.8975 120.068C95.8975 121.556 94.6615 122.18 92.5255 122.18C90.5815 122.18 89.0935 121.508 89.0935 120.056H90.6175C90.6175 120.752 91.3015 121.064 92.6455 121.064C93.9535 121.064 94.4215 120.74 94.4215 120.26C94.4215 119.552 93.3535 119.54 91.7215 119.24C90.0655 118.928 89.3335 118.544 89.3335 117.404C89.3335 116.12 90.5335 115.424 92.4175 115.424C94.4695 115.424 95.5735 116.24 95.5735 117.428H94.1935C94.1935 117.02 93.7615 116.516 92.3935 116.516C91.1095 116.516 90.6655 116.84 90.6655 117.332C90.6655 117.98 91.9255 118.064 93.0655 118.256ZM101.041 116.732H99.1094V119.612C99.1094 120.692 99.5414 120.992 101.041 120.836V121.988C100.825 122.048 100.501 122.096 100.201 122.096C98.2574 122.096 97.6334 121.304 97.6334 119.612V116.732H96.3854V115.604H97.6334V113.948H99.1094V115.604H101.041V116.732ZM105.347 115.424C107.111 115.424 108.611 116.012 108.611 117.848V122H107.135V121.172C106.823 121.532 106.055 122.18 104.555 122.18C103.019 122.18 101.999 121.544 101.999 120.32C101.999 119 102.719 117.956 107.135 118.244V117.848C107.135 116.96 106.679 116.516 105.347 116.516C104.207 116.516 103.739 116.888 103.631 117.428H102.251C102.443 116.084 103.691 115.424 105.347 115.424ZM107.135 120.2V119.132C104.471 119 103.511 119.228 103.511 120.224C103.511 120.872 104.015 121.196 104.867 121.196C105.995 121.196 106.739 120.776 107.135 120.2ZM110.295 113.144H111.771V122H110.295V113.144Z" fill="black"/>
<path fill-rule="evenodd" clip-rule="evenodd" d="M91.8546 6C92.4353 12.2992 91.2531 18.3289 90.5894 24.6281C89.6146 34.5327 87.3332 44.7481 88.5569 54.114C90.8176 64.1014 90.7761 75.9745 88.8887 86.4386H87.7688C89.6561 76.2025 89.7391 64.4744 87.4784 54.3833C86.2133 46.0535 88.0384 37.5787 88.868 29.2696C89.5524 23.6957 90.2991 18.1425 90.7554 12.5064" fill="black"/>
<path fill-rule="evenodd" clip-rule="evenodd" d="M56.0781 87.6171L56.2855 86.291C57.3018 78.1476 58.5877 69.7142 57.0114 61.5709L57.1151 61.3015C57.6336 60.1619 57.9655 58.8357 58.2558 57.6132C60.641 47.1492 61.4706 36.4157 63.3164 25.8273C63.3994 25.3093 63.5031 24.7913 63.5861 24.2733C64.0631 21.5174 64.5401 18.7408 65.2245 16.0263C65.3075 15.6948 66.3445 11.6957 66.4482 11.2812C69.2066 20.9372 70.4925 30.9868 71.8821 40.8914C72.691 46.3618 73.3547 51.8321 74.5991 57.1781C74.8687 58.5249 75.242 60.0376 75.7813 61.3223L75.9472 61.5916C74.3709 69.8178 75.4909 78.2512 76.4449 86.4774H75.325C74.9724 83.763 74.6613 81.09 74.4331 78.4585C73.9146 72.4908 73.7902 66.9583 74.7443 61.7574C70.3681 47.3978 70.2229 30.2202 66.4482 15.7155C65.7223 18.4714 65.0171 22.0976 64.4364 25.6408C62.4661 36.1463 61.8439 47.8951 59.1684 58.3177C58.6706 60.2862 58.3595 62.2961 58.5877 64.3061C59.3758 71.2476 58.3595 78.8314 57.4262 85.9801" fill="black"/>
<path fill-rule="evenodd" clip-rule="evenodd" d="M41.062 6.0625C40.5021 17.7905 43.5923 30.5546 44.3597 41.9926C44.6916 46.2196 45.0856 50.5296 44.3597 54.135C41.9954 64.6612 42.1405 77.301 44.3597 88.138L45.6664 89.3399C43.5094 78.7722 43.0531 64.9306 45.4382 54.3629C46.7034 45.9503 44.816 37.3304 43.9864 28.9177C43.3227 23.4473 42.5968 17.9977 42.1405 12.486" fill="black"/>
<path d="M88.1423 89.5466C86.8979 93.007 83.7869 95.0376 81.0284 95.0376C71.5087 94.5611 74.2672 66.4013 74.8064 61.677C72.0272 52.8498 71.0939 40.1065 68.8125 27.0938H90.7348C88.7023 38.8425 88.5364 45.5561 90.5274 63.8941C92.0207 78.1501 89.7186 85.4439 88.163 89.5259L88.1423 89.5466Z" fill="#D3D3D5" stroke="black" stroke-width="0.5" stroke-miterlimit="10"/>
<path d="M81.8582 95.1172H80.6553V100.318H81.8582V95.1172Z" fill="#D3D3D5" stroke="black" stroke-width="0.29" stroke-miterlimit="10"/>
<path d="M81.2569 101.69C80.9665 101.69 80.7591 101.565 80.7176 101.275L80.4272 100.156H82.0657L81.7754 101.275C81.7339 101.565 81.5265 101.69 81.2361 101.69H81.2569Z" fill="#D3D3D5" stroke="black" stroke-width="0.29" stroke-miterlimit="10"/>
<path d="M80.5928 96.8203L81.9409 97.2969" stroke="black" stroke-width="0.29" stroke-miterlimit="10"/>
<path d="M80.5928 98.25L81.9409 98.7266" stroke="black" stroke-width="0.29" stroke-miterlimit="10"/>
<path d="M80.5928 99.6797L81.9409 100.156" stroke="black" stroke-width="0.29" stroke-miterlimit="10"/>
<path d="M76.3203 91.2031H87.4992" stroke="black" stroke-width="0.5" stroke-miterlimit="10"/>
</svg>
