<svg width="217" height="195" viewBox="0 0 217 195" fill="none" xmlns="http://www.w3.org/2000/svg">
<rect x="8.52372e-06" y="2.47442e-05" width="217" height="195" rx="10" fill="#D9D9D9"/>
<g clip-path="url(#clip0_3841_2226)">
<path fill-rule="evenodd" clip-rule="evenodd" d="M141.809 28C142.572 36.2677 141.019 44.1818 140.147 52.4494C138.867 65.4492 135.869 78.8569 137.477 91.1496C140.447 104.258 140.392 119.842 137.913 133.576H136.442C138.921 120.141 139.03 104.748 136.06 91.5032C134.398 80.5703 136.796 69.447 137.886 58.5414C138.785 51.2256 139.766 43.937 140.365 36.5396" fill="#1D1D1B"/>
<path fill-rule="evenodd" clip-rule="evenodd" d="M94.8086 135.126L95.0811 133.386C96.4162 122.698 98.1055 111.629 96.0347 100.941L96.1709 100.587C96.8521 99.0914 97.2881 97.3508 97.6695 95.7463C100.803 82.0122 101.893 67.9246 104.318 54.0273C104.427 53.3474 104.563 52.6675 104.672 51.9876C105.299 48.3705 105.925 44.7262 106.824 41.1635C106.933 40.7284 108.296 35.4795 108.432 34.9356C112.056 47.609 113.745 60.7992 115.571 73.7989C116.633 80.9787 117.505 88.1585 119.14 95.1752C119.494 96.9429 119.985 98.9282 120.693 100.614L120.911 100.968C118.84 111.765 120.312 122.834 121.565 133.631H120.094C119.63 130.068 119.222 126.56 118.922 123.106C118.241 115.273 118.077 108.012 119.331 101.186C113.582 82.3385 113.391 59.7929 108.432 40.7556C107.478 44.3727 106.552 49.132 105.789 53.7825C103.201 67.571 102.383 82.9913 98.8684 96.6709C98.2145 99.2546 97.8058 101.893 98.1055 104.531C99.1409 113.641 97.8058 123.595 96.5796 132.978" fill="#1D1D1B"/>
<path fill-rule="evenodd" clip-rule="evenodd" d="M75.0817 28.0821C74.3461 43.4751 78.4059 60.228 79.414 75.2403C79.8499 80.7883 80.3676 86.4451 79.414 91.1772C76.3078 104.993 76.4986 121.583 79.414 135.806L81.1305 137.384C78.2969 123.514 77.6974 105.346 80.8308 91.4764C82.4929 80.4347 80.0134 69.1211 78.9235 58.0795C78.0516 50.8997 77.098 43.7471 76.4986 36.5129" fill="#1D1D1B"/>
<path d="M136.932 137.655C135.297 142.197 131.21 144.862 127.586 144.862C115.08 144.236 118.704 107.277 119.412 101.076C115.761 89.4905 114.535 72.7648 111.538 55.6856H140.338C137.668 71.1058 137.45 79.9174 140.066 103.986C142.027 122.697 139.003 132.27 136.959 137.628L136.932 137.655Z" fill="#D3D3D5" stroke="#1D1D1B" stroke-width="0.5" stroke-miterlimit="10"/>
<path d="M128.677 144.971H127.096V151.797H128.677V144.971Z" fill="#D3D3D5" stroke="#050A0A" stroke-width="0.29" stroke-miterlimit="10"/>
<path d="M127.886 153.593C127.505 153.593 127.232 153.429 127.178 153.049L126.796 151.58H128.949L128.567 153.049C128.513 153.429 128.24 153.593 127.859 153.593H127.886Z" fill="#D3D3D5" stroke="#050A0A" stroke-width="0.29" stroke-miterlimit="10"/>
<path d="M127.014 147.201L128.785 147.827" stroke="#050A0A" stroke-width="0.29" stroke-miterlimit="10"/>
<path d="M127.014 149.078L128.785 149.704" stroke="#050A0A" stroke-width="0.29" stroke-miterlimit="10"/>
<path d="M127.014 150.953L128.785 151.579" stroke="#050A0A" stroke-width="0.29" stroke-miterlimit="10"/>
<path d="M121.401 139.83H136.087" stroke="#1D1D1B" stroke-width="0.5" stroke-miterlimit="10"/>
</g>
<path d="M57.5194 172.176C58.8314 172.56 59.5354 173.328 59.5354 174.704C59.5354 176.736 58.3834 178 55.1994 178H48.3034V166.8H55.3914C58.0794 166.8 59.1194 167.824 59.1194 169.664C59.1194 170.88 58.5914 171.664 57.5194 172.096V172.176ZM55.3594 168.448H50.2714V171.568H55.3594C56.8154 171.568 57.2474 170.912 57.2474 170.016C57.2474 169.056 56.7514 168.448 55.3594 168.448ZM55.4234 176.352C57.1354 176.352 57.5194 175.568 57.5194 174.608C57.5194 173.648 56.9274 173.104 55.4234 173.104H50.2714V176.352H55.4234ZM61.2997 166.192H63.2677V178H61.2997V166.192ZM69.7428 169.232C72.2388 169.232 74.6388 170.592 74.6388 173.744C74.6388 176.896 72.2388 178.24 69.7428 178.24C67.2468 178.24 64.8628 176.896 64.8628 173.744C64.8628 170.592 67.2468 169.232 69.7428 169.232ZM69.7428 176.784C72.0308 176.784 72.8148 175.232 72.8148 173.744C72.8148 172.24 72.0308 170.688 69.7428 170.688C67.4548 170.688 66.6708 172.24 66.6708 173.744C66.6708 175.232 67.4548 176.784 69.7428 176.784ZM83.1652 169.472H85.1332V180.672H83.1652V176.88C82.4932 177.696 81.4692 178.24 80.0292 178.24C77.5492 178.24 75.5972 176.624 75.5972 173.744C75.5972 170.848 77.5492 169.232 80.0292 169.232C81.4692 169.232 82.4932 169.776 83.1652 170.592V169.472ZM80.4132 176.784C82.4772 176.784 83.4692 175.504 83.4692 173.744C83.4692 171.968 82.4612 170.688 80.4132 170.688C78.3652 170.688 77.4212 171.936 77.4212 173.744C77.4212 175.536 78.3492 176.784 80.4132 176.784ZM94.0818 169.472H96.0498V178H94.0818V176.688C93.6818 177.248 92.5938 178.24 90.8178 178.24C88.5938 178.24 87.3778 176.976 87.3778 174.992V169.472H89.3458V174.4C89.3458 175.84 90.1298 176.64 91.6818 176.64C93.2338 176.64 94.0818 175.744 94.0818 174.4V169.472ZM102.444 169.232C105.148 169.232 107.324 170.832 107.1 174.368H99.4201C99.6441 175.824 100.684 176.784 102.476 176.784C104.14 176.784 104.844 175.984 105.132 175.376H106.86C106.428 177.12 104.764 178.24 102.476 178.24C100.044 178.24 97.6441 176.848 97.6441 173.744C97.6441 170.688 99.9961 169.232 102.444 169.232ZM99.4681 172.928H105.34C105.084 171.584 104.156 170.688 102.444 170.688C100.86 170.688 99.7721 171.584 99.4681 172.928ZM112.962 169.232C115.458 169.232 117.858 170.592 117.858 173.744C117.858 176.896 115.458 178.24 112.962 178.24C110.466 178.24 108.082 176.896 108.082 173.744C108.082 170.592 110.466 169.232 112.962 169.232ZM112.962 176.784C115.25 176.784 116.034 175.232 116.034 173.744C116.034 172.24 115.25 170.688 112.962 170.688C110.674 170.688 109.89 172.24 109.89 173.744C109.89 175.232 110.674 176.784 112.962 176.784ZM131.009 166.8H132.977V178H131.009V176.88C130.337 177.696 129.313 178.24 127.889 178.24C125.393 178.24 123.457 176.624 123.457 173.744C123.457 170.848 125.393 169.232 127.889 169.232C129.313 169.232 130.337 169.776 131.009 170.592V166.8ZM128.273 176.784C130.305 176.784 131.313 175.504 131.313 173.744C131.313 171.968 130.337 170.688 128.273 170.688C126.193 170.688 125.281 171.936 125.281 173.744C125.281 175.536 126.225 176.784 128.273 176.784ZM135.222 178V169.472H137.19V178H135.222ZM136.198 168.288C135.59 168.288 135.158 167.936 135.158 167.328C135.158 166.72 135.59 166.368 136.198 166.368C136.822 166.368 137.254 166.72 137.254 167.328C137.254 167.936 136.822 168.288 136.198 168.288ZM143.921 173.008C146.337 173.424 147.697 173.744 147.697 175.424C147.697 177.408 146.049 178.24 143.201 178.24C140.609 178.24 138.625 177.344 138.625 175.408H140.657C140.657 176.336 141.569 176.752 143.361 176.752C145.105 176.752 145.729 176.32 145.729 175.68C145.729 174.736 144.305 174.72 142.129 174.32C139.921 173.904 138.945 173.392 138.945 171.872C138.945 170.16 140.545 169.232 143.057 169.232C145.793 169.232 147.265 170.32 147.265 171.904H145.425C145.425 171.36 144.849 170.688 143.025 170.688C141.313 170.688 140.721 171.12 140.721 171.776C140.721 172.64 142.401 172.752 143.921 173.008ZM154.555 170.976H151.979V174.816C151.979 176.256 152.555 176.656 154.555 176.448V177.984C154.267 178.064 153.835 178.128 153.435 178.128C150.843 178.128 150.011 177.072 150.011 174.816V170.976H148.347V169.472H150.011V167.264H151.979V169.472H154.555V170.976ZM160.296 169.232C162.648 169.232 164.648 170.016 164.648 172.464V178H162.68V176.896C162.264 177.376 161.24 178.24 159.24 178.24C157.192 178.24 155.832 177.392 155.832 175.76C155.832 174 156.792 172.608 162.68 172.992V172.464C162.68 171.28 162.072 170.688 160.296 170.688C158.776 170.688 158.152 171.184 158.008 171.904H156.168C156.424 170.112 158.088 169.232 160.296 169.232ZM162.68 175.6V174.176C159.128 174 157.848 174.304 157.848 175.632C157.848 176.496 158.52 176.928 159.656 176.928C161.16 176.928 162.152 176.368 162.68 175.6ZM166.893 166.192H168.861V178H166.893V166.192Z" fill="black"/>
<defs>
<clipPath id="clip0_3841_2226">
<rect width="67" height="126" fill="white" transform="translate(75 28)"/>
</clipPath>
</defs>
</svg>
