<svg width="217" height="195" viewBox="0 0 217 195" fill="none" xmlns="http://www.w3.org/2000/svg">
<rect x="8.52372e-06" y="2.47442e-05" width="217" height="195" rx="10" fill="#D9D9D9"/>
<path fill-rule="evenodd" clip-rule="evenodd" d="M93.3198 45C94.0091 52.4953 92.5899 59.6299 91.7993 67.1051C90.6437 78.8491 87.8865 90.9938 89.3664 102.117C92.0628 113.981 92.0425 128.069 89.7719 140.475H88.4339C90.6842 128.33 90.7856 114.402 88.0892 102.437C86.5687 92.557 88.7582 82.4965 89.7719 72.6364C90.6031 66.0229 91.4952 59.4295 92.0425 52.7558" fill="#1D1D1B"/>
<path fill-rule="evenodd" clip-rule="evenodd" d="M50.4004 141.857L50.6437 140.294C51.8601 130.614 53.4009 120.613 51.5154 110.954L51.6574 110.633C52.2858 109.27 52.671 107.707 53.0157 106.264C55.8742 93.8388 56.8676 81.1129 59.0774 68.5272C59.1788 67.9059 59.3004 67.2847 59.4018 66.6634C59.9695 63.3967 60.5574 60.09 61.3683 56.8835C61.4697 56.5027 62.7266 51.753 62.8483 51.252C66.1731 62.6953 67.6936 74.6597 69.356 86.3836C70.3089 92.8568 71.1198 99.3501 72.6201 105.703C72.9444 107.306 73.3905 109.09 74.0392 110.613L74.2419 110.934C72.3565 120.714 73.6946 130.714 74.8501 140.454H73.4918C73.0864 137.227 72.7012 134.061 72.4173 130.955C71.7889 123.88 71.6672 117.307 72.8025 111.134C67.5517 94.0994 67.3895 73.6978 62.8483 56.5027C61.9765 59.7693 61.1453 64.0781 60.4357 68.2867C58.084 80.7521 57.3339 94.7006 54.1104 107.066C53.5022 109.391 53.1373 111.795 53.4009 114.18C54.3537 122.417 53.117 131.415 52.002 139.913" fill="#1D1D1B"/>
<path fill-rule="evenodd" clip-rule="evenodd" d="M32.3974 45.0801C31.7081 59.0085 35.4181 74.1394 36.3304 87.7271C36.7359 92.7573 37.2022 97.8678 36.3304 102.136C33.4921 114.642 33.6746 129.633 36.3304 142.499L37.8914 143.942C35.2965 131.396 34.7693 114.983 37.6076 102.437C39.1079 92.4367 36.8575 82.2359 35.8844 72.2355C35.0734 65.7422 34.2017 59.269 33.6746 52.7357" fill="#1D1D1B"/>
<path d="M88.859 144.143C87.3588 148.231 83.6285 150.656 80.3239 150.656C68.91 150.095 72.2146 116.667 72.8633 111.055C69.5385 100.594 68.4032 85.4432 65.6865 70.0117H91.9609C89.5281 83.9602 89.3253 91.9164 91.6973 113.681C93.4814 130.615 90.7445 139.253 88.859 144.103V144.143Z" fill="#D3D3D5" stroke="#1D1D1B" stroke-width="0.5" stroke-miterlimit="10"/>
<path d="M74.687 146.127H88.0878" stroke="#1D1D1B" stroke-width="0.5" stroke-miterlimit="10"/>
<path d="M92.9132 130.074H71.0585C70.9571 130.074 70.8557 130.215 70.7746 130.475L69.8826 133.942C69.8015 134.283 69.8015 134.744 69.8826 135.084L70.7949 138.552C70.8557 138.792 70.9571 138.932 71.0585 138.932H92.9132C93.0146 138.932 93.1159 138.792 93.197 138.531L94.0891 135.064C94.1702 134.724 94.1702 134.263 94.0891 133.922L93.1768 130.455C93.1159 130.215 93.0146 130.074 92.9132 130.074Z" fill="white" stroke="#1D1D1B" stroke-width="0.53" stroke-miterlimit="10"/>
<path fill-rule="evenodd" clip-rule="evenodd" d="M182.528 45C183.217 52.4953 181.798 59.6299 181.007 67.1051C179.852 78.8491 177.095 90.9938 178.574 102.117C181.271 113.981 181.251 128.069 178.98 140.475H177.642C179.892 128.33 179.994 114.402 177.297 102.437C175.777 92.557 177.966 82.4965 178.98 72.6364C179.811 66.0229 180.703 59.4295 181.251 52.7558" fill="#1D1D1B"/>
<path fill-rule="evenodd" clip-rule="evenodd" d="M139.608 141.857L139.852 140.294C141.068 130.614 142.609 120.613 140.723 110.954L140.865 110.633C141.494 109.27 141.879 107.707 142.224 106.264C145.082 93.8388 146.076 81.1129 148.285 68.5272C148.387 67.9059 148.508 67.2847 148.61 66.6634C149.177 63.3967 149.765 60.09 150.576 56.8835C150.678 56.5027 151.935 51.753 152.056 51.252C155.381 62.6953 156.902 74.6597 158.564 86.3836C159.517 92.8568 160.328 99.3501 161.828 105.703C162.152 107.306 162.598 109.09 163.247 110.613L163.45 110.934C161.565 120.714 162.903 130.714 164.058 140.454H162.7C162.294 137.227 161.909 134.061 161.625 130.955C160.997 123.88 160.875 117.307 162.011 111.134C156.76 94.0994 156.598 73.6978 152.056 56.5027C151.185 59.7693 150.353 64.0781 149.644 68.2867C147.292 80.7521 146.542 94.7006 143.318 107.066C142.71 109.391 142.345 111.795 142.609 114.18C143.562 122.417 142.325 131.415 141.21 139.913" fill="#1D1D1B"/>
<path fill-rule="evenodd" clip-rule="evenodd" d="M121.605 45.0801C120.916 59.0085 124.626 74.1394 125.538 87.7271C125.944 92.7573 126.41 97.8678 125.538 102.136C122.7 114.642 122.883 129.633 125.538 142.499L127.099 143.942C124.504 131.396 123.977 114.983 126.816 102.437C128.316 92.4367 126.066 82.2359 125.092 72.2355C124.281 65.7422 123.41 59.269 122.883 52.7357" fill="#1D1D1B"/>
<path d="M178.067 144.143C176.567 148.231 172.837 150.656 169.532 150.656C158.118 150.095 161.423 116.667 162.071 111.055C158.746 100.594 157.611 85.4432 154.895 70.0117H181.169C178.736 83.9602 178.533 91.9164 180.905 113.681C182.689 130.615 179.952 139.253 178.067 144.103V144.143Z" fill="#D3D3D5" stroke="#1D1D1B" stroke-width="0.5" stroke-miterlimit="10"/>
<path d="M163.895 146.127H177.296" stroke="#1D1D1B" stroke-width="0.5" stroke-miterlimit="10"/>
<path d="M182.688 125.043H159.738C159.617 125.043 159.515 125.103 159.454 125.183L158.522 126.406C158.42 126.526 158.441 126.686 158.522 126.807L159.475 128.029C159.475 128.029 159.657 128.169 159.758 128.169H182.708C182.83 128.169 182.931 128.109 182.992 128.029L183.924 126.807C184.026 126.686 184.005 126.526 183.924 126.406L182.972 125.183C182.972 125.183 182.789 125.043 182.688 125.043Z" fill="white" stroke="#1D1D1B" stroke-width="0.5" stroke-miterlimit="10"/>
<path d="M182.688 130.152H159.738C159.617 130.152 159.515 130.212 159.454 130.293L158.522 131.515C158.42 131.635 158.441 131.796 158.522 131.916L159.475 133.138C159.475 133.138 159.657 133.279 159.758 133.279H182.708C182.83 133.279 182.931 133.219 182.992 133.138L183.924 131.916C184.026 131.796 184.005 131.635 183.924 131.515L182.972 130.293C182.972 130.293 182.789 130.152 182.688 130.152Z" fill="white" stroke="#1D1D1B" stroke-width="0.5" stroke-miterlimit="10"/>
<path d="M182.688 134.883H159.738C159.617 134.883 159.515 134.943 159.454 135.023L158.522 136.246C158.42 136.366 158.441 136.526 158.522 136.646L159.475 137.869C159.475 137.869 159.657 138.009 159.758 138.009H182.708C182.83 138.009 182.931 137.949 182.992 137.869L183.924 136.646C184.026 136.526 184.005 136.366 183.924 136.246L182.972 135.023C182.972 135.023 182.789 134.883 182.688 134.883Z" fill="white" stroke="#1D1D1B" stroke-width="0.5" stroke-miterlimit="10"/>
<path d="M69.7212 134.422H94.1101" stroke="#1D1D1B" stroke-width="0.25" stroke-miterlimit="10"/>
<path d="M64.6389 175.536C67.8069 175.968 69.7109 176.448 69.7109 178.624C69.7109 180.736 68.1269 182.24 64.2069 182.24C60.0309 182.24 58.3669 180.688 58.3669 178.672H60.4789C60.5429 179.84 61.8549 180.576 64.2709 180.576C66.3509 180.576 67.6629 180.064 67.6629 178.864C67.6629 177.52 65.8069 177.632 62.6869 177.12C59.9989 176.688 58.7509 175.824 58.7509 174C58.7509 172.048 60.1749 170.576 63.8709 170.576C67.7109 170.576 69.1669 172.32 69.1669 173.92H67.1509C67.0549 173.104 66.2069 172.24 63.8229 172.24C61.3269 172.24 60.7349 172.992 60.7349 173.856C60.7349 175.072 62.2389 175.2 64.6389 175.536ZM75.4675 173.232C78.1715 173.232 80.3475 174.832 80.1235 178.368H72.4435C72.6675 179.824 73.7075 180.784 75.4995 180.784C77.1635 180.784 77.8675 179.984 78.1555 179.376H79.8835C79.4515 181.12 77.7875 182.24 75.4995 182.24C73.0675 182.24 70.6675 180.848 70.6675 177.744C70.6675 174.688 73.0195 173.232 75.4675 173.232ZM72.4915 176.928H78.3635C78.1075 175.584 77.1795 174.688 75.4675 174.688C73.8835 174.688 72.7955 175.584 72.4915 176.928ZM81.745 170.192H83.713V182H81.745V170.192ZM85.9481 170.192H87.9161V182H85.9481V170.192ZM93.9753 173.232C96.3273 173.232 98.3273 174.016 98.3273 176.464V182H96.3593V180.896C95.9433 181.376 94.9193 182.24 92.9193 182.24C90.8713 182.24 89.5113 181.392 89.5113 179.76C89.5113 178 90.4713 176.608 96.3593 176.992V176.464C96.3593 175.28 95.7513 174.688 93.9753 174.688C92.4553 174.688 91.8313 175.184 91.6873 175.904H89.8473C90.1033 174.112 91.7673 173.232 93.9753 173.232ZM96.3593 179.6V178.176C92.8073 178 91.5273 178.304 91.5273 179.632C91.5273 180.496 92.1993 180.928 93.3353 180.928C94.8393 180.928 95.8313 180.368 96.3593 179.6ZM107.485 170.8H109.453V182H107.485V180.88C106.813 181.696 105.789 182.24 104.365 182.24C101.869 182.24 99.9331 180.624 99.9331 177.744C99.9331 174.848 101.869 173.232 104.365 173.232C105.789 173.232 106.813 173.776 107.485 174.592V170.8ZM104.749 180.784C106.781 180.784 107.789 179.504 107.789 177.744C107.789 175.968 106.813 174.688 104.749 174.688C102.669 174.688 101.757 175.936 101.757 177.744C101.757 179.536 102.701 180.784 104.749 180.784ZM115.938 173.232C118.434 173.232 120.834 174.592 120.834 177.744C120.834 180.896 118.434 182.24 115.938 182.24C113.442 182.24 111.058 180.896 111.058 177.744C111.058 174.592 113.442 173.232 115.938 173.232ZM115.938 180.784C118.226 180.784 119.01 179.232 119.01 177.744C119.01 176.24 118.226 174.688 115.938 174.688C113.65 174.688 112.866 176.24 112.866 177.744C112.866 179.232 113.65 180.784 115.938 180.784ZM133.985 170.8H135.953V182H133.985V180.88C133.313 181.696 132.289 182.24 130.865 182.24C128.369 182.24 126.433 180.624 126.433 177.744C126.433 174.848 128.369 173.232 130.865 173.232C132.289 173.232 133.313 173.776 133.985 174.592V170.8ZM131.249 180.784C133.281 180.784 134.289 179.504 134.289 177.744C134.289 175.968 133.313 174.688 131.249 174.688C129.169 174.688 128.257 175.936 128.257 177.744C128.257 179.536 129.201 180.784 131.249 180.784ZM138.198 182V173.472H140.166V182H138.198ZM139.174 172.288C138.566 172.288 138.134 171.936 138.134 171.328C138.134 170.72 138.566 170.368 139.174 170.368C139.798 170.368 140.23 170.72 140.23 171.328C140.23 171.936 139.798 172.288 139.174 172.288ZM146.897 177.008C149.313 177.424 150.673 177.744 150.673 179.424C150.673 181.408 149.025 182.24 146.177 182.24C143.585 182.24 141.601 181.344 141.601 179.408H143.633C143.633 180.336 144.545 180.752 146.337 180.752C148.081 180.752 148.705 180.32 148.705 179.68C148.705 178.736 147.281 178.72 145.105 178.32C142.897 177.904 141.921 177.392 141.921 175.872C141.921 174.16 143.521 173.232 146.033 173.232C148.769 173.232 150.241 174.32 150.241 175.904H148.401C148.401 175.36 147.825 174.688 146.001 174.688C144.289 174.688 143.697 175.12 143.697 175.776C143.697 176.64 145.377 176.752 146.897 177.008ZM157.532 174.976H154.956V178.816C154.956 180.256 155.532 180.656 157.532 180.448V181.984C157.244 182.064 156.812 182.128 156.412 182.128C153.82 182.128 152.988 181.072 152.988 178.816V174.976H151.324V173.472H152.988V171.264H154.956V173.472H157.532V174.976ZM163.272 173.232C165.624 173.232 167.624 174.016 167.624 176.464V182H165.656V180.896C165.24 181.376 164.216 182.24 162.216 182.24C160.168 182.24 158.808 181.392 158.808 179.76C158.808 178 159.768 176.608 165.656 176.992V176.464C165.656 175.28 165.048 174.688 163.272 174.688C161.752 174.688 161.128 175.184 160.984 175.904H159.144C159.4 174.112 161.064 173.232 163.272 173.232ZM165.656 179.6V178.176C162.104 178 160.824 178.304 160.824 179.632C160.824 180.496 161.496 180.928 162.632 180.928C164.136 180.928 165.128 180.368 165.656 179.6ZM169.87 170.192H171.838V182H169.87V170.192Z" fill="black"/>
</svg>
