<svg width="132" height="129" viewBox="0 0 132 129" fill="none" xmlns="http://www.w3.org/2000/svg">
<rect width="132" height="129" rx="10" fill="white"/>
<path d="M28.3542 115.152C30.7302 115.476 32.1582 115.836 32.1582 117.468C32.1582 119.052 30.9702 120.18 28.0302 120.18C24.8982 120.18 23.6502 119.016 23.6502 117.504H25.2342C25.2822 118.38 26.2662 118.932 28.0782 118.932C29.6382 118.932 30.6222 118.548 30.6222 117.648C30.6222 116.64 29.2302 116.724 26.8902 116.34C24.8742 116.016 23.9382 115.368 23.9382 114C23.9382 112.536 25.0062 111.432 27.7782 111.432C30.6582 111.432 31.7502 112.74 31.7502 113.94H30.2382C30.1662 113.328 29.5302 112.68 27.7422 112.68C25.8702 112.68 25.4262 113.244 25.4262 113.892C25.4262 114.804 26.5542 114.9 28.3542 115.152ZM36.4756 113.424C38.5036 113.424 40.1356 114.624 39.9676 117.276H34.2076C34.3756 118.368 35.1556 119.088 36.4996 119.088C37.7476 119.088 38.2756 118.488 38.4916 118.032H39.7876C39.4636 119.34 38.2156 120.18 36.4996 120.18C34.6756 120.18 32.8756 119.136 32.8756 116.808C32.8756 114.516 34.6396 113.424 36.4756 113.424ZM34.2436 116.196H38.6476C38.4556 115.188 37.7596 114.516 36.4756 114.516C35.2876 114.516 34.4716 115.188 34.2436 116.196ZM41.1838 111.144H42.6598V120H41.1838V111.144ZM44.3361 111.144H45.8121V120H44.3361V111.144ZM50.3564 113.424C52.1204 113.424 53.6204 114.012 53.6204 115.848V120H52.1444V119.172C51.8324 119.532 51.0644 120.18 49.5644 120.18C48.0284 120.18 47.0084 119.544 47.0084 118.32C47.0084 117 47.7284 115.956 52.1444 116.244V115.848C52.1444 114.96 51.6884 114.516 50.3564 114.516C49.2164 114.516 48.7484 114.888 48.6404 115.428H47.2604C47.4524 114.084 48.7004 113.424 50.3564 113.424ZM52.1444 118.2V117.132C49.4804 117 48.5204 117.228 48.5204 118.224C48.5204 118.872 49.0244 119.196 49.8764 119.196C51.0044 119.196 51.7484 118.776 52.1444 118.2ZM60.4888 111.6H61.9648V120H60.4888V119.16C59.9848 119.772 59.2168 120.18 58.1488 120.18C56.2768 120.18 54.8248 118.968 54.8248 116.808C54.8248 114.636 56.2768 113.424 58.1488 113.424C59.2168 113.424 59.9848 113.832 60.4888 114.444V111.6ZM58.4368 119.088C59.9608 119.088 60.7168 118.128 60.7168 116.808C60.7168 115.476 59.9848 114.516 58.4368 114.516C56.8768 114.516 56.1928 115.452 56.1928 116.808C56.1928 118.152 56.9008 119.088 58.4368 119.088ZM66.8286 113.424C68.7006 113.424 70.5006 114.444 70.5006 116.808C70.5006 119.172 68.7006 120.18 66.8286 120.18C64.9566 120.18 63.1686 119.172 63.1686 116.808C63.1686 114.444 64.9566 113.424 66.8286 113.424ZM66.8286 119.088C68.5446 119.088 69.1326 117.924 69.1326 116.808C69.1326 115.68 68.5446 114.516 66.8286 114.516C65.1126 114.516 64.5246 115.68 64.5246 116.808C64.5246 117.924 65.1126 119.088 66.8286 119.088ZM80.3638 111.6H81.8398V120H80.3638V119.16C79.8598 119.772 79.0918 120.18 78.0238 120.18C76.1518 120.18 74.6998 118.968 74.6998 116.808C74.6998 114.636 76.1518 113.424 78.0238 113.424C79.0918 113.424 79.8598 113.832 80.3638 114.444V111.6ZM78.3118 119.088C79.8358 119.088 80.5918 118.128 80.5918 116.808C80.5918 115.476 79.8598 114.516 78.3118 114.516C76.7518 114.516 76.0678 115.452 76.0678 116.808C76.0678 118.152 76.7758 119.088 78.3118 119.088ZM83.5236 120V113.604H84.9996V120H83.5236ZM84.2556 112.716C83.7996 112.716 83.4756 112.452 83.4756 111.996C83.4756 111.54 83.7996 111.276 84.2556 111.276C84.7236 111.276 85.0476 111.54 85.0476 111.996C85.0476 112.452 84.7236 112.716 84.2556 112.716ZM90.0479 116.256C91.8599 116.568 92.8799 116.808 92.8799 118.068C92.8799 119.556 91.6439 120.18 89.5079 120.18C87.5639 120.18 86.0759 119.508 86.0759 118.056H87.5999C87.5999 118.752 88.2839 119.064 89.6279 119.064C90.9359 119.064 91.4039 118.74 91.4039 118.26C91.4039 117.552 90.3359 117.54 88.7039 117.24C87.0479 116.928 86.3159 116.544 86.3159 115.404C86.3159 114.12 87.5159 113.424 89.3999 113.424C91.4519 113.424 92.5559 114.24 92.5559 115.428H91.1759C91.1759 115.02 90.7439 114.516 89.3759 114.516C88.0919 114.516 87.6479 114.84 87.6479 115.332C87.6479 115.98 88.9079 116.064 90.0479 116.256ZM98.0238 114.732H96.0918V117.612C96.0918 118.692 96.5238 118.992 98.0238 118.836V119.988C97.8078 120.048 97.4838 120.096 97.1838 120.096C95.2398 120.096 94.6158 119.304 94.6158 117.612V114.732H93.3678V113.604H94.6158V111.948H96.0918V113.604H98.0238V114.732ZM102.329 113.424C104.093 113.424 105.593 114.012 105.593 115.848V120H104.117V119.172C103.805 119.532 103.037 120.18 101.537 120.18C100.001 120.18 98.9811 119.544 98.9811 118.32C98.9811 117 99.7011 115.956 104.117 116.244V115.848C104.117 114.96 103.661 114.516 102.329 114.516C101.189 114.516 100.721 114.888 100.613 115.428H99.2331C99.4251 114.084 100.673 113.424 102.329 113.424ZM104.117 118.2V117.132C101.453 117 100.493 117.228 100.493 118.224C100.493 118.872 100.997 119.196 101.849 119.196C102.977 119.196 103.721 118.776 104.117 118.2ZM107.278 111.144H108.754V120H107.278V111.144Z" fill="black"/>
<path fill-rule="evenodd" clip-rule="evenodd" d="M55.9519 21C56.426 26.1542 55.4501 31.0604 54.9064 36.2009C54.1117 44.2768 52.2157 52.6283 53.2334 60.2769C55.0876 68.4355 55.0736 78.1238 53.5122 86.6545H52.5921C54.1396 78.303 54.2093 68.7249 52.3551 60.4975C51.3095 53.7032 52.8152 46.785 53.5122 40.0045C54.0838 35.4567 54.6972 30.9226 55.0736 26.3334" fill="black"/>
<path fill-rule="evenodd" clip-rule="evenodd" d="M26.4385 87.6025L26.6058 86.5276C27.4422 79.8712 28.5018 72.9943 27.2052 66.3516L27.3028 66.1311C27.735 65.194 27.9999 64.119 28.2369 63.1268C30.2026 54.5823 30.8858 45.8311 32.4054 37.1764C32.4751 36.7492 32.5587 36.322 32.6284 35.8948C33.0188 33.6484 33.4231 31.3745 33.9807 29.1694C34.0504 28.9076 34.9148 25.6414 34.9984 25.2969C37.2848 33.166 38.3304 41.3935 39.4736 49.4556C40.1288 53.907 40.6865 58.3722 41.7181 62.7409C41.9412 63.8434 42.2479 65.07 42.694 66.1173L42.8334 66.3378C41.5369 73.0632 42.457 79.9401 43.2517 86.6378H42.3176C42.0388 84.419 41.7739 82.2416 41.5787 80.1054C41.1465 75.2406 41.0629 70.7203 41.8436 66.4757C38.2328 54.7615 38.1213 40.732 34.9984 28.9076C34.399 31.154 33.8274 34.117 33.3394 37.0111C31.7222 45.5831 31.2064 55.1749 28.9897 63.678C28.5715 65.2767 28.3206 66.9304 28.5018 68.5704C29.157 74.2346 28.3066 80.4224 27.5398 86.2657" fill="black"/>
<path fill-rule="evenodd" clip-rule="evenodd" d="M14.0583 21.0547C13.5843 30.6327 16.1356 41.0377 16.763 50.3815C17.0418 53.8406 17.3624 57.3549 16.763 60.2903C14.8112 68.8899 14.9366 79.1983 16.763 88.046L17.8364 89.0383C16.0519 80.4111 15.6895 69.1242 17.6413 60.497C18.6729 53.6201 17.1254 46.6054 16.4562 39.7285C15.8986 35.2633 15.2991 30.8119 14.9366 26.3192" fill="black"/>
<path d="M52.8851 89.1727C51.8534 91.9841 49.2882 93.6516 47.0158 93.6516C39.1669 93.2657 41.4393 70.2784 41.8854 66.4196C39.599 59.2257 38.8183 48.807 36.9502 38.1953H55.0181C53.3452 47.7872 53.2058 53.2584 54.8369 68.225C56.0637 79.8702 54.1816 85.81 52.8851 89.1451V89.1727Z" fill="#D3D3D5" stroke="black" stroke-width="0.5" stroke-miterlimit="10"/>
<path d="M43.1401 90.5391H52.3553" stroke="black" stroke-width="0.5" stroke-miterlimit="10"/>
<path d="M55.6731 79.5H40.6444C40.5747 79.5 40.5049 79.5965 40.4492 79.7756L39.8358 82.1598C39.78 82.3941 39.78 82.7111 39.8358 82.9453L40.4631 85.3295C40.505 85.4949 40.5747 85.5914 40.6444 85.5914H55.6731C55.7428 85.5914 55.8125 85.4949 55.8683 85.3157L56.4817 82.9316C56.5374 82.6973 56.5374 82.3803 56.4817 82.146L55.8543 79.7618C55.8125 79.5965 55.7428 79.5 55.6731 79.5Z" fill="white" stroke="black" stroke-width="0.53" stroke-miterlimit="10"/>
<path fill-rule="evenodd" clip-rule="evenodd" d="M117.297 21C117.771 26.1542 116.795 31.0604 116.251 36.2009C115.456 44.2768 113.56 52.6283 114.578 60.2769C116.432 68.4355 116.418 78.1238 114.857 86.6545H113.937C115.484 78.303 115.554 68.7249 113.7 60.4975C112.654 53.7032 114.16 46.785 114.857 40.0045C115.429 35.4567 116.042 30.9226 116.418 26.3334" fill="black"/>
<path fill-rule="evenodd" clip-rule="evenodd" d="M87.7827 87.6025L87.95 86.5276C88.7865 79.8712 89.846 72.9943 88.5495 66.3516L88.6471 66.1311C89.0792 65.194 89.3441 64.119 89.5811 63.1268C91.5469 54.5823 92.23 45.8311 93.7496 37.1764C93.8193 36.7492 93.9029 36.322 93.9726 35.8948C94.363 33.6484 94.7673 31.3745 95.325 29.1694C95.3947 28.9076 96.259 25.6414 96.3427 25.2969C98.629 33.166 99.6746 41.3935 100.818 49.4556C101.473 53.907 102.031 58.3722 103.062 62.7409C103.285 63.8434 103.592 65.07 104.038 66.1173L104.178 66.3378C102.881 73.0632 103.801 79.9401 104.596 86.6378H103.662C103.383 84.419 103.118 82.2416 102.923 80.1054C102.491 75.2406 102.407 70.7203 103.188 66.4757C99.577 54.7615 99.4655 40.732 96.3427 28.9076C95.7432 31.154 95.1716 34.117 94.6837 37.0111C93.0665 45.5831 92.5506 55.1749 90.334 63.678C89.9157 65.2767 89.6648 66.9304 89.846 68.5704C90.5013 74.2346 89.6509 80.4224 88.8841 86.2657" fill="black"/>
<path fill-rule="evenodd" clip-rule="evenodd" d="M75.4031 21.0547C74.9291 30.6327 77.4803 41.0377 78.1077 50.3815C78.3865 53.8406 78.7072 57.3549 78.1077 60.2903C76.1559 68.8899 76.2814 79.1983 78.1077 88.046L79.1812 89.0383C77.3967 80.4111 77.0342 69.1242 78.986 60.497C80.0176 53.6201 78.4702 46.6054 77.801 39.7285C77.2433 35.2633 76.6439 30.8119 76.2814 26.3192" fill="black"/>
<path d="M114.23 89.1727C113.198 91.9841 110.633 93.6516 108.361 93.6516C100.512 93.2657 102.784 70.2784 103.23 66.4196C100.944 59.2257 100.163 48.807 98.2949 38.1953H116.363C114.69 47.7872 114.55 53.2584 116.182 68.225C117.408 79.8702 115.526 85.81 114.23 89.1451V89.1727Z" fill="#D3D3D5" stroke="black" stroke-width="0.5" stroke-miterlimit="10"/>
<path d="M104.484 90.5391H113.7" stroke="black" stroke-width="0.5" stroke-miterlimit="10"/>
<path d="M117.408 76.0469H101.626C101.543 76.0469 101.473 76.0882 101.431 76.1433L100.79 76.984C100.72 77.0667 100.734 77.177 100.79 77.2596L101.445 78.1003C101.445 78.1003 101.571 78.1968 101.64 78.1968H117.422C117.505 78.1968 117.575 78.1554 117.617 78.1003L118.258 77.2596C118.328 77.177 118.314 77.0667 118.258 76.984L117.603 76.1433C117.603 76.1433 117.478 76.0469 117.408 76.0469Z" fill="white" stroke="black" stroke-width="0.5" stroke-miterlimit="10"/>
<path d="M117.408 79.5547H101.626C101.543 79.5547 101.473 79.596 101.431 79.6512L100.79 80.4918C100.72 80.5745 100.734 80.6848 100.79 80.7674L101.445 81.6081C101.445 81.6081 101.571 81.7046 101.64 81.7046H117.422C117.505 81.7046 117.575 81.6632 117.617 81.6081L118.258 80.7674C118.328 80.6848 118.314 80.5745 118.258 80.4918L117.603 79.6512C117.603 79.6512 117.478 79.5547 117.408 79.5547Z" fill="white" stroke="black" stroke-width="0.5" stroke-miterlimit="10"/>
<path d="M117.408 82.8125H101.626C101.543 82.8125 101.473 82.8538 101.431 82.909L100.79 83.7496C100.72 83.8323 100.734 83.9426 100.79 84.0253L101.445 84.8659C101.445 84.8659 101.571 84.9624 101.64 84.9624H117.422C117.505 84.9624 117.575 84.9211 117.617 84.8659L118.258 84.0253C118.328 83.9426 118.314 83.8323 118.258 83.7496L117.603 82.909C117.603 82.909 117.478 82.8125 117.408 82.8125Z" fill="white" stroke="black" stroke-width="0.5" stroke-miterlimit="10"/>
<path d="M39.7246 82.4922H56.496" stroke="black" stroke-width="0.25" stroke-miterlimit="10"/>
</svg>
