<svg width="217" height="195" viewBox="0 0 217 195" fill="none" xmlns="http://www.w3.org/2000/svg">
<rect x="8.52372e-06" y="2.47442e-05" width="217" height="195" rx="10" fill="#D9D9D9"/>
<g clip-path="url(#clip0_3841_2278)">
<path fill-rule="evenodd" clip-rule="evenodd" d="M143.795 28C144.615 36.7572 142.946 45.1399 142.009 53.8971C140.633 67.6667 137.412 81.8683 139.139 94.8889C142.331 108.774 142.272 125.28 139.608 139.827H138.027C140.691 125.597 140.808 109.292 137.617 95.2634C135.831 83.6832 138.407 71.9013 139.579 60.3498C140.545 52.6008 141.599 44.8807 142.243 37.0453" fill="#1D1D1B"/>
<path fill-rule="evenodd" clip-rule="evenodd" d="M93.2866 141.469L93.5794 139.626C95.0142 128.305 96.8295 116.58 94.6042 105.259L94.7506 104.885C95.4826 103.3 95.9511 101.457 96.361 99.7573C99.7283 85.2099 100.899 70.2881 103.505 55.5679C103.623 54.8478 103.769 54.1276 103.886 53.4075C104.56 49.5762 105.233 45.7161 106.199 41.9424C106.316 41.4815 107.78 35.9219 107.927 35.3457C111.821 48.7696 113.636 62.7408 115.598 76.5103C116.74 84.1153 117.677 91.7202 119.434 99.1523C119.814 101.025 120.342 103.128 121.103 104.914L121.337 105.288C119.112 116.724 120.693 128.449 122.04 139.885H120.459C119.961 136.111 119.522 132.395 119.2 128.737C118.468 120.44 118.292 112.749 119.639 105.519C113.461 85.5556 113.256 61.6749 107.927 41.5103C106.902 45.3416 105.906 50.3828 105.087 55.3087C102.305 69.9136 101.427 86.247 97.6494 100.737C96.9467 103.473 96.5074 106.268 96.8295 109.062C97.9422 118.712 96.5075 129.255 95.1898 139.193" fill="#1D1D1B"/>
<path fill-rule="evenodd" clip-rule="evenodd" d="M72.0879 28.086C71.2973 44.3905 75.66 62.1353 76.7434 78.0366C77.2119 83.9131 77.7682 89.9049 76.7434 94.9172C73.4055 109.551 73.6104 127.123 76.7434 142.189L78.5881 143.86C75.5429 129.168 74.8988 109.925 78.266 95.2341C80.0521 83.5386 77.3876 71.5551 76.2164 59.8596C75.2794 52.2547 74.2546 44.6786 73.6104 37.016" fill="#1D1D1B"/>
<path d="M138.759 144.147C137.002 148.958 132.61 151.781 128.716 151.781C117.033 151.781 119.053 120.641 119.053 116.09C119.053 112.431 119.639 107.563 119.961 105.402C118.995 103.732 117.589 96.4148 116.857 91.8633C116.272 88.2049 113.051 67.3201 111.499 57.3242H142.448C142.126 59.0814 141.277 64.4683 140.486 71.958C139.52 81.2049 140.223 88.5794 142.126 108.485L142.185 109.118C144.117 129.485 140.984 138.127 138.788 144.118L138.759 144.147Z" fill="#D3D3D5" stroke="#1D1D1B" stroke-width="0.5" stroke-miterlimit="10"/>
<path d="M133.371 70.7774H124.909V74.2054H133.371V70.7774Z" stroke="#050A0A" stroke-width="0.29" stroke-miterlimit="10"/>
<path d="M122.538 146.453H138.32" stroke="#1D1D1B" stroke-width="0.5" stroke-miterlimit="10"/>
<path d="M131.848 72.3614H126.432V153.567H131.848V72.3614Z" fill="white" stroke="#050A0A" stroke-width="0.29" stroke-miterlimit="10"/>
</g>
<path d="M57.1278 180.592C59.7358 180.592 60.7118 179.04 61.0318 177.568H63.0958C62.5838 180.736 60.0558 182.24 57.1278 182.24C54.0238 182.24 50.9838 180.544 50.9838 176.4C50.9838 172.256 54.0238 170.576 57.1278 170.576C60.0558 170.576 62.5838 172.08 63.0958 175.248H61.0318C60.7118 173.776 59.7358 172.224 57.1278 172.224C54.4398 172.224 53.0158 173.824 53.0158 176.4C53.0158 178.976 54.4398 180.592 57.1278 180.592ZM69.0944 173.232C71.5904 173.232 73.9904 174.592 73.9904 177.744C73.9904 180.896 71.5904 182.24 69.0944 182.24C66.5984 182.24 64.2144 180.896 64.2144 177.744C64.2144 174.592 66.5984 173.232 69.0944 173.232ZM69.0944 180.784C71.3824 180.784 72.1664 179.232 72.1664 177.744C72.1664 176.24 71.3824 174.688 69.0944 174.688C66.8064 174.688 66.0224 176.24 66.0224 177.744C66.0224 179.232 66.8064 180.784 69.0944 180.784ZM80.9808 173.232C81.3648 173.232 81.5888 173.248 81.9248 173.296V175.248H81.8608C81.5248 175.152 81.0928 175.088 80.5488 175.088C78.3888 175.088 77.5728 176.336 77.5728 177.664V182H75.5888V173.472H77.5728V175.072C77.9568 174.448 79.1408 173.232 80.9808 173.232ZM90.282 170.8H92.25V182H90.282V180.88C89.61 181.696 88.586 182.24 87.162 182.24C84.666 182.24 82.73 180.624 82.73 177.744C82.73 174.848 84.666 173.232 87.162 173.232C88.586 173.232 89.61 173.776 90.282 174.592V170.8ZM87.546 180.784C89.578 180.784 90.586 179.504 90.586 177.744C90.586 175.968 89.61 174.688 87.546 174.688C85.466 174.688 84.554 175.936 84.554 177.744C84.554 179.536 85.498 180.784 87.546 180.784ZM98.735 173.232C101.231 173.232 103.631 174.592 103.631 177.744C103.631 180.896 101.231 182.24 98.735 182.24C96.239 182.24 93.855 180.896 93.855 177.744C93.855 174.592 96.239 173.232 98.735 173.232ZM98.735 180.784C101.023 180.784 101.807 179.232 101.807 177.744C101.807 176.24 101.023 174.688 98.735 174.688C96.447 174.688 95.663 176.24 95.663 177.744C95.663 179.232 96.447 180.784 98.735 180.784ZM99.247 170.24H101.327L99.343 172.304H98.063L99.247 170.24ZM110.461 173.232C112.685 173.232 113.901 174.496 113.901 176.48V182H111.933V177.072C111.933 175.632 111.149 174.832 109.597 174.832C108.045 174.832 107.197 175.728 107.197 177.072V182H105.229V173.472H107.197V174.784C107.597 174.224 108.685 173.232 110.461 173.232ZM127.688 170.8H129.656V182H127.688V180.88C127.016 181.696 125.992 182.24 124.568 182.24C122.072 182.24 120.136 180.624 120.136 177.744C120.136 174.848 122.072 173.232 124.568 173.232C125.992 173.232 127.016 173.776 127.688 174.592V170.8ZM124.952 180.784C126.984 180.784 127.992 179.504 127.992 177.744C127.992 175.968 127.016 174.688 124.952 174.688C122.872 174.688 121.96 175.936 121.96 177.744C121.96 179.536 122.904 180.784 124.952 180.784ZM131.901 182V173.472H133.869V182H131.901ZM132.877 172.288C132.269 172.288 131.837 171.936 131.837 171.328C131.837 170.72 132.269 170.368 132.877 170.368C133.501 170.368 133.933 170.72 133.933 171.328C133.933 171.936 133.501 172.288 132.877 172.288ZM140.6 177.008C143.016 177.424 144.376 177.744 144.376 179.424C144.376 181.408 142.728 182.24 139.88 182.24C137.288 182.24 135.304 181.344 135.304 179.408H137.336C137.336 180.336 138.248 180.752 140.04 180.752C141.784 180.752 142.408 180.32 142.408 179.68C142.408 178.736 140.984 178.72 138.808 178.32C136.6 177.904 135.624 177.392 135.624 175.872C135.624 174.16 137.224 173.232 139.736 173.232C142.472 173.232 143.944 174.32 143.944 175.904H142.104C142.104 175.36 141.528 174.688 139.704 174.688C137.992 174.688 137.4 175.12 137.4 175.776C137.4 176.64 139.08 176.752 140.6 177.008ZM151.235 174.976H148.659V178.816C148.659 180.256 149.235 180.656 151.235 180.448V181.984C150.947 182.064 150.515 182.128 150.115 182.128C147.523 182.128 146.691 181.072 146.691 178.816V174.976H145.027V173.472H146.691V171.264H148.659V173.472H151.235V174.976ZM156.975 173.232C159.327 173.232 161.327 174.016 161.327 176.464V182H159.359V180.896C158.943 181.376 157.919 182.24 155.919 182.24C153.871 182.24 152.511 181.392 152.511 179.76C152.511 178 153.471 176.608 159.359 176.992V176.464C159.359 175.28 158.751 174.688 156.975 174.688C155.455 174.688 154.831 175.184 154.687 175.904H152.847C153.103 174.112 154.767 173.232 156.975 173.232ZM159.359 179.6V178.176C155.807 178 154.527 178.304 154.527 179.632C154.527 180.496 155.199 180.928 156.335 180.928C157.839 180.928 158.831 180.368 159.359 179.6ZM163.573 170.192H165.541V182H163.573V170.192Z" fill="black"/>
<defs>
<clipPath id="clip0_3841_2278">
<rect width="72" height="126" fill="white" transform="translate(72 28)"/>
</clipPath>
</defs>
</svg>
