<svg width="217" height="195" viewBox="0 0 217 195" fill="none" xmlns="http://www.w3.org/2000/svg">
<rect width="217" height="195" rx="10" fill="#D9D9D9"/>
<g clip-path="url(#clip0_3843_2351)">
<path fill-rule="evenodd" clip-rule="evenodd" d="M144.674 26C145.504 35.0053 143.814 43.6255 142.866 52.6309C141.473 66.7906 138.213 81.3946 139.961 94.7841C143.192 109.062 143.133 126.036 140.436 140.996H138.835C141.532 126.362 141.651 109.595 138.42 95.1692C136.612 83.2608 139.221 71.1451 140.406 59.2664C141.384 51.2978 142.451 43.3589 143.103 35.3016" fill="#1D1D1B"/>
<path fill-rule="evenodd" clip-rule="evenodd" d="M93.5474 142.685L93.8437 140.789C95.296 129.147 97.1336 117.091 94.8811 105.449L95.0293 105.064C95.7703 103.435 96.2445 101.539 96.6594 99.7912C100.068 84.8317 101.253 69.4871 103.891 54.3499C104.01 53.6093 104.158 52.8687 104.277 52.1282C104.958 48.1883 105.64 44.2189 106.618 40.3383C106.737 39.8643 108.218 34.1471 108.367 33.5547C112.309 47.3589 114.146 61.7259 116.132 75.8856C117.288 83.706 118.236 91.5265 120.015 99.1691C120.4 101.095 120.933 103.257 121.704 105.094L121.941 105.479C119.689 117.239 121.289 129.295 122.653 141.056H121.052C120.548 137.175 120.104 133.354 119.778 129.592C119.037 121.06 118.859 113.151 120.222 105.716C113.968 85.1872 113.761 60.6299 108.367 39.894C107.329 43.8338 106.322 49.0178 105.492 54.0833C102.676 69.102 101.787 85.8981 97.9635 100.798C97.2522 103.613 96.8076 106.486 97.1336 109.359C98.2599 119.283 96.8076 130.125 95.4739 140.345" fill="#1D1D1B"/>
<path fill-rule="evenodd" clip-rule="evenodd" d="M72.089 26.0898C71.2888 42.8563 75.7049 61.104 76.8016 77.4557C77.2758 83.4988 77.8389 89.6603 76.8016 94.8147C73.4228 109.863 73.6302 127.933 76.8016 143.426L78.6688 145.144C75.5864 130.036 74.9343 110.248 78.3428 95.1405C80.1507 83.1137 77.4536 70.7906 76.2681 58.7638C75.3196 50.9434 74.2823 43.1526 73.6302 35.2729" fill="#1D1D1B"/>
<path d="M139.398 145.439C137.62 150.386 133.174 153.289 129.232 153.289C117.406 153.289 119.451 121.267 119.451 116.587C119.451 112.825 120.044 107.818 120.37 105.597C119.392 103.879 117.97 96.3544 117.229 91.674C116.636 87.9119 113.376 66.4354 111.805 56.1562H143.133C142.807 57.9632 141.947 63.5027 141.147 71.2046C140.169 80.7135 140.88 88.297 142.807 108.766L142.866 109.418C144.822 130.361 141.651 139.248 139.428 145.41L139.398 145.439Z" fill="#D3D3D5" stroke="#1D1D1B" stroke-width="0.5" stroke-miterlimit="10"/>
<path d="M122.356 147.809H138.302" stroke="#1D1D1B" stroke-width="0.5" stroke-miterlimit="10"/>
<path d="M109.878 47.9495L144.23 47.5645L142.451 88.0292H114.413C114.413 88.0292 109.878 63.5607 109.878 47.9495Z" fill="white" stroke="#1D1D1B" stroke-width="0.5" stroke-miterlimit="10"/>
</g>
<path d="M26.9104 170.464H19.6464V173.712H26.4624V175.392H19.6464V180H17.6784V168.8H26.9104V170.464ZM35.3787 171.472H37.3467V180H35.3787V178.688C34.9787 179.248 33.8907 180.24 32.1147 180.24C29.8907 180.24 28.6747 178.976 28.6747 176.992V171.472H30.6427V176.4C30.6427 177.84 31.4267 178.64 32.9787 178.64C34.5307 178.64 35.3787 177.744 35.3787 176.4V171.472ZM44.8129 171.232C47.0369 171.232 48.2529 172.496 48.2529 174.48V180H46.2849V175.072C46.2849 173.632 45.5009 172.832 43.9489 172.832C42.3969 172.832 41.5489 173.728 41.5489 175.072V180H39.5809V171.472H41.5489V172.784C41.9489 172.224 43.0369 171.232 44.8129 171.232ZM57.3992 168.8H59.3672V180H57.3992V178.88C56.7272 179.696 55.7032 180.24 54.2792 180.24C51.7832 180.24 49.8472 178.624 49.8472 175.744C49.8472 172.848 51.7832 171.232 54.2792 171.232C55.7032 171.232 56.7272 171.776 57.3992 172.592V168.8ZM54.6632 178.784C56.6952 178.784 57.7032 177.504 57.7032 175.744C57.7032 173.968 56.7272 172.688 54.6632 172.688C52.5832 172.688 51.6712 173.936 51.6712 175.744C51.6712 177.536 52.6152 178.784 54.6632 178.784ZM65.4362 171.232C67.7882 171.232 69.7882 172.016 69.7882 174.464V180H67.8202V178.896C67.4042 179.376 66.3802 180.24 64.3802 180.24C62.3322 180.24 60.9722 179.392 60.9722 177.76C60.9722 176 61.9322 174.608 67.8202 174.992V174.464C67.8202 173.28 67.2122 172.688 65.4362 172.688C63.9162 172.688 63.2922 173.184 63.1482 173.904H61.3082C61.5642 172.112 63.2282 171.232 65.4362 171.232ZM67.8202 177.6V176.176C64.2682 176 62.9882 176.304 62.9882 177.632C62.9882 178.496 63.6602 178.928 64.7962 178.928C66.3002 178.928 67.2922 178.368 67.8202 177.6ZM83.5867 168.8H85.5547V180H83.5867V178.88C82.9147 179.696 81.8907 180.24 80.4667 180.24C77.9707 180.24 76.0347 178.624 76.0347 175.744C76.0347 172.848 77.9707 171.232 80.4667 171.232C81.8907 171.232 82.9147 171.776 83.5867 172.592V168.8ZM80.8507 178.784C82.8827 178.784 83.8907 177.504 83.8907 175.744C83.8907 173.968 82.9147 172.688 80.8507 172.688C78.7707 172.688 77.8587 173.936 77.8587 175.744C77.8587 177.536 78.8027 178.784 80.8507 178.784ZM91.9597 171.232C94.6637 171.232 96.8397 172.832 96.6157 176.368H88.9357C89.1597 177.824 90.1997 178.784 91.9917 178.784C93.6557 178.784 94.3597 177.984 94.6477 177.376H96.3757C95.9437 179.12 94.2797 180.24 91.9917 180.24C89.5597 180.24 87.1597 178.848 87.1597 175.744C87.1597 172.688 89.5117 171.232 91.9597 171.232ZM88.9837 174.928H94.8557C94.5997 173.584 93.6717 172.688 91.9597 172.688C90.3757 172.688 89.2877 173.584 88.9837 174.928ZM107.374 175.008C109.79 175.424 111.15 175.744 111.15 177.424C111.15 179.408 109.502 180.24 106.654 180.24C104.062 180.24 102.078 179.344 102.078 177.408H104.11C104.11 178.336 105.022 178.752 106.814 178.752C108.558 178.752 109.182 178.32 109.182 177.68C109.182 176.736 107.758 176.72 105.582 176.32C103.374 175.904 102.398 175.392 102.398 173.872C102.398 172.16 103.998 171.232 106.51 171.232C109.246 171.232 110.718 172.32 110.718 173.904H108.878C108.878 173.36 108.302 172.688 106.478 172.688C104.766 172.688 104.174 173.12 104.174 173.776C104.174 174.64 105.854 174.752 107.374 175.008ZM119.457 171.472H121.425V180H119.457V178.688C119.057 179.248 117.969 180.24 116.193 180.24C113.969 180.24 112.753 178.976 112.753 176.992V171.472H114.721V176.4C114.721 177.84 115.505 178.64 117.057 178.64C118.609 178.64 119.457 177.744 119.457 176.4V171.472ZM128.155 175.008C130.571 175.424 131.931 175.744 131.931 177.424C131.931 179.408 130.283 180.24 127.435 180.24C124.843 180.24 122.859 179.344 122.859 177.408H124.891C124.891 178.336 125.803 178.752 127.595 178.752C129.339 178.752 129.963 178.32 129.963 177.68C129.963 176.736 128.539 176.72 126.363 176.32C124.155 175.904 123.179 175.392 123.179 173.872C123.179 172.16 124.779 171.232 127.291 171.232C130.027 171.232 131.499 172.32 131.499 173.904H129.659C129.659 173.36 129.083 172.688 127.259 172.688C125.547 172.688 124.955 173.12 124.955 173.776C124.955 174.64 126.635 174.752 128.155 175.008ZM138.622 171.232C141.118 171.232 143.054 172.848 143.054 175.744C143.054 178.624 141.118 180.24 138.622 180.24C137.198 180.24 136.174 179.696 135.502 178.88V182.672H133.534V171.472H135.502V172.592C136.174 171.776 137.198 171.232 138.622 171.232ZM138.238 178.784C140.318 178.784 141.23 177.536 141.23 175.744C141.23 173.936 140.286 172.688 138.238 172.688C136.19 172.688 135.198 173.968 135.198 175.744C135.198 177.504 136.174 178.784 138.238 178.784ZM148.819 171.232C151.523 171.232 153.699 172.832 153.475 176.368H145.795C146.019 177.824 147.059 178.784 148.851 178.784C150.515 178.784 151.219 177.984 151.507 177.376H153.235C152.803 179.12 151.139 180.24 148.851 180.24C146.419 180.24 144.019 178.848 144.019 175.744C144.019 172.688 146.371 171.232 148.819 171.232ZM145.843 174.928H151.715C151.459 173.584 150.531 172.688 148.819 172.688C147.235 172.688 146.147 173.584 145.843 174.928ZM160.329 171.232C162.553 171.232 163.769 172.496 163.769 174.48V180H161.801V175.072C161.801 173.632 161.017 172.832 159.465 172.832C157.913 172.832 157.065 173.728 157.065 175.072V180H155.097V171.472H157.065V172.784C157.465 172.224 158.553 171.232 160.329 171.232ZM170.499 175.008C172.915 175.424 174.275 175.744 174.275 177.424C174.275 179.408 172.627 180.24 169.779 180.24C167.187 180.24 165.203 179.344 165.203 177.408H167.235C167.235 178.336 168.147 178.752 169.939 178.752C171.683 178.752 172.307 178.32 172.307 177.68C172.307 176.736 170.883 176.72 168.707 176.32C166.499 175.904 165.523 175.392 165.523 173.872C165.523 172.16 167.123 171.232 169.635 171.232C172.371 171.232 173.843 172.32 173.843 173.904H172.003C172.003 173.36 171.427 172.688 169.603 172.688C167.891 172.688 167.299 173.12 167.299 173.776C167.299 174.64 168.979 174.752 170.499 175.008ZM175.878 180V171.472H177.846V180H175.878ZM176.854 170.288C176.246 170.288 175.814 169.936 175.814 169.328C175.814 168.72 176.246 168.368 176.854 168.368C177.478 168.368 177.91 168.72 177.91 169.328C177.91 169.936 177.478 170.288 176.854 170.288ZM184.321 171.232C186.817 171.232 189.217 172.592 189.217 175.744C189.217 178.896 186.817 180.24 184.321 180.24C181.825 180.24 179.441 178.896 179.441 175.744C179.441 172.592 181.825 171.232 184.321 171.232ZM184.321 178.784C186.609 178.784 187.393 177.232 187.393 175.744C187.393 174.24 186.609 172.688 184.321 172.688C182.033 172.688 181.249 174.24 181.249 175.744C181.249 177.232 182.033 178.784 184.321 178.784ZM184.833 168.24H186.913L184.929 170.304H183.649L184.833 168.24ZM196.047 171.232C198.271 171.232 199.487 172.496 199.487 174.48V180H197.519V175.072C197.519 173.632 196.735 172.832 195.183 172.832C193.631 172.832 192.783 173.728 192.783 175.072V180H190.815V171.472H192.783V172.784C193.183 172.224 194.271 171.232 196.047 171.232Z" fill="black"/>
<defs>
<clipPath id="clip0_3843_2351">
<rect width="73" height="128" fill="white" transform="translate(72 26)"/>
</clipPath>
</defs>
</svg>
