<svg width="132" height="129" viewBox="0 0 132 129" fill="none" xmlns="http://www.w3.org/2000/svg">
<rect width="132" height="129" rx="10" fill="white"/>
<path d="M10.4072 112.444H5.41318V114.677H10.0992V115.832H5.41318V119H4.06018V111.3H10.4072V112.444ZM16.2291 113.137H17.5821V119H16.2291V118.098C15.9541 118.483 15.2061 119.165 13.9851 119.165C12.4561 119.165 11.6201 118.296 11.6201 116.932V113.137H12.9731V116.525C12.9731 117.515 13.5121 118.065 14.5791 118.065C15.6461 118.065 16.2291 117.449 16.2291 116.525V113.137ZM22.7151 112.972C24.2441 112.972 25.0801 113.841 25.0801 115.205V119H23.7271V115.612C23.7271 114.622 23.1881 114.072 22.1211 114.072C21.0541 114.072 20.4711 114.688 20.4711 115.612V119H19.1181V113.137H20.4711V114.039C20.7461 113.654 21.4941 112.972 22.7151 112.972ZM31.3682 111.3H32.7212V119H31.3682V118.23C30.9062 118.791 30.2022 119.165 29.2232 119.165C27.5072 119.165 26.1762 118.054 26.1762 116.074C26.1762 114.083 27.5072 112.972 29.2232 112.972C30.2022 112.972 30.9062 113.346 31.3682 113.907V111.3ZM29.4872 118.164C30.8842 118.164 31.5772 117.284 31.5772 116.074C31.5772 114.853 30.9062 113.973 29.4872 113.973C28.0572 113.973 27.4302 114.831 27.4302 116.074C27.4302 117.306 28.0792 118.164 29.4872 118.164ZM36.8936 112.972C38.5106 112.972 39.8856 113.511 39.8856 115.194V119H38.5326V118.241C38.2466 118.571 37.5426 119.165 36.1676 119.165C34.7596 119.165 33.8246 118.582 33.8246 117.46C33.8246 116.25 34.4846 115.293 38.5326 115.557V115.194C38.5326 114.38 38.1146 113.973 36.8936 113.973C35.8486 113.973 35.4196 114.314 35.3206 114.809H34.0556C34.2316 113.577 35.3756 112.972 36.8936 112.972ZM38.5326 117.35V116.371C36.0906 116.25 35.2106 116.459 35.2106 117.372C35.2106 117.966 35.6726 118.263 36.4536 118.263C37.4876 118.263 38.1696 117.878 38.5326 117.35ZM49.3721 111.3H50.7251V119H49.3721V118.23C48.9101 118.791 48.2061 119.165 47.2271 119.165C45.5111 119.165 44.1801 118.054 44.1801 116.074C44.1801 114.083 45.5111 112.972 47.2271 112.972C48.2061 112.972 48.9101 113.346 49.3721 113.907V111.3ZM47.4911 118.164C48.8881 118.164 49.5811 117.284 49.5811 116.074C49.5811 114.853 48.9101 113.973 47.4911 113.973C46.0611 113.973 45.4341 114.831 45.4341 116.074C45.4341 117.306 46.0831 118.164 47.4911 118.164ZM55.1285 112.972C56.9875 112.972 58.4835 114.072 58.3295 116.503H53.0495C53.2035 117.504 53.9185 118.164 55.1505 118.164C56.2945 118.164 56.7785 117.614 56.9765 117.196H58.1645C57.8675 118.395 56.7235 119.165 55.1505 119.165C53.4785 119.165 51.8285 118.208 51.8285 116.074C51.8285 113.973 53.4455 112.972 55.1285 112.972ZM53.0825 115.513H57.1195C56.9435 114.589 56.3055 113.973 55.1285 113.973C54.0395 113.973 53.2915 114.589 53.0825 115.513ZM65.7257 115.568C67.3867 115.854 68.3217 116.074 68.3217 117.229C68.3217 118.593 67.1887 119.165 65.2307 119.165C63.4487 119.165 62.0847 118.549 62.0847 117.218H63.4817C63.4817 117.856 64.1087 118.142 65.3407 118.142C66.5397 118.142 66.9687 117.845 66.9687 117.405C66.9687 116.756 65.9897 116.745 64.4937 116.47C62.9757 116.184 62.3047 115.832 62.3047 114.787C62.3047 113.61 63.4047 112.972 65.1317 112.972C67.0127 112.972 68.0247 113.72 68.0247 114.809H66.7597C66.7597 114.435 66.3637 113.973 65.1097 113.973C63.9327 113.973 63.5257 114.27 63.5257 114.721C63.5257 115.315 64.6807 115.392 65.7257 115.568ZM74.0328 113.137H75.3858V119H74.0328V118.098C73.7578 118.483 73.0098 119.165 71.7888 119.165C70.2598 119.165 69.4238 118.296 69.4238 116.932V113.137H70.7768V116.525C70.7768 117.515 71.3158 118.065 72.3828 118.065C73.4498 118.065 74.0328 117.449 74.0328 116.525V113.137ZM80.0129 115.568C81.6739 115.854 82.6089 116.074 82.6089 117.229C82.6089 118.593 81.4759 119.165 79.5179 119.165C77.7359 119.165 76.3719 118.549 76.3719 117.218H77.7689C77.7689 117.856 78.3959 118.142 79.6279 118.142C80.8269 118.142 81.2559 117.845 81.2559 117.405C81.2559 116.756 80.2769 116.745 78.7809 116.47C77.2629 116.184 76.5919 115.832 76.5919 114.787C76.5919 113.61 77.6919 112.972 79.4189 112.972C81.2999 112.972 82.3119 113.72 82.3119 114.809H81.0469C81.0469 114.435 80.6509 113.973 79.3969 113.973C78.2199 113.973 77.8129 114.27 77.8129 114.721C77.8129 115.315 78.9679 115.392 80.0129 115.568ZM87.2089 112.972C88.9249 112.972 90.2559 114.083 90.2559 116.074C90.2559 118.054 88.9249 119.165 87.2089 119.165C86.2299 119.165 85.5259 118.791 85.0639 118.23V120.837H83.7109V113.137H85.0639V113.907C85.5259 113.346 86.2299 112.972 87.2089 112.972ZM86.9449 118.164C88.3749 118.164 89.0019 117.306 89.0019 116.074C89.0019 114.831 88.3529 113.973 86.9449 113.973C85.5369 113.973 84.8549 114.853 84.8549 116.074C84.8549 117.284 85.5259 118.164 86.9449 118.164ZM94.2194 112.972C96.0784 112.972 97.5744 114.072 97.4204 116.503H92.1404C92.2944 117.504 93.0094 118.164 94.2414 118.164C95.3854 118.164 95.8694 117.614 96.0674 117.196H97.2554C96.9584 118.395 95.8144 119.165 94.2414 119.165C92.5694 119.165 90.9194 118.208 90.9194 116.074C90.9194 113.973 92.5364 112.972 94.2194 112.972ZM92.1734 115.513H96.2104C96.0344 114.589 95.3964 113.973 94.2194 113.973C93.1304 113.973 92.3824 114.589 92.1734 115.513ZM102.132 112.972C103.661 112.972 104.497 113.841 104.497 115.205V119H103.144V115.612C103.144 114.622 102.605 114.072 101.538 114.072C100.471 114.072 99.8881 114.688 99.8881 115.612V119H98.5351V113.137H99.8881V114.039C100.163 113.654 100.911 112.972 102.132 112.972ZM109.124 115.568C110.785 115.854 111.72 116.074 111.72 117.229C111.72 118.593 110.587 119.165 108.629 119.165C106.847 119.165 105.483 118.549 105.483 117.218H106.88C106.88 117.856 107.507 118.142 108.739 118.142C109.938 118.142 110.367 117.845 110.367 117.405C110.367 116.756 109.388 116.745 107.892 116.47C106.374 116.184 105.703 115.832 105.703 114.787C105.703 113.61 106.803 112.972 108.53 112.972C110.411 112.972 111.423 113.72 111.423 114.809H110.158C110.158 114.435 109.762 113.973 108.508 113.973C107.331 113.973 106.924 114.27 106.924 114.721C106.924 115.315 108.079 115.392 109.124 115.568ZM112.822 119V113.137H114.175V119H112.822ZM113.493 112.323C113.075 112.323 112.778 112.081 112.778 111.663C112.778 111.245 113.075 111.003 113.493 111.003C113.922 111.003 114.219 111.245 114.219 111.663C114.219 112.081 113.922 112.323 113.493 112.323ZM118.627 112.972C120.343 112.972 121.993 113.907 121.993 116.074C121.993 118.241 120.343 119.165 118.627 119.165C116.911 119.165 115.272 118.241 115.272 116.074C115.272 113.907 116.911 112.972 118.627 112.972ZM118.627 118.164C120.2 118.164 120.739 117.097 120.739 116.074C120.739 115.04 120.2 113.973 118.627 113.973C117.054 113.973 116.515 115.04 116.515 116.074C116.515 117.097 117.054 118.164 118.627 118.164ZM118.979 110.915H120.409L119.045 112.334H118.165L118.979 110.915ZM126.689 112.972C128.218 112.972 129.054 113.841 129.054 115.205V119H127.701V115.612C127.701 114.622 127.162 114.072 126.095 114.072C125.028 114.072 124.445 114.688 124.445 115.612V119H123.092V113.137H124.445V114.039C124.72 113.654 125.468 112.972 126.689 112.972Z" fill="black"/>
<g clip-path="url(#clip0_9385_5105)">
<rect width="55" height="97" transform="translate(38 8)" fill="white"/>
<path fill-rule="evenodd" clip-rule="evenodd" d="M92.7546 8C93.3799 14.8243 92.1071 21.3569 91.3925 28.1812C90.3429 38.9116 87.8866 49.9787 89.2041 60.1254C91.6381 70.9456 91.5935 83.8086 89.5614 95.1451H88.3555C90.3876 84.0555 90.4769 71.3497 88.0429 60.4173C86.6807 51.393 88.6458 42.2115 89.539 33.2097C90.276 27.171 91.0799 21.1548 91.5711 15.0488" fill="black"/>
<path fill-rule="evenodd" clip-rule="evenodd" d="M54.2344 96.4269L54.4577 94.9902C55.5519 86.1679 56.9364 77.0314 55.2392 68.2091L55.3509 67.9173C55.9092 66.6826 56.2664 65.2459 56.5791 63.9214C59.1471 52.5849 60.0403 40.9566 62.0277 29.4854C62.117 28.9242 62.2287 28.363 62.318 27.8018C62.8316 24.8161 63.3452 21.808 64.0821 18.8673C64.1714 18.5081 65.288 14.1755 65.3996 13.7266C68.3696 24.1876 69.7541 35.0751 71.2502 45.8055C72.1211 51.7319 72.8357 57.6583 74.1755 63.45C74.4658 64.9092 74.8677 66.5479 75.4483 67.9397L75.627 68.2315C73.9299 77.1436 75.1357 86.2801 76.1629 95.1922H74.9571C74.5775 92.2514 74.2425 89.3556 73.9969 86.5046C73.4386 80.0395 73.3046 74.0457 74.3318 68.4111C69.6201 52.8543 69.4638 34.2445 65.3996 18.5305C64.6181 21.5162 63.8588 25.4447 63.2336 29.2834C61.1122 40.6648 60.4423 53.3931 57.5616 64.6847C57.0257 66.8173 56.6907 68.9948 56.9364 71.1723C57.7849 78.6925 56.6907 86.9087 55.6859 94.6534" fill="black"/>
<path fill-rule="evenodd" clip-rule="evenodd" d="M38.0672 8.07031C37.4643 20.7762 40.7915 34.6045 41.6178 46.996C41.9751 51.5755 42.3993 56.2448 41.6178 60.1509C39.0721 71.5547 39.2284 85.2483 41.6178 96.9889L43.0246 98.2909C40.7022 86.8421 40.2109 71.8465 42.7789 60.3978C44.1411 51.2837 42.109 41.9451 41.2158 32.831C40.5012 26.9046 39.7197 21.0007 39.2284 15.0294" fill="black"/>
<path d="M88.7794 98.5114C87.4396 102.26 84.09 104.46 81.1201 104.46C72.2102 104.46 73.751 80.1934 73.751 76.6465C73.751 73.7956 74.1976 70.0018 74.4433 68.3181C73.7064 67.0161 72.6345 61.3142 72.0762 57.7673C71.6296 54.9164 69.1733 38.6412 67.9897 30.8516H91.5931C91.3474 32.2209 90.6999 36.4188 90.0969 42.2554C89.36 49.4614 89.896 55.2082 91.3474 70.7201L91.3921 71.214C92.8659 87.0851 90.4766 93.8196 88.8018 98.4889L88.7794 98.5114Z" fill="#D3D3D5" stroke="black" stroke-width="0.5" stroke-miterlimit="10"/>
<path d="M75.9395 100.305H87.9533" stroke="black" stroke-width="0.5" stroke-miterlimit="10"/>
<path d="M66.5386 24.6356L92.4196 24.3438L91.0798 55.0084H69.9551C69.9551 55.0084 66.5386 36.4659 66.5386 24.6356Z" fill="white" stroke="black" stroke-width="0.5" stroke-miterlimit="10"/>
</g>
<defs>
<clipPath id="clip0_9385_5105">
<rect width="55" height="97" fill="white" transform="translate(38 8)"/>
</clipPath>
</defs>
</svg>
