<svg width="285" height="331" viewBox="0 0 285 331" fill="none" xmlns="http://www.w3.org/2000/svg">
<rect width="285" height="331" rx="10" fill="black"/>
<g clip-path="url(#clip0_11679_4591)">
<path d="M187.722 264.219H186.641V298.782H187.722V264.219Z" fill="white"/>
<path d="M191.459 298.375H182.679V299.189H191.459V298.375Z" fill="white"/>
<path d="M191.459 263.766H182.679V264.58H191.459V263.766Z" fill="white"/>
<path d="M247.336 226.71H254.045C252.919 233.948 246.616 236.572 240.582 236.572C234.009 236.572 226.985 233.405 226.985 224.629C226.985 215.853 234.009 212.641 240.582 212.641C246.616 212.641 252.964 215.31 254.045 222.548H247.336C246.616 219.381 244.635 217.255 240.537 217.255C235.855 217.255 233.513 220.15 233.513 224.584C233.513 229.017 235.855 231.913 240.537 231.913C244.635 231.913 246.616 229.786 247.336 226.665V226.71Z" fill="white"/>
<path d="M156.654 269.6C168.69 269.6 178.447 267.412 178.447 264.714C178.447 262.016 168.69 259.828 156.654 259.828C144.619 259.828 134.862 262.016 134.862 264.714C134.862 267.412 144.619 269.6 156.654 269.6Z" stroke="white" stroke-miterlimit="10" stroke-dasharray="1 0.75"/>
<path d="M165.435 259.555L164.084 259.148L197.808 223.273H220.141V224.721H198.889L165.435 259.555Z" fill="white"/>
<path d="M168.091 260.692C167.46 262.592 165.434 263.588 163.588 263C161.697 262.366 160.707 260.33 161.292 258.476C161.922 256.576 163.948 255.58 165.795 256.168C167.686 256.802 168.676 258.838 168.091 260.692Z" fill="black"/>
<path d="M168.541 260.824C169.262 258.698 168.091 256.391 165.975 255.667C163.859 254.943 161.562 256.119 160.842 258.246C160.121 260.372 161.292 262.679 163.408 263.403C165.524 264.127 167.821 262.951 168.541 260.824C169.262 258.698 167.821 262.951 168.541 260.824ZM161.742 258.608C162.283 256.979 164.039 256.074 165.66 256.617C167.28 257.16 168.181 258.924 167.641 260.553C167.1 262.181 165.344 263.086 163.723 262.543C162.103 262.001 161.202 260.236 161.742 258.608C162.283 256.979 161.202 260.236 161.742 258.608Z" fill="white"/>
<path d="M186.53 183.266C185.082 166.325 180.34 147.104 175.454 131.757C172.594 122.816 169.771 115.504 167.744 111.305C166.875 110.256 167.345 99.8669 168.033 92.0483C168.902 81.6597 167.056 71.8864 166.549 77.316C165.97 87.777 163.038 102.835 165.21 112.536C172.485 128.39 177.01 145.403 180.63 162.38C182.946 174.361 184.901 187.102 183.851 199.265C181.861 223.372 177.951 247.19 175.635 271.261C172.884 285.378 168.721 288.962 157.246 289.758L153.844 289.867C143.129 289.867 138.858 280.13 137.048 271.225C136.976 270.754 136.904 270.284 136.867 269.813C133.429 245.235 130.243 220.187 123.402 196.188C115.656 223.191 109.792 270.211 106.968 296.201C106.824 297.396 108.597 297.649 108.814 296.454C113.954 266.99 116.416 235.1 123.402 207.156C128.325 226.738 131.221 250.412 134.261 271.261C137.121 285.27 144.071 292.726 153.952 292.726L157.464 292.581C171.762 291.568 175.2 284.871 177.843 271.261C179.978 248.71 184.684 222.684 186.711 199.518C187.182 194.125 187.037 188.84 186.566 183.302L186.53 183.266Z" fill="white"/>
<path d="M78.9876 94.0048C79.6753 103.054 79.8925 109.642 79.1324 111.307C77.0329 115.615 74.2457 122.818 71.3861 131.759C65.0516 152.319 58.6809 177.222 60.2374 199.52C62.6988 229.166 68.7437 261.273 69.5039 290.158C69.6487 294.827 69.2505 298.52 68.6351 302.067C68.4541 303.189 70.083 303.551 70.3726 302.465C71.5309 298.121 72.4359 293.524 72.2911 290.158C71.3861 259.716 65.4498 229.672 63.0246 199.303C61.9748 187.104 63.7847 174.363 66.2461 162.418C69.8296 145.477 74.5353 128.428 81.5576 112.538C83.8742 102.113 80.725 88.0322 80.3269 77.3902C79.0238 63.0923 77.5035 74.603 79.0238 94.0048H78.9876Z" fill="white"/>
<path d="M194 264H204V299H194" stroke="white" stroke-miterlimit="10" stroke-dasharray="4 4"/>
<path d="M214.612 276.2H216.446V286H213.926V278.496L211.42 280.05V278.188L214.612 276.2ZM219.235 283.424C219.991 283.424 220.607 284.054 220.607 284.81C220.607 285.58 219.991 286.196 219.235 286.196C218.465 286.196 217.849 285.58 217.849 284.81C217.849 284.054 218.465 283.424 219.235 283.424ZM226.904 279.518C229.382 279.518 231.426 280.358 231.426 282.696C231.426 285.37 229.116 286.196 226.638 286.196C223.698 286.196 221.458 284.936 221.458 281.1C221.458 277.348 223.81 275.99 226.638 275.99C228.514 275.99 230.978 276.648 231.23 278.804H228.598C228.402 278.146 227.674 277.838 226.638 277.838C224.762 277.838 224.146 278.916 224.048 280.554C224.65 279.896 225.728 279.518 226.904 279.518ZM226.638 284.362C228.01 284.362 228.85 283.914 228.85 282.696C228.85 281.464 227.856 281.086 226.778 281.086C225.196 281.086 224.328 281.52 224.328 282.696C224.328 283.956 225.196 284.362 226.638 284.362ZM236.323 286V278.538H238.843V286H236.323ZM237.583 277.796C236.813 277.796 236.281 277.362 236.281 276.606C236.281 275.85 236.813 275.416 237.583 275.416C238.353 275.416 238.885 275.85 238.885 276.606C238.885 277.362 238.353 277.796 237.583 277.796ZM245.511 278.328C247.429 278.328 248.633 279.378 248.633 281.058V286H246.113V281.618C246.113 280.792 245.595 280.162 244.461 280.162C243.341 280.162 242.767 280.792 242.767 281.618V286H240.247V278.538H242.767V279.602C243.061 279.168 243.957 278.328 245.511 278.328Z" fill="white"/>
</g>
<defs>
<clipPath id="clip0_11679_4591">
<rect width="210" height="277" fill="white" transform="translate(44 23)"/>
</clipPath>
</defs>
</svg>
