<svg width="285" height="331" viewBox="0 0 285 331" fill="none" xmlns="http://www.w3.org/2000/svg">
<rect width="285" height="331" rx="10" fill="black"/>
<g clip-path="url(#clip0_11679_4525)">
<path d="M187.722 264.219H186.641V298.782H187.722V264.219Z" fill="white"/>
<path d="M191.459 298.375H182.679V299.189H191.459V298.375Z" fill="white"/>
<path d="M191.459 263.766H182.679V264.58H191.459V263.766Z" fill="white"/>
<path d="M247.336 226.71H254.045C252.919 233.948 246.616 236.572 240.582 236.572C234.009 236.572 226.985 233.405 226.985 224.629C226.985 215.853 234.009 212.641 240.582 212.641C246.616 212.641 252.964 215.31 254.045 222.548H247.336C246.616 219.381 244.635 217.255 240.537 217.255C235.855 217.255 233.513 220.15 233.513 224.584C233.513 229.017 235.855 231.913 240.537 231.913C244.635 231.913 246.616 229.786 247.336 226.665V226.71Z" fill="white"/>
<path d="M156.654 269.6C168.69 269.6 178.447 267.412 178.447 264.714C178.447 262.016 168.69 259.828 156.654 259.828C144.619 259.828 134.862 262.016 134.862 264.714C134.862 267.412 144.619 269.6 156.654 269.6Z" stroke="white" stroke-miterlimit="10" stroke-dasharray="1 0.75"/>
<path d="M165.435 259.555L164.084 259.148L197.808 223.273H220.141V224.721H198.889L165.435 259.555Z" fill="white"/>
<path d="M168.091 260.692C167.46 262.592 165.434 263.588 163.588 263C161.697 262.366 160.707 260.33 161.292 258.476C161.922 256.576 163.948 255.58 165.795 256.168C167.686 256.802 168.676 258.838 168.091 260.692Z" fill="black"/>
<path d="M168.541 260.824C169.262 258.698 168.091 256.391 165.975 255.667C163.859 254.943 161.562 256.119 160.842 258.246C160.121 260.372 161.292 262.679 163.408 263.403C165.524 264.127 167.821 262.951 168.541 260.824C169.262 258.698 167.821 262.951 168.541 260.824ZM161.742 258.608C162.283 256.979 164.039 256.074 165.66 256.617C167.28 257.16 168.181 258.924 167.641 260.553C167.1 262.181 165.344 263.086 163.723 262.543C162.103 262.001 161.202 260.236 161.742 258.608C162.283 256.979 161.202 260.236 161.742 258.608Z" fill="white"/>
<path d="M186.53 183.266C185.082 166.325 180.34 147.104 175.454 131.757C172.594 122.816 169.771 115.504 167.744 111.305C166.875 110.256 167.345 99.8669 168.033 92.0483C168.902 81.6597 167.056 71.8864 166.549 77.316C165.97 87.777 163.038 102.835 165.21 112.536C172.485 128.39 177.01 145.403 180.63 162.38C182.946 174.361 184.901 187.102 183.851 199.265C181.861 223.372 177.951 247.19 175.635 271.261C172.884 285.378 168.721 288.962 157.246 289.758L153.844 289.867C143.129 289.867 138.858 280.13 137.048 271.225C136.976 270.754 136.904 270.284 136.867 269.813C133.429 245.235 130.243 220.187 123.402 196.188C115.656 223.191 109.792 270.211 106.968 296.201C106.824 297.396 108.597 297.649 108.814 296.454C113.954 266.99 116.416 235.1 123.402 207.156C128.325 226.738 131.221 250.412 134.261 271.261C137.121 285.27 144.071 292.726 153.952 292.726L157.464 292.581C171.762 291.568 175.2 284.871 177.843 271.261C179.978 248.71 184.684 222.684 186.711 199.518C187.182 194.125 187.037 188.84 186.566 183.302L186.53 183.266Z" fill="white"/>
<path d="M78.9876 94.0048C79.6753 103.054 79.8925 109.642 79.1324 111.307C77.0329 115.615 74.2457 122.818 71.3861 131.759C65.0516 152.319 58.6809 177.222 60.2374 199.52C62.6988 229.166 68.7437 261.273 69.5039 290.158C69.6487 294.827 69.2505 298.52 68.6351 302.067C68.4541 303.189 70.083 303.551 70.3726 302.465C71.5309 298.121 72.4359 293.524 72.2911 290.158C71.3861 259.716 65.4498 229.672 63.0246 199.303C61.9748 187.104 63.7847 174.363 66.2461 162.418C69.8296 145.477 74.5353 128.428 81.5576 112.538C83.8742 102.113 80.725 88.0322 80.3269 77.3902C79.0238 63.0923 77.5035 74.603 79.0238 94.0048H78.9876Z" fill="white"/>
<path d="M194 264H204V299H194" stroke="white" stroke-miterlimit="10" stroke-dasharray="4 4"/>
<path d="M221.85 282.43V284.152H220.114V286H217.594V284.152H211.42V282.29L216.782 276.2H220.114V282.43H221.85ZM213.912 282.43H217.594V278.16L213.912 282.43ZM231.079 284.474C232.311 284.474 232.997 283.83 233.207 282.948H235.503C235.111 285.272 233.067 286.196 231.079 286.196C228.895 286.196 226.459 285.146 226.459 282.262C226.459 279.378 228.895 278.328 231.079 278.328C233.067 278.328 235.111 279.266 235.503 281.59H233.207C232.997 280.694 232.311 280.05 231.079 280.05C229.539 280.05 228.853 281.044 228.853 282.262C228.853 283.48 229.539 284.474 231.079 284.474ZM246.83 278.328C248.748 278.328 249.826 279.378 249.826 281.058V286H247.292V281.618C247.292 280.526 246.69 280.162 245.92 280.162C245.15 280.162 244.478 280.568 244.478 281.618V286H241.958V281.618C241.958 280.526 241.356 280.162 240.586 280.162C239.802 280.162 239.144 280.568 239.144 281.618V286H236.624V278.538H239.144V279.56C239.424 279.126 240.222 278.328 241.496 278.328C242.798 278.328 243.722 278.818 244.17 279.658C244.366 279.35 245.374 278.328 246.83 278.328Z" fill="white"/>
</g>
<defs>
<clipPath id="clip0_11679_4525">
<rect width="210" height="277" fill="white" transform="translate(44 23)"/>
</clipPath>
</defs>
</svg>
