<svg width="285" height="331" viewBox="0 0 285 331" fill="none" xmlns="http://www.w3.org/2000/svg">
<rect width="285" height="331" rx="10" fill="black"/>
<g clip-path="url(#clip0_11679_4611)">
<path d="M187.722 264.219H186.641V298.782H187.722V264.219Z" fill="white"/>
<path d="M191.459 298.375H182.679V299.189H191.459V298.375Z" fill="white"/>
<path d="M191.459 263.766H182.679V264.58H191.459V263.766Z" fill="white"/>
<path d="M247.336 226.71H254.045C252.919 233.948 246.616 236.572 240.582 236.572C234.009 236.572 226.985 233.405 226.985 224.629C226.985 215.853 234.009 212.641 240.582 212.641C246.616 212.641 252.964 215.31 254.045 222.548H247.336C246.616 219.381 244.635 217.255 240.537 217.255C235.855 217.255 233.513 220.15 233.513 224.584C233.513 229.017 235.855 231.913 240.537 231.913C244.635 231.913 246.616 229.786 247.336 226.665V226.71Z" fill="white"/>
<path d="M158 269C167.389 269 175 266.985 175 264.5C175 262.015 167.389 260 158 260C148.611 260 141 262.015 141 264.5C141 266.985 148.611 269 158 269Z" stroke="white" stroke-miterlimit="10" stroke-dasharray="1 0.75"/>
<path d="M165.434 259.555L164.084 259.148L197.808 223.273H220.141V224.721H198.889L165.434 259.555Z" fill="white"/>
<path d="M168.091 260.692C167.461 262.592 165.434 263.588 163.588 263C161.697 262.366 160.707 260.33 161.292 258.476C161.922 256.576 163.949 255.58 165.795 256.168C167.686 256.802 168.676 258.838 168.091 260.692Z" fill="white"/>
<path d="M168.541 260.824C169.262 258.698 168.091 256.391 165.975 255.667C163.859 254.943 161.562 256.119 160.842 258.246C160.121 260.372 161.292 262.679 163.408 263.403C165.524 264.127 167.821 262.951 168.541 260.824C169.262 258.698 167.821 262.951 168.541 260.824ZM161.742 258.608C162.283 256.979 164.039 256.074 165.66 256.617C167.28 257.16 168.181 258.924 167.641 260.553C167.1 262.181 165.344 263.086 163.723 262.543C162.103 262.001 161.202 260.236 161.742 258.608C162.283 256.979 161.202 260.236 161.742 258.608Z" fill="white"/>
<path d="M82.8256 335.806C82.6282 327.119 84.1582 318.285 85.5401 310.338C87.9586 272.976 98.1751 233.985 92.4005 197.561C104.443 156.497 104.69 107.537 115.104 66.1274C125.567 107.537 125.864 156.497 137.956 197.561C134.057 219.327 136.722 244.942 139.535 268.139C140.325 275.937 143.335 292.373 154.638 292.373C165.94 292.373 173.738 280.725 176.848 268.139C182.03 238.279 182.129 204.372 175.91 175.894C173.985 165.628 175.022 153.437 175.959 141.296C178.131 104.477 189.187 63.9557 183.56 26.4456C180.549 6.2098 173.985 -19.1589 166.779 -37.5685C164.509 -43.4418 163.522 -49.6606 163.769 -55.9781C164.262 -66.244 165.743 -79.6194 166.286 -86.7266L162.387 -78.731C161.942 -70.4393 160.462 -61.654 160.412 -53.3129C160.363 -47.489 161.696 -41.7637 163.867 -36.3346C171.912 -16.1482 176.996 5.12399 180.451 26.5936C186.028 64.8441 175.219 102.947 172.801 141.049C171.912 152.796 170.826 164.986 172.949 176.634C179.167 205.458 178.921 238.97 173.738 268.189C171.517 280.577 161.449 290.349 154.638 290.349C146.099 290.349 143.089 271.94 142.595 268.139C139.979 244.695 136.87 220.659 141.213 197.117C134.303 178.263 133.218 157.83 130.009 138.038C126.209 109.807 122.705 81.1314 115.104 53.5417C111.945 65.4364 108.984 78.5156 107.158 90.6077C101.63 122.294 99.3597 154.474 92.4993 185.814C91.6602 189.565 90.6731 193.563 89.0937 197.067C94.5228 227.47 87.5144 258.416 84.6024 288.721C83.9608 304.613 79.8643 319.864 79.7162 335.855" fill="white"/>
<path d="M57.3562 176.631C61.6995 133.988 48.9164 91.493 47.9786 48.8005C48.3241 25.6528 54 2.65312 60.5149 -19.4581C65.8947 -38.1639 72.2615 -42.8526 68.9547 -64.0755L66.5856 -85.0022L62.884 -89L65.9934 -63.6806C66.7831 -53.2666 66.3389 -47.0972 65.9934 -44.9256C65.0063 -39.5458 60.7617 -30.6125 57.6029 -20.3465C50.5945 3.29474 43.5366 31.8222 45.2641 57.4377C47.5838 96.2311 58.2446 138.233 54.4442 176.039C40.9208 228.208 60.5149 282.893 59.8239 336H62.9333C63.7724 282.893 43.8821 229.639 57.3562 176.73V176.631Z" fill="white"/>
<path d="M194 264H204V299H194" stroke="white" stroke-miterlimit="10" stroke-dasharray="4 4"/>
<path d="M211.612 276.2H213.446V286H210.926V278.496L208.42 280.05V278.188L211.612 276.2ZM216.235 283.424C216.991 283.424 217.607 284.054 217.607 284.81C217.607 285.58 216.991 286.196 216.235 286.196C215.465 286.196 214.849 285.58 214.849 284.81C214.849 284.054 215.465 283.424 216.235 283.424ZM223.904 279.518C226.382 279.518 228.426 280.358 228.426 282.696C228.426 285.37 226.116 286.196 223.638 286.196C220.698 286.196 218.458 284.936 218.458 281.1C218.458 277.348 220.81 275.99 223.638 275.99C225.514 275.99 227.978 276.648 228.23 278.804H225.598C225.402 278.146 224.674 277.838 223.638 277.838C221.762 277.838 221.146 278.916 221.048 280.554C221.65 279.896 222.728 279.518 223.904 279.518ZM223.638 284.362C225.01 284.362 225.85 283.914 225.85 282.696C225.85 281.464 224.856 281.086 223.778 281.086C222.196 281.086 221.328 281.52 221.328 282.696C221.328 283.956 222.196 284.362 223.638 284.362ZM233.323 286V278.538H235.843V286H233.323ZM234.583 277.796C233.813 277.796 233.281 277.362 233.281 276.606C233.281 275.85 233.813 275.416 234.583 275.416C235.353 275.416 235.885 275.85 235.885 276.606C235.885 277.362 235.353 277.796 234.583 277.796ZM242.511 278.328C244.429 278.328 245.633 279.378 245.633 281.058V286H243.113V281.618C243.113 280.792 242.595 280.162 241.461 280.162C240.341 280.162 239.767 280.792 239.767 281.618V286H237.247V278.538H239.767V279.602C240.061 279.168 240.957 278.328 242.511 278.328Z" fill="white"/>
</g>
<defs>
<clipPath id="clip0_11679_4611">
<rect width="210" height="277" fill="white" transform="translate(44 23)"/>
</clipPath>
</defs>
</svg>
