<svg width="285" height="331" viewBox="0 0 285 331" fill="none" xmlns="http://www.w3.org/2000/svg">
<rect width="285" height="331" rx="10" fill="black"/>
<g clip-path="url(#clip0_11679_4558)">
<path d="M187.722 264.219H186.641V298.782H187.722V264.219Z" fill="white"/>
<path d="M191.459 298.375H182.679V299.189H191.459V298.375Z" fill="white"/>
<path d="M191.459 263.766H182.679V264.58H191.459V263.766Z" fill="white"/>
<path d="M247.336 226.71H254.045C252.919 233.948 246.616 236.572 240.582 236.572C234.009 236.572 226.985 233.405 226.985 224.629C226.985 215.853 234.009 212.641 240.582 212.641C246.616 212.641 252.964 215.31 254.045 222.548H247.336C246.616 219.381 244.635 217.255 240.537 217.255C235.855 217.255 233.513 220.15 233.513 224.584C233.513 229.017 235.855 231.913 240.537 231.913C244.635 231.913 246.616 229.786 247.336 226.665V226.71Z" fill="white"/>
<path d="M158 269C167.389 269 175 266.985 175 264.5C175 262.015 167.389 260 158 260C148.611 260 141 262.015 141 264.5C141 266.985 148.611 269 158 269Z" stroke="white" stroke-miterlimit="10" stroke-dasharray="1 0.75"/>
<path d="M165.434 259.555L164.084 259.148L197.808 223.273H220.141V224.721H198.889L165.434 259.555Z" fill="white"/>
<path d="M168.091 260.692C167.461 262.592 165.434 263.588 163.588 263C161.697 262.366 160.707 260.33 161.292 258.476C161.922 256.576 163.949 255.58 165.795 256.168C167.686 256.802 168.676 258.838 168.091 260.692Z" fill="white"/>
<path d="M168.541 260.824C169.262 258.698 168.091 256.391 165.975 255.667C163.859 254.943 161.562 256.119 160.842 258.246C160.121 260.372 161.292 262.679 163.408 263.403C165.524 264.127 167.821 262.951 168.541 260.824C169.262 258.698 167.821 262.951 168.541 260.824ZM161.742 258.608C162.283 256.979 164.039 256.074 165.66 256.617C167.28 257.16 168.181 258.924 167.641 260.553C167.1 262.181 165.344 263.086 163.723 262.543C162.103 262.001 161.202 260.236 161.742 258.608C162.283 256.979 161.202 260.236 161.742 258.608Z" fill="white"/>
<path d="M82.8256 335.806C82.6282 327.119 84.1582 318.285 85.5401 310.338C87.9586 272.976 98.1751 233.985 92.4005 197.561C104.443 156.497 104.69 107.537 115.104 66.1274C125.567 107.537 125.864 156.497 137.956 197.561C134.057 219.327 136.722 244.942 139.535 268.139C140.325 275.937 143.335 292.373 154.638 292.373C165.94 292.373 173.738 280.725 176.848 268.139C182.03 238.279 182.129 204.372 175.91 175.894C173.985 165.628 175.022 153.437 175.959 141.296C178.131 104.477 189.187 63.9557 183.56 26.4456C180.549 6.2098 173.985 -19.1589 166.779 -37.5685C164.509 -43.4418 163.522 -49.6606 163.769 -55.9781C164.262 -66.244 165.743 -79.6194 166.286 -86.7266L162.387 -78.731C161.942 -70.4393 160.462 -61.654 160.412 -53.3129C160.363 -47.489 161.696 -41.7637 163.867 -36.3346C171.912 -16.1482 176.996 5.12399 180.451 26.5936C186.028 64.8441 175.219 102.947 172.801 141.049C171.912 152.796 170.826 164.986 172.949 176.634C179.167 205.458 178.921 238.97 173.738 268.189C171.517 280.577 161.449 290.349 154.638 290.349C146.099 290.349 143.089 271.94 142.595 268.139C139.979 244.695 136.87 220.659 141.213 197.117C134.303 178.263 133.218 157.83 130.009 138.038C126.209 109.807 122.705 81.1314 115.104 53.5417C111.945 65.4364 108.984 78.5156 107.158 90.6077C101.63 122.294 99.3597 154.474 92.4993 185.814C91.6602 189.565 90.6731 193.563 89.0937 197.067C94.5228 227.47 87.5144 258.416 84.6024 288.721C83.9608 304.613 79.8643 319.864 79.7162 335.855" fill="white"/>
<path d="M57.3562 176.631C61.6995 133.988 48.9164 91.493 47.9786 48.8005C48.3241 25.6528 54 2.65312 60.5149 -19.4581C65.8947 -38.1639 72.2615 -42.8526 68.9547 -64.0755L66.5856 -85.0022L62.884 -89L65.9934 -63.6806C66.7831 -53.2666 66.3389 -47.0972 65.9934 -44.9256C65.0063 -39.5458 60.7617 -30.6125 57.6029 -20.3465C50.5945 3.29474 43.5366 31.8222 45.2641 57.4377C47.5838 96.2311 58.2446 138.233 54.4442 176.039C40.9208 228.208 60.5149 282.893 59.8239 336H62.9333C63.7724 282.893 43.8821 229.639 57.3562 176.73V176.631Z" fill="white"/>
<path d="M194 264H204V299H194" stroke="white" stroke-miterlimit="10" stroke-dasharray="4 4"/>
<path d="M218.85 282.43V284.152H217.114V286H214.594V284.152H208.42V282.29L213.782 276.2H217.114V282.43H218.85ZM210.912 282.43H214.594V278.16L210.912 282.43ZM228.079 284.474C229.311 284.474 229.997 283.83 230.207 282.948H232.503C232.111 285.272 230.067 286.196 228.079 286.196C225.895 286.196 223.459 285.146 223.459 282.262C223.459 279.378 225.895 278.328 228.079 278.328C230.067 278.328 232.111 279.266 232.503 281.59H230.207C229.997 280.694 229.311 280.05 228.079 280.05C226.539 280.05 225.853 281.044 225.853 282.262C225.853 283.48 226.539 284.474 228.079 284.474ZM243.83 278.328C245.748 278.328 246.826 279.378 246.826 281.058V286H244.292V281.618C244.292 280.526 243.69 280.162 242.92 280.162C242.15 280.162 241.478 280.568 241.478 281.618V286H238.958V281.618C238.958 280.526 238.356 280.162 237.586 280.162C236.802 280.162 236.144 280.568 236.144 281.618V286H233.624V278.538H236.144V279.56C236.424 279.126 237.222 278.328 238.496 278.328C239.798 278.328 240.722 278.818 241.17 279.658C241.366 279.35 242.374 278.328 243.83 278.328Z" fill="white"/>
</g>
<defs>
<clipPath id="clip0_11679_4558">
<rect width="210" height="277" fill="white" transform="translate(44 23)"/>
</clipPath>
</defs>
</svg>
