<svg width="132" height="129" viewBox="0 0 132 129" fill="none" xmlns="http://www.w3.org/2000/svg">
<rect width="132" height="129" rx="10" fill="white"/>
<path d="M48.4746 112.6C50.7546 112.6 51.5106 113.932 51.5106 115.372C51.5106 116.98 50.5626 118.156 48.2466 118.156H44.9106V121H43.4346V112.6H48.4746ZM48.2466 116.92C49.5426 116.92 49.9866 116.248 49.9866 115.372C49.9866 114.424 49.4706 113.848 48.2226 113.848H44.9106V116.92H48.2466ZM55.893 114.424C57.765 114.424 59.565 115.444 59.565 117.808C59.565 120.172 57.765 121.18 55.893 121.18C54.021 121.18 52.233 120.172 52.233 117.808C52.233 115.444 54.021 114.424 55.893 114.424ZM55.893 120.088C57.609 120.088 58.197 118.924 58.197 117.808C58.197 116.68 57.609 115.516 55.893 115.516C54.177 115.516 53.589 116.68 53.589 117.808C53.589 118.924 54.177 120.088 55.893 120.088ZM60.7638 112.144H62.2398V121H60.7638V112.144ZM67.2882 117.256C69.1002 117.568 70.1202 117.808 70.1202 119.068C70.1202 120.556 68.8842 121.18 66.7482 121.18C64.8042 121.18 63.3162 120.508 63.3162 119.056H64.8402C64.8402 119.752 65.5242 120.064 66.8682 120.064C68.1762 120.064 68.6442 119.74 68.6442 119.26C68.6442 118.552 67.5762 118.54 65.9442 118.24C64.2882 117.928 63.5562 117.544 63.5562 116.404C63.5562 115.12 64.7562 114.424 66.6402 114.424C68.6922 114.424 69.7962 115.24 69.7962 116.428H68.4162C68.4162 116.02 67.9842 115.516 66.6162 115.516C65.3322 115.516 64.8882 115.84 64.8882 116.332C64.8882 116.98 66.1482 117.064 67.2882 117.256ZM75.264 115.732H73.332V118.612C73.332 119.692 73.764 119.992 75.264 119.836V120.988C75.048 121.048 74.724 121.096 74.424 121.096C72.48 121.096 71.856 120.304 71.856 118.612V115.732H70.608V114.604H71.856V112.948H73.332V114.604H75.264V115.732ZM79.7041 114.424C81.7321 114.424 83.3641 115.624 83.1961 118.276H77.4361C77.6041 119.368 78.3841 120.088 79.7281 120.088C80.9761 120.088 81.5041 119.488 81.7201 119.032H83.0161C82.6921 120.34 81.4441 121.18 79.7281 121.18C77.9041 121.18 76.1041 120.136 76.1041 117.808C76.1041 115.516 77.8681 114.424 79.7041 114.424ZM77.4721 117.196H81.8761C81.6841 116.188 80.9881 115.516 79.7041 115.516C78.5161 115.516 77.7001 116.188 77.4721 117.196ZM88.4563 114.424C88.7443 114.424 88.9123 114.436 89.1643 114.472V115.936H89.1163C88.8643 115.864 88.5403 115.816 88.1323 115.816C86.5123 115.816 85.9003 116.752 85.9003 117.748V121H84.4123V114.604H85.9003V115.804C86.1883 115.336 87.0763 114.424 88.4563 114.424Z" fill="black"/>
<g clip-path="url(#clip0_9385_5143)">
<rect width="55" height="95" transform="translate(39 11)" fill="white"/>
<path fill-rule="evenodd" clip-rule="evenodd" d="M93.8436 11C94.4699 17.6836 93.195 24.0815 92.4793 30.7651C91.428 41.2742 88.9677 52.1132 90.2873 62.0507C92.7253 72.6478 92.6806 85.2455 90.6452 96.3483H89.4374C91.4727 85.4874 91.5622 73.0435 89.1242 62.3365C87.7599 53.4983 89.7281 44.5061 90.6228 35.6899C91.3609 29.7757 92.1661 23.8836 92.6582 17.9035" fill="black"/>
<path fill-rule="evenodd" clip-rule="evenodd" d="M55.2607 97.6045L55.4844 96.1974C56.5804 87.5571 57.9671 78.6089 56.2672 69.9686L56.3791 69.6827C56.9383 68.4735 57.2961 67.0664 57.6093 65.7693C60.1814 54.6665 61.0761 43.278 63.0668 32.0433C63.1562 31.4937 63.2681 30.944 63.3575 30.3944C63.872 27.4703 64.3864 24.5242 65.1245 21.6441C65.214 21.2923 66.3323 17.0491 66.4442 16.6094C69.4189 26.8547 70.8057 37.5177 72.3043 48.0269C73.1766 53.8311 73.8923 59.6353 75.2343 65.3076C75.5251 66.7367 75.9277 68.3416 76.5092 69.7047L76.6882 69.9905C74.9883 78.7188 76.1961 87.667 77.225 96.3953H76.0171C75.6369 93.5152 75.3014 90.679 75.0554 87.8869C74.4962 81.555 74.362 75.6848 75.3909 70.1664C70.6715 54.9304 70.5149 36.7043 66.4442 21.3143C65.6613 24.2384 64.9008 28.0859 64.2746 31.8454C62.1497 42.9922 61.4787 55.458 58.5934 66.5168C58.0566 68.6054 57.7211 70.7381 57.9671 72.8707C58.8171 80.2359 57.7211 88.2826 56.7146 95.8677" fill="black"/>
<path fill-rule="evenodd" clip-rule="evenodd" d="M39.0673 11.0625C38.4634 23.5064 41.7961 37.0495 42.6237 49.1856C42.9815 53.6707 43.4065 58.2437 42.6237 62.0692C40.0738 73.2379 40.2304 86.6492 42.6237 98.1477L44.0328 99.4228C41.7066 88.2102 41.2145 73.5237 43.7867 62.311C45.1511 53.3849 43.1157 44.2388 42.2211 35.3127C41.5053 29.5085 40.7225 23.7262 40.2304 17.8781" fill="black"/>
<path d="M89.8621 99.6476C88.5201 103.319 85.165 105.474 82.1903 105.474C73.2659 105.474 74.8092 81.7073 74.8092 78.2335C74.8092 75.4414 75.2565 71.7258 75.5026 70.0769C74.7645 68.8017 73.6909 63.2173 73.1317 59.7436C72.6844 56.9514 70.224 41.0118 69.0386 33.3828H92.6803C92.4343 34.7239 91.7856 38.8353 91.1817 44.5515C90.4436 51.6089 90.9804 57.2372 92.4343 72.4293L92.479 72.913C93.9552 88.4569 91.562 95.0526 89.8844 99.6256L89.8621 99.6476Z" fill="#D3D3D5" stroke="black" stroke-width="0.5" stroke-miterlimit="10"/>
<path d="M77.001 101.406H89.0343" stroke="black" stroke-width="0.5" stroke-miterlimit="10"/>
</g>
<defs>
<clipPath id="clip0_9385_5143">
<rect width="55" height="95" fill="white" transform="translate(39 11)"/>
</clipPath>
</defs>
</svg>
