<svg width="217" height="195" viewBox="0 0 217 195" fill="none" xmlns="http://www.w3.org/2000/svg">
<rect width="217" height="195" rx="10" fill="#D9D9D9"/>
<g clip-path="url(#clip0_4141_610)">
<path fill-rule="evenodd" clip-rule="evenodd" d="M144.792 28C145.623 36.7943 143.931 45.2125 142.981 54.0067C141.586 67.8345 138.32 82.0963 140.072 95.172C143.308 109.115 143.248 125.692 140.547 140.3H138.944C141.645 126.01 141.764 109.636 138.528 95.548C136.717 83.9188 139.33 72.087 140.517 60.4867C141.497 52.7049 142.566 44.9521 143.219 37.0835" fill="#1D1D1B"/>
<path fill-rule="evenodd" clip-rule="evenodd" d="M93.5823 141.95L93.8792 140.098C95.3339 128.729 97.1745 116.955 94.9183 105.586L95.0667 105.21C95.8089 103.619 96.2839 101.768 96.6995 100.061C100.113 85.4522 101.301 70.4672 103.943 55.6848C104.062 54.9615 104.21 54.2383 104.329 53.5151C105.012 49.6676 105.695 45.7912 106.674 42.0016C106.793 41.5387 108.277 35.9555 108.426 35.377C112.374 48.8576 114.215 62.8879 116.204 76.7158C117.362 84.3529 118.312 91.99 120.093 99.4536C120.479 101.334 121.013 103.446 121.785 105.239L122.022 105.615C119.766 117.1 121.369 128.874 122.735 140.358H121.132C120.627 136.569 120.182 132.837 119.855 129.163C119.113 120.832 118.935 113.108 120.301 105.847C114.037 85.7993 113.829 61.8176 108.426 41.5677C107.387 45.4151 106.377 50.4776 105.546 55.4244C102.726 70.0911 101.835 86.4936 98.0057 101.045C97.2932 103.793 96.8479 106.599 97.1745 109.405C98.3026 119.096 96.8479 129.684 95.512 139.664" fill="#1D1D1B"/>
<path fill-rule="evenodd" clip-rule="evenodd" d="M72.0891 28.0859C71.2875 44.4595 75.7109 62.2794 76.8093 78.2479C77.2843 84.1493 77.8483 90.1665 76.8093 95.2C73.425 109.896 73.6328 127.542 76.8093 142.672L78.6795 144.35C75.5921 129.596 74.939 110.272 78.353 95.5182C80.1639 83.7733 77.4624 71.739 76.2749 59.9941C75.3249 52.3569 74.2859 44.7487 73.6328 37.0538" fill="#1D1D1B"/>
<path d="M139.508 144.64C137.727 149.471 133.274 152.306 129.325 152.306C117.48 152.306 119.529 121.034 119.529 116.463C119.529 112.789 120.122 107.901 120.449 105.731C119.469 104.053 118.044 96.7052 117.302 92.1345C116.708 88.4606 113.443 67.4874 111.869 57.4492H143.248C142.922 59.2139 142.061 64.6235 141.259 72.1449C140.28 81.4309 140.992 88.8366 142.922 108.826L142.981 109.463C144.941 129.915 141.764 138.594 139.538 144.611L139.508 144.64Z" fill="#D3D3D5" stroke="#1D1D1B" stroke-width="0.5" stroke-miterlimit="10"/>
<path d="M122.438 146.953H138.41" stroke="#1D1D1B" stroke-width="0.5" stroke-miterlimit="10"/>
</g>
<path d="M85.1328 170.8C88.1728 170.8 89.1808 172.576 89.1808 174.496C89.1808 176.64 87.9168 178.208 84.8288 178.208H80.3808V182H78.4128V170.8H85.1328ZM84.8288 176.56C86.5568 176.56 87.1488 175.664 87.1488 174.496C87.1488 173.232 86.4608 172.464 84.7968 172.464H80.3808V176.56H84.8288ZM95.0241 173.232C97.5201 173.232 99.9201 174.592 99.9201 177.744C99.9201 180.896 97.5201 182.24 95.0241 182.24C92.5281 182.24 90.1441 180.896 90.1441 177.744C90.1441 174.592 92.5281 173.232 95.0241 173.232ZM95.0241 180.784C97.3121 180.784 98.0961 179.232 98.0961 177.744C98.0961 176.24 97.3121 174.688 95.0241 174.688C92.7361 174.688 91.9521 176.24 91.9521 177.744C91.9521 179.232 92.7361 180.784 95.0241 180.784ZM101.518 170.192H103.486V182H101.518V170.192ZM110.218 177.008C112.634 177.424 113.994 177.744 113.994 179.424C113.994 181.408 112.346 182.24 109.498 182.24C106.906 182.24 104.922 181.344 104.922 179.408H106.954C106.954 180.336 107.866 180.752 109.658 180.752C111.402 180.752 112.026 180.32 112.026 179.68C112.026 178.736 110.602 178.72 108.426 178.32C106.218 177.904 105.242 177.392 105.242 175.872C105.242 174.16 106.842 173.232 109.354 173.232C112.09 173.232 113.562 174.32 113.562 175.904H111.722C111.722 175.36 111.146 174.688 109.322 174.688C107.61 174.688 107.018 175.12 107.018 175.776C107.018 176.64 108.698 176.752 110.218 177.008ZM120.852 174.976H118.276V178.816C118.276 180.256 118.852 180.656 120.852 180.448V181.984C120.564 182.064 120.132 182.128 119.732 182.128C117.14 182.128 116.308 181.072 116.308 178.816V174.976H114.644V173.472H116.308V171.264H118.276V173.472H120.852V174.976ZM126.772 173.232C129.476 173.232 131.652 174.832 131.428 178.368H123.748C123.972 179.824 125.012 180.784 126.804 180.784C128.468 180.784 129.172 179.984 129.46 179.376H131.188C130.756 181.12 129.092 182.24 126.804 182.24C124.372 182.24 121.972 180.848 121.972 177.744C121.972 174.688 124.324 173.232 126.772 173.232ZM123.796 176.928H129.668C129.412 175.584 128.484 174.688 126.772 174.688C125.188 174.688 124.1 175.584 123.796 176.928ZM138.442 173.232C138.826 173.232 139.05 173.248 139.386 173.296V175.248H139.322C138.986 175.152 138.554 175.088 138.01 175.088C135.85 175.088 135.034 176.336 135.034 177.664V182H133.05V173.472H135.034V175.072C135.418 174.448 136.602 173.232 138.442 173.232Z" fill="black"/>
<defs>
<clipPath id="clip0_4141_610">
<rect width="73" height="125" fill="white" transform="translate(72 28)"/>
</clipPath>
</defs>
</svg>
