<svg width="132" height="129" viewBox="0 0 132 129" fill="none" xmlns="http://www.w3.org/2000/svg">
<rect width="132" height="129" rx="10" fill="white"/>
<path d="M5.58006 112.6C8.29206 112.6 10.5361 113.536 10.5361 116.8C10.5361 120.064 8.29206 121 5.58006 121H2.12406V112.6H5.58006ZM5.40006 119.752C7.69206 119.752 9.02406 118.972 9.02406 116.8C9.02406 114.64 7.69206 113.848 5.40006 113.848H3.60006V119.752H5.40006ZM11.8595 121V114.604H13.3355V121H11.8595ZM12.5915 113.716C12.1355 113.716 11.8115 113.452 11.8115 112.996C11.8115 112.54 12.1355 112.276 12.5915 112.276C13.0595 112.276 13.3835 112.54 13.3835 112.996C13.3835 113.452 13.0595 113.716 12.5915 113.716ZM18.3839 117.256C20.1959 117.568 21.2159 117.808 21.2159 119.068C21.2159 120.556 19.9799 121.18 17.8439 121.18C15.8999 121.18 14.4119 120.508 14.4119 119.056H15.9359C15.9359 119.752 16.6199 120.064 17.9639 120.064C19.2719 120.064 19.7399 119.74 19.7399 119.26C19.7399 118.552 18.6719 118.54 17.0399 118.24C15.3839 117.928 14.6519 117.544 14.6519 116.404C14.6519 115.12 15.8519 114.424 17.7359 114.424C19.7879 114.424 20.8919 115.24 20.8919 116.428H19.5119C19.5119 116.02 19.0799 115.516 17.7119 115.516C16.4279 115.516 15.9839 115.84 15.9839 116.332C15.9839 116.98 17.2439 117.064 18.3839 117.256ZM26.3598 115.732H24.4277V118.612C24.4277 119.692 24.8598 119.992 26.3598 119.836V120.988C26.1438 121.048 25.8198 121.096 25.5198 121.096C23.5758 121.096 22.9518 120.304 22.9518 118.612V115.732H21.7038V114.604H22.9518V112.948H24.4277V114.604H26.3598V115.732ZM30.665 114.424C32.429 114.424 33.929 115.012 33.929 116.848V121H32.453V120.172C32.141 120.532 31.373 121.18 29.873 121.18C28.337 121.18 27.317 120.544 27.317 119.32C27.317 118 28.037 116.956 32.453 117.244V116.848C32.453 115.96 31.997 115.516 30.665 115.516C29.525 115.516 29.057 115.888 28.949 116.428H27.569C27.761 115.084 29.009 114.424 30.665 114.424ZM32.453 119.2V118.132C29.789 118 28.829 118.228 28.829 119.224C28.829 119.872 29.333 120.196 30.185 120.196C31.313 120.196 32.057 119.776 32.453 119.2ZM35.6134 112.144H37.0894V121H35.6134V112.144ZM41.8858 114.424C43.9138 114.424 45.5458 115.624 45.3778 118.276H39.6178C39.7858 119.368 40.5658 120.088 41.9098 120.088C43.1578 120.088 43.6858 119.488 43.9018 119.032H45.1978C44.8738 120.34 43.6258 121.18 41.9098 121.18C40.0858 121.18 38.2858 120.136 38.2858 117.808C38.2858 115.516 40.0498 114.424 41.8858 114.424ZM39.6538 117.196H44.0578C43.8658 116.188 43.1698 115.516 41.8858 115.516C40.6978 115.516 39.8818 116.188 39.6538 117.196ZM49.9659 117.256C51.7779 117.568 52.7979 117.808 52.7979 119.068C52.7979 120.556 51.5619 121.18 49.4259 121.18C47.4819 121.18 45.9939 120.508 45.9939 119.056H47.5179C47.5179 119.752 48.2019 120.064 49.5459 120.064C50.8539 120.064 51.3219 119.74 51.3219 119.26C51.3219 118.552 50.2539 118.54 48.6219 118.24C46.9659 117.928 46.2339 117.544 46.2339 116.404C46.2339 115.12 47.4339 114.424 49.3179 114.424C51.3699 114.424 52.4739 115.24 52.4739 116.428H51.0939C51.0939 116.02 50.6619 115.516 49.2939 115.516C48.0099 115.516 47.5659 115.84 47.5659 116.332C47.5659 116.98 48.8259 117.064 49.9659 117.256ZM59.4366 119.752H65.3046V121H57.2406V119.98L63.0006 113.848H57.4686V112.6H65.1846V113.632L59.4366 119.752ZM71.7782 114.604H73.2542V121H71.7782V120.016C71.4782 120.436 70.6622 121.18 69.3302 121.18C67.6622 121.18 66.7502 120.232 66.7502 118.744V114.604H68.2262V118.3C68.2262 119.38 68.8142 119.98 69.9782 119.98C71.1422 119.98 71.7782 119.308 71.7782 118.3V114.604ZM80.1258 114.604H81.6018V120.388C81.6018 122.86 79.7178 123.232 77.8818 123.232C75.8778 123.232 74.6778 122.524 74.5458 121.312H75.9138C76.0098 121.696 76.4898 122.116 77.8818 122.116C79.6698 122.116 80.1258 121.54 80.1258 120.388V119.68C79.6578 120.244 78.9018 120.604 77.7738 120.604C75.9138 120.604 74.4498 119.68 74.4498 117.58C74.4498 115.468 75.9138 114.424 77.7738 114.424C78.9018 114.424 79.6578 114.844 80.1258 115.468V114.604ZM78.0618 119.644C79.4418 119.644 80.3538 118.9 80.3538 117.58C80.3538 116.248 79.4658 115.516 78.0618 115.516C76.6698 115.516 75.8178 116.224 75.8178 117.58C75.8178 118.924 76.6818 119.644 78.0618 119.644ZM86.6573 117.256C88.4693 117.568 89.4893 117.808 89.4893 119.068C89.4893 120.556 88.2533 121.18 86.1173 121.18C84.1733 121.18 82.6853 120.508 82.6853 119.056H84.2093C84.2093 119.752 84.8933 120.064 86.2373 120.064C87.5453 120.064 88.0133 119.74 88.0133 119.26C88.0133 118.552 86.9453 118.54 85.3133 118.24C83.6573 117.928 82.9253 117.544 82.9253 116.404C82.9253 115.12 84.1253 114.424 86.0093 114.424C88.0613 114.424 89.1653 115.24 89.1653 116.428H87.7853C87.7853 116.02 87.3533 115.516 85.9853 115.516C84.7013 115.516 84.2573 115.84 84.2573 116.332C84.2573 116.98 85.5173 117.064 86.6573 117.256ZM95.4643 114.604H97.0123L93.1723 123.004H91.7083L92.7043 120.772L89.7283 114.604H91.2763L93.4003 119.224L95.4643 114.604ZM101.235 117.256C103.047 117.568 104.067 117.808 104.067 119.068C104.067 120.556 102.831 121.18 100.695 121.18C98.7514 121.18 97.2634 120.508 97.2634 119.056H98.7874C98.7874 119.752 99.4714 120.064 100.815 120.064C102.123 120.064 102.591 119.74 102.591 119.26C102.591 118.552 101.523 118.54 99.8914 118.24C98.2354 117.928 97.5034 117.544 97.5034 116.404C97.5034 115.12 98.7034 114.424 100.587 114.424C102.639 114.424 103.743 115.24 103.743 116.428H102.363C102.363 116.02 101.931 115.516 100.563 115.516C99.2794 115.516 98.8354 115.84 98.8354 116.332C98.8354 116.98 100.095 117.064 101.235 117.256ZM109.211 115.732H107.279V118.612C107.279 119.692 107.711 119.992 109.211 119.836V120.988C108.995 121.048 108.671 121.096 108.371 121.096C106.427 121.096 105.803 120.304 105.803 118.612V115.732H104.555V114.604H105.803V112.948H107.279V114.604H109.211V115.732ZM113.651 114.424C115.679 114.424 117.311 115.624 117.143 118.276H111.383C111.551 119.368 112.331 120.088 113.675 120.088C114.923 120.088 115.451 119.488 115.667 119.032H116.963C116.639 120.34 115.391 121.18 113.675 121.18C111.851 121.18 110.051 120.136 110.051 117.808C110.051 115.516 111.815 114.424 113.651 114.424ZM111.419 117.196H115.823C115.631 116.188 114.935 115.516 113.651 115.516C112.463 115.516 111.647 116.188 111.419 117.196ZM126.52 114.424C128.188 114.424 128.992 115.372 128.992 116.86V121H127.504V117.304C127.504 116.224 127.108 115.624 125.98 115.624C124.864 115.624 124.408 116.344 124.408 117.304V121H122.932V117.304C122.932 116.224 122.524 115.624 121.408 115.624C120.292 115.624 119.836 116.344 119.836 117.304V121H118.36V114.604H119.836V115.54C120.076 115.12 120.688 114.424 121.936 114.424C123.04 114.424 123.76 114.832 124.12 115.54C124.444 115.108 125.236 114.424 126.52 114.424Z" fill="black"/>
<g clip-path="url(#clip0_9385_5153)">
<rect width="54" height="96" transform="translate(39 11)" fill="white"/>
<path fill-rule="evenodd" clip-rule="evenodd" d="M92.8465 11C93.4614 17.6722 92.2096 24.059 91.5069 30.7311C90.4748 41.2222 88.0592 52.0425 89.3548 61.963C91.7485 72.5418 91.7046 85.118 89.7062 96.2016H88.5203C90.5187 85.3594 90.6066 72.9369 88.2129 62.2483C86.8733 53.4252 88.8058 44.4486 89.6842 35.6475C90.4089 29.7435 91.1995 23.8615 91.6826 17.8916" fill="black"/>
<path fill-rule="evenodd" clip-rule="evenodd" d="M54.9648 97.4497L55.1844 96.0451C56.2605 87.4195 57.622 78.4868 55.953 69.8612L56.0629 69.5759C56.6119 68.3688 56.9632 66.9641 57.2707 65.6692C59.7961 54.5855 60.6745 43.2165 62.6289 32.0012C62.7168 31.4525 62.8266 30.9038 62.9144 30.3551C63.4195 27.436 63.9246 24.495 64.6493 21.6198C64.7371 21.2686 65.8351 17.0327 65.9449 16.5938C68.8656 26.8215 70.2271 37.4662 71.6985 47.9573C72.5549 53.7515 73.2576 59.5457 74.5753 65.2083C74.8607 66.6349 75.256 68.2371 75.827 69.5979L76.0027 69.8832C74.3337 78.5965 75.5195 87.5293 76.5297 96.2426H75.3439C74.9705 93.3674 74.6411 90.5361 74.3996 87.7488C73.8506 81.4278 73.7188 75.5677 74.729 70.0588C70.0954 54.8489 69.9417 36.6541 65.9449 21.2906C65.1763 24.2097 64.4297 28.0505 63.8148 31.8036C61.7286 42.9312 61.0698 55.3756 58.2369 66.4154C57.7099 68.5005 57.3805 70.6294 57.622 72.7584C58.4565 80.1109 57.3805 88.1438 56.3923 95.7158" fill="black"/>
<path fill-rule="evenodd" clip-rule="evenodd" d="M39.066 11.0625C38.4731 23.485 41.7451 37.0049 42.5577 49.1201C42.909 53.5975 43.3263 58.1626 42.5577 61.9816C40.0542 73.1311 40.2079 86.5193 42.5577 97.998L43.9412 99.271C41.6573 88.0776 41.1742 73.4164 43.6996 62.223C45.0392 53.3122 43.0408 44.1818 42.1624 35.271C41.4597 29.4768 40.6911 23.7045 40.2079 17.8663" fill="black"/>
<path d="M89.0689 99.4946C87.7513 103.16 84.4573 105.311 81.5366 105.311C72.7745 105.311 74.2897 81.5852 74.2897 78.1174C74.2897 75.33 74.7289 71.6208 74.9705 69.9748C74.2458 68.7018 73.1917 63.127 72.6427 59.6592C72.2035 56.8719 69.7879 40.9597 68.624 33.3438H91.8359C91.5943 34.6826 90.9575 38.7868 90.3646 44.4933C89.6399 51.5385 90.1669 57.1572 91.5943 72.3232L91.6383 72.806C93.0876 88.3232 90.7379 94.9075 89.0909 99.4727L89.0689 99.4946Z" fill="#D3D3D5" stroke="black" stroke-width="0.5" stroke-miterlimit="10"/>
<path d="M85.0286 43.5938H78.6821V46.2055H85.0286V43.5938Z" stroke="black" stroke-width="0.29" stroke-miterlimit="10"/>
<path d="M76.9033 101.25H88.7398" stroke="black" stroke-width="0.5" stroke-miterlimit="10"/>
<path d="M83.8864 44.7969H79.8237V106.668H83.8864V44.7969Z" fill="white" stroke="black" stroke-width="0.29" stroke-miterlimit="10"/>
</g>
<defs>
<clipPath id="clip0_9385_5153">
<rect width="54" height="96" fill="white" transform="translate(39 11)"/>
</clipPath>
</defs>
</svg>
