<svg width="132" height="129" viewBox="0 0 132 129" fill="none" xmlns="http://www.w3.org/2000/svg">
<rect width="132" height="129" rx="10" fill="white"/>
<path d="M8.51756 111.6C11.2296 111.6 13.4736 112.536 13.4736 115.8C13.4736 119.064 11.2296 120 8.51756 120H5.06156V111.6H8.51756ZM8.33756 118.752C10.6296 118.752 11.9616 117.972 11.9616 115.8C11.9616 113.64 10.6296 112.848 8.33756 112.848H6.53756V118.752H8.33756ZM14.797 120V113.604H16.273V120H14.797ZM15.529 112.716C15.073 112.716 14.749 112.452 14.749 111.996C14.749 111.54 15.073 111.276 15.529 111.276C15.997 111.276 16.321 111.54 16.321 111.996C16.321 112.452 15.997 112.716 15.529 112.716ZM21.3214 116.256C23.1334 116.568 24.1534 116.808 24.1534 118.068C24.1534 119.556 22.9174 120.18 20.7814 120.18C18.8374 120.18 17.3494 119.508 17.3494 118.056H18.8734C18.8734 118.752 19.5574 119.064 20.9014 119.064C22.2094 119.064 22.6774 118.74 22.6774 118.26C22.6774 117.552 21.6094 117.54 19.9774 117.24C18.3214 116.928 17.5894 116.544 17.5894 115.404C17.5894 114.12 18.7894 113.424 20.6734 113.424C22.7254 113.424 23.8294 114.24 23.8294 115.428H22.4494C22.4494 115.02 22.0174 114.516 20.6494 114.516C19.3654 114.516 18.9214 114.84 18.9214 115.332C18.9214 115.98 20.1814 116.064 21.3214 116.256ZM29.2973 114.732H27.3652V117.612C27.3652 118.692 27.7973 118.992 29.2973 118.836V119.988C29.0813 120.048 28.7573 120.096 28.4573 120.096C26.5133 120.096 25.8893 119.304 25.8893 117.612V114.732H24.6413V113.604H25.8893V111.948H27.3652V113.604H29.2973V114.732ZM33.6025 113.424C35.3665 113.424 36.8665 114.012 36.8665 115.848V120H35.3905V119.172C35.0785 119.532 34.3105 120.18 32.8105 120.18C31.2745 120.18 30.2545 119.544 30.2545 118.32C30.2545 117 30.9745 115.956 35.3905 116.244V115.848C35.3905 114.96 34.9345 114.516 33.6025 114.516C32.4625 114.516 31.9945 114.888 31.8865 115.428H30.5065C30.6985 114.084 31.9465 113.424 33.6025 113.424ZM35.3905 118.2V117.132C32.7265 117 31.7665 117.228 31.7665 118.224C31.7665 118.872 32.2705 119.196 33.1225 119.196C34.2505 119.196 34.9945 118.776 35.3905 118.2ZM38.5509 111.144H40.0269V120H38.5509V111.144ZM44.8233 113.424C46.8513 113.424 48.4833 114.624 48.3153 117.276H42.5553C42.7233 118.368 43.5033 119.088 44.8473 119.088C46.0953 119.088 46.6233 118.488 46.8393 118.032H48.1353C47.8113 119.34 46.5633 120.18 44.8473 120.18C43.0233 120.18 41.2233 119.136 41.2233 116.808C41.2233 114.516 42.9873 113.424 44.8233 113.424ZM42.5913 116.196H46.9953C46.8033 115.188 46.1073 114.516 44.8233 114.516C43.6353 114.516 42.8193 115.188 42.5913 116.196ZM60.2719 120L59.4199 118.128H54.6079L53.7679 120H52.1719L56.0599 111.6H57.9799L61.8679 120H60.2719ZM55.1719 116.88H58.8679L57.0199 112.764L55.1719 116.88ZM66.5313 113.424C68.4033 113.424 69.8553 114.636 69.8553 116.808C69.8553 118.968 68.4033 120.18 66.5313 120.18C65.4513 120.18 64.6833 119.772 64.1793 119.16V120H62.7033V111.6H64.1793V114.444C64.6833 113.832 65.4513 113.424 66.5313 113.424ZM66.2433 119.088C67.7793 119.088 68.4873 118.152 68.4873 116.808C68.4873 115.452 67.7913 114.516 66.2433 114.516C64.6953 114.516 63.9633 115.476 63.9633 116.808C63.9633 118.128 64.7073 119.088 66.2433 119.088ZM76.2428 111.6H77.7188V120H76.2428V119.16C75.7388 119.772 74.9708 120.18 73.9028 120.18C72.0308 120.18 70.5788 118.968 70.5788 116.808C70.5788 114.636 72.0308 113.424 73.9028 113.424C74.9708 113.424 75.7388 113.832 76.2428 114.444V111.6ZM74.1908 119.088C75.7148 119.088 76.4708 118.128 76.4708 116.808C76.4708 115.476 75.7388 114.516 74.1908 114.516C72.6308 114.516 71.9468 115.452 71.9468 116.808C71.9468 118.152 72.6548 119.088 74.1908 119.088ZM79.4025 120V113.604H80.8785V120H79.4025ZM80.1345 112.716C79.6785 112.716 79.3545 112.452 79.3545 111.996C79.3545 111.54 79.6785 111.276 80.1345 111.276C80.6025 111.276 80.9265 111.54 80.9265 111.996C80.9265 112.452 80.6025 112.716 80.1345 112.716ZM85.7588 119.088C87.0548 119.088 87.7028 118.332 87.8828 117.612H89.2628C88.9508 119.316 87.4868 120.18 85.7588 120.18C83.8868 120.18 82.0748 119.172 82.0748 116.808C82.0748 114.444 83.8868 113.424 85.7588 113.424C87.4868 113.424 88.9508 114.288 89.2628 115.992H87.8828C87.7028 115.272 87.0548 114.516 85.7588 114.516C84.0428 114.516 83.4308 115.68 83.4308 116.808C83.4308 117.924 84.0428 119.088 85.7588 119.088ZM94.389 113.424C96.057 113.424 96.969 114.372 96.969 115.86V120H95.493V116.304C95.493 115.224 94.905 114.624 93.741 114.624C92.577 114.624 91.941 115.296 91.941 116.304V120H90.465V111.6H91.941V114.588C92.241 114.168 93.057 113.424 94.389 113.424ZM102.586 114.732H100.654V117.612C100.654 118.692 101.086 118.992 102.586 118.836V119.988C102.37 120.048 102.046 120.096 101.746 120.096C99.8023 120.096 99.1783 119.304 99.1783 117.612V114.732H97.9303V113.604H99.1783V111.948H100.654V113.604H102.586V114.732ZM109.052 113.604H110.528V120H109.052V119.016C108.752 119.436 107.936 120.18 106.604 120.18C104.936 120.18 104.024 119.232 104.024 117.744V113.604H105.5V117.3C105.5 118.38 106.088 118.98 107.252 118.98C108.416 118.98 109.052 118.308 109.052 117.3V113.604ZM116.127 113.424C117.795 113.424 118.707 114.372 118.707 115.86V120H117.231V116.304C117.231 115.224 116.643 114.624 115.479 114.624C114.315 114.624 113.679 115.296 113.679 116.304V120H112.203V113.604H113.679V114.588C113.979 114.168 114.795 113.424 116.127 113.424ZM125.579 113.604H127.055V119.388C127.055 121.86 125.171 122.232 123.335 122.232C121.331 122.232 120.131 121.524 119.999 120.312H121.367C121.463 120.696 121.943 121.116 123.335 121.116C125.123 121.116 125.579 120.54 125.579 119.388V118.68C125.111 119.244 124.355 119.604 123.227 119.604C121.367 119.604 119.903 118.68 119.903 116.58C119.903 114.468 121.367 113.424 123.227 113.424C124.355 113.424 125.111 113.844 125.579 114.468V113.604ZM123.515 118.644C124.895 118.644 125.807 117.9 125.807 116.58C125.807 115.248 124.919 114.516 123.515 114.516C122.123 114.516 121.271 115.224 121.271 116.58C121.271 117.924 122.135 118.644 123.515 118.644Z" fill="black"/>
<path fill-rule="evenodd" clip-rule="evenodd" d="M55.9519 21C56.426 26.1542 55.4501 31.0604 54.9064 36.2009C54.1117 44.2768 52.2157 52.6283 53.2334 60.2769C55.0876 68.4355 55.0736 78.1238 53.5122 86.6545H52.5921C54.1396 78.303 54.2093 68.7249 52.3551 60.4975C51.3095 53.7032 52.8152 46.785 53.5122 40.0045C54.0838 35.4567 54.6972 30.9226 55.0736 26.3334" fill="black"/>
<path fill-rule="evenodd" clip-rule="evenodd" d="M26.4385 87.6025L26.6058 86.5276C27.4422 79.8712 28.5018 72.9943 27.2052 66.3516L27.3028 66.1311C27.735 65.194 27.9999 64.119 28.2369 63.1268C30.2026 54.5823 30.8858 45.8311 32.4054 37.1764C32.4751 36.7492 32.5587 36.322 32.6284 35.8948C33.0188 33.6484 33.4231 31.3745 33.9807 29.1694C34.0504 28.9076 34.9148 25.6414 34.9984 25.2969C37.2848 33.166 38.3304 41.3935 39.4736 49.4556C40.1288 53.907 40.6865 58.3722 41.7181 62.7409C41.9412 63.8434 42.2479 65.07 42.694 66.1173L42.8334 66.3378C41.5369 73.0632 42.457 79.9401 43.2517 86.6378H42.3176C42.0388 84.419 41.7739 82.2416 41.5787 80.1054C41.1465 75.2406 41.0629 70.7203 41.8436 66.4757C38.2328 54.7615 38.1213 40.732 34.9984 28.9076C34.399 31.154 33.8274 34.117 33.3394 37.0111C31.7222 45.5831 31.2064 55.1749 28.9897 63.678C28.5715 65.2767 28.3206 66.9304 28.5018 68.5704C29.157 74.2346 28.3066 80.4224 27.5398 86.2657" fill="black"/>
<path fill-rule="evenodd" clip-rule="evenodd" d="M14.0583 21.0547C13.5843 30.6327 16.1356 41.0377 16.763 50.3815C17.0418 53.8406 17.3624 57.3549 16.763 60.2903C14.8112 68.8899 14.9366 79.1983 16.763 88.046L17.8364 89.0383C16.0519 80.4111 15.6895 69.1242 17.6413 60.497C18.6729 53.6201 17.1254 46.6054 16.4562 39.7285C15.8986 35.2633 15.2991 30.8119 14.9366 26.3192" fill="black"/>
<path d="M52.8851 89.1727C51.8534 91.9841 49.2882 93.6516 47.0158 93.6516C39.1669 93.2657 41.4393 70.2784 41.8854 66.4196C39.599 59.2257 38.8183 48.807 36.9502 38.1953H55.0181C53.3452 47.7872 53.2058 53.2584 54.8369 68.225C56.0637 79.8702 54.1816 85.81 52.8851 89.1451V89.1727Z" fill="#D3D3D5" stroke="black" stroke-width="0.5" stroke-miterlimit="10"/>
<path d="M43.1401 90.5391H52.3553" stroke="black" stroke-width="0.5" stroke-miterlimit="10"/>
<path d="M55.6731 79.5H40.6444C40.5747 79.5 40.5049 79.5965 40.4492 79.7756L39.8358 82.1598C39.78 82.3941 39.78 82.7111 39.8358 82.9453L40.4631 85.3295C40.505 85.4949 40.5747 85.5914 40.6444 85.5914H55.6731C55.7428 85.5914 55.8125 85.4949 55.8683 85.3157L56.4817 82.9316C56.5374 82.6973 56.5374 82.3803 56.4817 82.146L55.8543 79.7618C55.8125 79.5965 55.7428 79.5 55.6731 79.5Z" fill="white" stroke="black" stroke-width="0.53" stroke-miterlimit="10"/>
<path fill-rule="evenodd" clip-rule="evenodd" d="M117.297 21C117.771 26.1542 116.795 31.0604 116.251 36.2009C115.456 44.2768 113.56 52.6283 114.578 60.2769C116.432 68.4355 116.418 78.1238 114.857 86.6545H113.937C115.484 78.303 115.554 68.7249 113.7 60.4975C112.654 53.7032 114.16 46.785 114.857 40.0045C115.429 35.4567 116.042 30.9226 116.418 26.3334" fill="black"/>
<path fill-rule="evenodd" clip-rule="evenodd" d="M87.7827 87.6025L87.95 86.5276C88.7865 79.8712 89.846 72.9943 88.5495 66.3516L88.6471 66.1311C89.0792 65.194 89.3441 64.119 89.5811 63.1268C91.5469 54.5823 92.23 45.8311 93.7496 37.1764C93.8193 36.7492 93.9029 36.322 93.9726 35.8948C94.363 33.6484 94.7673 31.3745 95.325 29.1694C95.3947 28.9076 96.259 25.6414 96.3427 25.2969C98.629 33.166 99.6746 41.3935 100.818 49.4556C101.473 53.907 102.031 58.3722 103.062 62.7409C103.285 63.8434 103.592 65.07 104.038 66.1173L104.178 66.3378C102.881 73.0632 103.801 79.9401 104.596 86.6378H103.662C103.383 84.419 103.118 82.2416 102.923 80.1054C102.491 75.2406 102.407 70.7203 103.188 66.4757C99.577 54.7615 99.4655 40.732 96.3427 28.9076C95.7432 31.154 95.1716 34.117 94.6837 37.0111C93.0665 45.5831 92.5506 55.1749 90.334 63.678C89.9157 65.2767 89.6648 66.9304 89.846 68.5704C90.5013 74.2346 89.6509 80.4224 88.8841 86.2657" fill="black"/>
<path fill-rule="evenodd" clip-rule="evenodd" d="M75.4031 21.0547C74.9291 30.6327 77.4803 41.0377 78.1077 50.3815C78.3865 53.8406 78.7072 57.3549 78.1077 60.2903C76.1559 68.8899 76.2814 79.1983 78.1077 88.046L79.1812 89.0383C77.3967 80.4111 77.0342 69.1242 78.986 60.497C80.0176 53.6201 78.4702 46.6054 77.801 39.7285C77.2433 35.2633 76.6439 30.8119 76.2814 26.3192" fill="black"/>
<path d="M114.23 89.1727C113.198 91.9841 110.633 93.6516 108.361 93.6516C100.512 93.2657 102.784 70.2784 103.23 66.4196C100.944 59.2257 100.163 48.807 98.2949 38.1953H116.363C114.69 47.7872 114.55 53.2584 116.182 68.225C117.408 79.8702 115.526 85.81 114.23 89.1451V89.1727Z" fill="#D3D3D5" stroke="black" stroke-width="0.5" stroke-miterlimit="10"/>
<path d="M104.484 90.5391H113.7" stroke="black" stroke-width="0.5" stroke-miterlimit="10"/>
<path d="M117.408 76.0469H101.626C101.543 76.0469 101.473 76.0882 101.431 76.1433L100.79 76.984C100.72 77.0667 100.734 77.177 100.79 77.2596L101.445 78.1003C101.445 78.1003 101.571 78.1968 101.64 78.1968H117.422C117.505 78.1968 117.575 78.1554 117.617 78.1003L118.258 77.2596C118.328 77.177 118.314 77.0667 118.258 76.984L117.603 76.1433C117.603 76.1433 117.478 76.0469 117.408 76.0469Z" fill="white" stroke="black" stroke-width="0.5" stroke-miterlimit="10"/>
<path d="M117.408 79.5547H101.626C101.543 79.5547 101.473 79.596 101.431 79.6512L100.79 80.4918C100.72 80.5745 100.734 80.6848 100.79 80.7674L101.445 81.6081C101.445 81.6081 101.571 81.7046 101.64 81.7046H117.422C117.505 81.7046 117.575 81.6632 117.617 81.6081L118.258 80.7674C118.328 80.6848 118.314 80.5745 118.258 80.4918L117.603 79.6512C117.603 79.6512 117.478 79.5547 117.408 79.5547Z" fill="white" stroke="black" stroke-width="0.5" stroke-miterlimit="10"/>
<path d="M117.408 82.8125H101.626C101.543 82.8125 101.473 82.8538 101.431 82.909L100.79 83.7496C100.72 83.8323 100.734 83.9426 100.79 84.0253L101.445 84.8659C101.445 84.8659 101.571 84.9624 101.64 84.9624H117.422C117.505 84.9624 117.575 84.9211 117.617 84.8659L118.258 84.0253C118.328 83.9426 118.314 83.8323 118.258 83.7496L117.603 82.909C117.603 82.909 117.478 82.8125 117.408 82.8125Z" fill="white" stroke="black" stroke-width="0.5" stroke-miterlimit="10"/>
<path d="M39.7246 82.4922H56.496" stroke="black" stroke-width="0.25" stroke-miterlimit="10"/>
</svg>
