<svg width="217" height="195" viewBox="0 0 217 195" fill="none" xmlns="http://www.w3.org/2000/svg">
<rect x="8.52372e-06" y="2.47442e-05" width="217" height="195" rx="10" fill="#D9D9D9"/>
<g clip-path="url(#clip0_4141_672)">
<path fill-rule="evenodd" clip-rule="evenodd" d="M143.795 28C144.615 36.7572 142.946 45.1399 142.009 53.8971C140.633 67.6667 137.412 81.8683 139.139 94.8889C142.331 108.774 142.272 125.28 139.608 139.827H138.027C140.691 125.597 140.808 109.292 137.617 95.2634C135.831 83.6832 138.407 71.9013 139.579 60.3498C140.545 52.6008 141.599 44.8807 142.243 37.0453" fill="#1D1D1B"/>
<path fill-rule="evenodd" clip-rule="evenodd" d="M93.2867 141.469L93.5795 139.626C95.0142 128.305 96.8296 116.58 94.6043 105.259L94.7507 104.885C95.4827 103.3 95.9512 101.457 96.3611 99.7572C99.7283 85.2099 100.9 70.2881 103.505 55.5679C103.623 54.8478 103.769 54.1276 103.886 53.4075C104.56 49.5762 105.233 45.7161 106.199 41.9424C106.316 41.4815 107.78 35.9219 107.927 35.3457C111.821 48.7696 113.636 62.7408 115.598 76.5103C116.74 84.1153 117.677 91.7202 119.434 99.1523C119.815 101.025 120.342 103.128 121.103 104.914L121.337 105.288C119.112 116.724 120.693 128.449 122.04 139.885H120.459C119.961 136.111 119.522 132.395 119.2 128.737C118.468 120.44 118.292 112.749 119.639 105.519C113.461 85.5556 113.256 61.6749 107.927 41.5103C106.902 45.3416 105.906 50.3828 105.087 55.3087C102.305 69.9136 101.427 86.247 97.6495 100.737C96.9467 103.473 96.5075 106.268 96.8296 109.062C97.9423 118.712 96.5075 129.255 95.1899 139.193" fill="#1D1D1B"/>
<path fill-rule="evenodd" clip-rule="evenodd" d="M72.0878 28.086C71.2973 44.3905 75.66 62.1353 76.7434 78.0366C77.2119 83.9131 77.7682 89.9049 76.7434 94.9172C73.4055 109.551 73.6104 127.123 76.7434 142.189L78.588 143.86C75.5429 129.168 74.8987 109.925 78.266 95.2341C80.0521 83.5386 77.3876 71.5551 76.2164 59.8596C75.2794 52.2547 74.2546 44.6786 73.6104 37.016" fill="#1D1D1B"/>
<path d="M138.759 144.147C137.002 148.958 132.61 151.781 128.716 151.781C117.033 151.781 119.053 120.641 119.053 116.09C119.053 112.431 119.639 107.563 119.961 105.402C118.995 103.732 117.589 96.4148 116.857 91.8633C116.272 88.2049 113.051 67.3201 111.499 57.3242H142.448C142.126 59.0814 141.277 64.4683 140.486 71.958C139.52 81.2049 140.223 88.5794 142.126 108.485L142.185 109.118C144.117 129.485 140.984 138.127 138.788 144.118L138.759 144.147Z" fill="#D3D3D5" stroke="#1D1D1B" stroke-width="0.5" stroke-miterlimit="10"/>
<path d="M133.371 70.7774H124.909V74.2054H133.371V70.7774Z" stroke="#050A0A" stroke-width="0.29" stroke-miterlimit="10"/>
<path d="M122.538 146.453H138.32" stroke="#1D1D1B" stroke-width="0.5" stroke-miterlimit="10"/>
<path d="M131.849 72.3614H126.432V153.567H131.849V72.3614Z" fill="white" stroke="#050A0A" stroke-width="0.29" stroke-miterlimit="10"/>
</g>
<path d="M28.1068 170.8C31.7228 170.8 34.7148 172.048 34.7148 176.4C34.7148 180.752 31.7228 182 28.1068 182H23.4988V170.8H28.1068ZM27.8668 180.336C30.9228 180.336 32.6988 179.296 32.6988 176.4C32.6988 173.52 30.9228 172.464 27.8668 172.464H25.4668V180.336H27.8668ZM36.4794 182V173.472H38.4474V182H36.4794ZM37.4554 172.288C36.8474 172.288 36.4154 171.936 36.4154 171.328C36.4154 170.72 36.8474 170.368 37.4554 170.368C38.0794 170.368 38.5114 170.72 38.5114 171.328C38.5114 171.936 38.0794 172.288 37.4554 172.288ZM45.1785 177.008C47.5945 177.424 48.9545 177.744 48.9545 179.424C48.9545 181.408 47.3065 182.24 44.4585 182.24C41.8665 182.24 39.8825 181.344 39.8825 179.408H41.9145C41.9145 180.336 42.8265 180.752 44.6185 180.752C46.3625 180.752 46.9865 180.32 46.9865 179.68C46.9865 178.736 45.5625 178.72 43.3865 178.32C41.1785 177.904 40.2025 177.392 40.2025 175.872C40.2025 174.16 41.8025 173.232 44.3145 173.232C47.0505 173.232 48.5225 174.32 48.5225 175.904H46.6825C46.6825 175.36 46.1065 174.688 44.2825 174.688C42.5705 174.688 41.9785 175.12 41.9785 175.776C41.9785 176.64 43.6585 176.752 45.1785 177.008ZM55.813 174.976H53.237V178.816C53.237 180.256 53.813 180.656 55.813 180.448V181.984C55.525 182.064 55.093 182.128 54.693 182.128C52.101 182.128 51.269 181.072 51.269 178.816V174.976H49.605V173.472H51.269V171.264H53.237V173.472H55.813V174.976ZM61.5534 173.232C63.9054 173.232 65.9054 174.016 65.9054 176.464V182H63.9374V180.896C63.5214 181.376 62.4974 182.24 60.4974 182.24C58.4494 182.24 57.0894 181.392 57.0894 179.76C57.0894 178 58.0494 176.608 63.9374 176.992V176.464C63.9374 175.28 63.3294 174.688 61.5534 174.688C60.0334 174.688 59.4094 175.184 59.2654 175.904H57.4254C57.6814 174.112 59.3454 173.232 61.5534 173.232ZM63.9374 179.6V178.176C60.3854 178 59.1054 178.304 59.1054 179.632C59.1054 180.496 59.7774 180.928 60.9134 180.928C62.4174 180.928 63.4094 180.368 63.9374 179.6ZM68.1513 170.192H70.1193V182H68.1513V170.192ZM76.5144 173.232C79.2184 173.232 81.3944 174.832 81.1704 178.368H73.4904C73.7144 179.824 74.7544 180.784 76.5464 180.784C78.2104 180.784 78.9144 179.984 79.2024 179.376H80.9304C80.4984 181.12 78.8344 182.24 76.5464 182.24C74.1144 182.24 71.7144 180.848 71.7144 177.744C71.7144 174.688 74.0664 173.232 76.5144 173.232ZM73.5384 176.928H79.4104C79.1544 175.584 78.2264 174.688 76.5144 174.688C74.9304 174.688 73.8424 175.584 73.5384 176.928ZM87.2879 177.008C89.7039 177.424 91.0639 177.744 91.0639 179.424C91.0639 181.408 89.4159 182.24 86.5679 182.24C83.9759 182.24 81.9919 181.344 81.9919 179.408H84.0239C84.0239 180.336 84.9359 180.752 86.7279 180.752C88.4719 180.752 89.0959 180.32 89.0959 179.68C89.0959 178.736 87.6719 178.72 85.4959 178.32C83.2879 177.904 82.3119 177.392 82.3119 175.872C82.3119 174.16 83.9119 173.232 86.4239 173.232C89.1599 173.232 90.6319 174.32 90.6319 175.904H88.7919C88.7919 175.36 88.2159 174.688 86.3919 174.688C84.6799 174.688 84.0879 175.12 84.0879 175.776C84.0879 176.64 85.7679 176.752 87.2879 177.008ZM99.9155 180.336H107.74V182H96.9875V180.64L104.668 172.464H97.2915V170.8H107.58V172.176L99.9155 180.336ZM116.371 173.472H118.339V182H116.371V180.688C115.971 181.248 114.883 182.24 113.107 182.24C110.883 182.24 109.667 180.976 109.667 178.992V173.472H111.635V178.4C111.635 179.84 112.419 180.64 113.971 180.64C115.523 180.64 116.371 179.744 116.371 178.4V173.472ZM127.501 173.472H129.469V181.184C129.469 184.48 126.957 184.976 124.509 184.976C121.837 184.976 120.237 184.032 120.061 182.416H121.885C122.013 182.928 122.653 183.488 124.509 183.488C126.893 183.488 127.501 182.72 127.501 181.184V180.24C126.877 180.992 125.869 181.472 124.365 181.472C121.885 181.472 119.933 180.24 119.933 177.44C119.933 174.624 121.885 173.232 124.365 173.232C125.869 173.232 126.877 173.792 127.501 174.624V173.472ZM124.749 180.192C126.589 180.192 127.805 179.2 127.805 177.44C127.805 175.664 126.621 174.688 124.749 174.688C122.893 174.688 121.757 175.632 121.757 177.44C121.757 179.232 122.909 180.192 124.749 180.192ZM136.21 177.008C138.626 177.424 139.986 177.744 139.986 179.424C139.986 181.408 138.338 182.24 135.49 182.24C132.898 182.24 130.914 181.344 130.914 179.408H132.946C132.946 180.336 133.858 180.752 135.65 180.752C137.394 180.752 138.018 180.32 138.018 179.68C138.018 178.736 136.594 178.72 134.418 178.32C132.21 177.904 131.234 177.392 131.234 175.872C131.234 174.16 132.834 173.232 135.346 173.232C138.082 173.232 139.554 174.32 139.554 175.904H137.714C137.714 175.36 137.138 174.688 135.314 174.688C133.602 174.688 133.01 175.12 133.01 175.776C133.01 176.64 134.69 176.752 136.21 177.008ZM147.952 173.472H150.016L144.896 184.672H142.944L144.272 181.696L140.304 173.472H142.368L145.2 179.632L147.952 173.472ZM155.647 177.008C158.063 177.424 159.423 177.744 159.423 179.424C159.423 181.408 157.775 182.24 154.927 182.24C152.335 182.24 150.351 181.344 150.351 179.408H152.383C152.383 180.336 153.295 180.752 155.087 180.752C156.831 180.752 157.455 180.32 157.455 179.68C157.455 178.736 156.031 178.72 153.855 178.32C151.647 177.904 150.671 177.392 150.671 175.872C150.671 174.16 152.271 173.232 154.783 173.232C157.519 173.232 158.991 174.32 158.991 175.904H157.151C157.151 175.36 156.575 174.688 154.751 174.688C153.039 174.688 152.447 175.12 152.447 175.776C152.447 176.64 154.127 176.752 155.647 177.008ZM166.282 174.976H163.706V178.816C163.706 180.256 164.282 180.656 166.282 180.448V181.984C165.994 182.064 165.562 182.128 165.162 182.128C162.57 182.128 161.738 181.072 161.738 178.816V174.976H160.074V173.472H161.738V171.264H163.706V173.472H166.282V174.976ZM172.202 173.232C174.906 173.232 177.082 174.832 176.858 178.368H169.178C169.402 179.824 170.442 180.784 172.234 180.784C173.898 180.784 174.602 179.984 174.89 179.376H176.618C176.186 181.12 174.522 182.24 172.234 182.24C169.802 182.24 167.402 180.848 167.402 177.744C167.402 174.688 169.754 173.232 172.202 173.232ZM169.226 176.928H175.098C174.842 175.584 173.914 174.688 172.202 174.688C170.618 174.688 169.53 175.584 169.226 176.928ZM189.359 173.232C191.583 173.232 192.655 174.496 192.655 176.48V182H190.671V177.072C190.671 175.632 190.143 174.832 188.639 174.832C187.151 174.832 186.543 175.792 186.543 177.072V182H184.575V177.072C184.575 175.632 184.031 174.832 182.543 174.832C181.055 174.832 180.447 175.792 180.447 177.072V182H178.479V173.472H180.447V174.72C180.767 174.16 181.583 173.232 183.247 173.232C184.719 173.232 185.679 173.776 186.159 174.72C186.591 174.144 187.647 173.232 189.359 173.232Z" fill="black"/>
<defs>
<clipPath id="clip0_4141_672">
<rect width="72" height="126" fill="white" transform="translate(72 28)"/>
</clipPath>
</defs>
</svg>
