<svg width="132" height="129" viewBox="0 0 132 129" fill="none" xmlns="http://www.w3.org/2000/svg">
<rect width="132" height="129" rx="10" fill="white"/>
<path d="M8.71288 113.6C11.4249 113.6 13.6689 114.536 13.6689 117.8C13.6689 121.064 11.4249 122 8.71288 122H5.25688V113.6H8.71288ZM8.53288 120.752C10.8249 120.752 12.1569 119.972 12.1569 117.8C12.1569 115.64 10.8249 114.848 8.53288 114.848H6.73288V120.752H8.53288ZM14.9923 122V115.604H16.4683V122H14.9923ZM15.7243 114.716C15.2683 114.716 14.9443 114.452 14.9443 113.996C14.9443 113.54 15.2683 113.276 15.7243 113.276C16.1923 113.276 16.5163 113.54 16.5163 113.996C16.5163 114.452 16.1923 114.716 15.7243 114.716ZM21.5167 118.256C23.3287 118.568 24.3487 118.808 24.3487 120.068C24.3487 121.556 23.1127 122.18 20.9767 122.18C19.0327 122.18 17.5447 121.508 17.5447 120.056H19.0687C19.0687 120.752 19.7527 121.064 21.0967 121.064C22.4047 121.064 22.8727 120.74 22.8727 120.26C22.8727 119.552 21.8047 119.54 20.1727 119.24C18.5167 118.928 17.7847 118.544 17.7847 117.404C17.7847 116.12 18.9847 115.424 20.8687 115.424C22.9207 115.424 24.0247 116.24 24.0247 117.428H22.6447C22.6447 117.02 22.2127 116.516 20.8447 116.516C19.5607 116.516 19.1167 116.84 19.1167 117.332C19.1167 117.98 20.3767 118.064 21.5167 118.256ZM29.4926 116.732H27.5606V119.612C27.5606 120.692 27.9926 120.992 29.4926 120.836V121.988C29.2766 122.048 28.9526 122.096 28.6526 122.096C26.7086 122.096 26.0846 121.304 26.0846 119.612V116.732H24.8366V115.604H26.0846V113.948H27.5606V115.604H29.4926V116.732ZM33.7978 115.424C35.5618 115.424 37.0618 116.012 37.0618 117.848V122H35.5858V121.172C35.2738 121.532 34.5058 122.18 33.0058 122.18C31.4698 122.18 30.4498 121.544 30.4498 120.32C30.4498 119 31.1698 117.956 35.5858 118.244V117.848C35.5858 116.96 35.1298 116.516 33.7978 116.516C32.6578 116.516 32.1898 116.888 32.0818 117.428H30.7018C30.8938 116.084 32.1418 115.424 33.7978 115.424ZM35.5858 120.2V119.132C32.9218 119 31.9618 119.228 31.9618 120.224C31.9618 120.872 32.4658 121.196 33.3178 121.196C34.4458 121.196 35.1898 120.776 35.5858 120.2ZM38.7463 113.144H40.2223V122H38.7463V113.144ZM45.0186 115.424C47.0466 115.424 48.6786 116.624 48.5106 119.276H42.7506C42.9186 120.368 43.6986 121.088 45.0426 121.088C46.2906 121.088 46.8186 120.488 47.0346 120.032H48.3306C48.0066 121.34 46.7586 122.18 45.0426 122.18C43.2186 122.18 41.4186 121.136 41.4186 118.808C41.4186 116.516 43.1826 115.424 45.0186 115.424ZM42.7866 118.196H47.1906C46.9986 117.188 46.3026 116.516 45.0186 116.516C43.8306 116.516 43.0146 117.188 42.7866 118.196ZM60.4672 122L59.6152 120.128H54.8032L53.9632 122H52.3672L56.2552 113.6H58.1752L62.0632 122H60.4672ZM55.3672 118.88H59.0632L57.2152 114.764L55.3672 118.88ZM66.9426 115.424C67.2306 115.424 67.3986 115.436 67.6506 115.472V116.936H67.6026C67.3506 116.864 67.0266 116.816 66.6186 116.816C64.9986 116.816 64.3866 117.752 64.3866 118.748V122H62.8986V115.604H64.3866V116.804C64.6746 116.336 65.5626 115.424 66.9426 115.424ZM72.8957 115.424C73.1837 115.424 73.3517 115.436 73.6037 115.472V116.936H73.5557C73.3037 116.864 72.9797 116.816 72.5717 116.816C70.9517 116.816 70.3397 117.752 70.3397 118.748V122H68.8517V115.604H70.3397V116.804C70.6277 116.336 71.5157 115.424 72.8957 115.424ZM77.8077 115.424C79.8357 115.424 81.4677 116.624 81.2997 119.276H75.5397C75.7077 120.368 76.4877 121.088 77.8317 121.088C79.0797 121.088 79.6077 120.488 79.8237 120.032H81.1197C80.7957 121.34 79.5477 122.18 77.8317 122.18C76.0077 122.18 74.2077 121.136 74.2077 118.808C74.2077 116.516 75.9717 115.424 77.8077 115.424ZM75.5757 118.196H79.9797C79.7877 117.188 79.0917 116.516 77.8077 116.516C76.6197 116.516 75.8037 117.188 75.5757 118.196ZM86.4574 116.732H84.5254V119.612C84.5254 120.692 84.9574 120.992 86.4574 120.836V121.988C86.2414 122.048 85.9174 122.096 85.6174 122.096C83.6734 122.096 83.0494 121.304 83.0494 119.612V116.732H81.8014V115.604H83.0494V113.948H84.5254V115.604H86.4574V116.732ZM87.8947 122V115.604H89.3707V122H87.8947ZM88.6267 114.716C88.1707 114.716 87.8467 114.452 87.8467 113.996C87.8467 113.54 88.1707 113.276 88.6267 113.276C89.0947 113.276 89.4187 113.54 89.4187 113.996C89.4187 114.452 89.0947 114.716 88.6267 114.716ZM94.167 115.424C96.195 115.424 97.827 116.624 97.659 119.276H91.899C92.067 120.368 92.847 121.088 94.191 121.088C95.439 121.088 95.967 120.488 96.183 120.032H97.479C97.155 121.34 95.907 122.18 94.191 122.18C92.367 122.18 90.567 121.136 90.567 118.808C90.567 116.516 92.331 115.424 94.167 115.424ZM91.935 118.196H96.339C96.147 117.188 95.451 116.516 94.167 116.516C92.979 116.516 92.163 117.188 91.935 118.196ZM102.919 115.424C103.207 115.424 103.375 115.436 103.627 115.472V116.936H103.579C103.327 116.864 103.003 116.816 102.595 116.816C100.975 116.816 100.363 117.752 100.363 118.748V122H98.8752V115.604H100.363V116.804C100.651 116.336 101.539 115.424 102.919 115.424ZM109.856 115.604H111.332V122H109.856V121.016C109.556 121.436 108.74 122.18 107.408 122.18C105.74 122.18 104.828 121.232 104.828 119.744V115.604H106.304V119.3C106.304 120.38 106.892 120.98 108.056 120.98C109.22 120.98 109.856 120.308 109.856 119.3V115.604ZM116.932 115.424C118.6 115.424 119.512 116.372 119.512 117.86V122H118.036V118.304C118.036 117.224 117.448 116.624 116.284 116.624C115.12 116.624 114.484 117.296 114.484 118.304V122H113.008V115.604H114.484V116.588C114.784 116.168 115.6 115.424 116.932 115.424ZM126.384 115.604H127.86V121.388C127.86 123.86 125.976 124.232 124.14 124.232C122.136 124.232 120.936 123.524 120.804 122.312H122.172C122.268 122.696 122.748 123.116 124.14 123.116C125.928 123.116 126.384 122.54 126.384 121.388V120.68C125.916 121.244 125.16 121.604 124.032 121.604C122.172 121.604 120.708 120.68 120.708 118.58C120.708 116.468 122.172 115.424 124.032 115.424C125.16 115.424 125.916 115.844 126.384 116.468V115.604ZM124.32 120.644C125.7 120.644 126.612 119.9 126.612 118.58C126.612 117.248 125.724 116.516 124.32 116.516C122.928 116.516 122.076 117.224 122.076 118.58C122.076 119.924 122.94 120.644 124.32 120.644Z" fill="black"/>
<path fill-rule="evenodd" clip-rule="evenodd" d="M91.8546 6C92.4353 12.2992 91.2531 18.3289 90.5894 24.6281C89.6146 34.5327 87.3332 44.7481 88.5569 54.114C90.8176 64.1014 90.7761 75.9745 88.8887 86.4386H87.7688C89.6561 76.2025 89.7391 64.4744 87.4784 54.3833C86.2133 46.0535 88.0384 37.5787 88.868 29.2696C89.5524 23.6957 90.2991 18.1425 90.7554 12.5064" fill="black"/>
<path fill-rule="evenodd" clip-rule="evenodd" d="M56.0781 87.6171L56.2855 86.291C57.3018 78.1476 58.5877 69.7142 57.0114 61.5709L57.1151 61.3015C57.6336 60.1619 57.9655 58.8357 58.2558 57.6132C60.641 47.1492 61.4706 36.4157 63.3164 25.8273C63.3994 25.3093 63.5031 24.7913 63.5861 24.2733C64.0631 21.5174 64.5401 18.7408 65.2245 16.0263C65.3075 15.6948 66.3445 11.6957 66.4482 11.2812C69.2066 20.9372 70.4925 30.9868 71.8821 40.8914C72.691 46.3618 73.3547 51.8321 74.5991 57.1781C74.8687 58.5249 75.242 60.0376 75.7813 61.3223L75.9472 61.5916C74.3709 69.8178 75.4909 78.2512 76.4449 86.4774H75.325C74.9724 83.763 74.6613 81.09 74.4331 78.4585C73.9146 72.4908 73.7902 66.9583 74.7443 61.7574C70.3681 47.3978 70.2229 30.2202 66.4482 15.7155C65.7223 18.4714 65.0171 22.0976 64.4364 25.6408C62.4661 36.1463 61.8439 47.8951 59.1684 58.3177C58.6706 60.2862 58.3595 62.2961 58.5877 64.3061C59.3758 71.2476 58.3595 78.8314 57.4262 85.9801" fill="black"/>
<path fill-rule="evenodd" clip-rule="evenodd" d="M41.062 6.0625C40.5021 17.7905 43.5923 30.5546 44.3597 41.9926C44.6916 46.2196 45.0856 50.5296 44.3597 54.135C41.9954 64.6612 42.1405 77.301 44.3597 88.138L45.6664 89.3399C43.5094 78.7722 43.0531 64.9306 45.4382 54.3629C46.7034 45.9503 44.816 37.3304 43.9864 28.9177C43.3227 23.4473 42.5968 17.9977 42.1405 12.486" fill="black"/>
<path d="M88.1423 89.5466C86.8979 93.007 83.7869 95.0376 81.0284 95.0376C71.5087 94.5611 74.2672 66.4013 74.8064 61.677C72.0272 52.8498 71.0939 40.1065 68.8125 27.0938H90.7348C88.7023 38.8425 88.5364 45.5561 90.5274 63.8941C92.0207 78.1501 89.7186 85.4439 88.163 89.5259L88.1423 89.5466Z" fill="#D3D3D5" stroke="black" stroke-width="0.5" stroke-miterlimit="10"/>
<path d="M81.8582 95.1172H80.6553V100.318H81.8582V95.1172Z" fill="#D3D3D5" stroke="black" stroke-width="0.29" stroke-miterlimit="10"/>
<path d="M81.2569 101.69C80.9665 101.69 80.7591 101.565 80.7176 101.275L80.4272 100.156H82.0657L81.7754 101.275C81.7339 101.565 81.5265 101.69 81.2361 101.69H81.2569Z" fill="#D3D3D5" stroke="black" stroke-width="0.29" stroke-miterlimit="10"/>
<path d="M80.5928 96.8203L81.9409 97.2969" stroke="black" stroke-width="0.29" stroke-miterlimit="10"/>
<path d="M80.5928 98.25L81.9409 98.7266" stroke="black" stroke-width="0.29" stroke-miterlimit="10"/>
<path d="M80.5928 99.6797L81.9409 100.156" stroke="black" stroke-width="0.29" stroke-miterlimit="10"/>
<path d="M76.3203 91.2031H87.4992" stroke="black" stroke-width="0.5" stroke-miterlimit="10"/>
</svg>
