<svg width="217" height="195" viewBox="0 0 217 195" fill="none" xmlns="http://www.w3.org/2000/svg">
<rect x="8.52372e-06" y="2.47442e-05" width="217" height="195" rx="10" fill="#D9D9D9"/>
<g clip-path="url(#clip0_4141_620)">
<path fill-rule="evenodd" clip-rule="evenodd" d="M141.809 28C142.572 36.2677 141.019 44.1818 140.147 52.4494C138.867 65.4492 135.869 78.8569 137.477 91.1496C140.447 104.258 140.392 119.842 137.913 133.576H136.442C138.921 120.141 139.03 104.748 136.06 91.5032C134.398 80.5703 136.796 69.447 137.886 58.5414C138.785 51.2256 139.766 43.937 140.365 36.5396" fill="#1D1D1B"/>
<path fill-rule="evenodd" clip-rule="evenodd" d="M94.8085 135.126L95.0809 133.386C96.416 122.698 98.1053 111.629 96.0346 100.941L96.1708 100.587C96.852 99.0914 97.2879 97.3508 97.6694 95.7463C100.803 82.0122 101.893 67.9246 104.318 54.0273C104.427 53.3474 104.563 52.6675 104.672 51.9876C105.299 48.3705 105.925 44.7262 106.824 41.1635C106.933 40.7284 108.296 35.4795 108.432 34.9356C112.056 47.609 113.745 60.7992 115.571 73.7989C116.633 80.9787 117.505 88.1585 119.14 95.1752C119.494 96.9429 119.985 98.9282 120.693 100.614L120.911 100.968C118.84 111.765 120.312 122.834 121.565 133.631H120.094C119.63 130.068 119.222 126.56 118.922 123.106C118.241 115.273 118.077 108.012 119.331 101.186C113.582 82.3385 113.391 59.7929 108.432 40.7556C107.478 44.3727 106.552 49.132 105.789 53.7825C103.201 67.571 102.383 82.9913 98.8683 96.6709C98.2143 99.2546 97.8056 101.893 98.1053 104.531C99.1407 113.641 97.8056 123.595 96.5795 132.978" fill="#1D1D1B"/>
<path fill-rule="evenodd" clip-rule="evenodd" d="M75.0817 28.0821C74.3461 43.4751 78.4059 60.228 79.414 75.2403C79.8499 80.7883 80.3676 86.4451 79.414 91.1772C76.3078 104.993 76.4986 121.583 79.414 135.806L81.1305 137.384C78.2969 123.514 77.6974 105.346 80.8308 91.4764C82.4929 80.4347 80.0134 69.1211 78.9235 58.0795C78.0516 50.8997 77.098 43.7471 76.4986 36.5129" fill="#1D1D1B"/>
<path d="M136.932 137.655C135.297 142.197 131.21 144.862 127.586 144.862C115.08 144.236 118.704 107.277 119.412 101.076C115.761 89.4905 114.535 72.7648 111.538 55.6856H140.338C137.668 71.1058 137.45 79.9174 140.065 103.986C142.027 122.697 139.003 132.27 136.959 137.628L136.932 137.655Z" fill="#D3D3D5" stroke="#1D1D1B" stroke-width="0.5" stroke-miterlimit="10"/>
<path d="M128.676 144.971H127.096V151.797H128.676V144.971Z" fill="#D3D3D5" stroke="#050A0A" stroke-width="0.29" stroke-miterlimit="10"/>
<path d="M127.886 153.593C127.505 153.593 127.232 153.429 127.178 153.049L126.796 151.58H128.949L128.567 153.049C128.513 153.429 128.24 153.593 127.859 153.593H127.886Z" fill="#D3D3D5" stroke="#050A0A" stroke-width="0.29" stroke-miterlimit="10"/>
<path d="M127.014 147.201L128.785 147.827" stroke="#050A0A" stroke-width="0.29" stroke-miterlimit="10"/>
<path d="M127.014 149.078L128.785 149.704" stroke="#050A0A" stroke-width="0.29" stroke-miterlimit="10"/>
<path d="M127.014 150.953L128.785 151.579" stroke="#050A0A" stroke-width="0.29" stroke-miterlimit="10"/>
<path d="M121.401 139.83H136.087" stroke="#1D1D1B" stroke-width="0.5" stroke-miterlimit="10"/>
</g>
<path d="M30.9505 166.8C34.5665 166.8 37.5585 168.048 37.5585 172.4C37.5585 176.752 34.5665 178 30.9505 178H26.3425V166.8H30.9505ZM30.7105 176.336C33.7665 176.336 35.5425 175.296 35.5425 172.4C35.5425 169.52 33.7665 168.464 30.7105 168.464H28.3105V176.336H30.7105ZM39.3231 178V169.472H41.2911V178H39.3231ZM40.2991 168.288C39.6911 168.288 39.2591 167.936 39.2591 167.328C39.2591 166.72 39.6911 166.368 40.2991 166.368C40.9231 166.368 41.3551 166.72 41.3551 167.328C41.3551 167.936 40.9231 168.288 40.2991 168.288ZM48.0223 173.008C50.4383 173.424 51.7983 173.744 51.7983 175.424C51.7983 177.408 50.1503 178.24 47.3023 178.24C44.7103 178.24 42.7263 177.344 42.7263 175.408H44.7583C44.7583 176.336 45.6703 176.752 47.4623 176.752C49.2063 176.752 49.8303 176.32 49.8303 175.68C49.8303 174.736 48.4063 174.72 46.2303 174.32C44.0223 173.904 43.0463 173.392 43.0463 171.872C43.0463 170.16 44.6463 169.232 47.1583 169.232C49.8943 169.232 51.3663 170.32 51.3663 171.904H49.5263C49.5263 171.36 48.9503 170.688 47.1263 170.688C45.4143 170.688 44.8223 171.12 44.8223 171.776C44.8223 172.64 46.5023 172.752 48.0223 173.008ZM58.6568 170.976H56.0808V174.816C56.0808 176.256 56.6568 176.656 58.6568 176.448V177.984C58.3688 178.064 57.9368 178.128 57.5368 178.128C54.9448 178.128 54.1128 177.072 54.1128 174.816V170.976H52.4488V169.472H54.1128V167.264H56.0808V169.472H58.6568V170.976ZM64.3971 169.232C66.7491 169.232 68.7491 170.016 68.7491 172.464V178H66.7811V176.896C66.3651 177.376 65.3411 178.24 63.3411 178.24C61.2931 178.24 59.9331 177.392 59.9331 175.76C59.9331 174 60.8931 172.608 66.7811 172.992V172.464C66.7811 171.28 66.1731 170.688 64.3971 170.688C62.8771 170.688 62.2531 171.184 62.1091 171.904H60.2691C60.5251 170.112 62.1891 169.232 64.3971 169.232ZM66.7811 175.6V174.176C63.2291 174 61.9491 174.304 61.9491 175.632C61.9491 176.496 62.6211 176.928 63.7571 176.928C65.2611 176.928 66.2531 176.368 66.7811 175.6ZM70.995 166.192H72.963V178H70.995V166.192ZM79.3581 169.232C82.0621 169.232 84.2381 170.832 84.0141 174.368H76.3341C76.5581 175.824 77.5981 176.784 79.3901 176.784C81.0541 176.784 81.7581 175.984 82.0461 175.376H83.7741C83.3421 177.12 81.6781 178.24 79.3901 178.24C76.9581 178.24 74.5581 176.848 74.5581 173.744C74.5581 170.688 76.9101 169.232 79.3581 169.232ZM76.3821 172.928H82.2541C81.9981 171.584 81.0701 170.688 79.3581 170.688C77.7741 170.688 76.6861 171.584 76.3821 172.928ZM99.9563 178L98.8203 175.504H92.4043L91.2843 178H89.1563L94.3403 166.8H96.9003L102.084 178H99.9563ZM93.1563 173.84H98.0843L95.6203 168.352L93.1563 173.84ZM108.59 169.232C108.974 169.232 109.198 169.248 109.534 169.296V171.248H109.47C109.134 171.152 108.702 171.088 108.158 171.088C105.998 171.088 105.182 172.336 105.182 173.664V178H103.198V169.472H105.182V171.072C105.566 170.448 106.75 169.232 108.59 169.232ZM116.528 169.232C116.912 169.232 117.136 169.248 117.472 169.296V171.248H117.408C117.072 171.152 116.64 171.088 116.096 171.088C113.936 171.088 113.12 172.336 113.12 173.664V178H111.136V169.472H113.12V171.072C113.504 170.448 114.688 169.232 116.528 169.232ZM123.077 169.232C125.781 169.232 127.957 170.832 127.733 174.368H120.053C120.277 175.824 121.317 176.784 123.109 176.784C124.773 176.784 125.477 175.984 125.765 175.376H127.493C127.061 177.12 125.397 178.24 123.109 178.24C120.677 178.24 118.277 176.848 118.277 173.744C118.277 170.688 120.629 169.232 123.077 169.232ZM120.101 172.928H125.973C125.717 171.584 124.789 170.688 123.077 170.688C121.493 170.688 120.405 171.584 120.101 172.928ZM134.61 170.976H132.034V174.816C132.034 176.256 132.61 176.656 134.61 176.448V177.984C134.322 178.064 133.89 178.128 133.49 178.128C130.898 178.128 130.066 177.072 130.066 174.816V170.976H128.402V169.472H130.066V167.264H132.034V169.472H134.61V170.976ZM136.526 178V169.472H138.494V178H136.526ZM137.502 168.288C136.894 168.288 136.462 167.936 136.462 167.328C136.462 166.72 136.894 166.368 137.502 166.368C138.126 166.368 138.558 166.72 138.558 167.328C138.558 167.936 138.126 168.288 137.502 168.288ZM144.889 169.232C147.593 169.232 149.769 170.832 149.545 174.368H141.865C142.089 175.824 143.129 176.784 144.921 176.784C146.585 176.784 147.289 175.984 147.577 175.376H149.305C148.873 177.12 147.209 178.24 144.921 178.24C142.489 178.24 140.089 176.848 140.089 173.744C140.089 170.688 142.441 169.232 144.889 169.232ZM141.913 172.928H147.785C147.529 171.584 146.601 170.688 144.889 170.688C143.305 170.688 142.217 171.584 141.913 172.928ZM156.559 169.232C156.943 169.232 157.167 169.248 157.503 169.296V171.248H157.439C157.103 171.152 156.671 171.088 156.127 171.088C153.967 171.088 153.151 172.336 153.151 173.664V178H151.167V169.472H153.151V171.072C153.535 170.448 154.719 169.232 156.559 169.232ZM165.808 169.472H167.776V178H165.808V176.688C165.408 177.248 164.32 178.24 162.544 178.24C160.32 178.24 159.104 176.976 159.104 174.992V169.472H161.072V174.4C161.072 175.84 161.856 176.64 163.408 176.64C164.96 176.64 165.808 175.744 165.808 174.4V169.472ZM175.243 169.232C177.467 169.232 178.683 170.496 178.683 172.48V178H176.715V173.072C176.715 171.632 175.931 170.832 174.379 170.832C172.827 170.832 171.979 171.728 171.979 173.072V178H170.011V169.472H171.979V170.784C172.379 170.224 173.467 169.232 175.243 169.232ZM187.845 169.472H189.813V177.184C189.813 180.48 187.301 180.976 184.853 180.976C182.181 180.976 180.581 180.032 180.405 178.416H182.229C182.357 178.928 182.997 179.488 184.853 179.488C187.237 179.488 187.845 178.72 187.845 177.184V176.24C187.221 176.992 186.213 177.472 184.709 177.472C182.229 177.472 180.277 176.24 180.277 173.44C180.277 170.624 182.229 169.232 184.709 169.232C186.213 169.232 187.221 169.792 187.845 170.624V169.472ZM185.093 176.192C186.933 176.192 188.149 175.2 188.149 173.44C188.149 171.664 186.965 170.688 185.093 170.688C183.237 170.688 182.101 171.632 182.101 173.44C182.101 175.232 183.253 176.192 185.093 176.192Z" fill="black"/>
<defs>
<clipPath id="clip0_4141_620">
<rect width="67" height="126" fill="white" transform="translate(75 28)"/>
</clipPath>
</defs>
</svg>
