<svg width="217" height="195" viewBox="0 0 217 195" fill="none" xmlns="http://www.w3.org/2000/svg">
<rect x="8.52372e-06" y="2.47442e-05" width="217" height="195" rx="10" fill="#D9D9D9"/>
<path fill-rule="evenodd" clip-rule="evenodd" d="M93.3193 45C94.0086 52.4953 92.5895 59.6299 91.7988 67.1051C90.6432 78.8491 87.8861 90.9938 89.366 102.117C92.0624 113.981 92.0421 128.069 89.7715 140.475H88.4334C90.6838 128.33 90.7852 114.402 88.0888 102.437C86.5683 92.557 88.7578 82.4965 89.7715 72.6364C90.6027 66.0229 91.4947 59.4295 92.0421 52.7558" fill="#1D1D1B"/>
<path fill-rule="evenodd" clip-rule="evenodd" d="M50.4002 141.857L50.6434 140.294C51.8598 130.614 53.4006 120.613 51.5152 110.954L51.6571 110.633C52.2856 109.27 52.6708 107.707 53.0154 106.264C55.874 93.8388 56.8674 81.1129 59.0772 68.5272C59.1785 67.9059 59.3002 67.2847 59.4016 66.6634C59.9692 63.3967 60.5571 60.09 61.3681 56.8835C61.4694 56.5027 62.7264 51.753 62.848 51.252C66.1729 62.6953 67.6934 74.6597 69.3558 86.3836C70.3086 92.8568 71.1196 99.3501 72.6198 105.703C72.9442 107.306 73.3902 109.09 74.039 110.613L74.2417 110.934C72.3563 120.714 73.6943 130.714 74.8499 140.454H73.4916C73.0861 137.227 72.7009 134.061 72.4171 130.955C71.7886 123.88 71.667 117.307 72.8023 111.134C67.5515 94.0994 67.3893 73.6978 62.848 56.5027C61.9763 59.7693 61.1451 64.0781 60.4355 68.2867C58.0838 80.7521 57.3337 94.7006 54.1102 107.066C53.502 109.391 53.1371 111.795 53.4006 114.18C54.3535 122.417 53.1168 131.415 52.0018 139.913" fill="#1D1D1B"/>
<path fill-rule="evenodd" clip-rule="evenodd" d="M32.397 45.0801C31.7077 59.0085 35.4177 74.1394 36.33 87.7271C36.7355 92.7573 37.2018 97.8678 36.33 102.136C33.4918 114.642 33.6742 129.633 36.33 142.499L37.8911 143.942C35.2961 131.396 34.769 114.983 37.6073 102.437C39.1075 92.4367 36.8571 82.2359 35.884 72.2355C35.0731 65.7422 34.2013 59.269 33.6742 52.7357" fill="#1D1D1B"/>
<path d="M88.8589 144.143C87.3587 148.231 83.6284 150.656 80.3238 150.656C68.9099 150.095 72.2145 116.667 72.8632 111.055C69.5384 100.594 68.403 85.4432 65.6864 70.0117H91.9608C89.528 83.9602 89.3252 91.9164 91.6972 113.681C93.4813 130.615 90.7444 139.253 88.8589 144.103V144.143Z" fill="#D3D3D5" stroke="#1D1D1B" stroke-width="0.5" stroke-miterlimit="10"/>
<path d="M74.6871 146.127H88.0878" stroke="#1D1D1B" stroke-width="0.5" stroke-miterlimit="10"/>
<path d="M92.9134 130.074H71.0586C70.9572 130.074 70.8559 130.215 70.7748 130.475L69.8828 133.942C69.8017 134.283 69.8017 134.744 69.8828 135.084L70.7951 138.552C70.8559 138.792 70.9572 138.932 71.0586 138.932H92.9134C93.0147 138.932 93.1161 138.792 93.1972 138.531L94.0892 135.064C94.1703 134.724 94.1703 134.263 94.0892 133.922L93.1769 130.455C93.1161 130.215 93.0147 130.074 92.9134 130.074Z" fill="white" stroke="#1D1D1B" stroke-width="0.53" stroke-miterlimit="10"/>
<path fill-rule="evenodd" clip-rule="evenodd" d="M182.528 45C183.217 52.4953 181.798 59.6299 181.007 67.1051C179.852 78.8491 177.095 90.9938 178.575 102.117C181.271 113.981 181.251 128.069 178.98 140.475H177.642C179.892 128.33 179.994 114.402 177.297 102.437C175.777 92.557 177.966 82.4965 178.98 72.6364C179.811 66.0229 180.703 59.4295 181.251 52.7558" fill="#1D1D1B"/>
<path fill-rule="evenodd" clip-rule="evenodd" d="M139.609 141.857L139.852 140.294C141.068 130.614 142.609 120.613 140.724 110.954L140.866 110.633C141.494 109.27 141.879 107.707 142.224 106.264C145.082 93.8388 146.076 81.1129 148.286 68.5272C148.387 67.9059 148.509 67.2847 148.61 66.6634C149.178 63.3967 149.766 60.09 150.577 56.8835C150.678 56.5027 151.935 51.753 152.057 51.252C155.381 62.6953 156.902 74.6597 158.564 86.3836C159.517 92.8568 160.328 99.3501 161.828 105.703C162.153 107.306 162.599 109.09 163.247 110.613L163.45 110.934C161.565 120.714 162.903 130.714 164.058 140.454H162.7C162.295 137.227 161.909 134.061 161.626 130.955C160.997 123.88 160.875 117.307 162.011 111.134C156.76 94.0994 156.598 73.6978 152.057 56.5027C151.185 59.7693 150.354 64.0781 149.644 68.2867C147.292 80.7521 146.542 94.7006 143.319 107.066C142.71 109.391 142.346 111.795 142.609 114.18C143.562 122.417 142.325 131.415 141.21 139.913" fill="#1D1D1B"/>
<path fill-rule="evenodd" clip-rule="evenodd" d="M121.605 45.0801C120.916 59.0085 124.626 74.1394 125.539 87.7271C125.944 92.7573 126.41 97.8678 125.539 102.136C122.7 114.642 122.883 129.633 125.539 142.499L127.1 143.942C124.505 131.396 123.977 114.983 126.816 102.437C128.316 92.4367 126.066 82.2359 125.093 72.2355C124.282 65.7422 123.41 59.269 122.883 52.7357" fill="#1D1D1B"/>
<path d="M178.067 144.143C176.567 148.231 172.836 150.656 169.532 150.656C158.118 150.095 161.423 116.667 162.071 111.055C158.746 100.594 157.611 85.4432 154.895 70.0117H181.169C178.736 83.9602 178.533 91.9164 180.905 113.681C182.689 130.615 179.952 139.253 178.067 144.103V144.143Z" fill="#D3D3D5" stroke="#1D1D1B" stroke-width="0.5" stroke-miterlimit="10"/>
<path d="M163.895 146.127H177.296" stroke="#1D1D1B" stroke-width="0.5" stroke-miterlimit="10"/>
<path d="M182.688 125.043H159.738C159.616 125.043 159.515 125.103 159.454 125.183L158.522 126.406C158.42 126.526 158.441 126.686 158.522 126.807L159.475 128.029C159.475 128.029 159.657 128.169 159.758 128.169H182.708C182.83 128.169 182.931 128.109 182.992 128.029L183.924 126.807C184.026 126.686 184.005 126.526 183.924 126.406L182.971 125.183C182.971 125.183 182.789 125.043 182.688 125.043Z" fill="white" stroke="#1D1D1B" stroke-width="0.5" stroke-miterlimit="10"/>
<path d="M182.688 130.152H159.738C159.616 130.152 159.515 130.212 159.454 130.293L158.522 131.515C158.42 131.635 158.441 131.796 158.522 131.916L159.475 133.138C159.475 133.138 159.657 133.279 159.758 133.279H182.708C182.83 133.279 182.931 133.219 182.992 133.138L183.924 131.916C184.026 131.796 184.005 131.635 183.924 131.515L182.971 130.293C182.971 130.293 182.789 130.152 182.688 130.152Z" fill="white" stroke="#1D1D1B" stroke-width="0.5" stroke-miterlimit="10"/>
<path d="M182.688 134.883H159.738C159.616 134.883 159.515 134.943 159.454 135.023L158.522 136.246C158.42 136.366 158.441 136.526 158.522 136.646L159.475 137.869C159.475 137.869 159.657 138.009 159.758 138.009H182.708C182.83 138.009 182.931 137.949 182.992 137.869L183.924 136.646C184.026 136.526 184.005 136.366 183.924 136.246L182.971 135.023C182.971 135.023 182.789 134.883 182.688 134.883Z" fill="white" stroke="#1D1D1B" stroke-width="0.5" stroke-miterlimit="10"/>
<path d="M69.7211 134.422H94.11" stroke="#1D1D1B" stroke-width="0.25" stroke-miterlimit="10"/>
<path d="M38.3568 170.8C41.9728 170.8 44.9648 172.048 44.9648 176.4C44.9648 180.752 41.9728 182 38.3568 182H33.7488V170.8H38.3568ZM38.1168 180.336C41.1728 180.336 42.9488 179.296 42.9488 176.4C42.9488 173.52 41.1728 172.464 38.1168 172.464H35.7168V180.336H38.1168ZM46.7294 182V173.472H48.6974V182H46.7294ZM47.7054 172.288C47.0974 172.288 46.6654 171.936 46.6654 171.328C46.6654 170.72 47.0974 170.368 47.7054 170.368C48.3294 170.368 48.7614 170.72 48.7614 171.328C48.7614 171.936 48.3294 172.288 47.7054 172.288ZM55.4285 177.008C57.8445 177.424 59.2045 177.744 59.2045 179.424C59.2045 181.408 57.5565 182.24 54.7085 182.24C52.1165 182.24 50.1325 181.344 50.1325 179.408H52.1645C52.1645 180.336 53.0765 180.752 54.8685 180.752C56.6125 180.752 57.2365 180.32 57.2365 179.68C57.2365 178.736 55.8125 178.72 53.6365 178.32C51.4285 177.904 50.4525 177.392 50.4525 175.872C50.4525 174.16 52.0525 173.232 54.5645 173.232C57.3005 173.232 58.7725 174.32 58.7725 175.904H56.9325C56.9325 175.36 56.3565 174.688 54.5325 174.688C52.8205 174.688 52.2285 175.12 52.2285 175.776C52.2285 176.64 53.9085 176.752 55.4285 177.008ZM66.063 174.976H63.487V178.816C63.487 180.256 64.063 180.656 66.063 180.448V181.984C65.775 182.064 65.343 182.128 64.943 182.128C62.351 182.128 61.519 181.072 61.519 178.816V174.976H59.855V173.472H61.519V171.264H63.487V173.472H66.063V174.976ZM71.8034 173.232C74.1554 173.232 76.1554 174.016 76.1554 176.464V182H74.1874V180.896C73.7714 181.376 72.7474 182.24 70.7474 182.24C68.6994 182.24 67.3394 181.392 67.3394 179.76C67.3394 178 68.2994 176.608 74.1874 176.992V176.464C74.1874 175.28 73.5794 174.688 71.8034 174.688C70.2834 174.688 69.6594 175.184 69.5154 175.904H67.6754C67.9314 174.112 69.5954 173.232 71.8034 173.232ZM74.1874 179.6V178.176C70.6354 178 69.3554 178.304 69.3554 179.632C69.3554 180.496 70.0274 180.928 71.1634 180.928C72.6674 180.928 73.6594 180.368 74.1874 179.6ZM78.4013 170.192H80.3693V182H78.4013V170.192ZM86.7644 173.232C89.4684 173.232 91.6444 174.832 91.4204 178.368H83.7404C83.9644 179.824 85.0044 180.784 86.7964 180.784C88.4604 180.784 89.1644 179.984 89.4524 179.376H91.1804C90.7484 181.12 89.0844 182.24 86.7964 182.24C84.3644 182.24 81.9644 180.848 81.9644 177.744C81.9644 174.688 84.3164 173.232 86.7644 173.232ZM83.7884 176.928H89.6604C89.4044 175.584 88.4764 174.688 86.7644 174.688C85.1804 174.688 84.0924 175.584 83.7884 176.928ZM107.363 182L106.227 179.504H99.8105L98.6905 182H96.5625L101.747 170.8H104.307L109.491 182H107.363ZM100.563 177.84H105.491L103.027 172.352L100.563 177.84ZM115.708 173.232C118.204 173.232 120.14 174.848 120.14 177.744C120.14 180.624 118.204 182.24 115.708 182.24C114.268 182.24 113.244 181.696 112.572 180.88V182H110.604V170.8H112.572V174.592C113.244 173.776 114.268 173.232 115.708 173.232ZM115.324 180.784C117.372 180.784 118.316 179.536 118.316 177.744C118.316 175.936 117.388 174.688 115.324 174.688C113.26 174.688 112.284 175.968 112.284 177.744C112.284 179.504 113.276 180.784 115.324 180.784ZM128.657 170.8H130.625V182H128.657V180.88C127.985 181.696 126.961 182.24 125.537 182.24C123.041 182.24 121.105 180.624 121.105 177.744C121.105 174.848 123.041 173.232 125.537 173.232C126.961 173.232 127.985 173.776 128.657 174.592V170.8ZM125.921 180.784C127.953 180.784 128.961 179.504 128.961 177.744C128.961 175.968 127.985 174.688 125.921 174.688C123.841 174.688 122.929 175.936 122.929 177.744C122.929 179.536 123.873 180.784 125.921 180.784ZM132.87 182V173.472H134.838V182H132.87ZM133.846 172.288C133.238 172.288 132.806 171.936 132.806 171.328C132.806 170.72 133.238 170.368 133.846 170.368C134.47 170.368 134.902 170.72 134.902 171.328C134.902 171.936 134.47 172.288 133.846 172.288ZM141.345 180.784C143.073 180.784 143.937 179.776 144.177 178.816H146.017C145.601 181.088 143.649 182.24 141.345 182.24C138.849 182.24 136.433 180.896 136.433 177.744C136.433 174.592 138.849 173.232 141.345 173.232C143.649 173.232 145.601 174.384 146.017 176.656H144.177C143.937 175.696 143.073 174.688 141.345 174.688C139.057 174.688 138.241 176.24 138.241 177.744C138.241 179.232 139.057 180.784 141.345 180.784ZM152.852 173.232C155.076 173.232 156.292 174.496 156.292 176.48V182H154.324V177.072C154.324 175.632 153.54 174.832 151.988 174.832C150.436 174.832 149.588 175.728 149.588 177.072V182H147.62V170.8H149.588V174.784C149.988 174.224 151.076 173.232 152.852 173.232ZM163.782 174.976H161.206V178.816C161.206 180.256 161.782 180.656 163.782 180.448V181.984C163.494 182.064 163.062 182.128 162.662 182.128C160.07 182.128 159.238 181.072 159.238 178.816V174.976H157.574V173.472H159.238V171.264H161.206V173.472H163.782V174.976ZM172.402 173.472H174.37V182H172.402V180.688C172.002 181.248 170.914 182.24 169.138 182.24C166.914 182.24 165.698 180.976 165.698 178.992V173.472H167.666V178.4C167.666 179.84 168.45 180.64 170.002 180.64C171.554 180.64 172.402 179.744 172.402 178.4V173.472ZM181.836 173.232C184.06 173.232 185.276 174.496 185.276 176.48V182H183.308V177.072C183.308 175.632 182.524 174.832 180.972 174.832C179.42 174.832 178.572 175.728 178.572 177.072V182H176.604V173.472H178.572V174.784C178.972 174.224 180.06 173.232 181.836 173.232ZM194.439 173.472H196.407V181.184C196.407 184.48 193.895 184.976 191.447 184.976C188.775 184.976 187.175 184.032 186.999 182.416H188.823C188.951 182.928 189.591 183.488 191.447 183.488C193.831 183.488 194.439 182.72 194.439 181.184V180.24C193.815 180.992 192.807 181.472 191.303 181.472C188.823 181.472 186.871 180.24 186.871 177.44C186.871 174.624 188.823 173.232 191.303 173.232C192.807 173.232 193.815 173.792 194.439 174.624V173.472ZM191.687 180.192C193.527 180.192 194.743 179.2 194.743 177.44C194.743 175.664 193.559 174.688 191.687 174.688C189.831 174.688 188.695 175.632 188.695 177.44C188.695 179.232 189.847 180.192 191.687 180.192Z" fill="black"/>
</svg>
