<svg width="132" height="129" viewBox="0 0 132 129" fill="none" xmlns="http://www.w3.org/2000/svg">
<rect width="132" height="129" rx="10" fill="white"/>
<path d="M31.1983 120.752H37.0663V122H29.0023V120.98L34.7623 114.848H29.2303V113.6H36.9463V114.632L31.1983 120.752ZM43.5399 115.604H45.0159V122H43.5399V121.016C43.2399 121.436 42.4239 122.18 41.0919 122.18C39.4239 122.18 38.5119 121.232 38.5119 119.744V115.604H39.9879V119.3C39.9879 120.38 40.5759 120.98 41.7399 120.98C42.9039 120.98 43.5399 120.308 43.5399 119.3V115.604ZM51.8876 115.604H53.3636V121.388C53.3636 123.86 51.4796 124.232 49.6436 124.232C47.6396 124.232 46.4396 123.524 46.3076 122.312H47.6756C47.7716 122.696 48.2516 123.116 49.6436 123.116C51.4316 123.116 51.8876 122.54 51.8876 121.388V120.68C51.4196 121.244 50.6636 121.604 49.5356 121.604C47.6756 121.604 46.2116 120.68 46.2116 118.58C46.2116 116.468 47.6756 115.424 49.5356 115.424C50.6636 115.424 51.4196 115.844 51.8876 116.468V115.604ZM49.8236 120.644C51.2036 120.644 52.1156 119.9 52.1156 118.58C52.1156 117.248 51.2276 116.516 49.8236 116.516C48.4316 116.516 47.5796 117.224 47.5796 118.58C47.5796 119.924 48.4436 120.644 49.8236 120.644ZM58.419 118.256C60.231 118.568 61.251 118.808 61.251 120.068C61.251 121.556 60.015 122.18 57.879 122.18C55.935 122.18 54.447 121.508 54.447 120.056H55.971C55.971 120.752 56.655 121.064 57.999 121.064C59.307 121.064 59.775 120.74 59.775 120.26C59.775 119.552 58.707 119.54 57.075 119.24C55.419 118.928 54.687 118.544 54.687 117.404C54.687 116.12 55.887 115.424 57.771 115.424C59.823 115.424 60.927 116.24 60.927 117.428H59.547C59.547 117.02 59.115 116.516 57.747 116.516C56.463 116.516 56.019 116.84 56.019 117.332C56.019 117.98 57.279 118.064 58.419 118.256ZM67.226 115.604H68.774L64.934 124.004H63.47L64.466 121.772L61.49 115.604H63.038L65.162 120.224L67.226 115.604ZM72.9972 118.256C74.8092 118.568 75.8292 118.808 75.8292 120.068C75.8292 121.556 74.5932 122.18 72.4572 122.18C70.5132 122.18 69.0252 121.508 69.0252 120.056H70.5492C70.5492 120.752 71.2332 121.064 72.5772 121.064C73.8852 121.064 74.3532 120.74 74.3532 120.26C74.3532 119.552 73.2852 119.54 71.6532 119.24C69.9972 118.928 69.2652 118.544 69.2652 117.404C69.2652 116.12 70.4652 115.424 72.3492 115.424C74.4012 115.424 75.5052 116.24 75.5052 117.428H74.1252C74.1252 117.02 73.6932 116.516 72.3252 116.516C71.0412 116.516 70.5972 116.84 70.5972 117.332C70.5972 117.98 71.8572 118.064 72.9972 118.256ZM80.973 116.732H79.041V119.612C79.041 120.692 79.473 120.992 80.973 120.836V121.988C80.757 122.048 80.433 122.096 80.133 122.096C78.189 122.096 77.565 121.304 77.565 119.612V116.732H76.317V115.604H77.565V113.948H79.041V115.604H80.973V116.732ZM85.4131 115.424C87.4411 115.424 89.0731 116.624 88.9051 119.276H83.1451C83.3131 120.368 84.0931 121.088 85.4371 121.088C86.6851 121.088 87.2131 120.488 87.4291 120.032H88.7251C88.4011 121.34 87.1531 122.18 85.4371 122.18C83.6131 122.18 81.8131 121.136 81.8131 118.808C81.8131 116.516 83.5771 115.424 85.4131 115.424ZM83.1811 118.196H87.5851C87.3931 117.188 86.6971 116.516 85.4131 116.516C84.2251 116.516 83.4091 117.188 83.1811 118.196ZM98.2813 115.424C99.9493 115.424 100.753 116.372 100.753 117.86V122H99.2653V118.304C99.2653 117.224 98.8693 116.624 97.7413 116.624C96.6253 116.624 96.1693 117.344 96.1693 118.304V122H94.6933V118.304C94.6933 117.224 94.2853 116.624 93.1693 116.624C92.0533 116.624 91.5973 117.344 91.5973 118.304V122H90.1213V115.604H91.5973V116.54C91.8373 116.12 92.4492 115.424 93.6973 115.424C94.8013 115.424 95.5213 115.832 95.8813 116.54C96.2053 116.108 96.9973 115.424 98.2813 115.424Z" fill="black"/>
<path fill-rule="evenodd" clip-rule="evenodd" d="M92.8519 8C93.4667 14.6722 92.215 21.059 91.5123 27.7311C90.4802 38.2222 88.0646 49.0425 89.3602 58.963C91.7539 69.5418 91.7099 82.118 89.7116 93.2016H88.5257C90.5241 82.3594 90.6119 69.9369 88.2183 59.2483C86.8787 50.4252 88.8112 41.4486 89.6896 32.6475C90.4143 26.7435 91.2049 20.8615 91.688 14.8916" fill="black"/>
<path fill-rule="evenodd" clip-rule="evenodd" d="M54.9702 94.4497L55.1898 93.0451C56.2659 84.4195 57.6274 75.4868 55.9584 66.8612L56.0682 66.5759C56.6172 65.3688 56.9686 63.9641 57.276 62.6692C59.8014 51.5855 60.6799 40.2165 62.6343 29.0012C62.7221 28.4525 62.8319 27.9038 62.9198 27.3551C63.4249 24.436 63.93 21.495 64.6546 18.6198C64.7425 18.2686 65.8405 14.0327 65.9503 13.5938C68.871 23.8215 70.2325 34.4662 71.7038 44.9573C72.5603 50.7515 73.263 56.5457 74.5806 62.2083C74.8661 63.6349 75.2614 65.2371 75.8324 66.5979L76.008 66.8832C74.3391 75.5965 75.5249 84.5293 76.5351 93.2426H75.3492C74.9759 90.3674 74.6465 87.5361 74.4049 84.7488C73.8559 78.4278 73.7242 72.5677 74.7343 67.0588C70.1008 51.8489 69.947 33.6541 65.9503 18.2906C65.1817 21.2097 64.435 25.0505 63.8202 28.8036C61.7339 39.9312 61.0751 52.3756 58.2423 63.4154C57.7152 65.5005 57.3858 67.6294 57.6274 69.7584C58.4619 77.1109 57.3858 85.1438 56.3976 92.7158" fill="black"/>
<path fill-rule="evenodd" clip-rule="evenodd" d="M39.0714 8.0625C38.4785 20.485 41.7505 34.0049 42.563 46.1201C42.9144 50.5975 43.3317 55.1626 42.563 58.9816C40.0596 70.1311 40.2133 83.5193 42.563 94.998L43.9465 96.271C41.6627 85.0776 41.1796 70.4164 43.705 59.223C45.0445 50.3122 43.0462 41.1818 42.1678 32.271C41.465 26.4768 40.6964 20.7045 40.2133 14.8663" fill="black"/>
<path d="M88.4503 96.4946C87.1327 100.16 83.8386 102.311 80.9179 102.311C72.1558 102.311 73.6711 78.5852 73.6711 75.1174C73.6711 72.33 74.1103 68.6208 74.3519 66.9748C73.6272 65.7018 72.5731 60.127 72.0241 56.6592C71.5849 53.8719 69.1693 37.9597 68.0054 30.3438H91.2172C90.9757 31.6826 90.3388 35.7868 89.7459 41.4933C89.0212 48.5385 89.5483 54.1572 90.9757 69.3232L91.0196 69.806C92.469 85.3232 90.1192 91.9075 88.4722 96.4727L88.4503 96.4946Z" fill="#D3D3D5"/>
<path d="M91.5161 30.0938L91.4634 30.3877C91.2231 31.7192 90.587 35.818 89.9946 41.5195C89.3633 47.6578 89.6849 52.706 90.7319 64.0371L91.2241 69.2998L91.2251 69.3008L91.269 69.7832H91.2681C91.9942 77.5573 91.7704 83.1034 91.1548 87.2832C90.5389 91.4648 89.5324 94.2712 88.7075 96.5576L88.688 96.6104L88.6636 96.6338C87.3001 100.356 83.9374 102.561 80.9175 102.561C78.5864 102.56 76.9719 100.973 75.8638 98.6572C74.7555 96.3408 74.1195 93.2338 73.7603 90.043C73.0417 83.6595 73.4214 76.8311 73.4214 75.1172C73.4214 72.3566 73.8489 68.7077 74.0933 67.0195C73.9076 66.6611 73.7131 66.0806 73.519 65.3799C73.3079 64.6174 73.0893 63.6878 72.8774 62.6924C72.5596 61.1988 72.2542 59.551 72.0054 58.0879L71.7769 56.6982C71.3375 53.9102 68.922 37.9968 67.7583 30.3818L67.7144 30.0938H91.5161ZM73.9214 75.1172C73.9214 76.871 73.543 83.6401 74.2573 89.9863C74.6146 93.1601 75.2431 96.201 76.3149 98.4414C77.3869 100.682 78.868 102.06 80.9175 102.061C83.7241 102.061 86.9304 99.9846 88.2153 96.4102L88.2339 96.3574L88.2554 96.335C89.0737 94.0663 90.056 91.3091 90.6597 87.21C91.2303 83.3354 91.4639 78.2548 90.895 71.2549L90.771 69.8291L90.7271 69.3467L90.2349 64.0869C89.1875 52.7549 88.8608 47.6584 89.4976 41.4678L89.7212 39.4033C90.2056 35.1127 90.6838 31.9697 90.9204 30.5938H68.2964C69.4762 38.3162 71.8373 53.8675 72.271 56.6201C72.545 58.3509 72.9451 60.607 73.3667 62.5879C73.5775 63.5786 73.7931 64.498 74.0005 65.2471C74.2101 66.0039 74.405 66.5626 74.5688 66.8506L74.6118 66.9258L74.5991 67.0107C74.3581 68.6529 73.9214 72.3481 73.9214 75.1172Z" fill="black"/>
<path d="M85.1787 40.4531V43.3545H78.543V40.4531H85.1787ZM78.832 43.0645H84.8887V40.7422H78.832V43.0645Z" fill="black"/>
<path d="M88.0054 96.75L88.0054 97.25L75.0054 97.25L75.0054 96.75L88.0054 96.75Z" fill="black"/>
<path d="M83.8917 41.7969H79.8291V103.668H83.8917V41.7969Z" fill="white"/>
<path d="M84.0371 41.6562V103.816H79.6846V41.6562H84.0371ZM79.9736 103.526H83.7471V41.9453H79.9736V103.526Z" fill="black"/>
</svg>
