<svg width="217" height="195" viewBox="0 0 217 195" fill="none" xmlns="http://www.w3.org/2000/svg">
<rect x="8.52372e-06" y="2.47442e-05" width="217" height="195" rx="10" fill="#D9D9D9"/>
<g clip-path="url(#clip0_4141_659)">
<path fill-rule="evenodd" clip-rule="evenodd" d="M143.795 28C144.615 36.7572 142.946 45.1399 142.009 53.8971C140.633 67.6667 137.412 81.8683 139.139 94.8889C142.331 108.774 142.272 125.28 139.608 139.827H138.027C140.691 125.597 140.808 109.292 137.617 95.2634C135.831 83.6832 138.407 71.9013 139.579 60.3498C140.545 52.6008 141.599 44.8807 142.243 37.0453" fill="#1D1D1B"/>
<path fill-rule="evenodd" clip-rule="evenodd" d="M93.2867 141.469L93.5795 139.626C95.0142 128.305 96.8296 116.58 94.6043 105.259L94.7507 104.885C95.4827 103.3 95.9512 101.457 96.3611 99.7572C99.7283 85.2099 100.9 70.2881 103.505 55.5679C103.623 54.8478 103.769 54.1276 103.886 53.4075C104.56 49.5762 105.233 45.7161 106.199 41.9424C106.316 41.4815 107.78 35.9219 107.927 35.3457C111.821 48.7696 113.636 62.7408 115.598 76.5103C116.74 84.1153 117.677 91.7202 119.434 99.1523C119.815 101.025 120.342 103.128 121.103 104.914L121.337 105.288C119.112 116.724 120.693 128.449 122.04 139.885H120.459C119.961 136.111 119.522 132.395 119.2 128.737C118.468 120.44 118.292 112.749 119.639 105.519C113.461 85.5556 113.256 61.6749 107.927 41.5103C106.902 45.3416 105.906 50.3828 105.087 55.3087C102.305 69.9136 101.427 86.247 97.6495 100.737C96.9467 103.473 96.5075 106.268 96.8296 109.062C97.9423 118.712 96.5075 129.255 95.1899 139.193" fill="#1D1D1B"/>
<path fill-rule="evenodd" clip-rule="evenodd" d="M72.0878 28.086C71.2973 44.3905 75.66 62.1353 76.7434 78.0366C77.2119 83.9131 77.7682 89.9049 76.7434 94.9172C73.4055 109.551 73.6104 127.123 76.7434 142.189L78.588 143.86C75.5429 129.168 74.8987 109.925 78.266 95.2341C80.0521 83.5386 77.3876 71.5551 76.2164 59.8596C75.2794 52.2547 74.2546 44.6786 73.6104 37.016" fill="#1D1D1B"/>
<path d="M138.759 144.147C137.002 148.958 132.61 151.781 128.716 151.781C117.033 151.781 119.053 120.641 119.053 116.09C119.053 112.431 119.639 107.563 119.961 105.402C118.995 103.732 117.589 96.4148 116.857 91.8633C116.272 88.2049 113.051 67.3201 111.499 57.3242H142.448C142.126 59.0814 141.277 64.4683 140.486 71.958C139.52 81.2049 140.223 88.5794 142.126 108.485L142.185 109.118C144.117 129.485 140.984 138.127 138.788 144.118L138.759 144.147Z" fill="#D3D3D5" stroke="#1D1D1B" stroke-width="0.5" stroke-miterlimit="10"/>
<path d="M133.371 70.7774H124.909V74.2054H133.371V70.7774Z" stroke="#050A0A" stroke-width="0.29" stroke-miterlimit="10"/>
<path d="M122.538 146.453H138.32" stroke="#1D1D1B" stroke-width="0.5" stroke-miterlimit="10"/>
<path d="M131.849 72.3614H126.432V153.567H131.849V72.3614Z" fill="white" stroke="#050A0A" stroke-width="0.29" stroke-miterlimit="10"/>
</g>
<path d="M62.9311 180.336H70.7551V182H60.0031V180.64L67.6831 172.464H60.3071V170.8H70.5951V172.176L62.9311 180.336ZM79.3865 173.472H81.3545V182H79.3865V180.688C78.9865 181.248 77.8985 182.24 76.1225 182.24C73.8985 182.24 72.6825 180.976 72.6825 178.992V173.472H74.6505V178.4C74.6505 179.84 75.4345 180.64 76.9865 180.64C78.5385 180.64 79.3865 179.744 79.3865 178.4V173.472ZM90.5168 173.472H92.4848V181.184C92.4848 184.48 89.9728 184.976 87.5248 184.976C84.8528 184.976 83.2528 184.032 83.0768 182.416H84.9008C85.0288 182.928 85.6688 183.488 87.5248 183.488C89.9088 183.488 90.5168 182.72 90.5168 181.184V180.24C89.8928 180.992 88.8848 181.472 87.3808 181.472C84.9008 181.472 82.9488 180.24 82.9488 177.44C82.9488 174.624 84.9008 173.232 87.3808 173.232C88.8848 173.232 89.8928 173.792 90.5168 174.624V173.472ZM87.7648 180.192C89.6048 180.192 90.8208 179.2 90.8208 177.44C90.8208 175.664 89.6368 174.688 87.7648 174.688C85.9088 174.688 84.7728 175.632 84.7728 177.44C84.7728 179.232 85.9248 180.192 87.7648 180.192ZM99.2254 177.008C101.641 177.424 103.001 177.744 103.001 179.424C103.001 181.408 101.353 182.24 98.5054 182.24C95.9134 182.24 93.9294 181.344 93.9294 179.408H95.9614C95.9614 180.336 96.8734 180.752 98.6654 180.752C100.409 180.752 101.033 180.32 101.033 179.68C101.033 178.736 99.6094 178.72 97.4334 178.32C95.2254 177.904 94.2494 177.392 94.2494 175.872C94.2494 174.16 95.8494 173.232 98.3614 173.232C101.097 173.232 102.569 174.32 102.569 175.904H100.729C100.729 175.36 100.153 174.688 98.3294 174.688C96.6174 174.688 96.0254 175.12 96.0254 175.776C96.0254 176.64 97.7054 176.752 99.2254 177.008ZM110.968 173.472H113.032L107.912 184.672H105.96L107.288 181.696L103.32 173.472H105.384L108.216 179.632L110.968 173.472ZM118.663 177.008C121.079 177.424 122.439 177.744 122.439 179.424C122.439 181.408 120.791 182.24 117.943 182.24C115.351 182.24 113.367 181.344 113.367 179.408H115.399C115.399 180.336 116.311 180.752 118.103 180.752C119.847 180.752 120.471 180.32 120.471 179.68C120.471 178.736 119.047 178.72 116.871 178.32C114.663 177.904 113.687 177.392 113.687 175.872C113.687 174.16 115.287 173.232 117.799 173.232C120.535 173.232 122.007 174.32 122.007 175.904H120.167C120.167 175.36 119.591 174.688 117.767 174.688C116.055 174.688 115.463 175.12 115.463 175.776C115.463 176.64 117.143 176.752 118.663 177.008ZM129.297 174.976H126.721V178.816C126.721 180.256 127.297 180.656 129.297 180.448V181.984C129.009 182.064 128.577 182.128 128.177 182.128C125.585 182.128 124.753 181.072 124.753 178.816V174.976H123.089V173.472H124.753V171.264H126.721V173.472H129.297V174.976ZM135.218 173.232C137.922 173.232 140.098 174.832 139.874 178.368H132.194C132.418 179.824 133.458 180.784 135.25 180.784C136.914 180.784 137.618 179.984 137.906 179.376H139.634C139.202 181.12 137.538 182.24 135.25 182.24C132.818 182.24 130.418 180.848 130.418 177.744C130.418 174.688 132.77 173.232 135.218 173.232ZM132.242 176.928H138.114C137.858 175.584 136.93 174.688 135.218 174.688C133.634 174.688 132.546 175.584 132.242 176.928ZM152.375 173.232C154.599 173.232 155.671 174.496 155.671 176.48V182H153.687V177.072C153.687 175.632 153.159 174.832 151.655 174.832C150.167 174.832 149.559 175.792 149.559 177.072V182H147.591V177.072C147.591 175.632 147.047 174.832 145.559 174.832C144.071 174.832 143.463 175.792 143.463 177.072V182H141.495V173.472H143.463V174.72C143.783 174.16 144.599 173.232 146.263 173.232C147.735 173.232 148.695 173.776 149.175 174.72C149.607 174.144 150.663 173.232 152.375 173.232Z" fill="black"/>
<defs>
<clipPath id="clip0_4141_659">
<rect width="72" height="126" fill="white" transform="translate(72 28)"/>
</clipPath>
</defs>
</svg>
