<svg width="217" height="195" viewBox="0 0 217 195" fill="none" xmlns="http://www.w3.org/2000/svg">
<rect width="217" height="195" rx="10" fill="#D9D9D9"/>
<g clip-path="url(#clip0_4141_599)">
<path fill-rule="evenodd" clip-rule="evenodd" d="M144.674 26C145.504 35.0053 143.814 43.6255 142.866 52.6309C141.473 66.7906 138.213 81.3946 139.961 94.7841C143.192 109.062 143.133 126.036 140.436 140.996H138.835C141.532 126.362 141.651 109.595 138.42 95.1692C136.612 83.2608 139.22 71.1451 140.406 59.2664C141.384 51.2978 142.451 43.3589 143.103 35.3016" fill="#1D1D1B"/>
<path fill-rule="evenodd" clip-rule="evenodd" d="M93.5473 142.685L93.8437 140.789C95.296 129.147 97.1336 117.091 94.881 105.449L95.0292 105.064C95.7702 103.435 96.2444 101.539 96.6594 99.7912C100.068 84.8317 101.253 69.4871 103.891 54.3499C104.01 53.6093 104.158 52.8687 104.276 52.1282C104.958 48.1883 105.64 44.2189 106.618 40.3383C106.737 39.8643 108.218 34.1471 108.367 33.5547C112.309 47.3589 114.146 61.7259 116.132 75.8856C117.288 83.706 118.236 91.5265 120.015 99.1691C120.4 101.095 120.933 103.257 121.704 105.094L121.941 105.479C119.689 117.239 121.289 129.295 122.652 141.056H121.052C120.548 137.175 120.104 133.354 119.778 129.592C119.037 121.06 118.859 113.151 120.222 105.716C113.968 85.1872 113.761 60.6299 108.367 39.894C107.329 43.8338 106.322 49.0178 105.492 54.0833C102.676 69.102 101.787 85.8981 97.9635 100.798C97.2521 103.613 96.8076 106.486 97.1336 109.359C98.2598 119.283 96.8076 130.125 95.4738 140.345" fill="#1D1D1B"/>
<path fill-rule="evenodd" clip-rule="evenodd" d="M72.0889 26.0898C71.2887 42.8563 75.7048 61.104 76.8015 77.4557C77.2757 83.4988 77.8388 89.6603 76.8015 94.8147C73.4227 109.863 73.6301 127.933 76.8015 143.426L78.6687 145.144C75.5863 130.036 74.9342 110.248 78.3427 95.1405C80.1506 83.1137 77.4535 70.7906 76.268 58.7638C75.3195 50.9434 74.2822 43.1526 73.6301 35.2729" fill="#1D1D1B"/>
<path d="M139.398 145.439C137.62 150.386 133.174 153.289 129.232 153.289C117.406 153.289 119.451 121.267 119.451 116.587C119.451 112.825 120.044 107.818 120.37 105.597C119.392 103.879 117.97 96.3544 117.229 91.674C116.636 87.9119 113.376 66.4354 111.805 56.1562H143.133C142.807 57.9632 141.947 63.5027 141.147 71.2046C140.169 80.7135 140.88 88.297 142.807 108.766L142.866 109.418C144.822 130.361 141.651 139.248 139.428 145.41L139.398 145.439Z" fill="#D3D3D5" stroke="#1D1D1B" stroke-width="0.5" stroke-miterlimit="10"/>
<path d="M122.356 147.809H138.302" stroke="#1D1D1B" stroke-width="0.5" stroke-miterlimit="10"/>
<path d="M109.878 47.9495L144.229 47.5645L142.451 88.0292H114.413C114.413 88.0292 109.878 63.5607 109.878 47.9495Z" fill="white" stroke="#1D1D1B" stroke-width="0.5" stroke-miterlimit="10"/>
</g>
<path d="M13.3402 172.94C16.3102 173.345 18.0952 173.795 18.0952 175.835C18.0952 177.815 16.6102 179.225 12.9352 179.225C9.02016 179.225 7.46016 177.77 7.46016 175.88H9.44016C9.50016 176.975 10.7302 177.665 12.9952 177.665C14.9452 177.665 16.1752 177.185 16.1752 176.06C16.1752 174.8 14.4352 174.905 11.5102 174.425C8.99016 174.02 7.82016 173.21 7.82016 171.5C7.82016 169.67 9.15516 168.29 12.6202 168.29C16.2202 168.29 17.5852 169.925 17.5852 171.425H15.6952C15.6052 170.66 14.8102 169.85 12.5752 169.85C10.2352 169.85 9.68016 170.555 9.68016 171.365C9.68016 172.505 11.0902 172.625 13.3402 172.94ZM25.877 171.005H27.722V179H25.877V177.77C25.502 178.295 24.482 179.225 22.817 179.225C20.732 179.225 19.592 178.04 19.592 176.18V171.005H21.437V175.625C21.437 176.975 22.172 177.725 23.627 177.725C25.082 177.725 25.877 176.885 25.877 175.625V171.005ZM34.0316 174.32C36.2966 174.71 37.5716 175.01 37.5716 176.585C37.5716 178.445 36.0266 179.225 33.3566 179.225C30.9266 179.225 29.0666 178.385 29.0666 176.57H30.9716C30.9716 177.44 31.8266 177.83 33.5066 177.83C35.1416 177.83 35.7266 177.425 35.7266 176.825C35.7266 175.94 34.3916 175.925 32.3516 175.55C30.2816 175.16 29.3666 174.68 29.3666 173.255C29.3666 171.65 30.8666 170.78 33.2216 170.78C35.7866 170.78 37.1666 171.8 37.1666 173.285H35.4416C35.4416 172.775 34.9016 172.145 33.1916 172.145C31.5866 172.145 31.0316 172.55 31.0316 173.165C31.0316 173.975 32.6066 174.08 34.0316 174.32ZM43.8444 170.78C46.1844 170.78 47.9994 172.295 47.9994 175.01C47.9994 177.71 46.1844 179.225 43.8444 179.225C42.5094 179.225 41.5494 178.715 40.9194 177.95V181.505H39.0744V171.005H40.9194V172.055C41.5494 171.29 42.5094 170.78 43.8444 170.78ZM43.4844 177.86C45.4344 177.86 46.2894 176.69 46.2894 175.01C46.2894 173.315 45.4044 172.145 43.4844 172.145C41.5644 172.145 40.6344 173.345 40.6344 175.01C40.6344 176.66 41.5494 177.86 43.4844 177.86ZM53.4041 170.78C55.9391 170.78 57.9791 172.28 57.7691 175.595H50.5691C50.7791 176.96 51.7541 177.86 53.4341 177.86C54.9941 177.86 55.6541 177.11 55.9241 176.54H57.5441C57.1391 178.175 55.5791 179.225 53.4341 179.225C51.1541 179.225 48.9041 177.92 48.9041 175.01C48.9041 172.145 51.1091 170.78 53.4041 170.78ZM50.6141 174.245H56.1191C55.8791 172.985 55.0091 172.145 53.4041 172.145C51.9191 172.145 50.8991 172.985 50.6141 174.245ZM64.1943 170.78C66.2793 170.78 67.4193 171.965 67.4193 173.825V179H65.5743V174.38C65.5743 173.03 64.8393 172.28 63.3843 172.28C61.9293 172.28 61.1343 173.12 61.1343 174.38V179H59.2893V171.005H61.1343V172.235C61.5093 171.71 62.5293 170.78 64.1943 170.78ZM73.7289 174.32C75.9939 174.71 77.2689 175.01 77.2689 176.585C77.2689 178.445 75.7239 179.225 73.0539 179.225C70.6239 179.225 68.7639 178.385 68.7639 176.57H70.6689C70.6689 177.44 71.5239 177.83 73.2039 177.83C74.8389 177.83 75.4239 177.425 75.4239 176.825C75.4239 175.94 74.0889 175.925 72.0489 175.55C69.9789 175.16 69.0639 174.68 69.0639 173.255C69.0639 171.65 70.5639 170.78 72.9189 170.78C75.4839 170.78 76.8639 171.8 76.8639 173.285H75.1389C75.1389 172.775 74.5989 172.145 72.8889 172.145C71.2839 172.145 70.7289 172.55 70.7289 173.165C70.7289 173.975 72.3039 174.08 73.7289 174.32ZM78.7717 179V171.005H80.6167V179H78.7717ZM79.6867 169.895C79.1167 169.895 78.7117 169.565 78.7117 168.995C78.7117 168.425 79.1167 168.095 79.6867 168.095C80.2717 168.095 80.6767 168.425 80.6767 168.995C80.6767 169.565 80.2717 169.895 79.6867 169.895ZM86.6871 170.78C89.0271 170.78 91.2771 172.055 91.2771 175.01C91.2771 177.965 89.0271 179.225 86.6871 179.225C84.3471 179.225 82.1121 177.965 82.1121 175.01C82.1121 172.055 84.3471 170.78 86.6871 170.78ZM86.6871 177.86C88.8321 177.86 89.5671 176.405 89.5671 175.01C89.5671 173.6 88.8321 172.145 86.6871 172.145C84.5421 172.145 83.8071 173.6 83.8071 175.01C83.8071 176.405 84.5421 177.86 86.6871 177.86ZM97.6806 170.78C99.7656 170.78 100.906 171.965 100.906 173.825V179H99.0606V174.38C99.0606 173.03 98.3256 172.28 96.8706 172.28C95.4156 172.28 94.6206 173.12 94.6206 174.38V179H92.7756V171.005H94.6206V172.235C94.9956 171.71 96.0156 170.78 97.6806 170.78ZM107.215 174.32C109.48 174.71 110.755 175.01 110.755 176.585C110.755 178.445 109.21 179.225 106.54 179.225C104.11 179.225 102.25 178.385 102.25 176.57H104.155C104.155 177.44 105.01 177.83 106.69 177.83C108.325 177.83 108.91 177.425 108.91 176.825C108.91 175.94 107.575 175.925 105.535 175.55C103.465 175.16 102.55 174.68 102.55 173.255C102.55 171.65 104.05 170.78 106.405 170.78C108.97 170.78 110.35 171.8 110.35 173.285H108.625C108.625 172.775 108.085 172.145 106.375 172.145C104.77 172.145 104.215 172.55 104.215 173.165C104.215 173.975 105.79 174.08 107.215 174.32ZM122.458 170.78C124.543 170.78 125.548 171.965 125.548 173.825V179H123.688V174.38C123.688 173.03 123.193 172.28 121.783 172.28C120.388 172.28 119.818 173.18 119.818 174.38V179H117.973V174.38C117.973 173.03 117.463 172.28 116.068 172.28C114.673 172.28 114.103 173.18 114.103 174.38V179H112.258V171.005H114.103V172.175C114.403 171.65 115.168 170.78 116.728 170.78C118.108 170.78 119.008 171.29 119.458 172.175C119.863 171.635 120.853 170.78 122.458 170.78ZM131.239 170.78C133.444 170.78 135.319 171.515 135.319 173.81V179H133.474V177.965C133.084 178.415 132.124 179.225 130.249 179.225C128.329 179.225 127.054 178.43 127.054 176.9C127.054 175.25 127.954 173.945 133.474 174.305V173.81C133.474 172.7 132.904 172.145 131.239 172.145C129.814 172.145 129.229 172.61 129.094 173.285H127.369C127.609 171.605 129.169 170.78 131.239 170.78ZM133.474 176.75V175.415C130.144 175.25 128.944 175.535 128.944 176.78C128.944 177.59 129.574 177.995 130.639 177.995C132.049 177.995 132.979 177.47 133.474 176.75ZM142.329 170.78C144.414 170.78 145.554 171.965 145.554 173.825V179H143.709V174.38C143.709 173.03 142.974 172.28 141.519 172.28C140.064 172.28 139.269 173.12 139.269 174.38V179H137.424V171.005H139.269V172.235C139.644 171.71 140.664 170.78 142.329 170.78ZM151.864 174.32C154.129 174.71 155.404 175.01 155.404 176.585C155.404 178.445 153.859 179.225 151.189 179.225C148.759 179.225 146.899 178.385 146.899 176.57H148.804C148.804 177.44 149.659 177.83 151.339 177.83C152.974 177.83 153.559 177.425 153.559 176.825C153.559 175.94 152.224 175.925 150.184 175.55C148.114 175.16 147.199 174.68 147.199 173.255C147.199 171.65 148.699 170.78 151.054 170.78C153.619 170.78 154.999 171.8 154.999 173.285H153.274C153.274 172.775 152.734 172.145 151.024 172.145C149.419 172.145 148.864 172.55 148.864 173.165C148.864 173.975 150.439 174.08 151.864 174.32ZM160.911 177.86C162.531 177.86 163.341 176.915 163.566 176.015H165.291C164.901 178.145 163.071 179.225 160.911 179.225C158.571 179.225 156.306 177.965 156.306 175.01C156.306 172.055 158.571 170.78 160.911 170.78C163.071 170.78 164.901 171.86 165.291 173.99H163.566C163.341 173.09 162.531 172.145 160.911 172.145C158.766 172.145 158.001 173.6 158.001 175.01C158.001 176.405 158.766 177.86 160.911 177.86ZM171.699 170.78C173.784 170.78 174.924 171.965 174.924 173.825V179H173.079V174.38C173.079 173.03 172.344 172.28 170.889 172.28C169.434 172.28 168.639 173.12 168.639 174.38V179H166.794V168.5H168.639V172.235C169.014 171.71 170.034 170.78 171.699 170.78ZM180.919 170.78C183.454 170.78 185.494 172.28 185.284 175.595H178.084C178.294 176.96 179.269 177.86 180.949 177.86C182.509 177.86 183.169 177.11 183.439 176.54H185.059C184.654 178.175 183.094 179.225 180.949 179.225C178.669 179.225 176.419 177.92 176.419 175.01C176.419 172.145 178.624 170.78 180.919 170.78ZM178.129 174.245H183.634C183.394 172.985 182.524 172.145 180.919 172.145C179.434 172.145 178.414 172.985 178.129 174.245ZM191.731 172.415H189.316V176.015C189.316 177.365 189.856 177.74 191.731 177.545V178.985C191.461 179.06 191.056 179.12 190.681 179.12C188.251 179.12 187.471 178.13 187.471 176.015V172.415H185.911V171.005H187.471V168.935H189.316V171.005H191.731V172.415ZM198.455 172.415H196.04V176.015C196.04 177.365 196.58 177.74 198.455 177.545V178.985C198.185 179.06 197.78 179.12 197.405 179.12C194.975 179.12 194.195 178.13 194.195 176.015V172.415H192.635V171.005H194.195V168.935H196.04V171.005H198.455V172.415ZM204.005 170.78C206.54 170.78 208.58 172.28 208.37 175.595H201.17C201.38 176.96 202.355 177.86 204.035 177.86C205.595 177.86 206.255 177.11 206.525 176.54H208.145C207.74 178.175 206.18 179.225 204.035 179.225C201.755 179.225 199.505 177.92 199.505 175.01C199.505 172.145 201.71 170.78 204.005 170.78ZM201.215 174.245H206.72C206.48 172.985 205.61 172.145 204.005 172.145C202.52 172.145 201.5 172.985 201.215 174.245Z" fill="black"/>
<defs>
<clipPath id="clip0_4141_599">
<rect width="73" height="128" fill="white" transform="translate(72 26)"/>
</clipPath>
</defs>
</svg>
