<svg width="132" height="129" viewBox="0 0 132 129" fill="none" xmlns="http://www.w3.org/2000/svg">
<rect width="132" height="129" rx="10" fill="white"/>
<path d="M9.20409 113.364C10.9861 113.607 12.0571 113.877 12.0571 115.101C12.0571 116.289 11.1661 117.135 8.96109 117.135C6.61209 117.135 5.67609 116.262 5.67609 115.128H6.86409C6.90009 115.785 7.63809 116.199 8.99709 116.199C10.1671 116.199 10.9051 115.911 10.9051 115.236C10.9051 114.48 9.86109 114.543 8.10609 114.255C6.59409 114.012 5.89209 113.526 5.89209 112.5C5.89209 111.402 6.69309 110.574 8.77209 110.574C10.9321 110.574 11.7511 111.555 11.7511 112.455H10.6171C10.5631 111.996 10.0861 111.51 8.74509 111.51C7.34109 111.51 7.00809 111.933 7.00809 112.419C7.00809 113.103 7.85409 113.175 9.20409 113.364ZM16.7262 112.203H17.8332V117H16.7262V116.262C16.5012 116.577 15.8892 117.135 14.8902 117.135C13.6392 117.135 12.9552 116.424 12.9552 115.308V112.203H14.0622V114.975C14.0622 115.785 14.5032 116.235 15.3762 116.235C16.2492 116.235 16.7262 115.731 16.7262 114.975V112.203ZM21.619 114.192C22.978 114.426 23.743 114.606 23.743 115.551C23.743 116.667 22.816 117.135 21.214 117.135C19.756 117.135 18.64 116.631 18.64 115.542H19.783C19.783 116.064 20.296 116.298 21.304 116.298C22.285 116.298 22.636 116.055 22.636 115.695C22.636 115.164 21.835 115.155 20.611 114.93C19.369 114.696 18.82 114.408 18.82 113.553C18.82 112.59 19.72 112.068 21.133 112.068C22.672 112.068 23.5 112.68 23.5 113.571H22.465C22.465 113.265 22.141 112.887 21.115 112.887C20.152 112.887 19.819 113.13 19.819 113.499C19.819 113.985 20.764 114.048 21.619 114.192ZM27.5066 112.068C28.9106 112.068 29.9996 112.977 29.9996 114.606C29.9996 116.226 28.9106 117.135 27.5066 117.135C26.7056 117.135 26.1296 116.829 25.7516 116.37V118.503H24.6446V112.203H25.7516V112.833C26.1296 112.374 26.7056 112.068 27.5066 112.068ZM27.2906 116.316C28.4606 116.316 28.9736 115.614 28.9736 114.606C28.9736 113.589 28.4426 112.887 27.2906 112.887C26.1386 112.887 25.5806 113.607 25.5806 114.606C25.5806 115.596 26.1296 116.316 27.2906 116.316ZM33.2425 112.068C34.7635 112.068 35.9875 112.968 35.8615 114.957H31.5415C31.6675 115.776 32.2525 116.316 33.2605 116.316C34.1965 116.316 34.5925 115.866 34.7545 115.524H35.7265C35.4835 116.505 34.5475 117.135 33.2605 117.135C31.8925 117.135 30.5425 116.352 30.5425 114.606C30.5425 112.887 31.8655 112.068 33.2425 112.068ZM31.5685 114.147H34.8715C34.7275 113.391 34.2055 112.887 33.2425 112.887C32.3515 112.887 31.7395 113.391 31.5685 114.147ZM39.7166 112.068C40.9676 112.068 41.6516 112.779 41.6516 113.895V117H40.5446V114.228C40.5446 113.418 40.1036 112.968 39.2306 112.968C38.3576 112.968 37.8806 113.472 37.8806 114.228V117H36.7736V112.203H37.8806V112.941C38.1056 112.626 38.7176 112.068 39.7166 112.068ZM45.4373 114.192C46.7963 114.426 47.5613 114.606 47.5613 115.551C47.5613 116.667 46.6343 117.135 45.0323 117.135C43.5743 117.135 42.4583 116.631 42.4583 115.542H43.6013C43.6013 116.064 44.1143 116.298 45.1223 116.298C46.1033 116.298 46.4543 116.055 46.4543 115.695C46.4543 115.164 45.6533 115.155 44.4293 114.93C43.1873 114.696 42.6383 114.408 42.6383 113.553C42.6383 112.59 43.5383 112.068 44.9513 112.068C46.4903 112.068 47.3183 112.68 47.3183 113.571H46.2833C46.2833 113.265 45.9593 112.887 44.9333 112.887C43.9703 112.887 43.6373 113.13 43.6373 113.499C43.6373 113.985 44.5823 114.048 45.4373 114.192ZM48.463 117V112.203H49.57V117H48.463ZM49.012 111.537C48.67 111.537 48.427 111.339 48.427 110.997C48.427 110.655 48.67 110.457 49.012 110.457C49.363 110.457 49.606 110.655 49.606 110.997C49.606 111.339 49.363 111.537 49.012 111.537ZM53.2123 112.068C54.6163 112.068 55.9663 112.833 55.9663 114.606C55.9663 116.379 54.6163 117.135 53.2123 117.135C51.8083 117.135 50.4673 116.379 50.4673 114.606C50.4673 112.833 51.8083 112.068 53.2123 112.068ZM53.2123 116.316C54.4993 116.316 54.9403 115.443 54.9403 114.606C54.9403 113.76 54.4993 112.887 53.2123 112.887C51.9253 112.887 51.4843 113.76 51.4843 114.606C51.4843 115.443 51.9253 116.316 53.2123 116.316ZM59.8084 112.068C61.0594 112.068 61.7434 112.779 61.7434 113.895V117H60.6364V114.228C60.6364 113.418 60.1954 112.968 59.3224 112.968C58.4494 112.968 57.9724 113.472 57.9724 114.228V117H56.8654V112.203H57.9724V112.941C58.1974 112.626 58.8094 112.068 59.8084 112.068ZM65.5291 114.192C66.8881 114.426 67.6531 114.606 67.6531 115.551C67.6531 116.667 66.7261 117.135 65.1241 117.135C63.6661 117.135 62.5501 116.631 62.5501 115.542H63.6931C63.6931 116.064 64.2061 116.298 65.2141 116.298C66.1951 116.298 66.5461 116.055 66.5461 115.695C66.5461 115.164 65.7451 115.155 64.5211 114.93C63.2791 114.696 62.7301 114.408 62.7301 113.553C62.7301 112.59 63.6301 112.068 65.0431 112.068C66.5821 112.068 67.4101 112.68 67.4101 113.571H66.3751C66.3751 113.265 66.0511 112.887 65.0251 112.887C64.0621 112.887 63.7291 113.13 63.7291 113.499C63.7291 113.985 64.6741 114.048 65.5291 114.192ZM74.6748 112.068C75.9258 112.068 76.5288 112.779 76.5288 113.895V117H75.4128V114.228C75.4128 113.418 75.1158 112.968 74.2698 112.968C73.4328 112.968 73.0908 113.508 73.0908 114.228V117H71.9838V114.228C71.9838 113.418 71.6778 112.968 70.8408 112.968C70.0038 112.968 69.6618 113.508 69.6618 114.228V117H68.5548V112.203H69.6618V112.905C69.8418 112.59 70.3008 112.068 71.2368 112.068C72.0648 112.068 72.6048 112.374 72.8748 112.905C73.1178 112.581 73.7118 112.068 74.6748 112.068ZM79.9431 112.068C81.2661 112.068 82.3911 112.509 82.3911 113.886V117H81.2841V116.379C81.0501 116.649 80.4741 117.135 79.3491 117.135C78.1971 117.135 77.4321 116.658 77.4321 115.74C77.4321 114.75 77.9721 113.967 81.2841 114.183V113.886C81.2841 113.22 80.9421 112.887 79.9431 112.887C79.0881 112.887 78.7371 113.166 78.6561 113.571H77.6211C77.7651 112.563 78.7011 112.068 79.9431 112.068ZM81.2841 115.65V114.849C79.2861 114.75 78.5661 114.921 78.5661 115.668C78.5661 116.154 78.9441 116.397 79.5831 116.397C80.4291 116.397 80.9871 116.082 81.2841 115.65ZM86.5974 112.068C87.8484 112.068 88.5324 112.779 88.5324 113.895V117H87.4254V114.228C87.4254 113.418 86.9844 112.968 86.1114 112.968C85.2384 112.968 84.7614 113.472 84.7614 114.228V117H83.6544V112.203H84.7614V112.941C84.9864 112.626 85.5984 112.068 86.5974 112.068ZM92.3182 114.192C93.6772 114.426 94.4422 114.606 94.4422 115.551C94.4422 116.667 93.5152 117.135 91.9132 117.135C90.4552 117.135 89.3392 116.631 89.3392 115.542H90.4822C90.4822 116.064 90.9952 116.298 92.0032 116.298C92.9842 116.298 93.3352 116.055 93.3352 115.695C93.3352 115.164 92.5342 115.155 91.3102 114.93C90.0682 114.696 89.5192 114.408 89.5192 113.553C89.5192 112.59 90.4192 112.068 91.8322 112.068C93.3712 112.068 94.1992 112.68 94.1992 113.571H93.1642C93.1642 113.265 92.8402 112.887 91.8142 112.887C90.8512 112.887 90.5182 113.13 90.5182 113.499C90.5182 113.985 91.4632 114.048 92.3182 114.192ZM97.7469 116.316C98.7189 116.316 99.2049 115.749 99.3399 115.209H100.375C100.141 116.487 99.0429 117.135 97.7469 117.135C96.3429 117.135 94.9839 116.379 94.9839 114.606C94.9839 112.833 96.3429 112.068 97.7469 112.068C99.0429 112.068 100.141 112.716 100.375 113.994H99.3399C99.2049 113.454 98.7189 112.887 97.7469 112.887C96.4599 112.887 96.0009 113.76 96.0009 114.606C96.0009 115.443 96.4599 116.316 97.7469 116.316ZM104.219 112.068C105.47 112.068 106.154 112.779 106.154 113.895V117H105.047V114.228C105.047 113.418 104.606 112.968 103.733 112.968C102.86 112.968 102.383 113.472 102.383 114.228V117H101.276V110.7H102.383V112.941C102.608 112.626 103.22 112.068 104.219 112.068ZM109.751 112.068C111.272 112.068 112.496 112.968 112.37 114.957H108.05C108.176 115.776 108.761 116.316 109.769 116.316C110.705 116.316 111.101 115.866 111.263 115.524H112.235C111.992 116.505 111.056 117.135 109.769 117.135C108.401 117.135 107.051 116.352 107.051 114.606C107.051 112.887 108.374 112.068 109.751 112.068ZM108.077 114.147H111.38C111.236 113.391 110.714 112.887 109.751 112.887C108.86 112.887 108.248 113.391 108.077 114.147ZM116.239 113.049H114.79V115.209C114.79 116.019 115.114 116.244 116.239 116.127V116.991C116.077 117.036 115.834 117.072 115.609 117.072C114.151 117.072 113.683 116.478 113.683 115.209V113.049H112.747V112.203H113.683V110.961H114.79V112.203H116.239V113.049ZM120.273 113.049H118.824V115.209C118.824 116.019 119.148 116.244 120.273 116.127V116.991C120.111 117.036 119.868 117.072 119.643 117.072C118.185 117.072 117.717 116.478 117.717 115.209V113.049H116.781V112.203H117.717V110.961H118.824V112.203H120.273V113.049ZM123.603 112.068C125.124 112.068 126.348 112.968 126.222 114.957H121.902C122.028 115.776 122.613 116.316 123.621 116.316C124.557 116.316 124.953 115.866 125.115 115.524H126.087C125.844 116.505 124.908 117.135 123.621 117.135C122.253 117.135 120.903 116.352 120.903 114.606C120.903 112.887 122.226 112.068 123.603 112.068ZM121.929 114.147H125.232C125.088 113.391 124.566 112.887 123.603 112.887C122.712 112.887 122.1 113.391 121.929 114.147Z" fill="black"/>
<g clip-path="url(#clip0_9385_5189)">
<rect width="55" height="97" transform="translate(38 8)" fill="white"/>
<path fill-rule="evenodd" clip-rule="evenodd" d="M92.7546 8C93.3799 14.8243 92.1071 21.3569 91.3925 28.1812C90.3429 38.9116 87.8866 49.9787 89.2041 60.1254C91.6381 70.9456 91.5935 83.8086 89.5614 95.1451H88.3555C90.3876 84.0555 90.4769 71.3497 88.0429 60.4173C86.6807 51.393 88.6458 42.2115 89.539 33.2097C90.276 27.171 91.0799 21.1548 91.5711 15.0488" fill="black"/>
<path fill-rule="evenodd" clip-rule="evenodd" d="M54.2344 96.4269L54.4577 94.9902C55.5519 86.1679 56.9364 77.0314 55.2392 68.2091L55.3509 67.9173C55.9092 66.6826 56.2664 65.2459 56.5791 63.9214C59.1471 52.5849 60.0403 40.9566 62.0277 29.4854C62.117 28.9242 62.2287 28.363 62.318 27.8018C62.8316 24.8161 63.3452 21.808 64.0821 18.8673C64.1714 18.5081 65.288 14.1755 65.3996 13.7266C68.3696 24.1876 69.7541 35.0751 71.2502 45.8055C72.1211 51.7319 72.8357 57.6583 74.1755 63.45C74.4658 64.9092 74.8677 66.5479 75.4483 67.9397L75.627 68.2315C73.9299 77.1436 75.1357 86.2801 76.1629 95.1922H74.9571C74.5775 92.2514 74.2425 89.3556 73.9969 86.5046C73.4386 80.0395 73.3046 74.0457 74.3318 68.4111C69.6201 52.8543 69.4638 34.2445 65.3996 18.5305C64.6181 21.5162 63.8588 25.4447 63.2336 29.2834C61.1122 40.6648 60.4423 53.3931 57.5616 64.6847C57.0257 66.8173 56.6907 68.9948 56.9364 71.1723C57.7849 78.6925 56.6907 86.9087 55.6859 94.6534" fill="black"/>
<path fill-rule="evenodd" clip-rule="evenodd" d="M38.0672 8.07031C37.4643 20.7762 40.7915 34.6045 41.6178 46.996C41.9751 51.5755 42.3993 56.2448 41.6178 60.1509C39.0721 71.5547 39.2284 85.2483 41.6178 96.9889L43.0246 98.2909C40.7022 86.8421 40.2109 71.8465 42.7789 60.3978C44.1411 51.2837 42.109 41.9451 41.2158 32.831C40.5012 26.9046 39.7197 21.0007 39.2284 15.0294" fill="black"/>
<path d="M88.7794 98.5114C87.4396 102.26 84.09 104.46 81.1201 104.46C72.2102 104.46 73.751 80.1934 73.751 76.6465C73.751 73.7956 74.1976 70.0018 74.4433 68.3181C73.7064 67.0161 72.6345 61.3142 72.0762 57.7673C71.6296 54.9164 69.1733 38.6412 67.9897 30.8516H91.5931C91.3474 32.2209 90.6999 36.4188 90.0969 42.2554C89.36 49.4614 89.896 55.2082 91.3474 70.7201L91.3921 71.214C92.8659 87.0851 90.4766 93.8196 88.8018 98.4889L88.7794 98.5114Z" fill="#D3D3D5" stroke="black" stroke-width="0.5" stroke-miterlimit="10"/>
<path d="M75.9395 100.305H87.9533" stroke="black" stroke-width="0.5" stroke-miterlimit="10"/>
<path d="M66.5386 24.6356L92.4196 24.3438L91.0798 55.0084H69.9551C69.9551 55.0084 66.5386 36.4659 66.5386 24.6356Z" fill="white" stroke="black" stroke-width="0.5" stroke-miterlimit="10"/>
</g>
<defs>
<clipPath id="clip0_9385_5189">
<rect width="55" height="97" fill="white" transform="translate(38 8)"/>
</clipPath>
</defs>
</svg>
