<svg width="285" height="332" viewBox="0 0 285 332" fill="none" xmlns="http://www.w3.org/2000/svg">
<rect width="285" height="332" rx="10" fill="#D9D9D9"/>
<path d="M19.9968 314L19.4068 312.63H15.5668L14.9668 314H13.2568L16.4968 307H18.4768L21.7068 314H19.9968ZM16.1068 311.4H18.8668L17.4868 308.22L16.1068 311.4ZM25.0088 313.1C26.0088 313.1 26.4988 312.59 26.6788 311.92H28.0388C27.7588 313.52 26.4088 314.15 25.0088 314.15C23.4488 314.15 21.8088 313.4 21.8088 311.34C21.8088 309.28 23.4488 308.53 25.0088 308.53C26.4088 308.53 27.7588 309.16 28.0388 310.76H26.6788C26.4988 310.08 26.0088 309.57 25.0088 309.57C23.7288 309.57 23.2388 310.4 23.2388 311.34C23.2388 312.27 23.7288 313.1 25.0088 313.1ZM32.475 308.53C33.845 308.53 34.645 309.27 34.645 310.47V314H33.135V310.85C33.135 310.21 32.755 309.66 31.815 309.66C30.875 309.66 30.455 310.23 30.455 310.85V314H28.935V307H30.455V309.42C30.695 309.1 31.345 308.53 32.475 308.53ZM39.3237 309.71H37.7637V311.95C37.7637 312.82 38.0837 312.99 39.3237 312.86V314C39.1237 314.03 38.8837 314.08 38.5337 314.08C36.6137 314.08 36.2437 313.25 36.2437 311.92V309.71H35.2537V308.67H36.2437V307.29H37.7637V308.67H39.3237V309.71ZM46.024 311.73H41.294C41.414 312.46 41.924 313.1 43.034 313.1C43.844 313.1 44.364 312.74 44.574 312.29H45.914C45.564 313.62 44.354 314.15 43.034 314.15C41.514 314.15 39.924 313.31 39.924 311.34C39.924 309.37 41.494 308.53 43.024 308.53C44.574 308.53 46.184 309.48 46.024 311.73ZM43.024 309.57C42.074 309.57 41.544 310.09 41.344 310.73H44.634C44.474 310.09 44.024 309.57 43.024 309.57ZM50.4828 308.53C51.8528 308.53 52.6528 309.27 52.6528 310.47V314H51.1328V310.85C51.1328 310.21 50.7628 309.66 49.8228 309.66C48.8828 309.66 48.4628 310.23 48.4628 310.85V314H46.9428V308.67H48.4628V309.42C48.6928 309.1 49.3428 308.53 50.4828 308.53ZM60.4196 309.83C62.3496 310.1 63.6896 310.26 63.6896 311.82C63.6896 313.34 62.4396 314.15 59.9496 314.15C57.5296 314.15 56.2596 313.24 56.2596 311.82H57.9396C57.9796 312.55 58.8196 312.92 60.0896 312.92C61.4196 312.92 61.9796 312.57 61.9796 312.04C61.9796 311.32 60.8996 311.39 58.9896 311.07C57.0796 310.75 56.4796 310.17 56.4796 309.07C56.4796 307.92 57.2596 306.86 59.8296 306.86C62.2996 306.86 63.2596 307.8 63.2996 309.04H61.7396C61.6796 308.54 61.0996 308.09 59.8096 308.09C58.3696 308.09 58.0296 308.48 58.0296 308.96C58.0296 309.62 59.1896 309.66 60.4196 309.83ZM64.5893 314V308.67H66.0993V314H64.5893ZM65.3393 308.05C64.8793 308.05 64.5593 307.79 64.5593 307.34C64.5593 306.88 64.8793 306.62 65.3393 306.62C65.7993 306.62 66.1293 306.88 66.1293 307.34C66.1293 307.79 65.7993 308.05 65.3393 308.05ZM73.1041 311.73H68.3741C68.4941 312.46 69.0041 313.1 70.1141 313.1C70.9241 313.1 71.4441 312.74 71.6541 312.29H72.9941C72.6441 313.62 71.4341 314.15 70.1141 314.15C68.5941 314.15 67.0041 313.31 67.0041 311.34C67.0041 309.37 68.5741 308.53 70.1041 308.53C71.6541 308.53 73.2641 309.48 73.1041 311.73ZM70.1041 309.57C69.1541 309.57 68.6241 310.09 68.4241 310.73H71.7141C71.5541 310.09 71.1041 309.57 70.1041 309.57ZM81.2556 307H82.7756V314H81.2556V313.34C80.8656 313.84 80.2456 314.15 79.3456 314.15C77.7956 314.15 76.5256 313.15 76.5256 311.34C76.5256 309.53 77.7956 308.53 79.3456 308.53C80.2456 308.53 80.8656 308.84 81.2556 309.34V307ZM79.6856 313.1C80.7756 313.1 81.4456 312.46 81.4456 311.34C81.4456 310.22 80.7756 309.57 79.6856 309.57C78.5856 309.57 77.9556 310.22 77.9556 311.34C77.9556 312.46 78.5856 313.1 79.6856 313.1ZM86.624 308.53C88.154 308.53 89.494 308.97 89.494 310.54V314H87.974V313.29C87.744 313.64 86.974 314.15 85.784 314.15C84.534 314.15 83.674 313.63 83.674 312.58C83.674 311.46 84.254 310.56 87.974 310.79V310.54C87.974 309.98 87.724 309.57 86.624 309.57C85.704 309.57 85.414 309.84 85.334 310.21H83.914C84.084 309.03 85.164 308.53 86.624 308.53ZM87.974 312.44V311.69C85.954 311.58 85.204 311.77 85.204 312.53C85.204 313.03 85.574 313.23 86.234 313.23C87.054 313.23 87.694 312.91 87.974 312.44ZM94.2028 308.54C94.5528 308.54 94.8128 308.57 94.9928 308.62V310.02H94.9428C94.7528 309.94 94.3928 309.85 93.9328 309.85C92.6728 309.85 92.2128 310.64 92.2128 311.47V314H90.6928V308.67H92.2128V309.65C92.4328 309.27 93.0628 308.54 94.2028 308.54ZM98.2451 308.53C99.7751 308.53 101.115 308.97 101.115 310.54V314H99.5951V313.29C99.3651 313.64 98.5951 314.15 97.4051 314.15C96.1551 314.15 95.2951 313.63 95.2951 312.58C95.2951 311.46 95.8751 310.56 99.5951 310.79V310.54C99.5951 309.98 99.3451 309.57 98.2451 309.57C97.3251 309.57 97.0351 309.84 96.9551 310.21H95.5351C95.7051 309.03 96.7851 308.53 98.2451 308.53ZM99.5951 312.44V311.69C97.5751 311.58 96.8251 311.77 96.8251 312.53C96.8251 313.03 97.1951 313.23 97.8551 313.23C98.6751 313.23 99.3151 312.91 99.5951 312.44ZM104.484 314.15C103.114 314.15 102.314 313.4 102.314 312.2V308.67H103.834V311.82C103.834 312.46 104.204 313.01 105.144 313.01C106.084 313.01 106.504 312.44 106.504 311.82V308.67H108.024V314H106.504V313.25C106.274 313.57 105.624 314.15 104.484 314.15ZM112.758 307.77C111.768 307.69 111.228 307.73 111.228 308.67H112.618V309.71H111.228V314H109.718V309.71H108.828V308.67H109.718C109.718 307.61 110.088 306.62 111.868 306.62C112.218 306.62 112.448 306.65 112.758 306.69V307.77ZM113.754 312.53H115.264L114.304 314.92H113.354L113.754 312.53ZM119.072 306.62H120.592V314H119.072V306.62ZM121.796 314V308.67H123.306V314H121.796ZM122.546 308.05C122.086 308.05 121.766 307.79 121.766 307.34C121.766 306.88 122.086 306.62 122.546 306.62C123.006 306.62 123.336 306.88 123.336 307.34C123.336 307.79 123.006 308.05 122.546 308.05ZM128.051 308.53C129.421 308.53 130.221 309.27 130.221 310.47V314H128.701V310.85C128.701 310.21 128.331 309.66 127.391 309.66C126.451 309.66 126.031 310.23 126.031 310.85V314H124.511V308.67H126.031V309.42C126.261 309.1 126.911 308.53 128.051 308.53ZM137.225 311.73H132.495C132.615 312.46 133.125 313.1 134.235 313.1C135.045 313.1 135.565 312.74 135.775 312.29H137.115C136.765 313.62 135.555 314.15 134.235 314.15C132.715 314.15 131.125 313.31 131.125 311.34C131.125 309.37 132.695 308.53 134.225 308.53C135.775 308.53 137.385 309.48 137.225 311.73ZM134.225 309.57C133.275 309.57 132.745 310.09 132.545 310.73H135.835C135.675 310.09 135.225 309.57 134.225 309.57ZM140.696 308.53C142.226 308.53 143.566 308.97 143.566 310.54V314H142.046V313.29C141.816 313.64 141.046 314.15 139.856 314.15C138.606 314.15 137.746 313.63 137.746 312.58C137.746 311.46 138.326 310.56 142.046 310.79V310.54C142.046 309.98 141.796 309.57 140.696 309.57C139.776 309.57 139.486 309.84 139.406 310.21H137.986C138.156 309.03 139.236 308.53 140.696 308.53ZM142.046 312.44V311.69C140.026 311.58 139.276 311.77 139.276 312.53C139.276 313.03 139.646 313.23 140.306 313.23C141.126 313.23 141.766 312.91 142.046 312.44ZM148.275 308.54C148.625 308.54 148.885 308.57 149.065 308.62V310.02H149.015C148.825 309.94 148.465 309.85 148.005 309.85C146.745 309.85 146.285 310.64 146.285 311.47V314H144.765V308.67H146.285V309.65C146.505 309.27 147.135 308.54 148.275 308.54ZM155.565 311.73H150.835C150.955 312.46 151.465 313.1 152.575 313.1C153.385 313.1 153.905 312.74 154.115 312.29H155.455C155.105 313.62 153.895 314.15 152.575 314.15C151.055 314.15 149.465 313.31 149.465 311.34C149.465 309.37 151.035 308.53 152.565 308.53C154.115 308.53 155.725 309.48 155.565 311.73ZM152.565 309.57C151.615 309.57 151.085 310.09 150.885 310.73H154.175C154.015 310.09 153.565 309.57 152.565 309.57ZM166.327 307H168.837V314H167.227V308.47L164.877 314H163.347L160.997 308.47V314H159.387V307H161.897L164.107 312.38L166.327 307ZM172.786 308.53C174.316 308.53 175.656 308.97 175.656 310.54V314H174.136V313.29C173.906 313.64 173.136 314.15 171.946 314.15C170.696 314.15 169.836 313.63 169.836 312.58C169.836 311.46 170.416 310.56 174.136 310.79V310.54C174.136 309.98 173.886 309.57 172.786 309.57C171.866 309.57 171.576 309.84 171.496 310.21H170.076C170.246 309.03 171.326 308.53 172.786 308.53ZM174.136 312.44V311.69C172.116 311.58 171.366 311.77 171.366 312.53C171.366 313.03 171.736 313.23 172.396 313.23C173.216 313.23 173.856 312.91 174.136 312.44ZM182.045 310.18C182.885 310.37 183.635 310.83 183.635 311.96C183.635 313.42 182.575 314.15 180.855 314.15C180.395 314.15 179.815 314.07 179.475 314V312.97C179.625 313 180.105 313.1 180.665 313.1C181.645 313.1 182.175 312.7 182.175 311.9C182.175 311.23 181.765 310.87 180.635 310.87H179.475V309.82H180.545C181.255 309.82 181.625 309.47 181.625 308.88C181.625 308.38 181.235 307.91 179.975 307.91C178.825 307.91 178.275 308.39 178.275 309.58V314H176.855V309.48C176.855 307.46 178.225 306.86 180.005 306.86C181.615 306.86 183.005 307.37 183.005 308.8C183.005 309.55 182.585 309.96 182.045 310.18ZM190.331 311.73H185.601C185.721 312.46 186.231 313.1 187.341 313.1C188.151 313.1 188.671 312.74 188.881 312.29H190.221C189.871 313.62 188.661 314.15 187.341 314.15C185.821 314.15 184.231 313.31 184.231 311.34C184.231 309.37 185.801 308.53 187.331 308.53C188.881 308.53 190.491 309.48 190.331 311.73ZM187.331 309.57C186.381 309.57 185.851 310.09 185.651 310.73H188.941C188.781 310.09 188.331 309.57 187.331 309.57ZM195.972 312.82H199.462V314H193.852V312.92L197.242 309.86H194.042V308.67H199.372V309.75L195.972 312.82ZM202.628 314.15C201.258 314.15 200.458 313.4 200.458 312.2V308.67H201.978V311.82C201.978 312.46 202.348 313.01 203.288 313.01C204.228 313.01 204.648 312.44 204.648 311.82V308.67H206.168V314H204.648V313.25C204.418 313.57 203.768 314.15 202.628 314.15ZM214.445 308.67H216.025L213.595 314H212.105L209.675 308.67H211.255L212.855 312.46L214.445 308.67ZM222.225 311.73H217.495C217.615 312.46 218.125 313.1 219.235 313.1C220.045 313.1 220.565 312.74 220.775 312.29H222.115C221.765 313.62 220.555 314.15 219.235 314.15C217.715 314.15 216.125 313.31 216.125 311.34C216.125 309.37 217.695 308.53 219.225 308.53C220.775 308.53 222.385 309.48 222.225 311.73ZM219.225 309.57C218.275 309.57 217.745 310.09 217.545 310.73H220.835C220.675 310.09 220.225 309.57 219.225 309.57ZM226.654 308.54C227.004 308.54 227.264 308.57 227.444 308.62V310.02H227.394C227.204 309.94 226.844 309.85 226.384 309.85C225.124 309.85 224.664 310.64 224.664 311.47V314H223.144V308.67H224.664V309.65C224.884 309.27 225.514 308.54 226.654 308.54ZM235.952 308.67H237.532L235.382 314H233.992L232.632 310.4L231.282 314H229.882L227.742 308.67H229.322L230.642 312.26L231.992 308.67H233.282L234.632 312.26L235.952 308.67ZM243.729 311.73H238.999C239.119 312.46 239.629 313.1 240.739 313.1C241.549 313.1 242.069 312.74 242.279 312.29H243.619C243.269 313.62 242.059 314.15 240.739 314.15C239.219 314.15 237.629 313.31 237.629 311.34C237.629 309.37 239.199 308.53 240.729 308.53C242.279 308.53 243.889 309.48 243.729 311.73ZM240.729 309.57C239.779 309.57 239.249 310.09 239.049 310.73H242.339C242.179 310.09 241.729 309.57 240.729 309.57ZM248.188 308.53C249.558 308.53 250.358 309.27 250.358 310.47V314H248.838V310.85C248.838 310.21 248.468 309.66 247.528 309.66C246.588 309.66 246.168 310.23 246.168 310.85V314H244.648V308.67H246.168V309.42C246.398 309.1 247.048 308.53 248.188 308.53ZM255.992 307H257.512V314H255.992V313.34C255.602 313.84 254.982 314.15 254.082 314.15C252.532 314.15 251.262 313.15 251.262 311.34C251.262 309.53 252.532 308.53 254.082 308.53C254.982 308.53 255.602 308.84 255.992 309.34V307ZM254.422 313.1C255.512 313.1 256.182 312.46 256.182 311.34C256.182 310.22 255.512 309.57 254.422 309.57C253.322 309.57 252.692 310.22 252.692 311.34C252.692 312.46 253.322 313.1 254.422 313.1ZM264.51 311.73H259.78C259.9 312.46 260.41 313.1 261.52 313.1C262.33 313.1 262.85 312.74 263.06 312.29H264.4C264.05 313.62 262.84 314.15 261.52 314.15C260 314.15 258.41 313.31 258.41 311.34C258.41 309.37 259.98 308.53 261.51 308.53C263.06 308.53 264.67 309.48 264.51 311.73ZM261.51 309.57C260.56 309.57 260.03 310.09 259.83 310.73H263.12C262.96 310.09 262.51 309.57 261.51 309.57ZM268.969 308.53C270.339 308.53 271.139 309.27 271.139 310.47V314H269.619V310.85C269.619 310.21 269.249 309.66 268.309 309.66C267.369 309.66 266.949 310.23 266.949 310.85V314H265.429V308.67H266.949V309.42C267.179 309.1 267.829 308.53 268.969 308.53Z" fill="black"/>
<path d="M159.04 52.9878C159.04 51.6858 159.226 50.9718 158.521 50.5518C135.701 49.4172 112.726 50.3839 89.8782 50.3839C89.5074 50.3839 89.2107 50.4679 88.9511 50.7198C88.5803 51.1398 88.5803 51.8538 88.5803 52.5258C88.4464 101.508 80.0293 275 132.018 275C177.596 275 157.125 96.3607 159.04 52.9878Z" fill="#D3D3D5" stroke="#1D1D1B" stroke-miterlimit="10"/>
<path d="M244 179H219V147H225.572V173.317H244V179Z" fill="#050A0A"/>
<path d="M180 50H179V275H180V50Z" fill="black"/>
<path d="M185.043 274H174.228V275.007H185.043V274Z" fill="black"/>
<path d="M185.043 50H174.228V51.0068H185.043V50Z" fill="black"/>
<path d="M191 50H202V274H191" stroke="black" stroke-miterlimit="10" stroke-dasharray="4 4"/>
</svg>
