<svg width="285" height="332" viewBox="0 0 285 332" fill="none" xmlns="http://www.w3.org/2000/svg">
<rect width="285" height="332" rx="10" fill="black"/>
<path d="M22.707 314L21.997 312.44H17.987L17.287 314H15.957L19.197 307H20.797L24.037 314H22.707ZM18.457 311.4H21.537L19.997 307.97L18.457 311.4ZM27.3055 313.24C28.3855 313.24 28.9255 312.61 29.0755 312.01H30.2255C29.9655 313.43 28.7455 314.15 27.3055 314.15C25.7455 314.15 24.2355 313.31 24.2355 311.34C24.2355 309.37 25.7455 308.52 27.3055 308.52C28.7455 308.52 29.9655 309.24 30.2255 310.66H29.0755C28.9255 310.06 28.3855 309.43 27.3055 309.43C25.8755 309.43 25.3655 310.4 25.3655 311.34C25.3655 312.27 25.8755 313.24 27.3055 313.24ZM34.4973 308.52C35.8873 308.52 36.6473 309.31 36.6473 310.55V314H35.4173V310.92C35.4173 310.02 34.9273 309.52 33.9573 309.52C32.9873 309.52 32.4573 310.08 32.4573 310.92V314H31.2273V307H32.4573V309.49C32.7073 309.14 33.3873 308.52 34.4973 308.52ZM41.3284 309.61H39.7184V312.01C39.7184 312.91 40.0784 313.16 41.3284 313.03V313.99C41.1484 314.04 40.8784 314.08 40.6284 314.08C39.0084 314.08 38.4884 313.42 38.4884 312.01V309.61H37.4484V308.67H38.4884V307.29H39.7184V308.67H41.3284V309.61ZM45.0285 308.52C46.7185 308.52 48.0785 309.52 47.9385 311.73H43.1385C43.2785 312.64 43.9285 313.24 45.0485 313.24C46.0885 313.24 46.5285 312.74 46.7085 312.36H47.7885C47.5185 313.45 46.4785 314.15 45.0485 314.15C43.5285 314.15 42.0285 313.28 42.0285 311.34C42.0285 309.43 43.4985 308.52 45.0285 308.52ZM43.1685 310.83H46.8385C46.6785 309.99 46.0985 309.43 45.0285 309.43C44.0385 309.43 43.3585 309.99 43.1685 310.83ZM52.222 308.52C53.612 308.52 54.372 309.31 54.372 310.55V314H53.142V310.92C53.142 310.02 52.652 309.52 51.682 309.52C50.712 309.52 50.182 310.08 50.182 310.92V314H48.952V308.67H50.182V309.49C50.432 309.14 51.112 308.52 52.222 308.52ZM62.0888 309.96C64.0688 310.23 65.2588 310.53 65.2588 311.89C65.2588 313.21 64.2688 314.15 61.8188 314.15C59.2088 314.15 58.1688 313.18 58.1688 311.92H59.4888C59.5288 312.65 60.3488 313.11 61.8588 313.11C63.1588 313.11 63.9788 312.79 63.9788 312.04C63.9788 311.2 62.8188 311.27 60.8688 310.95C59.1888 310.68 58.4088 310.14 58.4088 309C58.4088 307.78 59.2988 306.86 61.6088 306.86C64.0088 306.86 64.9188 307.95 64.9188 308.95H63.6588C63.5988 308.44 63.0688 307.9 61.5788 307.9C60.0188 307.9 59.6488 308.37 59.6488 308.91C59.6488 309.67 60.5888 309.75 62.0888 309.96ZM66.2566 314V308.67H67.4866V314H66.2566ZM66.8666 307.93C66.4866 307.93 66.2166 307.71 66.2166 307.33C66.2166 306.95 66.4866 306.73 66.8666 306.73C67.2566 306.73 67.5266 306.95 67.5266 307.33C67.5266 307.71 67.2566 307.93 66.8666 307.93ZM71.4836 308.52C73.1736 308.52 74.5336 309.52 74.3936 311.73H69.5936C69.7336 312.64 70.3836 313.24 71.5036 313.24C72.5436 313.24 72.9836 312.74 73.1636 312.36H74.2436C73.9736 313.45 72.9336 314.15 71.5036 314.15C69.9836 314.15 68.4836 313.28 68.4836 311.34C68.4836 309.43 69.9536 308.52 71.4836 308.52ZM69.6236 310.83H73.2936C73.1336 309.99 72.5536 309.43 71.4836 309.43C70.4936 309.43 69.8136 309.99 69.6236 310.83ZM82.6274 307H83.8574V314H82.6274V313.3C82.2074 313.81 81.5674 314.15 80.6774 314.15C79.1174 314.15 77.9074 313.14 77.9074 311.34C77.9074 309.53 79.1174 308.52 80.6774 308.52C81.5674 308.52 82.2074 308.86 82.6274 309.37V307ZM80.9174 313.24C82.1874 313.24 82.8174 312.44 82.8174 311.34C82.8174 310.23 82.2074 309.43 80.9174 309.43C79.6174 309.43 79.0474 310.21 79.0474 311.34C79.0474 312.46 79.6374 313.24 80.9174 313.24ZM87.6505 308.52C89.1205 308.52 90.3705 309.01 90.3705 310.54V314H89.1405V313.31C88.8805 313.61 88.2405 314.15 86.9905 314.15C85.7105 314.15 84.8605 313.62 84.8605 312.6C84.8605 311.5 85.4605 310.63 89.1405 310.87V310.54C89.1405 309.8 88.7605 309.43 87.6505 309.43C86.7005 309.43 86.3105 309.74 86.2205 310.19H85.0705C85.2305 309.07 86.2705 308.52 87.6505 308.52ZM89.1405 312.5V311.61C86.9205 311.5 86.1205 311.69 86.1205 312.52C86.1205 313.06 86.5405 313.33 87.2505 313.33C88.1905 313.33 88.8105 312.98 89.1405 312.5ZM95.1442 308.52C95.3842 308.52 95.5242 308.53 95.7342 308.56V309.78H95.6942C95.4842 309.72 95.2142 309.68 94.8742 309.68C93.5242 309.68 93.0142 310.46 93.0142 311.29V314H91.7742V308.67H93.0142V309.67C93.2542 309.28 93.9942 308.52 95.1442 308.52ZM98.9298 308.52C100.4 308.52 101.65 309.01 101.65 310.54V314H100.42V313.31C100.16 313.61 99.5198 314.15 98.2698 314.15C96.9898 314.15 96.1398 313.62 96.1398 312.6C96.1398 311.5 96.7398 310.63 100.42 310.87V310.54C100.42 309.8 100.04 309.43 98.9298 309.43C97.9798 309.43 97.5898 309.74 97.4998 310.19H96.3498C96.5098 309.07 97.5498 308.52 98.9298 308.52ZM100.42 312.5V311.61C98.1998 311.5 97.3998 311.69 97.3998 312.52C97.3998 313.06 97.8198 313.33 98.5298 313.33C99.4698 313.33 100.09 312.98 100.42 312.5ZM107.244 308.67H108.474V314H107.244V313.18C106.994 313.53 106.314 314.15 105.204 314.15C103.814 314.15 103.054 313.36 103.054 312.12V308.67H104.284V311.75C104.284 312.65 104.774 313.15 105.744 313.15C106.714 313.15 107.244 312.59 107.244 311.75V308.67ZM113.122 307.65C111.872 307.53 111.532 307.72 111.532 308.67H112.982V309.61H111.532V314H110.302V309.61H109.372V308.67H110.302C110.302 307.58 110.682 306.62 112.212 306.62C112.572 306.62 112.832 306.64 113.122 306.68V307.65ZM114.218 312.52H115.448L114.478 314.92H113.818L114.218 312.52ZM119.45 306.62H120.68V314H119.45V306.62ZM122.077 314V308.67H123.307V314H122.077ZM122.687 307.93C122.307 307.93 122.037 307.71 122.037 307.33C122.037 306.95 122.307 306.73 122.687 306.73C123.077 306.73 123.347 306.95 123.347 307.33C123.347 307.71 123.077 307.93 122.687 307.93ZM127.974 308.52C129.364 308.52 130.124 309.31 130.124 310.55V314H128.894V310.92C128.894 310.02 128.404 309.52 127.434 309.52C126.464 309.52 125.934 310.08 125.934 310.92V314H124.704V308.67H125.934V309.49C126.184 309.14 126.864 308.52 127.974 308.52ZM134.12 308.52C135.81 308.52 137.17 309.52 137.03 311.73H132.23C132.37 312.64 133.02 313.24 134.14 313.24C135.18 313.24 135.62 312.74 135.8 312.36H136.88C136.61 313.45 135.57 314.15 134.14 314.15C132.62 314.15 131.12 313.28 131.12 311.34C131.12 309.43 132.59 308.52 134.12 308.52ZM132.26 310.83H135.93C135.77 309.99 135.19 309.43 134.12 309.43C133.13 309.43 132.45 309.99 132.26 310.83ZM140.434 308.52C141.904 308.52 143.154 309.01 143.154 310.54V314H141.924V313.31C141.664 313.61 141.024 314.15 139.774 314.15C138.494 314.15 137.644 313.62 137.644 312.6C137.644 311.5 138.244 310.63 141.924 310.87V310.54C141.924 309.8 141.544 309.43 140.434 309.43C139.484 309.43 139.094 309.74 139.004 310.19H137.854C138.014 309.07 139.054 308.52 140.434 308.52ZM141.924 312.5V311.61C139.704 311.5 138.904 311.69 138.904 312.52C138.904 313.06 139.324 313.33 140.034 313.33C140.974 313.33 141.594 312.98 141.924 312.5ZM147.927 308.52C148.167 308.52 148.307 308.53 148.517 308.56V309.78H148.477C148.267 309.72 147.997 309.68 147.657 309.68C146.307 309.68 145.797 310.46 145.797 311.29V314H144.557V308.67H145.797V309.67C146.037 309.28 146.777 308.52 147.927 308.52ZM152.021 308.52C153.711 308.52 155.071 309.52 154.931 311.73H150.131C150.271 312.64 150.921 313.24 152.041 313.24C153.081 313.24 153.521 312.74 153.701 312.36H154.781C154.511 313.45 153.471 314.15 152.041 314.15C150.521 314.15 149.021 313.28 149.021 311.34C149.021 309.43 150.491 308.52 152.021 308.52ZM150.161 310.83H153.831C153.671 309.99 153.091 309.43 152.021 309.43C151.031 309.43 150.351 309.99 150.161 310.83ZM166.065 307H168.015V314H166.785V307.99L164.145 314H162.815L160.175 307.99V314H158.945V307H160.885L163.475 312.91L166.065 307ZM171.908 308.52C173.378 308.52 174.628 309.01 174.628 310.54V314H173.398V313.31C173.138 313.61 172.498 314.15 171.248 314.15C169.968 314.15 169.118 313.62 169.118 312.6C169.118 311.5 169.718 310.63 173.398 310.87V310.54C173.398 309.8 173.018 309.43 171.908 309.43C170.958 309.43 170.568 309.74 170.478 310.19H169.328C169.488 309.07 170.528 308.52 171.908 308.52ZM173.398 312.5V311.61C171.178 311.5 170.378 311.69 170.378 312.52C170.378 313.06 170.798 313.33 171.508 313.33C172.448 313.33 173.068 312.98 173.398 312.5ZM181.002 310.19C181.842 310.35 182.572 310.8 182.572 311.98C182.572 313.38 181.612 314.15 179.892 314.15C179.432 314.15 178.942 314.07 178.602 314V313.11C178.752 313.14 179.292 313.24 179.802 313.24C180.972 313.24 181.402 312.72 181.402 311.92C181.402 311.25 181.052 310.77 179.662 310.77H178.602V309.92H179.572C180.542 309.92 180.852 309.45 180.852 308.86C180.852 308.36 180.522 307.72 179.002 307.72C177.582 307.72 177.162 308.49 177.162 309.67V314H176.032V309.58C176.032 307.5 177.342 306.86 179.032 306.86C180.652 306.86 181.942 307.44 181.942 308.78C181.942 309.59 181.522 309.99 181.002 310.19ZM186.171 308.52C187.861 308.52 189.221 309.52 189.081 311.73H184.281C184.421 312.64 185.071 313.24 186.191 313.24C187.231 313.24 187.671 312.74 187.851 312.36H188.931C188.661 313.45 187.621 314.15 186.191 314.15C184.671 314.15 183.171 313.28 183.171 311.34C183.171 309.43 184.641 308.52 186.171 308.52ZM184.311 310.83H187.981C187.821 309.99 187.241 309.43 186.171 309.43C185.181 309.43 184.501 309.99 184.311 310.83ZM194.405 312.96H198.025V314H192.695V313.01L196.225 309.71H192.885V308.67H197.935V309.66L194.405 312.96ZM203.318 308.67H204.548V314H203.318V313.18C203.068 313.53 202.388 314.15 201.278 314.15C199.888 314.15 199.128 313.36 199.128 312.12V308.67H200.358V311.75C200.358 312.65 200.848 313.15 201.818 313.15C202.788 313.15 203.318 312.59 203.318 311.75V308.67ZM213.115 308.67H214.415L212.025 314H210.735L208.345 308.67H209.645L211.385 312.8L213.115 308.67ZM217.616 308.52C219.306 308.52 220.666 309.52 220.526 311.73H215.726C215.866 312.64 216.516 313.24 217.636 313.24C218.676 313.24 219.116 312.74 219.296 312.36H220.376C220.106 313.45 219.066 314.15 217.636 314.15C216.116 314.15 214.616 313.28 214.616 311.34C214.616 309.43 216.086 308.52 217.616 308.52ZM215.756 310.83H219.426C219.266 309.99 218.686 309.43 217.616 309.43C216.626 309.43 215.946 309.99 215.756 310.83ZM224.91 308.52C225.15 308.52 225.29 308.53 225.5 308.56V309.78H225.46C225.25 309.72 224.98 309.68 224.64 309.68C223.29 309.68 222.78 310.46 222.78 311.29V314H221.54V308.67H222.78V309.67C223.02 309.28 223.76 308.52 224.91 308.52ZM234.211 308.67H235.511L233.411 314H232.211L230.751 310.14L229.301 314H228.101L226.001 308.67H227.301L228.731 312.58L230.201 308.67H231.311L232.781 312.58L234.211 308.67ZM238.71 308.52C240.4 308.52 241.76 309.52 241.62 311.73H236.82C236.96 312.64 237.61 313.24 238.73 313.24C239.77 313.24 240.21 312.74 240.39 312.36H241.47C241.2 313.45 240.16 314.15 238.73 314.15C237.21 314.15 235.71 313.28 235.71 311.34C235.71 309.43 237.18 308.52 238.71 308.52ZM236.85 310.83H240.52C240.36 309.99 239.78 309.43 238.71 309.43C237.72 309.43 237.04 309.99 236.85 310.83ZM245.904 308.52C247.294 308.52 248.054 309.31 248.054 310.55V314H246.824V310.92C246.824 310.02 246.334 309.52 245.364 309.52C244.394 309.52 243.864 310.08 243.864 310.92V314H242.634V308.67H243.864V309.49C244.114 309.14 244.794 308.52 245.904 308.52ZM253.77 307H255V314H253.77V313.3C253.35 313.81 252.71 314.15 251.82 314.15C250.26 314.15 249.05 313.14 249.05 311.34C249.05 309.53 250.26 308.52 251.82 308.52C252.71 308.52 253.35 308.86 253.77 309.37V307ZM252.06 313.24C253.33 313.24 253.96 312.44 253.96 311.34C253.96 310.23 253.35 309.43 252.06 309.43C250.76 309.43 250.19 310.21 250.19 311.34C250.19 312.46 250.78 313.24 252.06 313.24ZM259.003 308.52C260.693 308.52 262.053 309.52 261.913 311.73H257.113C257.253 312.64 257.903 313.24 259.023 313.24C260.063 313.24 260.503 312.74 260.683 312.36H261.763C261.493 313.45 260.453 314.15 259.023 314.15C257.503 314.15 256.003 313.28 256.003 311.34C256.003 309.43 257.473 308.52 259.003 308.52ZM257.143 310.83H260.813C260.653 309.99 260.073 309.43 259.003 309.43C258.013 309.43 257.333 309.99 257.143 310.83ZM266.197 308.52C267.587 308.52 268.347 309.31 268.347 310.55V314H267.117V310.92C267.117 310.02 266.627 309.52 265.657 309.52C264.687 309.52 264.157 310.08 264.157 310.92V314H262.927V308.67H264.157V309.49C264.407 309.14 265.087 308.52 266.197 308.52Z" fill="white"/>
<path d="M159.04 52.9878C159.04 51.6858 159.226 50.9718 158.521 50.5518C135.701 49.4172 112.726 50.3839 89.8782 50.3839C89.5074 50.3839 89.2107 50.4679 88.9511 50.7198C88.5803 51.1398 88.5803 51.8538 88.5803 52.5258C88.4464 101.508 80.0293 275 132.018 275C177.596 275 157.125 96.3607 159.04 52.9878Z" fill="#2D2D2D" stroke="white" stroke-width="2" stroke-miterlimit="10"/>
<path d="M244 179H219V147H225.572V173.317H244V179Z" fill="white"/>
<path d="M180 50H179V275H180V50Z" fill="white"/>
<path d="M185.043 274H174.228V275.007H185.043V274Z" fill="white"/>
<path d="M185.043 50H174.228V51.0068H185.043V50Z" fill="white"/>
<path d="M191 50H202V274H191" stroke="white" stroke-miterlimit="10" stroke-dasharray="4 4"/>
</svg>
