<svg width="285" height="332" viewBox="0 0 285 332" fill="none" xmlns="http://www.w3.org/2000/svg">
<rect width="285" height="332" rx="10" fill="black"/>
<path d="M40.6397 307H42.5897V314H41.3597V307.99L38.7197 314H37.3897L34.7497 307.99V314H33.5197V307H35.4597L38.0497 312.91L40.6397 307ZM46.4836 308.52C47.9536 308.52 49.2036 309.01 49.2036 310.54V314H47.9736V313.31C47.7136 313.61 47.0736 314.15 45.8236 314.15C44.5436 314.15 43.6936 313.62 43.6936 312.6C43.6936 311.5 44.2936 310.63 47.9736 310.87V310.54C47.9736 309.8 47.5936 309.43 46.4836 309.43C45.5336 309.43 45.1436 309.74 45.0536 310.19H43.9036C44.0636 309.07 45.1036 308.52 46.4836 308.52ZM47.9736 312.5V311.61C45.7536 311.5 44.9536 311.69 44.9536 312.52C44.9536 313.06 45.3736 313.33 46.0836 313.33C47.0236 313.33 47.6436 312.98 47.9736 312.5ZM54.8072 314L52.9972 311.58L51.8472 312.66V314H50.6072V307H51.8472V311.26L54.5972 308.67H56.1372L53.8672 310.78L56.2672 314H54.8072ZM59.467 308.52C61.157 308.52 62.517 309.52 62.377 311.73H57.577C57.717 312.64 58.367 313.24 59.487 313.24C60.527 313.24 60.967 312.74 61.147 312.36H62.227C61.957 313.45 60.917 314.15 59.487 314.15C57.967 314.15 56.467 313.28 56.467 311.34C56.467 309.43 57.937 308.52 59.467 308.52ZM57.607 310.83H61.277C61.117 309.99 60.537 309.43 59.467 309.43C58.477 309.43 57.797 309.99 57.607 310.83ZM69.1008 310.88C70.6108 311.14 71.4608 311.34 71.4608 312.39C71.4608 313.63 70.4308 314.15 68.6508 314.15C67.0308 314.15 65.7908 313.59 65.7908 312.38H67.0608C67.0608 312.96 67.6308 313.22 68.7508 313.22C69.8408 313.22 70.2308 312.95 70.2308 312.55C70.2308 311.96 69.3408 311.95 67.9808 311.7C66.6008 311.44 65.9908 311.12 65.9908 310.17C65.9908 309.1 66.9908 308.52 68.5608 308.52C70.2708 308.52 71.1908 309.2 71.1908 310.19H70.0408C70.0408 309.85 69.6808 309.43 68.5408 309.43C67.4708 309.43 67.1008 309.7 67.1008 310.11C67.1008 310.65 68.1508 310.72 69.1008 310.88ZM76.6527 308.67H77.8827V314H76.6527V313.18C76.4027 313.53 75.7227 314.15 74.6127 314.15C73.2227 314.15 72.4627 313.36 72.4627 312.12V308.67H73.6927V311.75C73.6927 312.65 74.1827 313.15 75.1527 313.15C76.1227 313.15 76.6527 312.59 76.6527 311.75V308.67ZM82.6491 308.52C82.8891 308.52 83.0291 308.53 83.2391 308.56V309.78H83.1991C82.9891 309.72 82.7191 309.68 82.3791 309.68C81.0291 309.68 80.5191 310.46 80.5191 311.29V314H79.2791V308.67H80.5191V309.67C80.7591 309.28 81.4991 308.52 82.6491 308.52ZM86.7424 308.52C88.4324 308.52 89.7924 309.52 89.6524 311.73H84.8524C84.9924 312.64 85.6424 313.24 86.7624 313.24C87.8024 313.24 88.2424 312.74 88.4224 312.36H89.5024C89.2324 313.45 88.1924 314.15 86.7624 314.15C85.2424 314.15 83.7424 313.28 83.7424 311.34C83.7424 309.43 85.2124 308.52 86.7424 308.52ZM84.8824 310.83H88.5524C88.3924 309.99 87.8124 309.43 86.7424 309.43C85.7524 309.43 85.0724 309.99 84.8824 310.83ZM97.0462 309.61H95.4362V312.01C95.4362 312.91 95.7962 313.16 97.0462 313.03V313.99C96.8662 314.04 96.5962 314.08 96.3462 314.08C94.7262 314.08 94.2062 313.42 94.2062 312.01V309.61H93.1662V308.67H94.2062V307.29H95.4362V308.67H97.0462V309.61ZM100.796 308.52C102.356 308.52 103.856 309.37 103.856 311.34C103.856 313.31 102.356 314.15 100.796 314.15C99.2363 314.15 97.7463 313.31 97.7463 311.34C97.7463 309.37 99.2363 308.52 100.796 308.52ZM100.796 313.24C102.226 313.24 102.716 312.27 102.716 311.34C102.716 310.4 102.226 309.43 100.796 309.43C99.3663 309.43 98.8763 310.4 98.8763 311.34C98.8763 312.27 99.3663 313.24 100.796 313.24ZM114.556 308.52C115.946 308.52 116.616 309.31 116.616 310.55V314H115.376V310.92C115.376 310.02 115.046 309.52 114.106 309.52C113.176 309.52 112.796 310.12 112.796 310.92V314H111.566V310.92C111.566 310.02 111.226 309.52 110.296 309.52C109.366 309.52 108.986 310.12 108.986 310.92V314H107.756V308.67H108.986V309.45C109.186 309.1 109.696 308.52 110.736 308.52C111.656 308.52 112.256 308.86 112.556 309.45C112.826 309.09 113.486 308.52 114.556 308.52ZM120.619 308.52C122.309 308.52 123.669 309.52 123.529 311.73H118.729C118.869 312.64 119.519 313.24 120.639 313.24C121.679 313.24 122.119 312.74 122.299 312.36H123.379C123.109 313.45 122.069 314.15 120.639 314.15C119.119 314.15 117.619 313.28 117.619 311.34C117.619 309.43 119.089 308.52 120.619 308.52ZM118.759 310.83H122.429C122.269 309.99 121.689 309.43 120.619 309.43C119.629 309.43 118.949 309.99 118.759 310.83ZM126.933 308.52C128.403 308.52 129.653 309.01 129.653 310.54V314H128.423V313.31C128.163 313.61 127.523 314.15 126.273 314.15C124.993 314.15 124.143 313.62 124.143 312.6C124.143 311.5 124.743 310.63 128.423 310.87V310.54C128.423 309.8 128.043 309.43 126.933 309.43C125.983 309.43 125.593 309.74 125.503 310.19H124.353C124.513 309.07 125.553 308.52 126.933 308.52ZM128.423 312.5V311.61C126.203 311.5 125.403 311.69 125.403 312.52C125.403 313.06 125.823 313.33 126.533 313.33C127.473 313.33 128.093 312.98 128.423 312.5ZM133.866 310.88C135.376 311.14 136.226 311.34 136.226 312.39C136.226 313.63 135.196 314.15 133.416 314.15C131.796 314.15 130.556 313.59 130.556 312.38H131.826C131.826 312.96 132.396 313.22 133.516 313.22C134.606 313.22 134.996 312.95 134.996 312.55C134.996 311.96 134.106 311.95 132.746 311.7C131.366 311.44 130.756 311.12 130.756 310.17C130.756 309.1 131.756 308.52 133.326 308.52C135.036 308.52 135.956 309.2 135.956 310.19H134.806C134.806 309.85 134.446 309.43 133.306 309.43C132.236 309.43 131.866 309.7 131.866 310.11C131.866 310.65 132.916 310.72 133.866 310.88ZM141.418 308.67H142.648V314H141.418V313.18C141.168 313.53 140.488 314.15 139.378 314.15C137.988 314.15 137.228 313.36 137.228 312.12V308.67H138.458V311.75C138.458 312.65 138.948 313.15 139.918 313.15C140.888 313.15 141.418 312.59 141.418 311.75V308.67ZM147.415 308.52C147.655 308.52 147.795 308.53 148.005 308.56V309.78H147.965C147.755 309.72 147.485 309.68 147.145 309.68C145.795 309.68 145.285 310.46 145.285 311.29V314H144.045V308.67H145.285V309.67C145.525 309.28 146.265 308.52 147.415 308.52ZM151.508 308.52C153.198 308.52 154.558 309.52 154.418 311.73H149.618C149.758 312.64 150.408 313.24 151.528 313.24C152.568 313.24 153.008 312.74 153.188 312.36H154.268C153.998 313.45 152.958 314.15 151.528 314.15C150.008 314.15 148.508 313.28 148.508 311.34C148.508 309.43 149.978 308.52 151.508 308.52ZM149.648 310.83H153.318C153.158 309.99 152.578 309.43 151.508 309.43C150.518 309.43 149.838 309.99 149.648 310.83ZM158.332 306.62H159.562V314H158.332V306.62ZM160.959 314V308.67H162.189V314H160.959ZM161.569 307.93C161.189 307.93 160.919 307.71 160.919 307.33C160.919 306.95 161.189 306.73 161.569 306.73C161.959 306.73 162.229 306.95 162.229 307.33C162.229 307.71 161.959 307.93 161.569 307.93ZM166.856 308.52C168.246 308.52 169.006 309.31 169.006 310.55V314H167.776V310.92C167.776 310.02 167.286 309.52 166.316 309.52C165.346 309.52 164.816 310.08 164.816 310.92V314H163.586V308.67H164.816V309.49C165.066 309.14 165.746 308.52 166.856 308.52ZM173.002 308.52C174.692 308.52 176.052 309.52 175.912 311.73H171.112C171.252 312.64 171.902 313.24 173.022 313.24C174.062 313.24 174.502 312.74 174.682 312.36H175.762C175.492 313.45 174.452 314.15 173.022 314.15C171.502 314.15 170.002 313.28 170.002 311.34C170.002 309.43 171.472 308.52 173.002 308.52ZM171.142 310.83H174.812C174.652 309.99 174.072 309.43 173.002 309.43C172.012 309.43 171.332 309.99 171.142 310.83ZM179.316 308.52C180.786 308.52 182.036 309.01 182.036 310.54V314H180.806V313.31C180.546 313.61 179.906 314.15 178.656 314.15C177.376 314.15 176.526 313.62 176.526 312.6C176.526 311.5 177.126 310.63 180.806 310.87V310.54C180.806 309.8 180.426 309.43 179.316 309.43C178.366 309.43 177.976 309.74 177.886 310.19H176.736C176.896 309.07 177.936 308.52 179.316 308.52ZM180.806 312.5V311.61C178.586 311.5 177.786 311.69 177.786 312.52C177.786 313.06 178.206 313.33 178.916 313.33C179.856 313.33 180.476 312.98 180.806 312.5ZM186.809 308.52C187.049 308.52 187.189 308.53 187.399 308.56V309.78H187.359C187.149 309.72 186.879 309.68 186.539 309.68C185.189 309.68 184.679 310.46 184.679 311.29V314H183.439V308.67H184.679V309.67C184.919 309.28 185.659 308.52 186.809 308.52ZM195.621 307H196.851V314H195.621V313.3C195.201 313.81 194.561 314.15 193.671 314.15C192.111 314.15 190.901 313.14 190.901 311.34C190.901 309.53 192.111 308.52 193.671 308.52C194.561 308.52 195.201 308.86 195.621 309.37V307ZM193.911 313.24C195.181 313.24 195.811 312.44 195.811 311.34C195.811 310.23 195.201 309.43 193.911 309.43C192.611 309.43 192.041 310.21 192.041 311.34C192.041 312.46 192.631 313.24 193.911 313.24ZM198.254 314V308.67H199.484V314H198.254ZM198.864 307.93C198.484 307.93 198.214 307.71 198.214 307.33C198.214 306.95 198.484 306.73 198.864 306.73C199.254 306.73 199.524 306.95 199.524 307.33C199.524 307.71 199.254 307.93 198.864 307.93ZM207.681 308.52C209.071 308.52 209.741 309.31 209.741 310.55V314H208.501V310.92C208.501 310.02 208.171 309.52 207.231 309.52C206.301 309.52 205.921 310.12 205.921 310.92V314H204.691V310.92C204.691 310.02 204.351 309.52 203.421 309.52C202.491 309.52 202.111 310.12 202.111 310.92V314H200.881V308.67H202.111V309.45C202.311 309.1 202.821 308.52 203.861 308.52C204.781 308.52 205.381 308.86 205.681 309.45C205.951 309.09 206.611 308.52 207.681 308.52ZM213.744 308.52C215.434 308.52 216.794 309.52 216.654 311.73H211.854C211.994 312.64 212.644 313.24 213.764 313.24C214.804 313.24 215.244 312.74 215.424 312.36H216.504C216.234 313.45 215.194 314.15 213.764 314.15C212.244 314.15 210.744 313.28 210.744 311.34C210.744 309.43 212.214 308.52 213.744 308.52ZM211.884 310.83H215.554C215.394 309.99 214.814 309.43 213.744 309.43C212.754 309.43 212.074 309.99 211.884 310.83ZM220.938 308.52C222.328 308.52 223.088 309.31 223.088 310.55V314H221.858V310.92C221.858 310.02 221.368 309.52 220.398 309.52C219.428 309.52 218.898 310.08 218.898 310.92V314H217.668V308.67H218.898V309.49C219.148 309.14 219.828 308.52 220.938 308.52ZM227.294 310.88C228.804 311.14 229.654 311.34 229.654 312.39C229.654 313.63 228.624 314.15 226.844 314.15C225.224 314.15 223.984 313.59 223.984 312.38H225.254C225.254 312.96 225.824 313.22 226.944 313.22C228.034 313.22 228.424 312.95 228.424 312.55C228.424 311.96 227.534 311.95 226.174 311.7C224.794 311.44 224.184 311.12 224.184 310.17C224.184 309.1 225.184 308.52 226.754 308.52C228.464 308.52 229.384 309.2 229.384 310.19H228.234C228.234 309.85 227.874 309.43 226.734 309.43C225.664 309.43 225.294 309.7 225.294 310.11C225.294 310.65 226.344 310.72 227.294 310.88ZM230.656 314V308.67H231.886V314H230.656ZM231.266 307.93C230.886 307.93 230.616 307.71 230.616 307.33C230.616 306.95 230.886 306.73 231.266 306.73C231.656 306.73 231.926 306.95 231.926 307.33C231.926 307.71 231.656 307.93 231.266 307.93ZM235.933 308.52C237.493 308.52 238.993 309.37 238.993 311.34C238.993 313.31 237.493 314.15 235.933 314.15C234.373 314.15 232.883 313.31 232.883 311.34C232.883 309.37 234.373 308.52 235.933 308.52ZM235.933 313.24C237.363 313.24 237.853 312.27 237.853 311.34C237.853 310.4 237.363 309.43 235.933 309.43C234.503 309.43 234.013 310.4 234.013 311.34C234.013 312.27 234.503 313.24 235.933 313.24ZM243.262 308.52C244.652 308.52 245.412 309.31 245.412 310.55V314H244.182V310.92C244.182 310.02 243.692 309.52 242.722 309.52C241.752 309.52 241.222 310.08 241.222 310.92V314H239.992V308.67H241.222V309.49C241.472 309.14 242.152 308.52 243.262 308.52ZM249.618 310.88C251.128 311.14 251.978 311.34 251.978 312.39C251.978 313.63 250.948 314.15 249.168 314.15C247.548 314.15 246.308 313.59 246.308 312.38H247.578C247.578 312.96 248.148 313.22 249.268 313.22C250.358 313.22 250.748 312.95 250.748 312.55C250.748 311.96 249.858 311.95 248.498 311.7C247.118 311.44 246.508 311.12 246.508 310.17C246.508 309.1 247.508 308.52 249.078 308.52C250.788 308.52 251.708 309.2 251.708 310.19H250.558C250.558 309.85 250.198 309.43 249.058 309.43C247.988 309.43 247.618 309.7 247.618 310.11C247.618 310.65 248.668 310.72 249.618 310.88Z" fill="white"/>
<path d="M159.04 52.9878C159.04 51.6858 159.226 50.9718 158.521 50.5518C135.701 49.4172 112.726 50.3839 89.8782 50.3839C89.5074 50.3839 89.2107 50.4679 88.9511 50.7198C88.5803 51.1398 88.5803 51.8538 88.5803 52.5258C88.4464 101.508 80.0293 275 132.018 275C177.596 275 157.125 96.3607 159.04 52.9878Z" fill="#2D2D2D" stroke="white" stroke-width="2" stroke-miterlimit="10"/>
<path d="M244 179H219V147H225.572V173.317H244V179Z" fill="white"/>
<path d="M180 50H179V275H180V50Z" fill="white"/>
<path d="M185.043 274H174.228V275.007H185.043V274Z" fill="white"/>
<path d="M185.043 50H174.228V51.0068H185.043V50Z" fill="white"/>
<path d="M191 50H202V274H191" stroke="white" stroke-miterlimit="10" stroke-dasharray="4 4"/>
</svg>
