<svg width="285" height="332" viewBox="0 0 285 332" fill="none" xmlns="http://www.w3.org/2000/svg">
<rect width="285" height="332" rx="10" fill="black"/>
<path d="M29.2549 314L28.5449 312.44H24.5349L23.8349 314H22.5049L25.7449 307H27.3449L30.5849 314H29.2549ZM25.0049 311.4H28.0849L26.5449 307.97L25.0049 311.4ZM34.0911 310.88C35.6011 311.14 36.4511 311.34 36.4511 312.39C36.4511 313.63 35.4211 314.15 33.6411 314.15C32.0211 314.15 30.7811 313.59 30.7811 312.38H32.0511C32.0511 312.96 32.6211 313.22 33.7411 313.22C34.8311 313.22 35.2211 312.95 35.2211 312.55C35.2211 311.96 34.3311 311.95 32.9711 311.7C31.5911 311.44 30.9811 311.12 30.9811 310.17C30.9811 309.1 31.9811 308.52 33.5511 308.52C35.2611 308.52 36.1811 309.2 36.1811 310.19H35.0311C35.0311 309.85 34.6711 309.43 33.5311 309.43C32.4611 309.43 32.0911 309.7 32.0911 310.11C32.0911 310.65 33.1411 310.72 34.0911 310.88ZM40.0529 308.52C41.7429 308.52 43.1029 309.52 42.9629 311.73H38.1629C38.3029 312.64 38.9529 313.24 40.0729 313.24C41.1129 313.24 41.5529 312.74 41.7329 312.36H42.8129C42.5429 313.45 41.5029 314.15 40.0729 314.15C38.5529 314.15 37.0529 313.28 37.0529 311.34C37.0529 309.43 38.5229 308.52 40.0529 308.52ZM38.1929 310.83H41.8629C41.7029 309.99 41.1229 309.43 40.0529 309.43C39.0629 309.43 38.3829 309.99 38.1929 310.83ZM48.3064 308.67H49.5364V313.49C49.5364 315.55 47.9664 315.86 46.4364 315.86C44.7664 315.86 43.7664 315.27 43.6564 314.26H44.7964C44.8764 314.58 45.2764 314.93 46.4364 314.93C47.9264 314.93 48.3064 314.45 48.3064 313.49V312.9C47.9164 313.37 47.2864 313.67 46.3464 313.67C44.7964 313.67 43.5764 312.9 43.5764 311.15C43.5764 309.39 44.7964 308.52 46.3464 308.52C47.2864 308.52 47.9164 308.87 48.3064 309.39V308.67ZM46.5864 312.87C47.7364 312.87 48.4964 312.25 48.4964 311.15C48.4964 310.04 47.7564 309.43 46.5864 309.43C45.4264 309.43 44.7164 310.02 44.7164 311.15C44.7164 312.27 45.4364 312.87 46.5864 312.87ZM55.1293 308.67H56.3593V314H55.1293V313.18C54.8793 313.53 54.1993 314.15 53.0893 314.15C51.6993 314.15 50.9393 313.36 50.9393 312.12V308.67H52.1693V311.75C52.1693 312.65 52.6593 313.15 53.6293 313.15C54.5993 313.15 55.1293 312.59 55.1293 311.75V308.67ZM53.9693 306.65H55.2693L54.0293 307.94H53.2293L53.9693 306.65ZM61.1257 308.52C61.3657 308.52 61.5057 308.53 61.7157 308.56V309.78H61.6757C61.4657 309.72 61.1957 309.68 60.8557 309.68C59.5057 309.68 58.9957 310.46 58.9957 311.29V314H57.7557V308.67H58.9957V309.67C59.2357 309.28 59.9757 308.52 61.1257 308.52ZM64.9113 308.52C66.3813 308.52 67.6313 309.01 67.6313 310.54V314H66.4013V313.31C66.1413 313.61 65.5013 314.15 64.2513 314.15C62.9713 314.15 62.1213 313.62 62.1213 312.6C62.1213 311.5 62.7213 310.63 66.4013 310.87V310.54C66.4013 309.8 66.0213 309.43 64.9113 309.43C63.9613 309.43 63.5713 309.74 63.4813 310.19H62.3313C62.4913 309.07 63.5313 308.52 64.9113 308.52ZM66.4013 312.5V311.61C64.1813 311.5 63.3813 311.69 63.3813 312.52C63.3813 313.06 63.8013 313.33 64.5113 313.33C65.4513 313.33 66.0713 312.98 66.4013 312.5ZM72.3196 309.61H70.7096V312.01C70.7096 312.91 71.0696 313.16 72.3196 313.03V313.99C72.1396 314.04 71.8696 314.08 71.6196 314.08C69.9996 314.08 69.4796 313.42 69.4796 312.01V309.61H68.4396V308.67H69.4796V307.29H70.7096V308.67H72.3196V309.61ZM76.0197 308.52C77.7097 308.52 79.0697 309.52 78.9297 311.73H74.1297C74.2697 312.64 74.9197 313.24 76.0397 313.24C77.0797 313.24 77.5197 312.74 77.6997 312.36H78.7797C78.5097 313.45 77.4697 314.15 76.0397 314.15C74.5197 314.15 73.0197 313.28 73.0197 311.34C73.0197 309.43 74.4897 308.52 76.0197 308.52ZM74.1597 310.83H77.8297C77.6697 309.99 77.0897 309.43 76.0197 309.43C75.0297 309.43 74.3497 309.99 74.1597 310.83ZM87.1636 307H88.3936V314H87.1636V313.3C86.7436 313.81 86.1036 314.15 85.2136 314.15C83.6536 314.15 82.4436 313.14 82.4436 311.34C82.4436 309.53 83.6536 308.52 85.2136 308.52C86.1036 308.52 86.7436 308.86 87.1636 309.37V307ZM85.4536 313.24C86.7236 313.24 87.3536 312.44 87.3536 311.34C87.3536 310.23 86.7436 309.43 85.4536 309.43C84.1536 309.43 83.5836 310.21 83.5836 311.34C83.5836 312.46 84.1736 313.24 85.4536 313.24ZM92.3967 308.52C94.0867 308.52 95.4467 309.52 95.3067 311.73H90.5067C90.6467 312.64 91.2967 313.24 92.4167 313.24C93.4567 313.24 93.8967 312.74 94.0767 312.36H95.1567C94.8867 313.45 93.8467 314.15 92.4167 314.15C90.8967 314.15 89.3967 313.28 89.3967 311.34C89.3967 309.43 90.8667 308.52 92.3967 308.52ZM90.5367 310.83H94.2067C94.0467 309.99 93.4667 309.43 92.3967 309.43C91.4067 309.43 90.7267 309.99 90.5367 310.83ZM106.021 308.52C107.411 308.52 108.081 309.31 108.081 310.55V314H106.841V310.92C106.841 310.02 106.511 309.52 105.571 309.52C104.641 309.52 104.261 310.12 104.261 310.92V314H103.031V310.92C103.031 310.02 102.691 309.52 101.761 309.52C100.831 309.52 100.451 310.12 100.451 310.92V314H99.2205V308.67H100.451V309.45C100.651 309.1 101.161 308.52 102.201 308.52C103.121 308.52 103.721 308.86 104.021 309.45C104.291 309.09 104.951 308.52 106.021 308.52ZM112.084 308.52C113.774 308.52 115.134 309.52 114.994 311.73H110.194C110.334 312.64 110.984 313.24 112.104 313.24C113.144 313.24 113.584 312.74 113.764 312.36H114.844C114.574 313.45 113.534 314.15 112.104 314.15C110.584 314.15 109.084 313.28 109.084 311.34C109.084 309.43 110.554 308.52 112.084 308.52ZM110.224 310.83H113.894C113.734 309.99 113.154 309.43 112.084 309.43C111.094 309.43 110.414 309.99 110.224 310.83ZM120.328 307H121.558V314H120.328V313.3C119.908 313.81 119.268 314.15 118.378 314.15C116.818 314.15 115.608 313.14 115.608 311.34C115.608 309.53 116.818 308.52 118.378 308.52C119.268 308.52 119.908 308.86 120.328 309.37V307ZM118.618 313.24C119.888 313.24 120.518 312.44 120.518 311.34C120.518 310.23 119.908 309.43 118.618 309.43C117.318 309.43 116.748 310.21 116.748 311.34C116.748 312.46 117.338 313.24 118.618 313.24ZM122.961 314V308.67H124.191V314H122.961ZM123.571 307.93C123.191 307.93 122.921 307.71 122.921 307.33C122.921 306.95 123.191 306.73 123.571 306.73C123.961 306.73 124.231 306.95 124.231 307.33C124.231 307.71 123.961 307.93 123.571 307.93ZM128.958 308.52C129.198 308.52 129.338 308.53 129.548 308.56V309.78H129.508C129.298 309.72 129.028 309.68 128.688 309.68C127.338 309.68 126.828 310.46 126.828 311.29V314H125.588V308.67H126.828V309.67C127.068 309.28 127.808 308.52 128.958 308.52ZM133.449 306.62H134.679V314H133.449V306.62ZM138.466 308.52C139.936 308.52 141.186 309.01 141.186 310.54V314H139.956V313.31C139.696 313.61 139.056 314.15 137.806 314.15C136.526 314.15 135.676 313.62 135.676 312.6C135.676 311.5 136.276 310.63 139.956 310.87V310.54C139.956 309.8 139.576 309.43 138.466 309.43C137.516 309.43 137.126 309.74 137.036 310.19H135.886C136.046 309.07 137.086 308.52 138.466 308.52ZM139.956 312.5V311.61C137.736 311.5 136.936 311.69 136.936 312.52C136.936 313.06 137.356 313.33 138.066 313.33C139.006 313.33 139.626 312.98 139.956 312.5ZM145.4 310.88C146.91 311.14 147.76 311.34 147.76 312.39C147.76 313.63 146.73 314.15 144.95 314.15C143.33 314.15 142.09 313.59 142.09 312.38H143.36C143.36 312.96 143.93 313.22 145.05 313.22C146.14 313.22 146.53 312.95 146.53 312.55C146.53 311.96 145.64 311.95 144.28 311.7C142.9 311.44 142.29 311.12 142.29 310.17C142.29 309.1 143.29 308.52 144.86 308.52C146.57 308.52 147.49 309.2 147.49 310.19H146.34C146.34 309.85 145.98 309.43 144.84 309.43C143.77 309.43 143.4 309.7 143.4 310.11C143.4 310.65 144.45 310.72 145.4 310.88ZM155.982 307H157.212V314H155.982V313.3C155.562 313.81 154.922 314.15 154.032 314.15C152.472 314.15 151.262 313.14 151.262 311.34C151.262 309.53 152.472 308.52 154.032 308.52C154.922 308.52 155.562 308.86 155.982 309.37V307ZM154.272 313.24C155.542 313.24 156.172 312.44 156.172 311.34C156.172 310.23 155.562 309.43 154.272 309.43C152.972 309.43 152.402 310.21 152.402 311.34C152.402 312.46 152.992 313.24 154.272 313.24ZM158.615 314V308.67H159.845V314H158.615ZM159.225 307.93C158.845 307.93 158.575 307.71 158.575 307.33C158.575 306.95 158.845 306.73 159.225 306.73C159.615 306.73 159.885 306.95 159.885 307.33C159.885 307.71 159.615 307.93 159.225 307.93ZM168.042 308.52C169.432 308.52 170.102 309.31 170.102 310.55V314H168.862V310.92C168.862 310.02 168.532 309.52 167.592 309.52C166.662 309.52 166.282 310.12 166.282 310.92V314H165.052V310.92C165.052 310.02 164.712 309.52 163.782 309.52C162.852 309.52 162.472 310.12 162.472 310.92V314H161.242V308.67H162.472V309.45C162.672 309.1 163.182 308.52 164.222 308.52C165.142 308.52 165.742 308.86 166.042 309.45C166.312 309.09 166.972 308.52 168.042 308.52ZM174.106 308.52C175.796 308.52 177.156 309.52 177.016 311.73H172.216C172.356 312.64 173.006 313.24 174.126 313.24C175.166 313.24 175.606 312.74 175.786 312.36H176.866C176.596 313.45 175.556 314.15 174.126 314.15C172.606 314.15 171.106 313.28 171.106 311.34C171.106 309.43 172.576 308.52 174.106 308.52ZM172.246 310.83H175.916C175.756 309.99 175.176 309.43 174.106 309.43C173.116 309.43 172.436 309.99 172.246 310.83ZM181.299 308.52C182.689 308.52 183.449 309.31 183.449 310.55V314H182.219V310.92C182.219 310.02 181.729 309.52 180.759 309.52C179.789 309.52 179.259 310.08 179.259 310.92V314H178.029V308.67H179.259V309.49C179.509 309.14 180.189 308.52 181.299 308.52ZM187.656 310.88C189.166 311.14 190.016 311.34 190.016 312.39C190.016 313.63 188.986 314.15 187.206 314.15C185.586 314.15 184.346 313.59 184.346 312.38H185.616C185.616 312.96 186.186 313.22 187.306 313.22C188.396 313.22 188.786 312.95 188.786 312.55C188.786 311.96 187.896 311.95 186.536 311.7C185.156 311.44 184.546 311.12 184.546 310.17C184.546 309.1 185.546 308.52 187.116 308.52C188.826 308.52 189.746 309.2 189.746 310.19H188.596C188.596 309.85 188.236 309.43 187.096 309.43C186.026 309.43 185.656 309.7 185.656 310.11C185.656 310.65 186.706 310.72 187.656 310.88ZM191.017 314V308.67H192.247V314H191.017ZM191.627 307.93C191.247 307.93 190.977 307.71 190.977 307.33C190.977 306.95 191.247 306.73 191.627 306.73C192.017 306.73 192.287 306.95 192.287 307.33C192.287 307.71 192.017 307.93 191.627 307.93ZM196.294 308.52C197.854 308.52 199.354 309.37 199.354 311.34C199.354 313.31 197.854 314.15 196.294 314.15C194.734 314.15 193.244 313.31 193.244 311.34C193.244 309.37 194.734 308.52 196.294 308.52ZM196.294 313.24C197.724 313.24 198.214 312.27 198.214 311.34C198.214 310.4 197.724 309.43 196.294 309.43C194.864 309.43 194.374 310.4 194.374 311.34C194.374 312.27 194.864 313.24 196.294 313.24ZM203.623 308.52C205.013 308.52 205.773 309.31 205.773 310.55V314H204.543V310.92C204.543 310.02 204.053 309.52 203.083 309.52C202.113 309.52 201.583 310.08 201.583 310.92V314H200.353V308.67H201.583V309.49C201.833 309.14 202.513 308.52 203.623 308.52ZM209.77 308.52C211.46 308.52 212.82 309.52 212.68 311.73H207.88C208.02 312.64 208.67 313.24 209.79 313.24C210.83 313.24 211.27 312.74 211.45 312.36H212.53C212.26 313.45 211.22 314.15 209.79 314.15C208.27 314.15 206.77 313.28 206.77 311.34C206.77 309.43 208.24 308.52 209.77 308.52ZM207.91 310.83H211.58C211.42 309.99 210.84 309.43 209.77 309.43C208.78 309.43 208.1 309.99 207.91 310.83ZM216.503 310.88C218.013 311.14 218.863 311.34 218.863 312.39C218.863 313.63 217.833 314.15 216.053 314.15C214.433 314.15 213.193 313.59 213.193 312.38H214.463C214.463 312.96 215.033 313.22 216.153 313.22C217.243 313.22 217.633 312.95 217.633 312.55C217.633 311.96 216.743 311.95 215.383 311.7C214.003 311.44 213.393 311.12 213.393 310.17C213.393 309.1 214.393 308.52 215.963 308.52C217.673 308.52 218.593 309.2 218.593 310.19H217.443C217.443 309.85 217.083 309.43 215.943 309.43C214.873 309.43 214.503 309.7 214.503 310.11C214.503 310.65 215.553 310.72 216.503 310.88ZM222.765 306.62H223.995V314H222.765V306.62ZM225.392 314V308.67H226.622V314H225.392ZM226.002 307.93C225.622 307.93 225.352 307.71 225.352 307.33C225.352 306.95 225.622 306.73 226.002 306.73C226.392 306.73 226.662 306.95 226.662 307.33C226.662 307.71 226.392 307.93 226.002 307.93ZM231.289 308.52C232.679 308.52 233.439 309.31 233.439 310.55V314H232.209V310.92C232.209 310.02 231.719 309.52 230.749 309.52C229.779 309.52 229.249 310.08 229.249 310.92V314H228.019V308.67H229.249V309.49C229.499 309.14 230.179 308.52 231.289 308.52ZM237.436 308.52C239.126 308.52 240.486 309.52 240.346 311.73H235.546C235.686 312.64 236.336 313.24 237.456 313.24C238.496 313.24 238.936 312.74 239.116 312.36H240.196C239.926 313.45 238.886 314.15 237.456 314.15C235.936 314.15 234.436 313.28 234.436 311.34C234.436 309.43 235.906 308.52 237.436 308.52ZM235.576 310.83H239.246C239.086 309.99 238.506 309.43 237.436 309.43C236.446 309.43 235.766 309.99 235.576 310.83ZM243.749 308.52C245.219 308.52 246.469 309.01 246.469 310.54V314H245.239V313.31C244.979 313.61 244.339 314.15 243.089 314.15C241.809 314.15 240.959 313.62 240.959 312.6C240.959 311.5 241.559 310.63 245.239 310.87V310.54C245.239 309.8 244.859 309.43 243.749 309.43C242.799 309.43 242.409 309.74 242.319 310.19H241.169C241.329 309.07 242.369 308.52 243.749 308.52ZM245.239 312.5V311.61C243.019 311.5 242.219 311.69 242.219 312.52C242.219 313.06 242.639 313.33 243.349 313.33C244.289 313.33 244.909 312.98 245.239 312.5ZM247.873 306.62H249.103V314H247.873V306.62ZM253.1 308.52C254.79 308.52 256.15 309.52 256.01 311.73H251.21C251.35 312.64 252 313.24 253.12 313.24C254.16 313.24 254.6 312.74 254.78 312.36H255.86C255.59 313.45 254.55 314.15 253.12 314.15C251.6 314.15 250.1 313.28 250.1 311.34C250.1 309.43 251.57 308.52 253.1 308.52ZM251.24 310.83H254.91C254.75 309.99 254.17 309.43 253.1 309.43C252.11 309.43 251.43 309.99 251.24 310.83ZM259.833 310.88C261.343 311.14 262.193 311.34 262.193 312.39C262.193 313.63 261.163 314.15 259.383 314.15C257.763 314.15 256.523 313.59 256.523 312.38H257.793C257.793 312.96 258.363 313.22 259.483 313.22C260.573 313.22 260.963 312.95 260.963 312.55C260.963 311.96 260.073 311.95 258.713 311.7C257.333 311.44 256.723 311.12 256.723 310.17C256.723 309.1 257.723 308.52 259.293 308.52C261.003 308.52 261.923 309.2 261.923 310.19H260.773C260.773 309.85 260.413 309.43 259.273 309.43C258.203 309.43 257.833 309.7 257.833 310.11C257.833 310.65 258.883 310.72 259.833 310.88Z" fill="white"/>
<path d="M159.04 52.9878C159.04 51.6858 159.226 50.9718 158.521 50.5518C135.701 49.4172 112.726 50.3839 89.8782 50.3839C89.5074 50.3839 89.2107 50.4679 88.9511 50.7198C88.5803 51.1398 88.5803 51.8538 88.5803 52.5258C88.4464 101.508 80.0293 275 132.018 275C177.596 275 157.125 96.3607 159.04 52.9878Z" fill="#2D2D2D" stroke="white" stroke-width="2" stroke-miterlimit="10"/>
<path d="M244 179H219V147H225.572V173.317H244V179Z" fill="white"/>
<path d="M180 50H179V275H180V50Z" fill="white"/>
<path d="M185.043 274H174.228V275.007H185.043V274Z" fill="white"/>
<path d="M185.043 50H174.228V51.0068H185.043V50Z" fill="white"/>
<path d="M191 50H202V274H191" stroke="white" stroke-miterlimit="10" stroke-dasharray="4 4"/>
</svg>
