<svg width="285" height="332" viewBox="0 0 285 332" fill="none" xmlns="http://www.w3.org/2000/svg">
<rect width="285" height="332" rx="10" fill="#D9D9D9"/>
<path d="M28.3076 314L27.5976 312.44H23.5876L22.8876 314H21.5576L24.7976 307H26.3976L29.6376 314H28.3076ZM24.0576 311.4H27.1376L25.5976 307.97L24.0576 311.4ZM33.1438 310.88C34.6538 311.14 35.5038 311.34 35.5038 312.39C35.5038 313.63 34.4738 314.15 32.6938 314.15C31.0738 314.15 29.8338 313.59 29.8338 312.38H31.1038C31.1038 312.96 31.6738 313.22 32.7938 313.22C33.8838 313.22 34.2738 312.95 34.2738 312.55C34.2738 311.96 33.3838 311.95 32.0238 311.7C30.6438 311.44 30.0338 311.12 30.0338 310.17C30.0338 309.1 31.0338 308.52 32.6038 308.52C34.3138 308.52 35.2338 309.2 35.2338 310.19H34.0838C34.0838 309.85 33.7238 309.43 32.5838 309.43C31.5138 309.43 31.1438 309.7 31.1438 310.11C31.1438 310.65 32.1938 310.72 33.1438 310.88ZM39.1057 308.52C40.7957 308.52 42.1557 309.52 42.0157 311.73H37.2157C37.3557 312.64 38.0057 313.24 39.1257 313.24C40.1657 313.24 40.6057 312.74 40.7857 312.36H41.8657C41.5957 313.45 40.5557 314.15 39.1257 314.15C37.6057 314.15 36.1057 313.28 36.1057 311.34C36.1057 309.43 37.5757 308.52 39.1057 308.52ZM37.2457 310.83H40.9157C40.7557 309.99 40.1757 309.43 39.1057 309.43C38.1157 309.43 37.4357 309.99 37.2457 310.83ZM47.3591 308.67H48.5891V313.49C48.5891 315.55 47.0191 315.86 45.4891 315.86C43.8191 315.86 42.8191 315.27 42.7091 314.26H43.8491C43.9291 314.58 44.3291 314.93 45.4891 314.93C46.9791 314.93 47.3591 314.45 47.3591 313.49V312.9C46.9691 313.37 46.3391 313.67 45.3991 313.67C43.8491 313.67 42.6291 312.9 42.6291 311.15C42.6291 309.39 43.8491 308.52 45.3991 308.52C46.3391 308.52 46.9691 308.87 47.3591 309.39V308.67ZM45.6391 312.87C46.7891 312.87 47.5491 312.25 47.5491 311.15C47.5491 310.04 46.8091 309.43 45.6391 309.43C44.4791 309.43 43.7691 310.02 43.7691 311.15C43.7691 312.27 44.4891 312.87 45.6391 312.87ZM54.182 308.67H55.412V314H54.182V313.18C53.932 313.53 53.252 314.15 52.142 314.15C50.752 314.15 49.992 313.36 49.992 312.12V308.67H51.222V311.75C51.222 312.65 51.712 313.15 52.682 313.15C53.652 313.15 54.182 312.59 54.182 311.75V308.67ZM53.022 306.65H54.322L53.082 307.94H52.282L53.022 306.65ZM60.1784 308.52C60.4184 308.52 60.5584 308.53 60.7684 308.56V309.78H60.7284C60.5184 309.72 60.2484 309.68 59.9084 309.68C58.5584 309.68 58.0484 310.46 58.0484 311.29V314H56.8084V308.67H58.0484V309.67C58.2884 309.28 59.0284 308.52 60.1784 308.52ZM64.2717 308.52C65.9617 308.52 67.3217 309.52 67.1817 311.73H62.3817C62.5217 312.64 63.1717 313.24 64.2917 313.24C65.3317 313.24 65.7717 312.74 65.9517 312.36H67.0317C66.7617 313.45 65.7217 314.15 64.2917 314.15C62.7717 314.15 61.2717 313.28 61.2717 311.34C61.2717 309.43 62.7417 308.52 64.2717 308.52ZM62.4117 310.83H66.0817C65.9217 309.99 65.3417 309.43 64.2717 309.43C63.2817 309.43 62.6017 309.99 62.4117 310.83ZM71.0051 310.88C72.5151 311.14 73.3651 311.34 73.3651 312.39C73.3651 313.63 72.3351 314.15 70.5551 314.15C68.9351 314.15 67.6951 313.59 67.6951 312.38H68.9651C68.9651 312.96 69.5351 313.22 70.6551 313.22C71.7451 313.22 72.1351 312.95 72.1351 312.55C72.1351 311.96 71.2451 311.95 69.8851 311.7C68.5051 311.44 67.8951 311.12 67.8951 310.17C67.8951 309.1 68.8951 308.52 70.4651 308.52C72.1751 308.52 73.0951 309.2 73.0951 310.19H71.9451C71.9451 309.85 71.5851 309.43 70.4451 309.43C69.3751 309.43 69.0051 309.7 69.0051 310.11C69.0051 310.65 70.0551 310.72 71.0051 310.88ZM76.967 308.52C78.657 308.52 80.017 309.52 79.877 311.73H75.077C75.217 312.64 75.867 313.24 76.987 313.24C78.027 313.24 78.467 312.74 78.647 312.36H79.727C79.457 313.45 78.417 314.15 76.987 314.15C75.467 314.15 73.967 313.28 73.967 311.34C73.967 309.43 75.437 308.52 76.967 308.52ZM75.107 310.83H78.777C78.617 309.99 78.037 309.43 76.967 309.43C75.977 309.43 75.297 309.99 75.107 310.83ZM88.1108 307H89.3408V314H88.1108V313.3C87.6908 313.81 87.0508 314.15 86.1608 314.15C84.6008 314.15 83.3908 313.14 83.3908 311.34C83.3908 309.53 84.6008 308.52 86.1608 308.52C87.0508 308.52 87.6908 308.86 88.1108 309.37V307ZM86.4008 313.24C87.6708 313.24 88.3008 312.44 88.3008 311.34C88.3008 310.23 87.6908 309.43 86.4008 309.43C85.1008 309.43 84.5308 310.21 84.5308 311.34C84.5308 312.46 85.1208 313.24 86.4008 313.24ZM93.3439 308.52C95.0339 308.52 96.3939 309.52 96.2539 311.73H91.4539C91.5939 312.64 92.2439 313.24 93.3639 313.24C94.4039 313.24 94.8439 312.74 95.0239 312.36H96.1039C95.8339 313.45 94.7939 314.15 93.3639 314.15C91.8439 314.15 90.3439 313.28 90.3439 311.34C90.3439 309.43 91.8139 308.52 93.3439 308.52ZM91.4839 310.83H95.1539C94.9939 309.99 94.4139 309.43 93.3439 309.43C92.3539 309.43 91.6739 309.99 91.4839 310.83ZM106.968 308.52C108.358 308.52 109.028 309.31 109.028 310.55V314H107.788V310.92C107.788 310.02 107.458 309.52 106.518 309.52C105.588 309.52 105.208 310.12 105.208 310.92V314H103.978V310.92C103.978 310.02 103.638 309.52 102.708 309.52C101.778 309.52 101.398 310.12 101.398 310.92V314H100.168V308.67H101.398V309.45C101.598 309.1 102.108 308.52 103.148 308.52C104.068 308.52 104.668 308.86 104.968 309.45C105.238 309.09 105.898 308.52 106.968 308.52ZM113.031 308.52C114.721 308.52 116.081 309.52 115.941 311.73H111.141C111.281 312.64 111.931 313.24 113.051 313.24C114.091 313.24 114.531 312.74 114.711 312.36H115.791C115.521 313.45 114.481 314.15 113.051 314.15C111.531 314.15 110.031 313.28 110.031 311.34C110.031 309.43 111.501 308.52 113.031 308.52ZM111.171 310.83H114.841C114.681 309.99 114.101 309.43 113.031 309.43C112.041 309.43 111.361 309.99 111.171 310.83ZM121.275 307H122.505V314H121.275V313.3C120.855 313.81 120.215 314.15 119.325 314.15C117.765 314.15 116.555 313.14 116.555 311.34C116.555 309.53 117.765 308.52 119.325 308.52C120.215 308.52 120.855 308.86 121.275 309.37V307ZM119.565 313.24C120.835 313.24 121.465 312.44 121.465 311.34C121.465 310.23 120.855 309.43 119.565 309.43C118.265 309.43 117.695 310.21 117.695 311.34C117.695 312.46 118.285 313.24 119.565 313.24ZM123.908 314V308.67H125.138V314H123.908ZM124.518 307.93C124.138 307.93 123.868 307.71 123.868 307.33C123.868 306.95 124.138 306.73 124.518 306.73C124.908 306.73 125.178 306.95 125.178 307.33C125.178 307.71 124.908 307.93 124.518 307.93ZM129.905 308.52C130.145 308.52 130.285 308.53 130.495 308.56V309.78H130.455C130.245 309.72 129.975 309.68 129.635 309.68C128.285 309.68 127.775 310.46 127.775 311.29V314H126.535V308.67H127.775V309.67C128.015 309.28 128.755 308.52 129.905 308.52ZM134.396 306.62H135.626V314H134.396V306.62ZM139.413 308.52C140.883 308.52 142.133 309.01 142.133 310.54V314H140.903V313.31C140.643 313.61 140.003 314.15 138.753 314.15C137.473 314.15 136.623 313.62 136.623 312.6C136.623 311.5 137.223 310.63 140.903 310.87V310.54C140.903 309.8 140.523 309.43 139.413 309.43C138.463 309.43 138.073 309.74 137.983 310.19H136.833C136.993 309.07 138.033 308.52 139.413 308.52ZM140.903 312.5V311.61C138.683 311.5 137.883 311.69 137.883 312.52C137.883 313.06 138.303 313.33 139.013 313.33C139.953 313.33 140.573 312.98 140.903 312.5ZM146.347 310.88C147.857 311.14 148.707 311.34 148.707 312.39C148.707 313.63 147.677 314.15 145.897 314.15C144.277 314.15 143.037 313.59 143.037 312.38H144.307C144.307 312.96 144.877 313.22 145.997 313.22C147.087 313.22 147.477 312.95 147.477 312.55C147.477 311.96 146.587 311.95 145.227 311.7C143.847 311.44 143.237 311.12 143.237 310.17C143.237 309.1 144.237 308.52 145.807 308.52C147.517 308.52 148.437 309.2 148.437 310.19H147.287C147.287 309.85 146.927 309.43 145.787 309.43C144.717 309.43 144.347 309.7 144.347 310.11C144.347 310.65 145.397 310.72 146.347 310.88ZM156.929 307H158.159V314H156.929V313.3C156.509 313.81 155.869 314.15 154.979 314.15C153.419 314.15 152.209 313.14 152.209 311.34C152.209 309.53 153.419 308.52 154.979 308.52C155.869 308.52 156.509 308.86 156.929 309.37V307ZM155.219 313.24C156.489 313.24 157.119 312.44 157.119 311.34C157.119 310.23 156.509 309.43 155.219 309.43C153.919 309.43 153.349 310.21 153.349 311.34C153.349 312.46 153.939 313.24 155.219 313.24ZM159.562 314V308.67H160.792V314H159.562ZM160.172 307.93C159.792 307.93 159.522 307.71 159.522 307.33C159.522 306.95 159.792 306.73 160.172 306.73C160.562 306.73 160.832 306.95 160.832 307.33C160.832 307.71 160.562 307.93 160.172 307.93ZM168.989 308.52C170.379 308.52 171.049 309.31 171.049 310.55V314H169.809V310.92C169.809 310.02 169.479 309.52 168.539 309.52C167.609 309.52 167.229 310.12 167.229 310.92V314H165.999V310.92C165.999 310.02 165.659 309.52 164.729 309.52C163.799 309.52 163.419 310.12 163.419 310.92V314H162.189V308.67H163.419V309.45C163.619 309.1 164.129 308.52 165.169 308.52C166.089 308.52 166.689 308.86 166.989 309.45C167.259 309.09 167.919 308.52 168.989 308.52ZM175.053 308.52C176.743 308.52 178.103 309.52 177.963 311.73H173.163C173.303 312.64 173.953 313.24 175.073 313.24C176.113 313.24 176.553 312.74 176.733 312.36H177.813C177.543 313.45 176.503 314.15 175.073 314.15C173.553 314.15 172.053 313.28 172.053 311.34C172.053 309.43 173.523 308.52 175.053 308.52ZM173.193 310.83H176.863C176.703 309.99 176.123 309.43 175.053 309.43C174.063 309.43 173.383 309.99 173.193 310.83ZM182.246 308.52C183.636 308.52 184.396 309.31 184.396 310.55V314H183.166V310.92C183.166 310.02 182.676 309.52 181.706 309.52C180.736 309.52 180.206 310.08 180.206 310.92V314H178.976V308.67H180.206V309.49C180.456 309.14 181.136 308.52 182.246 308.52ZM188.603 310.88C190.113 311.14 190.963 311.34 190.963 312.39C190.963 313.63 189.933 314.15 188.153 314.15C186.533 314.15 185.293 313.59 185.293 312.38H186.563C186.563 312.96 187.133 313.22 188.253 313.22C189.343 313.22 189.733 312.95 189.733 312.55C189.733 311.96 188.843 311.95 187.483 311.7C186.103 311.44 185.493 311.12 185.493 310.17C185.493 309.1 186.493 308.52 188.063 308.52C189.773 308.52 190.693 309.2 190.693 310.19H189.543C189.543 309.85 189.183 309.43 188.043 309.43C186.973 309.43 186.603 309.7 186.603 310.11C186.603 310.65 187.653 310.72 188.603 310.88ZM191.965 314V308.67H193.195V314H191.965ZM192.575 307.93C192.195 307.93 191.925 307.71 191.925 307.33C191.925 306.95 192.195 306.73 192.575 306.73C192.965 306.73 193.235 306.95 193.235 307.33C193.235 307.71 192.965 307.93 192.575 307.93ZM197.242 308.52C198.802 308.52 200.302 309.37 200.302 311.34C200.302 313.31 198.802 314.15 197.242 314.15C195.682 314.15 194.192 313.31 194.192 311.34C194.192 309.37 195.682 308.52 197.242 308.52ZM197.242 313.24C198.672 313.24 199.162 312.27 199.162 311.34C199.162 310.4 198.672 309.43 197.242 309.43C195.812 309.43 195.322 310.4 195.322 311.34C195.322 312.27 195.812 313.24 197.242 313.24ZM204.571 308.52C205.961 308.52 206.721 309.31 206.721 310.55V314H205.491V310.92C205.491 310.02 205.001 309.52 204.031 309.52C203.061 309.52 202.531 310.08 202.531 310.92V314H201.301V308.67H202.531V309.49C202.781 309.14 203.461 308.52 204.571 308.52ZM210.717 308.52C212.407 308.52 213.767 309.52 213.627 311.73H208.827C208.967 312.64 209.617 313.24 210.737 313.24C211.777 313.24 212.217 312.74 212.397 312.36H213.477C213.207 313.45 212.167 314.15 210.737 314.15C209.217 314.15 207.717 313.28 207.717 311.34C207.717 309.43 209.187 308.52 210.717 308.52ZM208.857 310.83H212.527C212.367 309.99 211.787 309.43 210.717 309.43C209.727 309.43 209.047 309.99 208.857 310.83ZM217.45 310.88C218.96 311.14 219.81 311.34 219.81 312.39C219.81 313.63 218.78 314.15 217 314.15C215.38 314.15 214.14 313.59 214.14 312.38H215.41C215.41 312.96 215.98 313.22 217.1 313.22C218.19 313.22 218.58 312.95 218.58 312.55C218.58 311.96 217.69 311.95 216.33 311.7C214.95 311.44 214.34 311.12 214.34 310.17C214.34 309.1 215.34 308.52 216.91 308.52C218.62 308.52 219.54 309.2 219.54 310.19H218.39C218.39 309.85 218.03 309.43 216.89 309.43C215.82 309.43 215.45 309.7 215.45 310.11C215.45 310.65 216.5 310.72 217.45 310.88ZM223.713 306.62H224.943V314H223.713V306.62ZM226.34 314V308.67H227.57V314H226.34ZM226.95 307.93C226.57 307.93 226.3 307.71 226.3 307.33C226.3 306.95 226.57 306.73 226.95 306.73C227.34 306.73 227.61 306.95 227.61 307.33C227.61 307.71 227.34 307.93 226.95 307.93ZM232.237 308.52C233.627 308.52 234.387 309.31 234.387 310.55V314H233.157V310.92C233.157 310.02 232.667 309.52 231.697 309.52C230.727 309.52 230.197 310.08 230.197 310.92V314H228.967V308.67H230.197V309.49C230.447 309.14 231.127 308.52 232.237 308.52ZM238.383 308.52C240.073 308.52 241.433 309.52 241.293 311.73H236.493C236.633 312.64 237.283 313.24 238.403 313.24C239.443 313.24 239.883 312.74 240.063 312.36H241.143C240.873 313.45 239.833 314.15 238.403 314.15C236.883 314.15 235.383 313.28 235.383 311.34C235.383 309.43 236.853 308.52 238.383 308.52ZM236.523 310.83H240.193C240.033 309.99 239.453 309.43 238.383 309.43C237.393 309.43 236.713 309.99 236.523 310.83ZM244.696 308.52C246.166 308.52 247.416 309.01 247.416 310.54V314H246.186V313.31C245.926 313.61 245.286 314.15 244.036 314.15C242.756 314.15 241.906 313.62 241.906 312.6C241.906 311.5 242.506 310.63 246.186 310.87V310.54C246.186 309.8 245.806 309.43 244.696 309.43C243.746 309.43 243.356 309.74 243.266 310.19H242.116C242.276 309.07 243.316 308.52 244.696 308.52ZM246.186 312.5V311.61C243.966 311.5 243.166 311.69 243.166 312.52C243.166 313.06 243.586 313.33 244.296 313.33C245.236 313.33 245.856 312.98 246.186 312.5ZM248.82 306.62H250.05V314H248.82V306.62ZM254.047 308.52C255.737 308.52 257.097 309.52 256.957 311.73H252.157C252.297 312.64 252.947 313.24 254.067 313.24C255.107 313.24 255.547 312.74 255.727 312.36H256.807C256.537 313.45 255.497 314.15 254.067 314.15C252.547 314.15 251.047 313.28 251.047 311.34C251.047 309.43 252.517 308.52 254.047 308.52ZM252.187 310.83H255.857C255.697 309.99 255.117 309.43 254.047 309.43C253.057 309.43 252.377 309.99 252.187 310.83ZM260.781 310.88C262.291 311.14 263.141 311.34 263.141 312.39C263.141 313.63 262.111 314.15 260.331 314.15C258.711 314.15 257.471 313.59 257.471 312.38H258.741C258.741 312.96 259.311 313.22 260.431 313.22C261.521 313.22 261.911 312.95 261.911 312.55C261.911 311.96 261.021 311.95 259.661 311.7C258.281 311.44 257.671 311.12 257.671 310.17C257.671 309.1 258.671 308.52 260.241 308.52C261.951 308.52 262.871 309.2 262.871 310.19H261.721C261.721 309.85 261.361 309.43 260.221 309.43C259.151 309.43 258.781 309.7 258.781 310.11C258.781 310.65 259.831 310.72 260.781 310.88Z" fill="black"/>
<path d="M159.04 52.9878C159.04 51.6858 159.226 50.9718 158.521 50.5518C135.701 49.4172 112.726 50.3839 89.8782 50.3839C89.5074 50.3839 89.2107 50.4679 88.9511 50.7198C88.5803 51.1398 88.5803 51.8538 88.5803 52.5258C88.4464 101.508 80.0293 275 132.018 275C177.596 275 157.125 96.3607 159.04 52.9878Z" fill="#D3D3D5" stroke="#1D1D1B" stroke-miterlimit="10"/>
<path d="M244 179H219V147H225.572V173.317H244V179Z" fill="#050A0A"/>
<path d="M180 50H179V275H180V50Z" fill="black"/>
<path d="M185.043 274H174.228V275.007H185.043V274Z" fill="black"/>
<path d="M185.043 50H174.228V51.0068H185.043V50Z" fill="black"/>
<path d="M191 50H202V274H191" stroke="black" stroke-miterlimit="10" stroke-dasharray="4 4"/>
</svg>
