<svg width="285" height="332" viewBox="0 0 285 332" fill="none" xmlns="http://www.w3.org/2000/svg">
<rect width="285" height="332" rx="10" fill="#D9D9D9"/>
<path d="M13.498 314L12.788 312.44H8.77805L8.07805 314H6.74805L9.98805 307H11.588L14.828 314H13.498ZM9.24805 311.4H12.328L10.788 307.97L9.24805 311.4ZM18.3342 310.88C19.8442 311.14 20.6942 311.34 20.6942 312.39C20.6942 313.63 19.6642 314.15 17.8842 314.15C16.2642 314.15 15.0242 313.59 15.0242 312.38H16.2942C16.2942 312.96 16.8642 313.22 17.9842 313.22C19.0742 313.22 19.4642 312.95 19.4642 312.55C19.4642 311.96 18.5742 311.95 17.2142 311.7C15.8342 311.44 15.2242 311.12 15.2242 310.17C15.2242 309.1 16.2242 308.52 17.7942 308.52C19.5042 308.52 20.4242 309.2 20.4242 310.19H19.2742C19.2742 309.85 18.9142 309.43 17.7742 309.43C16.7042 309.43 16.3342 309.7 16.3342 310.11C16.3342 310.65 17.3842 310.72 18.3342 310.88ZM24.5061 310.88C26.0161 311.14 26.8661 311.34 26.8661 312.39C26.8661 313.63 25.8361 314.15 24.0561 314.15C22.4361 314.15 21.1961 313.59 21.1961 312.38H22.4661C22.4661 312.96 23.0361 313.22 24.1561 313.22C25.2461 313.22 25.6361 312.95 25.6361 312.55C25.6361 311.96 24.7461 311.95 23.3861 311.7C22.0061 311.44 21.3961 311.12 21.3961 310.17C21.3961 309.1 22.3961 308.52 23.9661 308.52C25.6761 308.52 26.5961 309.2 26.5961 310.19H25.4461C25.4461 309.85 25.0861 309.43 23.9461 309.43C22.8761 309.43 22.5061 309.7 22.5061 310.11C22.5061 310.65 23.5561 310.72 24.5061 310.88ZM32.058 308.67H33.288V314H32.058V313.18C31.808 313.53 31.128 314.15 30.018 314.15C28.628 314.15 27.868 313.36 27.868 312.12V308.67H29.098V311.75C29.098 312.65 29.588 313.15 30.558 313.15C31.528 313.15 32.058 312.59 32.058 311.75V308.67ZM38.0544 308.52C38.2944 308.52 38.4344 308.53 38.6444 308.56V309.78H38.6044C38.3944 309.72 38.1244 309.68 37.7844 309.68C36.4344 309.68 35.9244 310.46 35.9244 311.29V314H34.6844V308.67H35.9244V309.67C36.1644 309.28 36.9044 308.52 38.0544 308.52ZM42.1477 308.52C43.8377 308.52 45.1977 309.52 45.0577 311.73H40.2577C40.3977 312.64 41.0477 313.24 42.1677 313.24C43.2077 313.24 43.6477 312.74 43.8277 312.36H44.9077C44.6377 313.45 43.5977 314.15 42.1677 314.15C40.6477 314.15 39.1477 313.28 39.1477 311.34C39.1477 309.43 40.6177 308.52 42.1477 308.52ZM40.2877 310.83H43.9577C43.7977 309.99 43.2177 309.43 42.1477 309.43C41.1577 309.43 40.4777 309.99 40.2877 310.83ZM47.2858 312.96H50.9058V314H45.5758V313.01L49.1058 309.71H45.7658V308.67H50.8158V309.66L47.2858 312.96ZM52.1086 310.76H55.2886V311.61H52.1086V310.76ZM60.9563 308.67H62.2563L59.8663 314H58.5763L56.1863 308.67H57.4863L59.2263 312.8L60.9563 308.67ZM65.5082 308.52C67.0682 308.52 68.5682 309.37 68.5682 311.34C68.5682 313.31 67.0682 314.15 65.5082 314.15C63.9482 314.15 62.4582 313.31 62.4582 311.34C62.4582 309.37 63.9482 308.52 65.5082 308.52ZM65.5082 313.24C66.9382 313.24 67.4282 312.27 67.4282 311.34C67.4282 310.4 66.9382 309.43 65.5082 309.43C64.0782 309.43 63.5882 310.4 63.5882 311.34C63.5882 312.27 64.0782 313.24 65.5082 313.24ZM73.7572 308.67H74.9872V314H73.7572V313.18C73.5072 313.53 72.8272 314.15 71.7172 314.15C70.3272 314.15 69.5672 313.36 69.5672 312.12V308.67H70.7972V311.75C70.7972 312.65 71.2872 313.15 72.2572 313.15C73.2272 313.15 73.7572 312.59 73.7572 311.75V308.67ZM79.1936 310.88C80.7036 311.14 81.5536 311.34 81.5536 312.39C81.5536 313.63 80.5236 314.15 78.7436 314.15C77.1236 314.15 75.8836 313.59 75.8836 312.38H77.1536C77.1536 312.96 77.7236 313.22 78.8436 313.22C79.9336 313.22 80.3236 312.95 80.3236 312.55C80.3236 311.96 79.4336 311.95 78.0736 311.7C76.6936 311.44 76.0836 311.12 76.0836 310.17C76.0836 309.1 77.0836 308.52 78.6536 308.52C80.3636 308.52 81.2836 309.2 81.2836 310.19H80.1336C80.1336 309.85 79.7736 309.43 78.6336 309.43C77.5636 309.43 77.1936 309.7 77.1936 310.11C77.1936 310.65 78.2436 310.72 79.1936 310.88ZM89.7759 307H91.0059V314H89.7759V313.3C89.3559 313.81 88.7159 314.15 87.8259 314.15C86.2659 314.15 85.0559 313.14 85.0559 311.34C85.0559 309.53 86.2659 308.52 87.8259 308.52C88.7159 308.52 89.3559 308.86 89.7759 309.37V307ZM88.0659 313.24C89.3359 313.24 89.9659 312.44 89.9659 311.34C89.9659 310.23 89.3559 309.43 88.0659 309.43C86.7659 309.43 86.1959 310.21 86.1959 311.34C86.1959 312.46 86.7859 313.24 88.0659 313.24ZM95.009 308.52C96.699 308.52 98.059 309.52 97.919 311.73H93.119C93.259 312.64 93.909 313.24 95.029 313.24C96.069 313.24 96.509 312.74 96.689 312.36H97.769C97.499 313.45 96.459 314.15 95.029 314.15C93.509 314.15 92.009 313.28 92.009 311.34C92.009 309.43 93.479 308.52 95.009 308.52ZM93.149 310.83H96.819C96.659 309.99 96.079 309.43 95.009 309.43C94.019 309.43 93.339 309.99 93.149 310.83ZM108.633 308.52C110.023 308.52 110.693 309.31 110.693 310.55V314H109.453V310.92C109.453 310.02 109.123 309.52 108.183 309.52C107.253 309.52 106.873 310.12 106.873 310.92V314H105.643V310.92C105.643 310.02 105.303 309.52 104.373 309.52C103.443 309.52 103.063 310.12 103.063 310.92V314H101.833V308.67H103.063V309.45C103.263 309.1 103.773 308.52 104.813 308.52C105.733 308.52 106.333 308.86 106.633 309.45C106.903 309.09 107.563 308.52 108.633 308.52ZM114.696 308.52C116.386 308.52 117.746 309.52 117.606 311.73H112.806C112.946 312.64 113.596 313.24 114.716 313.24C115.756 313.24 116.196 312.74 116.376 312.36H117.456C117.186 313.45 116.146 314.15 114.716 314.15C113.196 314.15 111.696 313.28 111.696 311.34C111.696 309.43 113.166 308.52 114.696 308.52ZM112.836 310.83H116.506C116.346 309.99 115.766 309.43 114.696 309.43C113.706 309.43 113.026 309.99 112.836 310.83ZM121.43 310.88C122.94 311.14 123.79 311.34 123.79 312.39C123.79 313.63 122.76 314.15 120.98 314.15C119.36 314.15 118.12 313.59 118.12 312.38H119.39C119.39 312.96 119.96 313.22 121.08 313.22C122.17 313.22 122.56 312.95 122.56 312.55C122.56 311.96 121.67 311.95 120.31 311.7C118.93 311.44 118.32 311.12 118.32 310.17C118.32 309.1 119.32 308.52 120.89 308.52C122.6 308.52 123.52 309.2 123.52 310.19H122.37C122.37 309.85 122.01 309.43 120.87 309.43C119.8 309.43 119.43 309.7 119.43 310.11C119.43 310.65 120.48 310.72 121.43 310.88ZM128.982 308.67H130.212V314H128.982V313.18C128.732 313.53 128.052 314.15 126.942 314.15C125.552 314.15 124.792 313.36 124.792 312.12V308.67H126.022V311.75C126.022 312.65 126.512 313.15 127.482 313.15C128.452 313.15 128.982 312.59 128.982 311.75V308.67ZM134.978 308.52C135.218 308.52 135.358 308.53 135.568 308.56V309.78H135.528C135.318 309.72 135.048 309.68 134.708 309.68C133.358 309.68 132.848 310.46 132.848 311.29V314H131.608V308.67H132.848V309.67C133.088 309.28 133.828 308.52 134.978 308.52ZM139.071 308.52C140.761 308.52 142.121 309.52 141.981 311.73H137.181C137.321 312.64 137.971 313.24 139.091 313.24C140.131 313.24 140.571 312.74 140.751 312.36H141.831C141.561 313.45 140.521 314.15 139.091 314.15C137.571 314.15 136.071 313.28 136.071 311.34C136.071 309.43 137.541 308.52 139.071 308.52ZM137.211 310.83H140.881C140.721 309.99 140.141 309.43 139.071 309.43C138.081 309.43 137.401 309.99 137.211 310.83ZM146.365 308.52C146.605 308.52 146.745 308.53 146.955 308.56V309.78H146.915C146.705 309.72 146.435 309.68 146.095 309.68C144.745 309.68 144.235 310.46 144.235 311.29V314H142.995V308.67H144.235V309.67C144.475 309.28 145.215 308.52 146.365 308.52ZM150.856 306.62H152.086V314H150.856V306.62ZM156.083 308.52C157.773 308.52 159.133 309.52 158.993 311.73H154.193C154.333 312.64 154.983 313.24 156.103 313.24C157.143 313.24 157.583 312.74 157.763 312.36H158.843C158.573 313.45 157.533 314.15 156.103 314.15C154.583 314.15 153.083 313.28 153.083 311.34C153.083 309.43 154.553 308.52 156.083 308.52ZM154.223 310.83H157.893C157.733 309.99 157.153 309.43 156.083 309.43C155.093 309.43 154.413 309.99 154.223 310.83ZM162.817 310.88C164.327 311.14 165.177 311.34 165.177 312.39C165.177 313.63 164.147 314.15 162.367 314.15C160.747 314.15 159.507 313.59 159.507 312.38H160.777C160.777 312.96 161.347 313.22 162.467 313.22C163.557 313.22 163.947 312.95 163.947 312.55C163.947 311.96 163.057 311.95 161.697 311.7C160.317 311.44 159.707 311.12 159.707 310.17C159.707 309.1 160.707 308.52 162.277 308.52C163.987 308.52 164.907 309.2 164.907 310.19H163.757C163.757 309.85 163.397 309.43 162.257 309.43C161.187 309.43 160.817 309.7 160.817 310.11C160.817 310.65 161.867 310.72 162.817 310.88ZM173.399 307H174.629V314H173.399V313.3C172.979 313.81 172.339 314.15 171.449 314.15C169.889 314.15 168.679 313.14 168.679 311.34C168.679 309.53 169.889 308.52 171.449 308.52C172.339 308.52 172.979 308.86 173.399 309.37V307ZM171.689 313.24C172.959 313.24 173.589 312.44 173.589 311.34C173.589 310.23 172.979 309.43 171.689 309.43C170.389 309.43 169.819 310.21 169.819 311.34C169.819 312.46 170.409 313.24 171.689 313.24ZM176.032 314V308.67H177.262V314H176.032ZM176.642 307.93C176.262 307.93 175.992 307.71 175.992 307.33C175.992 306.95 176.262 306.73 176.642 306.73C177.032 306.73 177.302 306.95 177.302 307.33C177.302 307.71 177.032 307.93 176.642 307.93ZM185.459 308.52C186.849 308.52 187.519 309.31 187.519 310.55V314H186.279V310.92C186.279 310.02 185.949 309.52 185.009 309.52C184.079 309.52 183.699 310.12 183.699 310.92V314H182.469V310.92C182.469 310.02 182.129 309.52 181.199 309.52C180.269 309.52 179.889 310.12 179.889 310.92V314H178.659V308.67H179.889V309.45C180.089 309.1 180.599 308.52 181.639 308.52C182.559 308.52 183.159 308.86 183.459 309.45C183.729 309.09 184.389 308.52 185.459 308.52ZM191.523 308.52C193.213 308.52 194.573 309.52 194.433 311.73H189.633C189.773 312.64 190.423 313.24 191.543 313.24C192.583 313.24 193.023 312.74 193.203 312.36H194.283C194.013 313.45 192.973 314.15 191.543 314.15C190.023 314.15 188.523 313.28 188.523 311.34C188.523 309.43 189.993 308.52 191.523 308.52ZM189.663 310.83H193.333C193.173 309.99 192.593 309.43 191.523 309.43C190.533 309.43 189.853 309.99 189.663 310.83ZM198.716 308.52C200.106 308.52 200.866 309.31 200.866 310.55V314H199.636V310.92C199.636 310.02 199.146 309.52 198.176 309.52C197.206 309.52 196.676 310.08 196.676 310.92V314H195.446V308.67H196.676V309.49C196.926 309.14 197.606 308.52 198.716 308.52ZM205.073 310.88C206.583 311.14 207.433 311.34 207.433 312.39C207.433 313.63 206.403 314.15 204.623 314.15C203.003 314.15 201.763 313.59 201.763 312.38H203.032C203.032 312.96 203.603 313.22 204.723 313.22C205.813 313.22 206.203 312.95 206.203 312.55C206.203 311.96 205.313 311.95 203.953 311.7C202.573 311.44 201.963 311.12 201.963 310.17C201.963 309.1 202.963 308.52 204.533 308.52C206.243 308.52 207.163 309.2 207.163 310.19H206.013C206.013 309.85 205.653 309.43 204.513 309.43C203.443 309.43 203.073 309.7 203.073 310.11C203.073 310.65 204.123 310.72 205.073 310.88ZM208.434 314V308.67H209.664V314H208.434ZM209.044 307.93C208.664 307.93 208.394 307.71 208.394 307.33C208.394 306.95 208.664 306.73 209.044 306.73C209.434 306.73 209.704 306.95 209.704 307.33C209.704 307.71 209.434 307.93 209.044 307.93ZM213.711 308.52C215.271 308.52 216.771 309.37 216.771 311.34C216.771 313.31 215.271 314.15 213.711 314.15C212.151 314.15 210.661 313.31 210.661 311.34C210.661 309.37 212.151 308.52 213.711 308.52ZM213.711 313.24C215.141 313.24 215.631 312.27 215.631 311.34C215.631 310.4 215.141 309.43 213.711 309.43C212.281 309.43 211.791 310.4 211.791 311.34C211.791 312.27 212.281 313.24 213.711 313.24ZM221.04 308.52C222.43 308.52 223.19 309.31 223.19 310.55V314H221.96V310.92C221.96 310.02 221.47 309.52 220.5 309.52C219.53 309.52 219 310.08 219 310.92V314H217.77V308.67H219V309.49C219.25 309.14 219.93 308.52 221.04 308.52ZM227.397 310.88C228.907 311.14 229.757 311.34 229.757 312.39C229.757 313.63 228.727 314.15 226.947 314.15C225.327 314.15 224.087 313.59 224.087 312.38H225.357C225.357 312.96 225.927 313.22 227.047 313.22C228.137 313.22 228.527 312.95 228.527 312.55C228.527 311.96 227.637 311.95 226.277 311.7C224.897 311.44 224.287 311.12 224.287 310.17C224.287 309.1 225.287 308.52 226.857 308.52C228.567 308.52 229.487 309.2 229.487 310.19H228.337C228.337 309.85 227.977 309.43 226.837 309.43C225.767 309.43 225.397 309.7 225.397 310.11C225.397 310.65 226.447 310.72 227.397 310.88ZM233.659 306.62H234.889V314H233.659V306.62ZM236.286 314V308.67H237.516V314H236.286ZM236.896 307.93C236.516 307.93 236.246 307.71 236.246 307.33C236.246 306.95 236.516 306.73 236.896 306.73C237.286 306.73 237.556 306.95 237.556 307.33C237.556 307.71 237.286 307.93 236.896 307.93ZM242.183 308.52C243.573 308.52 244.333 309.31 244.333 310.55V314H243.103V310.92C243.103 310.02 242.613 309.52 241.643 309.52C240.673 309.52 240.143 310.08 240.143 310.92V314H238.913V308.67H240.143V309.49C240.393 309.14 241.073 308.52 242.183 308.52ZM248.329 308.52C250.019 308.52 251.379 309.52 251.239 311.73H246.439C246.579 312.64 247.229 313.24 248.349 313.24C249.389 313.24 249.829 312.74 250.009 312.36H251.089C250.819 313.45 249.779 314.15 248.349 314.15C246.829 314.15 245.329 313.28 245.329 311.34C245.329 309.43 246.799 308.52 248.329 308.52ZM246.469 310.83H250.139C249.979 309.99 249.399 309.43 248.329 309.43C247.339 309.43 246.659 309.99 246.469 310.83ZM248.609 306.65H249.909L248.669 307.94H247.869L248.609 306.65ZM254.643 308.52C256.113 308.52 257.363 309.01 257.363 310.54V314H256.133V313.31C255.873 313.61 255.233 314.15 253.983 314.15C252.703 314.15 251.853 313.62 251.853 312.6C251.853 311.5 252.453 310.63 256.133 310.87V310.54C256.133 309.8 255.753 309.43 254.643 309.43C253.693 309.43 253.303 309.74 253.213 310.19H252.063C252.223 309.07 253.263 308.52 254.643 308.52ZM256.133 312.5V311.61C253.913 311.5 253.113 311.69 253.113 312.52C253.113 313.06 253.533 313.33 254.243 313.33C255.183 313.33 255.803 312.98 256.133 312.5ZM258.766 314V308.67H259.996V314H258.766ZM259.376 307.93C258.996 307.93 258.726 307.71 258.726 307.33C258.726 306.95 258.996 306.73 259.376 306.73C259.766 306.73 260.036 306.95 260.036 307.33C260.036 307.71 259.766 307.93 259.376 307.93ZM264.763 308.52C265.003 308.52 265.143 308.53 265.353 308.56V309.78H265.313C265.103 309.72 264.833 309.68 264.493 309.68C263.143 309.68 262.633 310.46 262.633 311.29V314H261.393V308.67H262.633V309.67C262.873 309.28 263.613 308.52 264.763 308.52ZM268.857 308.52C270.547 308.52 271.907 309.52 271.767 311.73H266.967C267.107 312.64 267.757 313.24 268.877 313.24C269.917 313.24 270.357 312.74 270.537 312.36H271.617C271.347 313.45 270.307 314.15 268.877 314.15C267.357 314.15 265.857 313.28 265.857 311.34C265.857 309.43 267.327 308.52 268.857 308.52ZM266.997 310.83H270.667C270.507 309.99 269.927 309.43 268.857 309.43C267.867 309.43 267.187 309.99 266.997 310.83ZM275.59 310.88C277.1 311.14 277.95 311.34 277.95 312.39C277.95 313.63 276.92 314.15 275.14 314.15C273.52 314.15 272.28 313.59 272.28 312.38H273.55C273.55 312.96 274.12 313.22 275.24 313.22C276.33 313.22 276.72 312.95 276.72 312.55C276.72 311.96 275.83 311.95 274.47 311.7C273.09 311.44 272.48 311.12 272.48 310.17C272.48 309.1 273.48 308.52 275.05 308.52C276.76 308.52 277.68 309.2 277.68 310.19H276.53C276.53 309.85 276.17 309.43 275.03 309.43C273.96 309.43 273.59 309.7 273.59 310.11C273.59 310.65 274.64 310.72 275.59 310.88Z" fill="black"/>
<path d="M159.04 52.9878C159.04 51.6858 159.226 50.9718 158.521 50.5518C135.701 49.4172 112.726 50.3839 89.8782 50.3839C89.5074 50.3839 89.2107 50.4679 88.9511 50.7198C88.5803 51.1398 88.5803 51.8538 88.5803 52.5258C88.4464 101.508 80.0293 275 132.018 275C177.596 275 157.125 96.3607 159.04 52.9878Z" fill="#D3D3D5" stroke="#1D1D1B" stroke-miterlimit="10"/>
<path d="M244 179H219V147H225.572V173.317H244V179Z" fill="#050A0A"/>
<path d="M180 50H179V275H180V50Z" fill="black"/>
<path d="M185.043 274H174.228V275.007H185.043V274Z" fill="black"/>
<path d="M185.043 50H174.228V51.0068H185.043V50Z" fill="black"/>
<path d="M191 50H202V274H191" stroke="black" stroke-miterlimit="10" stroke-dasharray="4 4"/>
</svg>
