<svg width="285" height="332" viewBox="0 0 285 332" fill="none" xmlns="http://www.w3.org/2000/svg">
<rect width="285" height="332" rx="10" fill="black"/>
<path d="M66.2217 302L65.5117 300.44H61.5017L60.8017 302H59.4717L62.7117 295H64.3117L67.5517 302H66.2217ZM61.9717 299.4H65.0517L63.5117 295.97L61.9717 299.4ZM71.0579 298.88C72.5679 299.14 73.4179 299.34 73.4179 300.39C73.4179 301.63 72.3879 302.15 70.6079 302.15C68.9879 302.15 67.7479 301.59 67.7479 300.38H69.0179C69.0179 300.96 69.5879 301.22 70.7079 301.22C71.7979 301.22 72.1879 300.95 72.1879 300.55C72.1879 299.96 71.2979 299.95 69.9379 299.7C68.5579 299.44 67.9479 299.12 67.9479 298.17C67.9479 297.1 68.9479 296.52 70.5179 296.52C72.2279 296.52 73.1479 297.2 73.1479 298.19H71.9979C71.9979 297.85 71.6379 297.43 70.4979 297.43C69.4279 297.43 69.0579 297.7 69.0579 298.11C69.0579 298.65 70.1079 298.72 71.0579 298.88ZM77.2297 298.88C78.7397 299.14 79.5897 299.34 79.5897 300.39C79.5897 301.63 78.5597 302.15 76.7797 302.15C75.1597 302.15 73.9197 301.59 73.9197 300.38H75.1897C75.1897 300.96 75.7597 301.22 76.8797 301.22C77.9697 301.22 78.3597 300.95 78.3597 300.55C78.3597 299.96 77.4697 299.95 76.1097 299.7C74.7297 299.44 74.1197 299.12 74.1197 298.17C74.1197 297.1 75.1197 296.52 76.6897 296.52C78.3997 296.52 79.3197 297.2 79.3197 298.19H78.1697C78.1697 297.85 77.8097 297.43 76.6697 297.43C75.5997 297.43 75.2297 297.7 75.2297 298.11C75.2297 298.65 76.2797 298.72 77.2297 298.88ZM84.7816 296.67H86.0116V302H84.7816V301.18C84.5316 301.53 83.8516 302.15 82.7416 302.15C81.3516 302.15 80.5916 301.36 80.5916 300.12V296.67H81.8216V299.75C81.8216 300.65 82.3116 301.15 83.2816 301.15C84.2516 301.15 84.7816 300.59 84.7816 299.75V296.67ZM90.778 296.52C91.018 296.52 91.158 296.53 91.368 296.56V297.78H91.328C91.118 297.72 90.848 297.68 90.508 297.68C89.158 297.68 88.648 298.46 88.648 299.29V302H87.408V296.67H88.648V297.67C88.888 297.28 89.628 296.52 90.778 296.52ZM94.8713 296.52C96.5613 296.52 97.9213 297.52 97.7813 299.73H92.9813C93.1213 300.64 93.7713 301.24 94.8913 301.24C95.9313 301.24 96.3713 300.74 96.5513 300.36H97.6313C97.3613 301.45 96.3213 302.15 94.8913 302.15C93.3713 302.15 91.8713 301.28 91.8713 299.34C91.8713 297.43 93.3413 296.52 94.8713 296.52ZM93.0113 298.83H96.6813C96.5213 297.99 95.9413 297.43 94.8713 297.43C93.8813 297.43 93.2013 297.99 93.0113 298.83ZM100.009 300.96H103.629V302H98.2994V301.01L101.829 297.71H98.4894V296.67H103.539V297.66L100.009 300.96ZM104.832 298.76H108.012V299.61H104.832V298.76ZM113.68 296.67H114.98L112.59 302H111.3L108.91 296.67H110.21L111.95 300.8L113.68 296.67ZM118.232 296.52C119.792 296.52 121.292 297.37 121.292 299.34C121.292 301.31 119.792 302.15 118.232 302.15C116.672 302.15 115.182 301.31 115.182 299.34C115.182 297.37 116.672 296.52 118.232 296.52ZM118.232 301.24C119.662 301.24 120.152 300.27 120.152 299.34C120.152 298.4 119.662 297.43 118.232 297.43C116.802 297.43 116.312 298.4 116.312 299.34C116.312 300.27 116.802 301.24 118.232 301.24ZM126.481 296.67H127.711V302H126.481V301.18C126.231 301.53 125.551 302.15 124.441 302.15C123.051 302.15 122.291 301.36 122.291 300.12V296.67H123.521V299.75C123.521 300.65 124.011 301.15 124.981 301.15C125.951 301.15 126.481 300.59 126.481 299.75V296.67ZM131.917 298.88C133.427 299.14 134.277 299.34 134.277 300.39C134.277 301.63 133.247 302.15 131.467 302.15C129.847 302.15 128.607 301.59 128.607 300.38H129.877C129.877 300.96 130.447 301.22 131.567 301.22C132.657 301.22 133.047 300.95 133.047 300.55C133.047 299.96 132.157 299.95 130.797 299.7C129.417 299.44 128.807 299.12 128.807 298.17C128.807 297.1 129.807 296.52 131.377 296.52C133.087 296.52 134.007 297.2 134.007 298.19H132.857C132.857 297.85 132.497 297.43 131.357 297.43C130.287 297.43 129.917 297.7 129.917 298.11C129.917 298.65 130.967 298.72 131.917 298.88ZM142.499 295H143.729V302H142.499V301.3C142.079 301.81 141.439 302.15 140.549 302.15C138.989 302.15 137.779 301.14 137.779 299.34C137.779 297.53 138.989 296.52 140.549 296.52C141.439 296.52 142.079 296.86 142.499 297.37V295ZM140.789 301.24C142.059 301.24 142.689 300.44 142.689 299.34C142.689 298.23 142.079 297.43 140.789 297.43C139.489 297.43 138.919 298.21 138.919 299.34C138.919 300.46 139.509 301.24 140.789 301.24ZM147.733 296.52C149.423 296.52 150.783 297.52 150.643 299.73H145.843C145.983 300.64 146.633 301.24 147.753 301.24C148.793 301.24 149.233 300.74 149.413 300.36H150.493C150.223 301.45 149.183 302.15 147.753 302.15C146.233 302.15 144.733 301.28 144.733 299.34C144.733 297.43 146.203 296.52 147.733 296.52ZM145.873 298.83H149.543C149.383 297.99 148.803 297.43 147.733 297.43C146.743 297.43 146.063 297.99 145.873 298.83ZM161.356 296.52C162.746 296.52 163.416 297.31 163.416 298.55V302H162.176V298.92C162.176 298.02 161.846 297.52 160.906 297.52C159.976 297.52 159.596 298.12 159.596 298.92V302H158.366V298.92C158.366 298.02 158.026 297.52 157.096 297.52C156.166 297.52 155.786 298.12 155.786 298.92V302H154.556V296.67H155.786V297.45C155.986 297.1 156.496 296.52 157.536 296.52C158.456 296.52 159.056 296.86 159.356 297.45C159.626 297.09 160.286 296.52 161.356 296.52ZM167.42 296.52C169.11 296.52 170.47 297.52 170.33 299.73H165.53C165.67 300.64 166.32 301.24 167.44 301.24C168.48 301.24 168.92 300.74 169.1 300.36H170.18C169.91 301.45 168.87 302.15 167.44 302.15C165.92 302.15 164.42 301.28 164.42 299.34C164.42 297.43 165.89 296.52 167.42 296.52ZM165.56 298.83H169.23C169.07 297.99 168.49 297.43 167.42 297.43C166.43 297.43 165.75 297.99 165.56 298.83ZM174.154 298.88C175.664 299.14 176.514 299.34 176.514 300.39C176.514 301.63 175.484 302.15 173.704 302.15C172.084 302.15 170.844 301.59 170.844 300.38H172.114C172.114 300.96 172.684 301.22 173.804 301.22C174.894 301.22 175.284 300.95 175.284 300.55C175.284 299.96 174.394 299.95 173.034 299.7C171.654 299.44 171.044 299.12 171.044 298.17C171.044 297.1 172.044 296.52 173.614 296.52C175.324 296.52 176.244 297.2 176.244 298.19H175.094C175.094 297.85 174.734 297.43 173.594 297.43C172.524 297.43 172.154 297.7 172.154 298.11C172.154 298.65 173.204 298.72 174.154 298.88ZM181.705 296.67H182.935V302H181.705V301.18C181.455 301.53 180.775 302.15 179.665 302.15C178.275 302.15 177.515 301.36 177.515 300.12V296.67H178.745V299.75C178.745 300.65 179.235 301.15 180.205 301.15C181.175 301.15 181.705 300.59 181.705 299.75V296.67ZM187.702 296.52C187.942 296.52 188.082 296.53 188.292 296.56V297.78H188.252C188.042 297.72 187.772 297.68 187.432 297.68C186.082 297.68 185.572 298.46 185.572 299.29V302H184.332V296.67H185.572V297.67C185.812 297.28 186.552 296.52 187.702 296.52ZM191.795 296.52C193.485 296.52 194.845 297.52 194.705 299.73H189.905C190.045 300.64 190.695 301.24 191.815 301.24C192.855 301.24 193.295 300.74 193.475 300.36H194.555C194.285 301.45 193.245 302.15 191.815 302.15C190.295 302.15 188.795 301.28 188.795 299.34C188.795 297.43 190.265 296.52 191.795 296.52ZM189.935 298.83H193.605C193.445 297.99 192.865 297.43 191.795 297.43C190.805 297.43 190.125 297.99 189.935 298.83ZM199.089 296.52C199.329 296.52 199.469 296.53 199.679 296.56V297.78H199.639C199.429 297.72 199.159 297.68 198.819 297.68C197.469 297.68 196.959 298.46 196.959 299.29V302H195.719V296.67H196.959V297.67C197.199 297.28 197.939 296.52 199.089 296.52ZM207.9 295H209.13V302H207.9V301.3C207.48 301.81 206.84 302.15 205.95 302.15C204.39 302.15 203.18 301.14 203.18 299.34C203.18 297.53 204.39 296.52 205.95 296.52C206.84 296.52 207.48 296.86 207.9 297.37V295ZM206.19 301.24C207.46 301.24 208.09 300.44 208.09 299.34C208.09 298.23 207.48 297.43 206.19 297.43C204.89 297.43 204.32 298.21 204.32 299.34C204.32 300.46 204.91 301.24 206.19 301.24ZM213.133 296.52C214.823 296.52 216.183 297.52 216.043 299.73H211.243C211.383 300.64 212.033 301.24 213.153 301.24C214.193 301.24 214.633 300.74 214.813 300.36H215.893C215.623 301.45 214.583 302.15 213.153 302.15C211.633 302.15 210.133 301.28 210.133 299.34C210.133 297.43 211.603 296.52 213.133 296.52ZM211.273 298.83H214.943C214.783 297.99 214.203 297.43 213.133 297.43C212.143 297.43 211.463 297.99 211.273 298.83ZM219.866 298.88C221.376 299.14 222.226 299.34 222.226 300.39C222.226 301.63 221.196 302.15 219.416 302.15C217.796 302.15 216.556 301.59 216.556 300.38H217.826C217.826 300.96 218.396 301.22 219.516 301.22C220.606 301.22 220.996 300.95 220.996 300.55C220.996 299.96 220.106 299.95 218.746 299.7C217.366 299.44 216.756 299.12 216.756 298.17C216.756 297.1 217.756 296.52 219.326 296.52C221.036 296.52 221.956 297.2 221.956 298.19H220.806C220.806 297.85 220.446 297.43 219.306 297.43C218.236 297.43 217.866 297.7 217.866 298.11C217.866 298.65 218.916 298.72 219.866 298.88ZM91.0835 308H92.3135V315H91.0835V314.3C90.6635 314.81 90.0235 315.15 89.1335 315.15C87.5735 315.15 86.3635 314.14 86.3635 312.34C86.3635 310.53 87.5735 309.52 89.1335 309.52C90.0235 309.52 90.6635 309.86 91.0835 310.37V308ZM89.3735 314.24C90.6435 314.24 91.2735 313.44 91.2735 312.34C91.2735 311.23 90.6635 310.43 89.3735 310.43C88.0735 310.43 87.5035 311.21 87.5035 312.34C87.5035 313.46 88.0935 314.24 89.3735 314.24ZM93.7166 315V309.67H94.9466V315H93.7166ZM94.3266 308.93C93.9466 308.93 93.6766 308.71 93.6766 308.33C93.6766 307.95 93.9466 307.73 94.3266 307.73C94.7166 307.73 94.9866 307.95 94.9866 308.33C94.9866 308.71 94.7166 308.93 94.3266 308.93ZM103.144 309.52C104.534 309.52 105.204 310.31 105.204 311.55V315H103.964V311.92C103.964 311.02 103.634 310.52 102.694 310.52C101.764 310.52 101.384 311.12 101.384 311.92V315H100.154V311.92C100.154 311.02 99.8136 310.52 98.8836 310.52C97.9536 310.52 97.5736 311.12 97.5736 311.92V315H96.3436V309.67H97.5736V310.45C97.7736 310.1 98.2836 309.52 99.3236 309.52C100.244 309.52 100.844 309.86 101.144 310.45C101.414 310.09 102.074 309.52 103.144 309.52ZM109.207 309.52C110.897 309.52 112.257 310.52 112.117 312.73H107.317C107.457 313.64 108.107 314.24 109.227 314.24C110.267 314.24 110.707 313.74 110.887 313.36H111.967C111.697 314.45 110.657 315.15 109.227 315.15C107.707 315.15 106.207 314.28 106.207 312.34C106.207 310.43 107.677 309.52 109.207 309.52ZM107.347 311.83H111.017C110.857 310.99 110.277 310.43 109.207 310.43C108.217 310.43 107.537 310.99 107.347 311.83ZM116.401 309.52C117.791 309.52 118.551 310.31 118.551 311.55V315H117.321V311.92C117.321 311.02 116.831 310.52 115.861 310.52C114.891 310.52 114.361 311.08 114.361 311.92V315H113.131V309.67H114.361V310.49C114.611 310.14 115.291 309.52 116.401 309.52ZM122.757 311.88C124.267 312.14 125.117 312.34 125.117 313.39C125.117 314.63 124.087 315.15 122.307 315.15C120.687 315.15 119.447 314.59 119.447 313.38H120.717C120.717 313.96 121.287 314.22 122.407 314.22C123.497 314.22 123.887 313.95 123.887 313.55C123.887 312.96 122.997 312.95 121.637 312.7C120.257 312.44 119.647 312.12 119.647 311.17C119.647 310.1 120.647 309.52 122.217 309.52C123.927 309.52 124.847 310.2 124.847 311.19H123.697C123.697 310.85 123.337 310.43 122.197 310.43C121.127 310.43 120.757 310.7 120.757 311.11C120.757 311.65 121.807 311.72 122.757 311.88ZM126.119 315V309.67H127.349V315H126.119ZM126.729 308.93C126.349 308.93 126.079 308.71 126.079 308.33C126.079 307.95 126.349 307.73 126.729 307.73C127.119 307.73 127.389 307.95 127.389 308.33C127.389 308.71 127.119 308.93 126.729 308.93ZM131.396 309.52C132.956 309.52 134.456 310.37 134.456 312.34C134.456 314.31 132.956 315.15 131.396 315.15C129.836 315.15 128.346 314.31 128.346 312.34C128.346 310.37 129.836 309.52 131.396 309.52ZM131.396 314.24C132.826 314.24 133.316 313.27 133.316 312.34C133.316 311.4 132.826 310.43 131.396 310.43C129.966 310.43 129.476 311.4 129.476 312.34C129.476 313.27 129.966 314.24 131.396 314.24ZM138.725 309.52C140.115 309.52 140.875 310.31 140.875 311.55V315H139.645V311.92C139.645 311.02 139.155 310.52 138.185 310.52C137.215 310.52 136.685 311.08 136.685 311.92V315H135.455V309.67H136.685V310.49C136.935 310.14 137.615 309.52 138.725 309.52ZM145.081 311.88C146.591 312.14 147.441 312.34 147.441 313.39C147.441 314.63 146.411 315.15 144.631 315.15C143.011 315.15 141.771 314.59 141.771 313.38H143.041C143.041 313.96 143.611 314.22 144.731 314.22C145.821 314.22 146.211 313.95 146.211 313.55C146.211 312.96 145.321 312.95 143.961 312.7C142.581 312.44 141.971 312.12 141.971 311.17C141.971 310.1 142.971 309.52 144.541 309.52C146.251 309.52 147.171 310.2 147.171 311.19H146.021C146.021 310.85 145.661 310.43 144.521 310.43C143.451 310.43 143.081 310.7 143.081 311.11C143.081 311.65 144.131 311.72 145.081 311.88ZM151.344 307.62H152.574V315H151.344V307.62ZM153.971 315V309.67H155.201V315H153.971ZM154.581 308.93C154.201 308.93 153.931 308.71 153.931 308.33C153.931 307.95 154.201 307.73 154.581 307.73C154.971 307.73 155.241 307.95 155.241 308.33C155.241 308.71 154.971 308.93 154.581 308.93ZM159.867 309.52C161.257 309.52 162.017 310.31 162.017 311.55V315H160.787V311.92C160.787 311.02 160.297 310.52 159.327 310.52C158.357 310.52 157.827 311.08 157.827 311.92V315H156.597V309.67H157.827V310.49C158.077 310.14 158.757 309.52 159.867 309.52ZM166.014 309.52C167.704 309.52 169.064 310.52 168.924 312.73H164.124C164.264 313.64 164.914 314.24 166.034 314.24C167.074 314.24 167.514 313.74 167.694 313.36H168.774C168.504 314.45 167.464 315.15 166.034 315.15C164.514 315.15 163.014 314.28 163.014 312.34C163.014 310.43 164.484 309.52 166.014 309.52ZM164.154 311.83H167.824C167.664 310.99 167.084 310.43 166.014 310.43C165.024 310.43 164.344 310.99 164.154 311.83ZM166.294 307.65H167.594L166.354 308.94H165.554L166.294 307.65ZM172.327 309.52C173.797 309.52 175.047 310.01 175.047 311.54V315H173.817V314.31C173.557 314.61 172.917 315.15 171.667 315.15C170.387 315.15 169.537 314.62 169.537 313.6C169.537 312.5 170.137 311.63 173.817 311.87V311.54C173.817 310.8 173.437 310.43 172.327 310.43C171.377 310.43 170.987 310.74 170.897 311.19H169.747C169.907 310.07 170.947 309.52 172.327 309.52ZM173.817 313.5V312.61C171.597 312.5 170.797 312.69 170.797 313.52C170.797 314.06 171.217 314.33 171.927 314.33C172.867 314.33 173.487 313.98 173.817 313.5ZM176.451 315V309.67H177.681V315H176.451ZM177.061 308.93C176.681 308.93 176.411 308.71 176.411 308.33C176.411 307.95 176.681 307.73 177.061 307.73C177.451 307.73 177.721 307.95 177.721 308.33C177.721 308.71 177.451 308.93 177.061 308.93ZM182.448 309.52C182.688 309.52 182.828 309.53 183.038 309.56V310.78H182.998C182.788 310.72 182.518 310.68 182.178 310.68C180.828 310.68 180.318 311.46 180.318 312.29V315H179.078V309.67H180.318V310.67C180.558 310.28 181.298 309.52 182.448 309.52ZM186.541 309.52C188.231 309.52 189.591 310.52 189.451 312.73H184.651C184.791 313.64 185.441 314.24 186.561 314.24C187.601 314.24 188.041 313.74 188.221 313.36H189.301C189.031 314.45 187.991 315.15 186.561 315.15C185.041 315.15 183.541 314.28 183.541 312.34C183.541 310.43 185.011 309.52 186.541 309.52ZM184.681 311.83H188.351C188.191 310.99 187.611 310.43 186.541 310.43C185.551 310.43 184.871 310.99 184.681 311.83ZM193.275 311.88C194.785 312.14 195.635 312.34 195.635 313.39C195.635 314.63 194.605 315.15 192.825 315.15C191.205 315.15 189.965 314.59 189.965 313.38H191.235C191.235 313.96 191.805 314.22 192.925 314.22C194.015 314.22 194.405 313.95 194.405 313.55C194.405 312.96 193.515 312.95 192.155 312.7C190.775 312.44 190.165 312.12 190.165 311.17C190.165 310.1 191.165 309.52 192.735 309.52C194.445 309.52 195.365 310.2 195.365 311.19H194.215C194.215 310.85 193.855 310.43 192.715 310.43C191.645 310.43 191.275 310.7 191.275 311.11C191.275 311.65 192.325 311.72 193.275 311.88Z" fill="white"/>
<path d="M159.04 52.9878C159.04 51.6858 159.226 50.9718 158.521 50.5518C135.701 49.4172 112.726 50.3839 89.8782 50.3839C89.5074 50.3839 89.2107 50.4679 88.9511 50.7198C88.5803 51.1398 88.5803 51.8538 88.5803 52.5258C88.4464 101.508 80.0293 275 132.018 275C177.596 275 157.125 96.3607 159.04 52.9878Z" fill="#2D2D2D" stroke="white" stroke-width="2" stroke-miterlimit="10"/>
<path d="M244 179H219V147H225.572V173.317H244V179Z" fill="white"/>
<path d="M180 50H179V275H180V50Z" fill="white"/>
<path d="M185.043 274H174.228V275.007H185.043V274Z" fill="white"/>
<path d="M185.043 50H174.228V51.0068H185.043V50Z" fill="white"/>
<path d="M191 50H202V274H191" stroke="white" stroke-miterlimit="10" stroke-dasharray="4 4"/>
</svg>
