<svg width="285" height="331" viewBox="0 0 285 331" fill="none" xmlns="http://www.w3.org/2000/svg">
<rect width="285" height="331" rx="10" fill="black"/>
<path fill-rule="evenodd" clip-rule="evenodd" d="M194.232 41C197.545 57.6428 199.215 74.641 196.978 91.4911C196.186 99.4868 195.251 107.779 194.288 116.07C193.92 119.298 193.524 122.526 193.156 125.724C191.541 139.258 189.984 152.466 188.993 164.133C188.37 171.329 187.973 177.904 187.945 183.589C187.888 189.275 188.2 194.043 188.964 197.626V197.715C194.911 225.315 194.826 258.127 189.842 287H186.897C191.853 258.719 192.108 226.263 186.133 198.396V198.337C185.142 193.747 185 188.387 185 183.619C185 177.104 185.425 170.411 185.991 163.867C187.039 152.229 188.426 140.59 189.842 128.952C190.38 124.54 190.89 120.157 191.428 115.745C192.561 106.179 193.665 96.6143 194.486 86.9603C196.214 71.9462 194.232 56.3991 191.428 41.6219L194.317 41.0296L194.232 41Z" fill="white"/>
<path fill-rule="evenodd" clip-rule="evenodd" d="M105.324 267.106C107.226 250.142 108.104 234.182 105.441 218.929C105.383 218.664 105.354 218.398 105.295 218.133V218.015L105.266 217.956V217.867L105.324 217.808C105.441 217.513 105.559 217.188 105.705 216.864C106.758 214.061 107.782 210.403 108.747 206.096C114.745 177.714 117.67 145.498 122.644 116.645C124.223 107.145 125.949 98.383 127.793 91.1844C127.793 91.1844 127.793 91.1549 127.793 91.1254C127.793 91.1254 127.793 91.1549 127.793 91.1844C129.665 98.4125 131.362 107.145 132.971 116.674C133.088 117.294 133.176 117.884 133.263 118.503C134.755 127.531 136.16 137.208 137.535 146.885V146.944C137.622 147.445 137.681 147.976 137.769 148.478L137.915 149.54L137.973 149.864C138.237 151.694 138.5 153.493 138.734 155.322L138.997 157.269C139.495 160.869 140.021 164.468 140.519 167.979C141.601 175.443 142.654 182.612 143.737 189.161C144.761 195.445 145.843 201.139 146.926 206.007V206.155C147.92 210.462 148.944 214.091 149.997 216.893C150.114 217.218 150.231 217.513 150.348 217.808V217.867L150.407 217.956C150.378 218.162 150.348 218.369 150.29 218.546C150.231 218.929 150.173 219.283 150.085 219.667C147.832 233.267 148.125 248.254 149.5 263.95C150.144 271.178 150.992 278.553 151.928 286.017H155C154.093 278.583 153.245 271.148 152.601 263.684C151.285 248.933 150.67 233.267 153.449 218.516V218.398L153.625 217.513L153.186 216.775C151.723 213.235 150.67 209.075 149.939 205.388C148.622 199.93 147.598 194.295 146.691 188.689C145.112 179.396 143.824 169.985 142.508 160.574C142.332 159.335 142.157 158.125 142.011 156.886C141.513 153.434 141.045 149.953 140.519 146.501V146.206C139.29 137.208 137.973 128.21 136.452 119.094C136.277 118.12 136.13 117.146 135.955 116.143C134.58 108.119 133.059 99.9761 131.069 92.0695C130.747 90.7419 128.056 80.4456 127.705 79C127.354 80.3571 124.633 90.8304 124.34 92.0695C122.468 99.5336 121.152 107.175 119.864 114.757C114.481 144.908 112.141 175.502 105.646 205.358C105.559 205.771 105.441 206.184 105.354 206.627C104.564 209.99 103.715 213.589 102.282 216.716V216.775L101.96 217.513L102.106 218.398V218.516C105.032 234.3 104.008 250.821 102.253 266.782L100 290H102.633C102.633 290 104.622 272.859 105.266 267.106H105.324Z" fill="white"/>
<path fill-rule="evenodd" clip-rule="evenodd" d="M66.9617 291C61.0331 261.086 60.6321 226.27 66.9617 197.243V197.184C67.735 193.61 68.0214 188.856 67.9927 183.186C67.9355 177.517 67.5345 170.931 66.933 163.785C65.9306 152.15 64.3267 138.951 62.7229 125.455C59.1714 97.2249 54.7608 69.0534 61.5486 41L64.4986 41.6201C57.453 70.0869 62.551 99.2329 65.9879 127.788C67.4486 139.689 68.8806 151.589 69.8544 163.519C70.4272 170.046 71 176.69 71 183.216C71 187.97 70.8568 193.315 69.8544 197.892V197.951C63.5248 227.127 64.0976 261.293 69.8544 290.439" fill="white"/>
<path d="M187.145 294.903C183.724 304.398 175.142 310 167.562 310C144.794 310 148.717 248.374 148.717 239.352C148.717 232.128 149.837 222.456 150.457 218.181C148.569 214.849 145.856 200.401 144.44 191.378C143.29 184.154 137.008 142.785 134 123C134 123 145.384 125.742 164.495 125.742C183.606 125.742 194.282 123 194.282 123C193.663 126.479 192.011 137.153 190.478 151.955C188.59 170.266 189.976 184.891 193.692 224.284L193.81 225.552C197.615 265.859 191.451 282.961 187.174 294.844L187.145 294.903Z" fill="#2D2D2D" stroke="white" stroke-width="2" stroke-miterlimit="10"/>
<path d="M164.104 121H164.015C162.593 121 161.17 121 159.807 120.97V119.883C161.2 119.883 162.593 119.913 164.015 119.913L164.104 121ZM167.304 121V119.913C168.756 119.913 170.178 119.853 171.57 119.823V120.909C170.207 120.94 168.785 120.97 167.304 121ZM156.578 120.909C155.096 120.879 153.674 120.819 152.281 120.728L152.341 119.642C153.704 119.702 155.156 119.762 156.607 119.823V120.909H156.578ZM174.83 120.758L174.77 119.672C176.252 119.611 177.674 119.521 179.037 119.43L179.126 120.517C177.763 120.608 176.311 120.698 174.83 120.758ZM149.052 120.517C147.541 120.426 146.089 120.306 144.756 120.155L144.874 119.068C146.207 119.189 147.63 119.309 149.141 119.43L149.081 120.517H149.052ZM182.356 120.245L182.267 119.158C183.837 119.008 185.259 118.857 186.504 118.675L186.652 119.762C185.378 119.943 183.956 120.094 182.356 120.245ZM141.556 119.792C139.867 119.551 138.415 119.309 137.289 119.008L137.526 117.951C138.622 118.223 140.015 118.464 141.704 118.706L141.556 119.792ZM189.822 119.219L189.615 118.162C192.667 117.528 192.933 116.985 192.933 116.955L193.763 116.351C193.911 116.562 194 116.774 194 117.015C194 117.951 192.756 118.615 189.822 119.219ZM134.059 117.347C134.059 117.347 134 117.136 134 117.015C134 116.079 135.215 115.415 138 114.811L138.207 115.868C135.333 116.502 135.037 117.015 135.037 117.045L134.03 117.377L134.059 117.347ZM190.296 115.989C189.2 115.717 187.778 115.475 186.119 115.264L186.267 114.177C187.956 114.419 189.407 114.66 190.533 114.932L190.296 115.989ZM141.348 115.325L141.2 114.238C142.504 114.057 143.926 113.875 145.496 113.755L145.585 114.842C144.044 114.992 142.622 115.143 141.348 115.325ZM182.948 114.902C181.615 114.781 180.193 114.66 178.681 114.54L178.741 113.453C180.252 113.543 181.704 113.664 183.037 113.815L182.919 114.902H182.948ZM148.785 114.57L148.696 113.483C150.059 113.392 151.481 113.302 152.993 113.242L153.052 114.328C151.57 114.389 150.148 114.479 148.785 114.57ZM175.511 114.358C174.148 114.298 172.696 114.238 171.244 114.177V113.091C172.756 113.121 174.178 113.181 175.57 113.272L175.511 114.358ZM156.252 114.208V113.121C157.615 113.091 159.037 113.03 160.519 113.03V114.117C159.067 114.117 157.644 114.177 156.252 114.208ZM168.015 114.117C166.711 114.117 165.348 114.087 163.985 114.087H163.719V113H163.985C165.348 113 166.711 113 168.015 113.03V114.117Z" fill="white"/>
<path d="M169.446 113L168 112.531L203.527 76H227V77.4659H204.611L169.446 113Z" fill="white"/>
<path d="M172.805 114.247C172.102 116.358 169.863 117.477 167.753 116.805C165.642 116.102 164.523 113.863 165.195 111.753C165.898 109.642 168.137 108.523 170.247 109.195C172.358 109.898 173.477 112.137 172.805 114.247Z" fill="black"/>
<path d="M172.803 113.92C173.482 111.569 172.351 109.027 170.258 108.233C168.166 107.439 165.904 108.742 165.197 111.092C164.518 113.443 165.649 115.985 167.742 116.779C169.834 117.541 172.096 116.271 172.803 113.92C173.482 111.569 172.125 116.271 172.803 113.92ZM166.073 111.442C166.611 109.631 168.336 108.646 169.947 109.25C171.559 109.853 172.436 111.791 171.898 113.602C171.361 115.413 169.636 116.398 168.024 115.794C166.413 115.19 165.536 113.253 166.073 111.442C166.611 109.631 165.536 113.253 166.073 111.442Z" fill="white"/>
<path d="M247.879 76.4404H254.111C253.255 82.0522 248.382 84.1492 243.065 84.1492C237.217 84.1492 231.871 81.6682 231.871 74.7864C231.871 67.9046 237.217 65.4531 243.065 65.4531C248.411 65.4531 253.284 67.5502 254.111 73.1619H247.879C247.318 70.8877 245.96 69.5586 243.065 69.5586C239.609 69.5586 238.015 71.6261 238.015 74.7864C238.015 77.9467 239.609 80.0438 243.065 80.0438C245.96 80.0438 247.318 78.7147 247.879 76.4404Z" fill="white"/>
<path d="M267.639 81.2007V83.7703H255.234C255.47 76.7408 263.799 78.1585 263.799 75.4412C263.799 74.437 262.943 74.0235 261.732 74.0235C260.521 74.0235 259.635 74.4075 259.487 75.5889H255.736C255.913 72.8125 258.483 71.6016 261.791 71.6016C264.656 71.6016 267.521 72.5172 267.521 75.4412C267.521 80.1965 261.082 79.1332 259.517 81.2302H267.639V81.2007Z" fill="white"/>
</svg>
