<svg width="285" height="331" viewBox="0 0 285 331" fill="none" xmlns="http://www.w3.org/2000/svg">
<rect width="285" height="331" rx="10" fill="black"/>
<g clip-path="url(#clip0_10590_4789)">
<path d="M183.722 268.211H182.641V302.774H183.722V268.211Z" fill="white"/>
<path d="M187.459 302.367H178.679V303.181H187.459V302.367Z" fill="white"/>
<path d="M187.459 267.758H178.679V268.572H187.459V267.758Z" fill="white"/>
<path d="M243.336 230.71H250.045C248.919 237.948 242.616 240.572 236.582 240.572C230.008 240.572 222.984 237.405 222.984 228.629C222.984 219.853 230.008 216.641 236.582 216.641C242.616 216.641 248.964 219.31 250.045 226.548H243.336C242.616 223.381 240.634 221.255 236.537 221.255C231.854 221.255 229.513 224.15 229.513 228.584C229.513 233.017 231.854 235.913 236.537 235.913C240.634 235.913 242.616 233.786 243.336 230.665V230.71Z" fill="white"/>
<path d="M154 273C163.389 273 171 270.985 171 268.5C171 266.015 163.389 264 154 264C144.611 264 137 266.015 137 268.5C137 270.985 144.611 273 154 273Z" stroke="white" stroke-miterlimit="10" stroke-dasharray="1 0.75"/>
<path d="M161.434 263.555L160.083 263.148L193.808 227.273H216.141V228.721H194.888L161.434 263.555Z" fill="white"/>
<path d="M164.091 264.692C163.46 266.592 161.434 267.588 159.588 267C157.697 266.366 156.706 264.33 157.292 262.476C157.922 260.576 159.948 259.58 161.794 260.168C163.685 260.802 164.676 262.838 164.091 264.692Z" fill="black"/>
<path d="M164.541 264.824C165.261 262.698 164.091 260.391 161.974 259.667C159.858 258.943 157.562 260.119 156.842 262.246C156.121 264.372 157.292 266.679 159.408 267.403C161.524 268.127 163.821 266.951 164.541 264.824C165.261 262.698 163.821 266.951 164.541 264.824ZM157.742 262.608C158.282 260.979 160.038 260.074 161.659 260.617C163.28 261.16 164.181 262.924 163.64 264.553C163.1 266.181 161.344 267.086 159.723 266.543C158.102 266.001 157.202 264.236 157.742 262.608C158.282 260.979 157.202 264.236 157.742 262.608Z" fill="white"/>
<path d="M78.8255 339.806C78.628 331.119 80.1581 322.285 81.54 314.338C83.9584 276.976 94.175 237.985 88.4004 201.561C100.443 160.497 100.69 111.537 111.104 70.1274C121.567 111.537 121.863 160.497 133.956 201.561C130.056 223.327 132.722 248.942 135.535 272.139C136.325 279.937 139.335 296.373 150.638 296.373C161.94 296.373 169.738 284.725 172.848 272.139C178.03 242.279 178.129 208.372 171.91 179.894C169.985 169.628 171.021 157.437 171.959 145.296C174.131 108.477 185.187 67.9557 179.56 30.4456C176.549 10.2098 169.985 -15.1589 162.779 -33.5685C160.509 -39.4418 159.522 -45.6606 159.768 -51.9781C160.262 -62.244 161.743 -75.6194 162.286 -82.7266L158.386 -74.731C157.942 -66.4393 156.462 -57.654 156.412 -49.3129C156.363 -43.489 157.696 -37.7637 159.867 -32.3346C167.912 -12.1482 172.996 9.12399 176.451 30.5936C182.028 68.8441 171.219 106.947 168.8 145.049C167.912 156.796 166.826 168.986 168.949 180.634C175.167 209.458 174.921 242.97 169.738 272.189C167.517 284.577 157.449 294.349 150.638 294.349C142.099 294.349 139.088 275.94 138.595 272.139C135.979 248.695 132.87 224.659 137.213 201.117C130.303 182.263 129.217 161.83 126.009 142.038C122.209 113.807 118.705 85.1314 111.104 57.5417C107.945 69.4364 104.984 82.5156 103.158 94.6077C97.6299 126.294 95.3595 158.474 88.4991 189.814C87.6601 193.565 86.673 197.563 85.0936 201.067C90.5227 231.47 83.5142 262.416 80.6023 292.721C79.9606 308.613 75.8641 323.864 75.7161 339.855" fill="white"/>
<path d="M53.3562 180.631C57.6995 137.988 44.9164 95.493 43.9786 52.8005C44.3241 29.6528 50 6.65312 56.5149 -15.4581C61.8947 -34.1639 68.2615 -38.8526 64.9547 -60.0755L62.5856 -81.0022L58.884 -85L61.9934 -59.6806C62.7831 -49.2666 62.3389 -43.0972 61.9934 -40.9256C61.0063 -35.5458 56.7617 -26.6125 53.6029 -16.3465C46.5945 7.29474 39.5366 35.8222 41.2641 61.4377C43.5838 100.231 54.2446 142.233 50.4442 180.039C36.9208 232.208 56.5149 286.893 55.8239 340H58.9333C59.7724 286.893 39.8821 233.639 53.3562 180.73V180.631Z" fill="white"/>
<path d="M190 268H200V303H190" stroke="white" stroke-miterlimit="10" stroke-dasharray="4 4"/>
<path d="M212.204 284.75C213.352 284.974 214.332 285.548 214.332 287.004C214.332 289.524 211.896 290.196 209.376 290.196C206.8 290.196 204.518 289.37 204.42 287.046H206.968C207.094 287.956 207.92 288.348 209.474 288.348C211 288.348 211.77 287.9 211.77 286.92C211.77 285.996 211.028 285.744 210.006 285.744H207.962V284.008H210.006C210.916 284.008 211.392 283.616 211.392 282.958C211.392 282.258 210.874 281.74 209.348 281.74C208.046 281.74 207.43 282.02 207.262 282.874H204.714C204.84 280.802 206.898 279.99 209.376 279.99C211.644 279.99 213.856 280.494 213.856 282.706C213.856 283.812 213.114 284.414 212.204 284.75ZM216.692 287.424C217.448 287.424 218.064 288.054 218.064 288.81C218.064 289.58 217.448 290.196 216.692 290.196C215.922 290.196 215.306 289.58 215.306 288.81C215.306 288.054 215.922 287.424 216.692 287.424ZM223.823 279.99C226.777 279.99 229.003 281.264 229.003 285.1C229.003 288.838 226.651 290.196 223.823 290.196C221.947 290.196 219.497 289.552 219.231 287.396H221.877C222.073 288.04 222.801 288.362 223.823 288.362C225.699 288.362 226.315 287.27 226.413 285.646C225.811 286.29 224.733 286.682 223.557 286.682C221.093 286.682 219.049 285.828 219.049 283.504C219.049 280.816 221.359 279.99 223.823 279.99ZM223.697 285.1C225.279 285.1 226.133 284.68 226.133 283.504C226.133 282.23 225.265 281.838 223.823 281.838C222.451 281.838 221.611 282.286 221.611 283.504C221.611 284.722 222.605 285.1 223.697 285.1ZM234.04 290V282.538H236.56V290H234.04ZM235.3 281.796C234.53 281.796 233.998 281.362 233.998 280.606C233.998 279.85 234.53 279.416 235.3 279.416C236.07 279.416 236.602 279.85 236.602 280.606C236.602 281.362 236.07 281.796 235.3 281.796ZM243.228 282.328C245.146 282.328 246.35 283.378 246.35 285.058V290H243.83V285.618C243.83 284.792 243.312 284.162 242.178 284.162C241.058 284.162 240.484 284.792 240.484 285.618V290H237.964V282.538H240.484V283.602C240.778 283.168 241.674 282.328 243.228 282.328Z" fill="white"/>
</g>
<defs>
<clipPath id="clip0_10590_4789">
<rect width="210" height="277" fill="white" transform="translate(40 27)"/>
</clipPath>
</defs>
</svg>
