<svg width="285" height="331" viewBox="0 0 285 331" fill="none" xmlns="http://www.w3.org/2000/svg">
<rect width="285" height="331" rx="10" fill="#E5E5E6"/>
<g clip-path="url(#clip0_4039_817)">
<path d="M183.722 268.219H182.642V302.782H183.722V268.219Z" fill="black"/>
<path d="M187.459 302.375H178.679V303.189H187.459V302.375Z" fill="black"/>
<path d="M187.459 267.766H178.679V268.58H187.459V267.766Z" fill="black"/>
<path d="M243.336 230.714H250.045C248.919 237.952 242.616 240.576 236.582 240.576C230.008 240.576 222.984 237.409 222.984 228.633C222.984 219.857 230.008 216.645 236.582 216.645C242.616 216.645 248.964 219.314 250.045 226.552H243.336C242.616 223.385 240.634 221.259 236.537 221.259C231.854 221.259 229.513 224.154 229.513 228.588C229.513 233.021 231.854 235.916 236.537 235.916C240.634 235.916 242.616 233.79 243.336 230.669V230.714Z" fill="black"/>
<path d="M154 273C163.389 273 171 270.985 171 268.5C171 266.015 163.389 264 154 264C144.611 264 137 266.015 137 268.5C137 270.985 144.611 273 154 273Z" stroke="black" stroke-miterlimit="10" stroke-dasharray="1 0.75"/>
<path d="M161.434 263.559L160.083 263.152L193.808 227.277H216.141V228.725H194.888L161.434 263.559Z" fill="black"/>
<path d="M164.091 264.688C163.461 266.589 161.435 267.584 159.588 266.996C157.697 266.362 156.707 264.327 157.292 262.472C157.923 260.572 159.949 259.576 161.795 260.165C163.686 260.798 164.676 262.834 164.091 264.688Z" fill="white"/>
<path d="M164.541 264.824C165.262 262.698 164.091 260.391 161.975 259.667C159.859 258.943 157.562 260.119 156.842 262.246C156.121 264.372 157.292 266.679 159.408 267.403C161.524 268.127 163.821 266.951 164.541 264.824C165.262 262.698 163.821 266.951 164.541 264.824ZM157.742 262.608C158.283 260.979 160.039 260.074 161.66 260.617C163.28 261.16 164.181 262.924 163.641 264.553C163.1 266.181 161.344 267.086 159.723 266.543C158.103 266.001 157.202 264.236 157.742 262.608C158.283 260.979 157.202 264.236 157.742 262.608Z" fill="black"/>
<path d="M78.8257 339.802C78.6283 331.115 80.1583 322.281 81.5403 314.334C83.9587 276.972 94.1753 237.981 88.4007 201.557C100.443 160.493 100.69 111.533 111.104 70.1235C121.568 111.533 121.864 160.493 133.956 201.557C130.057 223.323 132.722 248.938 135.535 272.135C136.325 279.934 139.336 296.369 150.638 296.369C161.94 296.369 169.738 284.721 172.848 272.135C178.03 242.275 178.129 208.368 171.91 179.89C169.985 169.624 171.022 157.433 171.959 145.292C174.131 108.473 185.187 67.9518 179.56 30.4416C176.55 10.2059 169.985 -15.1628 162.779 -33.5724C160.509 -39.4457 159.522 -45.6645 159.769 -51.982C160.262 -62.2479 161.743 -75.6233 162.286 -82.7305L158.387 -74.7349C157.943 -66.4432 156.462 -57.6579 156.413 -49.3168C156.363 -43.4929 157.696 -37.7676 159.867 -32.3385C167.912 -12.1521 172.996 9.12008 176.451 30.5897C182.028 68.8402 171.219 106.943 168.801 145.045C167.912 156.792 166.827 168.982 168.949 180.63C175.168 209.454 174.921 242.966 169.738 272.185C167.517 284.573 157.449 294.345 150.638 294.345C142.099 294.345 139.089 275.936 138.595 272.135C135.979 248.692 132.87 224.655 137.213 201.113C130.303 182.259 129.218 161.826 126.01 142.034C122.209 113.803 118.705 85.1275 111.104 57.5378C107.945 69.4325 104.984 82.5117 103.158 94.6038C97.6301 126.29 95.3598 158.47 88.4994 189.811C87.6603 193.562 86.6732 197.559 85.0939 201.064C90.523 231.467 83.5145 262.412 80.6025 292.717C79.9609 308.609 75.8644 323.86 75.7163 339.851" fill="black"/>
<path d="M53.3559 180.631C57.6992 137.988 44.9161 95.493 43.9784 52.8005C44.3239 29.6528 49.9998 6.65312 56.5147 -15.4581C61.8944 -34.1639 68.2613 -38.8526 64.9545 -60.0755L62.5854 -81.0022L58.8837 -85L61.9931 -59.6806C62.7828 -49.2666 62.3386 -43.0972 61.9931 -40.9256C61.006 -35.5458 56.7615 -26.6125 53.6027 -16.3465C46.5942 7.29474 39.5364 35.8222 41.2638 61.4377C43.5835 100.231 54.2443 142.233 50.444 180.039C36.9206 232.208 56.5147 286.893 55.8237 340H58.9331C59.7721 286.893 39.8819 233.639 53.3559 180.73V180.631Z" fill="black"/>
<path d="M190 268H200V303H190" stroke="black" stroke-miterlimit="10" stroke-dasharray="4 4"/>
<path d="M207.612 280.2H209.446V290H206.926V282.496L204.42 284.05V282.188L207.612 280.2ZM215.749 279.99C218.227 279.99 220.803 281.348 220.803 285.1C220.803 288.838 218.227 290.196 215.749 290.196C213.285 290.196 210.709 288.838 210.709 285.1C210.709 281.348 213.285 279.99 215.749 279.99ZM215.749 288.362C217.471 288.362 218.227 287.032 218.227 285.1C218.227 283.168 217.471 281.838 215.749 281.838C214.027 281.838 213.271 283.168 213.271 285.1C213.271 287.032 214.027 288.362 215.749 288.362ZM230.04 288.474C231.272 288.474 231.958 287.83 232.168 286.948H234.464C234.072 289.272 232.028 290.196 230.04 290.196C227.856 290.196 225.42 289.146 225.42 286.262C225.42 283.378 227.856 282.328 230.04 282.328C232.028 282.328 234.072 283.266 234.464 285.59H232.168C231.958 284.694 231.272 284.05 230.04 284.05C228.5 284.05 227.814 285.044 227.814 286.262C227.814 287.48 228.5 288.474 230.04 288.474ZM245.791 282.328C247.709 282.328 248.787 283.378 248.787 285.058V290H246.253V285.618C246.253 284.526 245.651 284.162 244.881 284.162C244.111 284.162 243.439 284.568 243.439 285.618V290H240.919V285.618C240.919 284.526 240.317 284.162 239.547 284.162C238.763 284.162 238.105 284.568 238.105 285.618V290H235.585V282.538H238.105V283.56C238.385 283.126 239.183 282.328 240.457 282.328C241.759 282.328 242.683 282.818 243.131 283.658C243.327 283.35 244.335 282.328 245.791 282.328Z" fill="black"/>
</g>
<defs>
<clipPath id="clip0_4039_817">
<rect width="210" height="277" fill="white" transform="translate(40 27)"/>
</clipPath>
</defs>
</svg>
