<svg width="285" height="331" viewBox="0 0 285 331" fill="none" xmlns="http://www.w3.org/2000/svg">
<rect width="285" height="331" rx="10" fill="#D9D9D9"/>
<g clip-path="url(#clip0_2895_604)">
<path fill-rule="evenodd" clip-rule="evenodd" d="M180.248 23.0003C183.715 39.6484 185.426 56.6583 183.085 73.5326C182.274 81.5399 181.284 89.8187 180.293 98.0975C179.888 101.309 179.482 104.521 179.122 107.733C177.456 121.26 175.835 134.515 174.755 146.142C174.124 153.335 173.719 159.894 173.629 165.594C173.584 171.249 173.899 176.045 174.665 179.619V179.709C180.833 207.305 180.743 240.104 175.565 269.011H172.503C177.681 240.737 177.907 208.255 171.738 180.388V180.297C170.702 175.683 170.567 170.345 170.567 165.594C170.567 159.08 171.018 152.385 171.603 145.825C172.684 134.198 174.169 122.527 175.61 110.9C176.151 106.512 176.736 102.079 177.231 97.6903C178.402 88.1449 179.573 78.5541 180.428 68.9182C182.229 53.8987 180.158 38.3364 177.231 23.5432L180.248 22.9551V23.0003Z" fill="#1D1D1B"/>
<path fill-rule="evenodd" clip-rule="evenodd" d="M91.2769 250.056C93.168 233.001 94.0685 216.986 91.412 201.695C91.367 201.424 91.3219 201.153 91.2769 200.881V200.745V200.7V200.61L91.3219 200.564C91.457 200.248 91.5471 199.931 91.6821 199.614C92.7628 196.81 93.7533 193.145 94.7439 188.802C100.777 160.302 103.749 127.955 108.747 99.0023C110.368 89.4568 112.079 80.6804 113.97 73.4421C113.97 73.4421 113.97 73.4421 113.97 73.3969C115.861 80.6352 117.572 89.4568 119.193 99.0023C119.283 99.5904 119.418 100.224 119.508 100.857C120.994 109.95 122.435 119.631 123.831 129.358C123.921 129.901 123.966 130.444 124.056 130.941L124.191 131.982V132.298C124.506 134.108 124.776 135.963 125.001 137.772L125.271 139.718C125.767 143.337 126.307 146.956 126.802 150.485C127.883 157.994 128.963 165.187 130.044 171.747C131.08 178.035 132.16 183.781 133.241 188.667V188.802C134.276 193.1 135.267 196.764 136.348 199.614C136.483 199.931 136.573 200.248 136.708 200.519V200.7C136.708 200.7 136.618 201.107 136.618 201.288C136.573 201.65 136.483 202.057 136.438 202.419C134.186 216.082 134.457 231.101 135.852 246.889C136.483 254.128 137.338 261.547 138.284 269.057H141.391C140.445 261.592 139.635 254.128 138.959 246.618C137.608 231.78 137.023 216.082 139.815 201.288V201.153L139.995 200.248L139.544 199.524C138.059 195.95 137.023 191.788 136.258 188.078C134.907 182.604 133.871 176.95 133.016 171.295C131.44 161.975 130.134 152.52 128.783 143.065C128.603 141.844 128.423 140.622 128.288 139.356C127.793 135.872 127.297 132.389 126.802 128.951V128.679C125.587 119.631 124.236 110.629 122.705 101.445C122.525 100.45 122.39 99.4547 122.21 98.5047C120.814 90.4521 119.283 82.2638 117.302 74.3469C116.987 73.035 114.285 62.6752 113.925 61.2275C113.565 62.5847 110.863 73.1255 110.548 74.3469C108.657 81.8114 107.351 89.5021 106.045 97.1475C100.597 127.413 98.2559 158.13 91.7272 188.124C91.6371 188.531 91.5471 188.983 91.412 189.39C90.6015 192.738 89.746 196.357 88.3052 199.524L87.99 200.293L88.1251 201.198V201.334C91.0968 217.167 90.0612 233.77 88.2602 249.785L85.9639 273.083H88.6204C88.6204 273.083 90.6015 255.892 91.2769 250.101V250.056Z" fill="#1D1D1B"/>
<path fill-rule="evenodd" clip-rule="evenodd" d="M53.2303 273.761C47.1519 243.768 46.7016 208.843 53.2303 179.709V179.618C54.0408 176.044 54.311 171.249 54.2659 165.594C54.2209 159.894 53.8157 153.334 53.1853 146.141C52.1497 134.47 50.5288 121.214 48.8178 107.688C45.2158 79.4134 40.6682 51.1388 47.6471 23L50.6639 23.5881C43.4147 52.1341 48.6827 81.4039 52.1947 110.04C53.6806 121.984 55.1664 133.927 56.157 145.87C56.7423 152.43 57.3277 159.08 57.3277 165.639C57.3277 170.39 57.1926 175.773 56.157 180.342V180.387C49.6283 209.657 50.2586 243.949 56.157 273.173" fill="#1D1D1B"/>
<path d="M173.044 277.607C169.622 287.152 161.067 292.762 153.457 292.762C130.674 292.762 134.592 230.83 134.592 221.782C134.592 214.543 135.717 204.817 136.348 200.519C134.456 197.172 131.755 182.65 130.314 173.602C129.188 166.364 122.885 124.789 119.868 104.929H180.113C179.482 108.412 177.816 119.134 176.33 134.018C174.439 152.43 175.835 167.087 179.527 206.672L179.662 207.939C183.444 248.428 177.321 265.619 173.044 277.562V277.607Z" fill="#D3D3D5" stroke="#1D1D1B" stroke-width="2" stroke-miterlimit="10"/>
<path d="M187.722 264.215H186.642V298.778H187.722V264.215Z" fill="black"/>
<path d="M191.46 298.371H182.68V299.185H191.46V298.371Z" fill="black"/>
<path d="M191.46 263.763H182.68V264.577H191.46V263.763Z" fill="black"/>
<path d="M240.352 226.712H247.06C245.935 233.95 239.631 236.574 233.598 236.574C227.024 236.574 220 233.407 220 224.631C220 215.855 227.024 212.643 233.598 212.643C239.631 212.643 245.98 215.312 247.06 222.55H240.352C239.631 219.383 237.65 217.257 233.553 217.257C228.87 217.257 226.529 220.152 226.529 224.586C226.529 229.019 228.87 231.915 233.553 231.915C237.65 231.915 239.631 229.788 240.352 226.667V226.712Z" fill="black"/>
<path d="M156 270C167.046 270 176 267.761 176 265C176 262.239 167.046 260 156 260C144.954 260 136 262.239 136 265C136 267.761 144.954 270 156 270Z" stroke="black" stroke-width="1.5" stroke-miterlimit="10"/>
<path d="M157.806 259.555L156.455 259.148L190.179 223.273H212.512V224.721H191.26L157.806 259.555Z" fill="black"/>
<path d="M160.462 260.687C159.831 262.587 157.805 263.582 155.959 262.994C154.068 262.36 153.077 260.325 153.663 258.47C154.293 256.57 156.319 255.574 158.165 256.163C160.056 256.796 161.047 258.832 160.462 260.687Z" fill="white"/>
<path d="M160.912 260.822C161.633 258.696 160.462 256.389 158.346 255.665C156.23 254.941 153.933 256.117 153.213 258.244C152.492 260.37 153.663 262.677 155.779 263.401C157.896 264.125 160.192 262.949 160.912 260.822C161.633 258.696 160.192 262.949 160.912 260.822ZM154.113 258.606C154.654 256.977 156.41 256.072 158.031 256.615C159.652 257.158 160.552 258.922 160.012 260.551C159.471 262.18 157.715 263.084 156.095 262.541C154.474 261.999 153.573 260.234 154.113 258.606C154.654 256.977 153.573 260.234 154.113 258.606Z" fill="black"/>
</g>
<path d="M194 264H205V300H194.368" stroke="black" stroke-miterlimit="9.99856" stroke-dasharray="4 4"/>
<path d="M221.625 284.175V286.02H219.765V288H217.065V286.02H210.45V284.025L216.195 277.5H219.765V284.175H221.625ZM213.12 284.175H217.065V279.6L213.12 284.175ZM231.513 286.365C232.833 286.365 233.568 285.675 233.793 284.73H236.253C235.833 287.22 233.643 288.21 231.513 288.21C229.173 288.21 226.563 287.085 226.563 283.995C226.563 280.905 229.173 279.78 231.513 279.78C233.643 279.78 235.833 280.785 236.253 283.275H233.793C233.568 282.315 232.833 281.625 231.513 281.625C229.863 281.625 229.128 282.69 229.128 283.995C229.128 285.3 229.863 286.365 231.513 286.365ZM248.389 279.78C250.444 279.78 251.599 280.905 251.599 282.705V288H248.884V283.305C248.884 282.135 248.239 281.745 247.414 281.745C246.589 281.745 245.869 282.18 245.869 283.305V288H243.169V283.305C243.169 282.135 242.524 281.745 241.699 281.745C240.859 281.745 240.154 282.18 240.154 283.305V288H237.454V280.005H240.154V281.1C240.454 280.635 241.309 279.78 242.674 279.78C244.069 279.78 245.059 280.305 245.539 281.205C245.749 280.875 246.829 279.78 248.389 279.78Z" fill="black"/>
<defs>
<clipPath id="clip0_2895_604">
<rect width="210" height="277" fill="white" transform="translate(44 23)"/>
</clipPath>
</defs>
</svg>
