<svg width="285" height="331" viewBox="0 0 285 331" fill="none" xmlns="http://www.w3.org/2000/svg">
<rect width="285" height="331" rx="10" fill="black"/>
<g clip-path="url(#clip0_9391_4623)">
<path fill-rule="evenodd" clip-rule="evenodd" d="M180.248 22.9984C183.715 39.6464 185.426 56.6564 183.085 73.5306C182.274 81.538 181.284 89.8168 180.293 98.0955C179.888 101.308 179.482 104.52 179.122 107.731C177.456 121.258 175.835 134.513 174.755 146.14C174.124 153.333 173.719 159.892 173.629 165.593C173.584 171.247 173.899 176.043 174.665 179.617V179.707C180.833 207.303 180.743 240.102 175.565 269.009H172.503C177.681 240.735 177.907 208.253 171.738 180.386V180.295C170.702 175.681 170.567 170.343 170.567 165.593C170.567 159.078 171.018 152.383 171.603 145.823C172.684 134.196 174.169 122.525 175.61 110.898C176.151 106.51 176.736 102.077 177.231 97.6884C178.402 88.1429 179.573 78.5522 180.428 68.9162C182.229 53.8968 180.158 38.3345 177.231 23.5412L180.248 22.9531V22.9984Z" fill="white"/>
<path fill-rule="evenodd" clip-rule="evenodd" d="M91.2769 250.055C93.168 233 94.0685 216.985 91.412 201.694C91.367 201.423 91.3219 201.152 91.2769 200.88V200.744V200.699V200.609L91.3219 200.563C91.457 200.247 91.5471 199.93 91.6821 199.613C92.7628 196.809 93.7533 193.144 94.7439 188.801C100.777 160.301 103.749 127.954 108.747 99.0013C110.368 89.4559 112.079 80.6794 113.97 73.4412C113.97 73.4412 113.97 73.4412 113.97 73.3959C115.861 80.6342 117.572 89.4559 119.193 99.0013C119.283 99.5895 119.418 100.223 119.508 100.856C120.994 109.949 122.435 119.63 123.831 129.357C123.921 129.9 123.966 130.443 124.056 130.94L124.191 131.981V132.297C124.506 134.107 124.776 135.962 125.001 137.771L125.271 139.717C125.767 143.336 126.307 146.955 126.802 150.484C127.883 157.993 128.963 165.186 130.044 171.746C131.08 178.034 132.16 183.78 133.241 188.666V188.801C134.276 193.099 135.267 196.763 136.348 199.613C136.483 199.93 136.573 200.247 136.708 200.518V200.699C136.708 200.699 136.618 201.106 136.618 201.287C136.573 201.649 136.483 202.056 136.438 202.418C134.186 216.081 134.457 231.1 135.852 246.889C136.483 254.127 137.338 261.546 138.284 269.056H141.391C140.445 261.591 139.635 254.127 138.959 246.617C137.608 231.779 137.023 216.081 139.815 201.287V201.152L139.995 200.247L139.544 199.523C138.059 195.949 137.023 191.787 136.258 188.077C134.907 182.604 133.871 176.949 133.016 171.294C131.44 161.974 130.134 152.519 128.783 143.064C128.603 141.843 128.423 140.621 128.288 139.355C127.793 135.871 127.297 132.388 126.802 128.95V128.678C125.587 119.63 124.236 110.628 122.705 101.444C122.525 100.449 122.39 99.4537 122.21 98.5037C120.814 90.4511 119.283 82.2628 117.302 74.346C116.987 73.034 114.285 62.6742 113.925 61.2266C113.565 62.5837 110.863 73.1245 110.548 74.346C108.657 81.8104 107.351 89.5011 106.045 97.1465C100.597 127.412 98.2559 158.129 91.7272 188.123C91.6371 188.53 91.5471 188.982 91.412 189.389C90.6015 192.737 89.746 196.356 88.3052 199.523L87.99 200.292L88.1251 201.197V201.333C91.0968 217.166 90.0612 233.769 88.2602 249.784L85.9639 273.082H88.6204C88.6204 273.082 90.6015 255.891 91.2769 250.1V250.055Z" fill="white"/>
<path fill-rule="evenodd" clip-rule="evenodd" d="M53.2303 273.761C47.1519 243.768 46.7016 208.843 53.2303 179.709V179.618C54.0408 176.044 54.311 171.249 54.2659 165.594C54.2209 159.894 53.8157 153.334 53.1853 146.141C52.1497 134.47 50.5288 121.214 48.8178 107.688C45.2158 79.4134 40.6682 51.1388 47.6471 23L50.6639 23.5881C43.4147 52.1341 48.6827 81.4039 52.1947 110.04C53.6806 121.984 55.1664 133.927 56.157 145.87C56.7423 152.43 57.3277 159.08 57.3277 165.639C57.3277 170.39 57.1926 175.773 56.157 180.342V180.387C49.6283 209.657 50.2586 243.949 56.157 273.173" fill="white"/>
<path d="M173.044 277.608C169.622 287.153 161.067 292.763 153.457 292.763C130.674 292.763 134.592 230.831 134.592 221.783C134.592 214.544 135.717 204.818 136.348 200.52C134.456 197.173 131.755 182.651 130.314 173.603C129.188 166.365 122.885 124.79 119.868 104.93H180.113C179.482 108.413 177.816 119.135 176.33 134.019C174.439 152.431 175.835 167.088 179.527 206.673L179.662 207.939C183.444 248.429 177.321 265.62 173.044 277.563V277.608Z" fill="#2D2D2D" stroke="white" stroke-width="2" stroke-miterlimit="10"/>
<path d="M178.552 262H135.413C135.203 262 134.992 262.157 134.887 262.439L133.132 266.357C132.956 266.734 132.956 267.266 133.132 267.643L134.922 271.561C135.062 271.843 135.238 272 135.448 272H178.587C178.797 272 179.008 271.843 179.113 271.561L180.868 267.643C181.044 267.266 181.044 266.734 180.868 266.357L179.078 262.439C178.938 262.157 178.762 262 178.552 262Z" fill="black" stroke="white" stroke-width="1.5" stroke-miterlimit="10"/>
<path d="M133 267L181 267" stroke="white" stroke-width="1.5" stroke-miterlimit="10"/>
<path d="M247.336 226.71H254.045C252.919 233.948 246.616 236.572 240.582 236.572C234.008 236.572 226.984 233.405 226.984 224.629C226.984 215.853 234.008 212.641 240.582 212.641C246.616 212.641 252.964 215.31 254.045 222.548H247.336C246.616 219.381 244.634 217.255 240.537 217.255C235.854 217.255 233.513 220.15 233.513 224.584C233.513 229.017 235.854 231.913 240.537 231.913C244.634 231.913 246.616 229.786 247.336 226.665V226.71Z" fill="white"/>
<path d="M165.434 259.555L164.083 259.148L197.808 223.273H220.141V224.721H198.888L165.434 259.555Z" fill="white"/>
<path d="M168.091 260.692C167.461 262.592 165.435 263.588 163.588 263C161.697 262.366 160.707 260.33 161.292 258.476C161.923 256.576 163.949 255.58 165.795 256.168C167.686 256.802 168.676 258.838 168.091 260.692Z" fill="#2D2D2D"/>
<path d="M168.541 260.824C169.262 258.698 168.091 256.391 165.975 255.667C163.859 254.943 161.562 256.119 160.842 258.246C160.121 260.372 161.292 262.679 163.408 263.403C165.524 264.127 167.821 262.951 168.541 260.824C169.262 258.698 167.821 262.951 168.541 260.824ZM161.742 258.608C162.283 256.979 164.039 256.074 165.66 256.617C167.28 257.16 168.181 258.924 167.641 260.553C167.1 262.181 165.344 263.086 163.723 262.543C162.103 262.001 161.202 260.236 161.742 258.608C162.283 256.979 161.202 260.236 161.742 258.608Z" fill="white"/>
</g>
<defs>
<clipPath id="clip0_9391_4623">
<rect width="210" height="277" fill="white" transform="translate(44 23)"/>
</clipPath>
</defs>
</svg>
