<svg width="285" height="331" viewBox="0 0 285 331" fill="none" xmlns="http://www.w3.org/2000/svg">
<rect width="285" height="331" rx="10" fill="#D9D9D9"/>
<g clip-path="url(#clip0_2737_441)">
<path fill-rule="evenodd" clip-rule="evenodd" d="M193.57 33.0001C197.198 50.2693 198.988 67.9139 196.538 85.4177C195.69 93.7238 194.654 102.312 193.617 110.899C193.193 114.231 192.769 117.563 192.392 120.895C190.649 134.926 188.953 148.676 187.822 160.736C187.163 168.197 186.738 175.002 186.644 180.915C186.597 186.78 186.927 191.755 187.728 195.462V195.556C194.183 224.181 194.088 258.204 188.67 288.19H185.466C190.885 258.861 191.12 225.167 184.665 196.26V196.166C183.582 191.379 183.44 185.842 183.44 180.915C183.44 174.157 183.912 167.212 184.524 160.407C185.655 148.347 187.21 136.24 188.717 124.18C189.283 119.628 189.895 115.029 190.413 110.477C191.638 100.575 192.863 90.6266 193.759 80.6311C195.643 65.0513 193.476 48.9084 190.413 33.5632L193.57 32.9531V33.0001Z" fill="#1D1D1B"/>
<path fill-rule="evenodd" clip-rule="evenodd" d="M100.471 268.527C102.45 250.836 103.392 234.224 100.612 218.362C100.565 218.081 100.518 217.799 100.471 217.518V217.377V217.33V217.236L100.518 217.189C100.659 216.861 100.753 216.532 100.895 216.204C102.025 213.294 103.062 209.493 104.099 204.988C110.412 175.424 113.522 141.871 118.751 111.838C120.447 101.936 122.238 92.832 124.217 85.3237C124.217 85.3237 124.217 85.3237 124.217 85.2767C126.195 92.7851 127.986 101.936 129.682 111.838C129.776 112.448 129.918 113.105 130.012 113.762C131.567 123.194 133.074 133.236 134.535 143.326C134.629 143.889 134.676 144.452 134.77 144.968L134.912 146.047V146.376C135.242 148.253 135.524 150.177 135.76 152.054L136.043 154.072C136.561 157.826 137.126 161.58 137.644 165.241C138.775 173.031 139.906 180.492 141.037 187.296C142.12 193.819 143.251 199.779 144.382 204.847V204.988C145.466 209.446 146.502 213.247 147.633 216.204C147.774 216.532 147.868 216.861 148.01 217.142V217.33C148.01 217.33 147.915 217.752 147.915 217.94C147.868 218.315 147.774 218.738 147.727 219.113C145.371 233.285 145.654 248.865 147.115 265.243C147.774 272.751 148.669 280.447 149.659 288.237H152.91C151.92 280.494 151.072 272.751 150.365 264.961C148.952 249.569 148.34 233.285 151.261 217.94V217.799L151.449 216.861L150.978 216.11C149.423 212.402 148.34 208.085 147.539 204.237C146.125 198.559 145.041 192.693 144.146 186.827C142.497 177.16 141.131 167.352 139.717 157.545C139.529 156.278 139.341 155.011 139.199 153.697C138.681 150.083 138.163 146.47 137.644 142.903V142.622C136.372 133.236 134.959 123.898 133.357 114.372C133.168 113.339 133.027 112.307 132.839 111.321C131.378 102.968 129.776 94.4745 127.703 86.2622C127.373 84.9013 124.546 74.155 124.17 72.6533C123.793 74.0611 120.966 84.9952 120.636 86.2622C118.657 94.0052 117.291 101.983 115.924 109.914C110.224 141.308 107.774 173.171 100.942 204.284C100.848 204.706 100.753 205.176 100.612 205.598C99.764 209.071 98.8688 212.825 97.3611 216.11L97.0313 216.907L97.1727 217.846V217.987C100.282 234.411 99.1986 251.634 97.314 268.246L94.9111 292.413H97.6909C97.6909 292.413 99.764 274.581 100.471 268.574V268.527Z" fill="#1D1D1B"/>
<path fill-rule="evenodd" clip-rule="evenodd" d="M60.6586 293.117C54.2981 262.005 53.827 225.777 60.6586 195.556V195.462C61.5067 191.755 61.7894 186.78 61.7423 180.914C61.6952 175.002 61.2711 168.197 60.6115 160.736C59.5279 148.629 57.8317 134.879 56.0414 120.848C52.2722 91.5182 47.5136 62.1887 54.8164 33L57.9731 33.6101C50.3876 63.2211 55.9 93.583 59.575 123.288C61.1298 135.677 62.6846 148.065 63.7211 160.454C64.3336 167.259 64.9461 174.157 64.9461 180.961C64.9461 185.889 64.8048 191.473 63.7211 196.213V196.26C56.8894 226.622 57.549 262.192 63.7211 292.507" fill="#1D1D1B"/>
<path d="M186.031 297.106C182.451 307.008 173.499 312.827 165.536 312.827C141.696 312.827 145.795 248.584 145.795 239.198C145.795 231.69 146.973 221.601 147.633 217.143C145.654 213.67 142.827 198.606 141.319 189.221C140.141 181.712 133.545 138.586 130.389 117.985H193.429C192.769 121.599 191.026 132.72 189.471 148.16C187.492 167.259 188.953 182.463 192.816 223.525L192.957 224.839C196.915 266.838 190.507 284.671 186.031 297.06V297.106Z" fill="#D3D3D5" stroke="#1D1D1B" stroke-width="2" stroke-miterlimit="10"/>
<path d="M138.21 273.126L145.136 266.51L148.151 268.621L165.348 272.282L181.556 271.484L188.482 269.372L193.334 266.51L199.931 273.361L198.564 276.834L195.36 280.916L187.304 284.952L169.541 286.97L156.915 286.266L146.785 283.357L142.733 281.104L139.812 276.881L138.21 273.126Z" fill="white"/>
<path d="M169.117 285.844C144.005 285.844 140.989 276.833 140.989 276.833C141.508 277.021 142.733 278.007 143.298 278.194C144.005 278.429 144.759 278.664 145.56 278.851C152.438 280.635 162.851 281.198 169.164 281.198V278.992C161.296 278.992 154.134 278.335 149.423 277.397C148.104 277.162 146.879 276.88 145.795 276.599C139.717 274.863 139.435 273.596 139.435 272.61L144.711 267.448C147.397 271.671 161.296 272.845 169.117 272.845V271.015C155.831 271.015 148.057 267.917 146.172 265.899C145.795 265.524 145.277 265.477 144.9 265.806L137.126 272.985C137.126 274.159 140.565 279.133 140.989 279.696C140.989 279.743 141.037 279.79 141.084 279.837C146.926 286.172 159.553 287.721 169.164 287.721V285.75L169.117 285.844Z" fill="black"/>
<path d="M169.117 287.814C178.682 287.814 191.308 286.265 197.198 279.93C197.245 279.883 197.245 279.836 197.292 279.79C197.716 279.226 201.155 274.252 201.155 273.079L193.381 265.899C193.004 265.524 192.486 265.571 192.109 265.993C190.225 267.964 182.451 271.108 169.164 271.108V272.938C176.985 272.938 190.366 272 193.052 267.776L198.847 272.75C198.847 273.736 198.611 274.956 192.486 276.739C191.403 277.068 190.178 277.302 188.858 277.537C184.147 278.476 176.985 279.133 169.117 279.133V281.338C175.383 281.338 185.843 280.728 192.722 278.992C193.523 278.804 194.277 278.569 194.983 278.335C195.549 278.147 198.046 276.223 198.564 275.988C198.564 275.988 194.277 285.984 169.164 285.984V287.955L169.117 287.814Z" fill="black"/>
<path d="M253.296 236.594H260.316C259.138 244.103 252.542 246.824 246.229 246.824C239.35 246.824 232 243.54 232 234.436C232 225.332 239.35 222 246.229 222C252.542 222 259.185 224.769 260.316 232.277H253.296C252.542 228.992 250.469 226.787 246.182 226.787C241.282 226.787 238.832 229.79 238.832 234.389C238.832 238.988 241.282 241.991 246.182 241.991C250.469 241.991 252.542 239.785 253.296 236.547V236.594Z" fill="black"/>
<path d="M185.096 270L184 269.526L210.506 232H228V233.516H211.319L185.096 270Z" fill="black"/>
<path d="M188.057 270.921C187.398 272.892 185.278 273.925 183.346 273.314C181.367 272.657 180.331 270.546 180.943 268.622C181.603 266.651 183.723 265.618 185.655 266.228C187.633 266.885 188.67 268.997 188.057 270.921Z" fill="white"/>
<path d="M188.528 271.062C189.282 268.856 188.057 266.463 185.843 265.712C183.628 264.961 181.226 266.181 180.472 268.387C179.718 270.593 180.943 272.986 183.157 273.737C185.372 274.487 187.775 273.267 188.528 271.062C189.282 268.856 187.775 273.267 188.528 271.062ZM181.414 268.715C181.979 267.026 183.817 266.088 185.513 266.651C187.209 267.214 188.152 269.044 187.586 270.733C187.021 272.423 185.183 273.361 183.487 272.798C181.791 272.235 180.849 270.405 181.414 268.715C181.979 267.026 180.849 270.405 181.414 268.715Z" fill="black"/>
</g>
<defs>
<clipPath id="clip0_2737_441">
<rect width="227" height="281" fill="white" transform="translate(51 33)"/>
</clipPath>
</defs>
</svg>
