<svg width="132" height="129" viewBox="0 0 132 129" fill="none" xmlns="http://www.w3.org/2000/svg">
<rect width="132" height="129" rx="10" fill="white"/>
<path d="M45.379 119.944C47.335 119.944 48.067 118.78 48.307 117.676H49.855C49.471 120.052 47.575 121.18 45.379 121.18C43.051 121.18 40.771 119.908 40.771 116.8C40.771 113.692 43.051 112.432 45.379 112.432C47.575 112.432 49.471 113.56 49.855 115.936H48.307C48.067 114.832 47.335 113.668 45.379 113.668C43.363 113.668 42.295 114.868 42.295 116.8C42.295 118.732 43.363 119.944 45.379 119.944ZM54.354 114.424C56.226 114.424 58.026 115.444 58.026 117.808C58.026 120.172 56.226 121.18 54.354 121.18C52.482 121.18 50.694 120.172 50.694 117.808C50.694 115.444 52.482 114.424 54.354 114.424ZM54.354 120.088C56.07 120.088 56.658 118.924 56.658 117.808C56.658 116.68 56.07 115.516 54.354 115.516C52.638 115.516 52.05 116.68 52.05 117.808C52.05 118.924 52.638 120.088 54.354 120.088ZM64.2528 114.604H65.7288V121H64.2528V120.016C63.9528 120.436 63.1368 121.18 61.8048 121.18C60.1368 121.18 59.2248 120.232 59.2248 118.744V114.604H60.7008V118.3C60.7008 119.38 61.2888 119.98 62.4528 119.98C63.6168 119.98 64.2528 119.308 64.2528 118.3V114.604ZM70.7765 117.256C72.5885 117.568 73.6085 117.808 73.6085 119.068C73.6085 120.556 72.3725 121.18 70.2365 121.18C68.2925 121.18 66.8045 120.508 66.8045 119.056H68.3285C68.3285 119.752 69.0125 120.064 70.3565 120.064C71.6645 120.064 72.1325 119.74 72.1325 119.26C72.1325 118.552 71.0645 118.54 69.4325 118.24C67.7765 117.928 67.0445 117.544 67.0445 116.404C67.0445 115.12 68.2445 114.424 70.1285 114.424C72.1805 114.424 73.2845 115.24 73.2845 116.428H71.9045C71.9045 116.02 71.4725 115.516 70.1045 115.516C68.8205 115.516 68.3765 115.84 68.3765 116.332C68.3765 116.98 69.6365 117.064 70.7765 117.256ZM78.1827 117.256C79.9947 117.568 81.0147 117.808 81.0147 119.068C81.0147 120.556 79.7787 121.18 77.6427 121.18C75.6987 121.18 74.2107 120.508 74.2107 119.056H75.7347C75.7347 119.752 76.4187 120.064 77.7627 120.064C79.0707 120.064 79.5387 119.74 79.5387 119.26C79.5387 118.552 78.4707 118.54 76.8387 118.24C75.1827 117.928 74.4507 117.544 74.4507 116.404C74.4507 115.12 75.6507 114.424 77.5347 114.424C79.5867 114.424 80.6907 115.24 80.6907 116.428H79.3107C79.3107 116.02 78.8787 115.516 77.5107 115.516C76.2267 115.516 75.7827 115.84 75.7827 116.332C75.7827 116.98 77.0427 117.064 78.1827 117.256ZM82.217 121V114.604H83.693V121H82.217ZM82.949 113.716C82.493 113.716 82.169 113.452 82.169 112.996C82.169 112.54 82.493 112.276 82.949 112.276C83.417 112.276 83.741 112.54 83.741 112.996C83.741 113.452 83.417 113.716 82.949 113.716ZM89.2933 114.424C90.9613 114.424 91.8733 115.372 91.8733 116.86V121H90.3973V117.304C90.3973 116.224 89.8093 115.624 88.6453 115.624C87.4813 115.624 86.8453 116.296 86.8453 117.304V121H85.3693V114.604H86.8453V115.588C87.1453 115.168 87.9613 114.424 89.2933 114.424Z" fill="black"/>
<g clip-path="url(#clip0_9385_4471)">
<rect width="55" height="95" transform="translate(39 11)" fill="white"/>
<path fill-rule="evenodd" clip-rule="evenodd" d="M93.8436 11C94.4699 17.6836 93.195 24.0815 92.4793 30.7651C91.428 41.2742 88.9677 52.1132 90.2873 62.0507C92.7253 72.6478 92.6806 85.2455 90.6452 96.3483H89.4374C91.4727 85.4874 91.5622 73.0435 89.1242 62.3365C87.7599 53.4983 89.7281 44.5061 90.6228 35.6899C91.3609 29.7757 92.1661 23.8836 92.6582 17.9035" fill="black"/>
<path fill-rule="evenodd" clip-rule="evenodd" d="M55.2607 97.6045L55.4844 96.1974C56.5804 87.5571 57.9671 78.6089 56.2672 69.9686L56.3791 69.6827C56.9383 68.4735 57.2961 67.0664 57.6093 65.7693C60.1814 54.6665 61.0761 43.278 63.0668 32.0433C63.1562 31.4937 63.2681 30.944 63.3575 30.3944C63.872 27.4703 64.3864 24.5242 65.1245 21.6441C65.214 21.2923 66.3323 17.0491 66.4442 16.6094C69.4189 26.8547 70.8057 37.5177 72.3043 48.0269C73.1766 53.8311 73.8923 59.6353 75.2343 65.3076C75.5251 66.7367 75.9277 68.3416 76.5092 69.7047L76.6882 69.9905C74.9883 78.7188 76.1961 87.667 77.225 96.3953H76.0171C75.6369 93.5152 75.3014 90.679 75.0554 87.8869C74.4962 81.555 74.362 75.6848 75.3909 70.1664C70.6715 54.9304 70.5149 36.7043 66.4442 21.3143C65.6613 24.2384 64.9008 28.0859 64.2746 31.8454C62.1497 42.9922 61.4787 55.458 58.5934 66.5168C58.0566 68.6054 57.7211 70.7381 57.9671 72.8707C58.8171 80.2359 57.7211 88.2826 56.7146 95.8677" fill="black"/>
<path fill-rule="evenodd" clip-rule="evenodd" d="M39.0673 11.0625C38.4634 23.5064 41.7961 37.0495 42.6237 49.1856C42.9815 53.6707 43.4065 58.2437 42.6237 62.0692C40.0738 73.2379 40.2304 86.6492 42.6237 98.1477L44.0328 99.4228C41.7066 88.2102 41.2145 73.5237 43.7867 62.311C45.1511 53.3849 43.1157 44.2388 42.2211 35.3127C41.5053 29.5085 40.7225 23.7262 40.2304 17.8781" fill="black"/>
<path d="M89.8621 99.6476C88.5201 103.319 85.165 105.474 82.1903 105.474C73.2659 105.474 74.8092 81.7073 74.8092 78.2335C74.8092 75.4414 75.2565 71.7258 75.5026 70.0769C74.7645 68.8017 73.6909 63.2173 73.1317 59.7436C72.6844 56.9514 70.224 41.0118 69.0386 33.3828H92.6803C92.4343 34.7239 91.7856 38.8353 91.1817 44.5515C90.4436 51.6089 90.9804 57.2372 92.4343 72.4293L92.479 72.913C93.9552 88.4569 91.562 95.0526 89.8844 99.6256L89.8621 99.6476Z" fill="#D3D3D5" stroke="black" stroke-width="0.5" stroke-miterlimit="10"/>
<path d="M77.001 101.406H89.0343" stroke="black" stroke-width="0.5" stroke-miterlimit="10"/>
</g>
<defs>
<clipPath id="clip0_9385_4471">
<rect width="55" height="95" fill="white" transform="translate(39 11)"/>
</clipPath>
</defs>
</svg>
