<svg width="217" height="195" viewBox="0 0 217 195" fill="none" xmlns="http://www.w3.org/2000/svg">
<rect width="217" height="195" rx="10" fill="#D9D9D9"/>
<g clip-path="url(#clip0_3843_2350)">
<path fill-rule="evenodd" clip-rule="evenodd" d="M144.792 28C145.623 36.7943 143.931 45.2125 142.981 54.0067C141.586 67.8345 138.32 82.0963 140.072 95.172C143.308 109.115 143.248 125.692 140.547 140.3H138.944C141.645 126.01 141.764 109.636 138.528 95.548C136.717 83.9188 139.33 72.087 140.517 60.4867C141.497 52.7049 142.566 44.9521 143.219 37.0835" fill="#1D1D1B"/>
<path fill-rule="evenodd" clip-rule="evenodd" d="M93.5823 141.95L93.8792 140.098C95.3339 128.729 97.1745 116.955 94.9183 105.586L95.0667 105.21C95.8089 103.619 96.2839 101.768 96.6995 100.061C100.113 85.4522 101.301 70.4672 103.943 55.6848C104.062 54.9615 104.21 54.2383 104.329 53.5151C105.012 49.6676 105.695 45.7912 106.674 42.0016C106.793 41.5387 108.277 35.9555 108.426 35.377C112.374 48.8576 114.215 62.8879 116.204 76.7158C117.362 84.3529 118.312 91.99 120.093 99.4536C120.479 101.334 121.013 103.446 121.785 105.239L122.022 105.615C119.766 117.1 121.369 128.874 122.735 140.358H121.132C120.627 136.569 120.182 132.837 119.855 129.163C119.113 120.832 118.935 113.108 120.301 105.847C114.037 85.7993 113.829 61.8176 108.426 41.5677C107.387 45.4151 106.377 50.4776 105.546 55.4244C102.726 70.0911 101.835 86.4936 98.0057 101.045C97.2932 103.793 96.8479 106.599 97.1745 109.405C98.3026 119.096 96.8479 129.684 95.512 139.664" fill="#1D1D1B"/>
<path fill-rule="evenodd" clip-rule="evenodd" d="M72.0891 28.0869C71.2875 44.4604 75.7109 62.2804 76.8093 78.2489C77.2843 84.1503 77.8483 90.1674 76.8093 95.201C73.425 109.897 73.6328 127.543 76.8093 142.673L78.6795 144.351C75.5921 129.597 74.939 110.273 78.353 95.5192C80.1639 83.7743 77.4624 71.74 76.2749 59.995C75.3249 52.3579 74.2859 44.7497 73.6328 37.0547" fill="#1D1D1B"/>
<path d="M139.508 144.64C137.727 149.471 133.274 152.306 129.325 152.306C117.48 152.306 119.529 121.034 119.529 116.463C119.529 112.789 120.122 107.901 120.449 105.731C119.469 104.053 118.044 96.7052 117.302 92.1345C116.708 88.4606 113.443 67.4874 111.869 57.4492H143.248C142.922 59.2139 142.061 64.6235 141.259 72.1449C140.28 81.4309 140.992 88.8366 142.922 108.826L142.981 109.463C144.941 129.915 141.764 138.594 139.538 144.611L139.508 144.64Z" fill="#D3D3D5" stroke="#1D1D1B" stroke-width="0.5" stroke-miterlimit="10"/>
<path d="M122.438 146.954H138.41" stroke="#1D1D1B" stroke-width="0.5" stroke-miterlimit="10"/>
</g>
<path d="M79.8387 180.592C82.4467 180.592 83.4227 179.04 83.7427 177.568H85.8067C85.2947 180.736 82.7667 182.24 79.8387 182.24C76.7347 182.24 73.6947 180.544 73.6947 176.4C73.6947 172.256 76.7347 170.576 79.8387 170.576C82.7667 170.576 85.2947 172.08 85.8067 175.248H83.7427C83.4227 173.776 82.4467 172.224 79.8387 172.224C77.1507 172.224 75.7267 173.824 75.7267 176.4C75.7267 178.976 77.1507 180.592 79.8387 180.592ZM91.8053 173.232C94.3013 173.232 96.7013 174.592 96.7013 177.744C96.7013 180.896 94.3013 182.24 91.8053 182.24C89.3093 182.24 86.9253 180.896 86.9253 177.744C86.9253 174.592 89.3093 173.232 91.8053 173.232ZM91.8053 180.784C94.0933 180.784 94.8773 179.232 94.8773 177.744C94.8773 176.24 94.0933 174.688 91.8053 174.688C89.5173 174.688 88.7333 176.24 88.7333 177.744C88.7333 179.232 89.5173 180.784 91.8053 180.784ZM105.004 173.472H106.972V182H105.004V180.688C104.604 181.248 103.516 182.24 101.74 182.24C99.5157 182.24 98.2997 180.976 98.2997 178.992V173.472H100.268V178.4C100.268 179.84 101.052 180.64 102.604 180.64C104.156 180.64 105.004 179.744 105.004 178.4V173.472ZM113.702 177.008C116.118 177.424 117.478 177.744 117.478 179.424C117.478 181.408 115.83 182.24 112.982 182.24C110.39 182.24 108.406 181.344 108.406 179.408H110.438C110.438 180.336 111.35 180.752 113.142 180.752C114.886 180.752 115.51 180.32 115.51 179.68C115.51 178.736 114.086 178.72 111.91 178.32C109.702 177.904 108.726 177.392 108.726 175.872C108.726 174.16 110.326 173.232 112.838 173.232C115.574 173.232 117.046 174.32 117.046 175.904H115.206C115.206 175.36 114.63 174.688 112.806 174.688C111.094 174.688 110.502 175.12 110.502 175.776C110.502 176.64 112.182 176.752 113.702 177.008ZM123.577 177.008C125.993 177.424 127.353 177.744 127.353 179.424C127.353 181.408 125.705 182.24 122.857 182.24C120.265 182.24 118.281 181.344 118.281 179.408H120.313C120.313 180.336 121.225 180.752 123.017 180.752C124.761 180.752 125.385 180.32 125.385 179.68C125.385 178.736 123.961 178.72 121.785 178.32C119.577 177.904 118.601 177.392 118.601 175.872C118.601 174.16 120.201 173.232 122.713 173.232C125.449 173.232 126.921 174.32 126.921 175.904H125.081C125.081 175.36 124.505 174.688 122.681 174.688C120.969 174.688 120.377 175.12 120.377 175.776C120.377 176.64 122.057 176.752 123.577 177.008ZM128.956 182V173.472H130.924V182H128.956ZM129.932 172.288C129.324 172.288 128.892 171.936 128.892 171.328C128.892 170.72 129.324 170.368 129.932 170.368C130.556 170.368 130.988 170.72 130.988 171.328C130.988 171.936 130.556 172.288 129.932 172.288ZM138.391 173.232C140.615 173.232 141.831 174.496 141.831 176.48V182H139.863V177.072C139.863 175.632 139.079 174.832 137.527 174.832C135.975 174.832 135.127 175.728 135.127 177.072V182H133.159V173.472H135.127V174.784C135.527 174.224 136.615 173.232 138.391 173.232Z" fill="black"/>
<defs>
<clipPath id="clip0_3843_2350">
<rect width="73" height="125" fill="white" transform="translate(72 28)"/>
</clipPath>
</defs>
</svg>
