<svg width="132" height="129" viewBox="0 0 132 129" fill="none" xmlns="http://www.w3.org/2000/svg">
<rect width="132" height="129" rx="10" fill="white"/>
<path d="M28.1008 119.752V121H21.1768V112.6H22.6528V119.752H28.1008ZM32.292 114.424C34.056 114.424 35.556 115.012 35.556 116.848V121H34.08V120.172C33.768 120.532 33 121.18 31.5 121.18C29.964 121.18 28.944 120.544 28.944 119.32C28.944 118 29.664 116.956 34.08 117.244V116.848C34.08 115.96 33.624 115.516 32.292 115.516C31.152 115.516 30.684 115.888 30.576 116.428H29.196C29.388 115.084 30.636 114.424 32.292 114.424ZM34.08 119.2V118.132C31.416 118 30.456 118.228 30.456 119.224C30.456 119.872 30.96 120.196 31.812 120.196C32.94 120.196 33.684 119.776 34.08 119.2ZM41.1644 114.424C42.8324 114.424 43.7444 115.372 43.7444 116.86V121H42.2684V117.304C42.2684 116.224 41.6804 115.624 40.5164 115.624C39.3524 115.624 38.7164 116.296 38.7164 117.304V121H37.2404V114.604H38.7164V115.588C39.0164 115.168 39.8324 114.424 41.1644 114.424ZM45.4201 121V114.604H46.8961V121H45.4201ZM46.1521 113.716C45.6961 113.716 45.3721 113.452 45.3721 112.996C45.3721 112.54 45.6961 112.276 46.1521 112.276C46.6201 112.276 46.9441 112.54 46.9441 112.996C46.9441 113.452 46.6201 113.716 46.1521 113.716ZM51.6924 114.424C53.7204 114.424 55.3524 115.624 55.1844 118.276H49.4244C49.5924 119.368 50.3724 120.088 51.7164 120.088C52.9644 120.088 53.4924 119.488 53.7084 119.032H55.0044C54.6804 120.34 53.4324 121.18 51.7164 121.18C49.8924 121.18 48.0924 120.136 48.0924 117.808C48.0924 115.516 49.8564 114.424 51.6924 114.424ZM49.4604 117.196H53.8644C53.6724 116.188 52.9764 115.516 51.6924 115.516C50.5044 115.516 49.6884 116.188 49.4604 117.196ZM51.5004 112.18L52.3884 113.728H51.4284L49.9404 112.18H51.5004ZM60.4445 114.424C60.7325 114.424 60.9005 114.436 61.1525 114.472V115.936H61.1045C60.8525 115.864 60.5285 115.816 60.1205 115.816C58.5005 115.816 57.8885 116.752 57.8885 117.748V121H56.4005V114.604H57.8885V115.804C58.1765 115.336 59.0645 114.424 60.4445 114.424ZM65.3565 114.424C67.3845 114.424 69.0165 115.624 68.8485 118.276H63.0885C63.2565 119.368 64.0365 120.088 65.3805 120.088C66.6285 120.088 67.1565 119.488 67.3725 119.032H68.6685C68.3445 120.34 67.0965 121.18 65.3805 121.18C63.5565 121.18 61.7565 120.136 61.7565 117.808C61.7565 115.516 63.5205 114.424 65.3565 114.424ZM63.1245 117.196H67.5285C67.3365 116.188 66.6405 115.516 65.3565 115.516C64.1685 115.516 63.3525 116.188 63.1245 117.196ZM78.7291 112.6H80.2051V121H78.7291V120.16C78.2251 120.772 77.4571 121.18 76.3891 121.18C74.5171 121.18 73.0651 119.968 73.0651 117.808C73.0651 115.636 74.5171 114.424 76.3891 114.424C77.4571 114.424 78.2251 114.832 78.7291 115.444V112.6ZM76.6771 120.088C78.2011 120.088 78.9571 119.128 78.9571 117.808C78.9571 116.476 78.2251 115.516 76.6771 115.516C75.1171 115.516 74.4331 116.452 74.4331 117.808C74.4331 119.152 75.1411 120.088 76.6771 120.088ZM81.8888 121V114.604H83.3648V121H81.8888ZM82.6208 113.716C82.1648 113.716 81.8408 113.452 81.8408 112.996C81.8408 112.54 82.1648 112.276 82.6208 112.276C83.0888 112.276 83.4128 112.54 83.4128 112.996C83.4128 113.452 83.0888 113.716 82.6208 113.716ZM88.4132 117.256C90.2252 117.568 91.2452 117.808 91.2452 119.068C91.2452 120.556 90.0092 121.18 87.8732 121.18C85.9292 121.18 84.4412 120.508 84.4412 119.056H85.9652C85.9652 119.752 86.6492 120.064 87.9932 120.064C89.3012 120.064 89.7692 119.74 89.7692 119.26C89.7692 118.552 88.7012 118.54 87.0692 118.24C85.4132 117.928 84.6812 117.544 84.6812 116.404C84.6812 115.12 85.8812 114.424 87.7652 114.424C89.8172 114.424 90.9212 115.24 90.9212 116.428H89.5412C89.5412 116.02 89.1092 115.516 87.7412 115.516C86.4572 115.516 86.0132 115.84 86.0132 116.332C86.0132 116.98 87.2732 117.064 88.4132 117.256ZM96.389 115.732H94.457V118.612C94.457 119.692 94.889 119.992 96.389 119.836V120.988C96.173 121.048 95.849 121.096 95.549 121.096C93.605 121.096 92.981 120.304 92.981 118.612V115.732H91.733V114.604H92.981V112.948H94.457V114.604H96.389V115.732ZM100.694 114.424C102.458 114.424 103.958 115.012 103.958 116.848V121H102.482V120.172C102.17 120.532 101.402 121.18 99.9023 121.18C98.3663 121.18 97.3463 120.544 97.3463 119.32C97.3463 118 98.0663 116.956 102.482 117.244V116.848C102.482 115.96 102.026 115.516 100.694 115.516C99.5543 115.516 99.0863 115.888 98.9783 116.428H97.5983C97.7903 115.084 99.0383 114.424 100.694 114.424ZM102.482 119.2V118.132C99.8183 118 98.8583 118.228 98.8583 119.224C98.8583 119.872 99.3623 120.196 100.214 120.196C101.342 120.196 102.086 119.776 102.482 119.2ZM105.643 112.144H107.119V121H105.643V112.144ZM111.915 114.424C113.943 114.424 115.575 115.624 115.407 118.276H109.647C109.815 119.368 110.595 120.088 111.939 120.088C113.187 120.088 113.715 119.488 113.931 119.032H115.227C114.903 120.34 113.655 121.18 111.939 121.18C110.115 121.18 108.315 120.136 108.315 117.808C108.315 115.516 110.079 114.424 111.915 114.424ZM109.683 117.196H114.087C113.895 116.188 113.199 115.516 111.915 115.516C110.727 115.516 109.911 116.188 109.683 117.196Z" fill="black"/>
<g clip-path="url(#clip0_9385_4481)">
<rect width="54" height="96" transform="translate(39 11)" fill="white"/>
<path fill-rule="evenodd" clip-rule="evenodd" d="M92.8465 11C93.4614 17.6722 92.2096 24.059 91.5069 30.7311C90.4748 41.2222 88.0592 52.0425 89.3548 61.963C91.7485 72.5418 91.7046 85.118 89.7062 96.2016H88.5203C90.5187 85.3594 90.6066 72.9369 88.2129 62.2483C86.8733 53.4252 88.8058 44.4486 89.6842 35.6475C90.4089 29.7435 91.1995 23.8615 91.6826 17.8916" fill="black"/>
<path fill-rule="evenodd" clip-rule="evenodd" d="M54.9648 97.4497L55.1844 96.0451C56.2605 87.4195 57.622 78.4868 55.953 69.8612L56.0629 69.5759C56.6119 68.3688 56.9632 66.9641 57.2707 65.6692C59.7961 54.5855 60.6745 43.2165 62.6289 32.0012C62.7168 31.4525 62.8266 30.9038 62.9144 30.3551C63.4195 27.436 63.9246 24.495 64.6493 21.6198C64.7371 21.2686 65.8351 17.0327 65.9449 16.5938C68.8656 26.8215 70.2271 37.4662 71.6985 47.9573C72.5549 53.7515 73.2576 59.5457 74.5753 65.2083C74.8607 66.6349 75.256 68.2371 75.827 69.5979L76.0027 69.8832C74.3337 78.5965 75.5195 87.5293 76.5297 96.2426H75.3439C74.9705 93.3674 74.6411 90.5361 74.3996 87.7488C73.8506 81.4278 73.7188 75.5677 74.729 70.0588C70.0954 54.8489 69.9417 36.6541 65.9449 21.2906C65.1763 24.2097 64.4297 28.0505 63.8148 31.8036C61.7286 42.9312 61.0698 55.3756 58.2369 66.4154C57.7099 68.5005 57.3805 70.6294 57.622 72.7584C58.4565 80.1109 57.3805 88.1438 56.3923 95.7158" fill="black"/>
<path fill-rule="evenodd" clip-rule="evenodd" d="M39.066 11.0625C38.4731 23.485 41.7451 37.0049 42.5577 49.1201C42.909 53.5975 43.3263 58.1626 42.5577 61.9816C40.0542 73.1311 40.2079 86.5193 42.5577 97.998L43.9412 99.271C41.6573 88.0776 41.1742 73.4164 43.6996 62.223C45.0392 53.3122 43.0408 44.1818 42.1624 35.271C41.4597 29.4768 40.6911 23.7045 40.2079 17.8663" fill="black"/>
<path d="M89.0689 99.4946C87.7513 103.16 84.4573 105.311 81.5366 105.311C72.7745 105.311 74.2897 81.5852 74.2897 78.1174C74.2897 75.33 74.7289 71.6208 74.9705 69.9748C74.2458 68.7018 73.1917 63.127 72.6427 59.6592C72.2035 56.8719 69.7879 40.9597 68.624 33.3438H91.8359C91.5943 34.6826 90.9575 38.7868 90.3646 44.4933C89.6399 51.5385 90.1669 57.1572 91.5943 72.3232L91.6383 72.806C93.0876 88.3232 90.7379 94.9075 89.0909 99.4727L89.0689 99.4946Z" fill="#D3D3D5" stroke="black" stroke-width="0.5" stroke-miterlimit="10"/>
<path d="M85.0286 43.5938H78.6821V46.2055H85.0286V43.5938Z" stroke="black" stroke-width="0.29" stroke-miterlimit="10"/>
<path d="M76.9033 101.25H88.7398" stroke="black" stroke-width="0.5" stroke-miterlimit="10"/>
<path d="M83.8864 44.7969H79.8237V106.668H83.8864V44.7969Z" fill="white" stroke="black" stroke-width="0.29" stroke-miterlimit="10"/>
</g>
<defs>
<clipPath id="clip0_9385_4481">
<rect width="54" height="96" fill="white" transform="translate(39 11)"/>
</clipPath>
</defs>
</svg>
