<svg width="217" height="195" viewBox="0 0 217 195" fill="none" xmlns="http://www.w3.org/2000/svg">
<rect x="8.52372e-06" y="2.47442e-05" width="217" height="195" rx="10" fill="#D9D9D9"/>
<path fill-rule="evenodd" clip-rule="evenodd" d="M93.3198 45C94.0091 52.4953 92.5899 59.6299 91.7993 67.1051C90.6437 78.8491 87.8865 90.9938 89.3664 102.117C92.0628 113.981 92.0425 128.069 89.7719 140.475H88.4339C90.6842 128.33 90.7856 114.402 88.0892 102.437C86.5687 92.557 88.7582 82.4965 89.7719 72.6364C90.6031 66.0229 91.4952 59.4295 92.0425 52.7558" fill="#1D1D1B"/>
<path fill-rule="evenodd" clip-rule="evenodd" d="M50.4004 141.857L50.6437 140.294C51.8601 130.614 53.4009 120.613 51.5154 110.954L51.6574 110.633C52.2858 109.27 52.671 107.707 53.0157 106.264C55.8742 93.8388 56.8676 81.1129 59.0774 68.5272C59.1788 67.9059 59.3004 67.2847 59.4018 66.6634C59.9695 63.3967 60.5574 60.09 61.3683 56.8835C61.4697 56.5027 62.7266 51.753 62.8483 51.252C66.1731 62.6953 67.6936 74.6597 69.356 86.3836C70.3089 92.8568 71.1198 99.3501 72.6201 105.703C72.9444 107.306 73.3905 109.09 74.0392 110.613L74.2419 110.934C72.3565 120.714 73.6946 130.714 74.8501 140.454H73.4918C73.0864 137.227 72.7012 134.061 72.4173 130.955C71.7889 123.88 71.6672 117.307 72.8025 111.134C67.5517 94.0994 67.3895 73.6978 62.8483 56.5027C61.9765 59.7693 61.1453 64.0781 60.4357 68.2867C58.084 80.7521 57.3339 94.7006 54.1104 107.066C53.5022 109.391 53.1373 111.795 53.4009 114.18C54.3537 122.417 53.117 131.415 52.002 139.913" fill="#1D1D1B"/>
<path fill-rule="evenodd" clip-rule="evenodd" d="M32.3974 45.0801C31.7081 59.0085 35.4181 74.1394 36.3304 87.7271C36.7359 92.7573 37.2022 97.8678 36.3304 102.136C33.4921 114.642 33.6746 129.633 36.3304 142.499L37.8914 143.942C35.2965 131.396 34.7693 114.983 37.6076 102.437C39.1079 92.4367 36.8575 82.2359 35.8844 72.2355C35.0734 65.7422 34.2017 59.269 33.6746 52.7357" fill="#1D1D1B"/>
<path d="M88.859 144.143C87.3588 148.231 83.6285 150.656 80.3239 150.656C68.91 150.095 72.2146 116.667 72.8633 111.055C69.5385 100.594 68.4032 85.4432 65.6865 70.0117H91.9609C89.5281 83.9602 89.3253 91.9164 91.6973 113.681C93.4814 130.615 90.7445 139.253 88.859 144.103V144.143Z" fill="#D3D3D5" stroke="#1D1D1B" stroke-width="0.5" stroke-miterlimit="10"/>
<path d="M74.687 146.127H88.0878" stroke="#1D1D1B" stroke-width="0.5" stroke-miterlimit="10"/>
<path d="M92.9132 130.074H71.0585C70.9571 130.074 70.8557 130.215 70.7746 130.475L69.8826 133.942C69.8015 134.283 69.8015 134.744 69.8826 135.084L70.7949 138.552C70.8557 138.792 70.9571 138.932 71.0585 138.932H92.9132C93.0146 138.932 93.1159 138.792 93.197 138.531L94.0891 135.064C94.1702 134.724 94.1702 134.263 94.0891 133.922L93.1768 130.455C93.1159 130.215 93.0146 130.074 92.9132 130.074Z" fill="white" stroke="#1D1D1B" stroke-width="0.53" stroke-miterlimit="10"/>
<path fill-rule="evenodd" clip-rule="evenodd" d="M182.528 45C183.217 52.4953 181.798 59.6299 181.007 67.1051C179.852 78.8491 177.095 90.9938 178.574 102.117C181.271 113.981 181.251 128.069 178.98 140.475H177.642C179.892 128.33 179.994 114.402 177.297 102.437C175.777 92.557 177.966 82.4965 178.98 72.6364C179.811 66.0229 180.703 59.4295 181.251 52.7558" fill="#1D1D1B"/>
<path fill-rule="evenodd" clip-rule="evenodd" d="M139.608 141.857L139.852 140.294C141.068 130.614 142.609 120.613 140.723 110.954L140.865 110.633C141.494 109.27 141.879 107.707 142.224 106.264C145.082 93.8388 146.076 81.1129 148.285 68.5272C148.387 67.9059 148.508 67.2847 148.61 66.6634C149.177 63.3967 149.765 60.09 150.576 56.8835C150.678 56.5027 151.935 51.753 152.056 51.252C155.381 62.6953 156.902 74.6597 158.564 86.3836C159.517 92.8568 160.328 99.3501 161.828 105.703C162.152 107.306 162.598 109.09 163.247 110.613L163.45 110.934C161.565 120.714 162.903 130.714 164.058 140.454H162.7C162.294 137.227 161.909 134.061 161.625 130.955C160.997 123.88 160.875 117.307 162.011 111.134C156.76 94.0994 156.598 73.6978 152.056 56.5027C151.185 59.7693 150.353 64.0781 149.644 68.2867C147.292 80.7521 146.542 94.7006 143.318 107.066C142.71 109.391 142.345 111.795 142.609 114.18C143.562 122.417 142.325 131.415 141.21 139.913" fill="#1D1D1B"/>
<path fill-rule="evenodd" clip-rule="evenodd" d="M121.605 45.0801C120.916 59.0085 124.626 74.1394 125.538 87.7271C125.944 92.7573 126.41 97.8678 125.538 102.136C122.7 114.642 122.883 129.633 125.538 142.499L127.099 143.942C124.504 131.396 123.977 114.983 126.816 102.437C128.316 92.4367 126.066 82.2359 125.092 72.2355C124.281 65.7422 123.41 59.269 122.883 52.7357" fill="#1D1D1B"/>
<path d="M178.067 144.143C176.567 148.231 172.837 150.656 169.532 150.656C158.118 150.095 161.423 116.667 162.071 111.055C158.746 100.594 157.611 85.4432 154.895 70.0117H181.169C178.736 83.9602 178.533 91.9164 180.905 113.681C182.689 130.615 179.952 139.253 178.067 144.103V144.143Z" fill="#D3D3D5" stroke="#1D1D1B" stroke-width="0.5" stroke-miterlimit="10"/>
<path d="M163.895 146.127H177.296" stroke="#1D1D1B" stroke-width="0.5" stroke-miterlimit="10"/>
<path d="M182.688 125.043H159.738C159.617 125.043 159.515 125.103 159.454 125.183L158.522 126.406C158.42 126.526 158.441 126.686 158.522 126.807L159.475 128.029C159.475 128.029 159.657 128.169 159.758 128.169H182.708C182.83 128.169 182.931 128.109 182.992 128.029L183.924 126.807C184.026 126.686 184.005 126.526 183.924 126.406L182.972 125.183C182.972 125.183 182.789 125.043 182.688 125.043Z" fill="white" stroke="#1D1D1B" stroke-width="0.5" stroke-miterlimit="10"/>
<path d="M182.688 130.152H159.738C159.617 130.152 159.515 130.212 159.454 130.293L158.522 131.515C158.42 131.635 158.441 131.796 158.522 131.916L159.475 133.138C159.475 133.138 159.657 133.279 159.758 133.279H182.708C182.83 133.279 182.931 133.219 182.992 133.138L183.924 131.916C184.026 131.796 184.005 131.635 183.924 131.515L182.972 130.293C182.972 130.293 182.789 130.152 182.688 130.152Z" fill="white" stroke="#1D1D1B" stroke-width="0.5" stroke-miterlimit="10"/>
<path d="M182.688 134.883H159.738C159.617 134.883 159.515 134.943 159.454 135.023L158.522 136.246C158.42 136.366 158.441 136.526 158.522 136.646L159.475 137.869C159.475 137.869 159.657 138.009 159.758 138.009H182.708C182.83 138.009 182.931 137.949 182.992 137.869L183.924 136.646C184.026 136.526 184.005 136.366 183.924 136.246L182.972 135.023C182.972 135.023 182.789 134.883 182.688 134.883Z" fill="white" stroke="#1D1D1B" stroke-width="0.5" stroke-miterlimit="10"/>
<path d="M69.7212 134.422H94.1101" stroke="#1D1D1B" stroke-width="0.25" stroke-miterlimit="10"/>
<path d="M75.9075 170.8H77.8755V177.184C77.8755 180.944 76.2595 182.24 73.0115 182.24C69.4595 182.24 67.9875 180.656 67.9875 177.648V177.008H69.9715V177.456C69.9715 179.712 70.8995 180.592 73.0115 180.592C75.2515 180.592 75.9075 179.456 75.9075 177.184V170.8ZM84.5163 173.232C87.0123 173.232 89.4123 174.592 89.4123 177.744C89.4123 180.896 87.0123 182.24 84.5163 182.24C82.0203 182.24 79.6363 180.896 79.6363 177.744C79.6363 174.592 82.0203 173.232 84.5163 173.232ZM84.5163 180.784C86.8043 180.784 87.5883 179.232 87.5883 177.744C87.5883 176.24 86.8043 174.688 84.5163 174.688C82.2283 174.688 81.4443 176.24 81.4443 177.744C81.4443 179.232 82.2283 180.784 84.5163 180.784ZM91.0106 182V173.472H92.9786V182H91.0106ZM91.9866 172.288C91.3786 172.288 90.9466 171.936 90.9466 171.328C90.9466 170.72 91.3786 170.368 91.9866 170.368C92.6106 170.368 93.0426 170.72 93.0426 171.328C93.0426 171.936 92.6106 172.288 91.9866 172.288ZM100.446 173.232C102.67 173.232 103.886 174.496 103.886 176.48V182H101.918V177.072C101.918 175.632 101.134 174.832 99.5818 174.832C98.0298 174.832 97.1818 175.728 97.1818 177.072V182H95.2138V173.472H97.1818V174.784C97.5818 174.224 98.6698 173.232 100.446 173.232ZM111.376 174.976H108.8V178.816C108.8 180.256 109.376 180.656 111.376 180.448V181.984C111.088 182.064 110.656 182.128 110.256 182.128C107.664 182.128 106.832 181.072 106.832 178.816V174.976H105.168V173.472H106.832V171.264H108.8V173.472H111.376V174.976ZM124.845 170.8H126.813V182H124.845V180.88C124.173 181.696 123.149 182.24 121.725 182.24C119.229 182.24 117.293 180.624 117.293 177.744C117.293 174.848 119.229 173.232 121.725 173.232C123.149 173.232 124.173 173.776 124.845 174.592V170.8ZM122.109 180.784C124.141 180.784 125.149 179.504 125.149 177.744C125.149 175.968 124.173 174.688 122.109 174.688C120.029 174.688 119.117 175.936 119.117 177.744C119.117 179.536 120.061 180.784 122.109 180.784ZM129.058 182V173.472H131.026V182H129.058ZM130.034 172.288C129.426 172.288 128.994 171.936 128.994 171.328C128.994 170.72 129.426 170.368 130.034 170.368C130.658 170.368 131.09 170.72 131.09 171.328C131.09 171.936 130.658 172.288 130.034 172.288ZM137.757 177.008C140.173 177.424 141.533 177.744 141.533 179.424C141.533 181.408 139.885 182.24 137.037 182.24C134.445 182.24 132.461 181.344 132.461 179.408H134.493C134.493 180.336 135.405 180.752 137.197 180.752C138.941 180.752 139.565 180.32 139.565 179.68C139.565 178.736 138.141 178.72 135.965 178.32C133.757 177.904 132.781 177.392 132.781 175.872C132.781 174.16 134.381 173.232 136.893 173.232C139.629 173.232 141.101 174.32 141.101 175.904H139.261C139.261 175.36 138.685 174.688 136.861 174.688C135.149 174.688 134.557 175.12 134.557 175.776C134.557 176.64 136.237 176.752 137.757 177.008ZM148.391 174.976H145.815V178.816C145.815 180.256 146.391 180.656 148.391 180.448V181.984C148.103 182.064 147.671 182.128 147.271 182.128C144.679 182.128 143.847 181.072 143.847 178.816V174.976H142.183V173.472H143.847V171.264H145.815V173.472H148.391V174.976ZM154.132 173.232C156.484 173.232 158.484 174.016 158.484 176.464V182H156.516V180.896C156.1 181.376 155.076 182.24 153.076 182.24C151.028 182.24 149.668 181.392 149.668 179.76C149.668 178 150.628 176.608 156.516 176.992V176.464C156.516 175.28 155.908 174.688 154.132 174.688C152.612 174.688 151.988 175.184 151.844 175.904H150.004C150.26 174.112 151.924 173.232 154.132 173.232ZM156.516 179.6V178.176C152.964 178 151.684 178.304 151.684 179.632C151.684 180.496 152.356 180.928 153.492 180.928C154.996 180.928 155.988 180.368 156.516 179.6ZM160.729 170.192H162.697V182H160.729V170.192Z" fill="black"/>
</svg>
