<svg width="132" height="129" viewBox="0 0 132 129" fill="none" xmlns="http://www.w3.org/2000/svg">
<rect width="132" height="129" rx="10" fill="white"/>
<path d="M36.8056 111.6H38.2816V116.388C38.2816 119.208 37.0696 120.18 34.6336 120.18C31.9696 120.18 30.8656 118.992 30.8656 116.736V116.256H32.3536V116.592C32.3536 118.284 33.0496 118.944 34.6336 118.944C36.3136 118.944 36.8056 118.092 36.8056 116.388V111.6ZM43.2622 113.424C45.1342 113.424 46.9342 114.444 46.9342 116.808C46.9342 119.172 45.1342 120.18 43.2622 120.18C41.3902 120.18 39.6022 119.172 39.6022 116.808C39.6022 114.444 41.3902 113.424 43.2622 113.424ZM43.2622 119.088C44.9782 119.088 45.5662 117.924 45.5662 116.808C45.5662 115.68 44.9782 114.516 43.2622 114.516C41.5462 114.516 40.9582 115.68 40.9582 116.808C40.9582 117.924 41.5462 119.088 43.2622 119.088ZM48.133 120V113.604H49.609V120H48.133ZM48.865 112.716C48.409 112.716 48.085 112.452 48.085 111.996C48.085 111.54 48.409 111.276 48.865 111.276C49.333 111.276 49.657 111.54 49.657 111.996C49.657 112.452 49.333 112.716 48.865 112.716ZM55.2093 113.424C56.8773 113.424 57.7893 114.372 57.7893 115.86V120H56.3133V116.304C56.3133 115.224 55.7253 114.624 54.5613 114.624C53.3973 114.624 52.7613 115.296 52.7613 116.304V120H51.2853V113.604H52.7613V114.588C53.0613 114.168 53.8773 113.424 55.2093 113.424ZM63.4066 114.732H61.4746V117.612C61.4746 118.692 61.9066 118.992 63.4066 118.836V119.988C63.1906 120.048 62.8666 120.096 62.5666 120.096C60.6226 120.096 59.9986 119.304 59.9986 117.612V114.732H58.7506V113.604H59.9986V111.948H61.4746V113.604H63.4066V114.732ZM73.5084 111.6H74.9844V120H73.5084V119.16C73.0044 119.772 72.2364 120.18 71.1684 120.18C69.2964 120.18 67.8444 118.968 67.8444 116.808C67.8444 114.636 69.2964 113.424 71.1684 113.424C72.2364 113.424 73.0044 113.832 73.5084 114.444V111.6ZM71.4564 119.088C72.9804 119.088 73.7364 118.128 73.7364 116.808C73.7364 115.476 73.0044 114.516 71.4564 114.516C69.8964 114.516 69.2124 115.452 69.2124 116.808C69.2124 118.152 69.9204 119.088 71.4564 119.088ZM76.6681 120V113.604H78.1441V120H76.6681ZM77.4001 112.716C76.9441 112.716 76.6201 112.452 76.6201 111.996C76.6201 111.54 76.9441 111.276 77.4001 111.276C77.8681 111.276 78.1921 111.54 78.1921 111.996C78.1921 112.452 77.8681 112.716 77.4001 112.716ZM83.1925 116.256C85.0045 116.568 86.0245 116.808 86.0245 118.068C86.0245 119.556 84.7885 120.18 82.6525 120.18C80.7085 120.18 79.2205 119.508 79.2205 118.056H80.7445C80.7445 118.752 81.4285 119.064 82.7725 119.064C84.0805 119.064 84.5485 118.74 84.5485 118.26C84.5485 117.552 83.4805 117.54 81.8485 117.24C80.1925 116.928 79.4605 116.544 79.4605 115.404C79.4605 114.12 80.6605 113.424 82.5445 113.424C84.5965 113.424 85.7005 114.24 85.7005 115.428H84.3205C84.3205 115.02 83.8885 114.516 82.5205 114.516C81.2365 114.516 80.7925 114.84 80.7925 115.332C80.7925 115.98 82.0525 116.064 83.1925 116.256ZM91.1683 114.732H89.2363V117.612C89.2363 118.692 89.6683 118.992 91.1683 118.836V119.988C90.9523 120.048 90.6283 120.096 90.3283 120.096C88.3843 120.096 87.7603 119.304 87.7603 117.612V114.732H86.5123V113.604H87.7603V111.948H89.2363V113.604H91.1683V114.732ZM95.4736 113.424C97.2376 113.424 98.7376 114.012 98.7376 115.848V120H97.2616V119.172C96.9496 119.532 96.1816 120.18 94.6816 120.18C93.1456 120.18 92.1256 119.544 92.1256 118.32C92.1256 117 92.8456 115.956 97.2616 116.244V115.848C97.2616 114.96 96.8056 114.516 95.4736 114.516C94.3336 114.516 93.8656 114.888 93.7576 115.428H92.3776C92.5696 114.084 93.8176 113.424 95.4736 113.424ZM97.2616 118.2V117.132C94.5976 117 93.6376 117.228 93.6376 118.224C93.6376 118.872 94.1416 119.196 94.9936 119.196C96.1216 119.196 96.8656 118.776 97.2616 118.2ZM100.422 111.144H101.898V120H100.422V111.144Z" fill="black"/>
<path fill-rule="evenodd" clip-rule="evenodd" d="M55.9519 21C56.426 26.1542 55.4501 31.0604 54.9064 36.2009C54.1117 44.2768 52.2157 52.6283 53.2334 60.2769C55.0876 68.4355 55.0736 78.1238 53.5122 86.6545H52.5921C54.1396 78.303 54.2093 68.7249 52.3551 60.4975C51.3095 53.7032 52.8152 46.785 53.5122 40.0045C54.0838 35.4567 54.6972 30.9226 55.0736 26.3334" fill="black"/>
<path fill-rule="evenodd" clip-rule="evenodd" d="M26.4385 87.6025L26.6058 86.5276C27.4422 79.8712 28.5018 72.9943 27.2052 66.3516L27.3028 66.1311C27.735 65.194 27.9999 64.119 28.2369 63.1268C30.2026 54.5823 30.8858 45.8311 32.4054 37.1764C32.4751 36.7492 32.5587 36.322 32.6284 35.8948C33.0188 33.6484 33.4231 31.3745 33.9807 29.1694C34.0504 28.9076 34.9148 25.6414 34.9984 25.2969C37.2848 33.166 38.3304 41.3935 39.4736 49.4556C40.1288 53.907 40.6865 58.3722 41.7181 62.7409C41.9412 63.8434 42.2479 65.07 42.694 66.1173L42.8334 66.3378C41.5369 73.0632 42.457 79.9401 43.2517 86.6378H42.3176C42.0388 84.419 41.7739 82.2416 41.5787 80.1054C41.1465 75.2406 41.0629 70.7203 41.8436 66.4757C38.2328 54.7615 38.1213 40.732 34.9984 28.9076C34.399 31.154 33.8274 34.117 33.3394 37.0111C31.7222 45.5831 31.2064 55.1749 28.9897 63.678C28.5715 65.2767 28.3206 66.9304 28.5018 68.5704C29.157 74.2346 28.3066 80.4224 27.5398 86.2657" fill="black"/>
<path fill-rule="evenodd" clip-rule="evenodd" d="M14.0583 21.0547C13.5843 30.6327 16.1356 41.0377 16.763 50.3815C17.0418 53.8406 17.3624 57.3549 16.763 60.2903C14.8112 68.8899 14.9366 79.1983 16.763 88.046L17.8364 89.0383C16.0519 80.4111 15.6895 69.1242 17.6413 60.497C18.6729 53.6201 17.1254 46.6054 16.4562 39.7285C15.8986 35.2633 15.2991 30.8119 14.9366 26.3192" fill="black"/>
<path d="M52.8851 89.1727C51.8534 91.9841 49.2882 93.6516 47.0158 93.6516C39.1669 93.2657 41.4393 70.2784 41.8854 66.4196C39.599 59.2257 38.8183 48.807 36.9502 38.1953H55.0181C53.3452 47.7872 53.2058 53.2584 54.8369 68.225C56.0637 79.8702 54.1816 85.81 52.8851 89.1451V89.1727Z" fill="#D3D3D5" stroke="black" stroke-width="0.5" stroke-miterlimit="10"/>
<path d="M43.1401 90.5391H52.3553" stroke="black" stroke-width="0.5" stroke-miterlimit="10"/>
<path d="M55.6731 79.5H40.6444C40.5747 79.5 40.5049 79.5965 40.4492 79.7756L39.8358 82.1598C39.78 82.3941 39.78 82.7111 39.8358 82.9453L40.4631 85.3295C40.505 85.4949 40.5747 85.5914 40.6444 85.5914H55.6731C55.7428 85.5914 55.8125 85.4949 55.8683 85.3157L56.4817 82.9316C56.5374 82.6973 56.5374 82.3803 56.4817 82.146L55.8543 79.7618C55.8125 79.5965 55.7428 79.5 55.6731 79.5Z" fill="white" stroke="black" stroke-width="0.53" stroke-miterlimit="10"/>
<path fill-rule="evenodd" clip-rule="evenodd" d="M117.297 21C117.771 26.1542 116.795 31.0604 116.251 36.2009C115.456 44.2768 113.56 52.6283 114.578 60.2769C116.432 68.4355 116.418 78.1238 114.857 86.6545H113.937C115.484 78.303 115.554 68.7249 113.7 60.4975C112.654 53.7032 114.16 46.785 114.857 40.0045C115.429 35.4567 116.042 30.9226 116.418 26.3334" fill="black"/>
<path fill-rule="evenodd" clip-rule="evenodd" d="M87.7827 87.6025L87.95 86.5276C88.7865 79.8712 89.846 72.9943 88.5495 66.3516L88.6471 66.1311C89.0792 65.194 89.3441 64.119 89.5811 63.1268C91.5469 54.5823 92.23 45.8311 93.7496 37.1764C93.8193 36.7492 93.9029 36.322 93.9726 35.8948C94.363 33.6484 94.7673 31.3745 95.325 29.1694C95.3947 28.9076 96.259 25.6414 96.3427 25.2969C98.629 33.166 99.6746 41.3935 100.818 49.4556C101.473 53.907 102.031 58.3722 103.062 62.7409C103.285 63.8434 103.592 65.07 104.038 66.1173L104.178 66.3378C102.881 73.0632 103.801 79.9401 104.596 86.6378H103.662C103.383 84.419 103.118 82.2416 102.923 80.1054C102.491 75.2406 102.407 70.7203 103.188 66.4757C99.577 54.7615 99.4655 40.732 96.3427 28.9076C95.7432 31.154 95.1716 34.117 94.6837 37.0111C93.0665 45.5831 92.5506 55.1749 90.334 63.678C89.9157 65.2767 89.6648 66.9304 89.846 68.5704C90.5013 74.2346 89.6509 80.4224 88.8841 86.2657" fill="black"/>
<path fill-rule="evenodd" clip-rule="evenodd" d="M75.4031 21.0547C74.9291 30.6327 77.4803 41.0377 78.1077 50.3815C78.3865 53.8406 78.7072 57.3549 78.1077 60.2903C76.1559 68.8899 76.2814 79.1983 78.1077 88.046L79.1812 89.0383C77.3967 80.4111 77.0342 69.1242 78.986 60.497C80.0176 53.6201 78.4702 46.6054 77.801 39.7285C77.2433 35.2633 76.6439 30.8119 76.2814 26.3192" fill="black"/>
<path d="M114.23 89.1727C113.198 91.9841 110.633 93.6516 108.361 93.6516C100.512 93.2657 102.784 70.2784 103.23 66.4196C100.944 59.2257 100.163 48.807 98.2949 38.1953H116.363C114.69 47.7872 114.55 53.2584 116.182 68.225C117.408 79.8702 115.526 85.81 114.23 89.1451V89.1727Z" fill="#D3D3D5" stroke="black" stroke-width="0.5" stroke-miterlimit="10"/>
<path d="M104.484 90.5391H113.7" stroke="black" stroke-width="0.5" stroke-miterlimit="10"/>
<path d="M117.408 76.0469H101.626C101.543 76.0469 101.473 76.0882 101.431 76.1433L100.79 76.984C100.72 77.0667 100.734 77.177 100.79 77.2596L101.445 78.1003C101.445 78.1003 101.571 78.1968 101.64 78.1968H117.422C117.505 78.1968 117.575 78.1554 117.617 78.1003L118.258 77.2596C118.328 77.177 118.314 77.0667 118.258 76.984L117.603 76.1433C117.603 76.1433 117.478 76.0469 117.408 76.0469Z" fill="white" stroke="black" stroke-width="0.5" stroke-miterlimit="10"/>
<path d="M117.408 79.5547H101.626C101.543 79.5547 101.473 79.596 101.431 79.6512L100.79 80.4918C100.72 80.5745 100.734 80.6848 100.79 80.7674L101.445 81.6081C101.445 81.6081 101.571 81.7046 101.64 81.7046H117.422C117.505 81.7046 117.575 81.6632 117.617 81.6081L118.258 80.7674C118.328 80.6848 118.314 80.5745 118.258 80.4918L117.603 79.6512C117.603 79.6512 117.478 79.5547 117.408 79.5547Z" fill="white" stroke="black" stroke-width="0.5" stroke-miterlimit="10"/>
<path d="M117.408 82.8125H101.626C101.543 82.8125 101.473 82.8538 101.431 82.909L100.79 83.7496C100.72 83.8323 100.734 83.9426 100.79 84.0253L101.445 84.8659C101.445 84.8659 101.571 84.9624 101.64 84.9624H117.422C117.505 84.9624 117.575 84.9211 117.617 84.8659L118.258 84.0253C118.328 83.9426 118.314 83.8323 118.258 83.7496L117.603 82.909C117.603 82.909 117.478 82.8125 117.408 82.8125Z" fill="white" stroke="black" stroke-width="0.5" stroke-miterlimit="10"/>
<path d="M39.7246 82.4922H56.496" stroke="black" stroke-width="0.25" stroke-miterlimit="10"/>
</svg>
