<svg width="132" height="129" viewBox="0 0 132 129" fill="none" xmlns="http://www.w3.org/2000/svg">
<rect width="132" height="129" rx="10" fill="white"/>
<path d="M16.1466 113.6H17.7546L13.8666 122H11.9466L8.05859 113.6H9.65459L12.9066 120.836L16.1466 113.6ZM20.8663 115.424C22.8943 115.424 24.5263 116.624 24.3583 119.276H18.5983C18.7663 120.368 19.5463 121.088 20.8903 121.088C22.1383 121.088 22.6663 120.488 22.8823 120.032H24.1783C23.8543 121.34 22.6063 122.18 20.8903 122.18C19.0663 122.18 17.2663 121.136 17.2663 118.808C17.2663 116.516 19.0303 115.424 20.8663 115.424ZM18.6343 118.196H23.0383C22.8463 117.188 22.1503 116.516 20.8663 116.516C19.6783 116.516 18.8623 117.188 18.6343 118.196ZM29.6184 115.424C29.9064 115.424 30.0744 115.436 30.3264 115.472V116.936H30.2784C30.0264 116.864 29.7024 116.816 29.2944 116.816C27.6744 116.816 27.0624 117.752 27.0624 118.748V122H25.5744V115.604H27.0624V116.804C27.3504 116.336 28.2384 115.424 29.6184 115.424ZM35.5715 115.424C35.8595 115.424 36.0275 115.436 36.2795 115.472V116.936H36.2315C35.9795 116.864 35.6555 116.816 35.2475 116.816C33.6275 116.816 33.0155 117.752 33.0155 118.748V122H31.5275V115.604H33.0155V116.804C33.3035 116.336 34.1915 115.424 35.5715 115.424ZM40.5434 115.424C42.4154 115.424 44.2154 116.444 44.2154 118.808C44.2154 121.172 42.4154 122.18 40.5434 122.18C38.6714 122.18 36.8834 121.172 36.8834 118.808C36.8834 116.444 38.6714 115.424 40.5434 115.424ZM40.5434 121.088C42.2594 121.088 42.8474 119.924 42.8474 118.808C42.8474 117.68 42.2594 116.516 40.5434 116.516C38.8274 116.516 38.2394 117.68 38.2394 118.808C38.2394 119.924 38.8274 121.088 40.5434 121.088ZM50.4422 115.604H51.9182V122H50.4422V121.016C50.1422 121.436 49.3262 122.18 47.9942 122.18C46.3262 122.18 45.4142 121.232 45.4142 119.744V115.604H46.8902V119.3C46.8902 120.38 47.4782 120.98 48.6422 120.98C49.8062 120.98 50.4422 120.308 50.4422 119.3V115.604ZM53.5939 122V115.604H55.0699V122H53.5939ZM54.3259 114.716C53.8699 114.716 53.5459 114.452 53.5459 113.996C53.5459 113.54 53.8699 113.276 54.3259 113.276C54.7939 113.276 55.1179 113.54 55.1179 113.996C55.1179 114.452 54.7939 114.716 54.3259 114.716ZM56.7463 113.144H58.2223V122H56.7463V113.144ZM59.8986 113.144H61.3746V122H59.8986V113.144ZM65.9189 115.424C67.6829 115.424 69.1829 116.012 69.1829 117.848V122H67.7069V121.172C67.3949 121.532 66.6269 122.18 65.1269 122.18C63.5909 122.18 62.5709 121.544 62.5709 120.32C62.5709 119 63.2909 117.956 67.7069 118.244V117.848C67.7069 116.96 67.2509 116.516 65.9189 116.516C64.7789 116.516 64.3109 116.888 64.2029 117.428H62.8229C63.0149 116.084 64.2629 115.424 65.9189 115.424ZM67.7069 120.2V119.132C65.0429 119 64.0829 119.228 64.0829 120.224C64.0829 120.872 64.5869 121.196 65.4389 121.196C66.5669 121.196 67.3109 120.776 67.7069 120.2ZM76.0633 115.604H77.5393V121.388C77.5393 123.86 75.6553 124.232 73.8193 124.232C71.8153 124.232 70.6153 123.524 70.4833 122.312H71.8513C71.9473 122.696 72.4273 123.116 73.8193 123.116C75.6073 123.116 76.0633 122.54 76.0633 121.388V120.68C75.5953 121.244 74.8393 121.604 73.7113 121.604C71.8513 121.604 70.3873 120.68 70.3873 118.58C70.3873 116.468 71.8513 115.424 73.7113 115.424C74.8393 115.424 75.5953 115.844 76.0633 116.468V115.604ZM73.9993 120.644C75.3793 120.644 76.2913 119.9 76.2913 118.58C76.2913 117.248 75.4033 116.516 73.9993 116.516C72.6073 116.516 71.7553 117.224 71.7553 118.58C71.7553 119.924 72.6193 120.644 73.9993 120.644ZM82.3428 115.424C84.3708 115.424 86.0028 116.624 85.8348 119.276H80.0748C80.2428 120.368 81.0228 121.088 82.3668 121.088C83.6148 121.088 84.1428 120.488 84.3588 120.032H85.6548C85.3308 121.34 84.0828 122.18 82.3668 122.18C80.5428 122.18 78.7428 121.136 78.7428 118.808C78.7428 116.516 80.5068 115.424 82.3428 115.424ZM80.1108 118.196H84.5148C84.3228 117.188 83.6268 116.516 82.3428 116.516C81.1548 116.516 80.3388 117.188 80.1108 118.196ZM95.7154 113.6H97.1914V122H95.7154V121.16C95.2114 121.772 94.4434 122.18 93.3754 122.18C91.5034 122.18 90.0514 120.968 90.0514 118.808C90.0514 116.636 91.5034 115.424 93.3754 115.424C94.4434 115.424 95.2114 115.832 95.7154 116.444V113.6ZM93.6634 121.088C95.1874 121.088 95.9434 120.128 95.9434 118.808C95.9434 117.476 95.2114 116.516 93.6634 116.516C92.1034 116.516 91.4194 117.452 91.4194 118.808C91.4194 120.152 92.1274 121.088 93.6634 121.088ZM98.8752 122V115.604H100.351V122H98.8752ZM99.6072 114.716C99.1512 114.716 98.8272 114.452 98.8272 113.996C98.8272 113.54 99.1512 113.276 99.6072 113.276C100.075 113.276 100.399 113.54 100.399 113.996C100.399 114.452 100.075 114.716 99.6072 114.716ZM105.4 118.256C107.212 118.568 108.232 118.808 108.232 120.068C108.232 121.556 106.996 122.18 104.86 122.18C102.916 122.18 101.428 121.508 101.428 120.056H102.951C102.951 120.752 103.636 121.064 104.98 121.064C106.288 121.064 106.756 120.74 106.756 120.26C106.756 119.552 105.688 119.54 104.056 119.24C102.4 118.928 101.668 118.544 101.668 117.404C101.668 116.12 102.868 115.424 104.752 115.424C106.804 115.424 107.908 116.24 107.908 117.428H106.528C106.528 117.02 106.096 116.516 104.728 116.516C103.444 116.516 103 116.84 103 117.332C103 117.98 104.26 118.064 105.4 118.256ZM113.375 116.732H111.443V119.612C111.443 120.692 111.875 120.992 113.375 120.836V121.988C113.159 122.048 112.835 122.096 112.535 122.096C110.591 122.096 109.967 121.304 109.967 119.612V116.732H108.719V115.604H109.967V113.948H111.443V115.604H113.375V116.732ZM117.681 115.424C119.445 115.424 120.945 116.012 120.945 117.848V122H119.469V121.172C119.157 121.532 118.389 122.18 116.889 122.18C115.353 122.18 114.333 121.544 114.333 120.32C114.333 119 115.053 117.956 119.469 118.244V117.848C119.469 116.96 119.013 116.516 117.681 116.516C116.541 116.516 116.073 116.888 115.965 117.428H114.585C114.777 116.084 116.025 115.424 117.681 115.424ZM119.469 120.2V119.132C116.805 119 115.845 119.228 115.845 120.224C115.845 120.872 116.349 121.196 117.201 121.196C118.329 121.196 119.073 120.776 119.469 120.2ZM122.629 113.144H124.105V122H122.629V113.144Z" fill="black"/>
<path fill-rule="evenodd" clip-rule="evenodd" d="M91.8546 6C92.4353 12.2992 91.2531 18.3289 90.5894 24.6281C89.6146 34.5327 87.3332 44.7481 88.5569 54.114C90.8176 64.1014 90.7761 75.9745 88.8887 86.4386H87.7688C89.6561 76.2025 89.7391 64.4744 87.4784 54.3833C86.2133 46.0535 88.0384 37.5787 88.868 29.2696C89.5524 23.6957 90.2991 18.1425 90.7554 12.5064" fill="black"/>
<path fill-rule="evenodd" clip-rule="evenodd" d="M56.0781 87.6171L56.2855 86.291C57.3018 78.1476 58.5877 69.7142 57.0114 61.5709L57.1151 61.3015C57.6336 60.1619 57.9655 58.8357 58.2558 57.6132C60.641 47.1492 61.4706 36.4157 63.3164 25.8273C63.3994 25.3093 63.5031 24.7913 63.5861 24.2733C64.0631 21.5174 64.5401 18.7408 65.2245 16.0263C65.3075 15.6948 66.3445 11.6957 66.4482 11.2812C69.2066 20.9372 70.4925 30.9868 71.8821 40.8914C72.691 46.3618 73.3547 51.8321 74.5991 57.1781C74.8687 58.5249 75.242 60.0376 75.7813 61.3223L75.9472 61.5916C74.3709 69.8178 75.4909 78.2512 76.4449 86.4774H75.325C74.9724 83.763 74.6613 81.09 74.4331 78.4585C73.9146 72.4908 73.7902 66.9583 74.7443 61.7574C70.3681 47.3978 70.2229 30.2202 66.4482 15.7155C65.7223 18.4714 65.0171 22.0976 64.4364 25.6408C62.4661 36.1463 61.8439 47.8951 59.1684 58.3177C58.6706 60.2862 58.3595 62.2961 58.5877 64.3061C59.3758 71.2476 58.3595 78.8314 57.4262 85.9801" fill="black"/>
<path fill-rule="evenodd" clip-rule="evenodd" d="M41.062 6.0625C40.5021 17.7905 43.5923 30.5546 44.3597 41.9926C44.6916 46.2196 45.0856 50.5296 44.3597 54.135C41.9954 64.6612 42.1405 77.301 44.3597 88.138L45.6664 89.3399C43.5094 78.7722 43.0531 64.9306 45.4382 54.3629C46.7034 45.9503 44.816 37.3304 43.9864 28.9177C43.3227 23.4473 42.5968 17.9977 42.1405 12.486" fill="black"/>
<path d="M88.1423 89.5466C86.8979 93.007 83.7869 95.0376 81.0284 95.0376C71.5087 94.5611 74.2672 66.4013 74.8064 61.677C72.0272 52.8498 71.0939 40.1065 68.8125 27.0938H90.7348C88.7023 38.8425 88.5364 45.5561 90.5274 63.8941C92.0207 78.1501 89.7186 85.4439 88.163 89.5259L88.1423 89.5466Z" fill="#D3D3D5" stroke="black" stroke-width="0.5" stroke-miterlimit="10"/>
<path d="M81.8582 95.1172H80.6553V100.318H81.8582V95.1172Z" fill="#D3D3D5" stroke="black" stroke-width="0.29" stroke-miterlimit="10"/>
<path d="M81.2569 101.69C80.9665 101.69 80.7591 101.565 80.7176 101.275L80.4272 100.156H82.0657L81.7754 101.275C81.7339 101.565 81.5265 101.69 81.2361 101.69H81.2569Z" fill="#D3D3D5" stroke="black" stroke-width="0.29" stroke-miterlimit="10"/>
<path d="M80.5928 96.8203L81.9409 97.2969" stroke="black" stroke-width="0.29" stroke-miterlimit="10"/>
<path d="M80.5928 98.25L81.9409 98.7266" stroke="black" stroke-width="0.29" stroke-miterlimit="10"/>
<path d="M80.5928 99.6797L81.9409 100.156" stroke="black" stroke-width="0.29" stroke-miterlimit="10"/>
<path d="M76.3203 91.2031H87.4992" stroke="black" stroke-width="0.5" stroke-miterlimit="10"/>
</svg>
