<svg width="217" height="195" viewBox="0 0 217 195" fill="none" xmlns="http://www.w3.org/2000/svg">
<rect x="8.52372e-06" y="2.47442e-05" width="217" height="195" rx="10" fill="#D9D9D9"/>
<g clip-path="url(#clip0_3841_2085)">
<path fill-rule="evenodd" clip-rule="evenodd" d="M141.809 28C142.572 36.2677 141.019 44.1818 140.147 52.4494C138.867 65.4492 135.869 78.8569 137.477 91.1496C140.447 104.258 140.392 119.842 137.913 133.576H136.442C138.921 120.141 139.03 104.748 136.06 91.5032C134.398 80.5703 136.796 69.447 137.886 58.5414C138.785 51.2256 139.766 43.937 140.365 36.5396" fill="#1D1D1B"/>
<path fill-rule="evenodd" clip-rule="evenodd" d="M94.8086 135.126L95.0811 133.386C96.4162 122.698 98.1055 111.629 96.0347 100.941L96.1709 100.587C96.8521 99.0914 97.2881 97.3508 97.6695 95.7463C100.803 82.0122 101.893 67.9246 104.318 54.0273C104.427 53.3474 104.563 52.6675 104.672 51.9876C105.299 48.3705 105.925 44.7262 106.824 41.1635C106.933 40.7284 108.296 35.4795 108.432 34.9356C112.056 47.609 113.745 60.7992 115.571 73.7989C116.633 80.9787 117.505 88.1585 119.14 95.1752C119.494 96.9429 119.985 98.9282 120.693 100.614L120.911 100.968C118.84 111.765 120.312 122.834 121.565 133.631H120.094C119.63 130.068 119.222 126.56 118.922 123.106C118.241 115.273 118.077 108.012 119.331 101.186C113.582 82.3385 113.391 59.7929 108.432 40.7556C107.478 44.3727 106.552 49.132 105.789 53.7825C103.201 67.571 102.383 82.9913 98.8684 96.6709C98.2145 99.2546 97.8058 101.893 98.1055 104.531C99.1409 113.641 97.8058 123.595 96.5796 132.978" fill="#1D1D1B"/>
<path fill-rule="evenodd" clip-rule="evenodd" d="M75.0817 28.0821C74.3461 43.4751 78.4059 60.228 79.414 75.2403C79.8499 80.7883 80.3676 86.4451 79.414 91.1772C76.3078 104.993 76.4986 121.583 79.414 135.806L81.1305 137.384C78.2969 123.514 77.6974 105.346 80.8308 91.4764C82.4929 80.4347 80.0134 69.1211 78.9235 58.0795C78.0516 50.8997 77.098 43.7471 76.4986 36.5129" fill="#1D1D1B"/>
<path d="M136.932 137.655C135.297 142.197 131.21 144.862 127.586 144.862C115.08 144.236 118.704 107.277 119.412 101.076C115.761 89.4905 114.535 72.7648 111.538 55.6856H140.338C137.668 71.1058 137.45 79.9174 140.066 103.986C142.027 122.697 139.003 132.27 136.959 137.628L136.932 137.655Z" fill="#D3D3D5" stroke="#1D1D1B" stroke-width="0.5" stroke-miterlimit="10"/>
<path d="M128.677 144.971H127.096V151.797H128.677V144.971Z" fill="#D3D3D5" stroke="#050A0A" stroke-width="0.29" stroke-miterlimit="10"/>
<path d="M127.886 153.593C127.505 153.593 127.232 153.429 127.178 153.049L126.796 151.58H128.949L128.567 153.049C128.513 153.429 128.24 153.593 127.859 153.593H127.886Z" fill="#D3D3D5" stroke="#050A0A" stroke-width="0.29" stroke-miterlimit="10"/>
<path d="M127.014 147.201L128.785 147.827" stroke="#050A0A" stroke-width="0.29" stroke-miterlimit="10"/>
<path d="M127.014 149.078L128.785 149.704" stroke="#050A0A" stroke-width="0.29" stroke-miterlimit="10"/>
<path d="M127.014 150.953L128.785 151.579" stroke="#050A0A" stroke-width="0.29" stroke-miterlimit="10"/>
<path d="M121.401 139.83H136.087" stroke="#1D1D1B" stroke-width="0.5" stroke-miterlimit="10"/>
</g>
<path d="M40.8621 166.8H43.0061L37.8221 178H35.2621L30.0781 166.8H32.2061L36.5421 176.448L40.8621 166.8ZM47.155 169.232C49.859 169.232 52.035 170.832 51.811 174.368H44.131C44.355 175.824 45.395 176.784 47.187 176.784C48.851 176.784 49.555 175.984 49.843 175.376H51.571C51.139 177.12 49.475 178.24 47.187 178.24C44.755 178.24 42.355 176.848 42.355 173.744C42.355 170.688 44.707 169.232 47.155 169.232ZM44.179 172.928H50.051C49.795 171.584 48.867 170.688 47.155 170.688C45.571 170.688 44.483 171.584 44.179 172.928ZM58.8245 169.232C59.2085 169.232 59.4325 169.248 59.7685 169.296V171.248H59.7045C59.3685 171.152 58.9365 171.088 58.3925 171.088C56.2325 171.088 55.4165 172.336 55.4165 173.664V178H53.4325V169.472H55.4165V171.072C55.8005 170.448 56.9845 169.232 58.8245 169.232ZM66.762 169.232C67.146 169.232 67.37 169.248 67.706 169.296V171.248H67.642C67.306 171.152 66.874 171.088 66.33 171.088C64.17 171.088 63.354 172.336 63.354 173.664V178H61.37V169.472H63.354V171.072C63.738 170.448 64.922 169.232 66.762 169.232ZM73.3913 169.232C75.8873 169.232 78.2873 170.592 78.2873 173.744C78.2873 176.896 75.8873 178.24 73.3913 178.24C70.8953 178.24 68.5113 176.896 68.5113 173.744C68.5113 170.592 70.8953 169.232 73.3913 169.232ZM73.3913 176.784C75.6793 176.784 76.4633 175.232 76.4633 173.744C76.4633 172.24 75.6793 170.688 73.3913 170.688C71.1033 170.688 70.3193 172.24 70.3193 173.744C70.3193 175.232 71.1033 176.784 73.3913 176.784ZM86.5896 169.472H88.5576V178H86.5896V176.688C86.1896 177.248 85.1016 178.24 83.3256 178.24C81.1016 178.24 79.8856 176.976 79.8856 174.992V169.472H81.8536V174.4C81.8536 175.84 82.6376 176.64 84.1896 176.64C85.7416 176.64 86.5896 175.744 86.5896 174.4V169.472ZM90.7919 178V169.472H92.7599V178H90.7919ZM91.7679 168.288C91.1599 168.288 90.7279 167.936 90.7279 167.328C90.7279 166.72 91.1599 166.368 91.7679 166.368C92.3919 166.368 92.8239 166.72 92.8239 167.328C92.8239 167.936 92.3919 168.288 91.7679 168.288ZM94.995 166.192H96.963V178H94.995V166.192ZM99.1981 166.192H101.166V178H99.1981V166.192ZM107.225 169.232C109.577 169.232 111.577 170.016 111.577 172.464V178H109.609V176.896C109.193 177.376 108.169 178.24 106.169 178.24C104.121 178.24 102.761 177.392 102.761 175.76C102.761 174 103.721 172.608 109.609 172.992V172.464C109.609 171.28 109.001 170.688 107.225 170.688C105.705 170.688 105.081 171.184 104.937 171.904H103.097C103.353 170.112 105.017 169.232 107.225 169.232ZM109.609 175.6V174.176C106.057 174 104.777 174.304 104.777 175.632C104.777 176.496 105.449 176.928 106.585 176.928C108.089 176.928 109.081 176.368 109.609 175.6ZM120.751 169.472H122.719V177.184C122.719 180.48 120.207 180.976 117.759 180.976C115.087 180.976 113.487 180.032 113.311 178.416H115.135C115.263 178.928 115.903 179.488 117.759 179.488C120.143 179.488 120.751 178.72 120.751 177.184V176.24C120.127 176.992 119.119 177.472 117.615 177.472C115.135 177.472 113.183 176.24 113.183 173.44C113.183 170.624 115.135 169.232 117.615 169.232C119.119 169.232 120.127 169.792 120.751 170.624V169.472ZM117.999 176.192C119.839 176.192 121.055 175.2 121.055 173.44C121.055 171.664 119.871 170.688 117.999 170.688C116.143 170.688 115.007 171.632 115.007 173.44C115.007 175.232 116.159 176.192 117.999 176.192ZM129.124 169.232C131.828 169.232 134.004 170.832 133.78 174.368H126.1C126.324 175.824 127.364 176.784 129.156 176.784C130.82 176.784 131.524 175.984 131.812 175.376H133.54C133.108 177.12 131.444 178.24 129.156 178.24C126.724 178.24 124.324 176.848 124.324 173.744C124.324 170.688 126.676 169.232 129.124 169.232ZM126.148 172.928H132.02C131.764 171.584 130.836 170.688 129.124 170.688C127.54 170.688 126.452 171.584 126.148 172.928ZM146.954 166.8H148.922V178H146.954V176.88C146.282 177.696 145.258 178.24 143.834 178.24C141.338 178.24 139.402 176.624 139.402 173.744C139.402 170.848 141.338 169.232 143.834 169.232C145.258 169.232 146.282 169.776 146.954 170.592V166.8ZM144.218 176.784C146.25 176.784 147.258 175.504 147.258 173.744C147.258 171.968 146.282 170.688 144.218 170.688C142.138 170.688 141.226 171.936 141.226 173.744C141.226 175.536 142.17 176.784 144.218 176.784ZM151.167 178V169.472H153.135V178H151.167ZM152.143 168.288C151.535 168.288 151.103 167.936 151.103 167.328C151.103 166.72 151.535 166.368 152.143 166.368C152.767 166.368 153.199 166.72 153.199 167.328C153.199 167.936 152.767 168.288 152.143 168.288ZM159.866 173.008C162.282 173.424 163.642 173.744 163.642 175.424C163.642 177.408 161.994 178.24 159.146 178.24C156.554 178.24 154.57 177.344 154.57 175.408H156.602C156.602 176.336 157.514 176.752 159.306 176.752C161.05 176.752 161.674 176.32 161.674 175.68C161.674 174.736 160.25 174.72 158.074 174.32C155.866 173.904 154.89 173.392 154.89 171.872C154.89 170.16 156.49 169.232 159.002 169.232C161.738 169.232 163.21 170.32 163.21 171.904H161.37C161.37 171.36 160.794 170.688 158.97 170.688C157.258 170.688 156.666 171.12 156.666 171.776C156.666 172.64 158.346 172.752 159.866 173.008ZM170.501 170.976H167.925V174.816C167.925 176.256 168.501 176.656 170.501 176.448V177.984C170.213 178.064 169.781 178.128 169.381 178.128C166.789 178.128 165.957 177.072 165.957 174.816V170.976H164.293V169.472H165.957V167.264H167.925V169.472H170.501V170.976ZM176.241 169.232C178.593 169.232 180.593 170.016 180.593 172.464V178H178.625V176.896C178.209 177.376 177.185 178.24 175.185 178.24C173.137 178.24 171.777 177.392 171.777 175.76C171.777 174 172.737 172.608 178.625 172.992V172.464C178.625 171.28 178.017 170.688 176.241 170.688C174.721 170.688 174.097 171.184 173.953 171.904H172.113C172.369 170.112 174.033 169.232 176.241 169.232ZM178.625 175.6V174.176C175.073 174 173.793 174.304 173.793 175.632C173.793 176.496 174.465 176.928 175.601 176.928C177.105 176.928 178.097 176.368 178.625 175.6ZM182.839 166.192H184.807V178H182.839V166.192Z" fill="black"/>
<defs>
<clipPath id="clip0_3841_2085">
<rect width="67" height="126" fill="white" transform="translate(75 28)"/>
</clipPath>
</defs>
</svg>
