<svg width="217" height="195" viewBox="0 0 217 195" fill="none" xmlns="http://www.w3.org/2000/svg">
<rect x="8.52372e-06" y="2.47442e-05" width="217" height="195" rx="10" fill="#D9D9D9"/>
<g clip-path="url(#clip0_3841_2137)">
<path fill-rule="evenodd" clip-rule="evenodd" d="M143.795 28C144.615 36.7572 142.946 45.1399 142.009 53.8971C140.633 67.6667 137.412 81.8683 139.139 94.8889C142.331 108.774 142.272 125.28 139.608 139.827H138.027C140.691 125.597 140.808 109.292 137.617 95.2634C135.831 83.6832 138.407 71.9013 139.579 60.3498C140.545 52.6008 141.599 44.8807 142.243 37.0453" fill="#1D1D1B"/>
<path fill-rule="evenodd" clip-rule="evenodd" d="M93.2866 141.469L93.5794 139.626C95.0142 128.305 96.8295 116.58 94.6042 105.259L94.7506 104.885C95.4826 103.3 95.9511 101.457 96.361 99.7572C99.7283 85.2099 100.899 70.2881 103.505 55.5679C103.623 54.8478 103.769 54.1276 103.886 53.4075C104.56 49.5762 105.233 45.7161 106.199 41.9424C106.316 41.4815 107.78 35.9219 107.927 35.3457C111.821 48.7696 113.636 62.7408 115.598 76.5103C116.74 84.1153 117.677 91.7202 119.434 99.1523C119.814 101.025 120.342 103.128 121.103 104.914L121.337 105.288C119.112 116.724 120.693 128.449 122.04 139.885H120.459C119.961 136.111 119.522 132.395 119.2 128.737C118.468 120.44 118.292 112.749 119.639 105.519C113.461 85.5556 113.256 61.6749 107.927 41.5103C106.902 45.3416 105.906 50.3828 105.087 55.3087C102.305 69.9136 101.427 86.247 97.6494 100.737C96.9467 103.473 96.5074 106.268 96.8295 109.062C97.9422 118.712 96.5075 129.255 95.1898 139.193" fill="#1D1D1B"/>
<path fill-rule="evenodd" clip-rule="evenodd" d="M72.0879 28.086C71.2973 44.3905 75.66 62.1353 76.7434 78.0366C77.2119 83.9131 77.7682 89.9049 76.7434 94.9172C73.4055 109.551 73.6104 127.123 76.7434 142.189L78.5881 143.86C75.5429 129.168 74.8988 109.925 78.266 95.2341C80.0521 83.5386 77.3876 71.5551 76.2164 59.8596C75.2794 52.2547 74.2546 44.6786 73.6104 37.016" fill="#1D1D1B"/>
<path d="M138.759 144.147C137.002 148.958 132.61 151.781 128.716 151.781C117.033 151.781 119.053 120.641 119.053 116.09C119.053 112.431 119.639 107.563 119.961 105.402C118.995 103.732 117.589 96.4148 116.857 91.8633C116.272 88.2049 113.051 67.3201 111.499 57.3242H142.448C142.126 59.0814 141.277 64.4683 140.486 71.958C139.52 81.2049 140.223 88.5794 142.126 108.485L142.185 109.118C144.117 129.485 140.984 138.127 138.788 144.118L138.759 144.147Z" fill="#D3D3D5" stroke="#1D1D1B" stroke-width="0.5" stroke-miterlimit="10"/>
<path d="M133.371 70.7774H124.909V74.2054H133.371V70.7774Z" stroke="#050A0A" stroke-width="0.29" stroke-miterlimit="10"/>
<path d="M122.538 146.453H138.32" stroke="#1D1D1B" stroke-width="0.5" stroke-miterlimit="10"/>
<path d="M131.848 72.3614H126.432V153.567H131.848V72.3614Z" fill="white" stroke="#050A0A" stroke-width="0.29" stroke-miterlimit="10"/>
</g>
<path d="M54.8011 180.336V182H45.5691V170.8H47.5371V180.336H54.8011ZM60.3893 173.232C62.7413 173.232 64.7413 174.016 64.7413 176.464V182H62.7733V180.896C62.3573 181.376 61.3333 182.24 59.3333 182.24C57.2853 182.24 55.9253 181.392 55.9253 179.76C55.9253 178 56.8853 176.608 62.7733 176.992V176.464C62.7733 175.28 62.1653 174.688 60.3893 174.688C58.8693 174.688 58.2453 175.184 58.1013 175.904H56.2613C56.5173 174.112 58.1813 173.232 60.3893 173.232ZM62.7733 179.6V178.176C59.2213 178 57.9413 178.304 57.9413 179.632C57.9413 180.496 58.6133 180.928 59.7493 180.928C61.2533 180.928 62.2453 180.368 62.7733 179.6ZM72.2192 173.232C74.4432 173.232 75.6592 174.496 75.6592 176.48V182H73.6912V177.072C73.6912 175.632 72.9072 174.832 71.3552 174.832C69.8032 174.832 68.9552 175.728 68.9552 177.072V182H66.9872V173.472H68.9552V174.784C69.3552 174.224 70.4432 173.232 72.2192 173.232ZM77.8934 182V173.472H79.8614V182H77.8934ZM78.8694 172.288C78.2614 172.288 77.8294 171.936 77.8294 171.328C77.8294 170.72 78.2614 170.368 78.8694 170.368C79.4934 170.368 79.9254 170.72 79.9254 171.328C79.9254 171.936 79.4934 172.288 78.8694 172.288ZM86.2566 173.232C88.9606 173.232 91.1366 174.832 90.9126 178.368H83.2326C83.4566 179.824 84.4966 180.784 86.2886 180.784C87.9526 180.784 88.6566 179.984 88.9446 179.376H90.6726C90.2406 181.12 88.5766 182.24 86.2886 182.24C83.8566 182.24 81.4566 180.848 81.4566 177.744C81.4566 174.688 83.8086 173.232 86.2566 173.232ZM83.2806 176.928H89.1526C88.8966 175.584 87.9686 174.688 86.2566 174.688C84.6726 174.688 83.5846 175.584 83.2806 176.928ZM86.0006 170.24L87.1846 172.304H85.9046L83.9206 170.24H86.0006ZM97.9261 173.232C98.3101 173.232 98.5341 173.248 98.8701 173.296V175.248H98.8061C98.4701 175.152 98.0381 175.088 97.4941 175.088C95.3341 175.088 94.5181 176.336 94.5181 177.664V182H92.5341V173.472H94.5181V175.072C94.9021 174.448 96.0861 173.232 97.9261 173.232ZM104.475 173.232C107.179 173.232 109.355 174.832 109.131 178.368H101.451C101.675 179.824 102.715 180.784 104.507 180.784C106.171 180.784 106.875 179.984 107.163 179.376H108.891C108.459 181.12 106.795 182.24 104.507 182.24C102.075 182.24 99.6753 180.848 99.6753 177.744C99.6753 174.688 102.027 173.232 104.475 173.232ZM101.499 176.928H107.371C107.115 175.584 106.187 174.688 104.475 174.688C102.891 174.688 101.803 175.584 101.499 176.928ZM122.305 170.8H124.273V182H122.305V180.88C121.633 181.696 120.609 182.24 119.185 182.24C116.689 182.24 114.753 180.624 114.753 177.744C114.753 174.848 116.689 173.232 119.185 173.232C120.609 173.232 121.633 173.776 122.305 174.592V170.8ZM119.569 180.784C121.601 180.784 122.609 179.504 122.609 177.744C122.609 175.968 121.633 174.688 119.569 174.688C117.489 174.688 116.577 175.936 116.577 177.744C116.577 179.536 117.521 180.784 119.569 180.784ZM126.518 182V173.472H128.486V182H126.518ZM127.494 172.288C126.886 172.288 126.454 171.936 126.454 171.328C126.454 170.72 126.886 170.368 127.494 170.368C128.118 170.368 128.55 170.72 128.55 171.328C128.55 171.936 128.118 172.288 127.494 172.288ZM135.218 177.008C137.634 177.424 138.994 177.744 138.994 179.424C138.994 181.408 137.346 182.24 134.498 182.24C131.906 182.24 129.922 181.344 129.922 179.408H131.954C131.954 180.336 132.866 180.752 134.658 180.752C136.402 180.752 137.026 180.32 137.026 179.68C137.026 178.736 135.602 178.72 133.426 178.32C131.218 177.904 130.242 177.392 130.242 175.872C130.242 174.16 131.842 173.232 134.354 173.232C137.09 173.232 138.562 174.32 138.562 175.904H136.722C136.722 175.36 136.146 174.688 134.322 174.688C132.61 174.688 132.018 175.12 132.018 175.776C132.018 176.64 133.698 176.752 135.218 177.008ZM145.852 174.976H143.276V178.816C143.276 180.256 143.852 180.656 145.852 180.448V181.984C145.564 182.064 145.132 182.128 144.732 182.128C142.14 182.128 141.308 181.072 141.308 178.816V174.976H139.644V173.472H141.308V171.264H143.276V173.472H145.852V174.976ZM151.592 173.232C153.944 173.232 155.944 174.016 155.944 176.464V182H153.976V180.896C153.56 181.376 152.536 182.24 150.536 182.24C148.488 182.24 147.128 181.392 147.128 179.76C147.128 178 148.088 176.608 153.976 176.992V176.464C153.976 175.28 153.368 174.688 151.592 174.688C150.072 174.688 149.448 175.184 149.304 175.904H147.464C147.72 174.112 149.384 173.232 151.592 173.232ZM153.976 179.6V178.176C150.424 178 149.144 178.304 149.144 179.632C149.144 180.496 149.816 180.928 150.952 180.928C152.456 180.928 153.448 180.368 153.976 179.6ZM158.19 170.192H160.158V182H158.19V170.192ZM166.553 173.232C169.257 173.232 171.433 174.832 171.209 178.368H163.529C163.753 179.824 164.793 180.784 166.585 180.784C168.249 180.784 168.953 179.984 169.241 179.376H170.969C170.537 181.12 168.873 182.24 166.585 182.24C164.153 182.24 161.753 180.848 161.753 177.744C161.753 174.688 164.105 173.232 166.553 173.232ZM163.577 176.928H169.449C169.193 175.584 168.265 174.688 166.553 174.688C164.969 174.688 163.881 175.584 163.577 176.928Z" fill="black"/>
<defs>
<clipPath id="clip0_3841_2137">
<rect width="72" height="126" fill="white" transform="translate(72 28)"/>
</clipPath>
</defs>
</svg>
