<svg width="217" height="195" viewBox="0 0 217 195" fill="none" xmlns="http://www.w3.org/2000/svg">
<rect x="8.52372e-06" y="2.47442e-05" width="217" height="195" rx="10" fill="#D9D9D9"/>
<g clip-path="url(#clip0_3841_2124)">
<path fill-rule="evenodd" clip-rule="evenodd" d="M143.795 28C144.615 36.7572 142.946 45.1399 142.009 53.8971C140.633 67.6667 137.412 81.8683 139.139 94.8889C142.331 108.774 142.272 125.28 139.608 139.827H138.027C140.691 125.597 140.808 109.292 137.617 95.2634C135.831 83.6832 138.407 71.9013 139.579 60.3498C140.545 52.6008 141.599 44.8807 142.243 37.0453" fill="#1D1D1B"/>
<path fill-rule="evenodd" clip-rule="evenodd" d="M93.2866 141.469L93.5794 139.626C95.0142 128.305 96.8295 116.58 94.6042 105.259L94.7506 104.885C95.4826 103.3 95.9511 101.457 96.361 99.7572C99.7283 85.2099 100.899 70.2881 103.505 55.5679C103.623 54.8478 103.769 54.1276 103.886 53.4075C104.56 49.5762 105.233 45.7161 106.199 41.9424C106.316 41.4815 107.78 35.9219 107.927 35.3457C111.821 48.7696 113.636 62.7408 115.598 76.5103C116.74 84.1153 117.677 91.7202 119.434 99.1523C119.814 101.025 120.342 103.128 121.103 104.914L121.337 105.288C119.112 116.724 120.693 128.449 122.04 139.885H120.459C119.961 136.111 119.522 132.395 119.2 128.737C118.468 120.44 118.292 112.749 119.639 105.519C113.461 85.5556 113.256 61.6749 107.927 41.5103C106.902 45.3416 105.906 50.3828 105.087 55.3087C102.305 69.9136 101.427 86.247 97.6494 100.737C96.9467 103.473 96.5074 106.268 96.8295 109.062C97.9422 118.712 96.5075 129.255 95.1898 139.193" fill="#1D1D1B"/>
<path fill-rule="evenodd" clip-rule="evenodd" d="M72.0879 28.086C71.2973 44.3905 75.66 62.1353 76.7434 78.0366C77.2119 83.9131 77.7682 89.9049 76.7434 94.9172C73.4055 109.551 73.6104 127.123 76.7434 142.189L78.5881 143.86C75.5429 129.168 74.8988 109.925 78.266 95.2341C80.0521 83.5386 77.3876 71.5551 76.2164 59.8596C75.2794 52.2547 74.2546 44.6786 73.6104 37.016" fill="#1D1D1B"/>
<path d="M138.759 144.147C137.002 148.958 132.61 151.781 128.716 151.781C117.033 151.781 119.053 120.641 119.053 116.09C119.053 112.431 119.639 107.563 119.961 105.402C118.995 103.732 117.589 96.4148 116.857 91.8633C116.272 88.2049 113.051 67.3201 111.499 57.3242H142.448C142.126 59.0814 141.277 64.4683 140.486 71.958C139.52 81.2049 140.223 88.5794 142.126 108.485L142.185 109.118C144.117 129.485 140.984 138.127 138.788 144.118L138.759 144.147Z" fill="#D3D3D5" stroke="#1D1D1B" stroke-width="0.5" stroke-miterlimit="10"/>
<path d="M133.371 70.7774H124.909V74.2054H133.371V70.7774Z" stroke="#050A0A" stroke-width="0.29" stroke-miterlimit="10"/>
<path d="M122.538 146.453H138.32" stroke="#1D1D1B" stroke-width="0.5" stroke-miterlimit="10"/>
<path d="M131.848 72.3614H126.432V153.567H131.848V72.3614Z" fill="white" stroke="#050A0A" stroke-width="0.29" stroke-miterlimit="10"/>
</g>
<path d="M85.8401 180.336V182H76.6081V170.8H78.5761V180.336H85.8401ZM91.4284 173.232C93.7804 173.232 95.7804 174.016 95.7804 176.464V182H93.8124V180.896C93.3964 181.376 92.3724 182.24 90.3724 182.24C88.3244 182.24 86.9644 181.392 86.9644 179.76C86.9644 178 87.9244 176.608 93.8124 176.992V176.464C93.8124 175.28 93.2044 174.688 91.4284 174.688C89.9084 174.688 89.2844 175.184 89.1404 175.904H87.3004C87.5564 174.112 89.2204 173.232 91.4284 173.232ZM93.8124 179.6V178.176C90.2604 178 88.9804 178.304 88.9804 179.632C88.9804 180.496 89.6524 180.928 90.7884 180.928C92.2924 180.928 93.2844 180.368 93.8124 179.6ZM103.258 173.232C105.482 173.232 106.698 174.496 106.698 176.48V182H104.73V177.072C104.73 175.632 103.946 174.832 102.394 174.832C100.842 174.832 99.9943 175.728 99.9943 177.072V182H98.0263V173.472H99.9943V174.784C100.394 174.224 101.482 173.232 103.258 173.232ZM108.933 182V173.472H110.901V182H108.933ZM109.909 172.288C109.301 172.288 108.869 171.936 108.869 171.328C108.869 170.72 109.301 170.368 109.909 170.368C110.533 170.368 110.965 170.72 110.965 171.328C110.965 171.936 110.533 172.288 109.909 172.288ZM117.296 173.232C120 173.232 122.176 174.832 121.952 178.368H114.272C114.496 179.824 115.536 180.784 117.328 180.784C118.992 180.784 119.696 179.984 119.984 179.376H121.712C121.28 181.12 119.616 182.24 117.328 182.24C114.896 182.24 112.496 180.848 112.496 177.744C112.496 174.688 114.848 173.232 117.296 173.232ZM114.32 176.928H120.192C119.936 175.584 119.008 174.688 117.296 174.688C115.712 174.688 114.624 175.584 114.32 176.928ZM117.04 170.24L118.224 172.304H116.944L114.96 170.24H117.04ZM128.965 173.232C129.349 173.232 129.573 173.248 129.909 173.296V175.248H129.845C129.509 175.152 129.077 175.088 128.533 175.088C126.373 175.088 125.557 176.336 125.557 177.664V182H123.573V173.472H125.557V175.072C125.941 174.448 127.125 173.232 128.965 173.232ZM135.514 173.232C138.218 173.232 140.394 174.832 140.17 178.368H132.49C132.714 179.824 133.754 180.784 135.546 180.784C137.21 180.784 137.914 179.984 138.202 179.376H139.93C139.498 181.12 137.834 182.24 135.546 182.24C133.114 182.24 130.714 180.848 130.714 177.744C130.714 174.688 133.066 173.232 135.514 173.232ZM132.538 176.928H138.41C138.154 175.584 137.226 174.688 135.514 174.688C133.93 174.688 132.842 175.584 132.538 176.928Z" fill="black"/>
<defs>
<clipPath id="clip0_3841_2124">
<rect width="72" height="126" fill="white" transform="translate(72 28)"/>
</clipPath>
</defs>
</svg>
