<svg width="132" height="129" viewBox="0 0 132 129" fill="none" xmlns="http://www.w3.org/2000/svg">
<rect width="132" height="129" rx="10" fill="white"/>
<path d="M48.3801 120.752V122H41.4561V113.6H42.9321V120.752H48.3801ZM52.5713 115.424C54.3353 115.424 55.8353 116.012 55.8353 117.848V122H54.3593V121.172C54.0473 121.532 53.2793 122.18 51.7793 122.18C50.2433 122.18 49.2233 121.544 49.2233 120.32C49.2233 119 49.9433 117.956 54.3593 118.244V117.848C54.3593 116.96 53.9033 116.516 52.5713 116.516C51.4313 116.516 50.9633 116.888 50.8553 117.428H49.4753C49.6673 116.084 50.9153 115.424 52.5713 115.424ZM54.3593 120.2V119.132C51.6953 119 50.7353 119.228 50.7353 120.224C50.7353 120.872 51.2393 121.196 52.0913 121.196C53.2193 121.196 53.9633 120.776 54.3593 120.2ZM61.4437 115.424C63.1117 115.424 64.0237 116.372 64.0237 117.86V122H62.5477V118.304C62.5477 117.224 61.9597 116.624 60.7957 116.624C59.6317 116.624 58.9957 117.296 58.9957 118.304V122H57.5197V115.604H58.9957V116.588C59.2957 116.168 60.1117 115.424 61.4437 115.424ZM65.6994 122V115.604H67.1754V122H65.6994ZM66.4314 114.716C65.9754 114.716 65.6514 114.452 65.6514 113.996C65.6514 113.54 65.9754 113.276 66.4314 113.276C66.8994 113.276 67.2234 113.54 67.2234 113.996C67.2234 114.452 66.8994 114.716 66.4314 114.716ZM71.9717 115.424C73.9997 115.424 75.6317 116.624 75.4637 119.276H69.7037C69.8717 120.368 70.6517 121.088 71.9957 121.088C73.2437 121.088 73.7717 120.488 73.9877 120.032H75.2837C74.9597 121.34 73.7117 122.18 71.9957 122.18C70.1717 122.18 68.3717 121.136 68.3717 118.808C68.3717 116.516 70.1357 115.424 71.9717 115.424ZM69.7397 118.196H74.1437C73.9517 117.188 73.2557 116.516 71.9717 116.516C70.7837 116.516 69.9677 117.188 69.7397 118.196ZM71.7797 113.18L72.6677 114.728H71.7077L70.2197 113.18H71.7797ZM80.7238 115.424C81.0118 115.424 81.1798 115.436 81.4318 115.472V116.936H81.3838C81.1318 116.864 80.8078 116.816 80.3998 116.816C78.7798 116.816 78.1678 117.752 78.1678 118.748V122H76.6798V115.604H78.1678V116.804C78.4558 116.336 79.3438 115.424 80.7238 115.424ZM85.6358 115.424C87.6638 115.424 89.2958 116.624 89.1278 119.276H83.3678C83.5358 120.368 84.3158 121.088 85.6598 121.088C86.9078 121.088 87.4358 120.488 87.6518 120.032H88.9478C88.6238 121.34 87.3758 122.18 85.6598 122.18C83.8358 122.18 82.0358 121.136 82.0358 118.808C82.0358 116.516 83.7998 115.424 85.6358 115.424ZM83.4038 118.196H87.8078C87.6158 117.188 86.9198 116.516 85.6358 116.516C84.4478 116.516 83.6318 117.188 83.4038 118.196Z" fill="black"/>
<path fill-rule="evenodd" clip-rule="evenodd" d="M92.8519 8C93.4667 14.6722 92.215 21.059 91.5123 27.7311C90.4802 38.2222 88.0646 49.0425 89.3602 58.963C91.7539 69.5418 91.7099 82.118 89.7116 93.2016H88.5257C90.5241 82.3594 90.6119 69.9369 88.2183 59.2483C86.8787 50.4252 88.8112 41.4486 89.6896 32.6475C90.4143 26.7435 91.2049 20.8615 91.688 14.8916" fill="black"/>
<path fill-rule="evenodd" clip-rule="evenodd" d="M54.9702 94.4497L55.1898 93.0451C56.2659 84.4195 57.6274 75.4868 55.9584 66.8612L56.0682 66.5759C56.6172 65.3688 56.9686 63.9641 57.276 62.6692C59.8014 51.5855 60.6799 40.2165 62.6343 29.0012C62.7221 28.4525 62.8319 27.9038 62.9198 27.3551C63.4249 24.436 63.93 21.495 64.6546 18.6198C64.7425 18.2686 65.8405 14.0327 65.9503 13.5938C68.871 23.8215 70.2325 34.4662 71.7038 44.9573C72.5603 50.7515 73.263 56.5457 74.5806 62.2083C74.8661 63.6349 75.2614 65.2371 75.8324 66.5979L76.008 66.8832C74.3391 75.5965 75.5249 84.5293 76.5351 93.2426H75.3492C74.9759 90.3674 74.6465 87.5361 74.4049 84.7488C73.8559 78.4278 73.7242 72.5677 74.7343 67.0588C70.1008 51.8489 69.947 33.6541 65.9503 18.2906C65.1817 21.2097 64.435 25.0505 63.8202 28.8036C61.7339 39.9312 61.0751 52.3756 58.2423 63.4154C57.7152 65.5005 57.3858 67.6294 57.6274 69.7584C58.4619 77.1109 57.3858 85.1438 56.3976 92.7158" fill="black"/>
<path fill-rule="evenodd" clip-rule="evenodd" d="M39.0714 8.0625C38.4785 20.485 41.7505 34.0049 42.563 46.1201C42.9144 50.5975 43.3317 55.1626 42.563 58.9816C40.0596 70.1311 40.2133 83.5193 42.563 94.998L43.9465 96.271C41.6627 85.0776 41.1796 70.4164 43.705 59.223C45.0445 50.3122 43.0462 41.1818 42.1678 32.271C41.465 26.4768 40.6964 20.7045 40.2133 14.8663" fill="black"/>
<path d="M88.4503 96.4946C87.1327 100.16 83.8386 102.311 80.9179 102.311C72.1558 102.311 73.6711 78.5852 73.6711 75.1174C73.6711 72.33 74.1103 68.6208 74.3519 66.9748C73.6272 65.7018 72.5731 60.127 72.0241 56.6592C71.5849 53.8719 69.1693 37.9597 68.0054 30.3438H91.2172C90.9757 31.6826 90.3388 35.7868 89.7459 41.4933C89.0212 48.5385 89.5483 54.1572 90.9757 69.3232L91.0196 69.806C92.469 85.3232 90.1192 91.9075 88.4722 96.4727L88.4503 96.4946Z" fill="#D3D3D5"/>
<path d="M91.5161 30.0938L91.4634 30.3877C91.2231 31.7192 90.587 35.818 89.9946 41.5195C89.3633 47.6578 89.6849 52.706 90.7319 64.0371L91.2241 69.2998L91.2251 69.3008L91.269 69.7832H91.2681C91.9942 77.5573 91.7704 83.1034 91.1548 87.2832C90.5389 91.4648 89.5324 94.2712 88.7075 96.5576L88.688 96.6104L88.6636 96.6338C87.3001 100.356 83.9374 102.561 80.9175 102.561C78.5864 102.56 76.9719 100.973 75.8638 98.6572C74.7555 96.3408 74.1195 93.2338 73.7603 90.043C73.0417 83.6595 73.4214 76.8311 73.4214 75.1172C73.4214 72.3566 73.8489 68.7077 74.0933 67.0195C73.9076 66.6611 73.7131 66.0806 73.519 65.3799C73.3079 64.6174 73.0893 63.6878 72.8774 62.6924C72.5596 61.1988 72.2542 59.551 72.0054 58.0879L71.7769 56.6982C71.3375 53.9102 68.922 37.9968 67.7583 30.3818L67.7144 30.0938H91.5161ZM73.9214 75.1172C73.9214 76.871 73.543 83.6401 74.2573 89.9863C74.6146 93.1601 75.2431 96.201 76.3149 98.4414C77.3869 100.682 78.868 102.06 80.9175 102.061C83.7241 102.061 86.9304 99.9846 88.2153 96.4102L88.2339 96.3574L88.2554 96.335C89.0737 94.0663 90.056 91.3091 90.6597 87.21C91.2303 83.3354 91.4639 78.2548 90.895 71.2549L90.771 69.8291L90.7271 69.3467L90.2349 64.0869C89.1875 52.7549 88.8608 47.6584 89.4976 41.4678L89.7212 39.4033C90.2056 35.1127 90.6838 31.9697 90.9204 30.5938H68.2964C69.4762 38.3162 71.8373 53.8675 72.271 56.6201C72.545 58.3509 72.9451 60.607 73.3667 62.5879C73.5775 63.5786 73.7931 64.498 74.0005 65.2471C74.2101 66.0039 74.405 66.5626 74.5688 66.8506L74.6118 66.9258L74.5991 67.0107C74.3581 68.6529 73.9214 72.3481 73.9214 75.1172Z" fill="black"/>
<path d="M85.1787 40.4531V43.3545H78.543V40.4531H85.1787ZM78.832 43.0645H84.8887V40.7422H78.832V43.0645Z" fill="black"/>
<path d="M88.0054 96.75L88.0054 97.25L75.0054 97.25L75.0054 96.75L88.0054 96.75Z" fill="black"/>
<path d="M83.8917 41.7969H79.8291V103.668H83.8917V41.7969Z" fill="white"/>
<path d="M84.0371 41.6562V103.816H79.6846V41.6562H84.0371ZM79.9736 103.526H83.7471V41.9453H79.9736V103.526Z" fill="black"/>
</svg>
