<svg width="132" height="129" viewBox="0 0 132 129" fill="none" xmlns="http://www.w3.org/2000/svg">
<rect width="132" height="129" rx="10" fill="white"/>
<path d="M13.3274 114.732C13.5254 117.548 11.9744 119.165 9.25736 119.165C6.79336 119.165 4.75836 117.812 4.75836 115.15C4.75836 112.488 6.87036 111.146 9.09236 111.146C11.1054 111.146 12.6234 112.07 13.1294 113.764H11.6774C11.3584 113.016 10.6764 112.279 9.09236 112.279C7.25536 112.279 6.15536 113.467 6.15536 115.15C6.15536 116.844 7.34336 118.032 9.26836 118.032C11.1934 118.032 11.8754 116.877 11.9524 115.876H9.29036V114.732H13.3274ZM17.192 112.972C18.809 112.972 20.184 113.511 20.184 115.194V119H18.831V118.241C18.545 118.571 17.841 119.165 16.466 119.165C15.058 119.165 14.123 118.582 14.123 117.46C14.123 116.25 14.783 115.293 18.831 115.557V115.194C18.831 114.38 18.413 113.973 17.192 113.973C16.147 113.973 15.718 114.314 15.619 114.809H14.354C14.53 113.577 15.674 112.972 17.192 112.972ZM18.831 117.35V116.371C16.389 116.25 15.509 116.459 15.509 117.372C15.509 117.966 15.971 118.263 16.752 118.263C17.786 118.263 18.468 117.878 18.831 117.35ZM21.728 119V113.137H23.081V119H21.728ZM22.399 112.323C21.981 112.323 21.684 112.081 21.684 111.663C21.684 111.245 21.981 111.003 22.399 111.003C22.828 111.003 23.125 111.245 23.125 111.663C23.125 112.081 22.828 112.323 22.399 112.323ZM28.2147 112.972C29.7437 112.972 30.5797 113.841 30.5797 115.205V119H29.2267V115.612C29.2267 114.622 28.6877 114.072 27.6207 114.072C26.5537 114.072 25.9707 114.688 25.9707 115.612V119H24.6177V113.137H25.9707V114.039C26.2457 113.654 26.9937 112.972 28.2147 112.972ZM34.9757 112.972C36.8347 112.972 38.3307 114.072 38.1767 116.503H32.8967C33.0507 117.504 33.7657 118.164 34.9977 118.164C36.1417 118.164 36.6257 117.614 36.8237 117.196H38.0117C37.7147 118.395 36.5707 119.165 34.9977 119.165C33.3257 119.165 31.6757 118.208 31.6757 116.074C31.6757 113.973 33.2927 112.972 34.9757 112.972ZM32.9297 115.513H36.9667C36.7907 114.589 36.1527 113.973 34.9757 113.973C33.8867 113.973 33.1387 114.589 32.9297 115.513ZM47.2339 111.3H48.5869V119H47.2339V118.23C46.7719 118.791 46.0679 119.165 45.0889 119.165C43.3729 119.165 42.0419 118.054 42.0419 116.074C42.0419 114.083 43.3729 112.972 45.0889 112.972C46.0679 112.972 46.7719 113.346 47.2339 113.907V111.3ZM45.3529 118.164C46.7499 118.164 47.4429 117.284 47.4429 116.074C47.4429 114.853 46.7719 113.973 45.3529 113.973C43.9229 113.973 43.2959 114.831 43.2959 116.074C43.2959 117.306 43.9449 118.164 45.3529 118.164ZM52.9904 112.972C54.8494 112.972 56.3454 114.072 56.1914 116.503H50.9114C51.0654 117.504 51.7804 118.164 53.0124 118.164C54.1564 118.164 54.6404 117.614 54.8384 117.196H56.0264C55.7294 118.395 54.5854 119.165 53.0124 119.165C51.3404 119.165 49.6904 118.208 49.6904 116.074C49.6904 113.973 51.3074 112.972 52.9904 112.972ZM50.9444 115.513H54.9814C54.8054 114.589 54.1674 113.973 52.9904 113.973C51.9014 113.973 51.1534 114.589 50.9444 115.513ZM63.5876 115.568C65.2486 115.854 66.1836 116.074 66.1836 117.229C66.1836 118.593 65.0506 119.165 63.0926 119.165C61.3106 119.165 59.9466 118.549 59.9466 117.218H61.3436C61.3436 117.856 61.9706 118.142 63.2026 118.142C64.4016 118.142 64.8306 117.845 64.8306 117.405C64.8306 116.756 63.8516 116.745 62.3556 116.47C60.8376 116.184 60.1666 115.832 60.1666 114.787C60.1666 113.61 61.2666 112.972 62.9936 112.972C64.8746 112.972 65.8866 113.72 65.8866 114.809H64.6216C64.6216 114.435 64.2256 113.973 62.9716 113.973C61.7946 113.973 61.3876 114.27 61.3876 114.721C61.3876 115.315 62.5426 115.392 63.5876 115.568ZM71.8946 113.137H73.2476V119H71.8946V118.098C71.6196 118.483 70.8716 119.165 69.6506 119.165C68.1216 119.165 67.2856 118.296 67.2856 116.932V113.137H68.6386V116.525C68.6386 117.515 69.1776 118.065 70.2446 118.065C71.3116 118.065 71.8946 117.449 71.8946 116.525V113.137ZM77.8747 115.568C79.5357 115.854 80.4707 116.074 80.4707 117.229C80.4707 118.593 79.3377 119.165 77.3797 119.165C75.5977 119.165 74.2337 118.549 74.2337 117.218H75.6307C75.6307 117.856 76.2577 118.142 77.4897 118.142C78.6887 118.142 79.1177 117.845 79.1177 117.405C79.1177 116.756 78.1387 116.745 76.6427 116.47C75.1247 116.184 74.4537 115.832 74.4537 114.787C74.4537 113.61 75.5537 112.972 77.2807 112.972C79.1617 112.972 80.1737 113.72 80.1737 114.809H78.9087C78.9087 114.435 78.5127 113.973 77.2587 113.973C76.0817 113.973 75.6747 114.27 75.6747 114.721C75.6747 115.315 76.8297 115.392 77.8747 115.568ZM85.0707 112.972C86.7867 112.972 88.1177 114.083 88.1177 116.074C88.1177 118.054 86.7867 119.165 85.0707 119.165C84.0917 119.165 83.3877 118.791 82.9257 118.23V120.837H81.5727V113.137H82.9257V113.907C83.3877 113.346 84.0917 112.972 85.0707 112.972ZM84.8067 118.164C86.2367 118.164 86.8637 117.306 86.8637 116.074C86.8637 114.831 86.2147 113.973 84.8067 113.973C83.3987 113.973 82.7167 114.853 82.7167 116.074C82.7167 117.284 83.3877 118.164 84.8067 118.164ZM92.0812 112.972C93.9402 112.972 95.4362 114.072 95.2822 116.503H90.0022C90.1562 117.504 90.8712 118.164 92.1032 118.164C93.2472 118.164 93.7312 117.614 93.9292 117.196H95.1172C94.8202 118.395 93.6762 119.165 92.1032 119.165C90.4312 119.165 88.7812 118.208 88.7812 116.074C88.7812 113.973 90.3982 112.972 92.0812 112.972ZM90.0352 115.513H94.0722C93.8962 114.589 93.2582 113.973 92.0812 113.973C90.9922 113.973 90.2442 114.589 90.0352 115.513ZM99.994 112.972C101.523 112.972 102.359 113.841 102.359 115.205V119H101.006V115.612C101.006 114.622 100.467 114.072 99.4 114.072C98.333 114.072 97.75 114.688 97.75 115.612V119H96.397V113.137H97.75V114.039C98.025 113.654 98.773 112.972 99.994 112.972ZM106.986 115.568C108.647 115.854 109.582 116.074 109.582 117.229C109.582 118.593 108.449 119.165 106.491 119.165C104.709 119.165 103.345 118.549 103.345 117.218H104.742C104.742 117.856 105.369 118.142 106.601 118.142C107.8 118.142 108.229 117.845 108.229 117.405C108.229 116.756 107.25 116.745 105.754 116.47C104.236 116.184 103.565 115.832 103.565 114.787C103.565 113.61 104.665 112.972 106.392 112.972C108.273 112.972 109.285 113.72 109.285 114.809H108.02C108.02 114.435 107.624 113.973 106.37 113.973C105.193 113.973 104.786 114.27 104.786 114.721C104.786 115.315 105.941 115.392 106.986 115.568ZM110.684 119V113.137H112.037V119H110.684ZM111.355 112.323C110.937 112.323 110.64 112.081 110.64 111.663C110.64 111.245 110.937 111.003 111.355 111.003C111.784 111.003 112.081 111.245 112.081 111.663C112.081 112.081 111.784 112.323 111.355 112.323ZM116.489 112.972C118.205 112.972 119.855 113.907 119.855 116.074C119.855 118.241 118.205 119.165 116.489 119.165C114.773 119.165 113.134 118.241 113.134 116.074C113.134 113.907 114.773 112.972 116.489 112.972ZM116.489 118.164C118.062 118.164 118.601 117.097 118.601 116.074C118.601 115.04 118.062 113.973 116.489 113.973C114.916 113.973 114.377 115.04 114.377 116.074C114.377 117.097 114.916 118.164 116.489 118.164ZM124.551 112.972C126.08 112.972 126.916 113.841 126.916 115.205V119H125.563V115.612C125.563 114.622 125.024 114.072 123.957 114.072C122.89 114.072 122.307 114.688 122.307 115.612V119H120.954V113.137H122.307V114.039C122.582 113.654 123.33 112.972 124.551 112.972Z" fill="black"/>
<g clip-path="url(#clip0_9385_4517)">
<rect width="55" height="97" transform="translate(38 8)" fill="white"/>
<path fill-rule="evenodd" clip-rule="evenodd" d="M92.7546 8C93.3799 14.8243 92.1071 21.3569 91.3925 28.1812C90.3429 38.9116 87.8866 49.9787 89.2041 60.1254C91.6381 70.9456 91.5935 83.8086 89.5614 95.1451H88.3555C90.3876 84.0555 90.4769 71.3497 88.0429 60.4173C86.6807 51.393 88.6458 42.2115 89.539 33.2097C90.276 27.171 91.0799 21.1548 91.5711 15.0488" fill="black"/>
<path fill-rule="evenodd" clip-rule="evenodd" d="M54.2344 96.4269L54.4577 94.9902C55.5519 86.1679 56.9364 77.0314 55.2392 68.2091L55.3509 67.9173C55.9092 66.6826 56.2664 65.2459 56.5791 63.9214C59.1471 52.5849 60.0403 40.9566 62.0277 29.4854C62.117 28.9242 62.2287 28.363 62.318 27.8018C62.8316 24.8161 63.3452 21.808 64.0821 18.8673C64.1714 18.5081 65.288 14.1755 65.3996 13.7266C68.3696 24.1876 69.7541 35.0751 71.2502 45.8055C72.1211 51.7319 72.8357 57.6583 74.1755 63.45C74.4658 64.9092 74.8677 66.5479 75.4483 67.9397L75.627 68.2315C73.9299 77.1436 75.1357 86.2801 76.1629 95.1922H74.9571C74.5775 92.2514 74.2425 89.3556 73.9969 86.5046C73.4386 80.0395 73.3046 74.0457 74.3318 68.4111C69.6201 52.8543 69.4638 34.2445 65.3996 18.5305C64.6181 21.5162 63.8588 25.4447 63.2336 29.2834C61.1122 40.6648 60.4423 53.3931 57.5616 64.6847C57.0257 66.8173 56.6907 68.9948 56.9364 71.1723C57.7849 78.6925 56.6907 86.9087 55.6859 94.6534" fill="black"/>
<path fill-rule="evenodd" clip-rule="evenodd" d="M38.0672 8.07031C37.4643 20.7762 40.7915 34.6045 41.6178 46.996C41.9751 51.5755 42.3993 56.2448 41.6178 60.1509C39.0721 71.5547 39.2284 85.2483 41.6178 96.9889L43.0246 98.2909C40.7022 86.8421 40.2109 71.8465 42.7789 60.3978C44.1411 51.2837 42.109 41.9451 41.2158 32.831C40.5012 26.9046 39.7197 21.0007 39.2284 15.0294" fill="black"/>
<path d="M88.7794 98.5114C87.4396 102.26 84.09 104.46 81.1201 104.46C72.2102 104.46 73.751 80.1934 73.751 76.6465C73.751 73.7956 74.1976 70.0018 74.4433 68.3181C73.7064 67.0161 72.6345 61.3142 72.0762 57.7673C71.6296 54.9164 69.1733 38.6412 67.9897 30.8516H91.5931C91.3474 32.2209 90.6999 36.4188 90.0969 42.2554C89.36 49.4614 89.896 55.2082 91.3474 70.7201L91.3921 71.214C92.8659 87.0851 90.4766 93.8196 88.8018 98.4889L88.7794 98.5114Z" fill="#D3D3D5" stroke="black" stroke-width="0.5" stroke-miterlimit="10"/>
<path d="M75.9395 100.305H87.9533" stroke="black" stroke-width="0.5" stroke-miterlimit="10"/>
<path d="M66.5386 24.6356L92.4196 24.3438L91.0798 55.0084H69.9551C69.9551 55.0084 66.5386 36.4659 66.5386 24.6356Z" fill="white" stroke="black" stroke-width="0.5" stroke-miterlimit="10"/>
</g>
<defs>
<clipPath id="clip0_9385_4517">
<rect width="55" height="97" fill="white" transform="translate(38 8)"/>
</clipPath>
</defs>
</svg>
