<svg width="217" height="195" viewBox="0 0 217 195" fill="none" xmlns="http://www.w3.org/2000/svg">
<rect width="217" height="195" rx="10" fill="#D9D9D9"/>
<g clip-path="url(#clip0_3843_2349)">
<path fill-rule="evenodd" clip-rule="evenodd" d="M144.674 26C145.504 35.0053 143.814 43.6255 142.866 52.6309C141.473 66.7906 138.213 81.3946 139.961 94.7841C143.192 109.062 143.133 126.036 140.436 140.996H138.835C141.532 126.362 141.651 109.595 138.42 95.1692C136.612 83.2608 139.22 71.1451 140.406 59.2664C141.384 51.2978 142.451 43.3589 143.103 35.3016" fill="#1D1D1B"/>
<path fill-rule="evenodd" clip-rule="evenodd" d="M93.5473 142.684L93.8437 140.788C95.296 129.146 97.1336 117.09 94.881 105.448L95.0292 105.063C95.7702 103.434 96.2444 101.538 96.6594 99.7902C100.068 84.8307 101.253 69.4861 103.891 54.3489C104.01 53.6083 104.158 52.8678 104.276 52.1272C104.958 48.1874 105.64 44.2179 106.618 40.3373C106.737 39.8634 108.218 34.1462 108.367 33.5537C112.309 47.3579 114.146 61.725 116.132 75.8847C117.288 83.7051 118.236 91.5255 120.015 99.1682C120.4 101.094 120.933 103.256 121.704 105.093L121.941 105.478C119.689 117.238 121.289 129.295 122.652 141.055H121.052C120.548 137.174 120.104 133.353 119.778 129.591C119.037 121.059 118.859 113.15 120.222 105.715C113.968 85.1862 113.761 60.6289 108.367 39.893C107.329 43.8328 106.322 49.0168 105.492 54.0823C102.676 69.101 101.787 85.8972 97.9635 100.797C97.2521 103.612 96.8076 106.485 97.1336 109.358C98.2598 119.282 96.8076 130.124 95.4738 140.344" fill="#1D1D1B"/>
<path fill-rule="evenodd" clip-rule="evenodd" d="M72.0889 26.0889C71.2887 42.8554 75.7048 61.103 76.8015 77.4548C77.2757 83.4978 77.8388 89.6593 76.8015 94.8137C73.4227 109.862 73.6301 127.932 76.8015 143.425L78.6687 145.143C75.5863 130.035 74.9342 110.247 78.3427 95.1395C80.1506 83.1127 77.4535 70.7896 76.268 58.7628C75.3195 50.9424 74.2822 43.1516 73.6301 35.2719" fill="#1D1D1B"/>
<path d="M139.398 145.439C137.62 150.386 133.174 153.289 129.232 153.289C117.406 153.289 119.451 121.267 119.451 116.587C119.451 112.825 120.044 107.818 120.37 105.597C119.392 103.879 117.97 96.3544 117.229 91.674C116.636 87.9119 113.376 66.4354 111.805 56.1562H143.133C142.807 57.9632 141.947 63.5027 141.147 71.2046C140.169 80.7135 140.88 88.297 142.807 108.766L142.866 109.418C144.822 130.361 141.651 139.248 139.428 145.41L139.398 145.439Z" fill="#D3D3D5" stroke="#1D1D1B" stroke-width="0.5" stroke-miterlimit="10"/>
<path d="M122.356 147.809H138.302" stroke="#1D1D1B" stroke-width="0.5" stroke-miterlimit="10"/>
<path d="M109.878 47.9505L144.229 47.5654L142.451 88.0301H114.413C114.413 88.0301 109.878 63.5617 109.878 47.9505Z" fill="white" stroke="#1D1D1B" stroke-width="0.5" stroke-miterlimit="10"/>
</g>
<path d="M31.3853 173.792C31.6733 177.888 29.4173 180.24 25.4653 180.24C21.8813 180.24 18.9213 178.272 18.9213 174.4C18.9213 170.528 21.9933 168.576 25.2253 168.576C28.1533 168.576 30.3613 169.92 31.0973 172.384H28.9853C28.5213 171.296 27.5293 170.224 25.2253 170.224C22.5533 170.224 20.9533 171.952 20.9533 174.4C20.9533 176.864 22.6813 178.592 25.4813 178.592C28.2812 178.592 29.2733 176.912 29.3853 175.456H25.5133V173.792H31.3853ZM37.0065 171.232C39.3585 171.232 41.3585 172.016 41.3585 174.464V180H39.3905V178.896C38.9745 179.376 37.9505 180.24 35.9505 180.24C33.9025 180.24 32.5425 179.392 32.5425 177.76C32.5425 176 33.5025 174.608 39.3905 174.992V174.464C39.3905 173.28 38.7825 172.688 37.0065 172.688C35.4865 172.688 34.8625 173.184 34.7185 173.904H32.8785C33.1345 172.112 34.7985 171.232 37.0065 171.232ZM39.3905 177.6V176.176C35.8385 176 34.5585 176.304 34.5585 177.632C34.5585 178.496 35.2305 178.928 36.3665 178.928C37.8705 178.928 38.8625 178.368 39.3905 177.6ZM43.6044 180V171.472H45.5724V180H43.6044ZM44.5804 170.288C43.9724 170.288 43.5404 169.936 43.5404 169.328C43.5404 168.72 43.9724 168.368 44.5804 168.368C45.2044 168.368 45.6364 168.72 45.6364 169.328C45.6364 169.936 45.2044 170.288 44.5804 170.288ZM53.0395 171.232C55.2635 171.232 56.4795 172.496 56.4795 174.48V180H54.5115V175.072C54.5115 173.632 53.7275 172.832 52.1755 172.832C50.6235 172.832 49.7755 173.728 49.7755 175.072V180H47.8075V171.472H49.7755V172.784C50.1755 172.224 51.2635 171.232 53.0395 171.232ZM62.8738 171.232C65.5778 171.232 67.7538 172.832 67.5298 176.368H59.8498C60.0738 177.824 61.1138 178.784 62.9058 178.784C64.5698 178.784 65.2738 177.984 65.5618 177.376H67.2898C66.8578 179.12 65.1938 180.24 62.9058 180.24C60.4738 180.24 58.0738 178.848 58.0738 175.744C58.0738 172.688 60.4258 171.232 62.8738 171.232ZM59.8978 174.928H65.7698C65.5138 173.584 64.5858 172.688 62.8738 172.688C61.2898 172.688 60.2018 173.584 59.8978 174.928ZM80.7039 168.8H82.6719V180H80.7039V178.88C80.0319 179.696 79.0079 180.24 77.5839 180.24C75.0879 180.24 73.1519 178.624 73.1519 175.744C73.1519 172.848 75.0879 171.232 77.5839 171.232C79.0079 171.232 80.0319 171.776 80.7039 172.592V168.8ZM77.9679 178.784C79.9999 178.784 81.0079 177.504 81.0079 175.744C81.0079 173.968 80.0319 172.688 77.9679 172.688C75.8879 172.688 74.9759 173.936 74.9759 175.744C74.9759 177.536 75.9199 178.784 77.9679 178.784ZM89.0769 171.232C91.7809 171.232 93.9569 172.832 93.7329 176.368H86.0529C86.2769 177.824 87.3169 178.784 89.1089 178.784C90.7729 178.784 91.4769 177.984 91.7649 177.376H93.4929C93.0609 179.12 91.3969 180.24 89.1089 180.24C86.6769 180.24 84.2769 178.848 84.2769 175.744C84.2769 172.688 86.6289 171.232 89.0769 171.232ZM86.1009 174.928H91.9729C91.7169 173.584 90.7889 172.688 89.0769 172.688C87.4929 172.688 86.4049 173.584 86.1009 174.928ZM104.491 175.008C106.907 175.424 108.267 175.744 108.267 177.424C108.267 179.408 106.619 180.24 103.771 180.24C101.179 180.24 99.195 179.344 99.195 177.408H101.227C101.227 178.336 102.139 178.752 103.931 178.752C105.675 178.752 106.299 178.32 106.299 177.68C106.299 176.736 104.875 176.72 102.699 176.32C100.491 175.904 99.515 175.392 99.515 173.872C99.515 172.16 101.115 171.232 103.627 171.232C106.363 171.232 107.835 172.32 107.835 173.904H105.995C105.995 173.36 105.419 172.688 103.595 172.688C101.883 172.688 101.291 173.12 101.291 173.776C101.291 174.64 102.971 174.752 104.491 175.008ZM116.574 171.472H118.542V180H116.574V178.688C116.174 179.248 115.086 180.24 113.31 180.24C111.086 180.24 109.87 178.976 109.87 176.992V171.472H111.838V176.4C111.838 177.84 112.622 178.64 114.174 178.64C115.726 178.64 116.574 177.744 116.574 176.4V171.472ZM125.272 175.008C127.688 175.424 129.048 175.744 129.048 177.424C129.048 179.408 127.4 180.24 124.552 180.24C121.96 180.24 119.976 179.344 119.976 177.408H122.008C122.008 178.336 122.92 178.752 124.712 178.752C126.456 178.752 127.08 178.32 127.08 177.68C127.08 176.736 125.656 176.72 123.48 176.32C121.272 175.904 120.296 175.392 120.296 173.872C120.296 172.16 121.896 171.232 124.408 171.232C127.144 171.232 128.616 172.32 128.616 173.904H126.776C126.776 173.36 126.2 172.688 124.376 172.688C122.664 172.688 122.072 173.12 122.072 173.776C122.072 174.64 123.752 174.752 125.272 175.008ZM135.739 171.232C138.235 171.232 140.171 172.848 140.171 175.744C140.171 178.624 138.235 180.24 135.739 180.24C134.315 180.24 133.291 179.696 132.619 178.88V182.672H130.651V171.472H132.619V172.592C133.291 171.776 134.315 171.232 135.739 171.232ZM135.355 178.784C137.435 178.784 138.347 177.536 138.347 175.744C138.347 173.936 137.403 172.688 135.355 172.688C133.307 172.688 132.315 173.968 132.315 175.744C132.315 177.504 133.291 178.784 135.355 178.784ZM145.936 171.232C148.64 171.232 150.816 172.832 150.592 176.368H142.912C143.136 177.824 144.176 178.784 145.968 178.784C147.632 178.784 148.336 177.984 148.624 177.376H150.352C149.92 179.12 148.256 180.24 145.968 180.24C143.536 180.24 141.136 178.848 141.136 175.744C141.136 172.688 143.488 171.232 145.936 171.232ZM142.96 174.928H148.832C148.576 173.584 147.648 172.688 145.936 172.688C144.352 172.688 143.264 173.584 142.96 174.928ZM157.446 171.232C159.67 171.232 160.886 172.496 160.886 174.48V180H158.918V175.072C158.918 173.632 158.134 172.832 156.582 172.832C155.03 172.832 154.182 173.728 154.182 175.072V180H152.214V171.472H154.182V172.784C154.582 172.224 155.67 171.232 157.446 171.232ZM167.616 175.008C170.032 175.424 171.392 175.744 171.392 177.424C171.392 179.408 169.744 180.24 166.896 180.24C164.304 180.24 162.32 179.344 162.32 177.408H164.352C164.352 178.336 165.264 178.752 167.056 178.752C168.8 178.752 169.424 178.32 169.424 177.68C169.424 176.736 168 176.72 165.824 176.32C163.616 175.904 162.64 175.392 162.64 173.872C162.64 172.16 164.24 171.232 166.752 171.232C169.488 171.232 170.96 172.32 170.96 173.904H169.12C169.12 173.36 168.544 172.688 166.72 172.688C165.008 172.688 164.416 173.12 164.416 173.776C164.416 174.64 166.096 174.752 167.616 175.008ZM172.995 180V171.472H174.963V180H172.995ZM173.971 170.288C173.363 170.288 172.931 169.936 172.931 169.328C172.931 168.72 173.363 168.368 173.971 168.368C174.595 168.368 175.027 168.72 175.027 169.328C175.027 169.936 174.595 170.288 173.971 170.288ZM181.438 171.232C183.934 171.232 186.334 172.592 186.334 175.744C186.334 178.896 183.934 180.24 181.438 180.24C178.942 180.24 176.558 178.896 176.558 175.744C176.558 172.592 178.942 171.232 181.438 171.232ZM181.438 178.784C183.726 178.784 184.51 177.232 184.51 175.744C184.51 174.24 183.726 172.688 181.438 172.688C179.15 172.688 178.366 174.24 178.366 175.744C178.366 177.232 179.15 178.784 181.438 178.784ZM193.165 171.232C195.389 171.232 196.605 172.496 196.605 174.48V180H194.637V175.072C194.637 173.632 193.853 172.832 192.301 172.832C190.749 172.832 189.901 173.728 189.901 175.072V180H187.933V171.472H189.901V172.784C190.301 172.224 191.389 171.232 193.165 171.232Z" fill="black"/>
<defs>
<clipPath id="clip0_3843_2349">
<rect width="73" height="128" fill="white" transform="translate(72 26)"/>
</clipPath>
</defs>
</svg>
