<svg width="132" height="187" viewBox="0 0 132 187" fill="none" xmlns="http://www.w3.org/2000/svg">
<rect width="132" height="187" rx="10" fill="white"/>
<path d="M27.457 168.6C30.169 168.6 32.413 169.536 32.413 172.8C32.413 176.064 30.169 177 27.457 177H24.001V168.6H27.457ZM27.277 175.752C29.569 175.752 30.901 174.972 30.901 172.8C30.901 170.64 29.569 169.848 27.277 169.848H25.477V175.752H27.277ZM33.7365 177V170.604H35.2125V177H33.7365ZM34.4685 169.716C34.0125 169.716 33.6885 169.452 33.6885 168.996C33.6885 168.54 34.0125 168.276 34.4685 168.276C34.9365 168.276 35.2605 168.54 35.2605 168.996C35.2605 169.452 34.9365 169.716 34.4685 169.716ZM40.2608 173.256C42.0728 173.568 43.0928 173.808 43.0928 175.068C43.0928 176.556 41.8568 177.18 39.7208 177.18C37.7768 177.18 36.2888 176.508 36.2888 175.056H37.8128C37.8128 175.752 38.4968 176.064 39.8408 176.064C41.1488 176.064 41.6168 175.74 41.6168 175.26C41.6168 174.552 40.5488 174.54 38.9168 174.24C37.2608 173.928 36.5288 173.544 36.5288 172.404C36.5288 171.12 37.7288 170.424 39.6128 170.424C41.6648 170.424 42.7688 171.24 42.7688 172.428H41.3888C41.3888 172.02 40.9568 171.516 39.5888 171.516C38.3048 171.516 37.8608 171.84 37.8608 172.332C37.8608 172.98 39.1208 173.064 40.2608 173.256ZM48.2367 171.732H46.3047V174.612C46.3047 175.692 46.7367 175.992 48.2367 175.836V176.988C48.0207 177.048 47.6967 177.096 47.3967 177.096C45.4527 177.096 44.8287 176.304 44.8287 174.612V171.732H43.5807V170.604H44.8287V168.948H46.3047V170.604H48.2367V171.732ZM52.542 170.424C54.306 170.424 55.806 171.012 55.806 172.848V177H54.33V176.172C54.018 176.532 53.25 177.18 51.75 177.18C50.214 177.18 49.194 176.544 49.194 175.32C49.194 174 49.914 172.956 54.33 173.244V172.848C54.33 171.96 53.874 171.516 52.542 171.516C51.402 171.516 50.934 171.888 50.826 172.428H49.446C49.638 171.084 50.886 170.424 52.542 170.424ZM54.33 175.2V174.132C51.666 174 50.706 174.228 50.706 175.224C50.706 175.872 51.21 176.196 52.062 176.196C53.19 176.196 53.934 175.776 54.33 175.2ZM57.4904 168.144H58.9664V177H57.4904V168.144ZM64.1232 168.144H65.5992V177H64.1232V168.144ZM70.4555 170.424C72.3275 170.424 74.1275 171.444 74.1275 173.808C74.1275 176.172 72.3275 177.18 70.4555 177.18C68.5835 177.18 66.7955 176.172 66.7955 173.808C66.7955 171.444 68.5835 170.424 70.4555 170.424ZM70.4555 176.088C72.1715 176.088 72.7595 174.924 72.7595 173.808C72.7595 172.68 72.1715 171.516 70.4555 171.516C68.7395 171.516 68.1515 172.68 68.1515 173.808C68.1515 174.924 68.7395 176.088 70.4555 176.088ZM78.5303 176.088C79.8263 176.088 80.4743 175.332 80.6543 174.612H82.0343C81.7223 176.316 80.2583 177.18 78.5303 177.18C76.6583 177.18 74.8463 176.172 74.8463 173.808C74.8463 171.444 76.6583 170.424 78.5303 170.424C80.2583 170.424 81.7223 171.288 82.0343 172.992H80.6543C80.4743 172.272 79.8263 171.516 78.5303 171.516C76.8143 171.516 76.2023 172.68 76.2023 173.808C76.2023 174.924 76.8143 176.088 78.5303 176.088ZM88.2765 177L86.1045 174.096L84.7245 175.392V177H83.2365V168.6H84.7245V173.712L88.0245 170.604H89.8725L87.1485 173.136L90.0285 177H88.2765ZM91.1115 177V170.604H92.5875V177H91.1115ZM91.8435 169.716C91.3875 169.716 91.0635 169.452 91.0635 168.996C91.0635 168.54 91.3875 168.276 91.8435 168.276C92.3115 168.276 92.6355 168.54 92.6355 168.996C92.6355 169.452 92.3115 169.716 91.8435 169.716ZM98.1878 170.424C99.8558 170.424 100.768 171.372 100.768 172.86V177H99.2918V173.304C99.2918 172.224 98.7038 171.624 97.5398 171.624C96.3758 171.624 95.7398 172.296 95.7398 173.304V177H94.2638V170.604H95.7398V171.588C96.0398 171.168 96.8558 170.424 98.1878 170.424ZM107.64 170.604H109.116V176.388C109.116 178.86 107.232 179.232 105.396 179.232C103.392 179.232 102.192 178.524 102.06 177.312H103.428C103.524 177.696 104.004 178.116 105.396 178.116C107.184 178.116 107.64 177.54 107.64 176.388V175.68C107.172 176.244 106.416 176.604 105.288 176.604C103.428 176.604 101.964 175.68 101.964 173.58C101.964 171.468 103.428 170.424 105.288 170.424C106.416 170.424 107.172 170.844 107.64 171.468V170.604ZM105.576 175.644C106.956 175.644 107.868 174.9 107.868 173.58C107.868 172.248 106.98 171.516 105.576 171.516C104.184 171.516 103.332 172.224 103.332 173.58C103.332 174.924 104.196 175.644 105.576 175.644Z" fill="black"/>
<g clip-path="url(#clip0_9371_4496)">
<path fill-rule="evenodd" clip-rule="evenodd" d="M58.3042 141.772C58.7812 138.791 59.2582 135.545 59.7351 132.155C59.9632 130.502 60.2121 128.827 60.4402 127.112L60.5231 126.479C60.6476 125.642 60.7512 124.785 60.8757 123.927V123.764C60.9586 123.376 61.0001 122.967 61.0623 122.579C61.6637 118.169 62.3065 113.8 62.9701 109.716C63.0116 109.43 63.0738 109.144 63.1153 108.859C63.8411 104.55 64.6084 100.589 65.4379 97.3019C66.2881 100.589 67.0554 104.55 67.7812 108.879C67.8227 109.144 67.8642 109.43 67.9264 109.716C68.6107 113.82 69.2328 118.21 69.8549 122.579C69.9171 122.988 69.9586 123.376 70.0208 123.784V123.927C70.166 124.764 70.2697 125.581 70.3941 126.398L70.5185 127.276C70.6222 128.011 70.7259 128.746 70.8296 129.481H72.2397C72.1983 129.236 72.1775 129.011 72.136 128.766C72.0531 128.215 71.9909 127.664 71.9079 127.092C71.6798 125.52 71.4724 123.947 71.2443 122.375V122.253C70.6844 118.169 70.1038 114.086 69.4194 109.961C69.3365 109.512 69.2743 109.063 69.1913 108.634C68.5692 105 67.8849 101.304 66.9932 97.7103V97.6899C66.931 97.4448 66.8688 97.1998 66.8065 96.9548L65.4794 91.7891L64.1522 96.9548C64.09 97.1998 64.0277 97.4448 63.9655 97.6899V97.7103C63.1153 101.1 62.5347 104.571 61.9333 108.001C61.8918 108.205 61.8711 108.409 61.8296 108.634C61.7466 109.083 61.6844 109.512 61.6015 109.961C60.9171 114.106 60.3158 118.19 59.7766 122.273V122.396C59.5277 124.029 59.2996 125.663 59.0715 127.276C59.0093 127.766 58.9264 128.256 58.8641 128.766C58.2628 133.054 57.6821 137.321 56.9771 141.527" fill="black"/>
<path fill-rule="evenodd" clip-rule="evenodd" d="M87.5023 25.613C87.5023 25.8172 87.4608 26.0214 87.4401 26.246C87.4194 26.5523 87.3779 26.8585 87.3571 27.1648C87.3571 27.3486 87.3157 27.5323 87.2949 27.7161C87.1498 29.1862 87.0046 30.6359 86.8802 32.1059C86.6313 34.842 86.3825 37.578 86.1336 40.3344C86.1336 40.4773 86.1129 40.6407 86.0922 40.8244C85.9263 43.0704 85.5323 48.3791 86.1959 49.8084C87.7304 52.9527 88.9124 56.5667 89.9701 59.854C91.5046 64.7543 92.8318 69.7976 93.8272 74.8204C94.1383 76.4743 94.4493 78.2098 94.7189 79.9658C95.2166 83.1918 95.5484 86.5199 95.5691 89.7256C95.5691 90.9506 95.5277 92.1757 95.424 93.36C95.3825 94.0133 95.3203 94.6667 95.2581 95.3201C94.8641 99.6895 94.3456 104.018 93.8272 108.326C93.5991 110.307 93.3502 112.308 93.1014 114.288C92.4793 119.352 91.8364 124.436 91.3595 129.5H92.7903C93.2465 124.416 93.9516 118.699 94.6774 112.839C94.8641 111.389 95.03 109.939 95.2166 108.49C95.6728 104.753 96.1083 100.996 96.4816 97.3823C96.606 96.0551 96.7304 94.7688 96.8548 93.4825C96.9171 92.6453 96.9793 91.7878 96.9793 90.9098C96.9793 90.5219 96.9793 90.1135 96.9793 89.7256C96.9793 88.3167 96.8963 86.8262 96.7719 85.3153V85.2132C96.7304 84.8252 96.7097 84.4577 96.6682 84.0698C96.6682 83.9268 96.6475 83.7839 96.6267 83.6206C96.6267 83.5593 96.6267 83.4981 96.606 83.4164C96.4816 82.273 96.3364 81.0887 96.1498 79.9249C95.9839 78.8836 95.818 77.8219 95.6313 76.7601C95.5069 76.0251 95.3618 75.29 95.2166 74.555C94.1383 69.2055 92.7074 63.9172 91.2972 59.4457C89.8871 54.9537 88.4977 51.2989 87.4816 49.1754C87.0876 48.3383 87.212 45.0101 87.5438 40.4569C87.5645 40.1302 87.5853 39.824 87.606 39.5177C87.7304 37.8638 87.8963 36.0466 88.083 34.1477V34.1069C88.1452 33.4127 88.2074 32.7185 88.2903 32.0039C88.3318 31.5138 88.3733 31.0238 88.4355 30.5338V30.4113C88.5392 29.5129 88.6221 28.5941 88.7051 27.6752V27.5323L88.7673 27.0831V27.0423V26.981L88.8502 26.1643V26.1031C88.9332 25.4088 89.0576 24.0204 89.0576 24.0204L87.523 25.6334L87.5023 25.613ZM40.1175 138.994C40.1175 136.054 39.8479 133.032 39.5783 130.072C39.1221 124.681 38.4585 119.27 37.7949 113.88C37.5668 112.022 37.3387 110.184 37.1106 108.326C36.5922 104.018 36.0737 99.6895 35.6797 95.3201C35.6175 94.6667 35.576 94.0133 35.5138 93.36C35.4101 92.1757 35.3687 90.9711 35.3687 89.7256C35.3687 86.4995 35.7005 83.1305 36.1982 79.8841C36.4677 78.1486 36.7788 76.4539 37.1106 74.8204C38.106 69.7976 39.4332 64.7543 40.9677 59.854C42.0253 56.5667 43.2281 52.9323 44.6797 49.7879C45.4677 48.2158 44.9493 42.1312 44.7419 40.3344C44.5346 37.5984 44.3065 34.8624 44.0576 32.1264C43.9332 30.6563 43.788 29.1658 43.6429 27.6957C43.6429 27.5119 43.6014 27.3281 43.5806 27.1444C43.5599 26.8177 43.5184 26.5114 43.4977 26.1847C43.4977 26.001 43.4562 25.7968 43.4355 25.613L41.9424 24C41.9424 24 42.1083 25.6334 42.1705 26.4297V26.491L42.212 26.9402V27.0014L42.2535 27.4711C42.3571 28.4715 42.4401 29.4516 42.5438 30.4317V30.4929C42.606 30.983 42.6475 31.473 42.6889 31.9426C42.7512 32.6572 42.8134 33.3719 42.8963 34.0661V34.1273C43.0829 36.0058 43.2281 37.8026 43.3733 39.4564C43.394 39.7627 43.4147 40.0894 43.4355 40.3752V40.4161C43.788 44.9693 43.8917 48.277 43.4977 49.1141V49.155C42.4608 51.2785 41.0714 54.9129 39.6613 59.364C38.2512 63.8559 36.8203 69.1238 35.7627 74.4733C35.6175 75.2084 35.4724 75.9434 35.3479 76.658C35.1613 77.7198 34.9747 78.8019 34.8295 79.8637C34.6636 81.0479 34.4977 82.2117 34.3733 83.3756C34.3733 83.4368 34.3733 83.5185 34.3525 83.5797C34.3525 83.7022 34.3318 83.8248 34.3111 83.9677C34.2696 84.3352 34.2488 84.7027 34.2074 85.0703V85.1519V85.2132C34.0829 86.7241 34.0207 88.2146 34 89.6235C34 90.0318 34 90.4198 34 90.8281C34 91.7061 34.0622 92.5432 34.1244 93.3804C34.2281 94.6667 34.3525 95.9735 34.4977 97.3006C34.871 100.915 35.3065 104.672 35.7627 108.408C35.9286 109.858 36.1152 111.307 36.2811 112.737C37.0277 118.862 37.7742 124.824 38.2304 130.092C38.5207 133.359 38.7074 136.34 38.7281 138.892" fill="black"/>
<path d="M65.7695 101.076C68.5483 112.306 69.4193 124.904 71.099 133.03C72.447 139.585 75.682 142.525 80.4723 142.525C88.394 142.525 91.4009 139.278 92.8732 131.764C93.288 129.702 95.0092 115.614 95.0092 115.614C96.046 107.896 96.4608 102.955 96.4608 100.852L65.7695 101.076Z" fill="#D3D3D5" stroke="black" stroke-width="0.44" stroke-miterlimit="10"/>
<path d="M82.3803 142.508H80.8457V149.001H82.3803V142.508Z" fill="#D3D3D5" stroke="black" stroke-width="0.29" stroke-miterlimit="10"/>
<path d="M81.6128 150.693C81.2395 150.693 80.9907 150.529 80.9284 150.162L80.5552 148.773H82.6289L82.2556 150.162C82.1934 150.529 81.9446 150.693 81.5713 150.693H81.6128Z" fill="#D3D3D5" stroke="black" stroke-width="0.29" stroke-miterlimit="10"/>
<path d="M80.7627 142.852L82.4632 143.444" stroke="black" stroke-width="0.29" stroke-miterlimit="10"/>
<path d="M80.7627 144.625L82.4632 145.217" stroke="black" stroke-width="0.29" stroke-miterlimit="10"/>
<path d="M80.7627 146.422L82.4632 146.994" stroke="black" stroke-width="0.29" stroke-miterlimit="10"/>
<path d="M80.7627 148.203L82.4632 148.775" stroke="black" stroke-width="0.29" stroke-miterlimit="10"/>
<path d="M72.0942 136.133H91.6288" stroke="black" stroke-width="0.29" stroke-miterlimit="10"/>
</g>
<defs>
<clipPath id="clip0_9371_4496">
<rect width="63" height="127" fill="white" transform="translate(34 24)"/>
</clipPath>
</defs>
</svg>
