<svg width="217" height="195" viewBox="0 0 217 195" fill="none" xmlns="http://www.w3.org/2000/svg">
<rect width="217" height="195" rx="10" fill="#D9D9D9"/>
<g clip-path="url(#clip0_2719_256)">
<path fill-rule="evenodd" clip-rule="evenodd" d="M51.3306 152.741C51.8888 150.308 52.404 147.443 52.9407 144.299C53.4773 141.025 54.014 137.449 54.5292 133.745C54.7868 131.936 55.0444 130.084 55.302 128.21L55.4093 127.52C55.5381 126.594 55.6669 125.668 55.7957 124.721V124.548C55.8816 124.118 55.946 123.687 56.0104 123.234C56.6974 118.41 57.3843 113.585 58.1356 109.106C58.1786 108.783 58.243 108.481 58.2859 108.158C59.0802 103.42 59.9389 99.0689 60.8619 95.4721C61.8065 99.0689 62.6437 103.441 63.4594 108.179C63.5024 108.481 63.5668 108.783 63.6097 109.084C64.361 113.585 65.0695 118.388 65.7564 123.213C65.8208 123.665 65.8852 124.096 65.9496 124.527V124.699C66.0999 125.604 66.2287 126.508 66.3575 127.413L66.4863 128.382C66.5936 129.2 66.7224 129.997 66.8297 130.794H68.3968C68.3539 130.536 68.3324 130.277 68.2895 130.019C68.2036 129.416 68.1178 128.791 68.0319 128.188C67.7957 126.465 67.5381 124.742 67.302 123.019V122.89C66.6795 118.41 66.0355 113.93 65.2627 109.386C65.1768 108.89 65.0909 108.416 65.0051 107.921C64.3181 103.936 63.5668 99.8658 62.5578 95.9244V95.9028C62.4934 95.6444 62.429 95.3644 62.3432 95.1059L60.8619 89.4199L59.3807 95.1059C59.3163 95.3644 59.2519 95.6444 59.1661 95.9028V95.9244C58.243 99.6289 57.5775 103.463 56.912 107.232C56.8691 107.469 56.8262 107.684 56.7832 107.921C56.6974 108.416 56.6115 108.89 56.5256 109.386C55.7528 113.93 55.1088 118.41 54.5077 122.89V123.041C54.2287 124.828 53.9711 126.616 53.7135 128.404C53.6276 128.942 53.5632 129.48 53.4773 130.04C52.8119 134.736 52.1678 139.431 51.3736 144.062C50.9228 146.862 50.4076 149.661 49.7635 152.397C49.7206 152.612 49.6562 152.806 49.6133 153.021" fill="black"/>
<path fill-rule="evenodd" clip-rule="evenodd" d="M83.8104 32.9047C83.8104 33.0555 83.7889 33.2278 83.7674 33.4431C83.5742 35.8985 83.1449 41.7352 83.8748 43.3075C85.5707 46.7751 86.9016 50.7381 88.0608 54.3349C89.7567 59.7194 91.2379 65.2546 92.3327 70.7684C92.6977 72.5775 93.0197 74.4729 93.3202 76.4113C93.8569 79.9435 94.2433 83.605 94.2648 87.1156C94.2648 88.4725 94.2218 89.8079 94.093 91.1001C94.0286 91.8324 93.9857 92.5432 93.9213 93.2539C93.4919 98.0569 92.9123 102.795 92.3327 107.534C92.0751 109.709 91.7961 111.906 91.517 114.081C90.8086 119.638 90.1216 125.216 89.585 130.773H91.1735C91.6887 125.195 92.4615 118.906 93.2558 112.487C93.449 110.893 93.6422 109.3 93.8354 107.706C94.3292 103.592 94.8229 99.4784 95.2308 95.5154C95.381 94.0724 95.5098 92.6293 95.6386 91.2294C95.7245 90.3032 95.7674 89.3771 95.7889 88.4079C95.7889 87.9771 95.7889 87.5464 95.7889 87.0941C95.7889 85.5434 95.703 83.9065 95.5528 82.2481V82.1404C95.5098 81.7312 95.4884 81.3004 95.4454 80.8696C95.4454 80.7189 95.4025 80.5466 95.4025 80.3958C95.4025 80.3312 95.4025 80.245 95.381 80.1804C95.2522 78.9097 95.0805 77.6389 94.8873 76.3467C94.7156 75.1836 94.5224 74.0206 94.3077 72.8575C94.1574 72.0606 94.0072 71.2422 93.8354 70.4453C92.6547 64.5654 91.0662 58.7717 89.4991 53.8396C87.932 48.9074 86.3864 44.8798 85.2701 42.5752C84.8408 41.6491 84.9696 38.0092 85.356 32.9909C85.3775 32.6462 85.3989 32.3016 85.4419 31.957M32.2039 148.585V148.563C32.7191 146.28 32.7835 143.631 32.7835 141.262C32.7835 138.031 32.483 134.714 32.2039 131.462C31.7102 125.539 30.9589 119.616 30.229 113.693C29.9714 111.669 29.7138 109.623 29.4776 107.598C28.898 102.86 28.3184 98.1215 27.8891 93.3185C27.8247 92.6078 27.7603 91.8755 27.6959 91.1648C27.5886 89.8725 27.5242 88.5371 27.5242 87.1802C27.5242 83.648 27.9106 79.9435 28.4472 76.3682C28.7478 74.4729 29.0912 72.5991 29.4562 70.8114C30.5725 65.2762 32.0322 59.7625 33.7281 54.378C34.9088 50.7596 36.2397 46.7751 37.8497 43.3291C38.7299 41.606 38.1288 34.9293 37.9141 32.9478L36.3685 32.0432C36.39 32.3878 36.4329 32.7324 36.4544 33.0555V33.1201C36.8408 38.1169 36.9481 41.7352 36.5402 42.6614V42.7044C35.381 45.0305 33.8354 49.0366 32.2898 53.9042C30.7227 58.8363 29.1556 64.63 27.975 70.5099C27.8247 71.3283 27.653 72.1252 27.5242 72.9221C27.3095 74.0852 27.1163 75.2698 26.9445 76.4328C26.7513 77.7251 26.5796 79.0174 26.4508 80.2881C26.4508 80.3743 26.4508 80.4389 26.4293 80.525C26.4293 80.6543 26.4079 80.805 26.3864 80.9342C26.3435 81.3435 26.3005 81.7527 26.2791 82.1619V82.2481V82.3127C26.0859 83.9711 26 85.5864 26 87.1587C26 87.611 26 88.0418 26 88.4725C26 89.4417 26.0644 90.3679 26.1503 91.2724C26.2791 92.694 26.4079 94.1155 26.5581 95.58C26.966 99.5645 27.4383 103.678 27.9535 107.77C28.1467 109.364 28.3399 110.937 28.5331 112.53C29.3703 119.25 30.186 125.819 30.7013 131.591C31.0233 135.167 31.2165 138.44 31.2594 141.262C31.2809 144.083 31.1306 146.453 30.7442 148.219V148.262" fill="black"/>
<path d="M62 105.036C64.898 116.946 65.7996 130.3 67.5385 138.915C68.9338 145.85 72.3041 148.995 77.2844 148.995C85.5277 148.995 88.6404 145.549 90.186 137.58C90.6154 135.383 92.3971 120.457 92.3971 120.457C93.4705 112.294 93.9213 107.039 93.9213 104.799L62 105.036Z" fill="#D3D3D5" stroke="#1D1D1B" stroke-width="0.44" stroke-miterlimit="10"/>
<path d="M92.2893 131.484H65.9065C65.7777 131.484 65.6489 131.592 65.5845 131.786L64.5112 134.478C64.4038 134.737 64.4038 135.103 64.5112 135.361L65.606 138.053C65.6918 138.247 65.7992 138.355 65.928 138.355H92.3108C92.4396 138.355 92.5684 138.247 92.6328 138.053L93.7062 135.361C93.8135 135.103 93.8135 134.737 93.7062 134.478L92.6113 131.786C92.5255 131.592 92.4181 131.484 92.2893 131.484Z" fill="white" stroke="#1D1D1B" stroke-width="0.44" stroke-miterlimit="10"/>
<path d="M64.5117 135.361H93.9428" stroke="#1D1D1B" stroke-width="0.25" stroke-miterlimit="10"/>
<path fill-rule="evenodd" clip-rule="evenodd" d="M139.324 152.741C139.882 150.308 140.397 147.443 140.934 144.299C141.47 141.025 142.007 137.449 142.522 133.745C142.78 131.936 143.038 130.084 143.295 128.21L143.403 127.52C143.531 126.594 143.66 125.668 143.789 124.721V124.548C143.875 124.118 143.939 123.687 144.004 123.234C144.691 118.41 145.377 113.585 146.129 109.106C146.172 108.783 146.236 108.481 146.279 108.158C147.073 103.42 147.932 99.0689 148.855 95.4721C149.8 99.0689 150.637 103.441 151.453 108.179C151.496 108.481 151.56 108.783 151.603 109.084C152.354 113.585 153.063 118.388 153.75 123.213C153.814 123.665 153.878 124.096 153.943 124.527V124.699C154.093 125.604 154.222 126.508 154.351 127.413L154.479 128.382C154.587 129.2 154.716 129.997 154.823 130.794H156.39C156.347 130.536 156.326 130.277 156.283 130.019C156.197 129.416 156.111 128.791 156.025 128.188C155.789 126.465 155.531 124.742 155.295 123.019V122.89C154.673 118.41 154.029 113.93 153.256 109.386C153.17 108.89 153.084 108.416 152.998 107.921C152.311 103.936 151.56 99.8658 150.551 95.9244V95.9028C150.487 95.6444 150.422 95.3644 150.336 95.1059L148.855 89.4199L147.374 95.1059C147.309 95.3644 147.245 95.6444 147.159 95.9028V95.9244C146.236 99.6289 145.571 103.463 144.905 107.232C144.862 107.469 144.819 107.684 144.776 107.921C144.691 108.416 144.605 108.89 144.519 109.386C143.746 113.93 143.102 118.41 142.501 122.89V123.041C142.222 124.828 141.964 126.616 141.707 128.404C141.621 128.942 141.556 129.48 141.47 130.04C140.805 134.736 140.161 139.431 139.367 144.062C138.916 146.862 138.401 149.661 137.757 152.397C137.714 152.612 137.649 152.806 137.606 153.021" fill="black"/>
<path fill-rule="evenodd" clip-rule="evenodd" d="M171.782 32.9047C171.782 33.0555 171.761 33.2278 171.739 33.4431C171.546 35.8985 171.117 41.7352 171.846 43.3075C173.542 46.7751 174.873 50.7381 176.033 54.3349C177.728 59.7194 179.21 65.2546 180.304 70.7684C180.669 72.5775 180.991 74.4729 181.292 76.4113C181.829 79.9435 182.215 83.605 182.236 87.1156C182.236 88.4725 182.194 89.8079 182.065 91.1001C182 91.8324 181.957 92.5432 181.893 93.2539C181.464 98.0569 180.884 102.795 180.304 107.534C180.047 109.709 179.768 111.906 179.489 114.081C178.78 119.638 178.093 125.216 177.557 130.773H179.145C179.66 125.195 180.433 118.906 181.228 112.487C181.421 110.893 181.614 109.3 181.807 107.706C182.301 103.592 182.795 99.4784 183.202 95.5154C183.353 94.0724 183.482 92.6293 183.61 91.2294C183.696 90.3032 183.739 89.3771 183.761 88.4079C183.761 87.9771 183.761 87.5464 183.761 87.0941C183.761 85.5434 183.675 83.9065 183.524 82.2481V82.1404C183.482 81.7312 183.46 81.3004 183.417 80.8696C183.417 80.7189 183.374 80.5466 183.374 80.3958C183.374 80.3312 183.374 80.245 183.353 80.1804C183.224 78.9097 183.052 77.6389 182.859 76.3467C182.687 75.1836 182.494 74.0206 182.279 72.8575C182.129 72.0606 181.979 71.2422 181.807 70.4453C180.626 64.5654 179.038 58.7717 177.471 53.8396C175.904 48.9074 174.358 44.8798 173.242 42.5752C172.813 41.6491 172.941 38.0092 173.328 32.9909C173.349 32.6462 173.371 32.3016 173.414 31.957M120.176 148.585V148.563C120.691 146.28 120.755 143.631 120.755 141.262C120.755 138.031 120.455 134.714 120.176 131.462C119.682 125.539 118.931 119.616 118.201 113.693C117.943 111.669 117.685 109.623 117.449 107.598C116.87 102.86 116.29 98.1215 115.861 93.3185C115.796 92.6078 115.732 91.8755 115.668 91.1648C115.56 89.8725 115.496 88.5371 115.496 87.1802C115.496 83.648 115.882 79.9435 116.419 76.3682C116.719 74.4729 117.063 72.5991 117.428 70.8114C118.544 65.2762 120.004 59.7625 121.7 54.378C122.88 50.7596 124.211 46.7751 125.821 43.3291C126.702 41.606 126.101 34.9293 125.886 32.9478L124.34 32.0432C124.362 32.3878 124.405 32.7324 124.426 33.0555V33.1201C124.812 38.1169 124.92 41.7352 124.512 42.6614V42.7044C123.353 45.0305 121.807 49.0366 120.262 53.9042C118.694 58.8363 117.127 64.63 115.947 70.5099C115.796 71.3283 115.625 72.1252 115.496 72.9221C115.281 74.0852 115.088 75.2698 114.916 76.4328C114.723 77.7251 114.551 79.0174 114.423 80.2881C114.423 80.3743 114.423 80.4389 114.401 80.525C114.401 80.6543 114.38 80.805 114.358 80.9342C114.315 81.3435 114.272 81.7527 114.251 82.1619V82.2481V82.3127C114.122 83.9711 114.036 85.608 114.015 87.1587C114.015 87.611 114.015 88.0418 114.015 88.4725C114.015 89.4417 114.079 90.3679 114.165 91.2724C114.294 92.694 114.423 94.1155 114.573 95.58C114.981 99.5645 115.453 103.678 115.968 107.77C116.161 109.364 116.355 110.937 116.548 112.53C117.385 119.25 118.201 125.819 118.716 131.591C119.038 135.167 119.231 138.44 119.274 141.262C119.296 144.083 119.145 146.453 118.759 148.219V148.262" fill="black"/>
<path d="M149.994 105.036C152.892 116.946 153.794 130.3 155.533 138.915C156.928 145.85 160.298 148.995 165.279 148.995C173.522 148.995 176.635 145.549 178.18 137.58C178.61 135.383 180.391 120.457 180.391 120.457C181.465 112.294 181.915 107.039 181.915 104.799L149.994 105.036Z" fill="#D3D3D5" stroke="#1D1D1B" stroke-width="0.44" stroke-miterlimit="10"/>
<path d="M179.489 135.533H154.201C154.073 135.533 153.965 135.576 153.879 135.662L152.849 136.825C152.742 136.933 152.742 137.105 152.849 137.213L153.901 138.376C153.901 138.376 154.094 138.505 154.223 138.505H179.511C179.64 138.505 179.747 138.462 179.833 138.376L180.863 137.213C180.971 137.105 180.971 136.933 180.863 136.825L179.811 135.662C179.811 135.662 179.618 135.533 179.489 135.533Z" fill="white" stroke="#1D1D1B" stroke-width="0.44" stroke-miterlimit="10"/>
<path d="M180.262 131.248H153.879C153.75 131.248 153.622 131.291 153.557 131.377L152.484 132.54C152.376 132.648 152.376 132.82 152.484 132.928L153.579 134.091C153.579 134.091 153.772 134.22 153.901 134.22H180.283C180.412 134.22 180.541 134.177 180.605 134.091L181.679 132.928C181.786 132.82 181.786 132.648 181.679 132.54L180.584 131.377C180.584 131.377 180.391 131.248 180.262 131.248Z" fill="white" stroke="#1D1D1B" stroke-width="0.44" stroke-miterlimit="10"/>
<path d="M178.416 139.797H154.889C154.781 139.797 154.652 139.84 154.588 139.926L153.622 141.089C153.536 141.197 153.536 141.369 153.622 141.477L154.609 142.64C154.609 142.64 154.781 142.769 154.91 142.769H178.438C178.545 142.769 178.674 142.726 178.738 142.64L179.704 141.477C179.79 141.369 179.79 141.197 179.704 141.089L178.717 139.926C178.717 139.926 178.545 139.797 178.416 139.797Z" fill="white" stroke="#1D1D1B" stroke-width="0.44" stroke-miterlimit="10"/>
</g>
<path d="M70.0911 170.8C73.7071 170.8 76.6991 172.048 76.6991 176.4C76.6991 180.752 73.7071 182 70.0911 182H65.4831V170.8H70.0911ZM69.8511 180.336C72.9071 180.336 74.6831 179.296 74.6831 176.4C74.6831 173.52 72.9071 172.464 69.8511 172.464H67.4511V180.336H69.8511ZM78.4638 182V173.472H80.4318V182H78.4638ZM79.4398 172.288C78.8318 172.288 78.3997 171.936 78.3997 171.328C78.3997 170.72 78.8318 170.368 79.4398 170.368C80.0638 170.368 80.4958 170.72 80.4958 171.328C80.4958 171.936 80.0638 172.288 79.4398 172.288ZM87.1629 177.008C89.5789 177.424 90.9389 177.744 90.9389 179.424C90.9389 181.408 89.2909 182.24 86.4429 182.24C83.8509 182.24 81.8669 181.344 81.8669 179.408H83.8989C83.8989 180.336 84.8109 180.752 86.6029 180.752C88.3469 180.752 88.9709 180.32 88.9709 179.68C88.9709 178.736 87.5469 178.72 85.3709 178.32C83.1629 177.904 82.1869 177.392 82.1869 175.872C82.1869 174.16 83.7869 173.232 86.2989 173.232C89.0349 173.232 90.5069 174.32 90.5069 175.904H88.6669C88.6669 175.36 88.0909 174.688 86.2669 174.688C84.5549 174.688 83.9629 175.12 83.9629 175.776C83.9629 176.64 85.6429 176.752 87.1629 177.008ZM97.7974 174.976H95.2214V178.816C95.2214 180.256 95.7974 180.656 97.7974 180.448V181.984C97.5094 182.064 97.0774 182.128 96.6774 182.128C94.0854 182.128 93.2534 181.072 93.2534 178.816V174.976H91.5894V173.472H93.2534V171.264H95.2214V173.472H97.7974V174.976ZM103.538 173.232C105.89 173.232 107.89 174.016 107.89 176.464V182H105.922V180.896C105.506 181.376 104.482 182.24 102.482 182.24C100.434 182.24 99.0738 181.392 99.0738 179.76C99.0738 178 100.034 176.608 105.922 176.992V176.464C105.922 175.28 105.314 174.688 103.538 174.688C102.018 174.688 101.394 175.184 101.25 175.904H99.4098C99.6658 174.112 101.33 173.232 103.538 173.232ZM105.922 179.6V178.176C102.37 178 101.09 178.304 101.09 179.632C101.09 180.496 101.762 180.928 102.898 180.928C104.402 180.928 105.394 180.368 105.922 179.6ZM110.136 170.192H112.104V182H110.136V170.192ZM123.475 177.008C125.891 177.424 127.251 177.744 127.251 179.424C127.251 181.408 125.603 182.24 122.755 182.24C120.163 182.24 118.179 181.344 118.179 179.408H120.211C120.211 180.336 121.123 180.752 122.915 180.752C124.659 180.752 125.283 180.32 125.283 179.68C125.283 178.736 123.859 178.72 121.683 178.32C119.475 177.904 118.499 177.392 118.499 175.872C118.499 174.16 120.099 173.232 122.611 173.232C125.347 173.232 126.819 174.32 126.819 175.904H124.979C124.979 175.36 124.403 174.688 122.579 174.688C120.867 174.688 120.275 175.12 120.275 175.776C120.275 176.64 121.955 176.752 123.475 177.008ZM133.014 173.232C135.718 173.232 137.894 174.832 137.67 178.368H129.99C130.214 179.824 131.254 180.784 133.046 180.784C134.71 180.784 135.414 179.984 135.702 179.376H137.43C136.998 181.12 135.334 182.24 133.046 182.24C130.614 182.24 128.214 180.848 128.214 177.744C128.214 174.688 130.566 173.232 133.014 173.232ZM130.038 176.928H135.91C135.654 175.584 134.726 174.688 133.014 174.688C131.43 174.688 130.342 175.584 130.038 176.928ZM143.116 173.232C145.468 173.232 147.468 174.016 147.468 176.464V182H145.5V180.896C145.084 181.376 144.06 182.24 142.06 182.24C140.012 182.24 138.652 181.392 138.652 179.76C138.652 178 139.612 176.608 145.5 176.992V176.464C145.5 175.28 144.892 174.688 143.116 174.688C141.596 174.688 140.972 175.184 140.828 175.904H138.988C139.244 174.112 140.908 173.232 143.116 173.232ZM145.5 179.6V178.176C141.948 178 140.668 178.304 140.668 179.632C140.668 180.496 141.34 180.928 142.476 180.928C143.98 180.928 144.972 180.368 145.5 179.6ZM149.714 170.192H151.682V182H149.714V170.192Z" fill="black"/>
<defs>
<clipPath id="clip0_2719_256">
<rect width="180" height="121" fill="white" transform="translate(26 32)"/>
</clipPath>
</defs>
</svg>
