<svg width="217" height="195" viewBox="0 0 217 195" fill="none" xmlns="http://www.w3.org/2000/svg">
<rect width="217" height="195" rx="10" fill="#D9D9D9"/>
<g clip-path="url(#clip0_2719_255)">
<path fill-rule="evenodd" clip-rule="evenodd" d="M100.619 148.826C101.141 145.54 101.663 141.961 102.186 138.225C102.436 136.402 102.708 134.556 102.958 132.665L103.049 131.968C103.185 131.045 103.299 130.1 103.435 129.154V128.974C103.526 128.546 103.571 128.096 103.639 127.669C104.298 122.807 105.002 117.99 105.729 113.489C105.774 113.174 105.842 112.858 105.888 112.543C106.683 107.794 107.523 103.428 108.432 99.8037C109.363 103.428 110.203 107.794 110.998 112.566C111.044 112.858 111.089 113.174 111.157 113.489C111.907 118.013 112.588 122.852 113.269 127.669C113.338 128.119 113.383 128.546 113.451 128.997V129.154C113.61 130.077 113.724 130.977 113.86 131.878L113.996 132.846C114.11 133.656 114.223 134.466 114.337 135.276H115.881C115.836 135.006 115.813 134.759 115.768 134.489C115.677 133.881 115.609 133.273 115.518 132.643C115.268 130.91 115.041 129.177 114.791 127.444V127.309C114.178 122.807 113.542 118.305 112.792 113.759C112.702 113.264 112.633 112.768 112.543 112.296C111.861 108.289 111.112 104.215 110.135 100.254V100.231C110.067 99.9613 109.999 99.6912 109.931 99.4211L108.477 93.7266L107.023 99.4211C106.955 99.6912 106.887 99.9613 106.819 100.231V100.254C105.888 103.99 105.252 107.817 104.593 111.598C104.548 111.823 104.525 112.048 104.48 112.296C104.389 112.791 104.321 113.264 104.23 113.759C103.48 118.328 102.822 122.829 102.231 127.331V127.466C101.959 129.267 101.709 131.067 101.459 132.846C101.391 133.386 101.3 133.926 101.232 134.489C100.573 139.215 99.9373 143.919 99.165 148.556" fill="#050A0A"/>
<path fill-rule="evenodd" clip-rule="evenodd" d="M132.598 20.7781C132.598 21.0032 132.552 21.2283 132.53 21.4759C132.507 21.8135 132.461 22.1511 132.439 22.4887C132.439 22.6913 132.393 22.8939 132.371 23.0965C132.212 24.717 132.053 26.3151 131.916 27.9357C131.644 30.9518 131.371 33.9678 131.099 37.0064C131.099 37.164 131.076 37.344 131.053 37.5466C130.872 40.0225 130.44 45.8746 131.167 47.4502C132.848 50.9164 134.142 54.9003 135.301 58.5241C136.981 63.926 138.435 69.4855 139.525 75.0225C139.866 76.8457 140.206 78.7588 140.502 80.6945C141.047 84.2508 141.41 87.9196 141.433 91.4534C141.433 92.8039 141.387 94.1543 141.274 95.4598C141.228 96.1801 141.16 96.9003 141.092 97.6206C140.661 102.437 140.093 107.209 139.525 111.958C139.275 114.141 139.003 116.347 138.73 118.531C138.049 124.113 137.345 129.717 136.822 135.299H138.389C138.889 129.695 139.661 123.392 140.456 116.932C140.661 115.334 140.842 113.736 141.047 112.138C141.546 108.019 142.023 103.878 142.432 99.8939C142.568 98.4309 142.705 97.0129 142.841 95.5948C142.909 94.672 142.977 93.7267 142.977 92.7588C142.977 92.3312 142.977 91.881 142.977 91.4534C142.977 89.9003 142.886 88.2572 142.75 86.5916V86.4791C142.705 86.0514 142.682 85.6463 142.637 85.2186C142.637 85.0611 142.614 84.9035 142.591 84.7235C142.591 84.6559 142.591 84.5884 142.568 84.4984C142.432 83.2379 142.273 81.9325 142.069 80.6495C141.887 79.5016 141.705 78.3312 141.501 77.1608C141.365 76.3505 141.206 75.5402 141.047 74.7299C139.866 68.8328 138.299 63.0032 136.754 58.074C135.21 53.1222 133.688 49.0932 132.575 46.7524C132.144 45.8296 132.28 42.1608 132.643 37.1415C132.666 36.7814 132.689 36.4437 132.711 36.1061C132.848 34.283 133.029 32.2797 133.234 30.1865V30.1415C133.302 29.3762 133.37 28.6109 133.461 27.8232C133.506 27.283 133.552 26.7428 133.62 26.2026V26.0675C133.733 25.0772 133.824 24.0643 133.915 23.0514V22.8939L133.983 22.3987V22.3537V22.2862L134.074 21.3859V21.3183C134.165 20.5531 134.301 19.0225 134.301 19.0225L132.62 20.8006L132.598 20.7781ZM80.7001 145.765C80.7001 142.524 80.4049 139.193 80.1096 135.929C79.6099 129.987 78.8831 124.023 78.1564 118.08C77.9065 116.032 77.6567 114.006 77.4068 111.958C76.839 107.209 76.2712 102.437 75.8397 97.6206C75.7716 96.9003 75.7261 96.1801 75.658 95.4598C75.5444 94.1543 75.499 92.8264 75.499 91.4534C75.499 87.8971 75.8624 84.1833 76.4075 80.6045C76.7028 78.6913 77.0434 76.8231 77.4068 75.0225C78.497 69.4855 79.9506 63.926 81.6313 58.5241C82.7897 54.9003 84.107 50.8939 85.6968 47.4277C86.5599 45.6945 85.9921 38.9871 85.765 37.0064C85.5379 33.9904 85.288 30.9743 85.0155 27.9582C84.8792 26.3376 84.7202 24.6945 84.5612 23.074C84.5612 22.8714 84.5158 22.6688 84.4931 22.4662C84.4704 22.1061 84.425 21.7685 84.4022 21.4084C84.4022 21.2058 84.3568 20.9807 84.3341 20.7781L82.6988 19C82.6988 19 82.8805 20.8006 82.9487 21.6785V21.746L82.9941 22.2412V22.3087L83.0395 22.8264C83.1531 23.9293 83.2439 25.0096 83.3575 26.09V26.1576C83.4256 26.6977 83.471 27.2379 83.5165 27.7556C83.5846 28.5434 83.6527 29.3312 83.7436 30.0965V30.164C83.948 32.2347 84.107 34.2154 84.266 36.0386C84.2887 36.3762 84.3114 36.7363 84.3341 37.0514V37.0965C84.7202 42.1158 84.8338 45.7621 84.4022 46.6849V46.7299C83.2666 49.0707 81.7449 53.0772 80.2005 57.9839C78.656 62.9357 77.0889 68.7428 75.9305 74.6399C75.7716 75.4502 75.6126 76.2604 75.4763 77.0482C75.2719 78.2186 75.0675 79.4116 74.9085 80.582C74.7268 81.8875 74.5451 83.1704 74.4088 84.4534C74.4088 84.5209 74.4088 84.6109 74.3861 84.6785C74.3861 84.8135 74.3634 84.9486 74.3407 85.1061C74.2953 85.5113 74.2725 85.9164 74.2271 86.3215V86.4116V86.4791C74.0908 88.1447 74.0227 89.7878 74 91.3408C74 91.791 74 92.2186 74 92.6688C74 93.6366 74.0681 94.5595 74.1363 95.4823C74.2498 96.9003 74.3861 98.3408 74.5451 99.8039C74.9539 103.788 75.4309 107.929 75.9305 112.048C76.1122 113.646 76.3167 115.244 76.4984 116.82C77.316 123.572 78.1336 130.145 78.6333 135.952C78.9513 139.553 79.1557 142.839 79.1784 145.653" fill="#050A0A"/>
<path d="M108.795 103.968C111.838 116.348 112.792 130.235 114.632 139.193C116.108 146.418 119.651 149.66 124.898 149.66C133.574 149.66 136.867 146.081 138.48 137.798C138.934 135.525 140.819 119.994 140.819 119.994C141.955 111.486 142.409 106.039 142.409 103.721L108.795 103.968Z" fill="#D3D3D5" stroke="#050A0A" stroke-width="0.44" stroke-miterlimit="10"/>
<path d="M126.987 149.637H125.307V156.794H126.987V149.637Z" fill="#D3D3D5" stroke="#050A0A" stroke-width="0.29" stroke-miterlimit="10"/>
<path d="M126.148 158.663C125.739 158.663 125.466 158.483 125.398 158.077L124.989 156.547H127.26L126.852 158.077C126.784 158.483 126.511 158.663 126.102 158.663H126.148Z" fill="#D3D3D5" stroke="#050A0A" stroke-width="0.29" stroke-miterlimit="10"/>
<path d="M125.216 150.02L127.078 150.672" stroke="#050A0A" stroke-width="0.29" stroke-miterlimit="10"/>
<path d="M125.216 151.979L127.078 152.631" stroke="#050A0A" stroke-width="0.29" stroke-miterlimit="10"/>
<path d="M125.216 153.959L127.078 154.589" stroke="#050A0A" stroke-width="0.29" stroke-miterlimit="10"/>
<path d="M125.216 155.916L127.078 156.546" stroke="#050A0A" stroke-width="0.29" stroke-miterlimit="10"/>
<path d="M115.723 142.615H137.118" stroke="#1D1D1B" stroke-width="0.29" stroke-miterlimit="10"/>
</g>
<path d="M55.9427 166.8C59.5587 166.8 62.5507 168.048 62.5507 172.4C62.5507 176.752 59.5587 178 55.9427 178H51.3347V166.8H55.9427ZM55.7027 176.336C58.7587 176.336 60.5347 175.296 60.5347 172.4C60.5347 169.52 58.7587 168.464 55.7027 168.464H53.3027V176.336H55.7027ZM64.3153 178V169.472H66.2833V178H64.3153ZM65.2913 168.288C64.6833 168.288 64.2513 167.936 64.2513 167.328C64.2513 166.72 64.6833 166.368 65.2913 166.368C65.9153 166.368 66.3473 166.72 66.3473 167.328C66.3473 167.936 65.9153 168.288 65.2913 168.288ZM73.0144 173.008C75.4304 173.424 76.7904 173.744 76.7904 175.424C76.7904 177.408 75.1424 178.24 72.2944 178.24C69.7024 178.24 67.7184 177.344 67.7184 175.408H69.7504C69.7504 176.336 70.6624 176.752 72.4544 176.752C74.1984 176.752 74.8224 176.32 74.8224 175.68C74.8224 174.736 73.3984 174.72 71.2224 174.32C69.0144 173.904 68.0384 173.392 68.0384 171.872C68.0384 170.16 69.6384 169.232 72.1504 169.232C74.8864 169.232 76.3584 170.32 76.3584 171.904H74.5184C74.5184 171.36 73.9424 170.688 72.1184 170.688C70.4064 170.688 69.8144 171.12 69.8144 171.776C69.8144 172.64 71.4944 172.752 73.0144 173.008ZM83.6489 170.976H81.0729V174.816C81.0729 176.256 81.6489 176.656 83.6489 176.448V177.984C83.3609 178.064 82.9289 178.128 82.5289 178.128C79.9369 178.128 79.1049 177.072 79.1049 174.816V170.976H77.4409V169.472H79.1049V167.264H81.0729V169.472H83.6489V170.976ZM89.3893 169.232C91.7413 169.232 93.7413 170.016 93.7413 172.464V178H91.7733V176.896C91.3573 177.376 90.3333 178.24 88.3333 178.24C86.2853 178.24 84.9253 177.392 84.9253 175.76C84.9253 174 85.8853 172.608 91.7733 172.992V172.464C91.7733 171.28 91.1653 170.688 89.3893 170.688C87.8693 170.688 87.2453 171.184 87.1013 171.904H85.2613C85.5173 170.112 87.1813 169.232 89.3893 169.232ZM91.7733 175.6V174.176C88.2213 174 86.9413 174.304 86.9413 175.632C86.9413 176.496 87.6133 176.928 88.7493 176.928C90.2533 176.928 91.2453 176.368 91.7733 175.6ZM95.9872 166.192H97.9552V178H95.9872V166.192ZM104.831 166.192H106.799V178H104.831V166.192ZM113.274 169.232C115.77 169.232 118.17 170.592 118.17 173.744C118.17 176.896 115.77 178.24 113.274 178.24C110.778 178.24 108.394 176.896 108.394 173.744C108.394 170.592 110.778 169.232 113.274 169.232ZM113.274 176.784C115.562 176.784 116.346 175.232 116.346 173.744C116.346 172.24 115.562 170.688 113.274 170.688C110.986 170.688 110.202 172.24 110.202 173.744C110.202 175.232 110.986 176.784 113.274 176.784ZM124.04 176.784C125.768 176.784 126.632 175.776 126.872 174.816H128.712C128.296 177.088 126.344 178.24 124.04 178.24C121.544 178.24 119.128 176.896 119.128 173.744C119.128 170.592 121.544 169.232 124.04 169.232C126.344 169.232 128.296 170.384 128.712 172.656H126.872C126.632 171.696 125.768 170.688 124.04 170.688C121.752 170.688 120.936 172.24 120.936 173.744C120.936 175.232 121.752 176.784 124.04 176.784ZM137.035 178L134.139 174.128L132.299 175.856V178H130.315V166.8H132.299V173.616L136.699 169.472H139.163L135.531 172.848L139.371 178H137.035ZM140.815 178V169.472H142.783V178H140.815ZM141.791 168.288C141.183 168.288 140.751 167.936 140.751 167.328C140.751 166.72 141.183 166.368 141.791 166.368C142.415 166.368 142.847 166.72 142.847 167.328C142.847 167.936 142.415 168.288 141.791 168.288ZM150.25 169.232C152.474 169.232 153.69 170.496 153.69 172.48V178H151.722V173.072C151.722 171.632 150.938 170.832 149.386 170.832C147.834 170.832 146.986 171.728 146.986 173.072V178H145.018V169.472H146.986V170.784C147.386 170.224 148.474 169.232 150.25 169.232ZM162.853 169.472H164.821V177.184C164.821 180.48 162.309 180.976 159.861 180.976C157.189 180.976 155.589 180.032 155.413 178.416H157.237C157.365 178.928 158.005 179.488 159.861 179.488C162.245 179.488 162.853 178.72 162.853 177.184V176.24C162.229 176.992 161.221 177.472 159.717 177.472C157.237 177.472 155.285 176.24 155.285 173.44C155.285 170.624 157.237 169.232 159.717 169.232C161.221 169.232 162.229 169.792 162.853 170.624V169.472ZM160.101 176.192C161.941 176.192 163.157 175.2 163.157 173.44C163.157 171.664 161.973 170.688 160.101 170.688C158.245 170.688 157.109 171.632 157.109 173.44C157.109 175.232 158.261 176.192 160.101 176.192Z" fill="black"/>
<defs>
<clipPath id="clip0_2719_255">
<rect width="69" height="140" fill="white" transform="translate(74 19)"/>
</clipPath>
</defs>
</svg>
