<svg width="217" height="195" viewBox="0 0 217 195" fill="none" xmlns="http://www.w3.org/2000/svg">
<rect width="217" height="195" rx="10" fill="#D9D9D9"/>
<g clip-path="url(#clip0_2717_347)">
<path fill-rule="evenodd" clip-rule="evenodd" d="M99.5482 157C100.108 153.456 100.669 149.597 101.229 145.567C101.497 143.601 101.789 141.611 102.057 139.572L102.154 138.82C102.301 137.825 102.422 136.805 102.569 135.786V135.592C102.666 135.131 102.715 134.645 102.788 134.184C103.494 128.941 104.249 123.747 105.029 118.893C105.077 118.553 105.151 118.213 105.199 117.873C106.052 112.752 106.953 108.043 107.927 104.135C108.926 108.043 109.827 112.752 110.68 117.898C110.729 118.213 110.777 118.553 110.85 118.893C111.654 123.771 112.385 128.99 113.116 134.184C113.189 134.669 113.237 135.131 113.311 135.616V135.786C113.481 136.781 113.603 137.752 113.749 138.723L113.895 139.766C114.017 140.64 114.139 141.514 114.26 142.388H115.917C115.868 142.097 115.844 141.83 115.795 141.538C115.698 140.883 115.625 140.228 115.527 139.548C115.259 137.679 115.016 135.81 114.748 133.941V133.796C114.09 128.941 113.408 124.087 112.604 119.184C112.507 118.65 112.434 118.116 112.336 117.606C111.605 113.286 110.802 108.893 109.754 104.621V104.597C109.681 104.305 109.608 104.014 109.535 103.723L107.976 97.582L106.417 103.723C106.344 104.014 106.271 104.305 106.198 104.597V104.621C105.199 108.65 104.517 112.776 103.811 116.854C103.762 117.097 103.738 117.339 103.689 117.606C103.592 118.14 103.519 118.65 103.421 119.184C102.617 124.111 101.911 128.966 101.278 133.82V133.966C100.985 135.907 100.717 137.849 100.449 139.766C100.376 140.349 100.279 140.932 100.206 141.538C99.4995 146.635 98.8174 151.708 97.9893 156.708" fill="#050A0A"/>
<path fill-rule="evenodd" clip-rule="evenodd" d="M133.844 18.9175C133.844 19.1602 133.795 19.4029 133.771 19.6699C133.747 20.034 133.698 20.3981 133.673 20.7621C133.673 20.9806 133.625 21.199 133.6 21.4175C133.43 23.165 133.259 24.8883 133.113 26.6359C132.821 29.8884 132.529 33.1408 132.236 36.4175C132.236 36.5874 132.212 36.7816 132.188 37C131.993 39.6699 131.53 45.9806 132.309 47.6796C134.112 51.4175 135.5 55.7136 136.743 59.6214C138.545 65.4466 140.104 71.4417 141.273 77.4126C141.639 79.3786 142.004 81.4418 142.321 83.5291C142.905 87.3641 143.295 91.3204 143.319 95.1311C143.319 96.5874 143.271 98.0437 143.149 99.4515C143.1 100.228 143.027 101.005 142.954 101.782C142.491 106.976 141.882 112.121 141.273 117.243C141.005 119.597 140.713 121.976 140.421 124.33C139.69 130.35 138.935 136.393 138.375 142.413H140.055C140.591 136.369 141.419 129.573 142.272 122.607C142.491 120.883 142.686 119.16 142.905 117.437C143.441 112.995 143.953 108.529 144.391 104.233C144.537 102.655 144.683 101.126 144.829 99.5971C144.903 98.6019 144.976 97.5825 144.976 96.5388C144.976 96.0777 144.976 95.5922 144.976 95.1311C144.976 93.4563 144.878 91.6845 144.732 89.8884V89.767C144.683 89.3058 144.659 88.8689 144.61 88.4078C144.61 88.2379 144.586 88.068 144.562 87.8738C144.562 87.801 144.562 87.7282 144.537 87.6311C144.391 86.2718 144.221 84.8641 144.001 83.4806C143.806 82.2427 143.612 80.9806 143.392 79.7184C143.246 78.8447 143.076 77.9709 142.905 77.0971C141.639 70.7379 139.958 64.4515 138.302 59.1359C136.645 53.7961 135.013 49.4515 133.82 46.9272C133.357 45.932 133.503 41.9757 133.893 36.5631C133.917 36.1748 133.941 35.8107 133.966 35.4466C134.112 33.4806 134.307 31.3204 134.526 29.0631V29.0146C134.599 28.1893 134.672 27.3641 134.77 26.5146C134.818 25.932 134.867 25.3495 134.94 24.767V24.6214C135.062 23.5534 135.159 22.4612 135.257 21.3689V21.199L135.33 20.665V20.6165V20.5437L135.427 19.5728V19.5C135.525 18.6748 135.671 17.0243 135.671 17.0243L133.868 18.9417L133.844 18.9175ZM78.1856 153.699C78.1856 150.204 77.869 146.612 77.5523 143.092C77.0165 136.684 76.237 130.252 75.4575 123.845C75.1896 121.636 74.9217 119.451 74.6537 117.243C74.0448 112.121 73.4358 106.976 72.973 101.782C72.8999 101.005 72.8512 100.228 72.7781 99.4515C72.6564 98.0437 72.6076 96.6117 72.6076 95.1311C72.6076 91.2961 72.9974 87.2913 73.582 83.432C73.8986 81.3689 74.264 79.3544 74.6537 77.4126C75.8229 71.4417 77.3818 65.4466 79.1843 59.6214C80.4266 55.7136 81.8394 51.3932 83.5444 47.6553C84.47 45.7864 83.8611 38.5534 83.6175 36.4175C83.3739 33.165 83.106 29.9126 82.8137 26.6602C82.6675 24.9126 82.497 23.1408 82.3265 21.3932C82.3265 21.1748 82.2778 20.9563 82.2535 20.7379C82.2291 20.3495 82.1804 19.9854 82.156 19.5971C82.156 19.3786 82.1073 19.1359 82.0829 18.9175L80.3292 17C80.3292 17 80.524 18.9417 80.5971 19.8883V19.9612L80.6458 20.4951V20.568L80.6945 21.1262C80.8163 22.3155 80.9138 23.4806 81.0355 24.6456V24.7184C81.1086 25.301 81.1573 25.8835 81.2061 26.4417C81.2791 27.2913 81.3522 28.1408 81.4496 28.966V29.0388C81.6689 31.2718 81.8394 33.4078 82.0099 35.3738C82.0342 35.7379 82.0586 36.1262 82.0829 36.466V36.5146C82.497 41.9272 82.6188 45.8592 82.156 46.8544V46.9029C80.9381 49.4272 79.3061 53.7476 77.6498 59.0388C75.9934 64.3786 74.3127 70.6408 73.0704 77C72.8999 77.8738 72.7294 78.7476 72.5833 79.5971C72.3641 80.8592 72.1448 82.1456 71.9743 83.4078C71.7795 84.8155 71.5846 86.199 71.4384 87.5825C71.4384 87.6553 71.4384 87.7524 71.4141 87.8252C71.4141 87.9709 71.3897 88.1165 71.3654 88.2864C71.3167 88.7233 71.2923 89.1602 71.2436 89.5971V89.6942V89.767C71.0974 91.5631 71.0244 93.335 71 95.0097C71 95.4951 71 95.9563 71 96.4418C71 97.4854 71.0731 98.4806 71.1461 99.4757C71.2679 101.005 71.4141 102.558 71.5846 104.136C72.023 108.432 72.5346 112.898 73.0704 117.34C73.2653 119.063 73.4845 120.786 73.6794 122.485C74.5563 129.767 75.4332 136.854 75.9691 143.117C76.3101 147 76.5293 150.544 76.5537 153.578" fill="#050A0A"/>
<path d="M108.39 104.986C111.654 118.335 112.677 133.311 114.65 142.971C116.233 150.762 120.033 154.258 125.66 154.258C134.964 154.258 138.496 150.398 140.226 141.466C140.713 139.015 142.735 122.267 142.735 122.267C143.953 113.093 144.44 107.219 144.44 104.719L108.39 104.986Z" fill="#D3D3D5" stroke="#050A0A" stroke-width="0.44" stroke-miterlimit="10"/>
<path d="M115.819 146.66H138.789" stroke="#1D1D1B" stroke-width="0.29" stroke-miterlimit="10"/>
<path d="M131.457 112.486H122.542V116.127H131.457V112.486Z" stroke="#050A0A" stroke-width="0.29" stroke-miterlimit="10"/>
<path d="M129.874 114.137H124.149V155.69H129.874V114.137Z" fill="white" stroke="#050A0A" stroke-width="0.29" stroke-miterlimit="10"/>
</g>
<path d="M82.9026 180.336V182H73.6706V170.8H75.6386V180.336H82.9026ZM88.4909 173.232C90.8429 173.232 92.8429 174.016 92.8429 176.464V182H90.8749V180.896C90.4589 181.376 89.4349 182.24 87.4349 182.24C85.3869 182.24 84.0269 181.392 84.0269 179.76C84.0269 178 84.9869 176.608 90.8749 176.992V176.464C90.8749 175.28 90.2669 174.688 88.4909 174.688C86.9709 174.688 86.3469 175.184 86.2029 175.904H84.3629C84.6189 174.112 86.2829 173.232 88.4909 173.232ZM90.8749 179.6V178.176C87.3229 178 86.0429 178.304 86.0429 179.632C86.0429 180.496 86.7149 180.928 87.8509 180.928C89.3549 180.928 90.3469 180.368 90.8749 179.6ZM100.321 173.232C102.545 173.232 103.761 174.496 103.761 176.48V182H101.793V177.072C101.793 175.632 101.009 174.832 99.4568 174.832C97.9048 174.832 97.0568 175.728 97.0568 177.072V182H95.0888V173.472H97.0568V174.784C97.4568 174.224 98.5448 173.232 100.321 173.232ZM112.531 173.472H114.595L109.475 184.672H107.523L108.851 181.696L104.883 173.472H106.947L109.779 179.632L112.531 173.472ZM119.225 173.232C121.577 173.232 123.577 174.016 123.577 176.464V182H121.609V180.896C121.193 181.376 120.169 182.24 118.169 182.24C116.121 182.24 114.761 181.392 114.761 179.76C114.761 178 115.721 176.608 121.609 176.992V176.464C121.609 175.28 121.001 174.688 119.225 174.688C117.705 174.688 117.081 175.184 116.937 175.904H115.097C115.353 174.112 117.017 173.232 119.225 173.232ZM121.609 179.6V178.176C118.057 178 116.777 178.304 116.777 179.632C116.777 180.496 117.449 180.928 118.585 180.928C120.089 180.928 121.081 180.368 121.609 179.6ZM131.215 173.232C131.599 173.232 131.823 173.248 132.159 173.296V175.248H132.095C131.759 175.152 131.327 175.088 130.783 175.088C128.623 175.088 127.807 176.336 127.807 177.664V182H125.823V173.472H127.807V175.072C128.191 174.448 129.375 173.232 131.215 173.232ZM140.516 170.8H142.484V182H140.516V180.88C139.844 181.696 138.82 182.24 137.396 182.24C134.9 182.24 132.964 180.624 132.964 177.744C132.964 174.848 134.9 173.232 137.396 173.232C138.82 173.232 139.844 173.776 140.516 174.592V170.8ZM137.78 180.784C139.812 180.784 140.82 179.504 140.82 177.744C140.82 175.968 139.844 174.688 137.78 174.688C135.7 174.688 134.788 175.936 134.788 177.744C134.788 179.536 135.732 180.784 137.78 180.784Z" fill="black"/>
<defs>
<clipPath id="clip0_2717_347">
<rect width="74" height="140" fill="white" transform="translate(71 17)"/>
</clipPath>
</defs>
</svg>
