<svg width="130" height="130" viewBox="0 0 130 130" fill="none" xmlns="http://www.w3.org/2000/svg">
<rect x="0.5" y="0.5" width="129" height="129" rx="9.5" fill="white"/>
<rect x="0.5" y="0.5" width="129" height="129" rx="9.5" stroke="#D9D9D9"/>
<path d="M25.0235 34.2H27.7535V44H26.0315V35.586L22.3355 44H20.4735L16.7775 35.586V44H15.0555V34.2H17.7715L21.3975 42.474L25.0235 34.2ZM33.5689 36.328C35.7529 36.328 37.8529 37.518 37.8529 40.276C37.8529 43.034 35.7529 44.21 33.5689 44.21C31.3849 44.21 29.2989 43.034 29.2989 40.276C29.2989 37.518 31.3849 36.328 33.5689 36.328ZM33.5689 42.936C35.5709 42.936 36.2569 41.578 36.2569 40.276C36.2569 38.96 35.5709 37.602 33.5689 37.602C31.5669 37.602 30.8809 38.96 30.8809 40.276C30.8809 41.578 31.5669 42.936 33.5689 42.936ZM44.8057 36.538H46.6257L43.2797 44H41.4737L38.1277 36.538H39.9477L42.3837 42.32L44.8057 36.538ZM47.8921 44V36.538H49.6141V44H47.8921ZM48.7461 35.502C48.2141 35.502 47.8361 35.194 47.8361 34.662C47.8361 34.13 48.2141 33.822 48.7461 33.822C49.2921 33.822 49.6701 34.13 49.6701 34.662C49.6701 35.194 49.2921 35.502 48.7461 35.502ZM56.1478 36.328C58.0938 36.328 59.1578 37.434 59.1578 39.17V44H57.4358V39.688C57.4358 38.428 56.7498 37.728 55.3918 37.728C54.0338 37.728 53.2918 38.512 53.2918 39.688V44H51.5698V36.538H53.2918V37.686C53.6418 37.196 54.5938 36.328 56.1478 36.328ZM67.1748 36.538H68.8968V43.286C68.8968 46.17 66.6988 46.604 64.5568 46.604C62.2188 46.604 60.8188 45.778 60.6648 44.364H62.2608C62.3728 44.812 62.9328 45.302 64.5568 45.302C66.6428 45.302 67.1748 44.63 67.1748 43.286V42.46C66.6288 43.118 65.7468 43.538 64.4308 43.538C62.2608 43.538 60.5528 42.46 60.5528 40.01C60.5528 37.546 62.2608 36.328 64.4308 36.328C65.7468 36.328 66.6288 36.818 67.1748 37.546V36.538ZM64.7668 42.418C66.3768 42.418 67.4408 41.55 67.4408 40.01C67.4408 38.456 66.4048 37.602 64.7668 37.602C63.1428 37.602 62.1488 38.428 62.1488 40.01C62.1488 41.578 63.1568 42.418 64.7668 42.418ZM80.9694 34.2H82.6914V44H80.9694V43.02C80.3814 43.734 79.4854 44.21 78.2394 44.21C76.0554 44.21 74.3614 42.796 74.3614 40.276C74.3614 37.742 76.0554 36.328 78.2394 36.328C79.4854 36.328 80.3814 36.804 80.9694 37.518V34.2ZM78.5754 42.936C80.3534 42.936 81.2354 41.816 81.2354 40.276C81.2354 38.722 80.3814 37.602 78.5754 37.602C76.7554 37.602 75.9574 38.694 75.9574 40.276C75.9574 41.844 76.7834 42.936 78.5754 42.936ZM88.3658 36.328C90.5498 36.328 92.6498 37.518 92.6498 40.276C92.6498 43.034 90.5498 44.21 88.3658 44.21C86.1818 44.21 84.0958 43.034 84.0958 40.276C84.0958 37.518 86.1818 36.328 88.3658 36.328ZM88.3658 42.936C90.3678 42.936 91.0538 41.578 91.0538 40.276C91.0538 38.96 90.3678 37.602 88.3658 37.602C86.3638 37.602 85.6778 38.96 85.6778 40.276C85.6778 41.578 86.3638 42.936 88.3658 42.936ZM104.419 36.538H106.239L103.299 44H101.619L99.5745 38.596L97.5445 44H95.8645L92.9245 36.538H94.7445L96.7465 42.012L98.8045 36.538H100.359L102.417 42.012L104.419 36.538ZM112.079 36.328C114.025 36.328 115.089 37.434 115.089 39.17V44H113.367V39.688C113.367 38.428 112.681 37.728 111.323 37.728C109.965 37.728 109.223 38.512 109.223 39.688V44H107.501V36.538H109.223V37.686C109.573 37.196 110.525 36.328 112.079 36.328Z" fill="black"/>
<rect width="130" height="130" rx="10" fill="white"/>
<path d="M32.6958 34.2H34.5718L30.0358 44H27.7958L23.2598 34.2H25.1218L28.9158 42.642L32.6958 34.2ZM38.202 36.328C40.568 36.328 42.472 37.728 42.276 40.822H35.556C35.752 42.096 36.662 42.936 38.23 42.936C39.686 42.936 40.302 42.236 40.554 41.704H42.066C41.688 43.23 40.232 44.21 38.23 44.21C36.102 44.21 34.002 42.992 34.002 40.276C34.002 37.602 36.06 36.328 38.202 36.328ZM35.598 39.562H40.736C40.512 38.386 39.7 37.602 38.202 37.602C36.816 37.602 35.864 38.386 35.598 39.562ZM48.4128 36.328C48.7488 36.328 48.9448 36.342 49.2388 36.384V38.092H49.1828C48.8888 38.008 48.5108 37.952 48.0348 37.952C46.1448 37.952 45.4308 39.044 45.4308 40.206V44H43.6948V36.538H45.4308V37.938C45.7668 37.392 46.8028 36.328 48.4128 36.328ZM54.5742 39.632C56.6882 39.996 57.8782 40.276 57.8782 41.746C57.8782 43.482 56.4362 44.21 53.9442 44.21C51.6762 44.21 49.9402 43.426 49.9402 41.732H51.7182C51.7182 42.544 52.5162 42.908 54.0842 42.908C55.6102 42.908 56.1562 42.53 56.1562 41.97C56.1562 41.144 54.9102 41.13 53.0062 40.78C51.0742 40.416 50.2202 39.968 50.2202 38.638C50.2202 37.14 51.6202 36.328 53.8182 36.328C56.2122 36.328 57.5002 37.28 57.5002 38.666H55.8902C55.8902 38.19 55.3862 37.602 53.7902 37.602C52.2922 37.602 51.7742 37.98 51.7742 38.554C51.7742 39.31 53.2442 39.408 54.5742 39.632ZM63.3413 33.668H65.0633V44H63.3413V33.668ZM70.6591 36.328C73.0251 36.328 74.9291 37.728 74.7331 40.822H68.0131C68.2091 42.096 69.1191 42.936 70.6871 42.936C72.1431 42.936 72.7591 42.236 73.0111 41.704H74.5231C74.1451 43.23 72.6891 44.21 70.6871 44.21C68.5591 44.21 66.4591 42.992 66.4591 40.276C66.4591 37.602 68.5171 36.328 70.6591 36.328ZM68.0551 39.562H73.1931C72.9691 38.386 72.1571 37.602 70.6591 37.602C69.2731 37.602 68.3211 38.386 68.0551 39.562ZM84.6784 36.328C86.8624 36.328 88.5564 37.742 88.5564 40.276C88.5564 42.796 86.8624 44.21 84.6784 44.21C83.4184 44.21 82.5224 43.734 81.9344 43.02V44H80.2124V34.2H81.9344V37.518C82.5224 36.804 83.4184 36.328 84.6784 36.328ZM84.3424 42.936C86.1344 42.936 86.9604 41.844 86.9604 40.276C86.9604 38.694 86.1484 37.602 84.3424 37.602C82.5364 37.602 81.6824 38.722 81.6824 40.276C81.6824 41.816 82.5504 42.936 84.3424 42.936ZM93.3065 36.328C95.3645 36.328 97.1145 37.014 97.1145 39.156V44H95.3925V43.034C95.0285 43.454 94.1325 44.21 92.3825 44.21C90.5905 44.21 89.4005 43.468 89.4005 42.04C89.4005 40.5 90.2405 39.282 95.3925 39.618V39.156C95.3925 38.12 94.8605 37.602 93.3065 37.602C91.9765 37.602 91.4305 38.036 91.3045 38.666H89.6945C89.9185 37.098 91.3745 36.328 93.3065 36.328ZM95.3925 41.9V40.654C92.2845 40.5 91.1645 40.766 91.1645 41.928C91.1645 42.684 91.7525 43.062 92.7465 43.062C94.0625 43.062 94.9305 42.572 95.3925 41.9ZM103.014 39.632C105.128 39.996 106.318 40.276 106.318 41.746C106.318 43.482 104.876 44.21 102.384 44.21C100.116 44.21 98.3796 43.426 98.3796 41.732H100.158C100.158 42.544 100.956 42.908 102.524 42.908C104.05 42.908 104.596 42.53 104.596 41.97C104.596 41.144 103.35 41.13 101.446 40.78C99.5136 40.416 98.6596 39.968 98.6596 38.638C98.6596 37.14 100.06 36.328 102.258 36.328C104.652 36.328 105.94 37.28 105.94 38.666H104.33C104.33 38.19 103.826 37.602 102.23 37.602C100.732 37.602 100.214 37.98 100.214 38.554C100.214 39.31 101.684 39.408 103.014 39.632Z" fill="black"/>
<path d="M65.3027 100.707C65.6932 101.098 66.3263 101.098 66.7169 100.707L73.0808 94.3431C73.4714 93.9526 73.4714 93.3195 73.0808 92.9289C72.6903 92.5384 72.0571 92.5384 71.6666 92.9289L66.0098 98.5858L60.3529 92.9289C59.9624 92.5384 59.3292 92.5384 58.9387 92.9289C58.5482 93.3195 58.5482 93.9526 58.9387 94.3431L65.3027 100.707ZM66.0098 56L65.0098 56L65.0098 100L66.0098 100L67.0098 100L67.0098 56L66.0098 56Z" fill="black"/>
</svg>
