<svg width="130" height="130" viewBox="0 0 130 130" fill="none" xmlns="http://www.w3.org/2000/svg">
<rect x="0.5" y="0.5" width="129" height="129" rx="9.5" fill="white"/>
<rect x="0.5" y="0.5" width="129" height="129" rx="9.5" stroke="#D9D9D9"/>
<path d="M25.0235 34.2H27.7535V44H26.0315V35.586L22.3355 44H20.4735L16.7775 35.586V44H15.0555V34.2H17.7715L21.3975 42.474L25.0235 34.2ZM33.5689 36.328C35.7529 36.328 37.8529 37.518 37.8529 40.276C37.8529 43.034 35.7529 44.21 33.5689 44.21C31.3849 44.21 29.2989 43.034 29.2989 40.276C29.2989 37.518 31.3849 36.328 33.5689 36.328ZM33.5689 42.936C35.5709 42.936 36.2569 41.578 36.2569 40.276C36.2569 38.96 35.5709 37.602 33.5689 37.602C31.5669 37.602 30.8809 38.96 30.8809 40.276C30.8809 41.578 31.5669 42.936 33.5689 42.936ZM44.8057 36.538H46.6257L43.2797 44H41.4737L38.1277 36.538H39.9477L42.3837 42.32L44.8057 36.538ZM47.8921 44V36.538H49.6141V44H47.8921ZM48.7461 35.502C48.2141 35.502 47.8361 35.194 47.8361 34.662C47.8361 34.13 48.2141 33.822 48.7461 33.822C49.2921 33.822 49.6701 34.13 49.6701 34.662C49.6701 35.194 49.2921 35.502 48.7461 35.502ZM56.1478 36.328C58.0938 36.328 59.1578 37.434 59.1578 39.17V44H57.4358V39.688C57.4358 38.428 56.7498 37.728 55.3918 37.728C54.0338 37.728 53.2918 38.512 53.2918 39.688V44H51.5698V36.538H53.2918V37.686C53.6418 37.196 54.5938 36.328 56.1478 36.328ZM67.1748 36.538H68.8968V43.286C68.8968 46.17 66.6988 46.604 64.5568 46.604C62.2188 46.604 60.8188 45.778 60.6648 44.364H62.2608C62.3728 44.812 62.9328 45.302 64.5568 45.302C66.6428 45.302 67.1748 44.63 67.1748 43.286V42.46C66.6288 43.118 65.7468 43.538 64.4308 43.538C62.2608 43.538 60.5528 42.46 60.5528 40.01C60.5528 37.546 62.2608 36.328 64.4308 36.328C65.7468 36.328 66.6288 36.818 67.1748 37.546V36.538ZM64.7668 42.418C66.3768 42.418 67.4408 41.55 67.4408 40.01C67.4408 38.456 66.4048 37.602 64.7668 37.602C63.1428 37.602 62.1488 38.428 62.1488 40.01C62.1488 41.578 63.1568 42.418 64.7668 42.418ZM80.9694 34.2H82.6914V44H80.9694V43.02C80.3814 43.734 79.4854 44.21 78.2394 44.21C76.0554 44.21 74.3614 42.796 74.3614 40.276C74.3614 37.742 76.0554 36.328 78.2394 36.328C79.4854 36.328 80.3814 36.804 80.9694 37.518V34.2ZM78.5754 42.936C80.3534 42.936 81.2354 41.816 81.2354 40.276C81.2354 38.722 80.3814 37.602 78.5754 37.602C76.7554 37.602 75.9574 38.694 75.9574 40.276C75.9574 41.844 76.7834 42.936 78.5754 42.936ZM88.3658 36.328C90.5498 36.328 92.6498 37.518 92.6498 40.276C92.6498 43.034 90.5498 44.21 88.3658 44.21C86.1818 44.21 84.0958 43.034 84.0958 40.276C84.0958 37.518 86.1818 36.328 88.3658 36.328ZM88.3658 42.936C90.3678 42.936 91.0538 41.578 91.0538 40.276C91.0538 38.96 90.3678 37.602 88.3658 37.602C86.3638 37.602 85.6778 38.96 85.6778 40.276C85.6778 41.578 86.3638 42.936 88.3658 42.936ZM104.419 36.538H106.239L103.299 44H101.619L99.5745 38.596L97.5445 44H95.8645L92.9245 36.538H94.7445L96.7465 42.012L98.8045 36.538H100.359L102.417 42.012L104.419 36.538ZM112.079 36.328C114.025 36.328 115.089 37.434 115.089 39.17V44H113.367V39.688C113.367 38.428 112.681 37.728 111.323 37.728C109.965 37.728 109.223 38.512 109.223 39.688V44H107.501V36.538H109.223V37.686C109.573 37.196 110.525 36.328 112.079 36.328Z" fill="black"/>
<rect width="130" height="130" rx="10" fill="white"/>
<path d="M30.1235 34.2H31.8455V44H30.1235V39.702H23.6135V44H21.8915V34.2H23.6135V38.232H30.1235V34.2ZM37.2928 36.328C39.3508 36.328 41.1008 37.014 41.1008 39.156V44H39.3788V43.034C39.0148 43.454 38.1188 44.21 36.3688 44.21C34.5768 44.21 33.3868 43.468 33.3868 42.04C33.3868 40.5 34.2268 39.282 39.3788 39.618V39.156C39.3788 38.12 38.8468 37.602 37.2928 37.602C35.9628 37.602 35.4168 38.036 35.2908 38.666H33.6808C33.9048 37.098 35.3608 36.328 37.2928 36.328ZM39.3788 41.9V40.654C36.2708 40.5 35.1508 40.766 35.1508 41.928C35.1508 42.684 35.7388 43.062 36.7328 43.062C38.0488 43.062 38.9168 42.572 39.3788 41.9ZM46.8039 42.936C48.3159 42.936 49.0719 42.054 49.2819 41.214H50.8919C50.5279 43.202 48.8199 44.21 46.8039 44.21C44.6199 44.21 42.5059 43.034 42.5059 40.276C42.5059 37.518 44.6199 36.328 46.8039 36.328C48.8199 36.328 50.5279 37.336 50.8919 39.324H49.2819C49.0719 38.484 48.3159 37.602 46.8039 37.602C44.8019 37.602 44.0879 38.96 44.0879 40.276C44.0879 41.578 44.8019 42.936 46.8039 42.936ZM52.2945 44V36.538H54.0165V44H52.2945ZM53.1485 35.502C52.6165 35.502 52.2385 35.194 52.2385 34.662C52.2385 34.13 52.6165 33.822 53.1485 33.822C53.6945 33.822 54.0725 34.13 54.0725 34.662C54.0725 35.194 53.6945 35.502 53.1485 35.502ZM59.3182 36.328C61.3762 36.328 63.1262 37.014 63.1262 39.156V44H61.4042V43.034C61.0402 43.454 60.1442 44.21 58.3942 44.21C56.6022 44.21 55.4122 43.468 55.4122 42.04C55.4122 40.5 56.2522 39.282 61.4042 39.618V39.156C61.4042 38.12 60.8722 37.602 59.3182 37.602C57.9882 37.602 57.4422 38.036 57.3162 38.666H55.7062C55.9302 37.098 57.3862 36.328 59.3182 36.328ZM61.4042 41.9V40.654C58.2962 40.5 57.1762 40.766 57.1762 41.928C57.1762 42.684 57.7642 43.062 58.7582 43.062C60.0742 43.062 60.9422 42.572 61.4042 41.9ZM72.4979 36.328C74.5559 36.328 76.3059 37.014 76.3059 39.156V44H74.5839V43.034C74.2199 43.454 73.3239 44.21 71.5739 44.21C69.7819 44.21 68.5919 43.468 68.5919 42.04C68.5919 40.5 69.4319 39.282 74.5839 39.618V39.156C74.5839 38.12 74.0519 37.602 72.4979 37.602C71.1679 37.602 70.6219 38.036 70.4959 38.666H68.8859C69.1099 37.098 70.5659 36.328 72.4979 36.328ZM74.5839 41.9V40.654C71.4759 40.5 70.3559 40.766 70.3559 41.928C70.3559 42.684 70.9439 43.062 71.9379 43.062C73.2539 43.062 74.1219 42.572 74.5839 41.9ZM82.737 36.328C84.921 36.328 86.615 37.742 86.615 40.276C86.615 42.796 84.921 44.21 82.737 44.21C81.477 44.21 80.581 43.734 79.993 43.02V44H78.271V34.2H79.993V37.518C80.581 36.804 81.477 36.328 82.737 36.328ZM82.401 42.936C84.193 42.936 85.019 41.844 85.019 40.276C85.019 38.694 84.207 37.602 82.401 37.602C80.595 37.602 79.741 38.722 79.741 40.276C79.741 41.816 80.609 42.936 82.401 42.936ZM91.3651 36.328C93.4231 36.328 95.1731 37.014 95.1731 39.156V44H93.4511V43.034C93.0871 43.454 92.1911 44.21 90.4411 44.21C88.6491 44.21 87.4591 43.468 87.4591 42.04C87.4591 40.5 88.2991 39.282 93.4511 39.618V39.156C93.4511 38.12 92.9191 37.602 91.3651 37.602C90.0351 37.602 89.4891 38.036 89.3631 38.666H87.7531C87.9771 37.098 89.4331 36.328 91.3651 36.328ZM93.4511 41.9V40.654C90.3431 40.5 89.2231 40.766 89.2231 41.928C89.2231 42.684 89.8111 43.062 90.8051 43.062C92.1211 43.062 92.9891 42.572 93.4511 41.9ZM97.1382 43.874V36.538H98.8602V43.874C98.8602 45.134 98.6502 46.604 96.5502 46.604C96.1862 46.604 95.9902 46.576 95.6682 46.534V45.12C96.9982 45.19 97.1382 44.77 97.1382 43.874ZM97.9922 35.502C97.4602 35.502 97.0822 35.194 97.0822 34.662C97.0822 34.13 97.4602 33.822 97.9922 33.822C98.5382 33.822 98.9162 34.13 98.9162 34.662C98.9162 35.194 98.5382 35.502 97.9922 35.502ZM104.526 36.328C106.71 36.328 108.81 37.518 108.81 40.276C108.81 43.034 106.71 44.21 104.526 44.21C102.342 44.21 100.256 43.034 100.256 40.276C100.256 37.518 102.342 36.328 104.526 36.328ZM104.526 42.936C106.528 42.936 107.214 41.578 107.214 40.276C107.214 38.96 106.528 37.602 104.526 37.602C102.524 37.602 101.838 38.96 101.838 40.276C101.838 41.578 102.524 42.936 104.526 42.936Z" fill="black"/>
<path d="M65.3027 100.707C65.6932 101.098 66.3263 101.098 66.7169 100.707L73.0808 94.3431C73.4714 93.9526 73.4714 93.3195 73.0808 92.9289C72.6903 92.5384 72.0571 92.5384 71.6666 92.9289L66.0098 98.5858L60.3529 92.9289C59.9624 92.5384 59.3292 92.5384 58.9387 92.9289C58.5482 93.3195 58.5482 93.9526 58.9387 94.3431L65.3027 100.707ZM66.0098 56L65.0098 56L65.0098 100L66.0098 100L67.0098 100L67.0098 56L66.0098 56Z" fill="black"/>
</svg>
