<svg width="130" height="130" viewBox="0 0 130 130" fill="none" xmlns="http://www.w3.org/2000/svg">
<rect x="0.5" y="0.5" width="129" height="129" rx="9.5" fill="white"/>
<rect x="0.5" y="0.5" width="129" height="129" rx="9.5" stroke="#D9D9D9"/>
<path d="M25.0235 34.2H27.7535V44H26.0315V35.586L22.3355 44H20.4735L16.7775 35.586V44H15.0555V34.2H17.7715L21.3975 42.474L25.0235 34.2ZM33.5689 36.328C35.7529 36.328 37.8529 37.518 37.8529 40.276C37.8529 43.034 35.7529 44.21 33.5689 44.21C31.3849 44.21 29.2989 43.034 29.2989 40.276C29.2989 37.518 31.3849 36.328 33.5689 36.328ZM33.5689 42.936C35.5709 42.936 36.2569 41.578 36.2569 40.276C36.2569 38.96 35.5709 37.602 33.5689 37.602C31.5669 37.602 30.8809 38.96 30.8809 40.276C30.8809 41.578 31.5669 42.936 33.5689 42.936ZM44.8057 36.538H46.6257L43.2797 44H41.4737L38.1277 36.538H39.9477L42.3837 42.32L44.8057 36.538ZM47.8921 44V36.538H49.6141V44H47.8921ZM48.7461 35.502C48.2141 35.502 47.8361 35.194 47.8361 34.662C47.8361 34.13 48.2141 33.822 48.7461 33.822C49.2921 33.822 49.6701 34.13 49.6701 34.662C49.6701 35.194 49.2921 35.502 48.7461 35.502ZM56.1478 36.328C58.0938 36.328 59.1578 37.434 59.1578 39.17V44H57.4358V39.688C57.4358 38.428 56.7498 37.728 55.3918 37.728C54.0338 37.728 53.2918 38.512 53.2918 39.688V44H51.5698V36.538H53.2918V37.686C53.6418 37.196 54.5938 36.328 56.1478 36.328ZM67.1748 36.538H68.8968V43.286C68.8968 46.17 66.6988 46.604 64.5568 46.604C62.2188 46.604 60.8188 45.778 60.6648 44.364H62.2608C62.3728 44.812 62.9328 45.302 64.5568 45.302C66.6428 45.302 67.1748 44.63 67.1748 43.286V42.46C66.6288 43.118 65.7468 43.538 64.4308 43.538C62.2608 43.538 60.5528 42.46 60.5528 40.01C60.5528 37.546 62.2608 36.328 64.4308 36.328C65.7468 36.328 66.6288 36.818 67.1748 37.546V36.538ZM64.7668 42.418C66.3768 42.418 67.4408 41.55 67.4408 40.01C67.4408 38.456 66.4048 37.602 64.7668 37.602C63.1428 37.602 62.1488 38.428 62.1488 40.01C62.1488 41.578 63.1568 42.418 64.7668 42.418ZM80.9694 34.2H82.6914V44H80.9694V43.02C80.3814 43.734 79.4854 44.21 78.2394 44.21C76.0554 44.21 74.3614 42.796 74.3614 40.276C74.3614 37.742 76.0554 36.328 78.2394 36.328C79.4854 36.328 80.3814 36.804 80.9694 37.518V34.2ZM78.5754 42.936C80.3534 42.936 81.2354 41.816 81.2354 40.276C81.2354 38.722 80.3814 37.602 78.5754 37.602C76.7554 37.602 75.9574 38.694 75.9574 40.276C75.9574 41.844 76.7834 42.936 78.5754 42.936ZM88.3658 36.328C90.5498 36.328 92.6498 37.518 92.6498 40.276C92.6498 43.034 90.5498 44.21 88.3658 44.21C86.1818 44.21 84.0958 43.034 84.0958 40.276C84.0958 37.518 86.1818 36.328 88.3658 36.328ZM88.3658 42.936C90.3678 42.936 91.0538 41.578 91.0538 40.276C91.0538 38.96 90.3678 37.602 88.3658 37.602C86.3638 37.602 85.6778 38.96 85.6778 40.276C85.6778 41.578 86.3638 42.936 88.3658 42.936ZM104.419 36.538H106.239L103.299 44H101.619L99.5745 38.596L97.5445 44H95.8645L92.9245 36.538H94.7445L96.7465 42.012L98.8045 36.538H100.359L102.417 42.012L104.419 36.538ZM112.079 36.328C114.025 36.328 115.089 37.434 115.089 39.17V44H113.367V39.688C113.367 38.428 112.681 37.728 111.323 37.728C109.965 37.728 109.223 38.512 109.223 39.688V44H107.501V36.538H109.223V37.686C109.573 37.196 110.525 36.328 112.079 36.328Z" fill="black"/>
<rect width="130" height="130" rx="10" fill="white"/>
<path d="M28.7877 34.2C31.9517 34.2 34.5697 35.292 34.5697 39.1C34.5697 42.908 31.9517 44 28.7877 44H24.7557V34.2H28.7877ZM28.5777 42.544C31.2517 42.544 32.8057 41.634 32.8057 39.1C32.8057 36.58 31.2517 35.656 28.5777 35.656H26.4777V42.544H28.5777ZM39.8238 36.328C42.0078 36.328 44.1078 37.518 44.1078 40.276C44.1078 43.034 42.0078 44.21 39.8238 44.21C37.6398 44.21 35.5538 43.034 35.5538 40.276C35.5538 37.518 37.6398 36.328 39.8238 36.328ZM39.8238 42.936C41.8258 42.936 42.5118 41.578 42.5118 40.276C42.5118 38.96 41.8258 37.602 39.8238 37.602C37.8218 37.602 37.1358 38.96 37.1358 40.276C37.1358 41.578 37.8218 42.936 39.8238 42.936ZM55.8765 36.538H57.6965L54.7565 44H53.0765L51.0325 38.596L49.0025 44H47.3225L44.3825 36.538H46.2025L48.2045 42.012L50.2625 36.538H51.8165L53.8745 42.012L55.8765 36.538ZM63.5375 36.328C65.4835 36.328 66.5475 37.434 66.5475 39.17V44H64.8255V39.688C64.8255 38.428 64.1395 37.728 62.7815 37.728C61.4235 37.728 60.6815 38.512 60.6815 39.688V44H58.9595V36.538H60.6815V37.686C61.0315 37.196 61.9835 36.328 63.5375 36.328ZM79.023 36.538H80.843L77.903 44H76.223L74.179 38.596L72.149 44H70.469L67.529 36.538H69.349L71.351 42.012L73.409 36.538H74.963L77.021 42.012L79.023 36.538ZM85.0281 36.328C87.0861 36.328 88.8361 37.014 88.8361 39.156V44H87.1141V43.034C86.7501 43.454 85.8541 44.21 84.1041 44.21C82.3121 44.21 81.1221 43.468 81.1221 42.04C81.1221 40.5 81.9621 39.282 87.1141 39.618V39.156C87.1141 38.12 86.5821 37.602 85.0281 37.602C83.6981 37.602 83.1521 38.036 83.0261 38.666H81.4161C81.6401 37.098 83.0961 36.328 85.0281 36.328ZM87.1141 41.9V40.654C84.0061 40.5 82.8861 40.766 82.8861 41.928C82.8861 42.684 83.4741 43.062 84.4681 43.062C85.7841 43.062 86.6521 42.572 87.1141 41.9ZM95.5193 36.328C95.8553 36.328 96.0513 36.342 96.3453 36.384V38.092H96.2893C95.9953 38.008 95.6173 37.952 95.1413 37.952C93.2513 37.952 92.5373 39.044 92.5373 40.206V44H90.8013V36.538H92.5373V37.938C92.8733 37.392 93.9093 36.328 95.5193 36.328ZM103.658 34.2H105.38V44H103.658V43.02C103.07 43.734 102.174 44.21 100.928 44.21C98.7439 44.21 97.0499 42.796 97.0499 40.276C97.0499 37.742 98.7439 36.328 100.928 36.328C102.174 36.328 103.07 36.804 103.658 37.518V34.2ZM101.264 42.936C103.042 42.936 103.924 41.816 103.924 40.276C103.924 38.722 103.07 37.602 101.264 37.602C99.4439 37.602 98.6459 38.694 98.6459 40.276C98.6459 41.844 99.4719 42.936 101.264 42.936Z" fill="black"/>
<path d="M65.3027 100.707C65.6932 101.098 66.3263 101.098 66.7169 100.707L73.0808 94.3431C73.4714 93.9526 73.4714 93.3195 73.0808 92.9289C72.6903 92.5384 72.0571 92.5384 71.6666 92.9289L66.0098 98.5858L60.3529 92.9289C59.9624 92.5384 59.3292 92.5384 58.9387 92.9289C58.5482 93.3195 58.5482 93.9526 58.9387 94.3431L65.3027 100.707ZM66.0098 56L65.0098 56L65.0098 100L66.0098 100L67.0098 100L67.0098 56L66.0098 56Z" fill="black"/>
</svg>
