<svg width="130" height="130" viewBox="0 0 130 130" fill="none" xmlns="http://www.w3.org/2000/svg">
<rect x="0.5" y="0.5" width="129" height="129" rx="9.5" fill="white"/>
<rect x="0.5" y="0.5" width="129" height="129" rx="9.5" stroke="#D9D9D9"/>
<path d="M25.0235 34.2H27.7535V44H26.0315V35.586L22.3355 44H20.4735L16.7775 35.586V44H15.0555V34.2H17.7715L21.3975 42.474L25.0235 34.2ZM33.5689 36.328C35.7529 36.328 37.8529 37.518 37.8529 40.276C37.8529 43.034 35.7529 44.21 33.5689 44.21C31.3849 44.21 29.2989 43.034 29.2989 40.276C29.2989 37.518 31.3849 36.328 33.5689 36.328ZM33.5689 42.936C35.5709 42.936 36.2569 41.578 36.2569 40.276C36.2569 38.96 35.5709 37.602 33.5689 37.602C31.5669 37.602 30.8809 38.96 30.8809 40.276C30.8809 41.578 31.5669 42.936 33.5689 42.936ZM44.8057 36.538H46.6257L43.2797 44H41.4737L38.1277 36.538H39.9477L42.3837 42.32L44.8057 36.538ZM47.8921 44V36.538H49.6141V44H47.8921ZM48.7461 35.502C48.2141 35.502 47.8361 35.194 47.8361 34.662C47.8361 34.13 48.2141 33.822 48.7461 33.822C49.2921 33.822 49.6701 34.13 49.6701 34.662C49.6701 35.194 49.2921 35.502 48.7461 35.502ZM56.1478 36.328C58.0938 36.328 59.1578 37.434 59.1578 39.17V44H57.4358V39.688C57.4358 38.428 56.7498 37.728 55.3918 37.728C54.0338 37.728 53.2918 38.512 53.2918 39.688V44H51.5698V36.538H53.2918V37.686C53.6418 37.196 54.5938 36.328 56.1478 36.328ZM67.1748 36.538H68.8968V43.286C68.8968 46.17 66.6988 46.604 64.5568 46.604C62.2188 46.604 60.8188 45.778 60.6648 44.364H62.2608C62.3728 44.812 62.9328 45.302 64.5568 45.302C66.6428 45.302 67.1748 44.63 67.1748 43.286V42.46C66.6288 43.118 65.7468 43.538 64.4308 43.538C62.2608 43.538 60.5528 42.46 60.5528 40.01C60.5528 37.546 62.2608 36.328 64.4308 36.328C65.7468 36.328 66.6288 36.818 67.1748 37.546V36.538ZM64.7668 42.418C66.3768 42.418 67.4408 41.55 67.4408 40.01C67.4408 38.456 66.4048 37.602 64.7668 37.602C63.1428 37.602 62.1488 38.428 62.1488 40.01C62.1488 41.578 63.1568 42.418 64.7668 42.418ZM80.9694 34.2H82.6914V44H80.9694V43.02C80.3814 43.734 79.4854 44.21 78.2394 44.21C76.0554 44.21 74.3614 42.796 74.3614 40.276C74.3614 37.742 76.0554 36.328 78.2394 36.328C79.4854 36.328 80.3814 36.804 80.9694 37.518V34.2ZM78.5754 42.936C80.3534 42.936 81.2354 41.816 81.2354 40.276C81.2354 38.722 80.3814 37.602 78.5754 37.602C76.7554 37.602 75.9574 38.694 75.9574 40.276C75.9574 41.844 76.7834 42.936 78.5754 42.936ZM88.3658 36.328C90.5498 36.328 92.6498 37.518 92.6498 40.276C92.6498 43.034 90.5498 44.21 88.3658 44.21C86.1818 44.21 84.0958 43.034 84.0958 40.276C84.0958 37.518 86.1818 36.328 88.3658 36.328ZM88.3658 42.936C90.3678 42.936 91.0538 41.578 91.0538 40.276C91.0538 38.96 90.3678 37.602 88.3658 37.602C86.3638 37.602 85.6778 38.96 85.6778 40.276C85.6778 41.578 86.3638 42.936 88.3658 42.936ZM104.419 36.538H106.239L103.299 44H101.619L99.5745 38.596L97.5445 44H95.8645L92.9245 36.538H94.7445L96.7465 42.012L98.8045 36.538H100.359L102.417 42.012L104.419 36.538ZM112.079 36.328C114.025 36.328 115.089 37.434 115.089 39.17V44H113.367V39.688C113.367 38.428 112.681 37.728 111.323 37.728C109.965 37.728 109.223 38.512 109.223 39.688V44H107.501V36.538H109.223V37.686C109.573 37.196 110.525 36.328 112.079 36.328Z" fill="black"/>
<rect width="130" height="130" rx="10" fill="white"/>
<path d="M30.1993 34.2H31.9213V44H29.8633L23.9693 36.258V44H22.2333V34.2H24.2913L30.1993 41.942V34.2ZM37.3612 36.328C39.4192 36.328 41.1692 37.014 41.1692 39.156V44H39.4472V43.034C39.0832 43.454 38.1872 44.21 36.4372 44.21C34.6452 44.21 33.4552 43.468 33.4552 42.04C33.4552 40.5 34.2952 39.282 39.4472 39.618V39.156C39.4472 38.12 38.9152 37.602 37.3612 37.602C36.0312 37.602 35.4852 38.036 35.3592 38.666H33.7492C33.9732 37.098 35.4292 36.328 37.3612 36.328ZM39.4472 41.9V40.654C36.3392 40.5 35.2192 40.766 35.2192 41.928C35.2192 42.684 35.8072 43.062 36.8012 43.062C38.1172 43.062 38.9852 42.572 39.4472 41.9ZM46.8723 42.936C48.3843 42.936 49.1403 42.054 49.3503 41.214H50.9603C50.5963 43.202 48.8883 44.21 46.8723 44.21C44.6883 44.21 42.5743 43.034 42.5743 40.276C42.5743 37.518 44.6883 36.328 46.8723 36.328C48.8883 36.328 50.5963 37.336 50.9603 39.324H49.3503C49.1403 38.484 48.3843 37.602 46.8723 37.602C44.8703 37.602 44.1563 38.96 44.1563 40.276C44.1563 41.578 44.8703 42.936 46.8723 42.936ZM56.9408 36.328C58.8868 36.328 59.9508 37.434 59.9508 39.17V44H58.2288V39.688C58.2288 38.428 57.5428 37.728 56.1848 37.728C54.8268 37.728 54.0848 38.512 54.0848 39.688V44H52.3628V34.2H54.0848V37.686C54.4348 37.196 55.3868 36.328 56.9408 36.328ZM71.8323 36.538H73.5543V44H71.8323V42.852C71.4823 43.342 70.5303 44.21 68.9763 44.21C67.0303 44.21 65.9663 43.104 65.9663 41.368V36.538H67.6883V40.85C67.6883 42.11 68.3743 42.81 69.7323 42.81C71.0903 42.81 71.8323 42.026 71.8323 40.85V36.538ZM80.0873 36.328C82.0333 36.328 83.0973 37.434 83.0973 39.17V44H81.3753V39.688C81.3753 38.428 80.6893 37.728 79.3313 37.728C77.9733 37.728 77.2313 38.512 77.2313 39.688V44H75.5093V36.538H77.2313V37.686C77.5813 37.196 78.5333 36.328 80.0873 36.328ZM89.6508 37.854H87.3968V41.214C87.3968 42.474 87.9008 42.824 89.6508 42.642V43.986C89.3988 44.056 89.0208 44.112 88.6708 44.112C86.4028 44.112 85.6748 43.188 85.6748 41.214V37.854H84.2188V36.538H85.6748V34.606H87.3968V36.538H89.6508V37.854ZM94.8309 36.328C97.1969 36.328 99.1009 37.728 98.9049 40.822H92.1849C92.3809 42.096 93.2909 42.936 94.8589 42.936C96.3149 42.936 96.9309 42.236 97.1829 41.704H98.6949C98.3169 43.23 96.8609 44.21 94.8589 44.21C92.7309 44.21 90.6309 42.992 90.6309 40.276C90.6309 37.602 92.6889 36.328 94.8309 36.328ZM92.2269 39.562H97.3649C97.1409 38.386 96.3289 37.602 94.8309 37.602C93.4449 37.602 92.4929 38.386 92.2269 39.562ZM104.902 36.328C106.848 36.328 107.912 37.434 107.912 39.17V44H106.19V39.688C106.19 38.428 105.504 37.728 104.146 37.728C102.788 37.728 102.046 38.512 102.046 39.688V44H100.324V36.538H102.046V37.686C102.396 37.196 103.348 36.328 104.902 36.328Z" fill="black"/>
<path d="M65.3027 100.707C65.6932 101.098 66.3263 101.098 66.7169 100.707L73.0808 94.3431C73.4714 93.9526 73.4714 93.3195 73.0808 92.9289C72.6903 92.5384 72.0571 92.5384 71.6666 92.9289L66.0098 98.5858L60.3529 92.9289C59.9624 92.5384 59.3292 92.5384 58.9387 92.9289C58.5482 93.3195 58.5482 93.9526 58.9387 94.3431L65.3027 100.707ZM66.0098 56L65.0098 56L65.0098 100L66.0098 100L67.0098 100L67.0098 56L66.0098 56Z" fill="black"/>
</svg>
