<svg width="130" height="130" viewBox="0 0 130 130" fill="none" xmlns="http://www.w3.org/2000/svg">
<rect width="130" height="130" rx="10" fill="white"/>
<path d="M18.0843 33C20.3443 33 22.2143 33.78 22.2143 36.5C22.2143 39.22 20.3443 40 18.0843 40H15.2043V33H18.0843ZM17.9343 38.96C19.8443 38.96 20.9543 38.31 20.9543 36.5C20.9543 34.7 19.8443 34.04 17.9343 34.04H16.4343V38.96H17.9343ZM25.9672 34.52C27.5272 34.52 29.0272 35.37 29.0272 37.34C29.0272 39.31 27.5272 40.15 25.9672 40.15C24.4072 40.15 22.9172 39.31 22.9172 37.34C22.9172 35.37 24.4072 34.52 25.9672 34.52ZM25.9672 39.24C27.3972 39.24 27.8872 38.27 27.8872 37.34C27.8872 36.4 27.3972 35.43 25.9672 35.43C24.5372 35.43 24.0472 36.4 24.0472 37.34C24.0472 38.27 24.5372 39.24 25.9672 39.24ZM33.2162 34.52C34.7762 34.52 35.9862 35.53 35.9862 37.34C35.9862 39.14 34.7762 40.15 33.2162 40.15C32.3162 40.15 31.6762 39.81 31.2562 39.3V40H30.0262V33H31.2562V35.37C31.6762 34.86 32.3162 34.52 33.2162 34.52ZM32.9762 39.24C34.2562 39.24 34.8462 38.46 34.8462 37.34C34.8462 36.21 34.2662 35.43 32.9762 35.43C31.6862 35.43 31.0762 36.23 31.0762 37.34C31.0762 38.44 31.6962 39.24 32.9762 39.24ZM36.9891 32.62H38.2191V40H36.9891V32.62ZM42.006 34.52C43.476 34.52 44.726 35.01 44.726 36.54V40H43.496V39.31C43.236 39.61 42.596 40.15 41.346 40.15C40.066 40.15 39.216 39.62 39.216 38.6C39.216 37.5 39.816 36.63 43.496 36.87V36.54C43.496 35.8 43.116 35.43 42.006 35.43C41.056 35.43 40.666 35.74 40.576 36.19H39.426C39.586 35.07 40.626 34.52 42.006 34.52ZM43.496 38.5V37.61C41.276 37.5 40.476 37.69 40.476 38.52C40.476 39.06 40.896 39.33 41.606 39.33C42.546 39.33 43.166 38.98 43.496 38.5ZM50.4497 33H51.6797V40H50.4497V39.3C50.0297 39.81 49.3897 40.15 48.4997 40.15C46.9397 40.15 45.7297 39.14 45.7297 37.34C45.7297 35.53 46.9397 34.52 48.4997 34.52C49.3897 34.52 50.0297 34.86 50.4497 35.37V33ZM48.7397 39.24C50.0097 39.24 50.6397 38.44 50.6397 37.34C50.6397 36.23 50.0297 35.43 48.7397 35.43C47.4397 35.43 46.8697 36.21 46.8697 37.34C46.8697 38.46 47.4597 39.24 48.7397 39.24ZM53.0828 40V34.67H54.3128V40H53.0828ZM53.6928 33.93C53.3128 33.93 53.0428 33.71 53.0428 33.33C53.0428 32.95 53.3128 32.73 53.6928 32.73C54.0828 32.73 54.3528 32.95 54.3528 33.33C54.3528 33.71 54.0828 33.93 53.6928 33.93ZM55.7098 32.62H56.9398V40H55.7098V32.62ZM58.3367 32.62H59.5667V40H58.3367V32.62ZM63.6137 34.52C65.1737 34.52 66.6737 35.37 66.6737 37.34C66.6737 39.31 65.1737 40.15 63.6137 40.15C62.0537 40.15 60.5637 39.31 60.5637 37.34C60.5637 35.37 62.0537 34.52 63.6137 34.52ZM63.6137 39.24C65.0437 39.24 65.5337 38.27 65.5337 37.34C65.5337 36.4 65.0437 35.43 63.6137 35.43C62.1837 35.43 61.6937 36.4 61.6937 37.34C61.6937 38.27 62.1837 39.24 63.6137 39.24ZM73.383 36.88C74.893 37.14 75.743 37.34 75.743 38.39C75.743 39.63 74.713 40.15 72.933 40.15C71.313 40.15 70.073 39.59 70.073 38.38H71.343C71.343 38.96 71.913 39.22 73.033 39.22C74.123 39.22 74.513 38.95 74.513 38.55C74.513 37.96 73.623 37.95 72.263 37.7C70.883 37.44 70.273 37.12 70.273 36.17C70.273 35.1 71.273 34.52 72.843 34.52C74.553 34.52 75.473 35.2 75.473 36.19H74.323C74.323 35.85 73.963 35.43 72.823 35.43C71.753 35.43 71.383 35.7 71.383 36.11C71.383 36.65 72.433 36.72 73.383 36.88ZM80.9349 34.67H82.1649V40H80.9349V39.18C80.6849 39.53 80.0049 40.15 78.8949 40.15C77.5049 40.15 76.7449 39.36 76.7449 38.12V34.67H77.9749V37.75C77.9749 38.65 78.4649 39.15 79.4349 39.15C80.4049 39.15 80.9349 38.59 80.9349 37.75V34.67ZM86.7413 34.52C88.3013 34.52 89.5113 35.53 89.5113 37.34C89.5113 39.14 88.3013 40.15 86.7413 40.15C85.8513 40.15 85.2113 39.81 84.7913 39.3V41.67H83.5613V34.67H84.7913V35.37C85.2113 34.86 85.8513 34.52 86.7413 34.52ZM86.5013 39.24C87.8013 39.24 88.3713 38.46 88.3713 37.34C88.3713 36.21 87.7813 35.43 86.5013 35.43C85.2213 35.43 84.6013 36.23 84.6013 37.34C84.6013 38.44 85.2113 39.24 86.5013 39.24ZM93.1145 34.52C94.8045 34.52 96.1645 35.52 96.0245 37.73H91.2245C91.3645 38.64 92.0145 39.24 93.1345 39.24C94.1745 39.24 94.6145 38.74 94.7945 38.36H95.8745C95.6045 39.45 94.5645 40.15 93.1345 40.15C91.6145 40.15 90.1145 39.28 90.1145 37.34C90.1145 35.43 91.5845 34.52 93.1145 34.52ZM91.2545 36.83H94.9245C94.7645 35.99 94.1845 35.43 93.1145 35.43C92.1245 35.43 91.4445 35.99 91.2545 36.83ZM100.408 34.52C100.648 34.52 100.788 34.53 100.998 34.56V35.78H100.958C100.748 35.72 100.478 35.68 100.138 35.68C98.7879 35.68 98.2779 36.46 98.2779 37.29V40H97.0379V34.67H98.2779V35.67C98.5179 35.28 99.2579 34.52 100.408 34.52ZM101.999 40V34.67H103.229V40H101.999ZM102.609 33.93C102.229 33.93 101.959 33.71 101.959 33.33C101.959 32.95 102.229 32.73 102.609 32.73C102.999 32.73 103.269 32.95 103.269 33.33C103.269 33.71 102.999 33.93 102.609 33.93ZM107.276 34.52C108.836 34.52 110.336 35.37 110.336 37.34C110.336 39.31 108.836 40.15 107.276 40.15C105.716 40.15 104.226 39.31 104.226 37.34C104.226 35.37 105.716 34.52 107.276 34.52ZM107.276 39.24C108.706 39.24 109.196 38.27 109.196 37.34C109.196 36.4 108.706 35.43 107.276 35.43C105.846 35.43 105.356 36.4 105.356 37.34C105.356 38.27 105.846 39.24 107.276 39.24ZM114.705 34.52C114.945 34.52 115.085 34.53 115.295 34.56V35.78H115.255C115.045 35.72 114.775 35.68 114.435 35.68C113.085 35.68 112.575 36.46 112.575 37.29V40H111.335V34.67H112.575V35.67C112.815 35.28 113.555 34.52 114.705 34.52ZM17.3918 47.52C19.0818 47.52 20.4418 48.52 20.3018 50.73H15.5018C15.6418 51.64 16.2918 52.24 17.4118 52.24C18.4518 52.24 18.8918 51.74 19.0718 51.36H20.1518C19.8818 52.45 18.8418 53.15 17.4118 53.15C15.8918 53.15 14.3918 52.28 14.3918 50.34C14.3918 48.43 15.8618 47.52 17.3918 47.52ZM15.5318 49.83H19.2018C19.0418 48.99 18.4618 48.43 17.3918 48.43C16.4018 48.43 15.7218 48.99 15.5318 49.83ZM24.5852 47.52C25.9752 47.52 26.7352 48.31 26.7352 49.55V53H25.5052V49.92C25.5052 49.02 25.0152 48.52 24.0452 48.52C23.0752 48.52 22.5452 49.08 22.5452 49.92V53H21.3152V47.67H22.5452V48.49C22.7952 48.14 23.4752 47.52 24.5852 47.52ZM31.5016 47.52C31.7416 47.52 31.8816 47.53 32.0916 47.56V48.78H32.0516C31.8416 48.72 31.5716 48.68 31.2316 48.68C29.8816 48.68 29.3716 49.46 29.3716 50.29V53H28.1316V47.67H29.3716V48.67C29.6116 48.28 30.3516 47.52 31.5016 47.52ZM35.6449 47.52C37.2049 47.52 38.7049 48.37 38.7049 50.34C38.7049 52.31 37.2049 53.15 35.6449 53.15C34.0849 53.15 32.5949 52.31 32.5949 50.34C32.5949 48.37 34.0849 47.52 35.6449 47.52ZM35.6449 52.24C37.0749 52.24 37.5649 51.27 37.5649 50.34C37.5649 49.4 37.0749 48.43 35.6449 48.43C34.2149 48.43 33.7249 49.4 33.7249 50.34C33.7249 51.27 34.2149 52.24 35.6449 52.24ZM39.7039 45.62H40.9339V53H39.7039V45.62ZM42.3309 45.62H43.5609V53H42.3309V45.62ZM47.3478 47.52C48.8178 47.52 50.0678 48.01 50.0678 49.54V53H48.8378V52.31C48.5778 52.61 47.9378 53.15 46.6878 53.15C45.4078 53.15 44.5578 52.62 44.5578 51.6C44.5578 50.5 45.1578 49.63 48.8378 49.87V49.54C48.8378 48.8 48.4578 48.43 47.3478 48.43C46.3978 48.43 46.0078 48.74 45.9178 49.19H44.7678C44.9278 48.07 45.9678 47.52 47.3478 47.52ZM48.8378 51.5V50.61C46.6178 50.5 45.8178 50.69 45.8178 51.52C45.8178 52.06 46.2378 52.33 46.9478 52.33C47.8878 52.33 48.5078 51.98 48.8378 51.5ZM47.6278 45.65H48.9278L47.6878 46.94H46.8878L47.6278 45.65ZM54.7415 47.52C56.1315 47.52 56.8915 48.31 56.8915 49.55V53H55.6615V49.92C55.6615 49.02 55.1715 48.52 54.2015 48.52C53.2315 48.52 52.7015 49.08 52.7015 49.92V53H51.4715V47.67H52.7015V48.49C52.9515 48.14 53.6315 47.52 54.7415 47.52ZM62.6079 46H63.8379V53H62.6079V52.3C62.1879 52.81 61.5479 53.15 60.6579 53.15C59.0979 53.15 57.8879 52.14 57.8879 50.34C57.8879 48.53 59.0979 47.52 60.6579 47.52C61.5479 47.52 62.1879 47.86 62.6079 48.37V46ZM60.8979 52.24C62.1679 52.24 62.7979 51.44 62.7979 50.34C62.7979 49.23 62.1879 48.43 60.8979 48.43C59.5979 48.43 59.0279 49.21 59.0279 50.34C59.0279 51.46 59.6179 52.24 60.8979 52.24ZM67.891 47.52C69.451 47.52 70.951 48.37 70.951 50.34C70.951 52.31 69.451 53.15 67.891 53.15C66.331 53.15 64.841 52.31 64.841 50.34C64.841 48.37 66.331 47.52 67.891 47.52ZM67.891 52.24C69.321 52.24 69.811 51.27 69.811 50.34C69.811 49.4 69.321 48.43 67.891 48.43C66.461 48.43 65.971 49.4 65.971 50.34C65.971 51.27 66.461 52.24 67.891 52.24ZM74.76 49.88C76.27 50.14 77.12 50.34 77.12 51.39C77.12 52.63 76.09 53.15 74.31 53.15C72.69 53.15 71.45 52.59 71.45 51.38H72.72C72.72 51.96 73.29 52.22 74.41 52.22C75.5 52.22 75.89 51.95 75.89 51.55C75.89 50.96 75 50.95 73.64 50.7C72.26 50.44 71.65 50.12 71.65 49.17C71.65 48.1 72.65 47.52 74.22 47.52C75.93 47.52 76.85 48.2 76.85 49.19H75.7C75.7 48.85 75.34 48.43 74.2 48.43C73.13 48.43 72.76 48.7 72.76 49.11C72.76 49.65 73.81 49.72 74.76 49.88ZM80.7219 47.52C82.4119 47.52 83.7719 48.52 83.6319 50.73H78.8319C78.9719 51.64 79.6219 52.24 80.7419 52.24C81.7819 52.24 82.2219 51.74 82.4019 51.36H83.4819C83.2119 52.45 82.1719 53.15 80.7419 53.15C79.2219 53.15 77.7219 52.28 77.7219 50.34C77.7219 48.43 79.1919 47.52 80.7219 47.52ZM78.8619 49.83H82.5319C82.3719 48.99 81.7919 48.43 80.7219 48.43C79.7319 48.43 79.0519 48.99 78.8619 49.83ZM90.8157 47.52C92.2057 47.52 92.9657 48.31 92.9657 49.55V53H91.7357V49.92C91.7357 49.02 91.2457 48.52 90.2757 48.52C89.3057 48.52 88.7757 49.08 88.7757 49.92V53H87.5457V46H88.7757V48.49C89.0257 48.14 89.7057 47.52 90.8157 47.52ZM96.7521 47.52C98.2221 47.52 99.4721 48.01 99.4721 49.54V53H98.2421V52.31C97.9821 52.61 97.3421 53.15 96.0921 53.15C94.8121 53.15 93.9621 52.62 93.9621 51.6C93.9621 50.5 94.5621 49.63 98.2421 49.87V49.54C98.2421 48.8 97.8621 48.43 96.7521 48.43C95.8021 48.43 95.4121 48.74 95.3221 49.19H94.1721C94.3321 48.07 95.3721 47.52 96.7521 47.52ZM98.2421 51.5V50.61C96.0221 50.5 95.2221 50.69 95.2221 51.52C95.2221 52.06 95.6421 52.33 96.3521 52.33C97.2921 52.33 97.9121 51.98 98.2421 51.5ZM103.546 52.24C104.626 52.24 105.166 51.61 105.316 51.01H106.466C106.206 52.43 104.986 53.15 103.546 53.15C101.986 53.15 100.476 52.31 100.476 50.34C100.476 48.37 101.986 47.52 103.546 47.52C104.986 47.52 106.206 48.24 106.466 49.66H105.316C105.166 49.06 104.626 48.43 103.546 48.43C102.116 48.43 101.606 49.4 101.606 50.34C101.606 51.27 102.116 52.24 103.546 52.24ZM107.468 53V47.67H108.698V53H107.468ZM108.078 46.93C107.698 46.93 107.428 46.71 107.428 46.33C107.428 45.95 107.698 45.73 108.078 45.73C108.468 45.73 108.738 45.95 108.738 46.33C108.738 46.71 108.468 46.93 108.078 46.93ZM112.485 47.52C113.955 47.52 115.205 48.01 115.205 49.54V53H113.975V52.31C113.715 52.61 113.075 53.15 111.825 53.15C110.545 53.15 109.695 52.62 109.695 51.6C109.695 50.5 110.295 49.63 113.975 49.87V49.54C113.975 48.8 113.595 48.43 112.485 48.43C111.535 48.43 111.145 48.74 111.055 49.19H109.905C110.065 48.07 111.105 47.52 112.485 47.52ZM113.975 51.5V50.61C111.755 50.5 110.955 50.69 110.955 51.52C110.955 52.06 111.375 52.33 112.085 52.33C113.025 52.33 113.645 51.98 113.975 51.5ZM53.4269 60.52C54.8969 60.52 56.1469 61.01 56.1469 62.54V66H54.9169V65.31C54.6569 65.61 54.0169 66.15 52.7669 66.15C51.4869 66.15 50.6369 65.62 50.6369 64.6C50.6369 63.5 51.2369 62.63 54.9169 62.87V62.54C54.9169 61.8 54.5369 61.43 53.4269 61.43C52.4769 61.43 52.0869 61.74 51.9969 62.19H50.8469C51.0069 61.07 52.0469 60.52 53.4269 60.52ZM54.9169 64.5V63.61C52.6969 63.5 51.8969 63.69 51.8969 64.52C51.8969 65.06 52.3169 65.33 53.0269 65.33C53.9669 65.33 54.5869 64.98 54.9169 64.5ZM60.7406 60.52C62.3006 60.52 63.5106 61.53 63.5106 63.34C63.5106 65.14 62.3006 66.15 60.7406 66.15C59.8406 66.15 59.2006 65.81 58.7806 65.3V66H57.5506V59H58.7806V61.37C59.2006 60.86 59.8406 60.52 60.7406 60.52ZM60.5006 65.24C61.7806 65.24 62.3706 64.46 62.3706 63.34C62.3706 62.21 61.7906 61.43 60.5006 61.43C59.2106 61.43 58.6006 62.23 58.6006 63.34C58.6006 64.44 59.2206 65.24 60.5006 65.24ZM66.9035 60.52C68.3735 60.52 69.6235 61.01 69.6235 62.54V66H68.3935V65.31C68.1335 65.61 67.4935 66.15 66.2435 66.15C64.9635 66.15 64.1135 65.62 64.1135 64.6C64.1135 63.5 64.7135 62.63 68.3935 62.87V62.54C68.3935 61.8 68.0135 61.43 66.9035 61.43C65.9535 61.43 65.5635 61.74 65.4735 62.19H64.3235C64.4835 61.07 65.5235 60.52 66.9035 60.52ZM68.3935 64.5V63.61C66.1735 63.5 65.3735 63.69 65.3735 64.52C65.3735 65.06 65.7935 65.33 66.5035 65.33C67.4435 65.33 68.0635 64.98 68.3935 64.5ZM71.0271 65.91V60.67H72.2571V65.91C72.2571 66.81 72.1071 67.86 70.6071 67.86C70.3471 67.86 70.2071 67.84 69.9771 67.81V66.8C70.9271 66.85 71.0271 66.55 71.0271 65.91ZM71.6371 59.93C71.2571 59.93 70.9871 59.71 70.9871 59.33C70.9871 58.95 71.2571 58.73 71.6371 58.73C72.0271 58.73 72.2971 58.95 72.2971 59.33C72.2971 59.71 72.0271 59.93 71.6371 59.93ZM76.3041 60.52C77.8641 60.52 79.3641 61.37 79.3641 63.34C79.3641 65.31 77.8641 66.15 76.3041 66.15C74.7441 66.15 73.2541 65.31 73.2541 63.34C73.2541 61.37 74.7441 60.52 76.3041 60.52ZM76.3041 65.24C77.7341 65.24 78.2241 64.27 78.2241 63.34C78.2241 62.4 77.7341 61.43 76.3041 61.43C74.8741 61.43 74.3841 62.4 74.3841 63.34C74.3841 64.27 74.8741 65.24 76.3041 65.24Z" fill="black"/>
<path d="M56.4999 105C56.4999 97.7395 56.2515 91.6276 55.0233 87.3438C54.4122 85.2124 53.5837 83.6303 52.5077 82.5869C51.4599 81.5711 50.1103 81 48.287 81C46.8533 81.0001 45.8443 81.486 45.0849 82.2764C44.2951 83.0985 43.7175 84.3132 43.3153 85.8428C42.6892 88.2245 42.5443 91.1304 42.5106 93.9453L47.1561 89.2998C47.5465 88.9094 48.1797 88.9097 48.5702 89.2998C48.9608 89.6903 48.9607 90.3233 48.5702 90.7139L42.2069 97.0781C41.8165 97.4686 41.1834 97.4694 40.7929 97.0791L34.4286 90.7148C34.0381 90.3243 34.0381 89.6913 34.4286 89.3008C34.8191 88.9103 35.4522 88.9103 35.8427 89.3008L40.5106 93.9668C40.5433 91.0919 40.6917 87.9549 41.3808 85.334C41.8271 83.6365 42.5232 82.0569 43.6425 80.8916C44.7919 79.6949 46.3276 79.0001 48.287 79C50.5849 79 52.448 79.7431 53.9003 81.1514C55.3244 82.5324 56.2845 84.485 56.9462 86.793C58.2636 91.3881 58.4999 97.7766 58.4999 105V106H56.4999V105ZM70.4999 105C70.4999 97.7774 70.751 91.3808 72.1532 86.7773C72.8585 84.4621 73.8804 82.5083 75.3895 81.1309C76.9228 79.7315 78.879 79.0001 81.288 79C83.3343 79 84.9434 79.6809 86.1571 80.8701C87.3438 82.0329 88.0852 83.6147 88.5614 85.3193C89.2955 87.9471 89.4535 91.0909 89.4882 93.9678L94.1571 89.3008C94.5476 88.9103 95.1807 88.9103 95.5712 89.3008C95.9617 89.6913 95.9617 90.3243 95.5712 90.7148L89.2069 97.0791C88.8164 97.4694 88.1833 97.4686 87.7929 97.0781L81.4296 90.7139C81.0391 90.3233 81.039 89.6903 81.4296 89.2998C81.8201 88.9096 82.4532 88.9094 82.8436 89.2998L87.4872 93.9443C87.4514 91.1315 87.2991 88.2324 86.6356 85.8574C86.2104 84.335 85.5993 83.1225 84.7577 82.2979C83.9431 81.4998 82.8472 81 81.288 81C79.3183 81.0001 77.8612 81.5835 76.7382 82.6084C75.5912 83.6553 74.7133 85.2363 74.0663 87.3604C72.764 91.6359 72.4999 97.739 72.4999 105V106H70.4999V105Z" fill="black"/>
</svg>
