<svg width="130" height="130" viewBox="0 0 130 130" fill="none" xmlns="http://www.w3.org/2000/svg">
<rect width="130" height="130" rx="10" fill="white"/>
<path d="M26.6581 33.432C29.2741 33.432 31.4941 34.896 31.4941 37.8C31.4941 40.704 29.2741 42.18 26.6581 42.18C24.0301 42.18 21.8101 40.704 21.8101 37.8C21.8101 34.896 24.0301 33.432 26.6581 33.432ZM26.6581 40.944C28.7821 40.944 29.9701 39.672 29.9701 37.8C29.9701 35.94 28.7821 34.668 26.6581 34.668C24.5221 34.668 23.3341 35.94 23.3341 37.8C23.3341 39.672 24.5221 40.944 26.6581 40.944ZM36.6387 35.424C38.5107 35.424 39.9627 36.636 39.9627 38.808C39.9627 40.968 38.5107 42.18 36.6387 42.18C35.5587 42.18 34.7907 41.772 34.2867 41.16V42H32.8107V33.6H34.2867V36.444C34.7907 35.832 35.5587 35.424 36.6387 35.424ZM36.3507 41.088C37.8867 41.088 38.5947 40.152 38.5947 38.808C38.5947 37.452 37.8987 36.516 36.3507 36.516C34.8027 36.516 34.0707 37.476 34.0707 38.808C34.0707 40.128 34.8147 41.088 36.3507 41.088ZM44.2862 35.424C46.3142 35.424 47.9462 36.624 47.7782 39.276H42.0182C42.1862 40.368 42.9662 41.088 44.3102 41.088C45.5582 41.088 46.0862 40.488 46.3022 40.032H47.5982C47.2742 41.34 46.0262 42.18 44.3102 42.18C42.4862 42.18 40.6862 41.136 40.6862 38.808C40.6862 36.516 42.4502 35.424 44.2862 35.424ZM42.0542 38.196H46.4582C46.2662 37.188 45.5702 36.516 44.2862 36.516C43.0982 36.516 42.2822 37.188 42.0542 38.196ZM53.0383 35.424C53.3263 35.424 53.4943 35.436 53.7463 35.472V36.936H53.6983C53.4463 36.864 53.1223 36.816 52.7143 36.816C51.0943 36.816 50.4823 37.752 50.4823 38.748V42H48.9943V35.604H50.4823V36.804C50.7703 36.336 51.6583 35.424 53.0383 35.424ZM57.9502 35.424C59.9782 35.424 61.6102 36.624 61.4422 39.276H55.6822C55.8502 40.368 56.6302 41.088 57.9742 41.088C59.2222 41.088 59.7502 40.488 59.9662 40.032H61.2622C60.9382 41.34 59.6902 42.18 57.9742 42.18C56.1502 42.18 54.3502 41.136 54.3502 38.808C54.3502 36.516 56.1142 35.424 57.9502 35.424ZM55.7182 38.196H60.1222C59.9302 37.188 59.2342 36.516 57.9502 36.516C56.7622 36.516 55.9462 37.188 55.7182 38.196ZM66.7024 35.424C66.9904 35.424 67.1584 35.436 67.4104 35.472V36.936H67.3624C67.1104 36.864 66.7864 36.816 66.3784 36.816C64.7584 36.816 64.1464 37.752 64.1464 38.748V42H62.6584V35.604H64.1464V36.804C64.4344 36.336 65.3224 35.424 66.7024 35.424ZM76.196 37.152C78.572 37.476 80 37.836 80 39.468C80 41.052 78.812 42.18 75.872 42.18C72.74 42.18 71.492 41.016 71.492 39.504H73.076C73.124 40.38 74.108 40.932 75.92 40.932C77.48 40.932 78.464 40.548 78.464 39.648C78.464 38.64 77.072 38.724 74.732 38.34C72.716 38.016 71.78 37.368 71.78 36C71.78 34.536 72.848 33.432 75.62 33.432C78.5 33.432 79.592 34.74 79.592 35.94H78.08C78.008 35.328 77.372 34.68 75.584 34.68C73.712 34.68 73.268 35.244 73.268 35.892C73.268 36.804 74.396 36.9 76.196 37.152ZM84.0654 35.424C85.8294 35.424 87.3294 36.012 87.3294 37.848V42H85.8534V41.172C85.5414 41.532 84.7734 42.18 83.2734 42.18C81.7374 42.18 80.7174 41.544 80.7174 40.32C80.7174 39 81.4374 37.956 85.8534 38.244V37.848C85.8534 36.96 85.3974 36.516 84.0654 36.516C82.9254 36.516 82.4574 36.888 82.3494 37.428H80.9694C81.1614 36.084 82.4094 35.424 84.0654 35.424ZM85.8534 40.2V39.132C83.1894 39 82.2294 39.228 82.2294 40.224C82.2294 40.872 82.7334 41.196 83.5854 41.196C84.7134 41.196 85.4574 40.776 85.8534 40.2ZM94.0418 35.604H95.5178V42H94.0418V41.016C93.7418 41.436 92.9258 42.18 91.5938 42.18C89.9258 42.18 89.0138 41.232 89.0138 39.744V35.604H90.4898V39.3C90.4898 40.38 91.0778 40.98 92.2418 40.98C93.4058 40.98 94.0418 40.308 94.0418 39.3V35.604ZM105.354 35.424C107.022 35.424 107.826 36.372 107.826 37.86V42H106.338V38.304C106.338 37.224 105.942 36.624 104.814 36.624C103.698 36.624 103.242 37.344 103.242 38.304V42H101.766V38.304C101.766 37.224 101.358 36.624 100.242 36.624C99.1255 36.624 98.6695 37.344 98.6695 38.304V42H97.1935V35.604H98.6695V36.54C98.9095 36.12 99.5215 35.424 100.77 35.424C101.874 35.424 102.594 35.832 102.954 36.54C103.278 36.108 104.07 35.424 105.354 35.424ZM18.7024 50.424C18.9904 50.424 19.1584 50.436 19.4104 50.472V51.936H19.3624C19.1104 51.864 18.7864 51.816 18.3784 51.816C16.7584 51.816 16.1464 52.752 16.1464 53.748V57H14.6584V50.604H16.1464V51.804C16.4344 51.336 17.3224 50.424 18.7024 50.424ZM23.6743 50.424C25.5463 50.424 27.3463 51.444 27.3463 53.808C27.3463 56.172 25.5463 57.18 23.6743 57.18C21.8023 57.18 20.0143 56.172 20.0143 53.808C20.0143 51.444 21.8023 50.424 23.6743 50.424ZM23.6743 56.088C25.3903 56.088 25.9783 54.924 25.9783 53.808C25.9783 52.68 25.3903 51.516 23.6743 51.516C21.9583 51.516 21.3703 52.68 21.3703 53.808C21.3703 54.924 21.9583 56.088 23.6743 56.088ZM28.5451 48.144H30.0211V57H28.5451V48.144ZM31.6974 48.144H33.1734V57H31.6974V48.144ZM38.9086 51.732H36.9766V54.612C36.9766 55.692 37.4086 55.992 38.9086 55.836V56.988C38.6926 57.048 38.3686 57.096 38.0686 57.096C36.1246 57.096 35.5006 56.304 35.5006 54.612V51.732H34.2526V50.604H35.5006V48.948H36.9766V50.604H38.9086V51.732ZM47.7503 50.424C49.4183 50.424 50.3303 51.372 50.3303 52.86V57H48.8543V53.304C48.8543 52.224 48.2663 51.624 47.1023 51.624C45.9383 51.624 45.3023 52.296 45.3023 53.304V57H43.8263V50.604H45.3023V51.588C45.6023 51.168 46.4183 50.424 47.7503 50.424ZM54.874 50.424C56.638 50.424 58.138 51.012 58.138 52.848V57H56.662V56.172C56.35 56.532 55.582 57.18 54.082 57.18C52.546 57.18 51.526 56.544 51.526 55.32C51.526 54 52.246 52.956 56.662 53.244V52.848C56.662 51.96 56.206 51.516 54.874 51.516C53.734 51.516 53.266 51.888 53.158 52.428H51.778C51.97 51.084 53.218 50.424 54.874 50.424ZM56.662 55.2V54.132C53.998 54 53.038 54.228 53.038 55.224C53.038 55.872 53.542 56.196 54.394 56.196C55.522 56.196 56.266 55.776 56.662 55.2ZM63.0264 56.088C64.3224 56.088 64.9704 55.332 65.1504 54.612H66.5304C66.2184 56.316 64.7544 57.18 63.0264 57.18C61.1544 57.18 59.3424 56.172 59.3424 53.808C59.3424 51.444 61.1544 50.424 63.0264 50.424C64.7544 50.424 66.2184 51.288 66.5304 52.992H65.1504C64.9704 52.272 64.3224 51.516 63.0264 51.516C61.3104 51.516 60.6984 52.68 60.6984 53.808C60.6984 54.924 61.3104 56.088 63.0264 56.088ZM71.6566 50.424C73.3246 50.424 74.2366 51.372 74.2366 52.86V57H72.7606V53.304C72.7606 52.224 72.1726 51.624 71.0086 51.624C69.8446 51.624 69.2086 52.296 69.2086 53.304V57H67.7326V48.6H69.2086V51.588C69.5086 51.168 70.3246 50.424 71.6566 50.424ZM84.4207 50.604H85.8967V57H84.4207V56.016C84.1207 56.436 83.3047 57.18 81.9727 57.18C80.3047 57.18 79.3927 56.232 79.3927 54.744V50.604H80.8687V54.3C80.8687 55.38 81.4567 55.98 82.6207 55.98C83.7847 55.98 84.4207 55.308 84.4207 54.3V50.604ZM91.4964 50.424C93.1644 50.424 94.0764 51.372 94.0764 52.86V57H92.6004V53.304C92.6004 52.224 92.0124 51.624 90.8484 51.624C89.6844 51.624 89.0484 52.296 89.0484 53.304V57H87.5724V50.604H89.0484V51.588C89.3484 51.168 90.1644 50.424 91.4964 50.424ZM99.6937 51.732H97.7617V54.612C97.7617 55.692 98.1937 55.992 99.6937 55.836V56.988C99.4777 57.048 99.1537 57.096 98.8537 57.096C96.9097 57.096 96.2857 56.304 96.2857 54.612V51.732H95.0377V50.604H96.2857V48.948H97.7617V50.604H99.6937V51.732ZM104.134 50.424C106.162 50.424 107.794 51.624 107.626 54.276H101.866C102.034 55.368 102.814 56.088 104.158 56.088C105.406 56.088 105.934 55.488 106.15 55.032H107.446C107.122 56.34 105.874 57.18 104.158 57.18C102.334 57.18 100.534 56.136 100.534 53.808C100.534 51.516 102.298 50.424 104.134 50.424ZM101.902 53.196H106.306C106.114 52.188 105.418 51.516 104.134 51.516C102.946 51.516 102.13 52.188 101.902 53.196ZM112.766 50.424C114.434 50.424 115.346 51.372 115.346 52.86V57H113.87V53.304C113.87 52.224 113.282 51.624 112.118 51.624C110.954 51.624 110.318 52.296 110.318 53.304V57H108.842V50.604H110.318V51.588C110.618 51.168 111.434 50.424 112.766 50.424Z" fill="black"/>
<path d="M56.4999 96C56.4999 88.7395 56.2515 82.6276 55.0233 78.3438C54.4122 76.2124 53.5837 74.6303 52.5077 73.5869C51.4599 72.5711 50.1103 72 48.287 72C46.8533 72.0001 45.8443 72.486 45.0849 73.2764C44.2951 74.0985 43.7175 75.3132 43.3153 76.8428C42.6892 79.2245 42.5443 82.1304 42.5106 84.9453L47.1561 80.2998C47.5465 79.9094 48.1797 79.9097 48.5702 80.2998C48.9608 80.6903 48.9607 81.3233 48.5702 81.7139L42.2069 88.0781C41.8165 88.4686 41.1834 88.4694 40.7929 88.0791L34.4286 81.7148C34.0381 81.3243 34.0381 80.6913 34.4286 80.3008C34.8191 79.9103 35.4522 79.9103 35.8427 80.3008L40.5106 84.9668C40.5433 82.0919 40.6917 78.9549 41.3808 76.334C41.8271 74.6365 42.5232 73.0569 43.6425 71.8916C44.7919 70.6949 46.3276 70.0001 48.287 70C50.5849 70 52.448 70.7431 53.9003 72.1514C55.3244 73.5324 56.2845 75.485 56.9462 77.793C58.2636 82.3881 58.4999 88.7766 58.4999 96V97H56.4999V96ZM70.4999 96C70.4999 88.7774 70.751 82.3808 72.1532 77.7773C72.8585 75.4621 73.8804 73.5083 75.3895 72.1309C76.9228 70.7315 78.879 70.0001 81.288 70C83.3343 70 84.9434 70.6809 86.1571 71.8701C87.3438 73.0329 88.0852 74.6147 88.5614 76.3193C89.2955 78.9471 89.4535 82.0909 89.4882 84.9678L94.1571 80.3008C94.5476 79.9103 95.1807 79.9103 95.5712 80.3008C95.9617 80.6913 95.9617 81.3243 95.5712 81.7148L89.2069 88.0791C88.8164 88.4694 88.1833 88.4686 87.7929 88.0781L81.4296 81.7139C81.0391 81.3233 81.039 80.6903 81.4296 80.2998C81.8201 79.9096 82.4532 79.9094 82.8436 80.2998L87.4872 84.9443C87.4514 82.1315 87.2991 79.2324 86.6356 76.8574C86.2104 75.335 85.5993 74.1225 84.7577 73.2979C83.9431 72.4998 82.8472 72 81.288 72C79.3183 72.0001 77.8612 72.5835 76.7382 73.6084C75.5912 74.6553 74.7133 76.2363 74.0663 78.3604C72.764 82.6359 72.4999 88.739 72.4999 96V97H70.4999V96Z" fill="black"/>
</svg>
