<svg width="130" height="130" viewBox="0 0 130 130" fill="none" xmlns="http://www.w3.org/2000/svg">
<rect width="130" height="130" rx="10" fill="white"/>
<path d="M42.0809 34.2V35.656H38.3709V44H36.6489V35.656H32.9389V34.2H42.0809ZM46.0787 36.328C48.2627 36.328 50.3627 37.518 50.3627 40.276C50.3627 43.034 48.2627 44.21 46.0787 44.21C43.8947 44.21 41.8087 43.034 41.8087 40.276C41.8087 37.518 43.8947 36.328 46.0787 36.328ZM46.0787 42.936C48.0807 42.936 48.7667 41.578 48.7667 40.276C48.7667 38.96 48.0807 37.602 46.0787 37.602C44.0767 37.602 43.3907 38.96 43.3907 40.276C43.3907 41.578 44.0767 42.936 46.0787 42.936ZM56.2133 36.328C58.3973 36.328 60.0913 37.742 60.0913 40.276C60.0913 42.796 58.3973 44.21 56.2133 44.21C54.9673 44.21 54.0713 43.734 53.4833 43.02V46.338H51.7613V36.538H53.4833V37.518C54.0713 36.804 54.9673 36.328 56.2133 36.328ZM55.8773 42.936C57.6973 42.936 58.4952 41.844 58.4952 40.276C58.4952 38.694 57.6693 37.602 55.8773 37.602C54.0853 37.602 53.2173 38.722 53.2173 40.276C53.2173 41.816 54.0713 42.936 55.8773 42.936ZM70.1342 36.328C72.0802 36.328 73.1442 37.434 73.1442 39.17V44H71.4222V39.688C71.4222 38.428 70.7362 37.728 69.3782 37.728C68.0202 37.728 67.2782 38.512 67.2782 39.688V44H65.5562V34.2H67.2782V37.686C67.6282 37.196 68.5802 36.328 70.1342 36.328ZM78.7391 36.328C81.1051 36.328 83.0091 37.728 82.8131 40.822H76.0931C76.2891 42.096 77.1991 42.936 78.7671 42.936C80.2231 42.936 80.8391 42.236 81.0911 41.704H82.6031C82.2251 43.23 80.7691 44.21 78.7671 44.21C76.6391 44.21 74.5391 42.992 74.5391 40.276C74.5391 37.602 76.5971 36.328 78.7391 36.328ZM76.1351 39.562H81.2731C81.0491 38.386 80.2371 37.602 78.7391 37.602C77.3531 37.602 76.4011 38.386 76.1351 39.562ZM93.752 36.328C95.698 36.328 96.636 37.434 96.636 39.17V44H94.9V39.688C94.9 38.428 94.438 37.728 93.122 37.728C91.82 37.728 91.288 38.568 91.288 39.688V44H89.566V39.688C89.566 38.428 89.09 37.728 87.788 37.728C86.486 37.728 85.954 38.568 85.954 39.688V44H84.232V36.538H85.954V37.63C86.234 37.14 86.948 36.328 88.404 36.328C89.692 36.328 90.532 36.804 90.952 37.63C91.33 37.126 92.254 36.328 93.752 36.328ZM24.3435 54.328C24.6795 54.328 24.8755 54.342 25.1695 54.384V56.092H25.1135C24.8195 56.008 24.4415 55.952 23.9655 55.952C22.0755 55.952 21.3615 57.044 21.3615 58.206V62H19.6255V54.538H21.3615V55.938C21.6975 55.392 22.7335 54.328 24.3435 54.328ZM30.1441 54.328C32.3281 54.328 34.4281 55.518 34.4281 58.276C34.4281 61.034 32.3281 62.21 30.1441 62.21C27.9601 62.21 25.8741 61.034 25.8741 58.276C25.8741 55.518 27.9601 54.328 30.1441 54.328ZM30.1441 60.936C32.1461 60.936 32.8321 59.578 32.8321 58.276C32.8321 56.96 32.1461 55.602 30.1441 55.602C28.1421 55.602 27.4561 56.96 27.4561 58.276C27.4561 59.578 28.1421 60.936 30.1441 60.936ZM35.8267 51.668H37.5487V62H35.8267V51.668ZM39.5044 51.668H41.2264V62H39.5044V51.668ZM43.1821 62V54.538H44.9041V62H43.1821ZM44.0361 53.502C43.5041 53.502 43.1261 53.194 43.1261 52.662C43.1261 52.13 43.5041 51.822 44.0361 51.822C44.5821 51.822 44.9601 52.13 44.9601 52.662C44.9601 53.194 44.5821 53.502 44.0361 53.502ZM51.4379 54.328C53.3839 54.328 54.4479 55.434 54.4479 57.17V62H52.7259V57.688C52.7259 56.428 52.0399 55.728 50.6819 55.728C49.3239 55.728 48.5819 56.512 48.5819 57.688V62H46.8599V54.538H48.5819V55.686C48.9319 55.196 49.8839 54.328 51.4379 54.328ZM62.4649 54.538H64.1869V61.286C64.1869 64.17 61.9889 64.604 59.8469 64.604C57.5089 64.604 56.1089 63.778 55.9549 62.364H57.5509C57.6629 62.812 58.2229 63.302 59.8469 63.302C61.9329 63.302 62.4649 62.63 62.4649 61.286V60.46C61.9189 61.118 61.0369 61.538 59.7209 61.538C57.5509 61.538 55.8429 60.46 55.8429 58.01C55.8429 55.546 57.5509 54.328 59.7209 54.328C61.0369 54.328 61.9189 54.818 62.4649 55.546V54.538ZM60.0569 60.418C61.6669 60.418 62.7309 59.55 62.7309 58.01C62.7309 56.456 61.6949 55.602 60.0569 55.602C58.4329 55.602 57.4389 56.428 57.4389 58.01C57.4389 59.578 58.4469 60.418 60.0569 60.418ZM76.2594 52.2H77.9814V62H76.2594V61.02C75.6714 61.734 74.7754 62.21 73.5294 62.21C71.3454 62.21 69.6514 60.796 69.6514 58.276C69.6514 55.742 71.3454 54.328 73.5294 54.328C74.7754 54.328 75.6714 54.804 76.2594 55.518V52.2ZM73.8654 60.936C75.6434 60.936 76.5254 59.816 76.5254 58.276C76.5254 56.722 75.6714 55.602 73.8654 55.602C72.0454 55.602 71.2474 56.694 71.2474 58.276C71.2474 59.844 72.0734 60.936 73.8654 60.936ZM83.6558 54.328C85.8398 54.328 87.9398 55.518 87.9398 58.276C87.9398 61.034 85.8398 62.21 83.6558 62.21C81.4718 62.21 79.3858 61.034 79.3858 58.276C79.3858 55.518 81.4718 54.328 83.6558 54.328ZM83.6558 60.936C85.6578 60.936 86.3438 59.578 86.3438 58.276C86.3438 56.96 85.6578 55.602 83.6558 55.602C81.6538 55.602 80.9678 56.96 80.9678 58.276C80.9678 59.578 81.6538 60.936 83.6558 60.936ZM99.7086 54.538H101.529L98.5886 62H96.9086L94.8646 56.596L92.8346 62H91.1546L88.2146 54.538H90.0346L92.0366 60.012L94.0946 54.538H95.6486L97.7066 60.012L99.7086 54.538ZM107.37 54.328C109.316 54.328 110.38 55.434 110.38 57.17V62H108.658V57.688C108.658 56.428 107.972 55.728 106.614 55.728C105.256 55.728 104.514 56.512 104.514 57.688V62H102.792V54.538H104.514V55.686C104.864 55.196 105.816 54.328 107.37 54.328Z" fill="black"/>
<path d="M56.4999 102C56.4999 94.7395 56.2515 88.6276 55.0233 84.3438C54.4122 82.2124 53.5837 80.6303 52.5077 79.5869C51.4599 78.5711 50.1103 78 48.287 78C46.8533 78.0001 45.8443 78.486 45.0849 79.2764C44.2951 80.0985 43.7175 81.3132 43.3153 82.8428C42.6892 85.2245 42.5443 88.1304 42.5106 90.9453L47.1561 86.2998C47.5465 85.9094 48.1797 85.9097 48.5702 86.2998C48.9608 86.6903 48.9607 87.3233 48.5702 87.7139L42.2069 94.0781C41.8165 94.4686 41.1834 94.4694 40.7929 94.0791L34.4286 87.7148C34.0381 87.3243 34.0381 86.6913 34.4286 86.3008C34.8191 85.9103 35.4522 85.9103 35.8427 86.3008L40.5106 90.9668C40.5433 88.0919 40.6917 84.9549 41.3808 82.334C41.8271 80.6365 42.5232 79.0569 43.6425 77.8916C44.7919 76.6949 46.3276 76.0001 48.287 76C50.5849 76 52.448 76.7431 53.9003 78.1514C55.3244 79.5324 56.2845 81.485 56.9462 83.793C58.2636 88.3881 58.4999 94.7766 58.4999 102V103H56.4999V102ZM70.4999 102C70.4999 94.7774 70.751 88.3808 72.1532 83.7773C72.8585 81.4621 73.8804 79.5083 75.3895 78.1309C76.9228 76.7315 78.879 76.0001 81.288 76C83.3343 76 84.9434 76.6809 86.1571 77.8701C87.3438 79.0329 88.0852 80.6147 88.5614 82.3193C89.2955 84.9471 89.4535 88.0909 89.4882 90.9678L94.1571 86.3008C94.5476 85.9103 95.1807 85.9103 95.5712 86.3008C95.9617 86.6913 95.9617 87.3243 95.5712 87.7148L89.2069 94.0791C88.8164 94.4694 88.1833 94.4686 87.7929 94.0781L81.4296 87.7139C81.0391 87.3233 81.039 86.6903 81.4296 86.2998C81.8201 85.9096 82.4532 85.9094 82.8436 86.2998L87.4872 90.9443C87.4514 88.1315 87.2991 85.2324 86.6356 82.8574C86.2104 81.335 85.5993 80.1225 84.7577 79.2979C83.9431 78.4998 82.8472 78 81.288 78C79.3183 78.0001 77.8612 78.5835 76.7382 79.6084C75.5912 80.6553 74.7133 82.2363 74.0663 84.3604C72.764 88.6359 72.4999 94.739 72.4999 102V103H70.4999V102Z" fill="black"/>
</svg>
