<svg width="130" height="130" viewBox="0 0 130 130" fill="none" xmlns="http://www.w3.org/2000/svg">
<rect width="130" height="130" rx="10" fill="white"/>
<path d="M35.3063 40H33.8863L32.3463 37.53C32.2763 37.53 32.1963 37.54 32.1263 37.54H29.4763V40H28.2463V33H32.5263C34.2663 33 35.0663 33.91 35.0663 35.26C35.0663 36.24 34.5663 36.97 33.5763 37.32L35.3063 40ZM29.4763 34.04V36.51H32.2763C33.2463 36.51 33.8063 36.09 33.8063 35.26C33.8063 34.41 33.2763 34.04 32.2763 34.04H29.4763ZM38.765 34.52C40.325 34.52 41.825 35.37 41.825 37.34C41.825 39.31 40.325 40.15 38.765 40.15C37.205 40.15 35.715 39.31 35.715 37.34C35.715 35.37 37.205 34.52 38.765 34.52ZM38.765 39.24C40.195 39.24 40.685 38.27 40.685 37.34C40.685 36.4 40.195 35.43 38.765 35.43C37.335 35.43 36.845 36.4 36.845 37.34C36.845 38.27 37.335 39.24 38.765 39.24ZM47.014 34.67H48.244V40H47.014V39.18C46.764 39.53 46.084 40.15 44.974 40.15C43.584 40.15 42.824 39.36 42.824 38.12V34.67H44.054V37.75C44.054 38.65 44.544 39.15 45.514 39.15C46.484 39.15 47.014 38.59 47.014 37.75V34.67ZM49.6404 32.62H50.8704V40H49.6404V32.62ZM54.8674 34.52C56.5574 34.52 57.9174 35.52 57.7774 37.73H52.9774C53.1174 38.64 53.7674 39.24 54.8874 39.24C55.9274 39.24 56.3674 38.74 56.5474 38.36H57.6274C57.3574 39.45 56.3174 40.15 54.8874 40.15C53.3674 40.15 51.8674 39.28 51.8674 37.34C51.8674 35.43 53.3374 34.52 54.8674 34.52ZM53.0074 36.83H56.6774C56.5174 35.99 55.9374 35.43 54.8674 35.43C53.8774 35.43 53.1974 35.99 53.0074 36.83ZM65.5908 34.52C66.9808 34.52 67.6508 35.31 67.6508 36.55V40H66.4108V36.92C66.4108 36.02 66.0808 35.52 65.1408 35.52C64.2108 35.52 63.8308 36.12 63.8308 36.92V40H62.6008V36.92C62.6008 36.02 62.2608 35.52 61.3308 35.52C60.4008 35.52 60.0208 36.12 60.0208 36.92V40H58.7908V34.67H60.0208V35.45C60.2208 35.1 60.7308 34.52 61.7708 34.52C62.6908 34.52 63.2908 34.86 63.5908 35.45C63.8608 35.09 64.5208 34.52 65.5908 34.52ZM71.6545 34.52C73.3445 34.52 74.7045 35.52 74.5645 37.73H69.7645C69.9045 38.64 70.5545 39.24 71.6745 39.24C72.7145 39.24 73.1545 38.74 73.3345 38.36H74.4145C74.1445 39.45 73.1045 40.15 71.6745 40.15C70.1545 40.15 68.6545 39.28 68.6545 37.34C68.6545 35.43 70.1245 34.52 71.6545 34.52ZM69.7945 36.83H73.4645C73.3045 35.99 72.7245 35.43 71.6545 35.43C70.6645 35.43 69.9845 35.99 69.7945 36.83ZM78.8479 34.52C80.2379 34.52 80.9979 35.31 80.9979 36.55V40H79.7679V36.92C79.7679 36.02 79.2779 35.52 78.3079 35.52C77.3379 35.52 76.8079 36.08 76.8079 36.92V40H75.5779V34.67H76.8079V35.49C77.0579 35.14 77.7379 34.52 78.8479 34.52ZM85.679 35.61H84.069V38.01C84.069 38.91 84.429 39.16 85.679 39.03V39.99C85.499 40.04 85.229 40.08 84.979 40.08C83.359 40.08 82.839 39.42 82.839 38.01V35.61H81.799V34.67H82.839V33.29H84.069V34.67H85.679V35.61ZM94.0971 33H95.3271V40H94.0971V39.3C93.6771 39.81 93.0371 40.15 92.1471 40.15C90.5871 40.15 89.3771 39.14 89.3771 37.34C89.3771 35.53 90.5871 34.52 92.1471 34.52C93.0371 34.52 93.6771 34.86 94.0971 35.37V33ZM92.3871 39.24C93.6571 39.24 94.2871 38.44 94.2871 37.34C94.2871 36.23 93.6771 35.43 92.3871 35.43C91.0871 35.43 90.5171 36.21 90.5171 37.34C90.5171 38.46 91.1071 39.24 92.3871 39.24ZM99.3303 34.52C101.02 34.52 102.38 35.52 102.24 37.73H97.4403C97.5803 38.64 98.2303 39.24 99.3503 39.24C100.39 39.24 100.83 38.74 101.01 38.36H102.09C101.82 39.45 100.78 40.15 99.3503 40.15C97.8303 40.15 96.3303 39.28 96.3303 37.34C96.3303 35.43 97.8003 34.52 99.3303 34.52ZM97.4703 36.83H101.14C100.98 35.99 100.4 35.43 99.3303 35.43C98.3403 35.43 97.6603 35.99 97.4703 36.83ZM19.782 45.62H21.012V53H19.782V45.62ZM22.109 46H23.339L23.069 49.19H22.389L22.109 46ZM26.8949 47.52C28.4549 47.52 29.9549 48.37 29.9549 50.34C29.9549 52.31 28.4549 53.15 26.8949 53.15C25.3349 53.15 23.8449 52.31 23.8449 50.34C23.8449 48.37 25.3349 47.52 26.8949 47.52ZM26.8949 52.24C28.3249 52.24 28.8149 51.27 28.8149 50.34C28.8149 49.4 28.3249 48.43 26.8949 48.43C25.4649 48.43 24.9749 49.4 24.9749 50.34C24.9749 51.27 25.4649 52.24 26.8949 52.24ZM35.1439 47.67H36.3739V53H35.1439V52.18C34.8939 52.53 34.2139 53.15 33.1039 53.15C31.7139 53.15 30.9539 52.36 30.9539 51.12V47.67H32.1839V50.75C32.1839 51.65 32.6739 52.15 33.6439 52.15C34.6139 52.15 35.1439 51.59 35.1439 50.75V47.67ZM41.1403 47.52C41.3803 47.52 41.5203 47.53 41.7303 47.56V48.78H41.6903C41.4803 48.72 41.2103 48.68 40.8703 48.68C39.5203 48.68 39.0103 49.46 39.0103 50.29V53H37.7703V47.67H39.0103V48.67C39.2503 48.28 39.9903 47.52 41.1403 47.52ZM42.7313 45.62H43.9613V53H42.7313V45.62ZM47.9582 47.52C49.6482 47.52 51.0082 48.52 50.8682 50.73H46.0682C46.2082 51.64 46.8582 52.24 47.9782 52.24C49.0182 52.24 49.4582 51.74 49.6382 51.36H50.7182C50.4482 52.45 49.4082 53.15 47.9782 53.15C46.4582 53.15 44.9582 52.28 44.9582 50.34C44.9582 48.43 46.4282 47.52 47.9582 47.52ZM46.0982 49.83H49.7682C49.6082 48.99 49.0282 48.43 47.9582 48.43C46.9682 48.43 46.2882 48.99 46.0982 49.83ZM55.1663 48.61H53.5563V51.01C53.5563 51.91 53.9163 52.16 55.1663 52.03V52.99C54.9863 53.04 54.7163 53.08 54.4663 53.08C52.8463 53.08 52.3263 52.42 52.3263 51.01V48.61H51.2863V47.67H52.3263V46.29H53.5563V47.67H55.1663V48.61ZM62.0745 49.88C63.5845 50.14 64.4345 50.34 64.4345 51.39C64.4345 52.63 63.4045 53.15 61.6245 53.15C60.0045 53.15 58.7645 52.59 58.7645 51.38H60.0345C60.0345 51.96 60.6045 52.22 61.7245 52.22C62.8145 52.22 63.2045 51.95 63.2045 51.55C63.2045 50.96 62.3145 50.95 60.9545 50.7C59.5745 50.44 58.9645 50.12 58.9645 49.17C58.9645 48.1 59.9645 47.52 61.5345 47.52C63.2445 47.52 64.1645 48.2 64.1645 49.19H63.0145C63.0145 48.85 62.6545 48.43 61.5145 48.43C60.4445 48.43 60.0745 48.7 60.0745 49.11C60.0745 49.65 61.1245 49.72 62.0745 49.88ZM69.6263 47.67H70.8563V53H69.6263V52.18C69.3763 52.53 68.6963 53.15 67.5863 53.15C66.1963 53.15 65.4363 52.36 65.4363 51.12V47.67H66.6663V50.75C66.6663 51.65 67.1563 52.15 68.1263 52.15C69.0963 52.15 69.6263 51.59 69.6263 50.75V47.67ZM75.4327 47.52C76.9927 47.52 78.2027 48.53 78.2027 50.34C78.2027 52.14 76.9927 53.15 75.4327 53.15C74.5427 53.15 73.9027 52.81 73.4827 52.3V54.67H72.2527V47.67H73.4827V48.37C73.9027 47.86 74.5427 47.52 75.4327 47.52ZM75.1927 52.24C76.4927 52.24 77.0627 51.46 77.0627 50.34C77.0627 49.21 76.4727 48.43 75.1927 48.43C73.9127 48.43 73.2927 49.23 73.2927 50.34C73.2927 51.44 73.9027 52.24 75.1927 52.24ZM81.8059 47.52C83.4959 47.52 84.8559 48.52 84.7159 50.73H79.9159C80.0559 51.64 80.7059 52.24 81.8259 52.24C82.8659 52.24 83.3059 51.74 83.4859 51.36H84.5659C84.2959 52.45 83.2559 53.15 81.8259 53.15C80.3059 53.15 78.8059 52.28 78.8059 50.34C78.8059 48.43 80.2759 47.52 81.8059 47.52ZM79.9459 49.83H83.6159C83.4559 48.99 82.8759 48.43 81.8059 48.43C80.8159 48.43 80.1359 48.99 79.9459 49.83ZM82.0859 45.65H83.3859L82.1459 46.94H81.3459L82.0859 45.65ZM89.0993 47.52C89.3393 47.52 89.4793 47.53 89.6893 47.56V48.78H89.6493C89.4393 48.72 89.1693 48.68 88.8293 48.68C87.4793 48.68 86.9693 49.46 86.9693 50.29V53H85.7293V47.67H86.9693V48.67C87.2093 48.28 87.9493 47.52 89.0993 47.52ZM90.6902 53V47.67H91.9202V53H90.6902ZM91.3002 46.93C90.9202 46.93 90.6502 46.71 90.6502 46.33C90.6502 45.95 90.9202 45.73 91.3002 45.73C91.6902 45.73 91.9602 45.95 91.9602 46.33C91.9602 46.71 91.6902 46.93 91.3002 46.93ZM95.9172 47.52C97.6072 47.52 98.9672 48.52 98.8272 50.73H94.0272C94.1672 51.64 94.8172 52.24 95.9372 52.24C96.9772 52.24 97.4172 51.74 97.5972 51.36H98.6772C98.4072 52.45 97.3672 53.15 95.9372 53.15C94.4172 53.15 92.9172 52.28 92.9172 50.34C92.9172 48.43 94.3872 47.52 95.9172 47.52ZM94.0572 49.83H97.7272C97.5672 48.99 96.9872 48.43 95.9172 48.43C94.9272 48.43 94.2472 48.99 94.0572 49.83ZM104.031 47.67H105.261V53H104.031V52.18C103.781 52.53 103.101 53.15 101.991 53.15C100.601 53.15 99.8406 52.36 99.8406 51.12V47.67H101.071V50.75C101.071 51.65 101.561 52.15 102.531 52.15C103.501 52.15 104.031 51.59 104.031 50.75V47.67ZM110.027 47.52C110.267 47.52 110.407 47.53 110.617 47.56V48.78H110.577C110.367 48.72 110.097 48.68 109.757 48.68C108.407 48.68 107.897 49.46 107.897 50.29V53H106.657V47.67H107.897V48.67C108.137 48.28 108.877 47.52 110.027 47.52ZM40.7561 60.67H42.0561L39.6661 66H38.3761L35.9861 60.67H37.2861L39.0261 64.8L40.7561 60.67ZM45.258 60.52C46.948 60.52 48.308 61.52 48.168 63.73H43.368C43.508 64.64 44.158 65.24 45.278 65.24C46.318 65.24 46.758 64.74 46.938 64.36H48.018C47.748 65.45 46.708 66.15 45.278 66.15C43.758 66.15 42.258 65.28 42.258 63.34C42.258 61.43 43.728 60.52 45.258 60.52ZM43.398 62.83H47.068C46.908 61.99 46.328 61.43 45.258 61.43C44.268 61.43 43.588 61.99 43.398 62.83ZM52.5514 60.52C52.7914 60.52 52.9314 60.53 53.1414 60.56V61.78H53.1014C52.8914 61.72 52.6214 61.68 52.2814 61.68C50.9314 61.68 50.4214 62.46 50.4214 63.29V66H49.1814V60.67H50.4214V61.67C50.6614 61.28 51.4014 60.52 52.5514 60.52ZM56.9524 62.88C58.4624 63.14 59.3124 63.34 59.3124 64.39C59.3124 65.63 58.2824 66.15 56.5024 66.15C54.8824 66.15 53.6424 65.59 53.6424 64.38H54.9124C54.9124 64.96 55.4824 65.22 56.6024 65.22C57.6924 65.22 58.0824 64.95 58.0824 64.55C58.0824 63.96 57.1924 63.95 55.8324 63.7C54.4524 63.44 53.8424 63.12 53.8424 62.17C53.8424 61.1 54.8424 60.52 56.4124 60.52C58.1224 60.52 59.0424 61.2 59.0424 62.19H57.8924C57.8924 61.85 57.5324 61.43 56.3924 61.43C55.3224 61.43 54.9524 61.7 54.9524 62.11C54.9524 62.65 56.0024 62.72 56.9524 62.88ZM63.2146 58.62H64.4446V66H63.2146V58.62ZM68.4416 60.52C70.1316 60.52 71.4916 61.52 71.3516 63.73H66.5516C66.6916 64.64 67.3416 65.24 68.4616 65.24C69.5016 65.24 69.9416 64.74 70.1216 64.36H71.2016C70.9316 65.45 69.8916 66.15 68.4616 66.15C66.9416 66.15 65.4416 65.28 65.4416 63.34C65.4416 61.43 66.9116 60.52 68.4416 60.52ZM66.5816 62.83H70.2516C70.0916 61.99 69.5116 61.43 68.4416 61.43C67.4516 61.43 66.7716 61.99 66.5816 62.83ZM78.4554 60.52C80.0154 60.52 81.2254 61.53 81.2254 63.34C81.2254 65.14 80.0154 66.15 78.4554 66.15C77.5554 66.15 76.9154 65.81 76.4954 65.3V66H75.2654V59H76.4954V61.37C76.9154 60.86 77.5554 60.52 78.4554 60.52ZM78.2154 65.24C79.4954 65.24 80.0854 64.46 80.0854 63.34C80.0854 62.21 79.5054 61.43 78.2154 61.43C76.9254 61.43 76.3154 62.23 76.3154 63.34C76.3154 64.44 76.9354 65.24 78.2154 65.24ZM84.6183 60.52C86.0883 60.52 87.3383 61.01 87.3383 62.54V66H86.1083V65.31C85.8483 65.61 85.2083 66.15 83.9583 66.15C82.6783 66.15 81.8283 65.62 81.8283 64.6C81.8283 63.5 82.4283 62.63 86.1083 62.87V62.54C86.1083 61.8 85.7283 61.43 84.6183 61.43C83.6683 61.43 83.2783 61.74 83.1883 62.19H82.0383C82.1983 61.07 83.2383 60.52 84.6183 60.52ZM86.1083 64.5V63.61C83.8883 63.5 83.0883 63.69 83.0883 64.52C83.0883 65.06 83.5083 65.33 84.2183 65.33C85.1583 65.33 85.7783 64.98 86.1083 64.5ZM91.552 62.88C93.062 63.14 93.912 63.34 93.912 64.39C93.912 65.63 92.882 66.15 91.102 66.15C89.482 66.15 88.242 65.59 88.242 64.38H89.512C89.512 64.96 90.082 65.22 91.202 65.22C92.292 65.22 92.682 64.95 92.682 64.55C92.682 63.96 91.792 63.95 90.432 63.7C89.052 63.44 88.442 63.12 88.442 62.17C88.442 61.1 89.442 60.52 91.012 60.52C92.722 60.52 93.642 61.2 93.642 62.19H92.492C92.492 61.85 92.132 61.43 90.992 61.43C89.922 61.43 89.552 61.7 89.552 62.11C89.552 62.65 90.602 62.72 91.552 62.88Z" fill="black"/>
<path d="M56.4999 105C56.4999 97.7395 56.2515 91.6276 55.0233 87.3438C54.4122 85.2124 53.5837 83.6303 52.5077 82.5869C51.4599 81.5711 50.1103 81 48.287 81C46.8533 81.0001 45.8443 81.486 45.0849 82.2764C44.2951 83.0985 43.7175 84.3132 43.3153 85.8428C42.6892 88.2245 42.5443 91.1304 42.5106 93.9453L47.1561 89.2998C47.5465 88.9094 48.1797 88.9097 48.5702 89.2998C48.9608 89.6903 48.9607 90.3233 48.5702 90.7139L42.2069 97.0781C41.8165 97.4686 41.1834 97.4694 40.7929 97.0791L34.4286 90.7148C34.0381 90.3243 34.0381 89.6913 34.4286 89.3008C34.8191 88.9103 35.4522 88.9103 35.8427 89.3008L40.5106 93.9668C40.5433 91.0919 40.6917 87.9549 41.3808 85.334C41.8271 83.6365 42.5232 82.0569 43.6425 80.8916C44.7919 79.6949 46.3276 79.0001 48.287 79C50.5849 79 52.448 79.7431 53.9003 81.1514C55.3244 82.5324 56.2845 84.485 56.9462 86.793C58.2636 91.3881 58.4999 97.7766 58.4999 105V106H56.4999V105ZM70.4999 105C70.4999 97.7774 70.751 91.3808 72.1532 86.7773C72.8585 84.4621 73.8804 82.5083 75.3895 81.1309C76.9228 79.7315 78.879 79.0001 81.288 79C83.3343 79 84.9434 79.6809 86.1571 80.8701C87.3438 82.0329 88.0852 83.6147 88.5614 85.3193C89.2955 87.9471 89.4535 91.0909 89.4882 93.9678L94.1571 89.3008C94.5476 88.9103 95.1807 88.9103 95.5712 89.3008C95.9617 89.6913 95.9617 90.3243 95.5712 90.7148L89.2069 97.0791C88.8164 97.4694 88.1833 97.4686 87.7929 97.0781L81.4296 90.7139C81.0391 90.3233 81.039 89.6903 81.4296 89.2998C81.8201 88.9096 82.4532 88.9094 82.8436 89.2998L87.4872 93.9443C87.4514 91.1315 87.2991 88.2324 86.6356 85.8574C86.2104 84.335 85.5993 83.1225 84.7577 82.2979C83.9431 81.4998 82.8472 81 81.288 81C79.3183 81.0001 77.8612 81.5835 76.7382 82.6084C75.5912 83.6553 74.7133 85.2363 74.0663 87.3604C72.764 91.6359 72.4999 97.739 72.4999 105V106H70.4999V105Z" fill="black"/>
</svg>
