<svg width="130" height="130" viewBox="0 0 130 130" fill="none" xmlns="http://www.w3.org/2000/svg">
<rect width="130" height="130" rx="10" fill="white"/>
<path d="M43.588 44H41.6L39.444 40.542C39.346 40.542 39.234 40.556 39.136 40.556H35.426V44H33.704V34.2H39.696C42.132 34.2 43.252 35.474 43.252 37.364C43.252 38.736 42.552 39.758 41.166 40.248L43.588 44ZM35.426 35.656V39.114H39.346C40.704 39.114 41.488 38.526 41.488 37.364C41.488 36.174 40.746 35.656 39.346 35.656H35.426ZM48.4302 36.328C50.6142 36.328 52.7142 37.518 52.7142 40.276C52.7142 43.034 50.6142 44.21 48.4302 44.21C46.2462 44.21 44.1602 43.034 44.1602 40.276C44.1602 37.518 46.2462 36.328 48.4302 36.328ZM48.4302 42.936C50.4322 42.936 51.1182 41.578 51.1182 40.276C51.1182 38.96 50.4322 37.602 48.4302 37.602C46.4282 37.602 45.7422 38.96 45.7422 40.276C45.7422 41.578 46.4282 42.936 48.4302 42.936ZM58.7114 37.854H56.4574V41.214C56.4574 42.474 56.9614 42.824 58.7114 42.642V43.986C58.4594 44.056 58.0814 44.112 57.7314 44.112C55.4634 44.112 54.7354 43.188 54.7354 41.214V37.854H53.2794V36.538H54.7354V34.606H56.4574V36.538H58.7114V37.854ZM63.7342 36.328C65.7922 36.328 67.5422 37.014 67.5422 39.156V44H65.8202V43.034C65.4562 43.454 64.5602 44.21 62.8102 44.21C61.0182 44.21 59.8282 43.468 59.8282 42.04C59.8282 40.5 60.6682 39.282 65.8202 39.618V39.156C65.8202 38.12 65.2882 37.602 63.7342 37.602C62.4042 37.602 61.8582 38.036 61.7322 38.666H60.1222C60.3462 37.098 61.8022 36.328 63.7342 36.328ZM65.8202 41.9V40.654C62.7122 40.5 61.5922 40.766 61.5922 41.928C61.5922 42.684 62.1802 43.062 63.1742 43.062C64.4902 43.062 65.3582 42.572 65.8202 41.9ZM74.1059 37.854H71.8519V41.214C71.8519 42.474 72.3559 42.824 74.1059 42.642V43.986C73.8539 44.056 73.4759 44.112 73.1259 44.112C70.8579 44.112 70.1299 43.188 70.1299 41.214V37.854H68.6739V36.538H70.1299V34.606H71.8519V36.538H74.1059V37.854ZM75.7827 44V36.538H77.5047V44H75.7827ZM76.6367 35.502C76.1047 35.502 75.7267 35.194 75.7267 34.662C75.7267 34.13 76.1047 33.822 76.6367 33.822C77.1827 33.822 77.5607 34.13 77.5607 34.662C77.5607 35.194 77.1827 35.502 76.6367 35.502ZM83.1705 36.328C85.3545 36.328 87.4545 37.518 87.4545 40.276C87.4545 43.034 85.3545 44.21 83.1705 44.21C80.9865 44.21 78.9005 43.034 78.9005 40.276C78.9005 37.518 80.9865 36.328 83.1705 36.328ZM83.1705 42.936C85.1725 42.936 85.8585 41.578 85.8585 40.276C85.8585 38.96 85.1725 37.602 83.1705 37.602C81.1685 37.602 80.4825 38.96 80.4825 40.276C80.4825 41.578 81.1685 42.936 83.1705 42.936ZM93.431 36.328C95.377 36.328 96.441 37.434 96.441 39.17V44H94.719V39.688C94.719 38.428 94.033 37.728 92.675 37.728C91.317 37.728 90.575 38.512 90.575 39.688V44H88.853V36.538H90.575V37.686C90.925 37.196 91.877 36.328 93.431 36.328Z" fill="black"/>
<path d="M65 62C73.4974 62 81.1547 62.9456 86.6562 64.4541C89.4137 65.2102 91.573 66.0926 93.0195 67.0303C94.5097 67.9963 95 68.8534 95 69.5C95 70.1466 94.5097 71.0037 93.0195 71.9697C91.573 72.9074 89.4137 73.7898 86.6562 74.5459C81.1547 76.0544 73.4974 77 65 77C56.5026 77 48.8453 76.0544 43.3438 74.5459C40.5863 73.7898 38.427 72.9074 36.9805 71.9697C35.4903 71.0037 35 70.1466 35 69.5C35 68.8534 35.4903 67.9963 36.9805 67.0303C38.427 66.0926 40.5863 65.2102 43.3438 64.4541C48.8453 62.9456 56.5026 62 65 62Z" fill="white" stroke="black" stroke-width="2"/>
<path d="M72 71L76.5 76.5L72.305 83" stroke="black" stroke-width="2" stroke-linecap="round"/>
<path d="M57.5 68L53 62.5L57.195 56" stroke="black" stroke-width="2" stroke-linecap="round"/>
</svg>
