<svg width="130" height="130" viewBox="0 0 130 130" fill="none" xmlns="http://www.w3.org/2000/svg">
<rect width="130" height="130" rx="10" fill="white"/>
<path d="M42.1114 44H40.1234L37.9674 40.542C37.8694 40.542 37.7574 40.556 37.6594 40.556H33.9494V44H32.2274V34.2H38.2194C40.6554 34.2 41.7754 35.474 41.7754 37.364C41.7754 38.736 41.0754 39.758 39.6894 40.248L42.1114 44ZM33.9494 35.656V39.114H37.8694C39.2274 39.114 40.0114 38.526 40.0114 37.364C40.0114 36.174 39.2694 35.656 37.8694 35.656H33.9494ZM46.9537 36.328C49.1377 36.328 51.2377 37.518 51.2377 40.276C51.2377 43.034 49.1377 44.21 46.9537 44.21C44.7697 44.21 42.6837 43.034 42.6837 40.276C42.6837 37.518 44.7697 36.328 46.9537 36.328ZM46.9537 42.936C48.9557 42.936 49.6417 41.578 49.6417 40.276C49.6417 38.96 48.9557 37.602 46.9537 37.602C44.9517 37.602 44.2657 38.96 44.2657 40.276C44.2657 41.578 44.9517 42.936 46.9537 42.936ZM57.2348 37.854H54.9808V41.214C54.9808 42.474 55.4848 42.824 57.2348 42.642V43.986C56.9828 44.056 56.6048 44.112 56.2548 44.112C53.9868 44.112 53.2588 43.188 53.2588 41.214V37.854H51.8028V36.538H53.2588V34.606H54.9808V36.538H57.2348V37.854ZM62.2576 36.328C64.3156 36.328 66.0656 37.014 66.0656 39.156V44H64.3436V43.034C63.9796 43.454 63.0836 44.21 61.3336 44.21C59.5416 44.21 58.3516 43.468 58.3516 42.04C58.3516 40.5 59.1916 39.282 64.3436 39.618V39.156C64.3436 38.12 63.8116 37.602 62.2576 37.602C60.9276 37.602 60.3816 38.036 60.2556 38.666H58.6456C58.8696 37.098 60.3256 36.328 62.2576 36.328ZM64.3436 41.9V40.654C61.2356 40.5 60.1156 40.766 60.1156 41.928C60.1156 42.684 60.7036 43.062 61.6976 43.062C63.0136 43.062 63.8816 42.572 64.3436 41.9ZM71.7688 42.936C73.2808 42.936 74.0368 42.054 74.2468 41.214H75.8568C75.4928 43.202 73.7848 44.21 71.7688 44.21C69.5848 44.21 67.4708 43.034 67.4708 40.276C67.4708 37.518 69.5848 36.328 71.7688 36.328C73.7848 36.328 75.4928 37.336 75.8568 39.324H74.2468C74.0368 38.484 73.2808 37.602 71.7688 37.602C69.7668 37.602 69.0528 38.96 69.0528 40.276C69.0528 41.578 69.7668 42.936 71.7688 42.936ZM77.2593 44V36.538H78.9813V44H77.2593ZM78.1133 35.502C77.5813 35.502 77.2033 35.194 77.2033 34.662C77.2033 34.13 77.5813 33.822 78.1133 33.822C78.6593 33.822 79.0373 34.13 79.0373 34.662C79.0373 35.194 78.6593 35.502 78.1133 35.502ZM84.647 36.328C86.831 36.328 88.931 37.518 88.931 40.276C88.931 43.034 86.831 44.21 84.647 44.21C82.463 44.21 80.377 43.034 80.377 40.276C80.377 37.518 82.463 36.328 84.647 36.328ZM84.647 42.936C86.649 42.936 87.335 41.578 87.335 40.276C87.335 38.96 86.649 37.602 84.647 37.602C82.645 37.602 81.959 38.96 81.959 40.276C81.959 41.578 82.645 42.936 84.647 42.936ZM85.095 33.71H86.915L85.179 35.516H84.059L85.095 33.71ZM94.9076 36.328C96.8536 36.328 97.9176 37.434 97.9176 39.17V44H96.1956V39.688C96.1956 38.428 95.5096 37.728 94.1516 37.728C92.7936 37.728 92.0516 38.512 92.0516 39.688V44H90.3296V36.538H92.0516V37.686C92.4016 37.196 93.3536 36.328 94.9076 36.328Z" fill="black"/>
<path d="M65 62C73.4974 62 81.1547 62.9456 86.6562 64.4541C89.4137 65.2102 91.573 66.0926 93.0195 67.0303C94.5097 67.9963 95 68.8534 95 69.5C95 70.1466 94.5097 71.0037 93.0195 71.9697C91.573 72.9074 89.4137 73.7898 86.6562 74.5459C81.1547 76.0544 73.4974 77 65 77C56.5026 77 48.8453 76.0544 43.3438 74.5459C40.5863 73.7898 38.427 72.9074 36.9805 71.9697C35.4903 71.0037 35 70.1466 35 69.5C35 68.8534 35.4903 67.9963 36.9805 67.0303C38.427 66.0926 40.5863 65.2102 43.3438 64.4541C48.8453 62.9456 56.5026 62 65 62Z" fill="white" stroke="black" stroke-width="2"/>
<path d="M72 71L76.5 76.5L72.305 83" stroke="black" stroke-width="2" stroke-linecap="round"/>
<path d="M57.5 68L53 62.5L57.195 56" stroke="black" stroke-width="2" stroke-linecap="round"/>
</svg>
