<svg width="130" height="130" viewBox="0 0 130 130" fill="none" xmlns="http://www.w3.org/2000/svg">
<rect width="130" height="130" rx="10" fill="white"/>
<path d="M33.2413 34.2H34.9633V44H32.9053L27.0113 36.258V44H25.2753V34.2H27.3333L33.2413 41.942V34.2ZM40.4031 36.328C42.4611 36.328 44.2111 37.014 44.2111 39.156V44H42.4891V43.034C42.1251 43.454 41.2291 44.21 39.4791 44.21C37.6871 44.21 36.4971 43.468 36.4971 42.04C36.4971 40.5 37.3371 39.282 42.4891 39.618V39.156C42.4891 38.12 41.9571 37.602 40.4031 37.602C39.0731 37.602 38.5271 38.036 38.4011 38.666H36.7911C37.0151 37.098 38.4711 36.328 40.4031 36.328ZM42.4891 41.9V40.654C39.3811 40.5 38.2611 40.766 38.2611 41.928C38.2611 42.684 38.8491 43.062 39.8431 43.062C41.1591 43.062 42.0271 42.572 42.4891 41.9ZM49.9143 42.936C51.4263 42.936 52.1823 42.054 52.3923 41.214H54.0023C53.6383 43.202 51.9303 44.21 49.9143 44.21C47.7303 44.21 45.6163 43.034 45.6163 40.276C45.6163 37.518 47.7303 36.328 49.9143 36.328C51.9303 36.328 53.6383 37.336 54.0023 39.324H52.3923C52.1823 38.484 51.4263 37.602 49.9143 37.602C47.9123 37.602 47.1983 38.96 47.1983 40.276C47.1983 41.578 47.9123 42.936 49.9143 42.936ZM59.9828 36.328C61.9288 36.328 62.9928 37.434 62.9928 39.17V44H61.2708V39.688C61.2708 38.428 60.5848 37.728 59.2268 37.728C57.8688 37.728 57.1268 38.512 57.1268 39.688V44H55.4048V34.2H57.1268V37.686C57.4768 37.196 58.4288 36.328 59.9828 36.328ZM72.7183 36.328C74.9023 36.328 77.0023 37.518 77.0023 40.276C77.0023 43.034 74.9023 44.21 72.7183 44.21C70.5343 44.21 68.4483 43.034 68.4483 40.276C68.4483 37.518 70.5343 36.328 72.7183 36.328ZM72.7183 42.936C74.7203 42.936 75.4063 41.578 75.4063 40.276C75.4063 38.96 74.7203 37.602 72.7183 37.602C70.7163 37.602 70.0303 38.96 70.0303 40.276C70.0303 41.578 70.7163 42.936 72.7183 42.936ZM82.8669 36.328C85.0509 36.328 86.7449 37.742 86.7449 40.276C86.7449 42.796 85.0509 44.21 82.8669 44.21C81.6069 44.21 80.7109 43.734 80.1229 43.02V44H78.4009V34.2H80.1229V37.518C80.7109 36.804 81.6069 36.328 82.8669 36.328ZM82.5309 42.936C84.3229 42.936 85.1489 41.844 85.1489 40.276C85.1489 38.694 84.3369 37.602 82.5309 37.602C80.7249 37.602 79.8709 38.722 79.8709 40.276C79.8709 41.816 80.7389 42.936 82.5309 42.936ZM91.7889 36.328C94.1549 36.328 96.0589 37.728 95.8629 40.822H89.1429C89.3389 42.096 90.2489 42.936 91.8169 42.936C93.2729 42.936 93.8889 42.236 94.1409 41.704H95.6529C95.2749 43.23 93.8189 44.21 91.8169 44.21C89.6889 44.21 87.5889 42.992 87.5889 40.276C87.5889 37.602 89.6469 36.328 91.7889 36.328ZM89.1849 39.562H94.3229C94.0989 38.386 93.2869 37.602 91.7889 37.602C90.4029 37.602 89.4509 38.386 89.1849 39.562ZM101.86 36.328C103.806 36.328 104.87 37.434 104.87 39.17V44H103.148V39.688C103.148 38.428 102.462 37.728 101.104 37.728C99.7458 37.728 99.0038 38.512 99.0038 39.688V44H97.2818V36.538H99.0038V37.686C99.3538 37.196 100.306 36.328 101.86 36.328Z" fill="black"/>
<path d="M66.7071 55.2929C66.3166 54.9024 65.6834 54.9024 65.2929 55.2929L58.9289 61.6569C58.5384 62.0474 58.5384 62.6805 58.9289 63.0711C59.3195 63.4616 59.9526 63.4616 60.3431 63.0711L66 57.4142L71.6569 63.0711C72.0474 63.4616 72.6805 63.4616 73.0711 63.0711C73.4616 62.6805 73.4616 62.0474 73.0711 61.6569L66.7071 55.2929ZM66 100L67 100L67 56L66 56L65 56L65 100L66 100Z" fill="black"/>
</svg>
