<svg width="130" height="130" viewBox="0 0 130 130" fill="none" xmlns="http://www.w3.org/2000/svg">
<rect width="130" height="130" rx="10" fill="white"/>
<path d="M43.6224 34.2H45.3584V40.094C45.3584 43.524 43.0764 44.21 40.7104 44.21C38.3304 44.21 36.0624 43.524 36.0624 40.094V34.2H37.7844V39.968C37.7844 41.97 38.6804 42.768 40.7104 42.768C42.7404 42.768 43.6224 41.97 43.6224 39.968V34.2ZM51.9134 36.328C54.0974 36.328 55.7914 37.742 55.7914 40.276C55.7914 42.796 54.0974 44.21 51.9134 44.21C50.6674 44.21 49.7714 43.734 49.1834 43.02V46.338H47.4614V36.538H49.1834V37.518C49.7714 36.804 50.6674 36.328 51.9134 36.328ZM51.5774 42.936C53.3974 42.936 54.1954 41.844 54.1954 40.276C54.1954 38.694 53.3694 37.602 51.5774 37.602C49.7854 37.602 48.9174 38.722 48.9174 40.276C48.9174 41.816 49.7714 42.936 51.5774 42.936ZM67.7164 36.538H69.5364L66.5964 44H64.9164L62.8724 38.596L60.8424 44H59.1624L56.2224 36.538H58.0424L60.0444 42.012L62.1024 36.538H63.6564L65.7144 42.012L67.7164 36.538ZM73.7215 36.328C75.7795 36.328 77.5295 37.014 77.5295 39.156V44H75.8075V43.034C75.4435 43.454 74.5475 44.21 72.7975 44.21C71.0055 44.21 69.8155 43.468 69.8155 42.04C69.8155 40.5 70.6555 39.282 75.8075 39.618V39.156C75.8075 38.12 75.2755 37.602 73.7215 37.602C72.3915 37.602 71.8455 38.036 71.7195 38.666H70.1095C70.3335 37.098 71.7895 36.328 73.7215 36.328ZM75.8075 41.9V40.654C72.6995 40.5 71.5795 40.766 71.5795 41.928C71.5795 42.684 72.1675 43.062 73.1615 43.062C74.4775 43.062 75.3455 42.572 75.8075 41.9ZM84.2126 36.328C84.5486 36.328 84.7446 36.342 85.0386 36.384V38.092H84.9826C84.6886 38.008 84.3106 37.952 83.8346 37.952C81.9446 37.952 81.2306 39.044 81.2306 40.206V44H79.4946V36.538H81.2306V37.938C81.5666 37.392 82.6026 36.328 84.2126 36.328ZM92.3512 34.2H94.0732V44H92.3512V43.02C91.7632 43.734 90.8672 44.21 89.6212 44.21C87.4372 44.21 85.7432 42.796 85.7432 40.276C85.7432 37.742 87.4372 36.328 89.6212 36.328C90.8672 36.328 91.7632 36.804 92.3512 37.518V34.2ZM89.9572 42.936C91.7352 42.936 92.6172 41.816 92.6172 40.276C92.6172 38.722 91.7632 37.602 89.9572 37.602C88.1372 37.602 87.3392 38.694 87.3392 40.276C87.3392 41.844 88.1652 42.936 89.9572 42.936Z" fill="black"/>
<path d="M66.7071 55.2929C66.3166 54.9024 65.6834 54.9024 65.2929 55.2929L58.9289 61.6569C58.5384 62.0474 58.5384 62.6805 58.9289 63.0711C59.3195 63.4616 59.9526 63.4616 60.3431 63.0711L66 57.4142L71.6569 63.0711C72.0474 63.4616 72.6805 63.4616 73.0711 63.0711C73.4616 62.6805 73.4616 62.0474 73.0711 61.6569L66.7071 55.2929ZM66 100L67 100L67 56L66 56L65 56L65 100L66 100Z" fill="black"/>
</svg>
