<svg width="130" height="130" viewBox="0 0 130 130" fill="none" xmlns="http://www.w3.org/2000/svg">
<rect width="130" height="130" rx="10" fill="white"/>
<path d="M27.8745 34.2H29.5965V44H27.8745V39.702H21.3645V44H19.6425V34.2H21.3645V38.232H27.8745V34.2ZM35.0438 36.328C37.1018 36.328 38.8518 37.014 38.8518 39.156V44H37.1298V43.034C36.7658 43.454 35.8698 44.21 34.1198 44.21C32.3278 44.21 31.1378 43.468 31.1378 42.04C31.1378 40.5 31.9778 39.282 37.1298 39.618V39.156C37.1298 38.12 36.5978 37.602 35.0438 37.602C33.7138 37.602 33.1678 38.036 33.0418 38.666H31.4318C31.6558 37.098 33.1118 36.328 35.0438 36.328ZM37.1298 41.9V40.654C34.0218 40.5 32.9018 40.766 32.9018 41.928C32.9018 42.684 33.4898 43.062 34.4838 43.062C35.7998 43.062 36.6678 42.572 37.1298 41.9ZM44.5549 42.936C46.0669 42.936 46.8229 42.054 47.0329 41.214H48.6429C48.2789 43.202 46.5709 44.21 44.5549 44.21C42.3709 44.21 40.2569 43.034 40.2569 40.276C40.2569 37.518 42.3709 36.328 44.5549 36.328C46.5709 36.328 48.2789 37.336 48.6429 39.324H47.0329C46.8229 38.484 46.0669 37.602 44.5549 37.602C42.5529 37.602 41.8389 38.96 41.8389 40.276C41.8389 41.578 42.5529 42.936 44.5549 42.936ZM50.0454 44V36.538H51.7674V44H50.0454ZM50.8994 35.502C50.3674 35.502 49.9894 35.194 49.9894 34.662C49.9894 34.13 50.3674 33.822 50.8994 33.822C51.4454 33.822 51.8234 34.13 51.8234 34.662C51.8234 35.194 51.4454 35.502 50.8994 35.502ZM57.0692 36.328C59.1272 36.328 60.8772 37.014 60.8772 39.156V44H59.1552V43.034C58.7912 43.454 57.8952 44.21 56.1452 44.21C54.3532 44.21 53.1632 43.468 53.1632 42.04C53.1632 40.5 54.0032 39.282 59.1552 39.618V39.156C59.1552 38.12 58.6232 37.602 57.0692 37.602C55.7392 37.602 55.1932 38.036 55.0672 38.666H53.4572C53.6812 37.098 55.1372 36.328 57.0692 36.328ZM59.1552 41.9V40.654C56.0472 40.5 54.9272 40.766 54.9272 41.928C54.9272 42.684 55.5152 43.062 56.5092 43.062C57.8252 43.062 58.6932 42.572 59.1552 41.9ZM70.2489 36.328C72.3069 36.328 74.0569 37.014 74.0569 39.156V44H72.3349V43.034C71.9709 43.454 71.0749 44.21 69.3249 44.21C67.5329 44.21 66.3429 43.468 66.3429 42.04C66.3429 40.5 67.1829 39.282 72.3349 39.618V39.156C72.3349 38.12 71.8029 37.602 70.2489 37.602C68.9189 37.602 68.3729 38.036 68.2469 38.666H66.6369C66.8609 37.098 68.3169 36.328 70.2489 36.328ZM72.3349 41.9V40.654C69.2269 40.5 68.1069 40.766 68.1069 41.928C68.1069 42.684 68.6949 43.062 69.6889 43.062C71.0049 43.062 71.8729 42.572 72.3349 41.9ZM80.74 36.328C81.076 36.328 81.272 36.342 81.566 36.384V38.092H81.51C81.216 38.008 80.838 37.952 80.362 37.952C78.472 37.952 77.758 39.044 77.758 40.206V44H76.022V36.538H77.758V37.938C78.094 37.392 79.13 36.328 80.74 36.328ZM87.6853 36.328C88.0213 36.328 88.2173 36.342 88.5113 36.384V38.092H88.4553C88.1613 38.008 87.7833 37.952 87.3073 37.952C85.4173 37.952 84.7033 39.044 84.7033 40.206V44H82.9673V36.538H84.7033V37.938C85.0393 37.392 86.0753 36.328 87.6853 36.328ZM89.9126 44V36.538H91.6346V44H89.9126ZM90.7666 35.502C90.2346 35.502 89.8566 35.194 89.8566 34.662C89.8566 34.13 90.2346 33.822 90.7666 33.822C91.3126 33.822 91.6906 34.13 91.6906 34.662C91.6906 35.194 91.3126 35.502 90.7666 35.502ZM98.0564 36.328C100.24 36.328 101.934 37.742 101.934 40.276C101.934 42.796 100.24 44.21 98.0564 44.21C96.7964 44.21 95.9004 43.734 95.3124 43.02V44H93.5904V34.2H95.3124V37.518C95.9004 36.804 96.7964 36.328 98.0564 36.328ZM97.7204 42.936C99.5124 42.936 100.338 41.844 100.338 40.276C100.338 38.694 99.5264 37.602 97.7204 37.602C95.9144 37.602 95.0604 38.722 95.0604 40.276C95.0604 41.816 95.9284 42.936 97.7204 42.936ZM106.684 36.328C108.742 36.328 110.492 37.014 110.492 39.156V44H108.77V43.034C108.406 43.454 107.51 44.21 105.76 44.21C103.968 44.21 102.778 43.468 102.778 42.04C102.778 40.5 103.618 39.282 108.77 39.618V39.156C108.77 38.12 108.238 37.602 106.684 37.602C105.354 37.602 104.808 38.036 104.682 38.666H103.072C103.296 37.098 104.752 36.328 106.684 36.328ZM108.77 41.9V40.654C105.662 40.5 104.542 40.766 104.542 41.928C104.542 42.684 105.13 43.062 106.124 43.062C107.44 43.062 108.308 42.572 108.77 41.9Z" fill="black"/>
<path d="M66.7071 55.2929C66.3166 54.9024 65.6834 54.9024 65.2929 55.2929L58.9289 61.6569C58.5384 62.0474 58.5384 62.6805 58.9289 63.0711C59.3195 63.4616 59.9526 63.4616 60.3431 63.0711L66 57.4142L71.6569 63.0711C72.0474 63.4616 72.6805 63.4616 73.0711 63.0711C73.4616 62.6805 73.4616 62.0474 73.0711 61.6569L66.7071 55.2929ZM66 100L67 100L67 56L66 56L65 56L65 100L66 100Z" fill="black"/>
</svg>
