<svg width="130" height="130" viewBox="0 0 130 130" fill="none" xmlns="http://www.w3.org/2000/svg">
<rect width="130" height="130" rx="10" fill="white"/>
<path d="M29.1411 34.2H31.0171L26.4811 44H24.2411L19.7051 34.2H21.5671L25.3611 42.642L29.1411 34.2ZM34.6473 36.328C37.0133 36.328 38.9173 37.728 38.7213 40.822H32.0013C32.1973 42.096 33.1073 42.936 34.6753 42.936C36.1313 42.936 36.7473 42.236 36.9993 41.704H38.5113C38.1333 43.23 36.6773 44.21 34.6753 44.21C32.5473 44.21 30.4473 42.992 30.4473 40.276C30.4473 37.602 32.5053 36.328 34.6473 36.328ZM32.0433 39.562H37.1813C36.9573 38.386 36.1453 37.602 34.6473 37.602C33.2613 37.602 32.3093 38.386 32.0433 39.562ZM44.8582 36.328C45.1942 36.328 45.3902 36.342 45.6842 36.384V38.092H45.6282C45.3342 38.008 44.9562 37.952 44.4802 37.952C42.5902 37.952 41.8762 39.044 41.8762 40.206V44H40.1402V36.538H41.8762V37.938C42.2122 37.392 43.2482 36.328 44.8582 36.328ZM51.0195 39.632C53.1335 39.996 54.3235 40.276 54.3235 41.746C54.3235 43.482 52.8815 44.21 50.3895 44.21C48.1215 44.21 46.3855 43.426 46.3855 41.732H48.1635C48.1635 42.544 48.9615 42.908 50.5295 42.908C52.0555 42.908 52.6015 42.53 52.6015 41.97C52.6015 41.144 51.3555 41.13 49.4515 40.78C47.5195 40.416 46.6655 39.968 46.6655 38.638C46.6655 37.14 48.0655 36.328 50.2635 36.328C52.6575 36.328 53.9455 37.28 53.9455 38.666H52.3355C52.3355 38.19 51.8315 37.602 50.2355 37.602C48.7375 37.602 48.2195 37.98 48.2195 38.554C48.2195 39.31 49.6895 39.408 51.0195 39.632ZM59.7866 33.668H61.5086V44H59.7866V33.668ZM67.1044 36.328C69.4704 36.328 71.3744 37.728 71.1784 40.822H64.4584C64.6544 42.096 65.5644 42.936 67.1324 42.936C68.5884 42.936 69.2044 42.236 69.4564 41.704H70.9684C70.5904 43.23 69.1344 44.21 67.1324 44.21C65.0044 44.21 62.9044 42.992 62.9044 40.276C62.9044 37.602 64.9624 36.328 67.1044 36.328ZM64.5004 39.562H69.6384C69.4144 38.386 68.6024 37.602 67.1044 37.602C65.7184 37.602 64.7664 38.386 64.5004 39.562ZM81.2357 36.328C83.1817 36.328 84.2457 37.434 84.2457 39.17V44H82.5237V39.688C82.5237 38.428 81.8377 37.728 80.4797 37.728C79.1217 37.728 78.3797 38.512 78.3797 39.688V44H76.6577V34.2H78.3797V37.686C78.7297 37.196 79.6817 36.328 81.2357 36.328ZM89.5467 36.328C91.6047 36.328 93.3547 37.014 93.3547 39.156V44H91.6327V43.034C91.2687 43.454 90.3727 44.21 88.6227 44.21C86.8307 44.21 85.6407 43.468 85.6407 42.04C85.6407 40.5 86.4807 39.282 91.6327 39.618V39.156C91.6327 38.12 91.1007 37.602 89.5467 37.602C88.2167 37.602 87.6707 38.036 87.5447 38.666H85.9347C86.1587 37.098 87.6147 36.328 89.5467 36.328ZM91.6327 41.9V40.654C88.5247 40.5 87.4047 40.766 87.4047 41.928C87.4047 42.684 87.9927 43.062 88.9867 43.062C90.3027 43.062 91.1707 42.572 91.6327 41.9ZM101.186 36.538H102.908V44H101.186V42.852C100.836 43.342 99.8838 44.21 98.3298 44.21C96.3838 44.21 95.3198 43.104 95.3198 41.368V36.538H97.0418V40.85C97.0418 42.11 97.7278 42.81 99.0858 42.81C100.444 42.81 101.186 42.026 101.186 40.85V36.538ZM109.598 37.854H107.344V41.214C107.344 42.474 107.848 42.824 109.598 42.642V43.986C109.346 44.056 108.968 44.112 108.618 44.112C106.35 44.112 105.622 43.188 105.622 41.214V37.854H104.166V36.538H105.622V34.606H107.344V36.538H109.598V37.854Z" fill="black"/>
<path d="M66.7071 55.2929C66.3166 54.9024 65.6834 54.9024 65.2929 55.2929L58.9289 61.6569C58.5384 62.0474 58.5384 62.6805 58.9289 63.0711C59.3195 63.4616 59.9526 63.4616 60.3431 63.0711L66 57.4142L71.6569 63.0711C72.0474 63.4616 72.6805 63.4616 73.0711 63.0711C73.4616 62.6805 73.4616 62.0474 73.0711 61.6569L66.7071 55.2929ZM66 100L67 100L67 56L66 56L65 56L65 100L66 100Z" fill="black"/>
</svg>
