<svg width="285" height="332" viewBox="0 0 285 332" fill="none" xmlns="http://www.w3.org/2000/svg">
<rect width="285" height="332" rx="10" fill="#D9D9D9"/>
<path d="M27.9597 307.3H30.7207V315H28.9497V308.917L26.3647 315H24.6817L22.0967 308.917V315H20.3257V307.3H23.0867L25.5177 313.218L27.9597 307.3ZM35.0652 308.983C36.7482 308.983 38.2222 309.467 38.2222 311.194V315H36.5502V314.219C36.2972 314.604 35.4502 315.165 34.1412 315.165C32.7662 315.165 31.8202 314.593 31.8202 313.438C31.8202 312.206 32.4582 311.216 36.5502 311.469V311.194C36.5502 310.578 36.2752 310.127 35.0652 310.127C34.0532 310.127 33.7342 310.424 33.6462 310.831H32.0842C32.2712 309.533 33.4592 308.983 35.0652 308.983ZM36.5502 313.284V312.459C34.3282 312.338 33.5032 312.547 33.5032 313.383C33.5032 313.933 33.9102 314.153 34.6362 314.153C35.5382 314.153 36.2422 313.801 36.5502 313.284ZM44.1609 315L42.3019 312.525L41.2129 313.537V315H39.5409V307.3H41.2129V311.689L43.9189 309.137H45.9539L43.4459 311.469L46.0969 315H44.1609ZM52.8066 312.503H47.6036C47.7356 313.306 48.2966 314.01 49.5176 314.01C50.4086 314.01 50.9806 313.614 51.2116 313.119H52.6856C52.3006 314.582 50.9696 315.165 49.5176 315.165C47.8456 315.165 46.0966 314.241 46.0966 312.074C46.0966 309.907 47.8236 308.983 49.5066 308.983C51.2116 308.983 52.9826 310.028 52.8066 312.503ZM49.5066 310.127C48.4616 310.127 47.8786 310.699 47.6586 311.403H51.2776C51.1016 310.699 50.6066 310.127 49.5066 310.127ZM60.2002 311.469C61.8502 311.755 62.9722 311.876 62.9722 313.229C62.9722 314.571 61.8282 315.165 59.7052 315.165C57.6372 315.165 56.3502 314.516 56.3502 313.196H58.1652C58.1652 313.779 58.8582 314.032 59.8152 314.032C60.7612 314.032 61.2562 313.856 61.2562 313.405C61.2562 312.877 60.5302 312.811 58.9682 312.547C57.4172 312.294 56.5812 311.964 56.5812 310.798C56.5812 309.621 57.6262 308.983 59.6062 308.983C61.6742 308.983 62.7082 309.753 62.7082 310.831H61.0252C61.0252 310.457 60.5962 310.083 59.5842 310.083C58.6712 310.083 58.1762 310.27 58.1762 310.721C58.1762 311.227 59.1552 311.282 60.2002 311.469ZM66.2374 315.165C64.7304 315.165 63.8504 314.34 63.8504 313.02V309.137H65.5224V312.602C65.5224 313.306 65.9294 313.911 66.9634 313.911C67.9974 313.911 68.4594 313.284 68.4594 312.602V309.137H70.1314V315H68.4594V314.175C68.2064 314.527 67.4914 315.165 66.2374 315.165ZM75.3169 308.994C75.7019 308.994 75.9879 309.027 76.1859 309.082V310.622H76.1309C75.9219 310.534 75.5259 310.435 75.0199 310.435C73.6339 310.435 73.1279 311.304 73.1279 312.217V315H71.4559V309.137H73.1279V310.215C73.3699 309.797 74.0629 308.994 75.3169 308.994ZM83.3359 312.503H78.1329C78.2649 313.306 78.8259 314.01 80.0469 314.01C80.9379 314.01 81.5099 313.614 81.7409 313.119H83.2149C82.8299 314.582 81.4989 315.165 80.0469 315.165C78.3749 315.165 76.6259 314.241 76.6259 312.074C76.6259 309.907 78.3529 308.983 80.0359 308.983C81.7409 308.983 83.5119 310.028 83.3359 312.503ZM80.0359 310.127C78.9909 310.127 78.4079 310.699 78.1879 311.403H81.8069C81.6309 310.699 81.1359 310.127 80.0359 310.127ZM91.4665 310.281H89.7505V312.745C89.7505 313.702 90.1025 313.889 91.4665 313.746V315C91.2465 315.033 90.9825 315.088 90.5975 315.088C88.4855 315.088 88.0785 314.175 88.0785 312.712V310.281H86.9895V309.137H88.0785V307.619H89.7505V309.137H91.4665V310.281ZM95.6249 308.983C97.3409 308.983 99.1229 309.863 99.1229 312.074C99.1229 314.285 97.3409 315.165 95.6249 315.165C93.9199 315.165 92.1269 314.285 92.1269 312.074C92.1269 309.863 93.9199 308.983 95.6249 308.983ZM95.6249 314.01C97.0329 314.01 97.5609 313.097 97.5609 312.074C97.5609 311.04 97.0329 310.127 95.6249 310.127C94.2169 310.127 93.6999 311.04 93.6999 312.074C93.6999 313.097 94.2169 314.01 95.6249 314.01ZM110.965 308.983C112.472 308.983 113.253 309.797 113.253 311.117V315H111.581V311.535C111.581 310.831 111.273 310.226 110.338 310.226C109.403 310.226 109.062 310.842 109.062 311.535V315H107.39V311.535C107.39 310.831 107.082 310.226 106.147 310.226C105.212 310.226 104.86 310.853 104.86 311.535V315H103.199V309.137H104.86V309.907C105.069 309.544 105.575 308.983 106.774 308.983C107.797 308.983 108.479 309.357 108.809 310.006C109.018 309.687 109.678 308.983 110.965 308.983ZM120.955 312.503H115.752C115.884 313.306 116.445 314.01 117.666 314.01C118.557 314.01 119.129 313.614 119.36 313.119H120.834C120.449 314.582 119.118 315.165 117.666 315.165C115.994 315.165 114.245 314.241 114.245 312.074C114.245 309.907 115.972 308.983 117.655 308.983C119.36 308.983 121.131 310.028 120.955 312.503ZM117.655 310.127C116.61 310.127 116.027 310.699 115.807 311.403H119.426C119.25 310.699 118.755 310.127 117.655 310.127ZM124.773 308.983C126.456 308.983 127.93 309.467 127.93 311.194V315H126.258V314.219C126.005 314.604 125.158 315.165 123.849 315.165C122.474 315.165 121.528 314.593 121.528 313.438C121.528 312.206 122.166 311.216 126.258 311.469V311.194C126.258 310.578 125.983 310.127 124.773 310.127C123.761 310.127 123.442 310.424 123.354 310.831H121.792C121.979 309.533 123.167 308.983 124.773 308.983ZM126.258 313.284V312.459C124.036 312.338 123.211 312.547 123.211 313.383C123.211 313.933 123.618 314.153 124.344 314.153C125.246 314.153 125.95 313.801 126.258 313.284ZM132.549 311.469C134.199 311.755 135.321 311.876 135.321 313.229C135.321 314.571 134.177 315.165 132.054 315.165C129.986 315.165 128.699 314.516 128.699 313.196H130.514C130.514 313.779 131.207 314.032 132.164 314.032C133.11 314.032 133.605 313.856 133.605 313.405C133.605 312.877 132.879 312.811 131.317 312.547C129.766 312.294 128.93 311.964 128.93 310.798C128.93 309.621 129.975 308.983 131.955 308.983C134.023 308.983 135.057 309.753 135.057 310.831H133.374C133.374 310.457 132.945 310.083 131.933 310.083C131.02 310.083 130.525 310.27 130.525 310.721C130.525 311.227 131.504 311.282 132.549 311.469ZM138.586 315.165C137.079 315.165 136.199 314.34 136.199 313.02V309.137H137.871V312.602C137.871 313.306 138.278 313.911 139.312 313.911C140.346 313.911 140.808 313.284 140.808 312.602V309.137H142.48V315H140.808V314.175C140.555 314.527 139.84 315.165 138.586 315.165ZM147.666 308.994C148.051 308.994 148.337 309.027 148.535 309.082V310.622H148.48C148.271 310.534 147.875 310.435 147.369 310.435C145.983 310.435 145.477 311.304 145.477 312.217V315H143.805V309.137H145.477V310.215C145.719 309.797 146.412 308.994 147.666 308.994ZM155.685 312.503H150.482C150.614 313.306 151.175 314.01 152.396 314.01C153.287 314.01 153.859 313.614 154.09 313.119H155.564C155.179 314.582 153.848 315.165 152.396 315.165C150.724 315.165 148.975 314.241 148.975 312.074C148.975 309.907 150.702 308.983 152.385 308.983C154.09 308.983 155.861 310.028 155.685 312.503ZM152.385 310.127C151.34 310.127 150.757 310.699 150.537 311.403H154.156C153.98 310.699 153.485 310.127 152.385 310.127ZM159.778 306.882H161.45V315H159.778V306.882ZM162.775 315V309.137H164.436V315H162.775ZM163.6 308.455C163.094 308.455 162.742 308.169 162.742 307.674C162.742 307.168 163.094 306.882 163.6 306.882C164.106 306.882 164.469 307.168 164.469 307.674C164.469 308.169 164.106 308.455 163.6 308.455ZM169.656 308.983C171.163 308.983 172.043 309.797 172.043 311.117V315H170.371V311.535C170.371 310.831 169.964 310.226 168.93 310.226C167.896 310.226 167.434 310.853 167.434 311.535V315H165.762V309.137H167.434V309.962C167.687 309.61 168.402 308.983 169.656 308.983ZM179.747 312.503H174.544C174.676 313.306 175.237 314.01 176.458 314.01C177.349 314.01 177.921 313.614 178.152 313.119H179.626C179.241 314.582 177.91 315.165 176.458 315.165C174.786 315.165 173.037 314.241 173.037 312.074C173.037 309.907 174.764 308.983 176.447 308.983C178.152 308.983 179.923 310.028 179.747 312.503ZM176.447 310.127C175.402 310.127 174.819 310.699 174.599 311.403H178.218C178.042 310.699 177.547 310.127 176.447 310.127ZM183.565 308.983C185.248 308.983 186.722 309.467 186.722 311.194V315H185.05V314.219C184.797 314.604 183.95 315.165 182.641 315.165C181.266 315.165 180.32 314.593 180.32 313.438C180.32 312.206 180.958 311.216 185.05 311.469V311.194C185.05 310.578 184.775 310.127 183.565 310.127C182.553 310.127 182.234 310.424 182.146 310.831H180.584C180.771 309.533 181.959 308.983 183.565 308.983ZM185.05 313.284V312.459C182.828 312.338 182.003 312.547 182.003 313.383C182.003 313.933 182.41 314.153 183.136 314.153C184.038 314.153 184.742 313.801 185.05 313.284ZM191.902 308.994C192.287 308.994 192.573 309.027 192.771 309.082V310.622H192.716C192.507 310.534 192.111 310.435 191.605 310.435C190.219 310.435 189.713 311.304 189.713 312.217V315H188.041V309.137H189.713V310.215C189.955 309.797 190.648 308.994 191.902 308.994ZM201.604 307.3H203.276V315H201.604V314.274C201.175 314.824 200.493 315.165 199.503 315.165C197.798 315.165 196.401 314.065 196.401 312.074C196.401 310.083 197.798 308.983 199.503 308.983C200.493 308.983 201.175 309.324 201.604 309.874V307.3ZM199.877 314.01C201.076 314.01 201.813 313.306 201.813 312.074C201.813 310.842 201.076 310.127 199.877 310.127C198.667 310.127 197.974 310.842 197.974 312.074C197.974 313.306 198.667 314.01 199.877 314.01ZM204.595 315V309.137H206.256V315H204.595ZM205.42 308.455C204.914 308.455 204.562 308.169 204.562 307.674C204.562 307.168 204.914 306.882 205.42 306.882C205.926 306.882 206.289 307.168 206.289 307.674C206.289 308.169 205.926 308.455 205.42 308.455ZM215.347 308.983C216.854 308.983 217.635 309.797 217.635 311.117V315H215.963V311.535C215.963 310.831 215.655 310.226 214.72 310.226C213.785 310.226 213.444 310.842 213.444 311.535V315H211.772V311.535C211.772 310.831 211.464 310.226 210.529 310.226C209.594 310.226 209.242 310.853 209.242 311.535V315H207.581V309.137H209.242V309.907C209.451 309.544 209.957 308.983 211.156 308.983C212.179 308.983 212.861 309.357 213.191 310.006C213.4 309.687 214.06 308.983 215.347 308.983ZM225.337 312.503H220.134C220.266 313.306 220.827 314.01 222.048 314.01C222.939 314.01 223.511 313.614 223.742 313.119H225.216C224.831 314.582 223.5 315.165 222.048 315.165C220.376 315.165 218.627 314.241 218.627 312.074C218.627 309.907 220.354 308.983 222.037 308.983C223.742 308.983 225.513 310.028 225.337 312.503ZM222.037 310.127C220.992 310.127 220.409 310.699 220.189 311.403H223.808C223.632 310.699 223.137 310.127 222.037 310.127ZM230.242 308.983C231.748 308.983 232.629 309.797 232.629 311.117V315H230.957V311.535C230.957 310.831 230.55 310.226 229.516 310.226C228.482 310.226 228.02 310.853 228.02 311.535V315H226.348V309.137H228.02V309.962C228.273 309.61 228.988 308.983 230.242 308.983ZM237.253 311.469C238.903 311.755 240.025 311.876 240.025 313.229C240.025 314.571 238.881 315.165 236.758 315.165C234.69 315.165 233.403 314.516 233.403 313.196H235.218C235.218 313.779 235.911 314.032 236.868 314.032C237.814 314.032 238.309 313.856 238.309 313.405C238.309 312.877 237.583 312.811 236.021 312.547C234.47 312.294 233.634 311.964 233.634 310.798C233.634 309.621 234.679 308.983 236.659 308.983C238.727 308.983 239.761 309.753 239.761 310.831H238.078C238.078 310.457 237.649 310.083 236.637 310.083C235.724 310.083 235.229 310.27 235.229 310.721C235.229 311.227 236.208 311.282 237.253 311.469ZM240.903 315V309.137H242.564V315H240.903ZM241.728 308.455C241.222 308.455 240.87 308.169 240.87 307.674C240.87 307.168 241.222 306.882 241.728 306.882C242.234 306.882 242.597 307.168 242.597 307.674C242.597 308.169 242.234 308.455 241.728 308.455ZM247.057 308.983C248.773 308.983 250.555 309.863 250.555 312.074C250.555 314.285 248.773 315.165 247.057 315.165C245.352 315.165 243.559 314.285 243.559 312.074C243.559 309.863 245.352 308.983 247.057 308.983ZM247.057 314.01C248.465 314.01 248.993 313.097 248.993 312.074C248.993 311.04 248.465 310.127 247.057 310.127C245.649 310.127 245.132 311.04 245.132 312.074C245.132 313.097 245.649 314.01 247.057 314.01ZM255.443 308.983C256.95 308.983 257.83 309.797 257.83 311.117V315H256.158V311.535C256.158 310.831 255.751 310.226 254.717 310.226C253.683 310.226 253.221 310.853 253.221 311.535V315H251.549V309.137H253.221V309.962C253.474 309.61 254.189 308.983 255.443 308.983ZM262.454 311.469C264.104 311.755 265.226 311.876 265.226 313.229C265.226 314.571 264.082 315.165 261.959 315.165C259.891 315.165 258.604 314.516 258.604 313.196H260.419C260.419 313.779 261.112 314.032 262.069 314.032C263.015 314.032 263.51 313.856 263.51 313.405C263.51 312.877 262.784 312.811 261.222 312.547C259.671 312.294 258.835 311.964 258.835 310.798C258.835 309.621 259.88 308.983 261.86 308.983C263.928 308.983 264.962 309.753 264.962 310.831H263.279C263.279 310.457 262.85 310.083 261.838 310.083C260.925 310.083 260.43 310.27 260.43 310.721C260.43 311.227 261.409 311.282 262.454 311.469Z" fill="black"/>
<path d="M150.259 181.61C150.671 177.995 148.471 167.24 147.876 162.389C147.005 155.753 147.555 148.979 149.159 142.755C153.375 124.403 162.816 85.0447 164.145 58.1344C164.512 51.956 165.887 35.4804 166.207 29.0732C166.207 27.6544 166.436 26.8764 165.566 26.4187C156.171 26.0068 111.487 26.373 94.5303 26.2357C87.7476 26.2357 82.7064 26.2357 80.7357 26.2357C80.2774 26.2357 79.9108 26.3272 79.59 26.6018C79.1317 27.0595 79.1317 27.8375 79.1317 28.5697C79.0858 43.3521 78.9483 52.0933 78.4442 67.9283C77.9401 80.0104 77.9401 93.969 75.0529 104.815C74.3654 107.699 73.5405 110.536 72.8531 113.419C69.9658 123.946 69.4159 136.257 72.5781 146.554C77.161 162.114 91.5972 198.04 108.508 208.933C121.386 217.765 138.801 217.811 146.592 204.219C150.305 197.537 150.534 188.567 149.8 180.512L150.35 181.61H150.259Z" fill="#D3D3D5" stroke="#1D1D1B" stroke-width="2" stroke-miterlimit="10"/>
<path d="M244.543 241.747H217V206.187H224.241V235.431H244.543V241.747Z" fill="#050A0A"/>
<path d="M180.185 176.714H179.085V277.307H180.185V176.714Z" fill="black"/>
<path d="M185.043 276.849H174.228V277.855H185.043V276.849Z" fill="black"/>
<path d="M185.043 176.21H174.228V177.217H185.043V176.21Z" fill="black"/>
<path d="M157.133 176.347C149.342 175.157 145.813 169.894 144.988 160.695C143.018 144.174 137.701 120.559 119.92 118.499C102.55 115.799 89.4432 131.131 73.8154 137.401C71.2032 138.59 67.766 140.009 65.7037 140.97C64.0538 141.84 63.9163 142.435 64.3746 143.991C66.4828 150.398 68.4992 159.139 69.7825 167.148C71.7073 178.59 72.2114 189.894 72.9447 201.747C74.0446 220.74 75.4653 242.067 77.9401 252.09C80.7815 265.636 91.7805 274.744 103.925 276.757C122.944 280.052 144.438 277.078 151.634 251.678C154.979 239.733 154.979 227.559 155.896 215.202C156.217 209.894 156.583 204.356 156.95 199.001C157.591 189.07 158.141 181.839 158.37 178.59C158.416 177.537 158.37 176.622 157.271 176.393H157.179L157.133 176.347Z" fill="white" stroke="#020A0A" stroke-width="2" stroke-miterlimit="10"/>
<path d="M190 177H205V277H190.502" stroke="black" stroke-miterlimit="9.99856" stroke-dasharray="4 4"/>
</svg>
