<svg width="285" height="332" viewBox="0 0 285 332" fill="none" xmlns="http://www.w3.org/2000/svg">
<rect width="285" height="332" rx="10" fill="black"/>
<path d="M150.259 181.613C150.671 177.998 148.471 167.243 147.876 162.392C147.005 155.756 147.555 148.982 149.159 142.758C153.375 124.406 162.816 85.0476 164.145 58.1373C164.512 51.959 165.887 35.4833 166.207 29.0761C166.207 27.6573 166.436 26.8793 165.566 26.4217C156.171 26.0098 111.487 26.3759 94.5303 26.2386C87.7476 26.2386 82.7064 26.2386 80.7357 26.2386C80.2774 26.2386 79.9108 26.3301 79.59 26.6047C79.1317 27.0624 79.1317 27.8404 79.1317 28.5727C79.0858 43.355 78.9483 52.0963 78.4442 67.9312C77.9401 80.0134 77.9401 93.9719 75.0529 104.818C74.3654 107.702 73.5405 110.539 72.8531 113.422C69.9658 123.949 69.4159 136.259 72.5781 146.557C77.161 162.117 91.5972 198.043 108.508 208.936C121.386 217.768 138.801 217.814 146.592 204.222C150.305 197.54 150.534 188.57 149.8 180.515L150.35 181.613H150.259Z" fill="#2D2D2D" stroke="white" stroke-width="2" stroke-miterlimit="10"/>
<path d="M248.543 244.56H221V209H228.241V238.244H248.543V244.56Z" fill="white"/>
<path d="M180.185 176.719H179.085V277.312H180.185V176.719Z" fill="white"/>
<path d="M185.043 276.859H174.228V277.866H185.043V276.859Z" fill="white"/>
<path d="M185.043 176.219H174.228V177.226H185.043V176.219Z" fill="white"/>
<path d="M157.134 176.351C149.343 175.161 145.814 169.898 144.989 160.699C143.019 144.178 137.702 120.563 119.921 118.503C102.551 115.803 89.4442 131.135 73.8164 137.404C71.2041 138.594 67.7669 140.013 65.7046 140.974C64.0548 141.844 63.9173 142.439 64.3756 143.995C66.4837 150.402 68.5002 159.143 69.7834 167.152C71.7083 178.594 72.2124 189.898 72.9457 201.751C74.0456 220.744 75.4663 242.071 77.9411 252.093C80.7825 265.64 91.7815 274.748 103.926 276.761C122.945 280.056 144.439 277.082 151.635 251.682C154.98 239.737 154.98 227.563 155.897 215.206C156.217 209.897 156.584 204.36 156.951 199.005C157.592 189.074 158.142 181.843 158.371 178.594C158.417 177.541 158.371 176.626 157.272 176.397H157.18L157.134 176.351Z" fill="black" stroke="white" stroke-width="2" stroke-miterlimit="10"/>
<path d="M190 177H208V278H190" stroke="white" stroke-miterlimit="10" stroke-dasharray="4 4"/>
<path d="M67.7217 304L67.0117 302.44H63.0017L62.3017 304H60.9717L64.2117 297H65.8117L69.0517 304H67.7217ZM63.4717 301.4H66.5517L65.0117 297.97L63.4717 301.4ZM72.5579 300.88C74.0679 301.14 74.9179 301.34 74.9179 302.39C74.9179 303.63 73.8879 304.15 72.1079 304.15C70.4879 304.15 69.2479 303.59 69.2479 302.38H70.5179C70.5179 302.96 71.0879 303.22 72.2079 303.22C73.2979 303.22 73.6879 302.95 73.6879 302.55C73.6879 301.96 72.7979 301.95 71.4379 301.7C70.0579 301.44 69.4479 301.12 69.4479 300.17C69.4479 299.1 70.4479 298.52 72.0179 298.52C73.7279 298.52 74.6479 299.2 74.6479 300.19H73.4979C73.4979 299.85 73.1379 299.43 71.9979 299.43C70.9279 299.43 70.5579 299.7 70.5579 300.11C70.5579 300.65 71.6079 300.72 72.5579 300.88ZM78.7297 300.88C80.2397 301.14 81.0897 301.34 81.0897 302.39C81.0897 303.63 80.0597 304.15 78.2797 304.15C76.6597 304.15 75.4197 303.59 75.4197 302.38H76.6897C76.6897 302.96 77.2597 303.22 78.3797 303.22C79.4697 303.22 79.8597 302.95 79.8597 302.55C79.8597 301.96 78.9697 301.95 77.6097 301.7C76.2297 301.44 75.6197 301.12 75.6197 300.17C75.6197 299.1 76.6197 298.52 78.1897 298.52C79.8997 298.52 80.8197 299.2 80.8197 300.19H79.6697C79.6697 299.85 79.3097 299.43 78.1697 299.43C77.0997 299.43 76.7297 299.7 76.7297 300.11C76.7297 300.65 77.7797 300.72 78.7297 300.88ZM86.2816 298.67H87.5116V304H86.2816V303.18C86.0316 303.53 85.3516 304.15 84.2416 304.15C82.8516 304.15 82.0916 303.36 82.0916 302.12V298.67H83.3216V301.75C83.3216 302.65 83.8116 303.15 84.7816 303.15C85.7516 303.15 86.2816 302.59 86.2816 301.75V298.67ZM92.278 298.52C92.518 298.52 92.658 298.53 92.868 298.56V299.78H92.828C92.618 299.72 92.348 299.68 92.008 299.68C90.658 299.68 90.148 300.46 90.148 301.29V304H88.908V298.67H90.148V299.67C90.388 299.28 91.128 298.52 92.278 298.52ZM96.3713 298.52C98.0613 298.52 99.4213 299.52 99.2813 301.73H94.4813C94.6213 302.64 95.2713 303.24 96.3913 303.24C97.4313 303.24 97.8713 302.74 98.0513 302.36H99.1313C98.8613 303.45 97.8213 304.15 96.3913 304.15C94.8713 304.15 93.3713 303.28 93.3713 301.34C93.3713 299.43 94.8413 298.52 96.3713 298.52ZM94.5113 300.83H98.1813C98.0213 299.99 97.4413 299.43 96.3713 299.43C95.3813 299.43 94.7013 299.99 94.5113 300.83ZM101.509 302.96H105.129V304H99.7994V303.01L103.329 299.71H99.9894V298.67H105.039V299.66L101.509 302.96ZM106.332 300.76H109.512V301.61H106.332V300.76ZM115.18 298.67H116.48L114.09 304H112.8L110.41 298.67H111.71L113.45 302.8L115.18 298.67ZM119.732 298.52C121.292 298.52 122.792 299.37 122.792 301.34C122.792 303.31 121.292 304.15 119.732 304.15C118.172 304.15 116.682 303.31 116.682 301.34C116.682 299.37 118.172 298.52 119.732 298.52ZM119.732 303.24C121.162 303.24 121.652 302.27 121.652 301.34C121.652 300.4 121.162 299.43 119.732 299.43C118.302 299.43 117.812 300.4 117.812 301.34C117.812 302.27 118.302 303.24 119.732 303.24ZM127.981 298.67H129.211V304H127.981V303.18C127.731 303.53 127.051 304.15 125.941 304.15C124.551 304.15 123.791 303.36 123.791 302.12V298.67H125.021V301.75C125.021 302.65 125.511 303.15 126.481 303.15C127.451 303.15 127.981 302.59 127.981 301.75V298.67ZM133.417 300.88C134.927 301.14 135.777 301.34 135.777 302.39C135.777 303.63 134.747 304.15 132.967 304.15C131.347 304.15 130.107 303.59 130.107 302.38H131.377C131.377 302.96 131.947 303.22 133.067 303.22C134.157 303.22 134.547 302.95 134.547 302.55C134.547 301.96 133.657 301.95 132.297 301.7C130.917 301.44 130.307 301.12 130.307 300.17C130.307 299.1 131.307 298.52 132.877 298.52C134.587 298.52 135.507 299.2 135.507 300.19H134.357C134.357 299.85 133.997 299.43 132.857 299.43C131.787 299.43 131.417 299.7 131.417 300.11C131.417 300.65 132.467 300.72 133.417 300.88ZM143.999 297H145.229V304H143.999V303.3C143.579 303.81 142.939 304.15 142.049 304.15C140.489 304.15 139.279 303.14 139.279 301.34C139.279 299.53 140.489 298.52 142.049 298.52C142.939 298.52 143.579 298.86 143.999 299.37V297ZM142.289 303.24C143.559 303.24 144.189 302.44 144.189 301.34C144.189 300.23 143.579 299.43 142.289 299.43C140.989 299.43 140.419 300.21 140.419 301.34C140.419 302.46 141.009 303.24 142.289 303.24ZM149.233 298.52C150.923 298.52 152.283 299.52 152.143 301.73H147.343C147.483 302.64 148.133 303.24 149.253 303.24C150.293 303.24 150.733 302.74 150.913 302.36H151.993C151.723 303.45 150.683 304.15 149.253 304.15C147.733 304.15 146.233 303.28 146.233 301.34C146.233 299.43 147.703 298.52 149.233 298.52ZM147.373 300.83H151.043C150.883 299.99 150.303 299.43 149.233 299.43C148.243 299.43 147.563 299.99 147.373 300.83ZM162.856 298.52C164.246 298.52 164.916 299.31 164.916 300.55V304H163.676V300.92C163.676 300.02 163.346 299.52 162.406 299.52C161.476 299.52 161.096 300.12 161.096 300.92V304H159.866V300.92C159.866 300.02 159.526 299.52 158.596 299.52C157.666 299.52 157.286 300.12 157.286 300.92V304H156.056V298.67H157.286V299.45C157.486 299.1 157.996 298.52 159.036 298.52C159.956 298.52 160.556 298.86 160.856 299.45C161.126 299.09 161.786 298.52 162.856 298.52ZM168.92 298.52C170.61 298.52 171.97 299.52 171.83 301.73H167.03C167.17 302.64 167.82 303.24 168.94 303.24C169.98 303.24 170.42 302.74 170.6 302.36H171.68C171.41 303.45 170.37 304.15 168.94 304.15C167.42 304.15 165.92 303.28 165.92 301.34C165.92 299.43 167.39 298.52 168.92 298.52ZM167.06 300.83H170.73C170.57 299.99 169.99 299.43 168.92 299.43C167.93 299.43 167.25 299.99 167.06 300.83ZM175.654 300.88C177.164 301.14 178.014 301.34 178.014 302.39C178.014 303.63 176.984 304.15 175.204 304.15C173.584 304.15 172.344 303.59 172.344 302.38H173.614C173.614 302.96 174.184 303.22 175.304 303.22C176.394 303.22 176.784 302.95 176.784 302.55C176.784 301.96 175.894 301.95 174.534 301.7C173.154 301.44 172.544 301.12 172.544 300.17C172.544 299.1 173.544 298.52 175.114 298.52C176.824 298.52 177.744 299.2 177.744 300.19H176.594C176.594 299.85 176.234 299.43 175.094 299.43C174.024 299.43 173.654 299.7 173.654 300.11C173.654 300.65 174.704 300.72 175.654 300.88ZM183.205 298.67H184.435V304H183.205V303.18C182.955 303.53 182.275 304.15 181.165 304.15C179.775 304.15 179.015 303.36 179.015 302.12V298.67H180.245V301.75C180.245 302.65 180.735 303.15 181.705 303.15C182.675 303.15 183.205 302.59 183.205 301.75V298.67ZM189.202 298.52C189.442 298.52 189.582 298.53 189.792 298.56V299.78H189.752C189.542 299.72 189.272 299.68 188.932 299.68C187.582 299.68 187.072 300.46 187.072 301.29V304H185.832V298.67H187.072V299.67C187.312 299.28 188.052 298.52 189.202 298.52ZM193.295 298.52C194.985 298.52 196.345 299.52 196.205 301.73H191.405C191.545 302.64 192.195 303.24 193.315 303.24C194.355 303.24 194.795 302.74 194.975 302.36H196.055C195.785 303.45 194.745 304.15 193.315 304.15C191.795 304.15 190.295 303.28 190.295 301.34C190.295 299.43 191.765 298.52 193.295 298.52ZM191.435 300.83H195.105C194.945 299.99 194.365 299.43 193.295 299.43C192.305 299.43 191.625 299.99 191.435 300.83ZM200.589 298.52C200.829 298.52 200.969 298.53 201.179 298.56V299.78H201.139C200.929 299.72 200.659 299.68 200.319 299.68C198.969 299.68 198.459 300.46 198.459 301.29V304H197.219V298.67H198.459V299.67C198.699 299.28 199.439 298.52 200.589 298.52ZM209.4 297H210.63V304H209.4V303.3C208.98 303.81 208.34 304.15 207.45 304.15C205.89 304.15 204.68 303.14 204.68 301.34C204.68 299.53 205.89 298.52 207.45 298.52C208.34 298.52 208.98 298.86 209.4 299.37V297ZM207.69 303.24C208.96 303.24 209.59 302.44 209.59 301.34C209.59 300.23 208.98 299.43 207.69 299.43C206.39 299.43 205.82 300.21 205.82 301.34C205.82 302.46 206.41 303.24 207.69 303.24ZM214.633 298.52C216.323 298.52 217.683 299.52 217.543 301.73H212.743C212.883 302.64 213.533 303.24 214.653 303.24C215.693 303.24 216.133 302.74 216.313 302.36H217.393C217.123 303.45 216.083 304.15 214.653 304.15C213.133 304.15 211.633 303.28 211.633 301.34C211.633 299.43 213.103 298.52 214.633 298.52ZM212.773 300.83H216.443C216.283 299.99 215.703 299.43 214.633 299.43C213.643 299.43 212.963 299.99 212.773 300.83ZM221.366 300.88C222.876 301.14 223.726 301.34 223.726 302.39C223.726 303.63 222.696 304.15 220.916 304.15C219.296 304.15 218.056 303.59 218.056 302.38H219.326C219.326 302.96 219.896 303.22 221.016 303.22C222.106 303.22 222.496 302.95 222.496 302.55C222.496 301.96 221.606 301.95 220.246 301.7C218.866 301.44 218.256 301.12 218.256 300.17C218.256 299.1 219.256 298.52 220.826 298.52C222.536 298.52 223.456 299.2 223.456 300.19H222.306C222.306 299.85 221.946 299.43 220.806 299.43C219.736 299.43 219.366 299.7 219.366 300.11C219.366 300.65 220.416 300.72 221.366 300.88ZM92.5835 310H93.8135V317H92.5835V316.3C92.1635 316.81 91.5235 317.15 90.6335 317.15C89.0735 317.15 87.8635 316.14 87.8635 314.34C87.8635 312.53 89.0735 311.52 90.6335 311.52C91.5235 311.52 92.1635 311.86 92.5835 312.37V310ZM90.8735 316.24C92.1435 316.24 92.7735 315.44 92.7735 314.34C92.7735 313.23 92.1635 312.43 90.8735 312.43C89.5735 312.43 89.0035 313.21 89.0035 314.34C89.0035 315.46 89.5935 316.24 90.8735 316.24ZM95.2166 317V311.67H96.4466V317H95.2166ZM95.8266 310.93C95.4466 310.93 95.1766 310.71 95.1766 310.33C95.1766 309.95 95.4466 309.73 95.8266 309.73C96.2166 309.73 96.4866 309.95 96.4866 310.33C96.4866 310.71 96.2166 310.93 95.8266 310.93ZM104.644 311.52C106.034 311.52 106.704 312.31 106.704 313.55V317H105.464V313.92C105.464 313.02 105.134 312.52 104.194 312.52C103.264 312.52 102.884 313.12 102.884 313.92V317H101.654V313.92C101.654 313.02 101.314 312.52 100.384 312.52C99.4536 312.52 99.0736 313.12 99.0736 313.92V317H97.8436V311.67H99.0736V312.45C99.2736 312.1 99.7836 311.52 100.824 311.52C101.744 311.52 102.344 311.86 102.644 312.45C102.914 312.09 103.574 311.52 104.644 311.52ZM110.707 311.52C112.397 311.52 113.757 312.52 113.617 314.73H108.817C108.957 315.64 109.607 316.24 110.727 316.24C111.767 316.24 112.207 315.74 112.387 315.36H113.467C113.197 316.45 112.157 317.15 110.727 317.15C109.207 317.15 107.707 316.28 107.707 314.34C107.707 312.43 109.177 311.52 110.707 311.52ZM108.847 313.83H112.517C112.357 312.99 111.777 312.43 110.707 312.43C109.717 312.43 109.037 312.99 108.847 313.83ZM117.901 311.52C119.291 311.52 120.051 312.31 120.051 313.55V317H118.821V313.92C118.821 313.02 118.331 312.52 117.361 312.52C116.391 312.52 115.861 313.08 115.861 313.92V317H114.631V311.67H115.861V312.49C116.111 312.14 116.791 311.52 117.901 311.52ZM124.257 313.88C125.767 314.14 126.617 314.34 126.617 315.39C126.617 316.63 125.587 317.15 123.807 317.15C122.187 317.15 120.947 316.59 120.947 315.38H122.217C122.217 315.96 122.787 316.22 123.907 316.22C124.997 316.22 125.387 315.95 125.387 315.55C125.387 314.96 124.497 314.95 123.137 314.7C121.757 314.44 121.147 314.12 121.147 313.17C121.147 312.1 122.147 311.52 123.717 311.52C125.427 311.52 126.347 312.2 126.347 313.19H125.197C125.197 312.85 124.837 312.43 123.697 312.43C122.627 312.43 122.257 312.7 122.257 313.11C122.257 313.65 123.307 313.72 124.257 313.88ZM127.619 317V311.67H128.849V317H127.619ZM128.229 310.93C127.849 310.93 127.579 310.71 127.579 310.33C127.579 309.95 127.849 309.73 128.229 309.73C128.619 309.73 128.889 309.95 128.889 310.33C128.889 310.71 128.619 310.93 128.229 310.93ZM132.896 311.52C134.456 311.52 135.956 312.37 135.956 314.34C135.956 316.31 134.456 317.15 132.896 317.15C131.336 317.15 129.846 316.31 129.846 314.34C129.846 312.37 131.336 311.52 132.896 311.52ZM132.896 316.24C134.326 316.24 134.816 315.27 134.816 314.34C134.816 313.4 134.326 312.43 132.896 312.43C131.466 312.43 130.976 313.4 130.976 314.34C130.976 315.27 131.466 316.24 132.896 316.24ZM140.225 311.52C141.615 311.52 142.375 312.31 142.375 313.55V317H141.145V313.92C141.145 313.02 140.655 312.52 139.685 312.52C138.715 312.52 138.185 313.08 138.185 313.92V317H136.955V311.67H138.185V312.49C138.435 312.14 139.115 311.52 140.225 311.52ZM146.581 313.88C148.091 314.14 148.941 314.34 148.941 315.39C148.941 316.63 147.911 317.15 146.131 317.15C144.511 317.15 143.271 316.59 143.271 315.38H144.541C144.541 315.96 145.111 316.22 146.231 316.22C147.321 316.22 147.711 315.95 147.711 315.55C147.711 314.96 146.821 314.95 145.461 314.7C144.081 314.44 143.471 314.12 143.471 313.17C143.471 312.1 144.471 311.52 146.041 311.52C147.751 311.52 148.671 312.2 148.671 313.19H147.521C147.521 312.85 147.161 312.43 146.021 312.43C144.951 312.43 144.581 312.7 144.581 313.11C144.581 313.65 145.631 313.72 146.581 313.88ZM152.844 309.62H154.074V317H152.844V309.62ZM155.471 317V311.67H156.701V317H155.471ZM156.081 310.93C155.701 310.93 155.431 310.71 155.431 310.33C155.431 309.95 155.701 309.73 156.081 309.73C156.471 309.73 156.741 309.95 156.741 310.33C156.741 310.71 156.471 310.93 156.081 310.93ZM161.367 311.52C162.757 311.52 163.517 312.31 163.517 313.55V317H162.287V313.92C162.287 313.02 161.797 312.52 160.827 312.52C159.857 312.52 159.327 313.08 159.327 313.92V317H158.097V311.67H159.327V312.49C159.577 312.14 160.257 311.52 161.367 311.52ZM167.514 311.52C169.204 311.52 170.564 312.52 170.424 314.73H165.624C165.764 315.64 166.414 316.24 167.534 316.24C168.574 316.24 169.014 315.74 169.194 315.36H170.274C170.004 316.45 168.964 317.15 167.534 317.15C166.014 317.15 164.514 316.28 164.514 314.34C164.514 312.43 165.984 311.52 167.514 311.52ZM165.654 313.83H169.324C169.164 312.99 168.584 312.43 167.514 312.43C166.524 312.43 165.844 312.99 165.654 313.83ZM167.794 309.65H169.094L167.854 310.94H167.054L167.794 309.65ZM173.827 311.52C175.297 311.52 176.547 312.01 176.547 313.54V317H175.317V316.31C175.057 316.61 174.417 317.15 173.167 317.15C171.887 317.15 171.037 316.62 171.037 315.6C171.037 314.5 171.637 313.63 175.317 313.87V313.54C175.317 312.8 174.937 312.43 173.827 312.43C172.877 312.43 172.487 312.74 172.397 313.19H171.247C171.407 312.07 172.447 311.52 173.827 311.52ZM175.317 315.5V314.61C173.097 314.5 172.297 314.69 172.297 315.52C172.297 316.06 172.717 316.33 173.427 316.33C174.367 316.33 174.987 315.98 175.317 315.5ZM177.951 317V311.67H179.181V317H177.951ZM178.561 310.93C178.181 310.93 177.911 310.71 177.911 310.33C177.911 309.95 178.181 309.73 178.561 309.73C178.951 309.73 179.221 309.95 179.221 310.33C179.221 310.71 178.951 310.93 178.561 310.93ZM183.948 311.52C184.188 311.52 184.328 311.53 184.538 311.56V312.78H184.498C184.288 312.72 184.018 312.68 183.678 312.68C182.328 312.68 181.818 313.46 181.818 314.29V317H180.578V311.67H181.818V312.67C182.058 312.28 182.798 311.52 183.948 311.52ZM188.041 311.52C189.731 311.52 191.091 312.52 190.951 314.73H186.151C186.291 315.64 186.941 316.24 188.061 316.24C189.101 316.24 189.541 315.74 189.721 315.36H190.801C190.531 316.45 189.491 317.15 188.061 317.15C186.541 317.15 185.041 316.28 185.041 314.34C185.041 312.43 186.511 311.52 188.041 311.52ZM186.181 313.83H189.851C189.691 312.99 189.111 312.43 188.041 312.43C187.051 312.43 186.371 312.99 186.181 313.83ZM194.775 313.88C196.285 314.14 197.135 314.34 197.135 315.39C197.135 316.63 196.105 317.15 194.325 317.15C192.705 317.15 191.465 316.59 191.465 315.38H192.735C192.735 315.96 193.305 316.22 194.425 316.22C195.515 316.22 195.905 315.95 195.905 315.55C195.905 314.96 195.015 314.95 193.655 314.7C192.275 314.44 191.665 314.12 191.665 313.17C191.665 312.1 192.665 311.52 194.235 311.52C195.945 311.52 196.865 312.2 196.865 313.19H195.715C195.715 312.85 195.355 312.43 194.215 312.43C193.145 312.43 192.775 312.7 192.775 313.11C192.775 313.65 193.825 313.72 194.775 313.88Z" fill="white"/>
</svg>
