<svg width="285" height="332" viewBox="0 0 285 332" fill="none" xmlns="http://www.w3.org/2000/svg">
<rect width="285" height="332" rx="10" fill="#D9D9D9"/>
<rect width="285" height="332" rx="10" fill="#D9D9D9"/>
<path d="M150.259 181.611C150.671 177.996 148.472 167.241 147.876 162.39C147.005 155.754 147.555 148.98 149.159 142.756C153.375 124.404 162.816 85.0457 164.145 58.1354C164.512 51.957 165.887 35.4813 166.208 29.0741C166.208 27.6554 166.437 26.8774 165.566 26.4197C156.171 26.0078 111.487 26.3739 94.5306 26.2367C87.7478 26.2367 82.7066 26.2367 80.7359 26.2367C80.2776 26.2367 79.911 26.3282 79.5902 26.6028C79.1319 27.0604 79.1319 27.8385 79.1319 28.5707C79.0861 43.353 78.9486 52.0943 78.4445 67.9293C77.9403 80.0114 77.9403 93.97 75.0531 104.816C74.3657 107.7 73.5407 110.537 72.8533 113.42C69.9661 123.947 69.4161 136.258 72.5783 146.555C77.1613 162.115 91.5975 198.041 108.508 208.934C121.387 217.766 138.802 217.812 146.593 204.22C150.305 197.538 150.534 188.568 149.801 180.513L150.351 181.611H150.259Z" fill="#D3D3D5" stroke="#1D1D1B" stroke-width="2" stroke-miterlimit="10"/>
<path d="M244.544 241.748H217V206.188H224.241V235.432H244.544V241.748Z" fill="#050A0A"/>
<path d="M180.185 176.715H179.086V277.308H180.185V176.715Z" fill="black"/>
<path d="M185.043 276.85H174.228V277.856H185.043V276.85Z" fill="black"/>
<path d="M185.043 176.211H174.228V177.218H185.043V176.211Z" fill="black"/>
<path d="M157.133 176.347C149.342 175.157 145.813 169.894 144.989 160.695C143.018 144.174 137.702 120.559 119.92 118.499C102.551 115.799 89.4435 131.131 73.8157 137.401C71.2034 138.59 67.7662 140.009 65.7039 140.97C64.054 141.84 63.9166 142.435 64.3748 143.991C66.483 150.398 68.4995 159.139 69.7827 167.148C71.7075 178.59 72.2117 189.894 72.9449 201.747C74.0448 220.74 75.4655 242.067 77.9403 252.09C80.7817 265.636 91.7808 274.744 103.926 276.757C122.945 280.052 144.439 277.078 151.634 251.678C154.979 239.733 154.979 227.559 155.896 215.202C156.217 209.894 156.583 204.356 156.95 199.001C157.592 189.07 158.142 181.839 158.371 178.59C158.417 177.537 158.371 176.622 157.271 176.393H157.179L157.133 176.347Z" fill="white" stroke="#020A0A" stroke-width="2" stroke-miterlimit="10"/>
<path d="M190 177H205V277H190.502" stroke="black" stroke-miterlimit="9.99856" stroke-dasharray="4 4"/>
<path d="M24.4828 303L23.8338 301.493H19.6098L18.9498 303H17.0688L20.6328 295.3H22.8108L26.3638 303H24.4828ZM20.2038 300.14H23.2398L21.7218 296.642L20.2038 300.14ZM30.3208 299.469C31.9708 299.755 33.0928 299.876 33.0928 301.229C33.0928 302.571 31.9488 303.165 29.8258 303.165C27.7578 303.165 26.4708 302.516 26.4708 301.196H28.2858C28.2858 301.779 28.9788 302.032 29.9358 302.032C30.8818 302.032 31.3768 301.856 31.3768 301.405C31.3768 300.877 30.6508 300.811 29.0888 300.547C27.5378 300.294 26.7018 299.964 26.7018 298.798C26.7018 297.621 27.7468 296.983 29.7268 296.983C31.7948 296.983 32.8288 297.753 32.8288 298.831H31.1458C31.1458 298.457 30.7168 298.083 29.7048 298.083C28.7918 298.083 28.2968 298.27 28.2968 298.721C28.2968 299.227 29.2758 299.282 30.3208 299.469ZM37.271 299.469C38.921 299.755 40.043 299.876 40.043 301.229C40.043 302.571 38.899 303.165 36.776 303.165C34.708 303.165 33.421 302.516 33.421 301.196H35.236C35.236 301.779 35.929 302.032 36.886 302.032C37.832 302.032 38.327 301.856 38.327 301.405C38.327 300.877 37.601 300.811 36.039 300.547C34.488 300.294 33.652 299.964 33.652 298.798C33.652 297.621 34.697 296.983 36.677 296.983C38.745 296.983 39.779 297.753 39.779 298.831H38.096C38.096 298.457 37.667 298.083 36.655 298.083C35.742 298.083 35.247 298.27 35.247 298.721C35.247 299.227 36.226 299.282 37.271 299.469ZM43.3082 303.165C41.8012 303.165 40.9212 302.34 40.9212 301.02V297.137H42.5932V300.602C42.5932 301.306 43.0002 301.911 44.0342 301.911C45.0682 301.911 45.5302 301.284 45.5302 300.602V297.137H47.2022V303H45.5302V302.175C45.2772 302.527 44.5622 303.165 43.3082 303.165ZM52.3877 296.994C52.7727 296.994 53.0587 297.027 53.2567 297.082V298.622H53.2017C52.9927 298.534 52.5967 298.435 52.0907 298.435C50.7047 298.435 50.1987 299.304 50.1987 300.217V303H48.5267V297.137H50.1987V298.215C50.4407 297.797 51.1337 296.994 52.3877 296.994ZM60.4067 300.503H55.2037C55.3357 301.306 55.8967 302.01 57.1177 302.01C58.0087 302.01 58.5807 301.614 58.8117 301.119H60.2857C59.9007 302.582 58.5697 303.165 57.1177 303.165C55.4457 303.165 53.6967 302.241 53.6967 300.074C53.6967 297.907 55.4237 296.983 57.1067 296.983C58.8117 296.983 60.5827 298.028 60.4067 300.503ZM57.1067 298.127C56.0617 298.127 55.4787 298.699 55.2587 299.403H58.8777C58.7017 298.699 58.2067 298.127 57.1067 298.127ZM63.3145 301.702H67.1535V303H60.9825V301.812L64.7115 298.446H61.1915V297.137H67.0545V298.325L63.3145 301.702ZM68.3594 299.326H72.0664V300.481H68.3594V299.326ZM78.0811 297.137H79.8191L77.1461 303H75.5071L72.8341 297.137H74.5721L76.3321 301.306L78.0811 297.137ZM83.4271 296.983C85.1431 296.983 86.9251 297.863 86.9251 300.074C86.9251 302.285 85.1431 303.165 83.4271 303.165C81.7221 303.165 79.9291 302.285 79.9291 300.074C79.9291 297.863 81.7221 296.983 83.4271 296.983ZM83.4271 302.01C84.8351 302.01 85.3631 301.097 85.3631 300.074C85.3631 299.04 84.8351 298.127 83.4271 298.127C82.0191 298.127 81.5021 299.04 81.5021 300.074C81.5021 301.097 82.0191 302.01 83.4271 302.01ZM90.3053 303.165C88.7983 303.165 87.9183 302.34 87.9183 301.02V297.137H89.5903V300.602C89.5903 301.306 89.9973 301.911 91.0313 301.911C92.0653 301.911 92.5273 301.284 92.5273 300.602V297.137H94.1993V303H92.5273V302.175C92.2743 302.527 91.5593 303.165 90.3053 303.165ZM98.8238 299.469C100.474 299.755 101.596 299.876 101.596 301.229C101.596 302.571 100.452 303.165 98.3288 303.165C96.2608 303.165 94.9738 302.516 94.9738 301.196H96.7888C96.7888 301.779 97.4818 302.032 98.4388 302.032C99.3848 302.032 99.8798 301.856 99.8798 301.405C99.8798 300.877 99.1538 300.811 97.5918 300.547C96.0408 300.294 95.2048 299.964 95.2048 298.798C95.2048 297.621 96.2498 296.983 98.2298 296.983C100.298 296.983 101.332 297.753 101.332 298.831H99.6488C99.6488 298.457 99.2198 298.083 98.2078 298.083C97.2948 298.083 96.7998 298.27 96.7998 298.721C96.7998 299.227 97.7788 299.282 98.8238 299.469ZM110.43 295.3H112.102V303H110.43V302.274C110.001 302.824 109.319 303.165 108.329 303.165C106.624 303.165 105.227 302.065 105.227 300.074C105.227 298.083 106.624 296.983 108.329 296.983C109.319 296.983 110.001 297.324 110.43 297.874V295.3ZM108.703 302.01C109.902 302.01 110.639 301.306 110.639 300.074C110.639 298.842 109.902 298.127 108.703 298.127C107.493 298.127 106.8 298.842 106.8 300.074C106.8 301.306 107.493 302.01 108.703 302.01ZM119.8 300.503H114.597C114.729 301.306 115.29 302.01 116.511 302.01C117.402 302.01 117.974 301.614 118.205 301.119H119.679C119.294 302.582 117.963 303.165 116.511 303.165C114.839 303.165 113.09 302.241 113.09 300.074C113.09 297.907 114.817 296.983 116.5 296.983C118.205 296.983 119.976 298.028 119.8 300.503ZM116.5 298.127C115.455 298.127 114.872 298.699 114.652 299.403H118.271C118.095 298.699 117.6 298.127 116.5 298.127ZM131.66 296.983C133.167 296.983 133.948 297.797 133.948 299.117V303H132.276V299.535C132.276 298.831 131.968 298.226 131.033 298.226C130.098 298.226 129.757 298.842 129.757 299.535V303H128.085V299.535C128.085 298.831 127.777 298.226 126.842 298.226C125.907 298.226 125.555 298.853 125.555 299.535V303H123.894V297.137H125.555V297.907C125.764 297.544 126.27 296.983 127.469 296.983C128.492 296.983 129.174 297.357 129.504 298.006C129.713 297.687 130.373 296.983 131.66 296.983ZM141.65 300.503H136.447C136.579 301.306 137.14 302.01 138.361 302.01C139.252 302.01 139.824 301.614 140.055 301.119H141.529C141.144 302.582 139.813 303.165 138.361 303.165C136.689 303.165 134.94 302.241 134.94 300.074C134.94 297.907 136.667 296.983 138.35 296.983C140.055 296.983 141.826 298.028 141.65 300.503ZM138.35 298.127C137.305 298.127 136.722 298.699 136.502 299.403H140.121C139.945 298.699 139.45 298.127 138.35 298.127ZM145.96 299.469C147.61 299.755 148.732 299.876 148.732 301.229C148.732 302.571 147.588 303.165 145.465 303.165C143.397 303.165 142.11 302.516 142.11 301.196H143.925C143.925 301.779 144.618 302.032 145.575 302.032C146.521 302.032 147.016 301.856 147.016 301.405C147.016 300.877 146.29 300.811 144.728 300.547C143.177 300.294 142.341 299.964 142.341 298.798C142.341 297.621 143.386 296.983 145.366 296.983C147.434 296.983 148.468 297.753 148.468 298.831H146.785C146.785 298.457 146.356 298.083 145.344 298.083C144.431 298.083 143.936 298.27 143.936 298.721C143.936 299.227 144.915 299.282 145.96 299.469ZM151.998 303.165C150.491 303.165 149.611 302.34 149.611 301.02V297.137H151.283V300.602C151.283 301.306 151.69 301.911 152.724 301.911C153.758 301.911 154.22 301.284 154.22 300.602V297.137H155.892V303H154.22V302.175C153.967 302.527 153.252 303.165 151.998 303.165ZM161.077 296.994C161.462 296.994 161.748 297.027 161.946 297.082V298.622H161.891C161.682 298.534 161.286 298.435 160.78 298.435C159.394 298.435 158.888 299.304 158.888 300.217V303H157.216V297.137H158.888V298.215C159.13 297.797 159.823 296.994 161.077 296.994ZM169.096 300.503H163.893C164.025 301.306 164.586 302.01 165.807 302.01C166.698 302.01 167.27 301.614 167.501 301.119H168.975C168.59 302.582 167.259 303.165 165.807 303.165C164.135 303.165 162.386 302.241 162.386 300.074C162.386 297.907 164.113 296.983 165.796 296.983C167.501 296.983 169.272 298.028 169.096 300.503ZM165.796 298.127C164.751 298.127 164.168 298.699 163.948 299.403H167.567C167.391 298.699 166.896 298.127 165.796 298.127ZM173.968 296.994C174.353 296.994 174.639 297.027 174.837 297.082V298.622H174.782C174.573 298.534 174.177 298.435 173.671 298.435C172.285 298.435 171.779 299.304 171.779 300.217V303H170.107V297.137H171.779V298.215C172.021 297.797 172.714 296.994 173.968 296.994ZM178.797 294.882H180.469V303H178.797V294.882ZM188.174 300.503H182.971C183.103 301.306 183.664 302.01 184.885 302.01C185.776 302.01 186.348 301.614 186.579 301.119H188.053C187.668 302.582 186.337 303.165 184.885 303.165C183.213 303.165 181.464 302.241 181.464 300.074C181.464 297.907 183.191 296.983 184.874 296.983C186.579 296.983 188.35 298.028 188.174 300.503ZM184.874 298.127C183.829 298.127 183.246 298.699 183.026 299.403H186.645C186.469 298.699 185.974 298.127 184.874 298.127ZM192.485 299.469C194.135 299.755 195.257 299.876 195.257 301.229C195.257 302.571 194.113 303.165 191.99 303.165C189.922 303.165 188.635 302.516 188.635 301.196H190.45C190.45 301.779 191.143 302.032 192.1 302.032C193.046 302.032 193.541 301.856 193.541 301.405C193.541 300.877 192.815 300.811 191.253 300.547C189.702 300.294 188.866 299.964 188.866 298.798C188.866 297.621 189.911 296.983 191.891 296.983C193.959 296.983 194.993 297.753 194.993 298.831H193.31C193.31 298.457 192.881 298.083 191.869 298.083C190.956 298.083 190.461 298.27 190.461 298.721C190.461 299.227 191.44 299.282 192.485 299.469ZM204.091 295.3H205.763V303H204.091V302.274C203.662 302.824 202.98 303.165 201.99 303.165C200.285 303.165 198.888 302.065 198.888 300.074C198.888 298.083 200.285 296.983 201.99 296.983C202.98 296.983 203.662 297.324 204.091 297.874V295.3ZM202.364 302.01C203.563 302.01 204.3 301.306 204.3 300.074C204.3 298.842 203.563 298.127 202.364 298.127C201.154 298.127 200.461 298.842 200.461 300.074C200.461 301.306 201.154 302.01 202.364 302.01ZM207.081 303V297.137H208.742V303H207.081ZM207.906 296.455C207.4 296.455 207.048 296.169 207.048 295.674C207.048 295.168 207.4 294.882 207.906 294.882C208.412 294.882 208.775 295.168 208.775 295.674C208.775 296.169 208.412 296.455 207.906 296.455ZM217.834 296.983C219.341 296.983 220.122 297.797 220.122 299.117V303H218.45V299.535C218.45 298.831 218.142 298.226 217.207 298.226C216.272 298.226 215.931 298.842 215.931 299.535V303H214.259V299.535C214.259 298.831 213.951 298.226 213.016 298.226C212.081 298.226 211.729 298.853 211.729 299.535V303H210.068V297.137H211.729V297.907C211.938 297.544 212.444 296.983 213.643 296.983C214.666 296.983 215.348 297.357 215.678 298.006C215.887 297.687 216.547 296.983 217.834 296.983ZM227.824 300.503H222.621C222.753 301.306 223.314 302.01 224.535 302.01C225.426 302.01 225.998 301.614 226.229 301.119H227.703C227.318 302.582 225.987 303.165 224.535 303.165C222.863 303.165 221.114 302.241 221.114 300.074C221.114 297.907 222.841 296.983 224.524 296.983C226.229 296.983 228 298.028 227.824 300.503ZM224.524 298.127C223.479 298.127 222.896 298.699 222.676 299.403H226.295C226.119 298.699 225.624 298.127 224.524 298.127ZM232.728 296.983C234.235 296.983 235.115 297.797 235.115 299.117V303H233.443V299.535C233.443 298.831 233.036 298.226 232.002 298.226C230.968 298.226 230.506 298.853 230.506 299.535V303H228.834V297.137H230.506V297.962C230.759 297.61 231.474 296.983 232.728 296.983ZM239.74 299.469C241.39 299.755 242.512 299.876 242.512 301.229C242.512 302.571 241.368 303.165 239.245 303.165C237.177 303.165 235.89 302.516 235.89 301.196H237.705C237.705 301.779 238.398 302.032 239.355 302.032C240.301 302.032 240.796 301.856 240.796 301.405C240.796 300.877 240.07 300.811 238.508 300.547C236.957 300.294 236.121 299.964 236.121 298.798C236.121 297.621 237.166 296.983 239.146 296.983C241.214 296.983 242.248 297.753 242.248 298.831H240.565C240.565 298.457 240.136 298.083 239.124 298.083C238.211 298.083 237.716 298.27 237.716 298.721C237.716 299.227 238.695 299.282 239.74 299.469ZM243.39 303V297.137H245.051V303H243.39ZM244.215 296.455C243.709 296.455 243.357 296.169 243.357 295.674C243.357 295.168 243.709 294.882 244.215 294.882C244.721 294.882 245.084 295.168 245.084 295.674C245.084 296.169 244.721 296.455 244.215 296.455ZM249.544 296.983C251.26 296.983 253.042 297.863 253.042 300.074C253.042 302.285 251.26 303.165 249.544 303.165C247.839 303.165 246.046 302.285 246.046 300.074C246.046 297.863 247.839 296.983 249.544 296.983ZM249.544 302.01C250.952 302.01 251.48 301.097 251.48 300.074C251.48 299.04 250.952 298.127 249.544 298.127C248.136 298.127 247.619 299.04 247.619 300.074C247.619 301.097 248.136 302.01 249.544 302.01ZM257.929 296.983C259.436 296.983 260.316 297.797 260.316 299.117V303H258.644V299.535C258.644 298.831 258.237 298.226 257.203 298.226C256.169 298.226 255.707 298.853 255.707 299.535V303H254.035V297.137H255.707V297.962C255.96 297.61 256.675 296.983 257.929 296.983ZM264.941 299.469C266.591 299.755 267.713 299.876 267.713 301.229C267.713 302.571 266.569 303.165 264.446 303.165C262.378 303.165 261.091 302.516 261.091 301.196H262.906C262.906 301.779 263.599 302.032 264.556 302.032C265.502 302.032 265.997 301.856 265.997 301.405C265.997 300.877 265.271 300.811 263.709 300.547C262.158 300.294 261.322 299.964 261.322 298.798C261.322 297.621 262.367 296.983 264.347 296.983C266.415 296.983 267.449 297.753 267.449 298.831H265.766C265.766 298.457 265.337 298.083 264.325 298.083C263.412 298.083 262.917 298.27 262.917 298.721C262.917 299.227 263.896 299.282 264.941 299.469ZM117.615 308.882H119.287V317H117.615V308.882ZM120.612 317V311.137H122.273V317H120.612ZM121.437 310.455C120.931 310.455 120.579 310.169 120.579 309.674C120.579 309.168 120.931 308.882 121.437 308.882C121.943 308.882 122.306 309.168 122.306 309.674C122.306 310.169 121.943 310.455 121.437 310.455ZM127.492 310.983C128.999 310.983 129.879 311.797 129.879 313.117V317H128.207V313.535C128.207 312.831 127.8 312.226 126.766 312.226C125.732 312.226 125.27 312.853 125.27 313.535V317H123.598V311.137H125.27V311.962C125.523 311.61 126.238 310.983 127.492 310.983ZM137.584 314.503H132.381C132.513 315.306 133.074 316.01 134.295 316.01C135.186 316.01 135.758 315.614 135.989 315.119H137.463C137.078 316.582 135.747 317.165 134.295 317.165C132.623 317.165 130.874 316.241 130.874 314.074C130.874 311.907 132.601 310.983 134.284 310.983C135.989 310.983 137.76 312.028 137.584 314.503ZM134.284 312.127C133.239 312.127 132.656 312.699 132.436 313.403H136.055C135.879 312.699 135.384 312.127 134.284 312.127ZM134.394 308.805H136.275L134.812 310.334H133.514L134.394 308.805ZM141.402 310.983C143.085 310.983 144.559 311.467 144.559 313.194V317H142.887V316.219C142.634 316.604 141.787 317.165 140.478 317.165C139.103 317.165 138.157 316.593 138.157 315.438C138.157 314.206 138.795 313.216 142.887 313.469V313.194C142.887 312.578 142.612 312.127 141.402 312.127C140.39 312.127 140.071 312.424 139.983 312.831H138.421C138.608 311.533 139.796 310.983 141.402 310.983ZM142.887 315.284V314.459C140.665 314.338 139.84 314.547 139.84 315.383C139.84 315.933 140.247 316.153 140.973 316.153C141.875 316.153 142.579 315.801 142.887 315.284ZM145.878 317V311.137H147.539V317H145.878ZM146.703 310.455C146.197 310.455 145.845 310.169 145.845 309.674C145.845 309.168 146.197 308.882 146.703 308.882C147.209 308.882 147.572 309.168 147.572 309.674C147.572 310.169 147.209 310.455 146.703 310.455ZM152.725 310.994C153.11 310.994 153.396 311.027 153.594 311.082V312.622H153.539C153.33 312.534 152.934 312.435 152.428 312.435C151.042 312.435 150.536 313.304 150.536 314.217V317H148.864V311.137H150.536V312.215C150.778 311.797 151.471 310.994 152.725 310.994ZM160.744 314.503H155.541C155.673 315.306 156.234 316.01 157.455 316.01C158.346 316.01 158.918 315.614 159.149 315.119H160.623C160.238 316.582 158.907 317.165 157.455 317.165C155.783 317.165 154.034 316.241 154.034 314.074C154.034 311.907 155.761 310.983 157.444 310.983C159.149 310.983 160.92 312.028 160.744 314.503ZM157.444 312.127C156.399 312.127 155.816 312.699 155.596 313.403H159.215C159.039 312.699 158.544 312.127 157.444 312.127ZM165.055 313.469C166.705 313.755 167.827 313.876 167.827 315.229C167.827 316.571 166.683 317.165 164.56 317.165C162.492 317.165 161.205 316.516 161.205 315.196H163.02C163.02 315.779 163.713 316.032 164.67 316.032C165.616 316.032 166.111 315.856 166.111 315.405C166.111 314.877 165.385 314.811 163.823 314.547C162.272 314.294 161.436 313.964 161.436 312.798C161.436 311.621 162.481 310.983 164.461 310.983C166.529 310.983 167.563 311.753 167.563 312.831H165.88C165.88 312.457 165.451 312.083 164.439 312.083C163.526 312.083 163.031 312.27 163.031 312.721C163.031 313.227 164.01 313.282 165.055 313.469Z" fill="black"/>
</svg>
