<svg width="285" height="332" viewBox="0 0 285 332" fill="none" xmlns="http://www.w3.org/2000/svg">
<rect width="285" height="332" rx="10" fill="#D9D9D9"/>
<rect width="285" height="332" rx="10" fill="#D9D9D9"/>
<path d="M43.9804 306L43.3314 304.493H39.1074L38.4474 306H36.5664L40.1304 298.3H42.3084L45.8614 306H43.9804ZM39.7014 303.14H42.7374L41.2194 299.642L39.7014 303.14ZM49.4936 305.01C50.5936 305.01 51.1326 304.449 51.3306 303.712H52.8266C52.5186 305.472 51.0336 306.165 49.4936 306.165C47.7776 306.165 45.9736 305.34 45.9736 303.074C45.9736 300.808 47.7776 299.983 49.4936 299.983C51.0336 299.983 52.5186 300.676 52.8266 302.436H51.3306C51.1326 301.688 50.5936 301.127 49.4936 301.127C48.0856 301.127 47.5466 302.04 47.5466 303.074C47.5466 304.097 48.0856 305.01 49.4936 305.01ZM57.7063 299.983C59.2133 299.983 60.0933 300.797 60.0933 302.117V306H58.4323V302.535C58.4323 301.831 58.0143 301.226 56.9803 301.226C55.9463 301.226 55.4843 301.853 55.4843 302.535V306H53.8123V298.3H55.4843V300.962C55.7483 300.61 56.4633 299.983 57.7063 299.983ZM65.24 301.281H63.524V303.745C63.524 304.702 63.876 304.889 65.24 304.746V306C65.02 306.033 64.756 306.088 64.371 306.088C62.259 306.088 61.852 305.175 61.852 303.712V301.281H60.763V300.137H61.852V298.619H63.524V300.137H65.24V301.281ZM72.6103 303.503H67.4073C67.5393 304.306 68.1003 305.01 69.3213 305.01C70.2123 305.01 70.7843 304.614 71.0153 304.119H72.4893C72.1043 305.582 70.7733 306.165 69.3213 306.165C67.6493 306.165 65.9003 305.241 65.9003 303.074C65.9003 300.907 67.6273 299.983 69.3103 299.983C71.0153 299.983 72.7863 301.028 72.6103 303.503ZM69.3103 301.127C68.2653 301.127 67.6823 301.699 67.4623 302.403H71.0813C70.9053 301.699 70.4103 301.127 69.3103 301.127ZM77.5149 299.983C79.0219 299.983 79.9019 300.797 79.9019 302.117V306H78.2299V302.535C78.2299 301.831 77.8229 301.226 76.7889 301.226C75.7549 301.226 75.2929 301.853 75.2929 302.535V306H73.6209V300.137H75.2929V300.962C75.5459 300.61 76.2609 299.983 77.5149 299.983ZM88.4454 301.413C90.5684 301.71 92.0424 301.886 92.0424 303.602C92.0424 305.274 90.6674 306.165 87.9284 306.165C85.2664 306.165 83.8694 305.164 83.8694 303.602H85.7174C85.7614 304.405 86.6854 304.812 88.0824 304.812C89.5454 304.812 90.1614 304.427 90.1614 303.844C90.1614 303.052 88.9734 303.129 86.8724 302.777C84.7714 302.425 84.1114 301.787 84.1114 300.577C84.1114 299.312 84.9694 298.146 87.7964 298.146C90.5134 298.146 91.5694 299.18 91.6134 300.544H89.8974C89.8314 299.994 89.1934 299.499 87.7744 299.499C86.1904 299.499 85.8164 299.928 85.8164 300.456C85.8164 301.182 87.0924 301.226 88.4454 301.413ZM93.0321 306V300.137H94.6931V306H93.0321ZM93.8571 299.455C93.3511 299.455 92.9991 299.169 92.9991 298.674C92.9991 298.168 93.3511 297.882 93.8571 297.882C94.3631 297.882 94.7261 298.168 94.7261 298.674C94.7261 299.169 94.3631 299.455 93.8571 299.455ZM102.398 303.503H97.1954C97.3274 304.306 97.8884 305.01 99.1094 305.01C100 305.01 100.572 304.614 100.803 304.119H102.277C101.892 305.582 100.561 306.165 99.1094 306.165C97.4374 306.165 95.6884 305.241 95.6884 303.074C95.6884 300.907 97.4154 299.983 99.0984 299.983C100.803 299.983 102.574 301.028 102.398 303.503ZM99.0984 301.127C98.0534 301.127 97.4704 301.699 97.2504 302.403H100.869C100.693 301.699 100.198 301.127 99.0984 301.127ZM111.365 298.3H113.037V306H111.365V305.274C110.936 305.824 110.254 306.165 109.264 306.165C107.559 306.165 106.162 305.065 106.162 303.074C106.162 301.083 107.559 299.983 109.264 299.983C110.254 299.983 110.936 300.324 111.365 300.874V298.3ZM109.638 305.01C110.837 305.01 111.574 304.306 111.574 303.074C111.574 301.842 110.837 301.127 109.638 301.127C108.428 301.127 107.735 301.842 107.735 303.074C107.735 304.306 108.428 305.01 109.638 305.01ZM117.27 299.983C118.953 299.983 120.427 300.467 120.427 302.194V306H118.755V305.219C118.502 305.604 117.655 306.165 116.346 306.165C114.971 306.165 114.025 305.593 114.025 304.438C114.025 303.206 114.663 302.216 118.755 302.469V302.194C118.755 301.578 118.48 301.127 117.27 301.127C116.258 301.127 115.939 301.424 115.851 301.831H114.289C114.476 300.533 115.664 299.983 117.27 299.983ZM118.755 304.284V303.459C116.533 303.338 115.708 303.547 115.708 304.383C115.708 304.933 116.115 305.153 116.841 305.153C117.743 305.153 118.447 304.801 118.755 304.284ZM125.607 299.994C125.992 299.994 126.278 300.027 126.476 300.082V301.622H126.421C126.212 301.534 125.816 301.435 125.31 301.435C123.924 301.435 123.418 302.304 123.418 303.217V306H121.746V300.137H123.418V301.215C123.66 300.797 124.353 299.994 125.607 299.994ZM130.054 299.983C131.737 299.983 133.211 300.467 133.211 302.194V306H131.539V305.219C131.286 305.604 130.439 306.165 129.13 306.165C127.755 306.165 126.809 305.593 126.809 304.438C126.809 303.206 127.447 302.216 131.539 302.469V302.194C131.539 301.578 131.264 301.127 130.054 301.127C129.042 301.127 128.723 301.424 128.635 301.831H127.073C127.26 300.533 128.448 299.983 130.054 299.983ZM131.539 304.284V303.459C129.317 303.338 128.492 303.547 128.492 304.383C128.492 304.933 128.899 305.153 129.625 305.153C130.527 305.153 131.231 304.801 131.539 304.284ZM136.916 306.165C135.409 306.165 134.529 305.34 134.529 304.02V300.137H136.201V303.602C136.201 304.306 136.608 304.911 137.642 304.911C138.676 304.911 139.138 304.284 139.138 303.602V300.137H140.81V306H139.138V305.175C138.885 305.527 138.17 306.165 136.916 306.165ZM146.018 299.147C144.929 299.059 144.335 299.103 144.335 300.137H145.864V301.281H144.335V306H142.674V301.281H141.695V300.137H142.674C142.674 298.971 143.081 297.882 145.039 297.882C145.424 297.882 145.677 297.915 146.018 297.959V299.147ZM147.113 304.383H148.774L147.718 307.012H146.673L147.113 304.383ZM152.963 297.882H154.635V306H152.963V297.882ZM155.96 306V300.137H157.621V306H155.96ZM156.785 299.455C156.279 299.455 155.927 299.169 155.927 298.674C155.927 298.168 156.279 297.882 156.785 297.882C157.291 297.882 157.654 298.168 157.654 298.674C157.654 299.169 157.291 299.455 156.785 299.455ZM162.84 299.983C164.347 299.983 165.227 300.797 165.227 302.117V306H163.555V302.535C163.555 301.831 163.148 301.226 162.114 301.226C161.08 301.226 160.618 301.853 160.618 302.535V306H158.946V300.137H160.618V300.962C160.871 300.61 161.586 299.983 162.84 299.983ZM172.932 303.503H167.729C167.861 304.306 168.422 305.01 169.643 305.01C170.534 305.01 171.106 304.614 171.337 304.119H172.811C172.426 305.582 171.095 306.165 169.643 306.165C167.971 306.165 166.222 305.241 166.222 303.074C166.222 300.907 167.949 299.983 169.632 299.983C171.337 299.983 173.108 301.028 172.932 303.503ZM169.632 301.127C168.587 301.127 168.004 301.699 167.784 302.403H171.403C171.227 301.699 170.732 301.127 169.632 301.127ZM176.75 299.983C178.433 299.983 179.907 300.467 179.907 302.194V306H178.235V305.219C177.982 305.604 177.135 306.165 175.826 306.165C174.451 306.165 173.505 305.593 173.505 304.438C173.505 303.206 174.143 302.216 178.235 302.469V302.194C178.235 301.578 177.96 301.127 176.75 301.127C175.738 301.127 175.419 301.424 175.331 301.831H173.769C173.956 300.533 175.144 299.983 176.75 299.983ZM178.235 304.284V303.459C176.013 303.338 175.188 303.547 175.188 304.383C175.188 304.933 175.595 305.153 176.321 305.153C177.223 305.153 177.927 304.801 178.235 304.284ZM185.086 299.994C185.471 299.994 185.757 300.027 185.955 300.082V301.622H185.9C185.691 301.534 185.295 301.435 184.789 301.435C183.403 301.435 182.897 302.304 182.897 303.217V306H181.225V300.137H182.897V301.215C183.139 300.797 183.832 299.994 185.086 299.994ZM193.105 303.503H187.902C188.034 304.306 188.595 305.01 189.816 305.01C190.707 305.01 191.279 304.614 191.51 304.119H192.984C192.599 305.582 191.268 306.165 189.816 306.165C188.144 306.165 186.395 305.241 186.395 303.074C186.395 300.907 188.122 299.983 189.805 299.983C191.51 299.983 193.281 301.028 193.105 303.503ZM189.805 301.127C188.76 301.127 188.177 301.699 187.957 302.403H191.576C191.4 301.699 190.905 301.127 189.805 301.127ZM204.943 298.3H207.704V306H205.933V299.917L203.348 306H201.665L199.08 299.917V306H197.309V298.3H200.07L202.501 304.218L204.943 298.3ZM212.049 299.983C213.732 299.983 215.206 300.467 215.206 302.194V306H213.534V305.219C213.281 305.604 212.434 306.165 211.125 306.165C209.75 306.165 208.804 305.593 208.804 304.438C208.804 303.206 209.442 302.216 213.534 302.469V302.194C213.534 301.578 213.259 301.127 212.049 301.127C211.037 301.127 210.718 301.424 210.63 301.831H209.068C209.255 300.533 210.443 299.983 212.049 299.983ZM213.534 304.284V303.459C211.312 303.338 210.487 303.547 210.487 304.383C210.487 304.933 210.894 305.153 211.62 305.153C212.522 305.153 213.226 304.801 213.534 304.284ZM222.233 301.798C223.157 302.007 223.982 302.513 223.982 303.756C223.982 305.362 222.816 306.165 220.924 306.165C220.418 306.165 219.78 306.077 219.406 306V304.867C219.571 304.9 220.099 305.01 220.715 305.01C221.793 305.01 222.376 304.57 222.376 303.69C222.376 302.953 221.925 302.557 220.682 302.557H219.406V301.402H220.583C221.364 301.402 221.771 301.017 221.771 300.368C221.771 299.818 221.342 299.301 219.956 299.301C218.691 299.301 218.086 299.829 218.086 301.138V306H216.524V301.028C216.524 298.806 218.031 298.146 219.989 298.146C221.76 298.146 223.289 298.707 223.289 300.28C223.289 301.105 222.827 301.556 222.233 301.798ZM231.348 303.503H226.145C226.277 304.306 226.838 305.01 228.059 305.01C228.95 305.01 229.522 304.614 229.753 304.119H231.227C230.842 305.582 229.511 306.165 228.059 306.165C226.387 306.165 224.638 305.241 224.638 303.074C224.638 300.907 226.365 299.983 228.048 299.983C229.753 299.983 231.524 301.028 231.348 303.503ZM228.048 301.127C227.003 301.127 226.42 301.699 226.2 302.403H229.819C229.643 301.699 229.148 301.127 228.048 301.127ZM237.553 304.702H241.392V306H235.221V304.812L238.95 301.446H235.43V300.137H241.293V301.325L237.553 304.702ZM244.875 306.165C243.368 306.165 242.488 305.34 242.488 304.02V300.137H244.16V303.602C244.16 304.306 244.567 304.911 245.601 304.911C246.635 304.911 247.097 304.284 247.097 303.602V300.137H248.769V306H247.097V305.175C246.844 305.527 246.129 306.165 244.875 306.165ZM114.165 314.137H115.903L113.23 320H111.591L108.918 314.137H110.656L112.416 318.306L114.165 314.137ZM122.723 317.503H117.52C117.652 318.306 118.213 319.01 119.434 319.01C120.325 319.01 120.897 318.614 121.128 318.119H122.602C122.217 319.582 120.886 320.165 119.434 320.165C117.762 320.165 116.013 319.241 116.013 317.074C116.013 314.907 117.74 313.983 119.423 313.983C121.128 313.983 122.899 315.028 122.723 317.503ZM119.423 315.127C118.378 315.127 117.795 315.699 117.575 316.403H121.194C121.018 315.699 120.523 315.127 119.423 315.127ZM127.594 313.994C127.979 313.994 128.265 314.027 128.463 314.082V315.622H128.408C128.199 315.534 127.803 315.435 127.297 315.435C125.911 315.435 125.405 316.304 125.405 317.217V320H123.733V314.137H125.405V315.215C125.647 314.797 126.34 313.994 127.594 313.994ZM137.822 314.137H139.56L137.195 320H135.666L134.17 316.04L132.685 320H131.145L128.791 314.137H130.529L131.981 318.086L133.466 314.137H134.885L136.37 318.086L137.822 314.137ZM146.377 317.503H141.174C141.306 318.306 141.867 319.01 143.088 319.01C143.979 319.01 144.551 318.614 144.782 318.119H146.256C145.871 319.582 144.54 320.165 143.088 320.165C141.416 320.165 139.667 319.241 139.667 317.074C139.667 314.907 141.394 313.983 143.077 313.983C144.782 313.983 146.553 315.028 146.377 317.503ZM143.077 315.127C142.032 315.127 141.449 315.699 141.229 316.403H144.848C144.672 315.699 144.177 315.127 143.077 315.127ZM151.282 313.983C152.789 313.983 153.669 314.797 153.669 316.117V320H151.997V316.535C151.997 315.831 151.59 315.226 150.556 315.226C149.522 315.226 149.06 315.853 149.06 316.535V320H147.388V314.137H149.06V314.962C149.313 314.61 150.028 313.983 151.282 313.983ZM159.866 312.3H161.538V320H159.866V319.274C159.437 319.824 158.755 320.165 157.765 320.165C156.06 320.165 154.663 319.065 154.663 317.074C154.663 315.083 156.06 313.983 157.765 313.983C158.755 313.983 159.437 314.324 159.866 314.874V312.3ZM158.139 319.01C159.338 319.01 160.075 318.306 160.075 317.074C160.075 315.842 159.338 315.127 158.139 315.127C156.929 315.127 156.236 315.842 156.236 317.074C156.236 318.306 156.929 319.01 158.139 319.01ZM169.236 317.503H164.033C164.165 318.306 164.726 319.01 165.947 319.01C166.838 319.01 167.41 318.614 167.641 318.119H169.115C168.73 319.582 167.399 320.165 165.947 320.165C164.275 320.165 162.526 319.241 162.526 317.074C162.526 314.907 164.253 313.983 165.936 313.983C167.641 313.983 169.412 315.028 169.236 317.503ZM165.936 315.127C164.891 315.127 164.308 315.699 164.088 316.403H167.707C167.531 315.699 167.036 315.127 165.936 315.127ZM174.141 313.983C175.648 313.983 176.528 314.797 176.528 316.117V320H174.856V316.535C174.856 315.831 174.449 315.226 173.415 315.226C172.381 315.226 171.919 315.853 171.919 316.535V320H170.247V314.137H171.919V314.962C172.172 314.61 172.887 313.983 174.141 313.983Z" fill="black"/>
<path d="M150.259 181.611C150.671 177.996 148.472 167.241 147.876 162.39C147.005 155.754 147.555 148.98 149.159 142.756C153.375 124.404 162.816 85.0457 164.145 58.1354C164.512 51.957 165.887 35.4813 166.208 29.0741C166.208 27.6554 166.437 26.8774 165.566 26.4197C156.171 26.0078 111.487 26.3739 94.5306 26.2367C87.7478 26.2367 82.7066 26.2367 80.7359 26.2367C80.2776 26.2367 79.911 26.3282 79.5902 26.6028C79.1319 27.0604 79.1319 27.8385 79.1319 28.5707C79.0861 43.353 78.9486 52.0943 78.4445 67.9293C77.9403 80.0114 77.9403 93.97 75.0531 104.816C74.3657 107.7 73.5407 110.537 72.8533 113.42C69.9661 123.947 69.4161 136.258 72.5783 146.555C77.1613 162.115 91.5975 198.041 108.508 208.934C121.387 217.766 138.802 217.812 146.593 204.22C150.305 197.538 150.534 188.568 149.801 180.513L150.351 181.611H150.259Z" fill="#D3D3D5" stroke="#1D1D1B" stroke-width="2" stroke-miterlimit="10"/>
<path d="M244.544 241.748H217V206.188H224.241V235.432H244.544V241.748Z" fill="#050A0A"/>
<path d="M180.185 176.715H179.086V277.308H180.185V176.715Z" fill="black"/>
<path d="M185.043 276.85H174.228V277.856H185.043V276.85Z" fill="black"/>
<path d="M185.043 176.211H174.228V177.218H185.043V176.211Z" fill="black"/>
<path d="M157.133 176.347C149.342 175.157 145.813 169.894 144.989 160.695C143.018 144.174 137.702 120.559 119.92 118.499C102.551 115.799 89.4435 131.131 73.8157 137.401C71.2034 138.59 67.7662 140.009 65.7039 140.97C64.054 141.84 63.9166 142.435 64.3748 143.991C66.483 150.398 68.4995 159.139 69.7827 167.148C71.7075 178.59 72.2117 189.894 72.9449 201.747C74.0448 220.74 75.4655 242.067 77.9403 252.09C80.7817 265.636 91.7808 274.744 103.926 276.757C122.945 280.052 144.439 277.078 151.634 251.678C154.979 239.733 154.979 227.559 155.896 215.202C156.217 209.894 156.583 204.356 156.95 199.001C157.592 189.07 158.142 181.839 158.371 178.59C158.417 177.537 158.371 176.622 157.271 176.393H157.179L157.133 176.347Z" fill="white" stroke="#020A0A" stroke-width="2" stroke-miterlimit="10"/>
<path d="M190 177H205V277H190.502" stroke="black" stroke-miterlimit="9.99856" stroke-dasharray="4 4"/>
</svg>
