<svg width="285" height="332" viewBox="0 0 285 332" fill="none" xmlns="http://www.w3.org/2000/svg">
<rect width="285" height="332" rx="10" fill="#D9D9D9"/>
<rect width="285" height="332" rx="10" fill="#D9D9D9"/>
<path d="M39.8661 306L39.2171 304.493H34.9931L34.3331 306H32.4521L36.0161 298.3H38.1941L41.7471 306H39.8661ZM35.5871 303.14H38.6231L37.1051 299.642L35.5871 303.14ZM45.7041 302.469C47.3541 302.755 48.4761 302.876 48.4761 304.229C48.4761 305.571 47.3321 306.165 45.2091 306.165C43.1411 306.165 41.8541 305.516 41.8541 304.196H43.6691C43.6691 304.779 44.3621 305.032 45.3191 305.032C46.2651 305.032 46.7601 304.856 46.7601 304.405C46.7601 303.877 46.0341 303.811 44.4721 303.547C42.9211 303.294 42.0851 302.964 42.0851 301.798C42.0851 300.621 43.1301 299.983 45.1101 299.983C47.1781 299.983 48.2121 300.753 48.2121 301.831H46.5291C46.5291 301.457 46.1001 301.083 45.0881 301.083C44.1751 301.083 43.6801 301.27 43.6801 301.721C43.6801 302.227 44.6591 302.282 45.7041 302.469ZM55.7343 303.503H50.5313C50.6633 304.306 51.2243 305.01 52.4453 305.01C53.3363 305.01 53.9083 304.614 54.1393 304.119H55.6133C55.2283 305.582 53.8973 306.165 52.4453 306.165C50.7733 306.165 49.0243 305.241 49.0243 303.074C49.0243 300.907 50.7513 299.983 52.4343 299.983C54.1393 299.983 55.9103 301.028 55.7343 303.503ZM52.4343 301.127C51.3893 301.127 50.8063 301.699 50.5863 302.403H54.2053C54.0293 301.699 53.5343 301.127 52.4343 301.127ZM61.618 300.137H63.279V305.45C63.279 307.738 61.376 308.046 59.693 308.046C57.735 308.046 56.613 307.375 56.503 306.253H58.065C58.186 306.616 58.769 306.891 59.693 306.891C61.024 306.891 61.618 306.506 61.618 305.45V304.911C61.178 305.384 60.507 305.637 59.517 305.637C57.801 305.637 56.415 304.856 56.415 302.865C56.415 300.874 57.801 299.983 59.517 299.983C60.419 299.983 61.145 300.324 61.618 300.907V300.137ZM59.88 304.592C61.09 304.592 61.827 303.965 61.827 302.865C61.827 301.754 61.09 301.138 59.88 301.138C58.681 301.138 57.988 301.765 57.988 302.865C57.988 303.965 58.681 304.592 59.88 304.592ZM66.9845 306.165C65.4775 306.165 64.5975 305.34 64.5975 304.02V300.137H66.2695V303.602C66.2695 304.306 66.6765 304.911 67.7105 304.911C68.7445 304.911 69.2065 304.284 69.2065 303.602V300.137H70.8785V306H69.2065V305.175C68.9535 305.527 68.2385 306.165 66.9845 306.165ZM67.8975 297.805H69.7785L68.3155 299.334H67.0175L67.8975 297.805ZM76.064 299.994C76.449 299.994 76.735 300.027 76.933 300.082V301.622H76.878C76.669 301.534 76.273 301.435 75.767 301.435C74.381 301.435 73.875 302.304 73.875 303.217V306H72.203V300.137H73.875V301.215C74.117 300.797 74.81 299.994 76.064 299.994ZM80.5105 299.983C82.1935 299.983 83.6675 300.467 83.6675 302.194V306H81.9955V305.219C81.7425 305.604 80.8955 306.165 79.5865 306.165C78.2115 306.165 77.2655 305.593 77.2655 304.438C77.2655 303.206 77.9035 302.216 81.9955 302.469V302.194C81.9955 301.578 81.7205 301.127 80.5105 301.127C79.4985 301.127 79.1795 301.424 79.0915 301.831H77.5295C77.7165 300.533 78.9045 299.983 80.5105 299.983ZM81.9955 304.284V303.459C79.7735 303.338 78.9485 303.547 78.9485 304.383C78.9485 304.933 79.3555 305.153 80.0815 305.153C80.9835 305.153 81.6875 304.801 81.9955 304.284ZM88.9158 301.281H87.1998V303.745C87.1998 304.702 87.5518 304.889 88.9158 304.746V306C88.6958 306.033 88.4318 306.088 88.0468 306.088C85.9348 306.088 85.5278 305.175 85.5278 303.712V301.281H84.4388V300.137H85.5278V298.619H87.1998V300.137H88.9158V301.281ZM96.2861 303.503H91.0831C91.2151 304.306 91.7761 305.01 92.9971 305.01C93.8881 305.01 94.4601 304.614 94.6911 304.119H96.1651C95.7801 305.582 94.4491 306.165 92.9971 306.165C91.3251 306.165 89.5761 305.241 89.5761 303.074C89.5761 300.907 91.3031 299.983 92.9861 299.983C94.6911 299.983 96.4621 301.028 96.2861 303.503ZM92.9861 301.127C91.9411 301.127 91.3581 301.699 91.1381 302.403H94.7571C94.5811 301.699 94.0861 301.127 92.9861 301.127ZM105.253 298.3H106.925V306H105.253V305.274C104.824 305.824 104.142 306.165 103.152 306.165C101.447 306.165 100.05 305.065 100.05 303.074C100.05 301.083 101.447 299.983 103.152 299.983C104.142 299.983 104.824 300.324 105.253 300.874V298.3ZM103.526 305.01C104.725 305.01 105.462 304.306 105.462 303.074C105.462 301.842 104.725 301.127 103.526 301.127C102.316 301.127 101.623 301.842 101.623 303.074C101.623 304.306 102.316 305.01 103.526 305.01ZM114.623 303.503H109.42C109.552 304.306 110.113 305.01 111.334 305.01C112.225 305.01 112.797 304.614 113.028 304.119H114.502C114.117 305.582 112.786 306.165 111.334 306.165C109.662 306.165 107.913 305.241 107.913 303.074C107.913 300.907 109.64 299.983 111.323 299.983C113.028 299.983 114.799 301.028 114.623 303.503ZM111.323 301.127C110.278 301.127 109.695 301.699 109.475 302.403H113.094C112.918 301.699 112.423 301.127 111.323 301.127ZM126.483 299.983C127.99 299.983 128.771 300.797 128.771 302.117V306H127.099V302.535C127.099 301.831 126.791 301.226 125.856 301.226C124.921 301.226 124.58 301.842 124.58 302.535V306H122.908V302.535C122.908 301.831 122.6 301.226 121.665 301.226C120.73 301.226 120.378 301.853 120.378 302.535V306H118.717V300.137H120.378V300.907C120.587 300.544 121.093 299.983 122.292 299.983C123.315 299.983 123.997 300.357 124.327 301.006C124.536 300.687 125.196 299.983 126.483 299.983ZM136.473 303.503H131.27C131.402 304.306 131.963 305.01 133.184 305.01C134.075 305.01 134.647 304.614 134.878 304.119H136.352C135.967 305.582 134.636 306.165 133.184 306.165C131.512 306.165 129.763 305.241 129.763 303.074C129.763 300.907 131.49 299.983 133.173 299.983C134.878 299.983 136.649 301.028 136.473 303.503ZM133.173 301.127C132.128 301.127 131.545 301.699 131.325 302.403H134.944C134.768 301.699 134.273 301.127 133.173 301.127ZM142.356 298.3H144.028V306H142.356V305.274C141.927 305.824 141.245 306.165 140.255 306.165C138.55 306.165 137.153 305.065 137.153 303.074C137.153 301.083 138.55 299.983 140.255 299.983C141.245 299.983 141.927 300.324 142.356 300.874V298.3ZM140.629 305.01C141.828 305.01 142.565 304.306 142.565 303.074C142.565 301.842 141.828 301.127 140.629 301.127C139.419 301.127 138.726 301.842 138.726 303.074C138.726 304.306 139.419 305.01 140.629 305.01ZM145.347 306V300.137H147.008V306H145.347ZM146.172 299.455C145.666 299.455 145.314 299.169 145.314 298.674C145.314 298.168 145.666 297.882 146.172 297.882C146.678 297.882 147.041 298.168 147.041 298.674C147.041 299.169 146.678 299.455 146.172 299.455ZM152.194 299.994C152.579 299.994 152.865 300.027 153.063 300.082V301.622H153.008C152.799 301.534 152.403 301.435 151.897 301.435C150.511 301.435 150.005 302.304 150.005 303.217V306H148.333V300.137H150.005V301.215C150.247 300.797 150.94 299.994 152.194 299.994ZM157.023 297.882H158.695V306H157.023V297.882ZM162.935 299.983C164.618 299.983 166.092 300.467 166.092 302.194V306H164.42V305.219C164.167 305.604 163.32 306.165 162.011 306.165C160.636 306.165 159.69 305.593 159.69 304.438C159.69 303.206 160.328 302.216 164.42 302.469V302.194C164.42 301.578 164.145 301.127 162.935 301.127C161.923 301.127 161.604 301.424 161.516 301.831H159.954C160.141 300.533 161.329 299.983 162.935 299.983ZM164.42 304.284V303.459C162.198 303.338 161.373 303.547 161.373 304.383C161.373 304.933 161.78 305.153 162.506 305.153C163.408 305.153 164.112 304.801 164.42 304.284ZM170.711 302.469C172.361 302.755 173.483 302.876 173.483 304.229C173.483 305.571 172.339 306.165 170.216 306.165C168.148 306.165 166.861 305.516 166.861 304.196H168.676C168.676 304.779 169.369 305.032 170.326 305.032C171.272 305.032 171.767 304.856 171.767 304.405C171.767 303.877 171.041 303.811 169.479 303.547C167.928 303.294 167.092 302.964 167.092 301.798C167.092 300.621 168.137 299.983 170.117 299.983C172.185 299.983 173.219 300.753 173.219 301.831H171.536C171.536 301.457 171.107 301.083 170.095 301.083C169.182 301.083 168.687 301.27 168.687 301.721C168.687 302.227 169.666 302.282 170.711 302.469ZM182.317 298.3H183.989V306H182.317V305.274C181.888 305.824 181.206 306.165 180.216 306.165C178.511 306.165 177.114 305.065 177.114 303.074C177.114 301.083 178.511 299.983 180.216 299.983C181.206 299.983 181.888 300.324 182.317 300.874V298.3ZM180.59 305.01C181.789 305.01 182.526 304.306 182.526 303.074C182.526 301.842 181.789 301.127 180.59 301.127C179.38 301.127 178.687 301.842 178.687 303.074C178.687 304.306 179.38 305.01 180.59 305.01ZM185.307 306V300.137H186.968V306H185.307ZM186.132 299.455C185.626 299.455 185.274 299.169 185.274 298.674C185.274 298.168 185.626 297.882 186.132 297.882C186.638 297.882 187.001 298.168 187.001 298.674C187.001 299.169 186.638 299.455 186.132 299.455ZM196.06 299.983C197.567 299.983 198.348 300.797 198.348 302.117V306H196.676V302.535C196.676 301.831 196.368 301.226 195.433 301.226C194.498 301.226 194.157 301.842 194.157 302.535V306H192.485V302.535C192.485 301.831 192.177 301.226 191.242 301.226C190.307 301.226 189.955 301.853 189.955 302.535V306H188.294V300.137H189.955V300.907C190.164 300.544 190.67 299.983 191.869 299.983C192.892 299.983 193.574 300.357 193.904 301.006C194.113 300.687 194.773 299.983 196.06 299.983ZM206.05 303.503H200.847C200.979 304.306 201.54 305.01 202.761 305.01C203.652 305.01 204.224 304.614 204.455 304.119H205.929C205.544 305.582 204.213 306.165 202.761 306.165C201.089 306.165 199.34 305.241 199.34 303.074C199.34 300.907 201.067 299.983 202.75 299.983C204.455 299.983 206.226 301.028 206.05 303.503ZM202.75 301.127C201.705 301.127 201.122 301.699 200.902 302.403H204.521C204.345 301.699 203.85 301.127 202.75 301.127ZM210.954 299.983C212.461 299.983 213.341 300.797 213.341 302.117V306H211.669V302.535C211.669 301.831 211.262 301.226 210.228 301.226C209.194 301.226 208.732 301.853 208.732 302.535V306H207.06V300.137H208.732V300.962C208.985 300.61 209.7 299.983 210.954 299.983ZM217.966 302.469C219.616 302.755 220.738 302.876 220.738 304.229C220.738 305.571 219.594 306.165 217.471 306.165C215.403 306.165 214.116 305.516 214.116 304.196H215.931C215.931 304.779 216.624 305.032 217.581 305.032C218.527 305.032 219.022 304.856 219.022 304.405C219.022 303.877 218.296 303.811 216.734 303.547C215.183 303.294 214.347 302.964 214.347 301.798C214.347 300.621 215.392 299.983 217.372 299.983C219.44 299.983 220.474 300.753 220.474 301.831H218.791C218.791 301.457 218.362 301.083 217.35 301.083C216.437 301.083 215.942 301.27 215.942 301.721C215.942 302.227 216.921 302.282 217.966 302.469ZM221.616 306V300.137H223.277V306H221.616ZM222.441 299.455C221.935 299.455 221.583 299.169 221.583 298.674C221.583 298.168 221.935 297.882 222.441 297.882C222.947 297.882 223.31 298.168 223.31 298.674C223.31 299.169 222.947 299.455 222.441 299.455ZM227.77 299.983C229.486 299.983 231.268 300.863 231.268 303.074C231.268 305.285 229.486 306.165 227.77 306.165C226.065 306.165 224.272 305.285 224.272 303.074C224.272 300.863 226.065 299.983 227.77 299.983ZM227.77 305.01C229.178 305.01 229.706 304.097 229.706 303.074C229.706 302.04 229.178 301.127 227.77 301.127C226.362 301.127 225.845 302.04 225.845 303.074C225.845 304.097 226.362 305.01 227.77 305.01ZM236.156 299.983C237.663 299.983 238.543 300.797 238.543 302.117V306H236.871V302.535C236.871 301.831 236.464 301.226 235.43 301.226C234.396 301.226 233.934 301.853 233.934 302.535V306H232.262V300.137H233.934V300.962C234.187 300.61 234.902 299.983 236.156 299.983ZM246.247 303.503H241.044C241.176 304.306 241.737 305.01 242.958 305.01C243.849 305.01 244.421 304.614 244.652 304.119H246.126C245.741 305.582 244.41 306.165 242.958 306.165C241.286 306.165 239.537 305.241 239.537 303.074C239.537 300.907 241.264 299.983 242.947 299.983C244.652 299.983 246.423 301.028 246.247 303.503ZM242.947 301.127C241.902 301.127 241.319 301.699 241.099 302.403H244.718C244.542 301.699 244.047 301.127 242.947 301.127ZM250.558 302.469C252.208 302.755 253.33 302.876 253.33 304.229C253.33 305.571 252.186 306.165 250.063 306.165C247.995 306.165 246.708 305.516 246.708 304.196H248.523C248.523 304.779 249.216 305.032 250.173 305.032C251.119 305.032 251.614 304.856 251.614 304.405C251.614 303.877 250.888 303.811 249.326 303.547C247.775 303.294 246.939 302.964 246.939 301.798C246.939 300.621 247.984 299.983 249.964 299.983C252.032 299.983 253.066 300.753 253.066 301.831H251.383C251.383 301.457 250.954 301.083 249.942 301.083C249.029 301.083 248.534 301.27 248.534 301.721C248.534 302.227 249.513 302.282 250.558 302.469ZM120.86 311.882H122.532V320H120.86V311.882ZM123.857 320V314.137H125.518V320H123.857ZM124.682 313.455C124.176 313.455 123.824 313.169 123.824 312.674C123.824 312.168 124.176 311.882 124.682 311.882C125.188 311.882 125.551 312.168 125.551 312.674C125.551 313.169 125.188 313.455 124.682 313.455ZM130.737 313.983C132.244 313.983 133.124 314.797 133.124 316.117V320H131.452V316.535C131.452 315.831 131.045 315.226 130.011 315.226C128.977 315.226 128.515 315.853 128.515 316.535V320H126.843V314.137H128.515V314.962C128.768 314.61 129.483 313.983 130.737 313.983ZM140.829 317.503H135.626C135.758 318.306 136.319 319.01 137.54 319.01C138.431 319.01 139.003 318.614 139.234 318.119H140.708C140.323 319.582 138.992 320.165 137.54 320.165C135.868 320.165 134.119 319.241 134.119 317.074C134.119 314.907 135.846 313.983 137.529 313.983C139.234 313.983 141.005 315.028 140.829 317.503ZM137.529 315.127C136.484 315.127 135.901 315.699 135.681 316.403H139.3C139.124 315.699 138.629 315.127 137.529 315.127ZM144.647 313.983C146.33 313.983 147.804 314.467 147.804 316.194V320H146.132V319.219C145.879 319.604 145.032 320.165 143.723 320.165C142.348 320.165 141.402 319.593 141.402 318.438C141.402 317.206 142.04 316.216 146.132 316.469V316.194C146.132 315.578 145.857 315.127 144.647 315.127C143.635 315.127 143.316 315.424 143.228 315.831H141.666C141.853 314.533 143.041 313.983 144.647 313.983ZM146.132 318.284V317.459C143.91 317.338 143.085 317.547 143.085 318.383C143.085 318.933 143.492 319.153 144.218 319.153C145.12 319.153 145.824 318.801 146.132 318.284ZM149.122 311.882H150.794V320H149.122V311.882ZM158.499 317.503H153.296C153.428 318.306 153.989 319.01 155.21 319.01C156.101 319.01 156.673 318.614 156.904 318.119H158.378C157.993 319.582 156.662 320.165 155.21 320.165C153.538 320.165 151.789 319.241 151.789 317.074C151.789 314.907 153.516 313.983 155.199 313.983C156.904 313.983 158.675 315.028 158.499 317.503ZM155.199 315.127C154.154 315.127 153.571 315.699 153.351 316.403H156.97C156.794 315.699 156.299 315.127 155.199 315.127ZM162.81 316.469C164.46 316.755 165.582 316.876 165.582 318.229C165.582 319.571 164.438 320.165 162.315 320.165C160.247 320.165 158.96 319.516 158.96 318.196H160.775C160.775 318.779 161.468 319.032 162.425 319.032C163.371 319.032 163.866 318.856 163.866 318.405C163.866 317.877 163.14 317.811 161.578 317.547C160.027 317.294 159.191 316.964 159.191 315.798C159.191 314.621 160.236 313.983 162.216 313.983C164.284 313.983 165.318 314.753 165.318 315.831H163.635C163.635 315.457 163.206 315.083 162.194 315.083C161.281 315.083 160.786 315.27 160.786 315.721C160.786 316.227 161.765 316.282 162.81 316.469Z" fill="black"/>
<path d="M150.259 181.611C150.671 177.996 148.472 167.241 147.876 162.39C147.005 155.754 147.555 148.98 149.159 142.756C153.375 124.404 162.816 85.0457 164.145 58.1354C164.512 51.957 165.887 35.4813 166.208 29.0741C166.208 27.6554 166.437 26.8774 165.566 26.4197C156.171 26.0078 111.487 26.3739 94.5306 26.2367C87.7478 26.2367 82.7066 26.2367 80.7359 26.2367C80.2776 26.2367 79.911 26.3282 79.5902 26.6028C79.1319 27.0604 79.1319 27.8385 79.1319 28.5707C79.0861 43.353 78.9486 52.0943 78.4445 67.9293C77.9403 80.0114 77.9403 93.97 75.0531 104.816C74.3657 107.7 73.5407 110.537 72.8533 113.42C69.9661 123.947 69.4161 136.258 72.5783 146.555C77.1613 162.115 91.5975 198.041 108.508 208.934C121.387 217.766 138.802 217.812 146.593 204.22C150.305 197.538 150.534 188.568 149.801 180.513L150.351 181.611H150.259Z" fill="#D3D3D5" stroke="#1D1D1B" stroke-width="2" stroke-miterlimit="10"/>
<path d="M244.544 241.748H217V206.188H224.241V235.432H244.544V241.748Z" fill="#050A0A"/>
<path d="M180.185 176.715H179.086V277.308H180.185V176.715Z" fill="black"/>
<path d="M185.043 276.85H174.228V277.856H185.043V276.85Z" fill="black"/>
<path d="M185.043 176.211H174.228V177.218H185.043V176.211Z" fill="black"/>
<path d="M157.133 176.347C149.342 175.157 145.813 169.894 144.989 160.695C143.018 144.174 137.702 120.559 119.92 118.499C102.551 115.799 89.4435 131.131 73.8157 137.401C71.2034 138.59 67.7662 140.009 65.7039 140.97C64.054 141.84 63.9166 142.435 64.3748 143.991C66.483 150.398 68.4995 159.139 69.7827 167.148C71.7075 178.59 72.2117 189.894 72.9449 201.747C74.0448 220.74 75.4655 242.067 77.9403 252.09C80.7817 265.636 91.7808 274.744 103.926 276.757C122.945 280.052 144.439 277.078 151.634 251.678C154.979 239.733 154.979 227.559 155.896 215.202C156.217 209.894 156.583 204.356 156.95 199.001C157.592 189.07 158.142 181.839 158.371 178.59C158.417 177.537 158.371 176.622 157.271 176.393H157.179L157.133 176.347Z" fill="white" stroke="#020A0A" stroke-width="2" stroke-miterlimit="10"/>
<path d="M190 177H205V277H190.502" stroke="black" stroke-miterlimit="9.99856" stroke-dasharray="4 4"/>
</svg>
