<svg width="285" height="332" viewBox="0 0 285 332" fill="none" xmlns="http://www.w3.org/2000/svg">
<rect width="285" height="332" rx="10" fill="black"/>
<path d="M40.1397 307H42.0897V314H40.8597V307.99L38.2197 314H36.8897L34.2497 307.99V314H33.0197V307H34.9597L37.5497 312.91L40.1397 307ZM45.9836 308.52C47.4536 308.52 48.7036 309.01 48.7036 310.54V314H47.4736V313.31C47.2136 313.61 46.5736 314.15 45.3236 314.15C44.0436 314.15 43.1936 313.62 43.1936 312.6C43.1936 311.5 43.7936 310.63 47.4736 310.87V310.54C47.4736 309.8 47.0936 309.43 45.9836 309.43C45.0336 309.43 44.6436 309.74 44.5536 310.19H43.4036C43.5636 309.07 44.6036 308.52 45.9836 308.52ZM47.4736 312.5V311.61C45.2536 311.5 44.4536 311.69 44.4536 312.52C44.4536 313.06 44.8736 313.33 45.5836 313.33C46.5236 313.33 47.1436 312.98 47.4736 312.5ZM54.3072 314L52.4972 311.58L51.3472 312.66V314H50.1072V307H51.3472V311.26L54.0972 308.67H55.6372L53.3672 310.78L55.7672 314H54.3072ZM58.967 308.52C60.657 308.52 62.017 309.52 61.877 311.73H57.077C57.217 312.64 57.867 313.24 58.987 313.24C60.027 313.24 60.467 312.74 60.647 312.36H61.727C61.457 313.45 60.417 314.15 58.987 314.15C57.467 314.15 55.967 313.28 55.967 311.34C55.967 309.43 57.437 308.52 58.967 308.52ZM57.107 310.83H60.777C60.617 309.99 60.037 309.43 58.967 309.43C57.977 309.43 57.297 309.99 57.107 310.83ZM68.6008 310.88C70.1108 311.14 70.9608 311.34 70.9608 312.39C70.9608 313.63 69.9308 314.15 68.1508 314.15C66.5308 314.15 65.2908 313.59 65.2908 312.38H66.5608C66.5608 312.96 67.1308 313.22 68.2508 313.22C69.3408 313.22 69.7308 312.95 69.7308 312.55C69.7308 311.96 68.8408 311.95 67.4808 311.7C66.1008 311.44 65.4908 311.12 65.4908 310.17C65.4908 309.1 66.4908 308.52 68.0608 308.52C69.7708 308.52 70.6908 309.2 70.6908 310.19H69.5408C69.5408 309.85 69.1808 309.43 68.0408 309.43C66.9708 309.43 66.6008 309.7 66.6008 310.11C66.6008 310.65 67.6508 310.72 68.6008 310.88ZM76.1527 308.67H77.3827V314H76.1527V313.18C75.9027 313.53 75.2227 314.15 74.1127 314.15C72.7227 314.15 71.9627 313.36 71.9627 312.12V308.67H73.1927V311.75C73.1927 312.65 73.6827 313.15 74.6527 313.15C75.6227 313.15 76.1527 312.59 76.1527 311.75V308.67ZM82.1491 308.52C82.3891 308.52 82.5291 308.53 82.7391 308.56V309.78H82.6991C82.4891 309.72 82.2191 309.68 81.8791 309.68C80.5291 309.68 80.0191 310.46 80.0191 311.29V314H78.7791V308.67H80.0191V309.67C80.2591 309.28 80.9991 308.52 82.1491 308.52ZM86.2424 308.52C87.9324 308.52 89.2924 309.52 89.1524 311.73H84.3524C84.4924 312.64 85.1424 313.24 86.2624 313.24C87.3024 313.24 87.7424 312.74 87.9224 312.36H89.0024C88.7324 313.45 87.6924 314.15 86.2624 314.15C84.7424 314.15 83.2424 313.28 83.2424 311.34C83.2424 309.43 84.7124 308.52 86.2424 308.52ZM84.3824 310.83H88.0524C87.8924 309.99 87.3124 309.43 86.2424 309.43C85.2524 309.43 84.5724 309.99 84.3824 310.83ZM96.5462 309.61H94.9362V312.01C94.9362 312.91 95.2962 313.16 96.5462 313.03V313.99C96.3662 314.04 96.0962 314.08 95.8462 314.08C94.2262 314.08 93.7062 313.42 93.7062 312.01V309.61H92.6662V308.67H93.7062V307.29H94.9362V308.67H96.5462V309.61ZM100.296 308.52C101.856 308.52 103.356 309.37 103.356 311.34C103.356 313.31 101.856 314.15 100.296 314.15C98.7363 314.15 97.2463 313.31 97.2463 311.34C97.2463 309.37 98.7363 308.52 100.296 308.52ZM100.296 313.24C101.726 313.24 102.216 312.27 102.216 311.34C102.216 310.4 101.726 309.43 100.296 309.43C98.8663 309.43 98.3763 310.4 98.3763 311.34C98.3763 312.27 98.8663 313.24 100.296 313.24ZM114.056 308.52C115.446 308.52 116.116 309.31 116.116 310.55V314H114.876V310.92C114.876 310.02 114.546 309.52 113.606 309.52C112.676 309.52 112.296 310.12 112.296 310.92V314H111.066V310.92C111.066 310.02 110.726 309.52 109.796 309.52C108.866 309.52 108.486 310.12 108.486 310.92V314H107.256V308.67H108.486V309.45C108.686 309.1 109.196 308.52 110.236 308.52C111.156 308.52 111.756 308.86 112.056 309.45C112.326 309.09 112.986 308.52 114.056 308.52ZM120.119 308.52C121.809 308.52 123.169 309.52 123.029 311.73H118.229C118.369 312.64 119.019 313.24 120.139 313.24C121.179 313.24 121.619 312.74 121.799 312.36H122.879C122.609 313.45 121.569 314.15 120.139 314.15C118.619 314.15 117.119 313.28 117.119 311.34C117.119 309.43 118.589 308.52 120.119 308.52ZM118.259 310.83H121.929C121.769 309.99 121.189 309.43 120.119 309.43C119.129 309.43 118.449 309.99 118.259 310.83ZM126.433 308.52C127.903 308.52 129.153 309.01 129.153 310.54V314H127.923V313.31C127.663 313.61 127.023 314.15 125.773 314.15C124.493 314.15 123.643 313.62 123.643 312.6C123.643 311.5 124.243 310.63 127.923 310.87V310.54C127.923 309.8 127.543 309.43 126.433 309.43C125.483 309.43 125.093 309.74 125.003 310.19H123.853C124.013 309.07 125.053 308.52 126.433 308.52ZM127.923 312.5V311.61C125.703 311.5 124.903 311.69 124.903 312.52C124.903 313.06 125.323 313.33 126.033 313.33C126.973 313.33 127.593 312.98 127.923 312.5ZM133.366 310.88C134.876 311.14 135.726 311.34 135.726 312.39C135.726 313.63 134.696 314.15 132.916 314.15C131.296 314.15 130.056 313.59 130.056 312.38H131.326C131.326 312.96 131.896 313.22 133.016 313.22C134.106 313.22 134.496 312.95 134.496 312.55C134.496 311.96 133.606 311.95 132.246 311.7C130.866 311.44 130.256 311.12 130.256 310.17C130.256 309.1 131.256 308.52 132.826 308.52C134.536 308.52 135.456 309.2 135.456 310.19H134.306C134.306 309.85 133.946 309.43 132.806 309.43C131.736 309.43 131.366 309.7 131.366 310.11C131.366 310.65 132.416 310.72 133.366 310.88ZM140.918 308.67H142.148V314H140.918V313.18C140.668 313.53 139.988 314.15 138.878 314.15C137.488 314.15 136.728 313.36 136.728 312.12V308.67H137.958V311.75C137.958 312.65 138.448 313.15 139.418 313.15C140.388 313.15 140.918 312.59 140.918 311.75V308.67ZM146.915 308.52C147.155 308.52 147.295 308.53 147.505 308.56V309.78H147.465C147.255 309.72 146.985 309.68 146.645 309.68C145.295 309.68 144.785 310.46 144.785 311.29V314H143.545V308.67H144.785V309.67C145.025 309.28 145.765 308.52 146.915 308.52ZM151.008 308.52C152.698 308.52 154.058 309.52 153.918 311.73H149.118C149.258 312.64 149.908 313.24 151.028 313.24C152.068 313.24 152.508 312.74 152.688 312.36H153.768C153.498 313.45 152.458 314.15 151.028 314.15C149.508 314.15 148.008 313.28 148.008 311.34C148.008 309.43 149.478 308.52 151.008 308.52ZM149.148 310.83H152.818C152.658 309.99 152.078 309.43 151.008 309.43C150.018 309.43 149.338 309.99 149.148 310.83ZM157.832 306.62H159.062V314H157.832V306.62ZM160.459 314V308.67H161.689V314H160.459ZM161.069 307.93C160.689 307.93 160.419 307.71 160.419 307.33C160.419 306.95 160.689 306.73 161.069 306.73C161.459 306.73 161.729 306.95 161.729 307.33C161.729 307.71 161.459 307.93 161.069 307.93ZM166.356 308.52C167.746 308.52 168.506 309.31 168.506 310.55V314H167.276V310.92C167.276 310.02 166.786 309.52 165.816 309.52C164.846 309.52 164.316 310.08 164.316 310.92V314H163.086V308.67H164.316V309.49C164.566 309.14 165.246 308.52 166.356 308.52ZM172.502 308.52C174.192 308.52 175.552 309.52 175.412 311.73H170.612C170.752 312.64 171.402 313.24 172.522 313.24C173.562 313.24 174.002 312.74 174.182 312.36H175.262C174.992 313.45 173.952 314.15 172.522 314.15C171.002 314.15 169.502 313.28 169.502 311.34C169.502 309.43 170.972 308.52 172.502 308.52ZM170.642 310.83H174.312C174.152 309.99 173.572 309.43 172.502 309.43C171.512 309.43 170.832 309.99 170.642 310.83ZM178.816 308.52C180.286 308.52 181.536 309.01 181.536 310.54V314H180.306V313.31C180.046 313.61 179.406 314.15 178.156 314.15C176.876 314.15 176.026 313.62 176.026 312.6C176.026 311.5 176.626 310.63 180.306 310.87V310.54C180.306 309.8 179.926 309.43 178.816 309.43C177.866 309.43 177.476 309.74 177.386 310.19H176.236C176.396 309.07 177.436 308.52 178.816 308.52ZM180.306 312.5V311.61C178.086 311.5 177.286 311.69 177.286 312.52C177.286 313.06 177.706 313.33 178.416 313.33C179.356 313.33 179.976 312.98 180.306 312.5ZM186.309 308.52C186.549 308.52 186.689 308.53 186.899 308.56V309.78H186.859C186.649 309.72 186.379 309.68 186.039 309.68C184.689 309.68 184.179 310.46 184.179 311.29V314H182.939V308.67H184.179V309.67C184.419 309.28 185.159 308.52 186.309 308.52ZM195.121 307H196.351V314H195.121V313.3C194.701 313.81 194.061 314.15 193.171 314.15C191.611 314.15 190.401 313.14 190.401 311.34C190.401 309.53 191.611 308.52 193.171 308.52C194.061 308.52 194.701 308.86 195.121 309.37V307ZM193.411 313.24C194.681 313.24 195.311 312.44 195.311 311.34C195.311 310.23 194.701 309.43 193.411 309.43C192.111 309.43 191.541 310.21 191.541 311.34C191.541 312.46 192.131 313.24 193.411 313.24ZM197.754 314V308.67H198.984V314H197.754ZM198.364 307.93C197.984 307.93 197.714 307.71 197.714 307.33C197.714 306.95 197.984 306.73 198.364 306.73C198.754 306.73 199.024 306.95 199.024 307.33C199.024 307.71 198.754 307.93 198.364 307.93ZM207.181 308.52C208.571 308.52 209.241 309.31 209.241 310.55V314H208.001V310.92C208.001 310.02 207.671 309.52 206.731 309.52C205.801 309.52 205.421 310.12 205.421 310.92V314H204.191V310.92C204.191 310.02 203.851 309.52 202.921 309.52C201.991 309.52 201.611 310.12 201.611 310.92V314H200.381V308.67H201.611V309.45C201.811 309.1 202.321 308.52 203.361 308.52C204.281 308.52 204.881 308.86 205.181 309.45C205.451 309.09 206.111 308.52 207.181 308.52ZM213.244 308.52C214.934 308.52 216.294 309.52 216.154 311.73H211.354C211.494 312.64 212.144 313.24 213.264 313.24C214.304 313.24 214.744 312.74 214.924 312.36H216.004C215.734 313.45 214.694 314.15 213.264 314.15C211.744 314.15 210.244 313.28 210.244 311.34C210.244 309.43 211.714 308.52 213.244 308.52ZM211.384 310.83H215.054C214.894 309.99 214.314 309.43 213.244 309.43C212.254 309.43 211.574 309.99 211.384 310.83ZM220.438 308.52C221.828 308.52 222.588 309.31 222.588 310.55V314H221.358V310.92C221.358 310.02 220.868 309.52 219.898 309.52C218.928 309.52 218.398 310.08 218.398 310.92V314H217.168V308.67H218.398V309.49C218.648 309.14 219.328 308.52 220.438 308.52ZM226.794 310.88C228.304 311.14 229.154 311.34 229.154 312.39C229.154 313.63 228.124 314.15 226.344 314.15C224.724 314.15 223.484 313.59 223.484 312.38H224.754C224.754 312.96 225.324 313.22 226.444 313.22C227.534 313.22 227.924 312.95 227.924 312.55C227.924 311.96 227.034 311.95 225.674 311.7C224.294 311.44 223.684 311.12 223.684 310.17C223.684 309.1 224.684 308.52 226.254 308.52C227.964 308.52 228.884 309.2 228.884 310.19H227.734C227.734 309.85 227.374 309.43 226.234 309.43C225.164 309.43 224.794 309.7 224.794 310.11C224.794 310.65 225.844 310.72 226.794 310.88ZM230.156 314V308.67H231.386V314H230.156ZM230.766 307.93C230.386 307.93 230.116 307.71 230.116 307.33C230.116 306.95 230.386 306.73 230.766 306.73C231.156 306.73 231.426 306.95 231.426 307.33C231.426 307.71 231.156 307.93 230.766 307.93ZM235.433 308.52C236.993 308.52 238.493 309.37 238.493 311.34C238.493 313.31 236.993 314.15 235.433 314.15C233.873 314.15 232.383 313.31 232.383 311.34C232.383 309.37 233.873 308.52 235.433 308.52ZM235.433 313.24C236.863 313.24 237.353 312.27 237.353 311.34C237.353 310.4 236.863 309.43 235.433 309.43C234.003 309.43 233.513 310.4 233.513 311.34C233.513 312.27 234.003 313.24 235.433 313.24ZM242.762 308.52C244.152 308.52 244.912 309.31 244.912 310.55V314H243.682V310.92C243.682 310.02 243.192 309.52 242.222 309.52C241.252 309.52 240.722 310.08 240.722 310.92V314H239.492V308.67H240.722V309.49C240.972 309.14 241.652 308.52 242.762 308.52ZM249.118 310.88C250.628 311.14 251.478 311.34 251.478 312.39C251.478 313.63 250.448 314.15 248.668 314.15C247.048 314.15 245.808 313.59 245.808 312.38H247.078C247.078 312.96 247.648 313.22 248.768 313.22C249.858 313.22 250.248 312.95 250.248 312.55C250.248 311.96 249.358 311.95 247.998 311.7C246.618 311.44 246.008 311.12 246.008 310.17C246.008 309.1 247.008 308.52 248.578 308.52C250.288 308.52 251.208 309.2 251.208 310.19H250.058C250.058 309.85 249.698 309.43 248.558 309.43C247.488 309.43 247.118 309.7 247.118 310.11C247.118 310.65 248.168 310.72 249.118 310.88Z" fill="white"/>
<path d="M248.543 219.56H221V184H228.241V213.244H248.543V219.56Z" fill="white"/>
<path d="M180 177H179V226H180V177Z" fill="white"/>
<path d="M185.043 226H174.228V227.007H185.043V226Z" fill="white"/>
<path d="M185.043 176.219H174.228V177.226H185.043V176.219Z" fill="white"/>
<path d="M190 177H208V227H190" stroke="white" stroke-miterlimit="10" stroke-dasharray="4 4"/>
<path d="M80.3669 147.947C76.6487 137.792 77.7641 125.041 80.5992 114.375C81.2964 111.454 82.133 108.533 82.8302 105.658C85.7118 94.6683 85.7583 80.4792 86.2231 68.284C86.6879 52.1937 86.8738 43.3835 86.9202 28.406C86.9202 27.6641 86.9203 26.8759 87.385 26.4122C87.7104 26.1803 88.0822 26.0412 88.547 26.0412C90.5455 25.9485 95.5651 26.0412 102.351 26.0412C119.269 26.1803 163.933 25.763 173.322 26.2267C174.205 26.6904 173.972 27.4787 173.972 28.9161C173.647 35.4542 172.299 52.101 171.927 58.3609C170.626 85.6263 161.191 125.504 156.962 144.098C155.335 150.405 154.824 157.267 155.707 163.991C156.264 168.906 156.962 179.849 156.543 183.466L154.777 213.421C154.405 219.542 154.08 225.663 153.987 231.784C153.755 243.144 150.687 275 123.08 275C89.4765 275 89.9413 235.076 89.2441 213.931C88.5469 192.74 82.0401 152.491 80.4134 147.947H80.3669Z" fill="#2D2D2D" stroke="white" stroke-width="2" stroke-miterlimit="10"/>
<path d="M153.262 226H88.6459C88.3248 226 88.0039 226.262 87.8204 226.698L85.2064 232.975C84.9312 233.586 84.9312 234.414 85.2064 235.025L87.9121 241.302C88.0955 241.738 88.4165 242 88.7375 242H153.354C153.675 242 153.996 241.738 154.18 241.302L156.794 235.025C157.069 234.414 157.069 233.586 156.794 232.975L154.088 226.698C153.904 226.262 153.583 226 153.262 226Z" fill="black"/>
<path d="M153.262 225.25C154.003 225.25 154.53 225.821 154.776 226.4L157.477 232.667L157.54 232.821C157.836 233.597 157.817 234.559 157.485 235.312L157.486 235.312L154.872 241.591L154.871 241.594C154.626 242.176 154.098 242.75 153.354 242.75H88.7368C87.9929 242.75 87.4651 242.176 87.2202 241.594V241.593L84.517 235.321L84.518 235.32C84.1598 234.516 84.1602 233.469 84.5219 232.667L87.1274 226.409L87.1284 226.406C87.3733 225.824 87.9012 225.25 88.645 225.25H153.262ZM88.6625 226.761C88.6256 226.792 88.5642 226.86 88.5112 226.985L88.5122 226.986L85.8979 233.264L85.894 233.273L85.8891 233.284C85.7026 233.698 85.7026 234.302 85.8891 234.716L85.895 234.728L88.6 241.006L88.603 241.012C88.6562 241.138 88.7172 241.208 88.7543 241.239C88.7606 241.244 88.7661 241.247 88.77 241.25H153.321C153.325 241.247 153.33 241.244 153.336 241.239C153.374 241.208 153.435 241.138 153.488 241.012L156.101 234.736L156.105 234.727L156.11 234.716C156.296 234.302 156.296 233.698 156.11 233.284L156.104 233.272L153.399 226.994L153.396 226.988C153.343 226.862 153.282 226.792 153.245 226.761C153.238 226.756 153.233 226.753 153.229 226.75H88.6782C88.6743 226.753 88.6688 226.756 88.6625 226.761Z" fill="white"/>
<path d="M157 233.25V234.75H85V233.25H157Z" fill="white"/>
<path d="M161.92 178.012C154.299 176.805 150.86 171.465 150.023 162.132C148.072 145.369 142.867 121.41 125.488 119.32C108.48 116.581 95.654 132.136 80.412 138.497C77.8562 139.705 74.5105 141.144 72.5123 142.119C70.8858 143.001 70.7929 143.605 71.2111 145.184C73.3023 151.684 75.2074 160.553 76.5086 168.679C78.4138 180.287 78.8786 191.756 79.6221 203.783C80.6909 223.052 82.0849 244.69 84.5014 254.859C87.2895 268.604 98.0241 277.844 109.874 279.887C128.462 283.23 149.466 280.212 156.483 254.441C159.736 242.322 159.782 229.971 160.618 217.434C160.944 212.048 161.316 206.429 161.641 200.997C162.291 190.921 162.803 183.584 162.988 180.287C163.035 179.219 162.988 178.291 161.92 178.059V178.012Z" fill="black" fill-opacity="0.5" stroke="white" stroke-width="2" stroke-miterlimit="10"/>
</svg>
