<svg width="285" height="332" viewBox="0 0 285 332" fill="none" xmlns="http://www.w3.org/2000/svg">
<rect width="285" height="332" rx="10" fill="#D9D9D9"/>
<path d="M79.0693 148.139C75.4596 138.274 76.5425 125.887 79.2949 115.527C79.9718 112.689 80.784 109.851 81.4608 107.058C84.2584 96.3825 84.3035 82.5987 84.7547 70.7519C85.2059 55.1212 85.3864 46.5627 85.4315 32.0131C85.4315 31.2924 85.4315 30.5266 85.8828 30.0762C86.1986 29.851 86.5596 29.7158 87.0108 29.7158C88.951 29.6257 93.8242 29.7158 100.412 29.7158C116.836 29.851 160.199 29.4456 169.313 29.896C170.171 30.3465 169.945 31.1122 169.945 32.5086C169.629 38.86 168.321 55.0311 167.96 61.1122C166.696 87.5987 157.536 126.337 153.43 144.401C151.851 150.527 151.355 157.193 152.212 163.725C152.753 168.5 153.43 179.13 153.024 182.644L151.31 211.743C150.949 217.689 150.633 223.635 150.543 229.581C150.317 240.617 147.339 271.563 120.536 271.563C87.9132 271.563 88.3645 232.779 87.6876 212.238C87.0108 191.653 80.6937 152.554 79.1145 148.139H79.0693Z" fill="#D3D3D5" stroke="#1D1D1B" stroke-width="2" stroke-miterlimit="10"/>
<path d="M245.118 217.689H218V182.689H225.129V211.473H245.118V217.689Z" fill="#050A0A"/>
<path d="M181.632 177.014H180.549V224.401H181.632V177.014Z" fill="black"/>
<path d="M186.414 224.039H175.766V224.76H186.414V224.039Z" fill="black"/>
<path d="M186.414 176.652H175.766V177.373H186.414V176.652Z" fill="black"/>
<path d="M191.475 176.5H206.475V224.5H191.976" stroke="black" stroke-miterlimit="9.99856" stroke-dasharray="4 4"/>
<path d="M150.724 223.41H87.1468C86.8309 223.41 86.5151 223.68 86.3346 224.131L83.7626 230.617C83.4919 231.248 83.4919 232.104 83.7626 232.734L86.4248 239.221C86.6053 239.671 86.9212 239.942 87.237 239.942H150.814C151.13 239.942 151.446 239.671 151.626 239.221L154.198 232.734C154.469 232.104 154.469 231.248 154.198 230.617L151.536 224.131C151.355 223.68 151.039 223.41 150.724 223.41Z" fill="white" stroke="#1D1D1B" stroke-miterlimit="10"/>
<path d="M84.4395 231.879H153.882" stroke="#020A0A" stroke-miterlimit="10"/>
<path d="M158.283 177.463C150.883 176.291 147.544 171.111 146.732 162.057C144.837 145.796 139.783 122.553 122.907 120.526C106.393 117.868 93.9392 132.958 79.1392 139.129C76.6574 140.3 73.4087 141.697 71.4684 142.643C69.8892 143.499 69.7989 144.084 70.205 145.616C72.2355 151.922 74.0855 160.526 75.3489 168.408C77.1989 179.67 77.6501 190.796 78.3721 202.463C79.4099 221.156 80.7635 242.147 83.1099 252.012C85.8172 265.345 96.2404 274.309 107.746 276.291C125.795 279.535 146.19 276.607 153.004 251.607C156.162 239.85 156.207 227.868 157.02 215.706C157.335 210.481 157.696 205.03 158.012 199.76C158.644 189.985 159.14 182.868 159.321 179.67C159.366 178.634 159.321 177.733 158.283 177.508H158.238L158.283 177.463Z" fill="white" fill-opacity="0.5" stroke="#020A0A" stroke-width="2" stroke-miterlimit="10"/>
<path d="M37.7973 303L37.1483 301.493H32.9243L32.2643 303H30.3833L33.9473 295.3H36.1253L39.6783 303H37.7973ZM33.5183 300.14H36.5543L35.0363 296.642L33.5183 300.14ZM43.6353 299.469C45.2853 299.755 46.4073 299.876 46.4073 301.229C46.4073 302.571 45.2633 303.165 43.1403 303.165C41.0723 303.165 39.7853 302.516 39.7853 301.196H41.6003C41.6003 301.779 42.2933 302.032 43.2503 302.032C44.1963 302.032 44.6913 301.856 44.6913 301.405C44.6913 300.877 43.9653 300.811 42.4033 300.547C40.8523 300.294 40.0163 299.964 40.0163 298.798C40.0163 297.621 41.0613 296.983 43.0413 296.983C45.1093 296.983 46.1433 297.753 46.1433 298.831H44.4603C44.4603 298.457 44.0313 298.083 43.0193 298.083C42.1063 298.083 41.6113 298.27 41.6113 298.721C41.6113 299.227 42.5903 299.282 43.6353 299.469ZM53.6655 300.503H48.4625C48.5945 301.306 49.1555 302.01 50.3765 302.01C51.2675 302.01 51.8395 301.614 52.0705 301.119H53.5445C53.1595 302.582 51.8285 303.165 50.3765 303.165C48.7045 303.165 46.9555 302.241 46.9555 300.074C46.9555 297.907 48.6825 296.983 50.3655 296.983C52.0705 296.983 53.8415 298.028 53.6655 300.503ZM50.3655 298.127C49.3205 298.127 48.7375 298.699 48.5175 299.403H52.1365C51.9605 298.699 51.4655 298.127 50.3655 298.127ZM59.5491 297.137H61.2101V302.45C61.2101 304.738 59.3071 305.046 57.6241 305.046C55.6661 305.046 54.5441 304.375 54.4341 303.253H55.9961C56.1171 303.616 56.7001 303.891 57.6241 303.891C58.9551 303.891 59.5491 303.506 59.5491 302.45V301.911C59.1091 302.384 58.4381 302.637 57.4481 302.637C55.7321 302.637 54.3461 301.856 54.3461 299.865C54.3461 297.874 55.7321 296.983 57.4481 296.983C58.3501 296.983 59.0761 297.324 59.5491 297.907V297.137ZM57.8111 301.592C59.0211 301.592 59.7581 300.965 59.7581 299.865C59.7581 298.754 59.0211 298.138 57.8111 298.138C56.6121 298.138 55.9191 298.765 55.9191 299.865C55.9191 300.965 56.6121 301.592 57.8111 301.592ZM64.9157 303.165C63.4087 303.165 62.5287 302.34 62.5287 301.02V297.137H64.2007V300.602C64.2007 301.306 64.6077 301.911 65.6417 301.911C66.6757 301.911 67.1377 301.284 67.1377 300.602V297.137H68.8097V303H67.1377V302.175C66.8847 302.527 66.1697 303.165 64.9157 303.165ZM65.8287 294.805H67.7097L66.2467 296.334H64.9487L65.8287 294.805ZM73.9951 296.994C74.3801 296.994 74.6661 297.027 74.8641 297.082V298.622H74.8091C74.6001 298.534 74.2041 298.435 73.6981 298.435C72.3121 298.435 71.8061 299.304 71.8061 300.217V303H70.1341V297.137H71.8061V298.215C72.0481 297.797 72.7411 296.994 73.9951 296.994ZM82.0141 300.503H76.8111C76.9431 301.306 77.5041 302.01 78.7251 302.01C79.6161 302.01 80.1881 301.614 80.4191 301.119H81.8931C81.5081 302.582 80.1771 303.165 78.7251 303.165C77.0531 303.165 75.3041 302.241 75.3041 300.074C75.3041 297.907 77.0311 296.983 78.7141 296.983C80.4191 296.983 82.1901 298.028 82.0141 300.503ZM78.7141 298.127C77.6691 298.127 77.0861 298.699 76.8661 299.403H80.4851C80.3091 298.699 79.8141 298.127 78.7141 298.127ZM86.3247 299.469C87.9747 299.755 89.0967 299.876 89.0967 301.229C89.0967 302.571 87.9527 303.165 85.8297 303.165C83.7617 303.165 82.4747 302.516 82.4747 301.196H84.2897C84.2897 301.779 84.9827 302.032 85.9397 302.032C86.8857 302.032 87.3807 301.856 87.3807 301.405C87.3807 300.877 86.6547 300.811 85.0927 300.547C83.5417 300.294 82.7057 299.964 82.7057 298.798C82.7057 297.621 83.7507 296.983 85.7307 296.983C87.7987 296.983 88.8327 297.753 88.8327 298.831H87.1497C87.1497 298.457 86.7207 298.083 85.7087 298.083C84.7957 298.083 84.3007 298.27 84.3007 298.721C84.3007 299.227 85.2797 299.282 86.3247 299.469ZM96.3549 300.503H91.1519C91.2839 301.306 91.8449 302.01 93.0659 302.01C93.9569 302.01 94.5289 301.614 94.7599 301.119H96.2339C95.8489 302.582 94.5179 303.165 93.0659 303.165C91.3939 303.165 89.6449 302.241 89.6449 300.074C89.6449 297.907 91.3719 296.983 93.0549 296.983C94.7599 296.983 96.5309 298.028 96.3549 300.503ZM93.0549 298.127C92.0099 298.127 91.4269 298.699 91.2069 299.403H94.8259C94.6499 298.699 94.1549 298.127 93.0549 298.127ZM105.322 295.3H106.994V303H105.322V302.274C104.893 302.824 104.211 303.165 103.221 303.165C101.516 303.165 100.119 302.065 100.119 300.074C100.119 298.083 101.516 296.983 103.221 296.983C104.211 296.983 104.893 297.324 105.322 297.874V295.3ZM103.595 302.01C104.794 302.01 105.531 301.306 105.531 300.074C105.531 298.842 104.794 298.127 103.595 298.127C102.385 298.127 101.692 298.842 101.692 300.074C101.692 301.306 102.385 302.01 103.595 302.01ZM114.692 300.503H109.489C109.621 301.306 110.182 302.01 111.403 302.01C112.294 302.01 112.866 301.614 113.097 301.119H114.571C114.186 302.582 112.855 303.165 111.403 303.165C109.731 303.165 107.982 302.241 107.982 300.074C107.982 297.907 109.709 296.983 111.392 296.983C113.097 296.983 114.868 298.028 114.692 300.503ZM111.392 298.127C110.347 298.127 109.764 298.699 109.544 299.403H113.163C112.987 298.699 112.492 298.127 111.392 298.127ZM126.551 296.983C128.058 296.983 128.839 297.797 128.839 299.117V303H127.167V299.535C127.167 298.831 126.859 298.226 125.924 298.226C124.989 298.226 124.648 298.842 124.648 299.535V303H122.976V299.535C122.976 298.831 122.668 298.226 121.733 298.226C120.798 298.226 120.446 298.853 120.446 299.535V303H118.785V297.137H120.446V297.907C120.655 297.544 121.161 296.983 122.36 296.983C123.383 296.983 124.065 297.357 124.395 298.006C124.604 297.687 125.264 296.983 126.551 296.983ZM136.541 300.503H131.338C131.47 301.306 132.031 302.01 133.252 302.01C134.143 302.01 134.715 301.614 134.946 301.119H136.42C136.035 302.582 134.704 303.165 133.252 303.165C131.58 303.165 129.831 302.241 129.831 300.074C129.831 297.907 131.558 296.983 133.241 296.983C134.946 296.983 136.717 298.028 136.541 300.503ZM133.241 298.127C132.196 298.127 131.613 298.699 131.393 299.403H135.012C134.836 298.699 134.341 298.127 133.241 298.127ZM142.425 295.3H144.097V303H142.425V302.274C141.996 302.824 141.314 303.165 140.324 303.165C138.619 303.165 137.222 302.065 137.222 300.074C137.222 298.083 138.619 296.983 140.324 296.983C141.314 296.983 141.996 297.324 142.425 297.874V295.3ZM140.698 302.01C141.897 302.01 142.634 301.306 142.634 300.074C142.634 298.842 141.897 298.127 140.698 298.127C139.488 298.127 138.795 298.842 138.795 300.074C138.795 301.306 139.488 302.01 140.698 302.01ZM145.415 303V297.137H147.076V303H145.415ZM146.24 296.455C145.734 296.455 145.382 296.169 145.382 295.674C145.382 295.168 145.734 294.882 146.24 294.882C146.746 294.882 147.109 295.168 147.109 295.674C147.109 296.169 146.746 296.455 146.24 296.455ZM152.263 296.994C152.648 296.994 152.934 297.027 153.132 297.082V298.622H153.077C152.868 298.534 152.472 298.435 151.966 298.435C150.58 298.435 150.074 299.304 150.074 300.217V303H148.402V297.137H150.074V298.215C150.316 297.797 151.009 296.994 152.263 296.994ZM157.092 294.882H158.764V303H157.092V294.882ZM163.004 296.983C164.687 296.983 166.161 297.467 166.161 299.194V303H164.489V302.219C164.236 302.604 163.389 303.165 162.08 303.165C160.705 303.165 159.759 302.593 159.759 301.438C159.759 300.206 160.397 299.216 164.489 299.469V299.194C164.489 298.578 164.214 298.127 163.004 298.127C161.992 298.127 161.673 298.424 161.585 298.831H160.023C160.21 297.533 161.398 296.983 163.004 296.983ZM164.489 301.284V300.459C162.267 300.338 161.442 300.547 161.442 301.383C161.442 301.933 161.849 302.153 162.575 302.153C163.477 302.153 164.181 301.801 164.489 301.284ZM170.78 299.469C172.43 299.755 173.552 299.876 173.552 301.229C173.552 302.571 172.408 303.165 170.285 303.165C168.217 303.165 166.93 302.516 166.93 301.196H168.745C168.745 301.779 169.438 302.032 170.395 302.032C171.341 302.032 171.836 301.856 171.836 301.405C171.836 300.877 171.11 300.811 169.548 300.547C167.997 300.294 167.161 299.964 167.161 298.798C167.161 297.621 168.206 296.983 170.186 296.983C172.254 296.983 173.288 297.753 173.288 298.831H171.605C171.605 298.457 171.176 298.083 170.164 298.083C169.251 298.083 168.756 298.27 168.756 298.721C168.756 299.227 169.735 299.282 170.78 299.469ZM182.386 295.3H184.058V303H182.386V302.274C181.957 302.824 181.275 303.165 180.285 303.165C178.58 303.165 177.183 302.065 177.183 300.074C177.183 298.083 178.58 296.983 180.285 296.983C181.275 296.983 181.957 297.324 182.386 297.874V295.3ZM180.659 302.01C181.858 302.01 182.595 301.306 182.595 300.074C182.595 298.842 181.858 298.127 180.659 298.127C179.449 298.127 178.756 298.842 178.756 300.074C178.756 301.306 179.449 302.01 180.659 302.01ZM185.376 303V297.137H187.037V303H185.376ZM186.201 296.455C185.695 296.455 185.343 296.169 185.343 295.674C185.343 295.168 185.695 294.882 186.201 294.882C186.707 294.882 187.07 295.168 187.07 295.674C187.07 296.169 186.707 296.455 186.201 296.455ZM196.129 296.983C197.636 296.983 198.417 297.797 198.417 299.117V303H196.745V299.535C196.745 298.831 196.437 298.226 195.502 298.226C194.567 298.226 194.226 298.842 194.226 299.535V303H192.554V299.535C192.554 298.831 192.246 298.226 191.311 298.226C190.376 298.226 190.024 298.853 190.024 299.535V303H188.363V297.137H190.024V297.907C190.233 297.544 190.739 296.983 191.938 296.983C192.961 296.983 193.643 297.357 193.973 298.006C194.182 297.687 194.842 296.983 196.129 296.983ZM206.119 300.503H200.916C201.048 301.306 201.609 302.01 202.83 302.01C203.721 302.01 204.293 301.614 204.524 301.119H205.998C205.613 302.582 204.282 303.165 202.83 303.165C201.158 303.165 199.409 302.241 199.409 300.074C199.409 297.907 201.136 296.983 202.819 296.983C204.524 296.983 206.295 298.028 206.119 300.503ZM202.819 298.127C201.774 298.127 201.191 298.699 200.971 299.403H204.59C204.414 298.699 203.919 298.127 202.819 298.127ZM211.023 296.983C212.53 296.983 213.41 297.797 213.41 299.117V303H211.738V299.535C211.738 298.831 211.331 298.226 210.297 298.226C209.263 298.226 208.801 298.853 208.801 299.535V303H207.129V297.137H208.801V297.962C209.054 297.61 209.769 296.983 211.023 296.983ZM218.035 299.469C219.685 299.755 220.807 299.876 220.807 301.229C220.807 302.571 219.663 303.165 217.54 303.165C215.472 303.165 214.185 302.516 214.185 301.196H216C216 301.779 216.693 302.032 217.65 302.032C218.596 302.032 219.091 301.856 219.091 301.405C219.091 300.877 218.365 300.811 216.803 300.547C215.252 300.294 214.416 299.964 214.416 298.798C214.416 297.621 215.461 296.983 217.441 296.983C219.509 296.983 220.543 297.753 220.543 298.831H218.86C218.86 298.457 218.431 298.083 217.419 298.083C216.506 298.083 216.011 298.27 216.011 298.721C216.011 299.227 216.99 299.282 218.035 299.469ZM221.685 303V297.137H223.346V303H221.685ZM222.51 296.455C222.004 296.455 221.652 296.169 221.652 295.674C221.652 295.168 222.004 294.882 222.51 294.882C223.016 294.882 223.379 295.168 223.379 295.674C223.379 296.169 223.016 296.455 222.51 296.455ZM227.839 296.983C229.555 296.983 231.337 297.863 231.337 300.074C231.337 302.285 229.555 303.165 227.839 303.165C226.134 303.165 224.341 302.285 224.341 300.074C224.341 297.863 226.134 296.983 227.839 296.983ZM227.839 302.01C229.247 302.01 229.775 301.097 229.775 300.074C229.775 299.04 229.247 298.127 227.839 298.127C226.431 298.127 225.914 299.04 225.914 300.074C225.914 301.097 226.431 302.01 227.839 302.01ZM236.224 296.983C237.731 296.983 238.611 297.797 238.611 299.117V303H236.939V299.535C236.939 298.831 236.532 298.226 235.498 298.226C234.464 298.226 234.002 298.853 234.002 299.535V303H232.33V297.137H234.002V297.962C234.255 297.61 234.97 296.983 236.224 296.983ZM246.316 300.503H241.113C241.245 301.306 241.806 302.01 243.027 302.01C243.918 302.01 244.49 301.614 244.721 301.119H246.195C245.81 302.582 244.479 303.165 243.027 303.165C241.355 303.165 239.606 302.241 239.606 300.074C239.606 297.907 241.333 296.983 243.016 296.983C244.721 296.983 246.492 298.028 246.316 300.503ZM243.016 298.127C241.971 298.127 241.388 298.699 241.168 299.403H244.787C244.611 298.699 244.116 298.127 243.016 298.127ZM250.627 299.469C252.277 299.755 253.399 299.876 253.399 301.229C253.399 302.571 252.255 303.165 250.132 303.165C248.064 303.165 246.777 302.516 246.777 301.196H248.592C248.592 301.779 249.285 302.032 250.242 302.032C251.188 302.032 251.683 301.856 251.683 301.405C251.683 300.877 250.957 300.811 249.395 300.547C247.844 300.294 247.008 299.964 247.008 298.798C247.008 297.621 248.053 296.983 250.033 296.983C252.101 296.983 253.135 297.753 253.135 298.831H251.452C251.452 298.457 251.023 298.083 250.011 298.083C249.098 298.083 248.603 298.27 248.603 298.721C248.603 299.227 249.582 299.282 250.627 299.469ZM119.86 308.882H121.532V317H119.86V308.882ZM122.857 317V311.137H124.518V317H122.857ZM123.682 310.455C123.176 310.455 122.824 310.169 122.824 309.674C122.824 309.168 123.176 308.882 123.682 308.882C124.188 308.882 124.551 309.168 124.551 309.674C124.551 310.169 124.188 310.455 123.682 310.455ZM129.737 310.983C131.244 310.983 132.124 311.797 132.124 313.117V317H130.452V313.535C130.452 312.831 130.045 312.226 129.011 312.226C127.977 312.226 127.515 312.853 127.515 313.535V317H125.843V311.137H127.515V311.962C127.768 311.61 128.483 310.983 129.737 310.983ZM139.829 314.503H134.626C134.758 315.306 135.319 316.01 136.54 316.01C137.431 316.01 138.003 315.614 138.234 315.119H139.708C139.323 316.582 137.992 317.165 136.54 317.165C134.868 317.165 133.119 316.241 133.119 314.074C133.119 311.907 134.846 310.983 136.529 310.983C138.234 310.983 140.005 312.028 139.829 314.503ZM136.529 312.127C135.484 312.127 134.901 312.699 134.681 313.403H138.3C138.124 312.699 137.629 312.127 136.529 312.127ZM143.647 310.983C145.33 310.983 146.804 311.467 146.804 313.194V317H145.132V316.219C144.879 316.604 144.032 317.165 142.723 317.165C141.348 317.165 140.402 316.593 140.402 315.438C140.402 314.206 141.04 313.216 145.132 313.469V313.194C145.132 312.578 144.857 312.127 143.647 312.127C142.635 312.127 142.316 312.424 142.228 312.831H140.666C140.853 311.533 142.041 310.983 143.647 310.983ZM145.132 315.284V314.459C142.91 314.338 142.085 314.547 142.085 315.383C142.085 315.933 142.492 316.153 143.218 316.153C144.12 316.153 144.824 315.801 145.132 315.284ZM148.122 308.882H149.794V317H148.122V308.882ZM157.499 314.503H152.296C152.428 315.306 152.989 316.01 154.21 316.01C155.101 316.01 155.673 315.614 155.904 315.119H157.378C156.993 316.582 155.662 317.165 154.21 317.165C152.538 317.165 150.789 316.241 150.789 314.074C150.789 311.907 152.516 310.983 154.199 310.983C155.904 310.983 157.675 312.028 157.499 314.503ZM154.199 312.127C153.154 312.127 152.571 312.699 152.351 313.403H155.97C155.794 312.699 155.299 312.127 154.199 312.127ZM161.81 313.469C163.46 313.755 164.582 313.876 164.582 315.229C164.582 316.571 163.438 317.165 161.315 317.165C159.247 317.165 157.96 316.516 157.96 315.196H159.775C159.775 315.779 160.468 316.032 161.425 316.032C162.371 316.032 162.866 315.856 162.866 315.405C162.866 314.877 162.14 314.811 160.578 314.547C159.027 314.294 158.191 313.964 158.191 312.798C158.191 311.621 159.236 310.983 161.216 310.983C163.284 310.983 164.318 311.753 164.318 312.831H162.635C162.635 312.457 162.206 312.083 161.194 312.083C160.281 312.083 159.786 312.27 159.786 312.721C159.786 313.227 160.765 313.282 161.81 313.469Z" fill="black"/>
</svg>
