<svg width="285" height="332" viewBox="0 0 285 332" fill="none" xmlns="http://www.w3.org/2000/svg">
<rect width="285" height="332" rx="10" fill="black"/>
<path d="M22.207 314L21.497 312.44H17.487L16.787 314H15.457L18.697 307H20.297L23.537 314H22.207ZM17.957 311.4H21.037L19.497 307.97L17.957 311.4ZM26.8055 313.24C27.8855 313.24 28.4255 312.61 28.5755 312.01H29.7255C29.4655 313.43 28.2455 314.15 26.8055 314.15C25.2455 314.15 23.7355 313.31 23.7355 311.34C23.7355 309.37 25.2455 308.52 26.8055 308.52C28.2455 308.52 29.4655 309.24 29.7255 310.66H28.5755C28.4255 310.06 27.8855 309.43 26.8055 309.43C25.3755 309.43 24.8655 310.4 24.8655 311.34C24.8655 312.27 25.3755 313.24 26.8055 313.24ZM33.9973 308.52C35.3873 308.52 36.1473 309.31 36.1473 310.55V314H34.9173V310.92C34.9173 310.02 34.4273 309.52 33.4573 309.52C32.4873 309.52 31.9573 310.08 31.9573 310.92V314H30.7273V307H31.9573V309.49C32.2073 309.14 32.8873 308.52 33.9973 308.52ZM40.8284 309.61H39.2184V312.01C39.2184 312.91 39.5784 313.16 40.8284 313.03V313.99C40.6484 314.04 40.3784 314.08 40.1284 314.08C38.5084 314.08 37.9884 313.42 37.9884 312.01V309.61H36.9484V308.67H37.9884V307.29H39.2184V308.67H40.8284V309.61ZM44.5285 308.52C46.2185 308.52 47.5785 309.52 47.4385 311.73H42.6385C42.7785 312.64 43.4285 313.24 44.5485 313.24C45.5885 313.24 46.0285 312.74 46.2085 312.36H47.2885C47.0185 313.45 45.9785 314.15 44.5485 314.15C43.0285 314.15 41.5285 313.28 41.5285 311.34C41.5285 309.43 42.9985 308.52 44.5285 308.52ZM42.6685 310.83H46.3385C46.1785 309.99 45.5985 309.43 44.5285 309.43C43.5385 309.43 42.8585 309.99 42.6685 310.83ZM51.722 308.52C53.112 308.52 53.872 309.31 53.872 310.55V314H52.642V310.92C52.642 310.02 52.152 309.52 51.182 309.52C50.212 309.52 49.682 310.08 49.682 310.92V314H48.452V308.67H49.682V309.49C49.932 309.14 50.612 308.52 51.722 308.52ZM61.5888 309.96C63.5688 310.23 64.7588 310.53 64.7588 311.89C64.7588 313.21 63.7688 314.15 61.3188 314.15C58.7088 314.15 57.6688 313.18 57.6688 311.92H58.9888C59.0288 312.65 59.8488 313.11 61.3588 313.11C62.6588 313.11 63.4788 312.79 63.4788 312.04C63.4788 311.2 62.3188 311.27 60.3688 310.95C58.6888 310.68 57.9088 310.14 57.9088 309C57.9088 307.78 58.7988 306.86 61.1088 306.86C63.5088 306.86 64.4188 307.95 64.4188 308.95H63.1588C63.0988 308.44 62.5688 307.9 61.0788 307.9C59.5188 307.9 59.1488 308.37 59.1488 308.91C59.1488 309.67 60.0888 309.75 61.5888 309.96ZM65.7566 314V308.67H66.9866V314H65.7566ZM66.3666 307.93C65.9866 307.93 65.7166 307.71 65.7166 307.33C65.7166 306.95 65.9866 306.73 66.3666 306.73C66.7566 306.73 67.0266 306.95 67.0266 307.33C67.0266 307.71 66.7566 307.93 66.3666 307.93ZM70.9836 308.52C72.6736 308.52 74.0336 309.52 73.8936 311.73H69.0936C69.2336 312.64 69.8836 313.24 71.0036 313.24C72.0436 313.24 72.4836 312.74 72.6636 312.36H73.7436C73.4736 313.45 72.4336 314.15 71.0036 314.15C69.4836 314.15 67.9836 313.28 67.9836 311.34C67.9836 309.43 69.4536 308.52 70.9836 308.52ZM69.1236 310.83H72.7936C72.6336 309.99 72.0536 309.43 70.9836 309.43C69.9936 309.43 69.3136 309.99 69.1236 310.83ZM82.1274 307H83.3574V314H82.1274V313.3C81.7074 313.81 81.0674 314.15 80.1774 314.15C78.6174 314.15 77.4074 313.14 77.4074 311.34C77.4074 309.53 78.6174 308.52 80.1774 308.52C81.0674 308.52 81.7074 308.86 82.1274 309.37V307ZM80.4174 313.24C81.6874 313.24 82.3174 312.44 82.3174 311.34C82.3174 310.23 81.7074 309.43 80.4174 309.43C79.1174 309.43 78.5474 310.21 78.5474 311.34C78.5474 312.46 79.1374 313.24 80.4174 313.24ZM87.1505 308.52C88.6205 308.52 89.8705 309.01 89.8705 310.54V314H88.6405V313.31C88.3805 313.61 87.7405 314.15 86.4905 314.15C85.2105 314.15 84.3605 313.62 84.3605 312.6C84.3605 311.5 84.9605 310.63 88.6405 310.87V310.54C88.6405 309.8 88.2605 309.43 87.1505 309.43C86.2005 309.43 85.8105 309.74 85.7205 310.19H84.5705C84.7305 309.07 85.7705 308.52 87.1505 308.52ZM88.6405 312.5V311.61C86.4205 311.5 85.6205 311.69 85.6205 312.52C85.6205 313.06 86.0405 313.33 86.7505 313.33C87.6905 313.33 88.3105 312.98 88.6405 312.5ZM94.6442 308.52C94.8842 308.52 95.0242 308.53 95.2342 308.56V309.78H95.1942C94.9842 309.72 94.7142 309.68 94.3742 309.68C93.0242 309.68 92.5142 310.46 92.5142 311.29V314H91.2742V308.67H92.5142V309.67C92.7542 309.28 93.4942 308.52 94.6442 308.52ZM98.4298 308.52C99.8998 308.52 101.15 309.01 101.15 310.54V314H99.9198V313.31C99.6598 313.61 99.0198 314.15 97.7698 314.15C96.4898 314.15 95.6398 313.62 95.6398 312.6C95.6398 311.5 96.2398 310.63 99.9198 310.87V310.54C99.9198 309.8 99.5398 309.43 98.4298 309.43C97.4798 309.43 97.0898 309.74 96.9998 310.19H95.8498C96.0098 309.07 97.0498 308.52 98.4298 308.52ZM99.9198 312.5V311.61C97.6998 311.5 96.8998 311.69 96.8998 312.52C96.8998 313.06 97.3198 313.33 98.0298 313.33C98.9698 313.33 99.5898 312.98 99.9198 312.5ZM106.744 308.67H107.974V314H106.744V313.18C106.494 313.53 105.814 314.15 104.704 314.15C103.314 314.15 102.554 313.36 102.554 312.12V308.67H103.784V311.75C103.784 312.65 104.274 313.15 105.244 313.15C106.214 313.15 106.744 312.59 106.744 311.75V308.67ZM112.622 307.65C111.372 307.53 111.032 307.72 111.032 308.67H112.482V309.61H111.032V314H109.802V309.61H108.872V308.67H109.802C109.802 307.58 110.182 306.62 111.712 306.62C112.072 306.62 112.332 306.64 112.622 306.68V307.65ZM113.718 312.52H114.948L113.978 314.92H113.318L113.718 312.52ZM118.95 306.62H120.18V314H118.95V306.62ZM121.577 314V308.67H122.807V314H121.577ZM122.187 307.93C121.807 307.93 121.537 307.71 121.537 307.33C121.537 306.95 121.807 306.73 122.187 306.73C122.577 306.73 122.847 306.95 122.847 307.33C122.847 307.71 122.577 307.93 122.187 307.93ZM127.474 308.52C128.864 308.52 129.624 309.31 129.624 310.55V314H128.394V310.92C128.394 310.02 127.904 309.52 126.934 309.52C125.964 309.52 125.434 310.08 125.434 310.92V314H124.204V308.67H125.434V309.49C125.684 309.14 126.364 308.52 127.474 308.52ZM133.62 308.52C135.31 308.52 136.67 309.52 136.53 311.73H131.73C131.87 312.64 132.52 313.24 133.64 313.24C134.68 313.24 135.12 312.74 135.3 312.36H136.38C136.11 313.45 135.07 314.15 133.64 314.15C132.12 314.15 130.62 313.28 130.62 311.34C130.62 309.43 132.09 308.52 133.62 308.52ZM131.76 310.83H135.43C135.27 309.99 134.69 309.43 133.62 309.43C132.63 309.43 131.95 309.99 131.76 310.83ZM139.934 308.52C141.404 308.52 142.654 309.01 142.654 310.54V314H141.424V313.31C141.164 313.61 140.524 314.15 139.274 314.15C137.994 314.15 137.144 313.62 137.144 312.6C137.144 311.5 137.744 310.63 141.424 310.87V310.54C141.424 309.8 141.044 309.43 139.934 309.43C138.984 309.43 138.594 309.74 138.504 310.19H137.354C137.514 309.07 138.554 308.52 139.934 308.52ZM141.424 312.5V311.61C139.204 311.5 138.404 311.69 138.404 312.52C138.404 313.06 138.824 313.33 139.534 313.33C140.474 313.33 141.094 312.98 141.424 312.5ZM147.427 308.52C147.667 308.52 147.807 308.53 148.017 308.56V309.78H147.977C147.767 309.72 147.497 309.68 147.157 309.68C145.807 309.68 145.297 310.46 145.297 311.29V314H144.057V308.67H145.297V309.67C145.537 309.28 146.277 308.52 147.427 308.52ZM151.521 308.52C153.211 308.52 154.571 309.52 154.431 311.73H149.631C149.771 312.64 150.421 313.24 151.541 313.24C152.581 313.24 153.021 312.74 153.201 312.36H154.281C154.011 313.45 152.971 314.15 151.541 314.15C150.021 314.15 148.521 313.28 148.521 311.34C148.521 309.43 149.991 308.52 151.521 308.52ZM149.661 310.83H153.331C153.171 309.99 152.591 309.43 151.521 309.43C150.531 309.43 149.851 309.99 149.661 310.83ZM165.565 307H167.515V314H166.285V307.99L163.645 314H162.315L159.675 307.99V314H158.445V307H160.385L162.975 312.91L165.565 307ZM171.408 308.52C172.878 308.52 174.128 309.01 174.128 310.54V314H172.898V313.31C172.638 313.61 171.998 314.15 170.748 314.15C169.468 314.15 168.618 313.62 168.618 312.6C168.618 311.5 169.218 310.63 172.898 310.87V310.54C172.898 309.8 172.518 309.43 171.408 309.43C170.458 309.43 170.068 309.74 169.978 310.19H168.828C168.988 309.07 170.028 308.52 171.408 308.52ZM172.898 312.5V311.61C170.678 311.5 169.878 311.69 169.878 312.52C169.878 313.06 170.298 313.33 171.008 313.33C171.948 313.33 172.568 312.98 172.898 312.5ZM180.502 310.19C181.342 310.35 182.072 310.8 182.072 311.98C182.072 313.38 181.112 314.15 179.392 314.15C178.932 314.15 178.442 314.07 178.102 314V313.11C178.252 313.14 178.792 313.24 179.302 313.24C180.472 313.24 180.902 312.72 180.902 311.92C180.902 311.25 180.552 310.77 179.162 310.77H178.102V309.92H179.072C180.042 309.92 180.352 309.45 180.352 308.86C180.352 308.36 180.022 307.72 178.502 307.72C177.082 307.72 176.662 308.49 176.662 309.67V314H175.532V309.58C175.532 307.5 176.842 306.86 178.532 306.86C180.152 306.86 181.442 307.44 181.442 308.78C181.442 309.59 181.022 309.99 180.502 310.19ZM185.671 308.52C187.361 308.52 188.721 309.52 188.581 311.73H183.781C183.921 312.64 184.571 313.24 185.691 313.24C186.731 313.24 187.171 312.74 187.351 312.36H188.431C188.161 313.45 187.121 314.15 185.691 314.15C184.171 314.15 182.671 313.28 182.671 311.34C182.671 309.43 184.141 308.52 185.671 308.52ZM183.811 310.83H187.481C187.321 309.99 186.741 309.43 185.671 309.43C184.681 309.43 184.001 309.99 183.811 310.83ZM193.905 312.96H197.525V314H192.195V313.01L195.725 309.71H192.385V308.67H197.435V309.66L193.905 312.96ZM202.818 308.67H204.048V314H202.818V313.18C202.568 313.53 201.888 314.15 200.778 314.15C199.388 314.15 198.628 313.36 198.628 312.12V308.67H199.858V311.75C199.858 312.65 200.348 313.15 201.318 313.15C202.288 313.15 202.818 312.59 202.818 311.75V308.67ZM212.615 308.67H213.915L211.525 314H210.235L207.845 308.67H209.145L210.885 312.8L212.615 308.67ZM217.116 308.52C218.806 308.52 220.166 309.52 220.026 311.73H215.226C215.366 312.64 216.016 313.24 217.136 313.24C218.176 313.24 218.616 312.74 218.796 312.36H219.876C219.606 313.45 218.566 314.15 217.136 314.15C215.616 314.15 214.116 313.28 214.116 311.34C214.116 309.43 215.586 308.52 217.116 308.52ZM215.256 310.83H218.926C218.766 309.99 218.186 309.43 217.116 309.43C216.126 309.43 215.446 309.99 215.256 310.83ZM224.41 308.52C224.65 308.52 224.79 308.53 225 308.56V309.78H224.96C224.75 309.72 224.48 309.68 224.14 309.68C222.79 309.68 222.28 310.46 222.28 311.29V314H221.04V308.67H222.28V309.67C222.52 309.28 223.26 308.52 224.41 308.52ZM233.711 308.67H235.011L232.911 314H231.711L230.251 310.14L228.801 314H227.601L225.501 308.67H226.801L228.231 312.58L229.701 308.67H230.811L232.281 312.58L233.711 308.67ZM238.21 308.52C239.9 308.52 241.26 309.52 241.12 311.73H236.32C236.46 312.64 237.11 313.24 238.23 313.24C239.27 313.24 239.71 312.74 239.89 312.36H240.97C240.7 313.45 239.66 314.15 238.23 314.15C236.71 314.15 235.21 313.28 235.21 311.34C235.21 309.43 236.68 308.52 238.21 308.52ZM236.35 310.83H240.02C239.86 309.99 239.28 309.43 238.21 309.43C237.22 309.43 236.54 309.99 236.35 310.83ZM245.404 308.52C246.794 308.52 247.554 309.31 247.554 310.55V314H246.324V310.92C246.324 310.02 245.834 309.52 244.864 309.52C243.894 309.52 243.364 310.08 243.364 310.92V314H242.134V308.67H243.364V309.49C243.614 309.14 244.294 308.52 245.404 308.52ZM253.27 307H254.5V314H253.27V313.3C252.85 313.81 252.21 314.15 251.32 314.15C249.76 314.15 248.55 313.14 248.55 311.34C248.55 309.53 249.76 308.52 251.32 308.52C252.21 308.52 252.85 308.86 253.27 309.37V307ZM251.56 313.24C252.83 313.24 253.46 312.44 253.46 311.34C253.46 310.23 252.85 309.43 251.56 309.43C250.26 309.43 249.69 310.21 249.69 311.34C249.69 312.46 250.28 313.24 251.56 313.24ZM258.503 308.52C260.193 308.52 261.553 309.52 261.413 311.73H256.613C256.753 312.64 257.403 313.24 258.523 313.24C259.563 313.24 260.003 312.74 260.183 312.36H261.263C260.993 313.45 259.953 314.15 258.523 314.15C257.003 314.15 255.503 313.28 255.503 311.34C255.503 309.43 256.973 308.52 258.503 308.52ZM256.643 310.83H260.313C260.153 309.99 259.573 309.43 258.503 309.43C257.513 309.43 256.833 309.99 256.643 310.83ZM265.697 308.52C267.087 308.52 267.847 309.31 267.847 310.55V314H266.617V310.92C266.617 310.02 266.127 309.52 265.157 309.52C264.187 309.52 263.657 310.08 263.657 310.92V314H262.427V308.67H263.657V309.49C263.907 309.14 264.587 308.52 265.697 308.52Z" fill="white"/>
<path d="M248.543 219.56H221V184H228.241V213.244H248.543V219.56Z" fill="white"/>
<path d="M180 177H179V226H180V177Z" fill="white"/>
<path d="M185.043 226H174.228V227.007H185.043V226Z" fill="white"/>
<path d="M185.043 176.219H174.228V177.226H185.043V176.219Z" fill="white"/>
<path d="M190 177H208V227H190" stroke="white" stroke-miterlimit="10" stroke-dasharray="4 4"/>
<path d="M80.3669 147.947C76.6487 137.792 77.7641 125.041 80.5992 114.375C81.2964 111.454 82.133 108.533 82.8302 105.658C85.7118 94.6683 85.7583 80.4792 86.2231 68.284C86.6879 52.1937 86.8738 43.3835 86.9202 28.406C86.9202 27.6641 86.9203 26.8759 87.385 26.4122C87.7104 26.1803 88.0822 26.0412 88.547 26.0412C90.5455 25.9485 95.5651 26.0412 102.351 26.0412C119.269 26.1803 163.933 25.763 173.322 26.2267C174.205 26.6904 173.972 27.4787 173.972 28.9161C173.647 35.4542 172.299 52.101 171.927 58.3609C170.626 85.6263 161.191 125.504 156.962 144.098C155.335 150.405 154.824 157.267 155.707 163.991C156.264 168.906 156.962 179.849 156.543 183.466L154.777 213.421C154.405 219.542 154.08 225.663 153.987 231.784C153.755 243.144 150.687 275 123.08 275C89.4765 275 89.9413 235.076 89.2441 213.931C88.5469 192.74 82.0401 152.491 80.4134 147.947H80.3669Z" fill="#2D2D2D" stroke="white" stroke-width="2" stroke-miterlimit="10"/>
<path d="M153.262 226H88.6459C88.3248 226 88.0039 226.262 87.8204 226.698L85.2064 232.975C84.9312 233.586 84.9312 234.414 85.2064 235.025L87.9121 241.302C88.0955 241.738 88.4165 242 88.7375 242H153.354C153.675 242 153.996 241.738 154.18 241.302L156.794 235.025C157.069 234.414 157.069 233.586 156.794 232.975L154.088 226.698C153.904 226.262 153.583 226 153.262 226Z" fill="black"/>
<path d="M153.262 225.25C154.003 225.25 154.53 225.821 154.776 226.4L157.477 232.667L157.54 232.821C157.836 233.597 157.817 234.559 157.485 235.312L157.486 235.312L154.872 241.591L154.871 241.594C154.626 242.176 154.098 242.75 153.354 242.75H88.7368C87.9929 242.75 87.4651 242.176 87.2202 241.594V241.593L84.517 235.321L84.518 235.32C84.1598 234.516 84.1602 233.469 84.5219 232.667L87.1274 226.409L87.1284 226.406C87.3733 225.824 87.9012 225.25 88.645 225.25H153.262ZM88.6625 226.761C88.6256 226.792 88.5642 226.86 88.5112 226.985L88.5122 226.986L85.8979 233.264L85.894 233.273L85.8891 233.284C85.7026 233.698 85.7026 234.302 85.8891 234.716L85.895 234.728L88.6 241.006L88.603 241.012C88.6562 241.138 88.7172 241.208 88.7543 241.239C88.7606 241.244 88.7661 241.247 88.77 241.25H153.321C153.325 241.247 153.33 241.244 153.336 241.239C153.374 241.208 153.435 241.138 153.488 241.012L156.101 234.736L156.105 234.727L156.11 234.716C156.296 234.302 156.296 233.698 156.11 233.284L156.104 233.272L153.399 226.994L153.396 226.988C153.343 226.862 153.282 226.792 153.245 226.761C153.238 226.756 153.233 226.753 153.229 226.75H88.6782C88.6743 226.753 88.6688 226.756 88.6625 226.761Z" fill="white"/>
<path d="M157 233.25V234.75H85V233.25H157Z" fill="white"/>
<path d="M161.92 178.012C154.299 176.805 150.86 171.465 150.023 162.132C148.072 145.369 142.867 121.41 125.488 119.32C108.48 116.581 95.654 132.136 80.412 138.497C77.8562 139.705 74.5105 141.144 72.5123 142.119C70.8858 143.001 70.7929 143.605 71.2111 145.184C73.3023 151.684 75.2074 160.553 76.5086 168.679C78.4138 180.287 78.8786 191.756 79.6221 203.783C80.6909 223.052 82.0849 244.69 84.5014 254.859C87.2895 268.604 98.0241 277.844 109.874 279.887C128.462 283.23 149.466 280.212 156.483 254.441C159.736 242.322 159.782 229.971 160.618 217.434C160.944 212.048 161.316 206.429 161.641 200.997C162.291 190.921 162.803 183.584 162.988 180.287C163.035 179.219 162.988 178.291 161.92 178.059V178.012Z" fill="black" fill-opacity="0.5" stroke="white" stroke-width="2" stroke-miterlimit="10"/>
</svg>
