<svg width="285" height="332" viewBox="0 0 285 332" fill="none" xmlns="http://www.w3.org/2000/svg">
<rect width="285" height="332" rx="10" fill="#D9D9D9"/>
<path d="M79.0693 148.139C75.4596 138.274 76.5425 125.887 79.2949 115.527C79.9718 112.689 80.784 109.851 81.4608 107.058C84.2584 96.3825 84.3035 82.5987 84.7547 70.7519C85.2059 55.1212 85.3864 46.5627 85.4315 32.0131C85.4315 31.2924 85.4315 30.5266 85.8828 30.0762C86.1986 29.851 86.5596 29.7158 87.0108 29.7158C88.951 29.6257 93.8242 29.7158 100.412 29.7158C116.836 29.851 160.199 29.4456 169.313 29.896C170.171 30.3465 169.945 31.1122 169.945 32.5086C169.629 38.86 168.321 55.0311 167.96 61.1122C166.696 87.5987 157.536 126.337 153.43 144.401C151.851 150.527 151.355 157.193 152.212 163.725C152.753 168.5 153.43 179.13 153.024 182.644L151.31 211.743C150.949 217.689 150.633 223.635 150.543 229.581C150.317 240.617 147.339 271.563 120.536 271.563C87.9132 271.563 88.3645 232.779 87.6876 212.238C87.0108 191.653 80.6937 152.554 79.1145 148.139H79.0693Z" fill="#D3D3D5" stroke="#1D1D1B" stroke-width="2" stroke-miterlimit="10"/>
<path d="M245.118 217.689H218V182.689H225.129V211.473H245.118V217.689Z" fill="#050A0A"/>
<path d="M181.632 177.014H180.549V224.401H181.632V177.014Z" fill="black"/>
<path d="M186.414 224.039H175.766V224.76H186.414V224.039Z" fill="black"/>
<path d="M186.414 176.652H175.766V177.373H186.414V176.652Z" fill="black"/>
<path d="M191.475 176.5H206.475V224.5H191.976" stroke="black" stroke-miterlimit="9.99856" stroke-dasharray="4 4"/>
<path d="M150.724 223.41H87.1468C86.8309 223.41 86.5151 223.68 86.3346 224.131L83.7626 230.617C83.4919 231.248 83.4919 232.104 83.7626 232.734L86.4248 239.221C86.6053 239.671 86.9212 239.942 87.237 239.942H150.814C151.13 239.942 151.446 239.671 151.626 239.221L154.198 232.734C154.469 232.104 154.469 231.248 154.198 230.617L151.536 224.131C151.355 223.68 151.039 223.41 150.724 223.41Z" fill="white" stroke="#1D1D1B" stroke-miterlimit="10"/>
<path d="M84.4395 231.879H153.882" stroke="#020A0A" stroke-miterlimit="10"/>
<path d="M158.283 177.463C150.883 176.291 147.544 171.111 146.732 162.057C144.837 145.796 139.783 122.553 122.907 120.526C106.393 117.868 93.9392 132.958 79.1392 139.129C76.6574 140.3 73.4087 141.697 71.4684 142.643C69.8892 143.499 69.7989 144.084 70.205 145.616C72.2355 151.922 74.0855 160.526 75.3489 168.408C77.1989 179.67 77.6501 190.796 78.3721 202.463C79.4099 221.156 80.7635 242.147 83.1099 252.012C85.8172 265.345 96.2404 274.309 107.746 276.291C125.795 279.535 146.19 276.607 153.004 251.607C156.162 239.85 156.207 227.868 157.02 215.706C157.335 210.481 157.696 205.03 158.012 199.76C158.644 189.985 159.14 182.868 159.321 179.67C159.366 178.634 159.321 177.733 158.283 177.508H158.238L158.283 177.463Z" fill="white" fill-opacity="0.5" stroke="#020A0A" stroke-width="2" stroke-miterlimit="10"/>
<path d="M24.4828 304L23.8338 302.493H19.6098L18.9498 304H17.0688L20.6328 296.3H22.8108L26.3638 304H24.4828ZM20.2038 301.14H23.2398L21.7218 297.642L20.2038 301.14ZM30.3208 300.469C31.9708 300.755 33.0928 300.876 33.0928 302.229C33.0928 303.571 31.9488 304.165 29.8258 304.165C27.7578 304.165 26.4708 303.516 26.4708 302.196H28.2858C28.2858 302.779 28.9788 303.032 29.9358 303.032C30.8818 303.032 31.3768 302.856 31.3768 302.405C31.3768 301.877 30.6508 301.811 29.0888 301.547C27.5378 301.294 26.7018 300.964 26.7018 299.798C26.7018 298.621 27.7468 297.983 29.7268 297.983C31.7948 297.983 32.8288 298.753 32.8288 299.831H31.1458C31.1458 299.457 30.7168 299.083 29.7048 299.083C28.7918 299.083 28.2968 299.27 28.2968 299.721C28.2968 300.227 29.2758 300.282 30.3208 300.469ZM37.271 300.469C38.921 300.755 40.043 300.876 40.043 302.229C40.043 303.571 38.899 304.165 36.776 304.165C34.708 304.165 33.421 303.516 33.421 302.196H35.236C35.236 302.779 35.929 303.032 36.886 303.032C37.832 303.032 38.327 302.856 38.327 302.405C38.327 301.877 37.601 301.811 36.039 301.547C34.488 301.294 33.652 300.964 33.652 299.798C33.652 298.621 34.697 297.983 36.677 297.983C38.745 297.983 39.779 298.753 39.779 299.831H38.096C38.096 299.457 37.667 299.083 36.655 299.083C35.742 299.083 35.247 299.27 35.247 299.721C35.247 300.227 36.226 300.282 37.271 300.469ZM43.3082 304.165C41.8012 304.165 40.9212 303.34 40.9212 302.02V298.137H42.5932V301.602C42.5932 302.306 43.0002 302.911 44.0342 302.911C45.0682 302.911 45.5302 302.284 45.5302 301.602V298.137H47.2022V304H45.5302V303.175C45.2772 303.527 44.5622 304.165 43.3082 304.165ZM52.3877 297.994C52.7727 297.994 53.0587 298.027 53.2567 298.082V299.622H53.2017C52.9927 299.534 52.5967 299.435 52.0907 299.435C50.7047 299.435 50.1987 300.304 50.1987 301.217V304H48.5267V298.137H50.1987V299.215C50.4407 298.797 51.1337 297.994 52.3877 297.994ZM60.4067 301.503H55.2037C55.3357 302.306 55.8967 303.01 57.1177 303.01C58.0087 303.01 58.5807 302.614 58.8117 302.119H60.2857C59.9007 303.582 58.5697 304.165 57.1177 304.165C55.4457 304.165 53.6967 303.241 53.6967 301.074C53.6967 298.907 55.4237 297.983 57.1067 297.983C58.8117 297.983 60.5827 299.028 60.4067 301.503ZM57.1067 299.127C56.0617 299.127 55.4787 299.699 55.2587 300.403H58.8777C58.7017 299.699 58.2067 299.127 57.1067 299.127ZM63.3145 302.702H67.1535V304H60.9825V302.812L64.7115 299.446H61.1915V298.137H67.0545V299.325L63.3145 302.702ZM68.3594 300.326H72.0664V301.481H68.3594V300.326ZM78.0811 298.137H79.8191L77.1461 304H75.5071L72.8341 298.137H74.5721L76.3321 302.306L78.0811 298.137ZM83.4271 297.983C85.1431 297.983 86.9251 298.863 86.9251 301.074C86.9251 303.285 85.1431 304.165 83.4271 304.165C81.7221 304.165 79.9291 303.285 79.9291 301.074C79.9291 298.863 81.7221 297.983 83.4271 297.983ZM83.4271 303.01C84.8351 303.01 85.3631 302.097 85.3631 301.074C85.3631 300.04 84.8351 299.127 83.4271 299.127C82.0191 299.127 81.5021 300.04 81.5021 301.074C81.5021 302.097 82.0191 303.01 83.4271 303.01ZM90.3053 304.165C88.7983 304.165 87.9183 303.34 87.9183 302.02V298.137H89.5903V301.602C89.5903 302.306 89.9973 302.911 91.0313 302.911C92.0653 302.911 92.5273 302.284 92.5273 301.602V298.137H94.1993V304H92.5273V303.175C92.2743 303.527 91.5593 304.165 90.3053 304.165ZM98.8238 300.469C100.474 300.755 101.596 300.876 101.596 302.229C101.596 303.571 100.452 304.165 98.3288 304.165C96.2608 304.165 94.9738 303.516 94.9738 302.196H96.7888C96.7888 302.779 97.4818 303.032 98.4388 303.032C99.3848 303.032 99.8798 302.856 99.8798 302.405C99.8798 301.877 99.1538 301.811 97.5918 301.547C96.0408 301.294 95.2048 300.964 95.2048 299.798C95.2048 298.621 96.2498 297.983 98.2298 297.983C100.298 297.983 101.332 298.753 101.332 299.831H99.6488C99.6488 299.457 99.2198 299.083 98.2078 299.083C97.2948 299.083 96.7998 299.27 96.7998 299.721C96.7998 300.227 97.7788 300.282 98.8238 300.469ZM110.43 296.3H112.102V304H110.43V303.274C110.001 303.824 109.319 304.165 108.329 304.165C106.624 304.165 105.227 303.065 105.227 301.074C105.227 299.083 106.624 297.983 108.329 297.983C109.319 297.983 110.001 298.324 110.43 298.874V296.3ZM108.703 303.01C109.902 303.01 110.639 302.306 110.639 301.074C110.639 299.842 109.902 299.127 108.703 299.127C107.493 299.127 106.8 299.842 106.8 301.074C106.8 302.306 107.493 303.01 108.703 303.01ZM119.8 301.503H114.597C114.729 302.306 115.29 303.01 116.511 303.01C117.402 303.01 117.974 302.614 118.205 302.119H119.679C119.294 303.582 117.963 304.165 116.511 304.165C114.839 304.165 113.09 303.241 113.09 301.074C113.09 298.907 114.817 297.983 116.5 297.983C118.205 297.983 119.976 299.028 119.8 301.503ZM116.5 299.127C115.455 299.127 114.872 299.699 114.652 300.403H118.271C118.095 299.699 117.6 299.127 116.5 299.127ZM131.66 297.983C133.167 297.983 133.948 298.797 133.948 300.117V304H132.276V300.535C132.276 299.831 131.968 299.226 131.033 299.226C130.098 299.226 129.757 299.842 129.757 300.535V304H128.085V300.535C128.085 299.831 127.777 299.226 126.842 299.226C125.907 299.226 125.555 299.853 125.555 300.535V304H123.894V298.137H125.555V298.907C125.764 298.544 126.27 297.983 127.469 297.983C128.492 297.983 129.174 298.357 129.504 299.006C129.713 298.687 130.373 297.983 131.66 297.983ZM141.65 301.503H136.447C136.579 302.306 137.14 303.01 138.361 303.01C139.252 303.01 139.824 302.614 140.055 302.119H141.529C141.144 303.582 139.813 304.165 138.361 304.165C136.689 304.165 134.94 303.241 134.94 301.074C134.94 298.907 136.667 297.983 138.35 297.983C140.055 297.983 141.826 299.028 141.65 301.503ZM138.35 299.127C137.305 299.127 136.722 299.699 136.502 300.403H140.121C139.945 299.699 139.45 299.127 138.35 299.127ZM145.96 300.469C147.61 300.755 148.732 300.876 148.732 302.229C148.732 303.571 147.588 304.165 145.465 304.165C143.397 304.165 142.11 303.516 142.11 302.196H143.925C143.925 302.779 144.618 303.032 145.575 303.032C146.521 303.032 147.016 302.856 147.016 302.405C147.016 301.877 146.29 301.811 144.728 301.547C143.177 301.294 142.341 300.964 142.341 299.798C142.341 298.621 143.386 297.983 145.366 297.983C147.434 297.983 148.468 298.753 148.468 299.831H146.785C146.785 299.457 146.356 299.083 145.344 299.083C144.431 299.083 143.936 299.27 143.936 299.721C143.936 300.227 144.915 300.282 145.96 300.469ZM151.998 304.165C150.491 304.165 149.611 303.34 149.611 302.02V298.137H151.283V301.602C151.283 302.306 151.69 302.911 152.724 302.911C153.758 302.911 154.22 302.284 154.22 301.602V298.137H155.892V304H154.22V303.175C153.967 303.527 153.252 304.165 151.998 304.165ZM161.077 297.994C161.462 297.994 161.748 298.027 161.946 298.082V299.622H161.891C161.682 299.534 161.286 299.435 160.78 299.435C159.394 299.435 158.888 300.304 158.888 301.217V304H157.216V298.137H158.888V299.215C159.13 298.797 159.823 297.994 161.077 297.994ZM169.096 301.503H163.893C164.025 302.306 164.586 303.01 165.807 303.01C166.698 303.01 167.27 302.614 167.501 302.119H168.975C168.59 303.582 167.259 304.165 165.807 304.165C164.135 304.165 162.386 303.241 162.386 301.074C162.386 298.907 164.113 297.983 165.796 297.983C167.501 297.983 169.272 299.028 169.096 301.503ZM165.796 299.127C164.751 299.127 164.168 299.699 163.948 300.403H167.567C167.391 299.699 166.896 299.127 165.796 299.127ZM173.968 297.994C174.353 297.994 174.639 298.027 174.837 298.082V299.622H174.782C174.573 299.534 174.177 299.435 173.671 299.435C172.285 299.435 171.779 300.304 171.779 301.217V304H170.107V298.137H171.779V299.215C172.021 298.797 172.714 297.994 173.968 297.994ZM178.797 295.882H180.469V304H178.797V295.882ZM188.174 301.503H182.971C183.103 302.306 183.664 303.01 184.885 303.01C185.776 303.01 186.348 302.614 186.579 302.119H188.053C187.668 303.582 186.337 304.165 184.885 304.165C183.213 304.165 181.464 303.241 181.464 301.074C181.464 298.907 183.191 297.983 184.874 297.983C186.579 297.983 188.35 299.028 188.174 301.503ZM184.874 299.127C183.829 299.127 183.246 299.699 183.026 300.403H186.645C186.469 299.699 185.974 299.127 184.874 299.127ZM192.485 300.469C194.135 300.755 195.257 300.876 195.257 302.229C195.257 303.571 194.113 304.165 191.99 304.165C189.922 304.165 188.635 303.516 188.635 302.196H190.45C190.45 302.779 191.143 303.032 192.1 303.032C193.046 303.032 193.541 302.856 193.541 302.405C193.541 301.877 192.815 301.811 191.253 301.547C189.702 301.294 188.866 300.964 188.866 299.798C188.866 298.621 189.911 297.983 191.891 297.983C193.959 297.983 194.993 298.753 194.993 299.831H193.31C193.31 299.457 192.881 299.083 191.869 299.083C190.956 299.083 190.461 299.27 190.461 299.721C190.461 300.227 191.44 300.282 192.485 300.469ZM204.091 296.3H205.763V304H204.091V303.274C203.662 303.824 202.98 304.165 201.99 304.165C200.285 304.165 198.888 303.065 198.888 301.074C198.888 299.083 200.285 297.983 201.99 297.983C202.98 297.983 203.662 298.324 204.091 298.874V296.3ZM202.364 303.01C203.563 303.01 204.3 302.306 204.3 301.074C204.3 299.842 203.563 299.127 202.364 299.127C201.154 299.127 200.461 299.842 200.461 301.074C200.461 302.306 201.154 303.01 202.364 303.01ZM207.081 304V298.137H208.742V304H207.081ZM207.906 297.455C207.4 297.455 207.048 297.169 207.048 296.674C207.048 296.168 207.4 295.882 207.906 295.882C208.412 295.882 208.775 296.168 208.775 296.674C208.775 297.169 208.412 297.455 207.906 297.455ZM217.834 297.983C219.341 297.983 220.122 298.797 220.122 300.117V304H218.45V300.535C218.45 299.831 218.142 299.226 217.207 299.226C216.272 299.226 215.931 299.842 215.931 300.535V304H214.259V300.535C214.259 299.831 213.951 299.226 213.016 299.226C212.081 299.226 211.729 299.853 211.729 300.535V304H210.068V298.137H211.729V298.907C211.938 298.544 212.444 297.983 213.643 297.983C214.666 297.983 215.348 298.357 215.678 299.006C215.887 298.687 216.547 297.983 217.834 297.983ZM227.824 301.503H222.621C222.753 302.306 223.314 303.01 224.535 303.01C225.426 303.01 225.998 302.614 226.229 302.119H227.703C227.318 303.582 225.987 304.165 224.535 304.165C222.863 304.165 221.114 303.241 221.114 301.074C221.114 298.907 222.841 297.983 224.524 297.983C226.229 297.983 228 299.028 227.824 301.503ZM224.524 299.127C223.479 299.127 222.896 299.699 222.676 300.403H226.295C226.119 299.699 225.624 299.127 224.524 299.127ZM232.728 297.983C234.235 297.983 235.115 298.797 235.115 300.117V304H233.443V300.535C233.443 299.831 233.036 299.226 232.002 299.226C230.968 299.226 230.506 299.853 230.506 300.535V304H228.834V298.137H230.506V298.962C230.759 298.61 231.474 297.983 232.728 297.983ZM239.74 300.469C241.39 300.755 242.512 300.876 242.512 302.229C242.512 303.571 241.368 304.165 239.245 304.165C237.177 304.165 235.89 303.516 235.89 302.196H237.705C237.705 302.779 238.398 303.032 239.355 303.032C240.301 303.032 240.796 302.856 240.796 302.405C240.796 301.877 240.07 301.811 238.508 301.547C236.957 301.294 236.121 300.964 236.121 299.798C236.121 298.621 237.166 297.983 239.146 297.983C241.214 297.983 242.248 298.753 242.248 299.831H240.565C240.565 299.457 240.136 299.083 239.124 299.083C238.211 299.083 237.716 299.27 237.716 299.721C237.716 300.227 238.695 300.282 239.74 300.469ZM243.39 304V298.137H245.051V304H243.39ZM244.215 297.455C243.709 297.455 243.357 297.169 243.357 296.674C243.357 296.168 243.709 295.882 244.215 295.882C244.721 295.882 245.084 296.168 245.084 296.674C245.084 297.169 244.721 297.455 244.215 297.455ZM249.544 297.983C251.26 297.983 253.042 298.863 253.042 301.074C253.042 303.285 251.26 304.165 249.544 304.165C247.839 304.165 246.046 303.285 246.046 301.074C246.046 298.863 247.839 297.983 249.544 297.983ZM249.544 303.01C250.952 303.01 251.48 302.097 251.48 301.074C251.48 300.04 250.952 299.127 249.544 299.127C248.136 299.127 247.619 300.04 247.619 301.074C247.619 302.097 248.136 303.01 249.544 303.01ZM257.929 297.983C259.436 297.983 260.316 298.797 260.316 300.117V304H258.644V300.535C258.644 299.831 258.237 299.226 257.203 299.226C256.169 299.226 255.707 299.853 255.707 300.535V304H254.035V298.137H255.707V298.962C255.96 298.61 256.675 297.983 257.929 297.983ZM264.941 300.469C266.591 300.755 267.713 300.876 267.713 302.229C267.713 303.571 266.569 304.165 264.446 304.165C262.378 304.165 261.091 303.516 261.091 302.196H262.906C262.906 302.779 263.599 303.032 264.556 303.032C265.502 303.032 265.997 302.856 265.997 302.405C265.997 301.877 265.271 301.811 263.709 301.547C262.158 301.294 261.322 300.964 261.322 299.798C261.322 298.621 262.367 297.983 264.347 297.983C266.415 297.983 267.449 298.753 267.449 299.831H265.766C265.766 299.457 265.337 299.083 264.325 299.083C263.412 299.083 262.917 299.27 262.917 299.721C262.917 300.227 263.896 300.282 264.941 300.469ZM117.615 309.882H119.287V318H117.615V309.882ZM120.612 318V312.137H122.273V318H120.612ZM121.437 311.455C120.931 311.455 120.579 311.169 120.579 310.674C120.579 310.168 120.931 309.882 121.437 309.882C121.943 309.882 122.306 310.168 122.306 310.674C122.306 311.169 121.943 311.455 121.437 311.455ZM127.492 311.983C128.999 311.983 129.879 312.797 129.879 314.117V318H128.207V314.535C128.207 313.831 127.8 313.226 126.766 313.226C125.732 313.226 125.27 313.853 125.27 314.535V318H123.598V312.137H125.27V312.962C125.523 312.61 126.238 311.983 127.492 311.983ZM137.584 315.503H132.381C132.513 316.306 133.074 317.01 134.295 317.01C135.186 317.01 135.758 316.614 135.989 316.119H137.463C137.078 317.582 135.747 318.165 134.295 318.165C132.623 318.165 130.874 317.241 130.874 315.074C130.874 312.907 132.601 311.983 134.284 311.983C135.989 311.983 137.76 313.028 137.584 315.503ZM134.284 313.127C133.239 313.127 132.656 313.699 132.436 314.403H136.055C135.879 313.699 135.384 313.127 134.284 313.127ZM134.394 309.805H136.275L134.812 311.334H133.514L134.394 309.805ZM141.402 311.983C143.085 311.983 144.559 312.467 144.559 314.194V318H142.887V317.219C142.634 317.604 141.787 318.165 140.478 318.165C139.103 318.165 138.157 317.593 138.157 316.438C138.157 315.206 138.795 314.216 142.887 314.469V314.194C142.887 313.578 142.612 313.127 141.402 313.127C140.39 313.127 140.071 313.424 139.983 313.831H138.421C138.608 312.533 139.796 311.983 141.402 311.983ZM142.887 316.284V315.459C140.665 315.338 139.84 315.547 139.84 316.383C139.84 316.933 140.247 317.153 140.973 317.153C141.875 317.153 142.579 316.801 142.887 316.284ZM145.878 318V312.137H147.539V318H145.878ZM146.703 311.455C146.197 311.455 145.845 311.169 145.845 310.674C145.845 310.168 146.197 309.882 146.703 309.882C147.209 309.882 147.572 310.168 147.572 310.674C147.572 311.169 147.209 311.455 146.703 311.455ZM152.725 311.994C153.11 311.994 153.396 312.027 153.594 312.082V313.622H153.539C153.33 313.534 152.934 313.435 152.428 313.435C151.042 313.435 150.536 314.304 150.536 315.217V318H148.864V312.137H150.536V313.215C150.778 312.797 151.471 311.994 152.725 311.994ZM160.744 315.503H155.541C155.673 316.306 156.234 317.01 157.455 317.01C158.346 317.01 158.918 316.614 159.149 316.119H160.623C160.238 317.582 158.907 318.165 157.455 318.165C155.783 318.165 154.034 317.241 154.034 315.074C154.034 312.907 155.761 311.983 157.444 311.983C159.149 311.983 160.92 313.028 160.744 315.503ZM157.444 313.127C156.399 313.127 155.816 313.699 155.596 314.403H159.215C159.039 313.699 158.544 313.127 157.444 313.127ZM165.055 314.469C166.705 314.755 167.827 314.876 167.827 316.229C167.827 317.571 166.683 318.165 164.56 318.165C162.492 318.165 161.205 317.516 161.205 316.196H163.02C163.02 316.779 163.713 317.032 164.67 317.032C165.616 317.032 166.111 316.856 166.111 316.405C166.111 315.877 165.385 315.811 163.823 315.547C162.272 315.294 161.436 314.964 161.436 313.798C161.436 312.621 162.481 311.983 164.461 311.983C166.529 311.983 167.563 312.753 167.563 313.831H165.88C165.88 313.457 165.451 313.083 164.439 313.083C163.526 313.083 163.031 313.27 163.031 313.721C163.031 314.227 164.01 314.282 165.055 314.469Z" fill="black"/>
</svg>
