<svg width="285" height="332" viewBox="0 0 285 332" fill="none" xmlns="http://www.w3.org/2000/svg">
<rect width="285" height="332" rx="10" fill="black"/>
<path d="M28.7549 314L28.0449 312.44H24.0349L23.3349 314H22.0049L25.2449 307H26.8449L30.0849 314H28.7549ZM24.5049 311.4H27.5849L26.0449 307.97L24.5049 311.4ZM33.5911 310.88C35.1011 311.14 35.9511 311.34 35.9511 312.39C35.9511 313.63 34.9211 314.15 33.1411 314.15C31.5211 314.15 30.2811 313.59 30.2811 312.38H31.5511C31.5511 312.96 32.1211 313.22 33.2411 313.22C34.3311 313.22 34.7211 312.95 34.7211 312.55C34.7211 311.96 33.8311 311.95 32.4711 311.7C31.0911 311.44 30.4811 311.12 30.4811 310.17C30.4811 309.1 31.4811 308.52 33.0511 308.52C34.7611 308.52 35.6811 309.2 35.6811 310.19H34.5311C34.5311 309.85 34.1711 309.43 33.0311 309.43C31.9611 309.43 31.5911 309.7 31.5911 310.11C31.5911 310.65 32.6411 310.72 33.5911 310.88ZM39.5529 308.52C41.2429 308.52 42.6029 309.52 42.4629 311.73H37.6629C37.8029 312.64 38.4529 313.24 39.5729 313.24C40.6129 313.24 41.0529 312.74 41.2329 312.36H42.3129C42.0429 313.45 41.0029 314.15 39.5729 314.15C38.0529 314.15 36.5529 313.28 36.5529 311.34C36.5529 309.43 38.0229 308.52 39.5529 308.52ZM37.6929 310.83H41.3629C41.2029 309.99 40.6229 309.43 39.5529 309.43C38.5629 309.43 37.8829 309.99 37.6929 310.83ZM47.8064 308.67H49.0364V313.49C49.0364 315.55 47.4664 315.86 45.9364 315.86C44.2664 315.86 43.2664 315.27 43.1564 314.26H44.2964C44.3764 314.58 44.7764 314.93 45.9364 314.93C47.4264 314.93 47.8064 314.45 47.8064 313.49V312.9C47.4164 313.37 46.7864 313.67 45.8464 313.67C44.2964 313.67 43.0764 312.9 43.0764 311.15C43.0764 309.39 44.2964 308.52 45.8464 308.52C46.7864 308.52 47.4164 308.87 47.8064 309.39V308.67ZM46.0864 312.87C47.2364 312.87 47.9964 312.25 47.9964 311.15C47.9964 310.04 47.2564 309.43 46.0864 309.43C44.9264 309.43 44.2164 310.02 44.2164 311.15C44.2164 312.27 44.9364 312.87 46.0864 312.87ZM54.6293 308.67H55.8593V314H54.6293V313.18C54.3793 313.53 53.6993 314.15 52.5893 314.15C51.1993 314.15 50.4393 313.36 50.4393 312.12V308.67H51.6693V311.75C51.6693 312.65 52.1593 313.15 53.1293 313.15C54.0993 313.15 54.6293 312.59 54.6293 311.75V308.67ZM53.4693 306.65H54.7693L53.5293 307.94H52.7293L53.4693 306.65ZM60.6257 308.52C60.8657 308.52 61.0057 308.53 61.2157 308.56V309.78H61.1757C60.9657 309.72 60.6957 309.68 60.3557 309.68C59.0057 309.68 58.4957 310.46 58.4957 311.29V314H57.2557V308.67H58.4957V309.67C58.7357 309.28 59.4757 308.52 60.6257 308.52ZM64.4113 308.52C65.8813 308.52 67.1313 309.01 67.1313 310.54V314H65.9013V313.31C65.6413 313.61 65.0013 314.15 63.7513 314.15C62.4713 314.15 61.6213 313.62 61.6213 312.6C61.6213 311.5 62.2213 310.63 65.9013 310.87V310.54C65.9013 309.8 65.5213 309.43 64.4113 309.43C63.4613 309.43 63.0713 309.74 62.9813 310.19H61.8313C61.9913 309.07 63.0313 308.52 64.4113 308.52ZM65.9013 312.5V311.61C63.6813 311.5 62.8813 311.69 62.8813 312.52C62.8813 313.06 63.3013 313.33 64.0113 313.33C64.9513 313.33 65.5713 312.98 65.9013 312.5ZM71.8196 309.61H70.2096V312.01C70.2096 312.91 70.5696 313.16 71.8196 313.03V313.99C71.6396 314.04 71.3696 314.08 71.1196 314.08C69.4996 314.08 68.9796 313.42 68.9796 312.01V309.61H67.9396V308.67H68.9796V307.29H70.2096V308.67H71.8196V309.61ZM75.5197 308.52C77.2097 308.52 78.5697 309.52 78.4297 311.73H73.6297C73.7697 312.64 74.4197 313.24 75.5397 313.24C76.5797 313.24 77.0197 312.74 77.1997 312.36H78.2797C78.0097 313.45 76.9697 314.15 75.5397 314.15C74.0197 314.15 72.5197 313.28 72.5197 311.34C72.5197 309.43 73.9897 308.52 75.5197 308.52ZM73.6597 310.83H77.3297C77.1697 309.99 76.5897 309.43 75.5197 309.43C74.5297 309.43 73.8497 309.99 73.6597 310.83ZM86.6636 307H87.8936V314H86.6636V313.3C86.2436 313.81 85.6036 314.15 84.7136 314.15C83.1536 314.15 81.9436 313.14 81.9436 311.34C81.9436 309.53 83.1536 308.52 84.7136 308.52C85.6036 308.52 86.2436 308.86 86.6636 309.37V307ZM84.9536 313.24C86.2236 313.24 86.8536 312.44 86.8536 311.34C86.8536 310.23 86.2436 309.43 84.9536 309.43C83.6536 309.43 83.0836 310.21 83.0836 311.34C83.0836 312.46 83.6736 313.24 84.9536 313.24ZM91.8967 308.52C93.5867 308.52 94.9467 309.52 94.8067 311.73H90.0067C90.1467 312.64 90.7967 313.24 91.9167 313.24C92.9567 313.24 93.3967 312.74 93.5767 312.36H94.6567C94.3867 313.45 93.3467 314.15 91.9167 314.15C90.3967 314.15 88.8967 313.28 88.8967 311.34C88.8967 309.43 90.3667 308.52 91.8967 308.52ZM90.0367 310.83H93.7067C93.5467 309.99 92.9667 309.43 91.8967 309.43C90.9067 309.43 90.2267 309.99 90.0367 310.83ZM105.521 308.52C106.911 308.52 107.581 309.31 107.581 310.55V314H106.341V310.92C106.341 310.02 106.011 309.52 105.071 309.52C104.141 309.52 103.761 310.12 103.761 310.92V314H102.531V310.92C102.531 310.02 102.191 309.52 101.261 309.52C100.331 309.52 99.9505 310.12 99.9505 310.92V314H98.7205V308.67H99.9505V309.45C100.151 309.1 100.661 308.52 101.701 308.52C102.621 308.52 103.221 308.86 103.521 309.45C103.791 309.09 104.451 308.52 105.521 308.52ZM111.584 308.52C113.274 308.52 114.634 309.52 114.494 311.73H109.694C109.834 312.64 110.484 313.24 111.604 313.24C112.644 313.24 113.084 312.74 113.264 312.36H114.344C114.074 313.45 113.034 314.15 111.604 314.15C110.084 314.15 108.584 313.28 108.584 311.34C108.584 309.43 110.054 308.52 111.584 308.52ZM109.724 310.83H113.394C113.234 309.99 112.654 309.43 111.584 309.43C110.594 309.43 109.914 309.99 109.724 310.83ZM119.828 307H121.058V314H119.828V313.3C119.408 313.81 118.768 314.15 117.878 314.15C116.318 314.15 115.108 313.14 115.108 311.34C115.108 309.53 116.318 308.52 117.878 308.52C118.768 308.52 119.408 308.86 119.828 309.37V307ZM118.118 313.24C119.388 313.24 120.018 312.44 120.018 311.34C120.018 310.23 119.408 309.43 118.118 309.43C116.818 309.43 116.248 310.21 116.248 311.34C116.248 312.46 116.838 313.24 118.118 313.24ZM122.461 314V308.67H123.691V314H122.461ZM123.071 307.93C122.691 307.93 122.421 307.71 122.421 307.33C122.421 306.95 122.691 306.73 123.071 306.73C123.461 306.73 123.731 306.95 123.731 307.33C123.731 307.71 123.461 307.93 123.071 307.93ZM128.458 308.52C128.698 308.52 128.838 308.53 129.048 308.56V309.78H129.008C128.798 309.72 128.528 309.68 128.188 309.68C126.838 309.68 126.328 310.46 126.328 311.29V314H125.088V308.67H126.328V309.67C126.568 309.28 127.308 308.52 128.458 308.52ZM132.949 306.62H134.179V314H132.949V306.62ZM137.966 308.52C139.436 308.52 140.686 309.01 140.686 310.54V314H139.456V313.31C139.196 313.61 138.556 314.15 137.306 314.15C136.026 314.15 135.176 313.62 135.176 312.6C135.176 311.5 135.776 310.63 139.456 310.87V310.54C139.456 309.8 139.076 309.43 137.966 309.43C137.016 309.43 136.626 309.74 136.536 310.19H135.386C135.546 309.07 136.586 308.52 137.966 308.52ZM139.456 312.5V311.61C137.236 311.5 136.436 311.69 136.436 312.52C136.436 313.06 136.856 313.33 137.566 313.33C138.506 313.33 139.126 312.98 139.456 312.5ZM144.9 310.88C146.41 311.14 147.26 311.34 147.26 312.39C147.26 313.63 146.23 314.15 144.45 314.15C142.83 314.15 141.59 313.59 141.59 312.38H142.86C142.86 312.96 143.43 313.22 144.55 313.22C145.64 313.22 146.03 312.95 146.03 312.55C146.03 311.96 145.14 311.95 143.78 311.7C142.4 311.44 141.79 311.12 141.79 310.17C141.79 309.1 142.79 308.52 144.36 308.52C146.07 308.52 146.99 309.2 146.99 310.19H145.84C145.84 309.85 145.48 309.43 144.34 309.43C143.27 309.43 142.9 309.7 142.9 310.11C142.9 310.65 143.95 310.72 144.9 310.88ZM155.482 307H156.712V314H155.482V313.3C155.062 313.81 154.422 314.15 153.532 314.15C151.972 314.15 150.762 313.14 150.762 311.34C150.762 309.53 151.972 308.52 153.532 308.52C154.422 308.52 155.062 308.86 155.482 309.37V307ZM153.772 313.24C155.042 313.24 155.672 312.44 155.672 311.34C155.672 310.23 155.062 309.43 153.772 309.43C152.472 309.43 151.902 310.21 151.902 311.34C151.902 312.46 152.492 313.24 153.772 313.24ZM158.115 314V308.67H159.345V314H158.115ZM158.725 307.93C158.345 307.93 158.075 307.71 158.075 307.33C158.075 306.95 158.345 306.73 158.725 306.73C159.115 306.73 159.385 306.95 159.385 307.33C159.385 307.71 159.115 307.93 158.725 307.93ZM167.542 308.52C168.932 308.52 169.602 309.31 169.602 310.55V314H168.362V310.92C168.362 310.02 168.032 309.52 167.092 309.52C166.162 309.52 165.782 310.12 165.782 310.92V314H164.552V310.92C164.552 310.02 164.212 309.52 163.282 309.52C162.352 309.52 161.972 310.12 161.972 310.92V314H160.742V308.67H161.972V309.45C162.172 309.1 162.682 308.52 163.722 308.52C164.642 308.52 165.242 308.86 165.542 309.45C165.812 309.09 166.472 308.52 167.542 308.52ZM173.606 308.52C175.296 308.52 176.656 309.52 176.516 311.73H171.716C171.856 312.64 172.506 313.24 173.626 313.24C174.666 313.24 175.106 312.74 175.286 312.36H176.366C176.096 313.45 175.056 314.15 173.626 314.15C172.106 314.15 170.606 313.28 170.606 311.34C170.606 309.43 172.076 308.52 173.606 308.52ZM171.746 310.83H175.416C175.256 309.99 174.676 309.43 173.606 309.43C172.616 309.43 171.936 309.99 171.746 310.83ZM180.799 308.52C182.189 308.52 182.949 309.31 182.949 310.55V314H181.719V310.92C181.719 310.02 181.229 309.52 180.259 309.52C179.289 309.52 178.759 310.08 178.759 310.92V314H177.529V308.67H178.759V309.49C179.009 309.14 179.689 308.52 180.799 308.52ZM187.156 310.88C188.666 311.14 189.516 311.34 189.516 312.39C189.516 313.63 188.486 314.15 186.706 314.15C185.086 314.15 183.846 313.59 183.846 312.38H185.116C185.116 312.96 185.686 313.22 186.806 313.22C187.896 313.22 188.286 312.95 188.286 312.55C188.286 311.96 187.396 311.95 186.036 311.7C184.656 311.44 184.046 311.12 184.046 310.17C184.046 309.1 185.046 308.52 186.616 308.52C188.326 308.52 189.246 309.2 189.246 310.19H188.096C188.096 309.85 187.736 309.43 186.596 309.43C185.526 309.43 185.156 309.7 185.156 310.11C185.156 310.65 186.206 310.72 187.156 310.88ZM190.517 314V308.67H191.747V314H190.517ZM191.127 307.93C190.747 307.93 190.477 307.71 190.477 307.33C190.477 306.95 190.747 306.73 191.127 306.73C191.517 306.73 191.787 306.95 191.787 307.33C191.787 307.71 191.517 307.93 191.127 307.93ZM195.794 308.52C197.354 308.52 198.854 309.37 198.854 311.34C198.854 313.31 197.354 314.15 195.794 314.15C194.234 314.15 192.744 313.31 192.744 311.34C192.744 309.37 194.234 308.52 195.794 308.52ZM195.794 313.24C197.224 313.24 197.714 312.27 197.714 311.34C197.714 310.4 197.224 309.43 195.794 309.43C194.364 309.43 193.874 310.4 193.874 311.34C193.874 312.27 194.364 313.24 195.794 313.24ZM203.123 308.52C204.513 308.52 205.273 309.31 205.273 310.55V314H204.043V310.92C204.043 310.02 203.553 309.52 202.583 309.52C201.613 309.52 201.083 310.08 201.083 310.92V314H199.853V308.67H201.083V309.49C201.333 309.14 202.013 308.52 203.123 308.52ZM209.27 308.52C210.96 308.52 212.32 309.52 212.18 311.73H207.38C207.52 312.64 208.17 313.24 209.29 313.24C210.33 313.24 210.77 312.74 210.95 312.36H212.03C211.76 313.45 210.72 314.15 209.29 314.15C207.77 314.15 206.27 313.28 206.27 311.34C206.27 309.43 207.74 308.52 209.27 308.52ZM207.41 310.83H211.08C210.92 309.99 210.34 309.43 209.27 309.43C208.28 309.43 207.6 309.99 207.41 310.83ZM216.003 310.88C217.513 311.14 218.363 311.34 218.363 312.39C218.363 313.63 217.333 314.15 215.553 314.15C213.933 314.15 212.693 313.59 212.693 312.38H213.963C213.963 312.96 214.533 313.22 215.653 313.22C216.743 313.22 217.133 312.95 217.133 312.55C217.133 311.96 216.243 311.95 214.883 311.7C213.503 311.44 212.893 311.12 212.893 310.17C212.893 309.1 213.893 308.52 215.463 308.52C217.173 308.52 218.093 309.2 218.093 310.19H216.943C216.943 309.85 216.583 309.43 215.443 309.43C214.373 309.43 214.003 309.7 214.003 310.11C214.003 310.65 215.053 310.72 216.003 310.88ZM222.265 306.62H223.495V314H222.265V306.62ZM224.892 314V308.67H226.122V314H224.892ZM225.502 307.93C225.122 307.93 224.852 307.71 224.852 307.33C224.852 306.95 225.122 306.73 225.502 306.73C225.892 306.73 226.162 306.95 226.162 307.33C226.162 307.71 225.892 307.93 225.502 307.93ZM230.789 308.52C232.179 308.52 232.939 309.31 232.939 310.55V314H231.709V310.92C231.709 310.02 231.219 309.52 230.249 309.52C229.279 309.52 228.749 310.08 228.749 310.92V314H227.519V308.67H228.749V309.49C228.999 309.14 229.679 308.52 230.789 308.52ZM236.936 308.52C238.626 308.52 239.986 309.52 239.846 311.73H235.046C235.186 312.64 235.836 313.24 236.956 313.24C237.996 313.24 238.436 312.74 238.616 312.36H239.696C239.426 313.45 238.386 314.15 236.956 314.15C235.436 314.15 233.936 313.28 233.936 311.34C233.936 309.43 235.406 308.52 236.936 308.52ZM235.076 310.83H238.746C238.586 309.99 238.006 309.43 236.936 309.43C235.946 309.43 235.266 309.99 235.076 310.83ZM243.249 308.52C244.719 308.52 245.969 309.01 245.969 310.54V314H244.739V313.31C244.479 313.61 243.839 314.15 242.589 314.15C241.309 314.15 240.459 313.62 240.459 312.6C240.459 311.5 241.059 310.63 244.739 310.87V310.54C244.739 309.8 244.359 309.43 243.249 309.43C242.299 309.43 241.909 309.74 241.819 310.19H240.669C240.829 309.07 241.869 308.52 243.249 308.52ZM244.739 312.5V311.61C242.519 311.5 241.719 311.69 241.719 312.52C241.719 313.06 242.139 313.33 242.849 313.33C243.789 313.33 244.409 312.98 244.739 312.5ZM247.373 306.62H248.603V314H247.373V306.62ZM252.6 308.52C254.29 308.52 255.65 309.52 255.51 311.73H250.71C250.85 312.64 251.5 313.24 252.62 313.24C253.66 313.24 254.1 312.74 254.28 312.36H255.36C255.09 313.45 254.05 314.15 252.62 314.15C251.1 314.15 249.6 313.28 249.6 311.34C249.6 309.43 251.07 308.52 252.6 308.52ZM250.74 310.83H254.41C254.25 309.99 253.67 309.43 252.6 309.43C251.61 309.43 250.93 309.99 250.74 310.83ZM259.333 310.88C260.843 311.14 261.693 311.34 261.693 312.39C261.693 313.63 260.663 314.15 258.883 314.15C257.263 314.15 256.023 313.59 256.023 312.38H257.293C257.293 312.96 257.863 313.22 258.983 313.22C260.073 313.22 260.463 312.95 260.463 312.55C260.463 311.96 259.573 311.95 258.213 311.7C256.833 311.44 256.223 311.12 256.223 310.17C256.223 309.1 257.223 308.52 258.793 308.52C260.503 308.52 261.423 309.2 261.423 310.19H260.273C260.273 309.85 259.913 309.43 258.773 309.43C257.703 309.43 257.333 309.7 257.333 310.11C257.333 310.65 258.383 310.72 259.333 310.88Z" fill="white"/>
<path d="M248.543 219.56H221V184H228.241V213.244H248.543V219.56Z" fill="white"/>
<path d="M180 177H179V226H180V177Z" fill="white"/>
<path d="M185.043 226H174.228V227.007H185.043V226Z" fill="white"/>
<path d="M185.043 176.219H174.228V177.226H185.043V176.219Z" fill="white"/>
<path d="M190 177H208V227H190" stroke="white" stroke-miterlimit="10" stroke-dasharray="4 4"/>
<path d="M80.3669 147.947C76.6487 137.792 77.7641 125.041 80.5992 114.375C81.2964 111.454 82.133 108.533 82.8302 105.658C85.7118 94.6683 85.7583 80.4792 86.2231 68.284C86.6879 52.1937 86.8738 43.3835 86.9202 28.406C86.9202 27.6641 86.9203 26.8759 87.385 26.4122C87.7104 26.1803 88.0822 26.0412 88.547 26.0412C90.5455 25.9485 95.5651 26.0412 102.351 26.0412C119.269 26.1803 163.933 25.763 173.322 26.2267C174.205 26.6904 173.972 27.4787 173.972 28.9161C173.647 35.4542 172.299 52.101 171.927 58.3609C170.626 85.6263 161.191 125.504 156.962 144.098C155.335 150.405 154.824 157.267 155.707 163.991C156.264 168.906 156.962 179.849 156.543 183.466L154.777 213.421C154.405 219.542 154.08 225.663 153.987 231.784C153.755 243.144 150.687 275 123.08 275C89.4765 275 89.9413 235.076 89.2441 213.931C88.5469 192.74 82.0401 152.491 80.4134 147.947H80.3669Z" fill="#2D2D2D" stroke="white" stroke-width="2" stroke-miterlimit="10"/>
<path d="M153.262 226H88.6459C88.3248 226 88.0039 226.262 87.8204 226.698L85.2064 232.975C84.9312 233.586 84.9312 234.414 85.2064 235.025L87.9121 241.302C88.0955 241.738 88.4165 242 88.7375 242H153.354C153.675 242 153.996 241.738 154.18 241.302L156.794 235.025C157.069 234.414 157.069 233.586 156.794 232.975L154.088 226.698C153.904 226.262 153.583 226 153.262 226Z" fill="black"/>
<path d="M153.262 225.25C154.003 225.25 154.53 225.821 154.776 226.4L157.477 232.667L157.54 232.821C157.836 233.597 157.817 234.559 157.485 235.312L157.486 235.312L154.872 241.591L154.871 241.594C154.626 242.176 154.098 242.75 153.354 242.75H88.7368C87.9929 242.75 87.4651 242.176 87.2202 241.594V241.593L84.517 235.321L84.518 235.32C84.1598 234.516 84.1602 233.469 84.5219 232.667L87.1274 226.409L87.1284 226.406C87.3733 225.824 87.9012 225.25 88.645 225.25H153.262ZM88.6625 226.761C88.6256 226.792 88.5642 226.86 88.5112 226.985L88.5122 226.986L85.8979 233.264L85.894 233.273L85.8891 233.284C85.7026 233.698 85.7026 234.302 85.8891 234.716L85.895 234.728L88.6 241.006L88.603 241.012C88.6562 241.138 88.7172 241.208 88.7543 241.239C88.7606 241.244 88.7661 241.247 88.77 241.25H153.321C153.325 241.247 153.33 241.244 153.336 241.239C153.374 241.208 153.435 241.138 153.488 241.012L156.101 234.736L156.105 234.727L156.11 234.716C156.296 234.302 156.296 233.698 156.11 233.284L156.104 233.272L153.399 226.994L153.396 226.988C153.343 226.862 153.282 226.792 153.245 226.761C153.238 226.756 153.233 226.753 153.229 226.75H88.6782C88.6743 226.753 88.6688 226.756 88.6625 226.761Z" fill="white"/>
<path d="M157 233.25V234.75H85V233.25H157Z" fill="white"/>
<path d="M161.92 178.012C154.299 176.805 150.86 171.465 150.023 162.132C148.072 145.369 142.867 121.41 125.488 119.32C108.48 116.581 95.654 132.136 80.412 138.497C77.8562 139.705 74.5105 141.144 72.5123 142.119C70.8858 143.001 70.7929 143.605 71.2111 145.184C73.3023 151.684 75.2074 160.553 76.5086 168.679C78.4138 180.287 78.8786 191.756 79.6221 203.783C80.6909 223.052 82.0849 244.69 84.5014 254.859C87.2895 268.604 98.0241 277.844 109.874 279.887C128.462 283.23 149.466 280.212 156.483 254.441C159.736 242.322 159.782 229.971 160.618 217.434C160.944 212.048 161.316 206.429 161.641 200.997C162.291 190.921 162.803 183.584 162.988 180.287C163.035 179.219 162.988 178.291 161.92 178.059V178.012Z" fill="black" fill-opacity="0.5" stroke="white" stroke-width="2" stroke-miterlimit="10"/>
</svg>
