<svg width="285" height="332" viewBox="0 0 285 332" fill="none" xmlns="http://www.w3.org/2000/svg">
<rect width="285" height="332" rx="10" fill="#D9D9D9"/>
<path d="M79.0693 148.139C75.4596 138.274 76.5425 125.887 79.2949 115.527C79.9718 112.689 80.784 109.851 81.4608 107.058C84.2584 96.3825 84.3035 82.5987 84.7547 70.7519C85.2059 55.1212 85.3864 46.5627 85.4315 32.0131C85.4315 31.2924 85.4315 30.5266 85.8828 30.0762C86.1986 29.851 86.5596 29.7158 87.0108 29.7158C88.951 29.6257 93.8242 29.7158 100.412 29.7158C116.836 29.851 160.199 29.4456 169.313 29.896C170.171 30.3465 169.945 31.1122 169.945 32.5086C169.629 38.86 168.321 55.0311 167.96 61.1122C166.696 87.5987 157.536 126.337 153.43 144.401C151.851 150.527 151.355 157.193 152.212 163.725C152.753 168.5 153.43 179.13 153.024 182.644L151.31 211.743C150.949 217.689 150.633 223.635 150.543 229.581C150.317 240.617 147.339 271.563 120.536 271.563C87.9132 271.563 88.3645 232.779 87.6876 212.238C87.0108 191.653 80.6937 152.554 79.1145 148.139H79.0693Z" fill="#D3D3D5" stroke="#1D1D1B" stroke-width="2" stroke-miterlimit="10"/>
<path d="M245.118 217.689H218V182.689H225.129V211.473H245.118V217.689Z" fill="#050A0A"/>
<path d="M181.632 177.014H180.549V224.401H181.632V177.014Z" fill="black"/>
<path d="M186.414 224.039H175.766V224.76H186.414V224.039Z" fill="black"/>
<path d="M186.414 176.652H175.766V177.373H186.414V176.652Z" fill="black"/>
<path d="M191.475 176.5H206.475V224.5H191.976" stroke="black" stroke-miterlimit="9.99856" stroke-dasharray="4 4"/>
<path d="M150.724 223.41H87.1468C86.8309 223.41 86.5151 223.68 86.3346 224.131L83.7626 230.617C83.4919 231.248 83.4919 232.104 83.7626 232.734L86.4248 239.221C86.6053 239.671 86.9212 239.942 87.237 239.942H150.814C151.13 239.942 151.446 239.671 151.626 239.221L154.198 232.734C154.469 232.104 154.469 231.248 154.198 230.617L151.536 224.131C151.355 223.68 151.039 223.41 150.724 223.41Z" fill="white" stroke="#1D1D1B" stroke-miterlimit="10"/>
<path d="M84.4395 231.879H153.882" stroke="#020A0A" stroke-miterlimit="10"/>
<path d="M158.283 177.463C150.883 176.291 147.544 171.111 146.732 162.057C144.837 145.796 139.783 122.553 122.907 120.526C106.393 117.868 93.9392 132.958 79.1392 139.129C76.6574 140.3 73.4087 141.697 71.4684 142.643C69.8892 143.499 69.7989 144.084 70.205 145.616C72.2355 151.922 74.0855 160.526 75.3489 168.408C77.1989 179.67 77.6501 190.796 78.3721 202.463C79.4099 221.156 80.7635 242.147 83.1099 252.012C85.8172 265.345 96.2404 274.309 107.746 276.291C125.795 279.535 146.19 276.607 153.004 251.607C156.162 239.85 156.207 227.868 157.02 215.706C157.335 210.481 157.696 205.03 158.012 199.76C158.644 189.985 159.14 182.868 159.321 179.67C159.366 178.634 159.321 177.733 158.283 177.508H158.238L158.283 177.463Z" fill="white" fill-opacity="0.5" stroke="#020A0A" stroke-width="2" stroke-miterlimit="10"/>
<path d="M42.9804 303L42.3314 301.493H38.1074L37.4474 303H35.5664L39.1304 295.3H41.3084L44.8614 303H42.9804ZM38.7014 300.14H41.7374L40.2194 296.642L38.7014 300.14ZM48.4936 302.01C49.5936 302.01 50.1326 301.449 50.3306 300.712H51.8266C51.5186 302.472 50.0336 303.165 48.4936 303.165C46.7776 303.165 44.9736 302.34 44.9736 300.074C44.9736 297.808 46.7776 296.983 48.4936 296.983C50.0336 296.983 51.5186 297.676 51.8266 299.436H50.3306C50.1326 298.688 49.5936 298.127 48.4936 298.127C47.0856 298.127 46.5466 299.04 46.5466 300.074C46.5466 301.097 47.0856 302.01 48.4936 302.01ZM56.7063 296.983C58.2133 296.983 59.0933 297.797 59.0933 299.117V303H57.4323V299.535C57.4323 298.831 57.0143 298.226 55.9803 298.226C54.9463 298.226 54.4843 298.853 54.4843 299.535V303H52.8123V295.3H54.4843V297.962C54.7483 297.61 55.4633 296.983 56.7063 296.983ZM64.24 298.281H62.524V300.745C62.524 301.702 62.876 301.889 64.24 301.746V303C64.02 303.033 63.756 303.088 63.371 303.088C61.259 303.088 60.852 302.175 60.852 300.712V298.281H59.763V297.137H60.852V295.619H62.524V297.137H64.24V298.281ZM71.6103 300.503H66.4073C66.5393 301.306 67.1003 302.01 68.3213 302.01C69.2123 302.01 69.7843 301.614 70.0153 301.119H71.4893C71.1043 302.582 69.7733 303.165 68.3213 303.165C66.6493 303.165 64.9003 302.241 64.9003 300.074C64.9003 297.907 66.6273 296.983 68.3103 296.983C70.0153 296.983 71.7863 298.028 71.6103 300.503ZM68.3103 298.127C67.2653 298.127 66.6823 298.699 66.4623 299.403H70.0813C69.9053 298.699 69.4103 298.127 68.3103 298.127ZM76.5149 296.983C78.0219 296.983 78.9019 297.797 78.9019 299.117V303H77.2299V299.535C77.2299 298.831 76.8229 298.226 75.7889 298.226C74.7549 298.226 74.2929 298.853 74.2929 299.535V303H72.6209V297.137H74.2929V297.962C74.5459 297.61 75.2609 296.983 76.5149 296.983ZM87.4454 298.413C89.5684 298.71 91.0424 298.886 91.0424 300.602C91.0424 302.274 89.6674 303.165 86.9284 303.165C84.2664 303.165 82.8694 302.164 82.8694 300.602H84.7174C84.7614 301.405 85.6854 301.812 87.0824 301.812C88.5454 301.812 89.1614 301.427 89.1614 300.844C89.1614 300.052 87.9734 300.129 85.8724 299.777C83.7714 299.425 83.1114 298.787 83.1114 297.577C83.1114 296.312 83.9694 295.146 86.7964 295.146C89.5134 295.146 90.5694 296.18 90.6134 297.544H88.8974C88.8314 296.994 88.1934 296.499 86.7744 296.499C85.1904 296.499 84.8164 296.928 84.8164 297.456C84.8164 298.182 86.0924 298.226 87.4454 298.413ZM92.0321 303V297.137H93.6931V303H92.0321ZM92.8571 296.455C92.3511 296.455 91.9991 296.169 91.9991 295.674C91.9991 295.168 92.3511 294.882 92.8571 294.882C93.3631 294.882 93.7261 295.168 93.7261 295.674C93.7261 296.169 93.3631 296.455 92.8571 296.455ZM101.398 300.503H96.1954C96.3274 301.306 96.8884 302.01 98.1094 302.01C99.0004 302.01 99.5724 301.614 99.8034 301.119H101.277C100.892 302.582 99.5614 303.165 98.1094 303.165C96.4374 303.165 94.6884 302.241 94.6884 300.074C94.6884 297.907 96.4154 296.983 98.0984 296.983C99.8034 296.983 101.574 298.028 101.398 300.503ZM98.0984 298.127C97.0534 298.127 96.4704 298.699 96.2504 299.403H99.8694C99.6934 298.699 99.1984 298.127 98.0984 298.127ZM110.365 295.3H112.037V303H110.365V302.274C109.936 302.824 109.254 303.165 108.264 303.165C106.559 303.165 105.162 302.065 105.162 300.074C105.162 298.083 106.559 296.983 108.264 296.983C109.254 296.983 109.936 297.324 110.365 297.874V295.3ZM108.638 302.01C109.837 302.01 110.574 301.306 110.574 300.074C110.574 298.842 109.837 298.127 108.638 298.127C107.428 298.127 106.735 298.842 106.735 300.074C106.735 301.306 107.428 302.01 108.638 302.01ZM116.27 296.983C117.953 296.983 119.427 297.467 119.427 299.194V303H117.755V302.219C117.502 302.604 116.655 303.165 115.346 303.165C113.971 303.165 113.025 302.593 113.025 301.438C113.025 300.206 113.663 299.216 117.755 299.469V299.194C117.755 298.578 117.48 298.127 116.27 298.127C115.258 298.127 114.939 298.424 114.851 298.831H113.289C113.476 297.533 114.664 296.983 116.27 296.983ZM117.755 301.284V300.459C115.533 300.338 114.708 300.547 114.708 301.383C114.708 301.933 115.115 302.153 115.841 302.153C116.743 302.153 117.447 301.801 117.755 301.284ZM124.607 296.994C124.992 296.994 125.278 297.027 125.476 297.082V298.622H125.421C125.212 298.534 124.816 298.435 124.31 298.435C122.924 298.435 122.418 299.304 122.418 300.217V303H120.746V297.137H122.418V298.215C122.66 297.797 123.353 296.994 124.607 296.994ZM129.054 296.983C130.737 296.983 132.211 297.467 132.211 299.194V303H130.539V302.219C130.286 302.604 129.439 303.165 128.13 303.165C126.755 303.165 125.809 302.593 125.809 301.438C125.809 300.206 126.447 299.216 130.539 299.469V299.194C130.539 298.578 130.264 298.127 129.054 298.127C128.042 298.127 127.723 298.424 127.635 298.831H126.073C126.26 297.533 127.448 296.983 129.054 296.983ZM130.539 301.284V300.459C128.317 300.338 127.492 300.547 127.492 301.383C127.492 301.933 127.899 302.153 128.625 302.153C129.527 302.153 130.231 301.801 130.539 301.284ZM135.916 303.165C134.409 303.165 133.529 302.34 133.529 301.02V297.137H135.201V300.602C135.201 301.306 135.608 301.911 136.642 301.911C137.676 301.911 138.138 301.284 138.138 300.602V297.137H139.81V303H138.138V302.175C137.885 302.527 137.17 303.165 135.916 303.165ZM145.018 296.147C143.929 296.059 143.335 296.103 143.335 297.137H144.864V298.281H143.335V303H141.674V298.281H140.695V297.137H141.674C141.674 295.971 142.081 294.882 144.039 294.882C144.424 294.882 144.677 294.915 145.018 294.959V296.147ZM146.113 301.383H147.774L146.718 304.012H145.673L146.113 301.383ZM151.963 294.882H153.635V303H151.963V294.882ZM154.96 303V297.137H156.621V303H154.96ZM155.785 296.455C155.279 296.455 154.927 296.169 154.927 295.674C154.927 295.168 155.279 294.882 155.785 294.882C156.291 294.882 156.654 295.168 156.654 295.674C156.654 296.169 156.291 296.455 155.785 296.455ZM161.84 296.983C163.347 296.983 164.227 297.797 164.227 299.117V303H162.555V299.535C162.555 298.831 162.148 298.226 161.114 298.226C160.08 298.226 159.618 298.853 159.618 299.535V303H157.946V297.137H159.618V297.962C159.871 297.61 160.586 296.983 161.84 296.983ZM171.932 300.503H166.729C166.861 301.306 167.422 302.01 168.643 302.01C169.534 302.01 170.106 301.614 170.337 301.119H171.811C171.426 302.582 170.095 303.165 168.643 303.165C166.971 303.165 165.222 302.241 165.222 300.074C165.222 297.907 166.949 296.983 168.632 296.983C170.337 296.983 172.108 298.028 171.932 300.503ZM168.632 298.127C167.587 298.127 167.004 298.699 166.784 299.403H170.403C170.227 298.699 169.732 298.127 168.632 298.127ZM175.75 296.983C177.433 296.983 178.907 297.467 178.907 299.194V303H177.235V302.219C176.982 302.604 176.135 303.165 174.826 303.165C173.451 303.165 172.505 302.593 172.505 301.438C172.505 300.206 173.143 299.216 177.235 299.469V299.194C177.235 298.578 176.96 298.127 175.75 298.127C174.738 298.127 174.419 298.424 174.331 298.831H172.769C172.956 297.533 174.144 296.983 175.75 296.983ZM177.235 301.284V300.459C175.013 300.338 174.188 300.547 174.188 301.383C174.188 301.933 174.595 302.153 175.321 302.153C176.223 302.153 176.927 301.801 177.235 301.284ZM184.086 296.994C184.471 296.994 184.757 297.027 184.955 297.082V298.622H184.9C184.691 298.534 184.295 298.435 183.789 298.435C182.403 298.435 181.897 299.304 181.897 300.217V303H180.225V297.137H181.897V298.215C182.139 297.797 182.832 296.994 184.086 296.994ZM192.105 300.503H186.902C187.034 301.306 187.595 302.01 188.816 302.01C189.707 302.01 190.279 301.614 190.51 301.119H191.984C191.599 302.582 190.268 303.165 188.816 303.165C187.144 303.165 185.395 302.241 185.395 300.074C185.395 297.907 187.122 296.983 188.805 296.983C190.51 296.983 192.281 298.028 192.105 300.503ZM188.805 298.127C187.76 298.127 187.177 298.699 186.957 299.403H190.576C190.4 298.699 189.905 298.127 188.805 298.127ZM203.943 295.3H206.704V303H204.933V296.917L202.348 303H200.665L198.08 296.917V303H196.309V295.3H199.07L201.501 301.218L203.943 295.3ZM211.049 296.983C212.732 296.983 214.206 297.467 214.206 299.194V303H212.534V302.219C212.281 302.604 211.434 303.165 210.125 303.165C208.75 303.165 207.804 302.593 207.804 301.438C207.804 300.206 208.442 299.216 212.534 299.469V299.194C212.534 298.578 212.259 298.127 211.049 298.127C210.037 298.127 209.718 298.424 209.63 298.831H208.068C208.255 297.533 209.443 296.983 211.049 296.983ZM212.534 301.284V300.459C210.312 300.338 209.487 300.547 209.487 301.383C209.487 301.933 209.894 302.153 210.62 302.153C211.522 302.153 212.226 301.801 212.534 301.284ZM221.233 298.798C222.157 299.007 222.982 299.513 222.982 300.756C222.982 302.362 221.816 303.165 219.924 303.165C219.418 303.165 218.78 303.077 218.406 303V301.867C218.571 301.9 219.099 302.01 219.715 302.01C220.793 302.01 221.376 301.57 221.376 300.69C221.376 299.953 220.925 299.557 219.682 299.557H218.406V298.402H219.583C220.364 298.402 220.771 298.017 220.771 297.368C220.771 296.818 220.342 296.301 218.956 296.301C217.691 296.301 217.086 296.829 217.086 298.138V303H215.524V298.028C215.524 295.806 217.031 295.146 218.989 295.146C220.76 295.146 222.289 295.707 222.289 297.28C222.289 298.105 221.827 298.556 221.233 298.798ZM230.348 300.503H225.145C225.277 301.306 225.838 302.01 227.059 302.01C227.95 302.01 228.522 301.614 228.753 301.119H230.227C229.842 302.582 228.511 303.165 227.059 303.165C225.387 303.165 223.638 302.241 223.638 300.074C223.638 297.907 225.365 296.983 227.048 296.983C228.753 296.983 230.524 298.028 230.348 300.503ZM227.048 298.127C226.003 298.127 225.42 298.699 225.2 299.403H228.819C228.643 298.699 228.148 298.127 227.048 298.127ZM236.553 301.702H240.392V303H234.221V301.812L237.95 298.446H234.43V297.137H240.293V298.325L236.553 301.702ZM243.875 303.165C242.368 303.165 241.488 302.34 241.488 301.02V297.137H243.16V300.602C243.16 301.306 243.567 301.911 244.601 301.911C245.635 301.911 246.097 301.284 246.097 300.602V297.137H247.769V303H246.097V302.175C245.844 302.527 245.129 303.165 243.875 303.165ZM113.165 311.137H114.903L112.23 317H110.591L107.918 311.137H109.656L111.416 315.306L113.165 311.137ZM121.723 314.503H116.52C116.652 315.306 117.213 316.01 118.434 316.01C119.325 316.01 119.897 315.614 120.128 315.119H121.602C121.217 316.582 119.886 317.165 118.434 317.165C116.762 317.165 115.013 316.241 115.013 314.074C115.013 311.907 116.74 310.983 118.423 310.983C120.128 310.983 121.899 312.028 121.723 314.503ZM118.423 312.127C117.378 312.127 116.795 312.699 116.575 313.403H120.194C120.018 312.699 119.523 312.127 118.423 312.127ZM126.594 310.994C126.979 310.994 127.265 311.027 127.463 311.082V312.622H127.408C127.199 312.534 126.803 312.435 126.297 312.435C124.911 312.435 124.405 313.304 124.405 314.217V317H122.733V311.137H124.405V312.215C124.647 311.797 125.34 310.994 126.594 310.994ZM136.822 311.137H138.56L136.195 317H134.666L133.17 313.04L131.685 317H130.145L127.791 311.137H129.529L130.981 315.086L132.466 311.137H133.885L135.37 315.086L136.822 311.137ZM145.377 314.503H140.174C140.306 315.306 140.867 316.01 142.088 316.01C142.979 316.01 143.551 315.614 143.782 315.119H145.256C144.871 316.582 143.54 317.165 142.088 317.165C140.416 317.165 138.667 316.241 138.667 314.074C138.667 311.907 140.394 310.983 142.077 310.983C143.782 310.983 145.553 312.028 145.377 314.503ZM142.077 312.127C141.032 312.127 140.449 312.699 140.229 313.403H143.848C143.672 312.699 143.177 312.127 142.077 312.127ZM150.282 310.983C151.789 310.983 152.669 311.797 152.669 313.117V317H150.997V313.535C150.997 312.831 150.59 312.226 149.556 312.226C148.522 312.226 148.06 312.853 148.06 313.535V317H146.388V311.137H148.06V311.962C148.313 311.61 149.028 310.983 150.282 310.983ZM158.866 309.3H160.538V317H158.866V316.274C158.437 316.824 157.755 317.165 156.765 317.165C155.06 317.165 153.663 316.065 153.663 314.074C153.663 312.083 155.06 310.983 156.765 310.983C157.755 310.983 158.437 311.324 158.866 311.874V309.3ZM157.139 316.01C158.338 316.01 159.075 315.306 159.075 314.074C159.075 312.842 158.338 312.127 157.139 312.127C155.929 312.127 155.236 312.842 155.236 314.074C155.236 315.306 155.929 316.01 157.139 316.01ZM168.236 314.503H163.033C163.165 315.306 163.726 316.01 164.947 316.01C165.838 316.01 166.41 315.614 166.641 315.119H168.115C167.73 316.582 166.399 317.165 164.947 317.165C163.275 317.165 161.526 316.241 161.526 314.074C161.526 311.907 163.253 310.983 164.936 310.983C166.641 310.983 168.412 312.028 168.236 314.503ZM164.936 312.127C163.891 312.127 163.308 312.699 163.088 313.403H166.707C166.531 312.699 166.036 312.127 164.936 312.127ZM173.141 310.983C174.648 310.983 175.528 311.797 175.528 313.117V317H173.856V313.535C173.856 312.831 173.449 312.226 172.415 312.226C171.381 312.226 170.919 312.853 170.919 313.535V317H169.247V311.137H170.919V311.962C171.172 311.61 171.887 310.983 173.141 310.983Z" fill="black"/>
</svg>
