<svg width="132" height="187" viewBox="0 0 132 187" fill="none" xmlns="http://www.w3.org/2000/svg">
<rect width="132" height="187" rx="10" fill="white"/>
<path d="M8.71288 168.6C11.4249 168.6 13.6689 169.536 13.6689 172.8C13.6689 176.064 11.4249 177 8.71288 177H5.25688V168.6H8.71288ZM8.53288 175.752C10.8249 175.752 12.1569 174.972 12.1569 172.8C12.1569 170.64 10.8249 169.848 8.53288 169.848H6.73288V175.752H8.53288ZM14.9923 177V170.604H16.4683V177H14.9923ZM15.7243 169.716C15.2683 169.716 14.9443 169.452 14.9443 168.996C14.9443 168.54 15.2683 168.276 15.7243 168.276C16.1923 168.276 16.5163 168.54 16.5163 168.996C16.5163 169.452 16.1923 169.716 15.7243 169.716ZM21.5167 173.256C23.3287 173.568 24.3487 173.808 24.3487 175.068C24.3487 176.556 23.1127 177.18 20.9767 177.18C19.0327 177.18 17.5447 176.508 17.5447 175.056H19.0687C19.0687 175.752 19.7527 176.064 21.0967 176.064C22.4047 176.064 22.8727 175.74 22.8727 175.26C22.8727 174.552 21.8047 174.54 20.1727 174.24C18.5167 173.928 17.7847 173.544 17.7847 172.404C17.7847 171.12 18.9847 170.424 20.8687 170.424C22.9207 170.424 24.0247 171.24 24.0247 172.428H22.6447C22.6447 172.02 22.2127 171.516 20.8447 171.516C19.5607 171.516 19.1167 171.84 19.1167 172.332C19.1167 172.98 20.3767 173.064 21.5167 173.256ZM29.4926 171.732H27.5606V174.612C27.5606 175.692 27.9926 175.992 29.4926 175.836V176.988C29.2766 177.048 28.9526 177.096 28.6526 177.096C26.7086 177.096 26.0846 176.304 26.0846 174.612V171.732H24.8366V170.604H26.0846V168.948H27.5606V170.604H29.4926V171.732ZM33.7978 170.424C35.5618 170.424 37.0618 171.012 37.0618 172.848V177H35.5858V176.172C35.2738 176.532 34.5058 177.18 33.0058 177.18C31.4698 177.18 30.4498 176.544 30.4498 175.32C30.4498 174 31.1698 172.956 35.5858 173.244V172.848C35.5858 171.96 35.1298 171.516 33.7978 171.516C32.6578 171.516 32.1898 171.888 32.0818 172.428H30.7018C30.8938 171.084 32.1418 170.424 33.7978 170.424ZM35.5858 175.2V174.132C32.9218 174 31.9618 174.228 31.9618 175.224C31.9618 175.872 32.4658 176.196 33.3178 176.196C34.4458 176.196 35.1898 175.776 35.5858 175.2ZM38.7463 168.144H40.2223V177H38.7463V168.144ZM45.0186 170.424C47.0466 170.424 48.6786 171.624 48.5106 174.276H42.7506C42.9186 175.368 43.6986 176.088 45.0426 176.088C46.2906 176.088 46.8186 175.488 47.0346 175.032H48.3306C48.0066 176.34 46.7586 177.18 45.0426 177.18C43.2186 177.18 41.4186 176.136 41.4186 173.808C41.4186 171.516 43.1826 170.424 45.0186 170.424ZM42.7866 173.196H47.1906C46.9986 172.188 46.3026 171.516 45.0186 171.516C43.8306 171.516 43.0146 172.188 42.7866 173.196ZM60.4672 177L59.6152 175.128H54.8032L53.9632 177H52.3672L56.2552 168.6H58.1752L62.0632 177H60.4672ZM55.3672 173.88H59.0632L57.2152 169.764L55.3672 173.88ZM66.9426 170.424C67.2306 170.424 67.3986 170.436 67.6506 170.472V171.936H67.6026C67.3506 171.864 67.0266 171.816 66.6186 171.816C64.9986 171.816 64.3866 172.752 64.3866 173.748V177H62.8986V170.604H64.3866V171.804C64.6746 171.336 65.5626 170.424 66.9426 170.424ZM72.8957 170.424C73.1837 170.424 73.3517 170.436 73.6037 170.472V171.936H73.5557C73.3037 171.864 72.9797 171.816 72.5717 171.816C70.9517 171.816 70.3397 172.752 70.3397 173.748V177H68.8517V170.604H70.3397V171.804C70.6277 171.336 71.5157 170.424 72.8957 170.424ZM77.8077 170.424C79.8357 170.424 81.4677 171.624 81.2997 174.276H75.5397C75.7077 175.368 76.4877 176.088 77.8317 176.088C79.0797 176.088 79.6077 175.488 79.8237 175.032H81.1197C80.7957 176.34 79.5477 177.18 77.8317 177.18C76.0077 177.18 74.2077 176.136 74.2077 173.808C74.2077 171.516 75.9717 170.424 77.8077 170.424ZM75.5757 173.196H79.9797C79.7877 172.188 79.0917 171.516 77.8077 171.516C76.6197 171.516 75.8037 172.188 75.5757 173.196ZM86.4574 171.732H84.5254V174.612C84.5254 175.692 84.9574 175.992 86.4574 175.836V176.988C86.2414 177.048 85.9174 177.096 85.6174 177.096C83.6734 177.096 83.0494 176.304 83.0494 174.612V171.732H81.8014V170.604H83.0494V168.948H84.5254V170.604H86.4574V171.732ZM87.8947 177V170.604H89.3707V177H87.8947ZM88.6267 169.716C88.1707 169.716 87.8467 169.452 87.8467 168.996C87.8467 168.54 88.1707 168.276 88.6267 168.276C89.0947 168.276 89.4187 168.54 89.4187 168.996C89.4187 169.452 89.0947 169.716 88.6267 169.716ZM94.167 170.424C96.195 170.424 97.827 171.624 97.659 174.276H91.899C92.067 175.368 92.847 176.088 94.191 176.088C95.439 176.088 95.967 175.488 96.183 175.032H97.479C97.155 176.34 95.907 177.18 94.191 177.18C92.367 177.18 90.567 176.136 90.567 173.808C90.567 171.516 92.331 170.424 94.167 170.424ZM91.935 173.196H96.339C96.147 172.188 95.451 171.516 94.167 171.516C92.979 171.516 92.163 172.188 91.935 173.196ZM102.919 170.424C103.207 170.424 103.375 170.436 103.627 170.472V171.936H103.579C103.327 171.864 103.003 171.816 102.595 171.816C100.975 171.816 100.363 172.752 100.363 173.748V177H98.8752V170.604H100.363V171.804C100.651 171.336 101.539 170.424 102.919 170.424ZM109.856 170.604H111.332V177H109.856V176.016C109.556 176.436 108.74 177.18 107.408 177.18C105.74 177.18 104.828 176.232 104.828 174.744V170.604H106.304V174.3C106.304 175.38 106.892 175.98 108.056 175.98C109.22 175.98 109.856 175.308 109.856 174.3V170.604ZM116.932 170.424C118.6 170.424 119.512 171.372 119.512 172.86V177H118.036V173.304C118.036 172.224 117.448 171.624 116.284 171.624C115.12 171.624 114.484 172.296 114.484 173.304V177H113.008V170.604H114.484V171.588C114.784 171.168 115.6 170.424 116.932 170.424ZM126.384 170.604H127.86V176.388C127.86 178.86 125.976 179.232 124.14 179.232C122.136 179.232 120.936 178.524 120.804 177.312H122.172C122.268 177.696 122.748 178.116 124.14 178.116C125.928 178.116 126.384 177.54 126.384 176.388V175.68C125.916 176.244 125.16 176.604 124.032 176.604C122.172 176.604 120.708 175.68 120.708 173.58C120.708 171.468 122.172 170.424 124.032 170.424C125.16 170.424 125.916 170.844 126.384 171.468V170.604ZM124.32 175.644C125.7 175.644 126.612 174.9 126.612 173.58C126.612 172.248 125.724 171.516 124.32 171.516C122.928 171.516 122.076 172.224 122.076 173.58C122.076 174.924 122.94 175.644 124.32 175.644Z" fill="black"/>
<g clip-path="url(#clip0_9399_4543)">
<path fill-rule="evenodd" clip-rule="evenodd" d="M58.3042 141.772C58.7812 138.791 59.2582 135.545 59.7351 132.155C59.9632 130.502 60.2121 128.827 60.4402 127.112L60.5231 126.479C60.6476 125.642 60.7512 124.785 60.8757 123.927V123.764C60.9586 123.376 61.0001 122.967 61.0623 122.579C61.6637 118.169 62.3065 113.8 62.9701 109.716C63.0116 109.43 63.0738 109.144 63.1153 108.859C63.8411 104.55 64.6084 100.589 65.4379 97.3019C66.2881 100.589 67.0554 104.55 67.7812 108.879C67.8227 109.144 67.8641 109.43 67.9264 109.716C68.6107 113.82 69.2328 118.21 69.8549 122.579C69.9171 122.988 69.9586 123.376 70.0208 123.784V123.927C70.166 124.764 70.2697 125.581 70.3941 126.398L70.5185 127.276C70.6222 128.011 70.7259 128.746 70.8296 129.481H72.2397C72.1983 129.236 72.1775 129.011 72.136 128.766C72.0531 128.215 71.9909 127.664 71.9079 127.092C71.6798 125.52 71.4724 123.947 71.2443 122.375V122.253C70.6844 118.169 70.1038 114.086 69.4194 109.961C69.3365 109.512 69.2743 109.063 69.1913 108.634C68.5692 105 67.8849 101.304 66.9932 97.7103V97.6899C66.931 97.4448 66.8688 97.1998 66.8065 96.9548L65.4794 91.7891L64.1522 96.9548C64.09 97.1998 64.0277 97.4448 63.9655 97.6899V97.7103C63.1153 101.1 62.5347 104.571 61.9333 108.001C61.8918 108.205 61.8711 108.409 61.8296 108.634C61.7466 109.083 61.6844 109.512 61.6015 109.961C60.9171 114.106 60.3158 118.19 59.7766 122.273V122.396C59.5277 124.029 59.2996 125.663 59.0715 127.276C59.0093 127.766 58.9264 128.256 58.8641 128.766C58.2628 133.054 57.6821 137.321 56.9771 141.527" fill="black"/>
<path fill-rule="evenodd" clip-rule="evenodd" d="M87.5023 25.613C87.5023 25.8172 87.4608 26.0214 87.4401 26.246C87.4194 26.5523 87.3779 26.8585 87.3571 27.1648C87.3571 27.3486 87.3157 27.5323 87.2949 27.7161C87.1498 29.1862 87.0046 30.6359 86.8802 32.1059C86.6313 34.842 86.3825 37.578 86.1336 40.3344C86.1336 40.4773 86.1129 40.6407 86.0922 40.8244C85.9263 43.0704 85.5323 48.3791 86.1959 49.8084C87.7304 52.9527 88.9124 56.5667 89.97 59.854C91.5046 64.7543 92.8318 69.7976 93.8272 74.8204C94.1383 76.4743 94.4493 78.2098 94.7189 79.9658C95.2166 83.1918 95.5484 86.5199 95.5691 89.7256C95.5691 90.9506 95.5277 92.1757 95.424 93.36C95.3825 94.0133 95.3203 94.6667 95.2581 95.3201C94.8641 99.6895 94.3456 104.018 93.8272 108.326C93.5991 110.307 93.3502 112.308 93.1014 114.288C92.4793 119.352 91.8364 124.436 91.3595 129.5H92.7903C93.2465 124.416 93.9516 118.699 94.6774 112.839C94.8641 111.389 95.03 109.939 95.2166 108.49C95.6728 104.753 96.1083 100.996 96.4816 97.3823C96.606 96.0551 96.7304 94.7688 96.8548 93.4825C96.9171 92.6453 96.9793 91.7878 96.9793 90.9098C96.9793 90.5219 96.9793 90.1135 96.9793 89.7256C96.9793 88.3167 96.8963 86.8262 96.7719 85.3153V85.2132C96.7304 84.8252 96.7097 84.4577 96.6682 84.0698C96.6682 83.9268 96.6475 83.7839 96.6267 83.6206C96.6267 83.5593 96.6267 83.4981 96.606 83.4164C96.4816 82.273 96.3364 81.0887 96.1498 79.9249C95.9839 78.8836 95.818 77.8219 95.6313 76.7601C95.5069 76.0251 95.3618 75.29 95.2166 74.555C94.1383 69.2055 92.7074 63.9172 91.2972 59.4457C89.8871 54.9537 88.4977 51.2989 87.4816 49.1754C87.0876 48.3383 87.212 45.0101 87.5438 40.4569C87.5645 40.1302 87.5853 39.824 87.606 39.5177C87.7304 37.8638 87.8963 36.0466 88.083 34.1477V34.1069C88.1452 33.4127 88.2074 32.7185 88.2903 32.0039C88.3318 31.5138 88.3733 31.0238 88.4355 30.5338V30.4113C88.5392 29.5129 88.6221 28.5941 88.7051 27.6752V27.5323L88.7673 27.0831V27.0423V26.981L88.8502 26.1643V26.1031C88.9332 25.4088 89.0576 24.0204 89.0576 24.0204L87.523 25.6334L87.5023 25.613ZM40.1175 138.994C40.1175 136.054 39.8479 133.032 39.5783 130.072C39.1221 124.681 38.4585 119.27 37.7949 113.88C37.5668 112.022 37.3387 110.184 37.1106 108.326C36.5922 104.018 36.0737 99.6895 35.6797 95.3201C35.6175 94.6667 35.576 94.0133 35.5138 93.36C35.4101 92.1757 35.3687 90.9711 35.3687 89.7256C35.3687 86.4995 35.7005 83.1305 36.1982 79.8841C36.4677 78.1486 36.7788 76.4539 37.1106 74.8204C38.106 69.7976 39.4332 64.7543 40.9677 59.854C42.0253 56.5667 43.2281 52.9323 44.6797 49.7879C45.4677 48.2158 44.9493 42.1312 44.7419 40.3344C44.5346 37.5984 44.3065 34.8624 44.0576 32.1264C43.9332 30.6563 43.788 29.1658 43.6429 27.6957C43.6429 27.5119 43.6014 27.3281 43.5806 27.1444C43.5599 26.8177 43.5184 26.5114 43.4977 26.1847C43.4977 26.001 43.4562 25.7968 43.4355 25.613L41.9424 24C41.9424 24 42.1083 25.6334 42.1705 26.4297V26.491L42.212 26.9402V27.0014L42.2535 27.4711C42.3571 28.4715 42.4401 29.4516 42.5438 30.4317V30.4929C42.606 30.983 42.6475 31.473 42.6889 31.9426C42.7512 32.6572 42.8134 33.3719 42.8963 34.0661V34.1273C43.0829 36.0058 43.2281 37.8026 43.3733 39.4564C43.394 39.7627 43.4147 40.0894 43.4355 40.3752V40.4161C43.788 44.9693 43.8917 48.277 43.4977 49.1141V49.155C42.4608 51.2785 41.0714 54.9129 39.6613 59.364C38.2512 63.8559 36.8203 69.1238 35.7627 74.4733C35.6175 75.2084 35.4724 75.9434 35.3479 76.658C35.1613 77.7198 34.9747 78.8019 34.8295 79.8637C34.6636 81.0479 34.4977 82.2117 34.3733 83.3756C34.3733 83.4368 34.3733 83.5185 34.3525 83.5797C34.3525 83.7022 34.3318 83.8248 34.3111 83.9677C34.2696 84.3352 34.2488 84.7027 34.2074 85.0703V85.1519V85.2132C34.0829 86.7241 34.0207 88.2146 34 89.6235C34 90.0318 34 90.4198 34 90.8281C34 91.7061 34.0622 92.5432 34.1244 93.3804C34.2281 94.6667 34.3525 95.9735 34.4977 97.3006C34.871 100.915 35.3065 104.672 35.7627 108.408C35.9286 109.858 36.1152 111.307 36.2811 112.737C37.0277 118.862 37.7742 124.824 38.2304 130.092C38.5207 133.359 38.7074 136.34 38.7281 138.892" fill="black"/>
<path d="M65.7695 101.076C68.5483 112.306 69.4193 124.904 71.099 133.03C72.447 139.585 75.682 142.525 80.4723 142.525C88.394 142.525 91.4009 139.278 92.8732 131.764C93.288 129.702 95.0092 115.614 95.0092 115.614C96.046 107.896 96.4608 102.955 96.4608 100.852L65.7695 101.076Z" fill="#D3D3D5" stroke="black" stroke-width="0.44" stroke-miterlimit="10"/>
<path d="M82.3803 142.508H80.8457V149.001H82.3803V142.508Z" fill="#D3D3D5" stroke="black" stroke-width="0.29" stroke-miterlimit="10"/>
<path d="M81.6128 150.693C81.2395 150.693 80.9907 150.529 80.9284 150.162L80.5552 148.773H82.6289L82.2556 150.162C82.1934 150.529 81.9446 150.693 81.5713 150.693H81.6128Z" fill="#D3D3D5" stroke="black" stroke-width="0.29" stroke-miterlimit="10"/>
<path d="M80.7627 142.852L82.4632 143.444" stroke="black" stroke-width="0.29" stroke-miterlimit="10"/>
<path d="M80.7627 144.625L82.4632 145.217" stroke="black" stroke-width="0.29" stroke-miterlimit="10"/>
<path d="M80.7627 146.422L82.4632 146.994" stroke="black" stroke-width="0.29" stroke-miterlimit="10"/>
<path d="M80.7627 148.203L82.4632 148.775" stroke="black" stroke-width="0.29" stroke-miterlimit="10"/>
<path d="M72.0942 136.133H91.6288" stroke="black" stroke-width="0.29" stroke-miterlimit="10"/>
</g>
<defs>
<clipPath id="clip0_9399_4543">
<rect width="63" height="127" fill="white" transform="translate(34 24)"/>
</clipPath>
</defs>
</svg>
