<svg width="217" height="195" viewBox="0 0 217 195" fill="none" xmlns="http://www.w3.org/2000/svg">
<rect x="8.52372e-06" y="2.47442e-05" width="217" height="195" rx="10" fill="#D9D9D9"/>
<g clip-path="url(#clip0_4143_685)">
<path fill-rule="evenodd" clip-rule="evenodd" d="M100.619 148.826C101.141 145.54 101.664 141.961 102.186 138.225C102.436 136.402 102.708 134.556 102.958 132.665L103.049 131.968C103.185 131.045 103.299 130.1 103.435 129.154V128.974C103.526 128.547 103.571 128.096 103.64 127.669C104.298 122.807 105.002 117.99 105.729 113.489C105.775 113.174 105.843 112.858 105.888 112.543C106.683 107.794 107.523 103.428 108.432 99.8038C109.363 103.428 110.203 107.794 110.998 112.566C111.044 112.858 111.089 113.174 111.157 113.489C111.907 118.013 112.588 122.852 113.27 127.669C113.338 128.119 113.383 128.547 113.451 128.997V129.154C113.61 130.077 113.724 130.977 113.86 131.878L113.996 132.846C114.11 133.656 114.224 134.466 114.337 135.276H115.882C115.836 135.006 115.813 134.759 115.768 134.489C115.677 133.881 115.609 133.273 115.518 132.643C115.268 130.91 115.041 129.177 114.791 127.444V127.309C114.178 122.807 113.542 118.305 112.793 113.759C112.702 113.264 112.634 112.768 112.543 112.296C111.861 108.289 111.112 104.215 110.135 100.254V100.231C110.067 99.9613 109.999 99.6912 109.931 99.4211L108.477 93.7266L107.024 99.4211C106.956 99.6912 106.887 99.9613 106.819 100.231V100.254C105.888 103.99 105.252 107.817 104.594 111.598C104.548 111.823 104.525 112.048 104.48 112.296C104.389 112.791 104.321 113.264 104.23 113.759C103.481 118.328 102.822 122.829 102.231 127.331V127.466C101.959 129.267 101.709 131.067 101.459 132.846C101.391 133.386 101.3 133.926 101.232 134.489C100.573 139.215 99.9375 143.92 99.1653 148.556" fill="#050A0A"/>
<path fill-rule="evenodd" clip-rule="evenodd" d="M132.598 20.7782C132.598 21.0032 132.552 21.2283 132.53 21.4759C132.507 21.8135 132.461 22.1511 132.439 22.4888C132.439 22.6913 132.393 22.8939 132.371 23.0965C132.212 24.7171 132.053 26.3151 131.916 27.9357C131.644 30.9518 131.371 33.9679 131.099 37.0065C131.099 37.164 131.076 37.3441 131.053 37.5466C130.872 40.0225 130.44 45.8746 131.167 47.4502C132.848 50.9164 134.142 54.9003 135.301 58.5241C136.981 63.9261 138.435 69.4856 139.525 75.0225C139.866 76.8457 140.206 78.7589 140.502 80.6946C141.047 84.2508 141.41 87.9196 141.433 91.4534C141.433 92.8039 141.387 94.1544 141.274 95.4598C141.228 96.1801 141.16 96.9003 141.092 97.6206C140.661 102.437 140.093 107.209 139.525 111.958C139.275 114.141 139.003 116.347 138.73 118.531C138.049 124.113 137.345 129.717 136.822 135.299H138.389C138.889 129.695 139.661 123.392 140.456 116.932C140.661 115.334 140.842 113.736 141.047 112.138C141.546 108.019 142.023 103.878 142.432 99.8939C142.568 98.4309 142.705 97.0129 142.841 95.5949C142.909 94.672 142.977 93.7267 142.977 92.7589C142.977 92.3312 142.977 91.881 142.977 91.4534C142.977 89.9003 142.886 88.2573 142.75 86.5917V86.4791C142.705 86.0515 142.682 85.6463 142.637 85.2187C142.637 85.0611 142.614 84.9036 142.591 84.7235C142.591 84.656 142.591 84.5884 142.568 84.4984C142.432 83.238 142.273 81.9325 142.069 80.6495C141.887 79.5016 141.705 78.3312 141.501 77.1608C141.365 76.3505 141.206 75.5402 141.047 74.7299C139.866 68.8328 138.299 63.0032 136.754 58.074C135.21 53.1222 133.688 49.0933 132.575 46.7524C132.144 45.8296 132.28 42.1608 132.643 37.1415C132.666 36.7814 132.689 36.4438 132.711 36.1061C132.848 34.283 133.029 32.2798 133.234 30.1865V30.1415C133.302 29.3762 133.37 28.611 133.461 27.8232C133.506 27.283 133.552 26.7428 133.62 26.2026V26.0675C133.733 25.0772 133.824 24.0643 133.915 23.0515V22.8939L133.983 22.3987V22.3537V22.2862L134.074 21.3859V21.3184C134.165 20.5531 134.301 19.0225 134.301 19.0225L132.62 20.8007L132.598 20.7782ZM80.7001 145.765C80.7001 142.524 80.4049 139.193 80.1096 135.929C79.6099 129.987 78.8832 124.023 78.1564 118.08C77.9065 116.032 77.6567 114.006 77.4069 111.958C76.839 107.209 76.2712 102.437 75.8397 97.6206C75.7716 96.9003 75.7261 96.1801 75.658 95.4598C75.5444 94.1544 75.499 92.8264 75.499 91.4534C75.499 87.8971 75.8624 84.1833 76.4075 80.6045C76.7028 78.6913 77.0435 76.8232 77.4069 75.0225C78.497 69.4856 79.9506 63.9261 81.6313 58.5241C82.7897 54.9003 84.107 50.8939 85.6968 47.4277C86.5599 45.6946 85.9921 38.9872 85.765 37.0065C85.5379 33.9904 85.288 30.9743 85.0155 27.9582C84.8792 26.3376 84.7202 24.6946 84.5612 23.074C84.5612 22.8714 84.5158 22.6688 84.4931 22.4663C84.4704 22.1061 84.425 21.7685 84.4022 21.4084C84.4022 21.2058 84.3568 20.9807 84.3341 20.7782L82.6988 19C82.6988 19 82.8805 20.8007 82.9487 21.6785V21.746L82.9941 22.2412V22.3087L83.0395 22.8264C83.1531 23.9293 83.2439 25.0097 83.3575 26.0901V26.1576C83.4256 26.6978 83.471 27.238 83.5165 27.7557C83.5846 28.5434 83.6527 29.3312 83.7436 30.0965V30.164C83.948 32.2348 84.107 34.2155 84.266 36.0386C84.2887 36.3762 84.3114 36.7364 84.3341 37.0515V37.0965C84.7202 42.1158 84.8338 45.7621 84.4022 46.6849V46.7299C83.2666 49.0708 81.7449 53.0772 80.2005 57.9839C78.656 62.9357 77.0889 68.7428 75.9306 74.6399C75.7716 75.4502 75.6126 76.2605 75.4763 77.0483C75.2719 78.2187 75.0675 79.4116 74.9085 80.582C74.7268 81.8875 74.5451 83.1704 74.4088 84.4534C74.4088 84.5209 74.4088 84.611 74.3861 84.6785C74.3861 84.8135 74.3634 84.9486 74.3407 85.1061C74.2953 85.5113 74.2726 85.9164 74.2271 86.3216V86.4116V86.4791C74.0909 88.1447 74.0227 89.7878 74 91.3409C74 91.791 74 92.2187 74 92.6688C74 93.6367 74.0681 94.5595 74.1363 95.4823C74.2498 96.9003 74.3861 98.3409 74.5451 99.8039C74.9539 103.788 75.4309 107.929 75.9306 112.048C76.1123 113.646 76.3167 115.244 76.4984 116.82C77.316 123.572 78.1336 130.145 78.6333 135.952C78.9513 139.553 79.1557 142.839 79.1784 145.653" fill="#050A0A"/>
<path d="M108.795 103.968C111.839 116.348 112.793 130.235 114.632 139.193C116.109 146.418 119.652 149.66 124.898 149.66C133.574 149.66 136.868 146.081 138.48 137.798C138.935 135.525 140.82 119.994 140.82 119.994C141.955 111.486 142.41 106.039 142.41 103.721L108.795 103.968Z" fill="#D3D3D5" stroke="#050A0A" stroke-width="0.44" stroke-miterlimit="10"/>
<path d="M126.988 149.637H125.307V156.794H126.988V149.637Z" fill="#D3D3D5" stroke="#050A0A" stroke-width="0.29" stroke-miterlimit="10"/>
<path d="M126.147 158.663C125.739 158.663 125.466 158.483 125.398 158.077L124.989 156.547H127.26L126.852 158.077C126.783 158.483 126.511 158.663 126.102 158.663H126.147Z" fill="#D3D3D5" stroke="#050A0A" stroke-width="0.29" stroke-miterlimit="10"/>
<path d="M125.216 150.02L127.079 150.672" stroke="#050A0A" stroke-width="0.29" stroke-miterlimit="10"/>
<path d="M125.216 151.979L127.079 152.631" stroke="#050A0A" stroke-width="0.29" stroke-miterlimit="10"/>
<path d="M125.216 153.959L127.079 154.589" stroke="#050A0A" stroke-width="0.29" stroke-miterlimit="10"/>
<path d="M125.216 155.916L127.079 156.546" stroke="#050A0A" stroke-width="0.29" stroke-miterlimit="10"/>
<path d="M115.723 142.615H137.118" stroke="#1D1D1B" stroke-width="0.29" stroke-miterlimit="10"/>
</g>
<path d="M30.9505 166.8C34.5665 166.8 37.5585 168.048 37.5585 172.4C37.5585 176.752 34.5665 178 30.9505 178H26.3425V166.8H30.9505ZM30.7105 176.336C33.7665 176.336 35.5425 175.296 35.5425 172.4C35.5425 169.52 33.7665 168.464 30.7105 168.464H28.3105V176.336H30.7105ZM39.3231 178V169.472H41.2911V178H39.3231ZM40.2991 168.288C39.6911 168.288 39.2591 167.936 39.2591 167.328C39.2591 166.72 39.6911 166.368 40.2991 166.368C40.9231 166.368 41.3551 166.72 41.3551 167.328C41.3551 167.936 40.9231 168.288 40.2991 168.288ZM48.0223 173.008C50.4383 173.424 51.7983 173.744 51.7983 175.424C51.7983 177.408 50.1503 178.24 47.3023 178.24C44.7103 178.24 42.7263 177.344 42.7263 175.408H44.7583C44.7583 176.336 45.6703 176.752 47.4623 176.752C49.2063 176.752 49.8303 176.32 49.8303 175.68C49.8303 174.736 48.4063 174.72 46.2303 174.32C44.0223 173.904 43.0463 173.392 43.0463 171.872C43.0463 170.16 44.6463 169.232 47.1583 169.232C49.8943 169.232 51.3663 170.32 51.3663 171.904H49.5263C49.5263 171.36 48.9503 170.688 47.1263 170.688C45.4143 170.688 44.8223 171.12 44.8223 171.776C44.8223 172.64 46.5023 172.752 48.0223 173.008ZM58.6568 170.976H56.0808V174.816C56.0808 176.256 56.6568 176.656 58.6568 176.448V177.984C58.3688 178.064 57.9368 178.128 57.5368 178.128C54.9448 178.128 54.1128 177.072 54.1128 174.816V170.976H52.4488V169.472H54.1128V167.264H56.0808V169.472H58.6568V170.976ZM64.3971 169.232C66.7491 169.232 68.7491 170.016 68.7491 172.464V178H66.7811V176.896C66.3651 177.376 65.3411 178.24 63.3411 178.24C61.2931 178.24 59.9331 177.392 59.9331 175.76C59.9331 174 60.8931 172.608 66.7811 172.992V172.464C66.7811 171.28 66.1731 170.688 64.3971 170.688C62.8771 170.688 62.2531 171.184 62.1091 171.904H60.2691C60.5251 170.112 62.1891 169.232 64.3971 169.232ZM66.7811 175.6V174.176C63.2291 174 61.9491 174.304 61.9491 175.632C61.9491 176.496 62.6211 176.928 63.7571 176.928C65.2611 176.928 66.2531 176.368 66.7811 175.6ZM70.995 166.192H72.963V178H70.995V166.192ZM79.3581 169.232C82.0621 169.232 84.2381 170.832 84.0141 174.368H76.3341C76.5581 175.824 77.5981 176.784 79.3901 176.784C81.0541 176.784 81.7581 175.984 82.0461 175.376H83.7741C83.3421 177.12 81.6781 178.24 79.3901 178.24C76.9581 178.24 74.5581 176.848 74.5581 173.744C74.5581 170.688 76.9101 169.232 79.3581 169.232ZM76.3821 172.928H82.2541C81.9981 171.584 81.0701 170.688 79.3581 170.688C77.7741 170.688 76.6861 171.584 76.3821 172.928ZM99.9563 178L98.8203 175.504H92.4043L91.2843 178H89.1563L94.3403 166.8H96.9003L102.084 178H99.9563ZM93.1563 173.84H98.0843L95.6203 168.352L93.1563 173.84ZM108.59 169.232C108.974 169.232 109.198 169.248 109.534 169.296V171.248H109.47C109.134 171.152 108.702 171.088 108.158 171.088C105.998 171.088 105.182 172.336 105.182 173.664V178H103.198V169.472H105.182V171.072C105.566 170.448 106.75 169.232 108.59 169.232ZM116.528 169.232C116.912 169.232 117.136 169.248 117.472 169.296V171.248H117.408C117.072 171.152 116.64 171.088 116.096 171.088C113.936 171.088 113.12 172.336 113.12 173.664V178H111.136V169.472H113.12V171.072C113.504 170.448 114.688 169.232 116.528 169.232ZM123.077 169.232C125.781 169.232 127.957 170.832 127.733 174.368H120.053C120.277 175.824 121.317 176.784 123.109 176.784C124.773 176.784 125.477 175.984 125.765 175.376H127.493C127.061 177.12 125.397 178.24 123.109 178.24C120.677 178.24 118.277 176.848 118.277 173.744C118.277 170.688 120.629 169.232 123.077 169.232ZM120.101 172.928H125.973C125.717 171.584 124.789 170.688 123.077 170.688C121.493 170.688 120.405 171.584 120.101 172.928ZM134.61 170.976H132.034V174.816C132.034 176.256 132.61 176.656 134.61 176.448V177.984C134.322 178.064 133.89 178.128 133.49 178.128C130.898 178.128 130.066 177.072 130.066 174.816V170.976H128.402V169.472H130.066V167.264H132.034V169.472H134.61V170.976ZM136.526 178V169.472H138.494V178H136.526ZM137.502 168.288C136.894 168.288 136.462 167.936 136.462 167.328C136.462 166.72 136.894 166.368 137.502 166.368C138.126 166.368 138.558 166.72 138.558 167.328C138.558 167.936 138.126 168.288 137.502 168.288ZM144.889 169.232C147.593 169.232 149.769 170.832 149.545 174.368H141.865C142.089 175.824 143.129 176.784 144.921 176.784C146.585 176.784 147.289 175.984 147.577 175.376H149.305C148.873 177.12 147.209 178.24 144.921 178.24C142.489 178.24 140.089 176.848 140.089 173.744C140.089 170.688 142.441 169.232 144.889 169.232ZM141.913 172.928H147.785C147.529 171.584 146.601 170.688 144.889 170.688C143.305 170.688 142.217 171.584 141.913 172.928ZM156.559 169.232C156.943 169.232 157.167 169.248 157.503 169.296V171.248H157.439C157.103 171.152 156.671 171.088 156.127 171.088C153.967 171.088 153.151 172.336 153.151 173.664V178H151.167V169.472H153.151V171.072C153.535 170.448 154.719 169.232 156.559 169.232ZM165.808 169.472H167.776V178H165.808V176.688C165.408 177.248 164.32 178.24 162.544 178.24C160.32 178.24 159.104 176.976 159.104 174.992V169.472H161.072V174.4C161.072 175.84 161.856 176.64 163.408 176.64C164.96 176.64 165.808 175.744 165.808 174.4V169.472ZM175.243 169.232C177.467 169.232 178.683 170.496 178.683 172.48V178H176.715V173.072C176.715 171.632 175.931 170.832 174.379 170.832C172.827 170.832 171.979 171.728 171.979 173.072V178H170.011V169.472H171.979V170.784C172.379 170.224 173.467 169.232 175.243 169.232ZM187.845 169.472H189.813V177.184C189.813 180.48 187.301 180.976 184.853 180.976C182.181 180.976 180.581 180.032 180.405 178.416H182.229C182.357 178.928 182.997 179.488 184.853 179.488C187.237 179.488 187.845 178.72 187.845 177.184V176.24C187.221 176.992 186.213 177.472 184.709 177.472C182.229 177.472 180.277 176.24 180.277 173.44C180.277 170.624 182.229 169.232 184.709 169.232C186.213 169.232 187.221 169.792 187.845 170.624V169.472ZM185.093 176.192C186.933 176.192 188.149 175.2 188.149 173.44C188.149 171.664 186.965 170.688 185.093 170.688C183.237 170.688 182.101 171.632 182.101 173.44C182.101 175.232 183.253 176.192 185.093 176.192Z" fill="black"/>
<defs>
<clipPath id="clip0_4143_685">
<rect width="69" height="140" fill="white" transform="translate(74 19)"/>
</clipPath>
</defs>
</svg>
