<svg width="217" height="195" viewBox="0 0 217 195" fill="none" xmlns="http://www.w3.org/2000/svg">
<rect x="8.52372e-06" y="2.47442e-05" width="217" height="195" rx="10" fill="#D9D9D9"/>
<g clip-path="url(#clip0_4143_702)">
<path fill-rule="evenodd" clip-rule="evenodd" d="M51.331 152.741C51.8891 150.308 52.4044 147.443 52.941 144.299C53.4777 141.025 54.0144 137.45 54.5296 133.745C54.7872 131.936 55.0448 130.084 55.3024 128.21L55.4097 127.521C55.5385 126.594 55.6673 125.668 55.7961 124.721V124.548C55.882 124.118 55.9464 123.687 56.0108 123.234C56.6977 118.41 57.3847 113.585 58.136 109.106C58.179 108.783 58.2434 108.481 58.2863 108.158C59.0806 103.42 59.9392 99.0689 60.8623 95.4721C61.8069 99.0689 62.6441 103.441 63.4598 108.179C63.5027 108.481 63.5671 108.783 63.6101 109.084C64.3614 113.585 65.0698 118.388 65.7568 123.213C65.8212 123.665 65.8856 124.096 65.95 124.527V124.699C66.1002 125.604 66.229 126.508 66.3578 127.413L66.4866 128.382C66.594 129.2 66.7228 129.997 66.8301 130.794H68.3972C68.3543 130.536 68.3328 130.277 68.2899 130.019C68.204 129.416 68.1181 128.791 68.0323 128.188C67.7961 126.465 67.5385 124.742 67.3024 123.019V122.89C66.6798 118.41 66.0358 113.93 65.263 109.386C65.1772 108.89 65.0913 108.416 65.0054 107.921C64.3185 103.937 63.5671 99.8658 62.5582 95.9244V95.9029C62.4938 95.6444 62.4294 95.3644 62.3435 95.106L60.8623 89.4199L59.3811 95.106C59.3167 95.3644 59.2523 95.6444 59.1664 95.9029V95.9244C58.2434 99.6289 57.5779 103.463 56.9124 107.232C56.8695 107.469 56.8265 107.684 56.7836 107.921C56.6977 108.416 56.6119 108.89 56.526 109.386C55.7532 113.93 55.1092 118.41 54.5081 122.89V123.041C54.229 124.828 53.9714 126.616 53.7138 128.404C53.628 128.942 53.5636 129.48 53.4777 130.04C52.8122 134.736 52.1682 139.431 51.3739 144.062C50.9231 146.862 50.4079 149.662 49.7639 152.397C49.721 152.612 49.6566 152.806 49.6137 153.021" fill="black"/>
<path fill-rule="evenodd" clip-rule="evenodd" d="M83.8104 32.9047C83.8104 33.0555 83.7889 33.2278 83.7674 33.4432C83.5742 35.8985 83.1449 41.7353 83.8748 43.3075C85.5707 46.7751 86.9016 50.7381 88.0608 54.3349C89.7567 59.7194 91.2379 65.2547 92.3327 70.7684C92.6977 72.5776 93.0197 74.4729 93.3202 76.4113C93.8569 79.9435 94.2433 83.605 94.2648 87.1157C94.2648 88.4725 94.2218 89.8079 94.093 91.1002C94.0286 91.8325 93.9857 92.5432 93.9213 93.254C93.492 98.0569 92.9123 102.795 92.3327 107.534C92.0751 109.709 91.7961 111.906 91.517 114.081C90.8086 119.638 90.1217 125.216 89.585 130.773H91.1735C91.6887 125.195 92.4615 118.906 93.2558 112.487C93.449 110.894 93.6422 109.3 93.8354 107.706C94.3292 103.592 94.8229 99.4784 95.2308 95.5154C95.381 94.0724 95.5098 92.6294 95.6386 91.2294C95.7245 90.3033 95.7674 89.3771 95.7889 88.4079C95.7889 87.9772 95.7889 87.5464 95.7889 87.0941C95.7889 85.5434 95.703 83.9065 95.5528 82.2481V82.1404C95.5098 81.7312 95.4884 81.3004 95.4454 80.8697C95.4454 80.7189 95.4025 80.5466 95.4025 80.3958C95.4025 80.3312 95.4025 80.2451 95.381 80.1804C95.2522 78.9097 95.0805 77.639 94.8873 76.3467C94.7156 75.1837 94.5224 74.0206 94.3077 72.8576C94.1574 72.0607 94.0072 71.2422 93.8354 70.4453C92.6547 64.5655 91.0662 58.7718 89.4991 53.8396C87.932 48.9074 86.3864 44.8798 85.2701 42.5752C84.8408 41.6491 84.9696 38.0092 85.356 32.9909C85.3775 32.6463 85.3989 32.3017 85.4419 31.9571M32.2039 148.585V148.563C32.7191 146.28 32.7836 143.631 32.7836 141.262C32.7836 138.031 32.483 134.714 32.2039 131.462C31.7102 125.539 30.9589 119.616 30.229 113.693C29.9714 111.669 29.7138 109.623 29.4776 107.598C28.898 102.86 28.3184 98.1215 27.8891 93.3186C27.8247 92.6078 27.7603 91.8755 27.6959 91.1648C27.5886 89.8725 27.5242 88.5372 27.5242 87.1803C27.5242 83.6481 27.9106 79.9435 28.4472 76.3682C28.7478 74.4729 29.0912 72.5991 29.4562 70.8115C30.5725 65.2762 32.0322 59.7625 33.7281 54.378C34.9088 50.7597 36.2397 46.7751 37.8497 43.3291C38.7299 41.606 38.1288 34.9293 37.9141 32.9478L36.3685 32.0432C36.39 32.3878 36.4329 32.7324 36.4544 33.0555V33.1201C36.8408 38.1169 36.9481 41.7353 36.5403 42.6614V42.7045C35.381 45.0306 33.8354 49.0366 32.2898 53.9042C30.7227 58.8364 29.1556 64.6301 27.975 70.5099C27.8247 71.3284 27.653 72.1253 27.5242 72.9222C27.3095 74.0852 27.1163 75.2698 26.9446 76.4328C26.7514 77.7251 26.5796 79.0174 26.4508 80.2881C26.4508 80.3743 26.4508 80.4389 26.4293 80.5251C26.4293 80.6543 26.4079 80.805 26.3864 80.9343C26.3435 81.3435 26.3005 81.7527 26.2791 82.1619V82.2481V82.3127C26.0859 83.9711 26 85.5865 26 87.1587C26 87.611 26 88.0418 26 88.4725C26 89.4417 26.0644 90.3679 26.1503 91.2725C26.2791 92.694 26.4079 94.1155 26.5581 95.5801C26.966 99.5646 27.4383 103.678 27.9535 107.771C28.1467 109.364 28.3399 110.937 28.5331 112.53C29.3703 119.25 30.1861 125.819 30.7013 131.591C31.0233 135.167 31.2165 138.441 31.2594 141.262C31.2809 144.083 31.1306 146.453 30.7442 148.219V148.262" fill="black"/>
<path d="M62.0001 105.036C64.8982 116.946 65.7998 130.3 67.5386 138.915C68.9339 145.85 72.3042 148.995 77.2846 148.995C85.5279 148.995 88.6406 145.549 90.1862 137.58C90.6155 135.383 92.3973 120.457 92.3973 120.457C93.4706 112.294 93.9214 107.039 93.9214 104.799L62.0001 105.036Z" fill="#D3D3D5" stroke="#1D1D1B" stroke-width="0.44" stroke-miterlimit="10"/>
<path d="M92.2898 131.484H65.907C65.7782 131.484 65.6494 131.592 65.585 131.786L64.5117 134.478C64.4043 134.737 64.4043 135.103 64.5117 135.361L65.6065 138.053C65.6923 138.247 65.7997 138.355 65.9285 138.355H92.3113C92.4401 138.355 92.5689 138.247 92.6333 138.053L93.7067 135.361C93.814 135.103 93.814 134.737 93.7067 134.478L92.6118 131.786C92.526 131.592 92.4186 131.484 92.2898 131.484Z" fill="white" stroke="#1D1D1B" stroke-width="0.44" stroke-miterlimit="10"/>
<path d="M64.5116 135.361H93.9427" stroke="#1D1D1B" stroke-width="0.25" stroke-miterlimit="10"/>
<path fill-rule="evenodd" clip-rule="evenodd" d="M139.324 152.741C139.882 150.308 140.397 147.443 140.934 144.299C141.47 141.025 142.007 137.449 142.522 133.745C142.78 131.936 143.038 130.084 143.295 128.21L143.403 127.521C143.531 126.594 143.66 125.668 143.789 124.721V124.548C143.875 124.118 143.939 123.687 144.004 123.234C144.691 118.41 145.377 113.585 146.129 109.106C146.172 108.783 146.236 108.481 146.279 108.158C147.073 103.42 147.932 99.0689 148.855 95.4721C149.8 99.0689 150.637 103.441 151.453 108.179C151.496 108.481 151.56 108.783 151.603 109.084C152.354 113.585 153.063 118.388 153.75 123.213C153.814 123.665 153.878 124.096 153.943 124.527V124.699C154.093 125.604 154.222 126.508 154.351 127.413L154.479 128.382C154.587 129.2 154.716 129.997 154.823 130.794H156.39C156.347 130.536 156.326 130.277 156.283 130.019C156.197 129.416 156.111 128.791 156.025 128.188C155.789 126.465 155.531 124.742 155.295 123.019V122.89C154.673 118.41 154.029 113.93 153.256 109.386C153.17 108.89 153.084 108.416 152.998 107.921C152.311 103.937 151.56 99.8658 150.551 95.9244V95.9029C150.487 95.6444 150.422 95.3644 150.336 95.106L148.855 89.4199L147.374 95.106C147.309 95.3644 147.245 95.6444 147.159 95.9029V95.9244C146.236 99.6289 145.571 103.463 144.905 107.232C144.862 107.469 144.819 107.684 144.776 107.921C144.691 108.416 144.605 108.89 144.519 109.386C143.746 113.93 143.102 118.41 142.501 122.89V123.041C142.222 124.828 141.964 126.616 141.707 128.404C141.621 128.942 141.556 129.48 141.47 130.04C140.805 134.736 140.161 139.431 139.367 144.062C138.916 146.862 138.401 149.661 137.757 152.397C137.714 152.612 137.649 152.806 137.606 153.021" fill="black"/>
<path fill-rule="evenodd" clip-rule="evenodd" d="M171.782 32.9047C171.782 33.0555 171.76 33.2278 171.739 33.4432C171.546 35.8985 171.116 41.7353 171.846 43.3075C173.542 46.7751 174.873 50.7381 176.032 54.3349C177.728 59.7194 179.209 65.2547 180.304 70.7684C180.669 72.5776 180.991 74.4729 181.292 76.4113C181.828 79.9435 182.215 83.605 182.236 87.1157C182.236 88.4725 182.193 89.8079 182.064 91.1002C182 91.8325 181.957 92.5432 181.893 93.254C181.463 98.0569 180.884 102.795 180.304 107.534C180.046 109.709 179.767 111.906 179.488 114.081C178.78 119.638 178.093 125.216 177.556 130.773H179.145C179.66 125.195 180.433 118.906 181.227 112.487C181.42 110.894 181.614 109.3 181.807 107.706C182.301 103.592 182.794 99.4784 183.202 95.5154C183.352 94.0724 183.481 92.6294 183.61 91.2294C183.696 90.3033 183.739 89.3771 183.76 88.4079C183.76 87.9772 183.76 87.5464 183.76 87.0941C183.76 85.5434 183.674 83.9065 183.524 82.2481V82.1404C183.481 81.7312 183.46 81.3004 183.417 80.8697C183.417 80.7189 183.374 80.5466 183.374 80.3958C183.374 80.3312 183.374 80.2451 183.352 80.1804C183.224 78.9097 183.052 77.639 182.859 76.3467C182.687 75.1837 182.494 74.0206 182.279 72.8576C182.129 72.0607 181.979 71.2422 181.807 70.4453C180.626 64.5655 179.038 58.7718 177.47 53.8396C175.903 48.9074 174.358 44.8798 173.241 42.5752C172.812 41.6491 172.941 38.0092 173.327 32.9909C173.349 32.6463 173.37 32.3017 173.413 31.9571M120.175 148.585V148.563C120.69 146.28 120.755 143.631 120.755 141.262C120.755 138.031 120.454 134.714 120.175 131.462C119.682 125.539 118.93 119.616 118.2 113.693C117.943 111.669 117.685 109.623 117.449 107.598C116.869 102.86 116.29 98.1215 115.86 93.3186C115.796 92.6078 115.732 91.8755 115.667 91.1648C115.56 89.8725 115.496 88.5372 115.496 87.1803C115.496 83.6481 115.882 79.9435 116.419 76.3682C116.719 74.4729 117.063 72.5991 117.428 70.8115C118.544 65.2762 120.004 59.7625 121.699 54.378C122.88 50.7597 124.211 46.7751 125.821 43.3291C126.701 41.606 126.1 34.9293 125.885 32.9478L124.34 32.0432C124.361 32.3878 124.404 32.7324 124.426 33.0555V33.1201C124.812 38.1169 124.919 41.7353 124.512 42.6614V42.7045C123.352 45.0306 121.807 49.0366 120.261 53.9042C118.694 58.8364 117.127 64.6301 115.946 70.5099C115.796 71.3284 115.624 72.1253 115.496 72.9222C115.281 74.0852 115.088 75.2698 114.916 76.4328C114.723 77.7251 114.551 79.0174 114.422 80.2881C114.422 80.3743 114.422 80.4389 114.401 80.5251C114.401 80.6543 114.379 80.805 114.358 80.9343C114.315 81.3435 114.272 81.7527 114.25 82.1619V82.2481V82.3127C114.122 83.9711 114.036 85.608 114.014 87.1587C114.014 87.611 114.014 88.0418 114.014 88.4725C114.014 89.4417 114.079 90.3679 114.165 91.2725C114.293 92.694 114.422 94.1155 114.572 95.5801C114.98 99.5646 115.453 103.678 115.968 107.771C116.161 109.364 116.354 110.937 116.547 112.53C117.385 119.25 118.2 125.819 118.716 131.591C119.038 135.167 119.231 138.441 119.274 141.262C119.295 144.083 119.145 146.453 118.758 148.219V148.262" fill="black"/>
<path d="M149.994 105.036C152.892 116.946 153.793 130.3 155.532 138.915C156.928 145.85 160.298 148.995 165.278 148.995C173.522 148.995 176.634 145.549 178.18 137.58C178.609 135.383 180.391 120.457 180.391 120.457C181.464 112.294 181.915 107.039 181.915 104.799L149.994 105.036Z" fill="#D3D3D5" stroke="#1D1D1B" stroke-width="0.44" stroke-miterlimit="10"/>
<path d="M179.489 135.533H154.201C154.072 135.533 153.965 135.576 153.879 135.662L152.849 136.825C152.741 136.933 152.741 137.105 152.849 137.213L153.901 138.376C153.901 138.376 154.094 138.505 154.223 138.505H179.511C179.639 138.505 179.747 138.462 179.833 138.376L180.863 137.213C180.97 137.105 180.97 136.933 180.863 136.825L179.811 135.662C179.811 135.662 179.618 135.533 179.489 135.533Z" fill="white" stroke="#1D1D1B" stroke-width="0.44" stroke-miterlimit="10"/>
<path d="M180.262 131.248H153.879C153.75 131.248 153.622 131.291 153.557 131.377L152.484 132.54C152.376 132.648 152.376 132.82 152.484 132.928L153.579 134.091C153.579 134.091 153.772 134.22 153.901 134.22H180.283C180.412 134.22 180.541 134.177 180.605 134.091L181.679 132.928C181.786 132.82 181.786 132.648 181.679 132.54L180.584 131.377C180.584 131.377 180.391 131.248 180.262 131.248Z" fill="white" stroke="#1D1D1B" stroke-width="0.44" stroke-miterlimit="10"/>
<path d="M178.416 139.797H154.888C154.781 139.797 154.652 139.84 154.588 139.926L153.622 141.089C153.536 141.197 153.536 141.369 153.622 141.477L154.609 142.64C154.609 142.64 154.781 142.769 154.91 142.769H178.437C178.545 142.769 178.673 142.726 178.738 142.64L179.704 141.477C179.79 141.369 179.79 141.197 179.704 141.089L178.716 139.926C178.716 139.926 178.545 139.797 178.416 139.797Z" fill="white" stroke="#1D1D1B" stroke-width="0.44" stroke-miterlimit="10"/>
</g>
<path d="M31.3568 170.8C34.9728 170.8 37.9648 172.048 37.9648 176.4C37.9648 180.752 34.9728 182 31.3568 182H26.7488V170.8H31.3568ZM31.1168 180.336C34.1728 180.336 35.9488 179.296 35.9488 176.4C35.9488 173.52 34.1728 172.464 31.1168 172.464H28.7168V180.336H31.1168ZM39.7294 182V173.472H41.6974V182H39.7294ZM40.7054 172.288C40.0974 172.288 39.6654 171.936 39.6654 171.328C39.6654 170.72 40.0974 170.368 40.7054 170.368C41.3294 170.368 41.7614 170.72 41.7614 171.328C41.7614 171.936 41.3294 172.288 40.7054 172.288ZM48.4285 177.008C50.8445 177.424 52.2045 177.744 52.2045 179.424C52.2045 181.408 50.5565 182.24 47.7085 182.24C45.1165 182.24 43.1325 181.344 43.1325 179.408H45.1645C45.1645 180.336 46.0765 180.752 47.8685 180.752C49.6125 180.752 50.2365 180.32 50.2365 179.68C50.2365 178.736 48.8125 178.72 46.6365 178.32C44.4285 177.904 43.4525 177.392 43.4525 175.872C43.4525 174.16 45.0525 173.232 47.5645 173.232C50.3005 173.232 51.7725 174.32 51.7725 175.904H49.9325C49.9325 175.36 49.3565 174.688 47.5325 174.688C45.8205 174.688 45.2285 175.12 45.2285 175.776C45.2285 176.64 46.9085 176.752 48.4285 177.008ZM59.063 174.976H56.487V178.816C56.487 180.256 57.063 180.656 59.063 180.448V181.984C58.775 182.064 58.343 182.128 57.943 182.128C55.351 182.128 54.519 181.072 54.519 178.816V174.976H52.855V173.472H54.519V171.264H56.487V173.472H59.063V174.976ZM64.8034 173.232C67.1554 173.232 69.1554 174.016 69.1554 176.464V182H67.1874V180.896C66.7714 181.376 65.7474 182.24 63.7474 182.24C61.6994 182.24 60.3394 181.392 60.3394 179.76C60.3394 178 61.2994 176.608 67.1874 176.992V176.464C67.1874 175.28 66.5794 174.688 64.8034 174.688C63.2834 174.688 62.6594 175.184 62.5154 175.904H60.6754C60.9314 174.112 62.5954 173.232 64.8034 173.232ZM67.1874 179.6V178.176C63.6354 178 62.3554 178.304 62.3554 179.632C62.3554 180.496 63.0274 180.928 64.1634 180.928C65.6674 180.928 66.6594 180.368 67.1874 179.6ZM71.4013 170.192H73.3693V182H71.4013V170.192ZM79.7644 173.232C82.4684 173.232 84.6444 174.832 84.4204 178.368H76.7404C76.9644 179.824 78.0044 180.784 79.7964 180.784C81.4604 180.784 82.1644 179.984 82.4524 179.376H84.1804C83.7484 181.12 82.0844 182.24 79.7964 182.24C77.3644 182.24 74.9644 180.848 74.9644 177.744C74.9644 174.688 77.3164 173.232 79.7644 173.232ZM76.7884 176.928H82.6604C82.4044 175.584 81.4764 174.688 79.7644 174.688C78.1804 174.688 77.0924 175.584 76.7884 176.928ZM100.363 182L99.2265 179.504H92.8105L91.6905 182H89.5625L94.7465 170.8H97.3065L102.491 182H100.363ZM93.5625 177.84H98.4905L96.0265 172.352L93.5625 177.84ZM108.708 173.232C111.204 173.232 113.14 174.848 113.14 177.744C113.14 180.624 111.204 182.24 108.708 182.24C107.268 182.24 106.244 181.696 105.572 180.88V182H103.604V170.8H105.572V174.592C106.244 173.776 107.268 173.232 108.708 173.232ZM108.324 180.784C110.372 180.784 111.316 179.536 111.316 177.744C111.316 175.936 110.388 174.688 108.324 174.688C106.26 174.688 105.284 175.968 105.284 177.744C105.284 179.504 106.276 180.784 108.324 180.784ZM121.657 170.8H123.625V182H121.657V180.88C120.985 181.696 119.961 182.24 118.537 182.24C116.041 182.24 114.105 180.624 114.105 177.744C114.105 174.848 116.041 173.232 118.537 173.232C119.961 173.232 120.985 173.776 121.657 174.592V170.8ZM118.921 180.784C120.953 180.784 121.961 179.504 121.961 177.744C121.961 175.968 120.985 174.688 118.921 174.688C116.841 174.688 115.929 175.936 115.929 177.744C115.929 179.536 116.873 180.784 118.921 180.784ZM125.87 182V173.472H127.838V182H125.87ZM126.846 172.288C126.238 172.288 125.806 171.936 125.806 171.328C125.806 170.72 126.238 170.368 126.846 170.368C127.47 170.368 127.902 170.72 127.902 171.328C127.902 171.936 127.47 172.288 126.846 172.288ZM134.345 180.784C136.073 180.784 136.937 179.776 137.177 178.816H139.017C138.601 181.088 136.649 182.24 134.345 182.24C131.849 182.24 129.433 180.896 129.433 177.744C129.433 174.592 131.849 173.232 134.345 173.232C136.649 173.232 138.601 174.384 139.017 176.656H137.177C136.937 175.696 136.073 174.688 134.345 174.688C132.057 174.688 131.241 176.24 131.241 177.744C131.241 179.232 132.057 180.784 134.345 180.784ZM145.852 173.232C148.076 173.232 149.292 174.496 149.292 176.48V182H147.324V177.072C147.324 175.632 146.54 174.832 144.988 174.832C143.436 174.832 142.588 175.728 142.588 177.072V182H140.62V170.8H142.588V174.784C142.988 174.224 144.076 173.232 145.852 173.232ZM156.782 174.976H154.206V178.816C154.206 180.256 154.782 180.656 156.782 180.448V181.984C156.494 182.064 156.062 182.128 155.662 182.128C153.07 182.128 152.238 181.072 152.238 178.816V174.976H150.574V173.472H152.238V171.264H154.206V173.472H156.782V174.976ZM165.402 173.472H167.37V182H165.402V180.688C165.002 181.248 163.914 182.24 162.138 182.24C159.914 182.24 158.698 180.976 158.698 178.992V173.472H160.666V178.4C160.666 179.84 161.45 180.64 163.002 180.64C164.554 180.64 165.402 179.744 165.402 178.4V173.472ZM174.836 173.232C177.06 173.232 178.276 174.496 178.276 176.48V182H176.308V177.072C176.308 175.632 175.524 174.832 173.972 174.832C172.42 174.832 171.572 175.728 171.572 177.072V182H169.604V173.472H171.572V174.784C171.972 174.224 173.06 173.232 174.836 173.232ZM187.439 173.472H189.407V181.184C189.407 184.48 186.895 184.976 184.447 184.976C181.775 184.976 180.175 184.032 179.999 182.416H181.823C181.951 182.928 182.591 183.488 184.447 183.488C186.831 183.488 187.439 182.72 187.439 181.184V180.24C186.815 180.992 185.807 181.472 184.303 181.472C181.823 181.472 179.871 180.24 179.871 177.44C179.871 174.624 181.823 173.232 184.303 173.232C185.807 173.232 186.815 173.792 187.439 174.624V173.472ZM184.687 180.192C186.527 180.192 187.743 179.2 187.743 177.44C187.743 175.664 186.559 174.688 184.687 174.688C182.831 174.688 181.695 175.632 181.695 177.44C181.695 179.232 182.847 180.192 184.687 180.192Z" fill="black"/>
<defs>
<clipPath id="clip0_4143_702">
<rect width="180" height="121" fill="white" transform="translate(26 32)"/>
</clipPath>
</defs>
</svg>
