<svg width="132" height="187" viewBox="0 0 132 187" fill="none" xmlns="http://www.w3.org/2000/svg">
<rect width="132" height="187" rx="10" fill="white"/>
<path d="M31.1983 175.752H37.0663V177H29.0023V175.98L34.7623 169.848H29.2303V168.6H36.9463V169.632L31.1983 175.752ZM43.5399 170.604H45.0159V177H43.5399V176.016C43.2399 176.436 42.4239 177.18 41.0919 177.18C39.4239 177.18 38.5119 176.232 38.5119 174.744V170.604H39.9879V174.3C39.9879 175.38 40.5759 175.98 41.7399 175.98C42.9039 175.98 43.5399 175.308 43.5399 174.3V170.604ZM51.8876 170.604H53.3636V176.388C53.3636 178.86 51.4796 179.232 49.6436 179.232C47.6396 179.232 46.4396 178.524 46.3076 177.312H47.6756C47.7716 177.696 48.2516 178.116 49.6436 178.116C51.4316 178.116 51.8876 177.54 51.8876 176.388V175.68C51.4196 176.244 50.6636 176.604 49.5356 176.604C47.6756 176.604 46.2116 175.68 46.2116 173.58C46.2116 171.468 47.6756 170.424 49.5356 170.424C50.6636 170.424 51.4196 170.844 51.8876 171.468V170.604ZM49.8236 175.644C51.2036 175.644 52.1156 174.9 52.1156 173.58C52.1156 172.248 51.2276 171.516 49.8236 171.516C48.4316 171.516 47.5796 172.224 47.5796 173.58C47.5796 174.924 48.4436 175.644 49.8236 175.644ZM58.419 173.256C60.231 173.568 61.251 173.808 61.251 175.068C61.251 176.556 60.015 177.18 57.879 177.18C55.935 177.18 54.447 176.508 54.447 175.056H55.971C55.971 175.752 56.655 176.064 57.999 176.064C59.307 176.064 59.775 175.74 59.775 175.26C59.775 174.552 58.707 174.54 57.075 174.24C55.419 173.928 54.687 173.544 54.687 172.404C54.687 171.12 55.887 170.424 57.771 170.424C59.823 170.424 60.927 171.24 60.927 172.428H59.547C59.547 172.02 59.115 171.516 57.747 171.516C56.463 171.516 56.019 171.84 56.019 172.332C56.019 172.98 57.279 173.064 58.419 173.256ZM67.226 170.604H68.774L64.934 179.004H63.47L64.466 176.772L61.49 170.604H63.038L65.162 175.224L67.226 170.604ZM72.9972 173.256C74.8092 173.568 75.8292 173.808 75.8292 175.068C75.8292 176.556 74.5932 177.18 72.4572 177.18C70.5132 177.18 69.0252 176.508 69.0252 175.056H70.5492C70.5492 175.752 71.2332 176.064 72.5772 176.064C73.8852 176.064 74.3532 175.74 74.3532 175.26C74.3532 174.552 73.2852 174.54 71.6532 174.24C69.9972 173.928 69.2652 173.544 69.2652 172.404C69.2652 171.12 70.4652 170.424 72.3492 170.424C74.4012 170.424 75.5052 171.24 75.5052 172.428H74.1252C74.1252 172.02 73.6932 171.516 72.3252 171.516C71.0412 171.516 70.5972 171.84 70.5972 172.332C70.5972 172.98 71.8572 173.064 72.9972 173.256ZM80.973 171.732H79.041V174.612C79.041 175.692 79.473 175.992 80.973 175.836V176.988C80.757 177.048 80.433 177.096 80.133 177.096C78.189 177.096 77.565 176.304 77.565 174.612V171.732H76.317V170.604H77.565V168.948H79.041V170.604H80.973V171.732ZM85.4131 170.424C87.4411 170.424 89.0731 171.624 88.9051 174.276H83.1451C83.3131 175.368 84.0931 176.088 85.4371 176.088C86.6851 176.088 87.2131 175.488 87.4291 175.032H88.7251C88.4011 176.34 87.1531 177.18 85.4371 177.18C83.6131 177.18 81.8131 176.136 81.8131 173.808C81.8131 171.516 83.5771 170.424 85.4131 170.424ZM83.1811 173.196H87.5851C87.3931 172.188 86.6971 171.516 85.4131 171.516C84.2251 171.516 83.4091 172.188 83.1811 173.196ZM98.2813 170.424C99.9493 170.424 100.753 171.372 100.753 172.86V177H99.2653V173.304C99.2653 172.224 98.8693 171.624 97.7413 171.624C96.6253 171.624 96.1693 172.344 96.1693 173.304V177H94.6933V173.304C94.6933 172.224 94.2853 171.624 93.1693 171.624C92.0533 171.624 91.5973 172.344 91.5973 173.304V177H90.1213V170.604H91.5973V171.54C91.8373 171.12 92.4492 170.424 93.6973 170.424C94.8013 170.424 95.5213 170.832 95.8813 171.54C96.2053 171.108 96.9973 170.424 98.2813 170.424Z" fill="black"/>
<g clip-path="url(#clip0_9399_4560)">
<rect width="63" height="119" transform="translate(36 24)" fill="white"/>
<path fill-rule="evenodd" clip-rule="evenodd" d="M60.3042 142.997C60.7812 139.985 61.2582 136.705 61.7351 133.28C61.9632 131.609 62.2121 129.917 62.4402 128.184L62.5231 127.544C62.6476 126.698 62.7512 125.832 62.8757 124.965V124.8C62.9586 124.408 63.0001 123.996 63.0623 123.604C63.6637 119.148 64.3065 114.732 64.9701 110.606C65.0116 110.317 65.0738 110.029 65.1153 109.74C65.8411 105.387 66.6084 101.384 67.4379 98.0626C68.2881 101.384 69.0554 105.387 69.7812 109.76C69.8227 110.029 69.8641 110.317 69.9264 110.606C70.6107 114.753 71.2328 119.189 71.8549 123.604C71.9171 124.016 71.9586 124.408 72.0208 124.821V124.965C72.166 125.811 72.2697 126.637 72.3941 127.462L72.5185 128.349C72.6222 129.092 72.7259 129.834 72.8296 130.577H74.2397C74.1983 130.33 74.1775 130.103 74.136 129.855C74.0531 129.298 73.9909 128.741 73.9079 128.163C73.6798 126.575 73.4724 124.986 73.2443 123.398V123.274C72.6844 119.148 72.1038 115.021 71.4194 110.854C71.3365 110.4 71.2743 109.946 71.1913 109.513C70.5692 105.84 69.8849 102.106 68.9932 98.4752V98.4546C68.931 98.207 68.8688 97.9594 68.8065 97.7118L67.4794 92.4922L66.1522 97.7118C66.09 97.9594 66.0277 98.207 65.9655 98.4546V98.4752C65.1153 101.9 64.5347 105.407 63.9333 108.873C63.8918 109.08 63.8711 109.286 63.8296 109.513C63.7466 109.967 63.6844 110.4 63.6015 110.854C62.9171 115.042 62.3158 119.168 61.7766 123.294V123.418C61.5277 125.069 61.2996 126.719 61.0715 128.349C61.0093 128.844 60.9264 129.339 60.8641 129.855C60.2628 134.188 59.6821 138.499 58.9771 142.749" fill="black"/>
<path fill-rule="evenodd" clip-rule="evenodd" d="M89.5023 25.6299C89.5023 25.8362 89.4608 26.0425 89.4401 26.2694C89.4194 26.5789 89.3779 26.8883 89.3571 27.1978C89.3571 27.3835 89.3157 27.5692 89.2949 27.7549C89.1498 29.2403 89.0046 30.7051 88.8802 32.1905C88.6313 34.9551 88.3825 37.7197 88.1336 40.5049C88.1336 40.6493 88.1129 40.8143 88.0922 41C87.9263 43.2694 87.5323 48.6335 88.1959 50.0777C89.7304 53.2549 90.9124 56.9066 91.97 60.2282C93.5046 65.1796 94.8318 70.2755 95.8272 75.3507C96.1382 77.0218 96.4493 78.7755 96.7189 80.5498C97.2166 83.8095 97.5484 87.1723 97.5691 90.4114C97.5691 91.6493 97.5276 92.8871 97.424 94.0837C97.3825 94.7439 97.3203 95.4041 97.2581 96.0643C96.8641 100.479 96.3456 104.853 95.8272 109.206C95.5991 111.208 95.3502 113.229 95.1014 115.231C94.4793 120.347 93.8364 125.484 93.3594 130.601H94.7903C95.2465 125.464 95.9516 119.687 96.6774 113.766C96.8641 112.301 97.03 110.836 97.2166 109.371C97.6728 105.596 98.1083 101.8 98.4816 98.1481C98.606 96.807 98.7304 95.5073 98.8548 94.2075C98.917 93.3616 98.9793 92.4951 98.9793 91.608C98.9793 91.216 98.9793 90.8034 98.9793 90.4114C98.9793 88.9879 98.8963 87.4818 98.7719 85.9551V85.8519C98.7304 85.4599 98.7097 85.0886 98.6682 84.6966C98.6682 84.5522 98.6475 84.4078 98.6267 84.2427C98.6267 84.1808 98.6267 84.1189 98.606 84.0364C98.4816 82.8811 98.3364 81.6845 98.1498 80.5085C97.9839 79.4563 97.818 78.3835 97.6313 77.3107C97.5069 76.568 97.3617 75.8252 97.2166 75.0825C96.1382 69.6772 94.7074 64.3337 93.2972 59.8155C91.8871 55.2767 90.4977 51.5837 89.4816 49.4381C89.0876 48.5922 89.212 45.2294 89.5438 40.6286C89.5645 40.2985 89.5853 39.9891 89.606 39.6796C89.7304 38.0085 89.8963 36.1723 90.0829 34.2536V34.2124C90.1452 33.5109 90.2074 32.8095 90.2903 32.0874C90.3318 31.5922 90.3733 31.0971 90.4355 30.6019V30.4782C90.5392 29.5704 90.6221 28.642 90.7051 27.7136V27.5692L90.7673 27.1153V27.074V27.0121L90.8502 26.1869V26.125C90.9332 25.4235 91.0576 24.0206 91.0576 24.0206L89.523 25.6505L89.5023 25.6299ZM42.1175 140.194C42.1175 137.223 41.8479 134.17 41.5783 131.178C41.1221 125.732 40.4585 120.265 39.7949 114.818C39.5668 112.941 39.3387 111.084 39.1106 109.206C38.5922 104.853 38.0737 100.479 37.6797 96.0643C37.6175 95.4041 37.576 94.7439 37.5138 94.0837C37.4101 92.8871 37.3687 91.6699 37.3687 90.4114C37.3687 87.1517 37.7005 83.7476 38.1982 80.4672C38.4677 78.7136 38.7788 77.0012 39.1106 75.3507C40.106 70.2755 41.4332 65.1796 42.9677 60.2282C44.0253 56.9066 45.2281 53.2342 46.6797 50.057C47.4677 48.4684 46.9493 42.3204 46.7419 40.5049C46.5346 37.7403 46.3065 34.9757 46.0576 32.2112C45.9332 30.7257 45.788 29.2197 45.6429 27.7342C45.6429 27.5485 45.6014 27.3629 45.5806 27.1772C45.5599 26.8471 45.5184 26.5376 45.4977 26.2075C45.4977 26.0218 45.4562 25.8155 45.4355 25.6299L43.9424 24C43.9424 24 44.1083 25.6505 44.1705 26.4551V26.517L44.212 26.9709V27.0328L44.2535 27.5073C44.3571 28.5182 44.4401 29.5085 44.5438 30.4988V30.5607C44.606 31.0558 44.6475 31.551 44.6889 32.0255C44.7512 32.7476 44.8134 33.4697 44.8963 34.1711V34.233C45.0829 36.1311 45.2281 37.9466 45.3733 39.6177C45.394 39.9272 45.4147 40.2573 45.4355 40.5461V40.5874C45.788 45.1881 45.8917 48.5303 45.4977 49.3762V49.4175C44.4608 51.5631 43.0714 55.2354 41.6613 59.733C40.2512 64.2718 38.8203 69.5947 37.7627 75C37.6175 75.7427 37.4724 76.4854 37.3479 77.2075C37.1613 78.2803 36.9747 79.3738 36.8295 80.4466C36.6636 81.6432 36.4977 82.8192 36.3733 83.9951C36.3733 84.057 36.3733 84.1396 36.3525 84.2015C36.3525 84.3252 36.3318 84.449 36.3111 84.5934C36.2696 84.9648 36.2488 85.3362 36.2074 85.7075V85.79V85.8519C36.0829 87.3786 36.0207 88.8847 36 90.3083C36 90.7209 36 91.1129 36 91.5255C36 92.4126 36.0622 93.2585 36.1244 94.1044C36.2281 95.4041 36.3525 96.7245 36.4977 98.0655C36.871 101.717 37.3065 105.513 37.7627 109.289C37.9286 110.754 38.1152 112.218 38.2811 113.663C39.0276 119.852 39.7742 125.876 40.2304 131.199C40.5207 134.5 40.7074 137.512 40.7281 140.091" fill="black"/>
<path d="M67.832 98.7894C70.6108 110.137 71.4818 122.866 73.1615 131.077C74.5095 137.7 77.7445 140.671 82.5348 140.671C90.4565 140.671 93.4634 137.39 94.9357 129.798C95.3505 127.714 97.0717 113.479 97.0717 113.479C98.1085 105.68 98.5233 100.687 98.5233 98.5625L67.832 98.7894Z" fill="#D3D3D5" stroke="black" stroke-width="0.44" stroke-miterlimit="10"/>
<path d="M74.1567 134.211H93.712" stroke="black" stroke-width="0.29" stroke-miterlimit="10"/>
<path d="M87.4702 105.164H79.8804V108.259H87.4702V105.164Z" stroke="black" stroke-width="0.29" stroke-miterlimit="10"/>
<path d="M86.1223 106.562H81.249V141.883H86.1223V106.562Z" fill="white" stroke="black" stroke-width="0.29" stroke-miterlimit="10"/>
</g>
<defs>
<clipPath id="clip0_9399_4560">
<rect width="63" height="119" fill="white" transform="translate(36 24)"/>
</clipPath>
</defs>
</svg>
