<svg width="217" height="195" viewBox="0 0 217 195" fill="none" xmlns="http://www.w3.org/2000/svg">
<rect x="8.52372e-06" y="2.47442e-05" width="217" height="195" rx="10" fill="#D9D9D9"/>
<g clip-path="url(#clip0_4143_730)">
<path fill-rule="evenodd" clip-rule="evenodd" d="M99.5478 157C100.108 153.456 100.668 149.597 101.228 145.567C101.496 143.601 101.789 141.611 102.057 139.572L102.154 138.82C102.3 137.825 102.422 136.805 102.568 135.786V135.592C102.666 135.131 102.714 134.645 102.787 134.184C103.494 128.941 104.249 123.747 105.028 118.893C105.077 118.553 105.15 118.213 105.199 117.873C106.051 112.752 106.953 108.043 107.927 104.135C108.926 108.043 109.827 112.752 110.679 117.898C110.728 118.213 110.777 118.553 110.85 118.893C111.654 123.771 112.384 128.99 113.115 134.184C113.188 134.669 113.237 135.131 113.31 135.616V135.786C113.481 136.781 113.602 137.752 113.749 138.723L113.895 139.767C114.016 140.64 114.138 141.514 114.26 142.388H115.916C115.868 142.097 115.843 141.83 115.795 141.538C115.697 140.883 115.624 140.228 115.527 139.548C115.259 137.679 115.015 135.81 114.747 133.941V133.796C114.09 128.941 113.408 124.087 112.604 119.184C112.506 118.65 112.433 118.116 112.336 117.606C111.605 113.286 110.801 108.893 109.754 104.621V104.597C109.681 104.305 109.608 104.014 109.535 103.723L107.976 97.5821L106.417 103.723C106.344 104.014 106.271 104.305 106.198 104.597V104.621C105.199 108.65 104.517 112.776 103.81 116.854C103.762 117.097 103.737 117.339 103.689 117.606C103.591 118.14 103.518 118.65 103.421 119.184C102.617 124.111 101.91 128.966 101.277 133.82V133.966C100.985 135.907 100.717 137.849 100.449 139.767C100.376 140.349 100.279 140.932 100.205 141.538C99.499 146.635 98.817 151.708 97.9888 156.708" fill="#050A0A"/>
<path fill-rule="evenodd" clip-rule="evenodd" d="M133.844 18.9175C133.844 19.1602 133.795 19.4029 133.771 19.6699C133.747 20.034 133.698 20.3981 133.673 20.7622C133.673 20.9806 133.625 21.1991 133.6 21.4175C133.43 23.1651 133.259 24.8884 133.113 26.6359C132.821 29.8884 132.529 33.1408 132.236 36.4175C132.236 36.5874 132.212 36.7816 132.188 37C131.993 39.6699 131.53 45.9806 132.309 47.6796C134.112 51.4175 135.5 55.7136 136.743 59.6214C138.545 65.4466 140.104 71.4418 141.273 77.4126C141.639 79.3787 142.004 81.4418 142.321 83.5292C142.905 87.3641 143.295 91.3204 143.319 95.1311C143.319 96.5874 143.271 98.0437 143.149 99.4515C143.1 100.228 143.027 101.005 142.954 101.782C142.491 106.976 141.882 112.121 141.273 117.243C141.005 119.597 140.713 121.976 140.421 124.33C139.69 130.35 138.935 136.393 138.375 142.413H140.055C140.591 136.369 141.419 129.573 142.272 122.607C142.491 120.884 142.686 119.16 142.905 117.437C143.441 112.995 143.953 108.529 144.391 104.233C144.537 102.655 144.683 101.126 144.829 99.5971C144.903 98.602 144.976 97.5826 144.976 96.5389C144.976 96.0777 144.976 95.5923 144.976 95.1311C144.976 93.4563 144.878 91.6845 144.732 89.8884V89.767C144.683 89.3058 144.659 88.869 144.61 88.4078C144.61 88.2379 144.586 88.068 144.562 87.8738C144.562 87.801 144.562 87.7282 144.537 87.6311C144.391 86.2719 144.221 84.8641 144.001 83.4806C143.806 82.2427 143.612 80.9806 143.392 79.7185C143.246 78.8447 143.076 77.9709 142.905 77.0971C141.639 70.7379 139.958 64.4515 138.302 59.136C136.645 53.7961 135.013 49.4515 133.82 46.9272C133.357 45.9321 133.503 41.9758 133.893 36.5631C133.917 36.1748 133.941 35.8107 133.966 35.4466C134.112 33.4806 134.307 31.3204 134.526 29.0631V29.0146C134.599 28.1893 134.672 27.3641 134.77 26.5146C134.818 25.9321 134.867 25.3495 134.94 24.767V24.6214C135.062 23.5534 135.159 22.4612 135.257 21.369V21.1991L135.33 20.6651V20.6165V20.5437L135.427 19.5728V19.5C135.525 18.6748 135.671 17.0243 135.671 17.0243L133.868 18.9418L133.844 18.9175ZM78.1857 153.699C78.1857 150.204 77.869 146.612 77.5523 143.092C77.0165 136.684 76.237 130.252 75.4575 123.845C75.1896 121.636 74.9217 119.451 74.6537 117.243C74.0448 112.121 73.4358 106.976 72.973 101.782C72.8999 101.005 72.8512 100.228 72.7782 99.4515C72.6564 98.0437 72.6076 96.6117 72.6076 95.1311C72.6076 91.2961 72.9974 87.2913 73.582 83.4321C73.8986 81.369 74.264 79.3544 74.6537 77.4126C75.8229 71.4418 77.3818 65.4466 79.1843 59.6214C80.4266 55.7136 81.8394 51.3932 83.5444 47.6554C84.4701 45.7864 83.8611 38.5534 83.6175 36.4175C83.3739 33.1651 83.106 29.9126 82.8137 26.6602C82.6676 24.9126 82.497 23.1408 82.3265 21.3932C82.3265 21.1748 82.2778 20.9563 82.2535 20.7379C82.2291 20.3495 82.1804 19.9855 82.156 19.5971C82.156 19.3787 82.1073 19.1359 82.083 18.9175L80.3292 17C80.3292 17 80.524 18.9418 80.5971 19.8884V19.9612L80.6458 20.4952V20.568L80.6945 21.1262C80.8163 22.3156 80.9138 23.4806 81.0356 24.6457V24.7185C81.1086 25.301 81.1573 25.8835 81.2061 26.4418C81.2791 27.2913 81.3522 28.1408 81.4496 28.966V29.0389C81.6689 31.2719 81.8394 33.4078 82.0099 35.3738C82.0342 35.7379 82.0586 36.1262 82.083 36.466V36.5146C82.497 41.9272 82.6188 45.8592 82.156 46.8544V46.9029C80.9381 49.4272 79.3061 53.7476 77.6498 59.0389C75.9934 64.3787 74.3127 70.6408 73.0704 77C72.8999 77.8738 72.7294 78.7476 72.5833 79.5971C72.3641 80.8593 72.1448 82.1457 71.9743 83.4078C71.7795 84.8156 71.5846 86.1991 71.4385 87.5826C71.4385 87.6554 71.4385 87.7525 71.4141 87.8253C71.4141 87.9709 71.3897 88.1165 71.3654 88.2864C71.3167 88.7233 71.2923 89.1602 71.2436 89.5971V89.6942V89.767C71.0974 91.5631 71.0244 93.335 71 95.0097C71 95.4952 71 95.9563 71 96.4418C71 97.4855 71.0731 98.4806 71.1462 99.4758C71.2679 101.005 71.4141 102.558 71.5846 104.136C72.0231 108.432 72.5346 112.898 73.0704 117.34C73.2653 119.063 73.4845 120.786 73.6794 122.485C74.5563 129.767 75.4332 136.854 75.9691 143.117C76.3101 147 76.5293 150.544 76.5537 153.578" fill="#050A0A"/>
<path d="M108.39 104.986C111.654 118.335 112.677 133.311 114.65 142.971C116.233 150.762 120.033 154.258 125.66 154.258C134.964 154.258 138.496 150.398 140.226 141.466C140.713 139.015 142.735 122.267 142.735 122.267C143.953 113.093 144.44 107.219 144.44 104.719L108.39 104.986Z" fill="#D3D3D5" stroke="#050A0A" stroke-width="0.44" stroke-miterlimit="10"/>
<path d="M115.819 146.66H138.789" stroke="#1D1D1B" stroke-width="0.29" stroke-miterlimit="10"/>
<path d="M131.457 112.486H122.542V116.127H131.457V112.486Z" stroke="#050A0A" stroke-width="0.29" stroke-miterlimit="10"/>
<path d="M129.874 114.137H124.149V155.69H129.874V114.137Z" fill="white" stroke="#050A0A" stroke-width="0.29" stroke-miterlimit="10"/>
</g>
<path d="M62.9311 180.336H70.7551V182H60.0031V180.64L67.6831 172.464H60.3071V170.8H70.5951V172.176L62.9311 180.336ZM79.3865 173.472H81.3545V182H79.3865V180.688C78.9865 181.248 77.8985 182.24 76.1225 182.24C73.8985 182.24 72.6825 180.976 72.6825 178.992V173.472H74.6505V178.4C74.6505 179.84 75.4345 180.64 76.9865 180.64C78.5385 180.64 79.3865 179.744 79.3865 178.4V173.472ZM90.5168 173.472H92.4848V181.184C92.4848 184.48 89.9728 184.976 87.5248 184.976C84.8528 184.976 83.2528 184.032 83.0768 182.416H84.9008C85.0288 182.928 85.6688 183.488 87.5248 183.488C89.9088 183.488 90.5168 182.72 90.5168 181.184V180.24C89.8928 180.992 88.8848 181.472 87.3808 181.472C84.9008 181.472 82.9488 180.24 82.9488 177.44C82.9488 174.624 84.9008 173.232 87.3808 173.232C88.8848 173.232 89.8928 173.792 90.5168 174.624V173.472ZM87.7648 180.192C89.6048 180.192 90.8208 179.2 90.8208 177.44C90.8208 175.664 89.6368 174.688 87.7648 174.688C85.9088 174.688 84.7728 175.632 84.7728 177.44C84.7728 179.232 85.9248 180.192 87.7648 180.192ZM99.2254 177.008C101.641 177.424 103.001 177.744 103.001 179.424C103.001 181.408 101.353 182.24 98.5054 182.24C95.9134 182.24 93.9294 181.344 93.9294 179.408H95.9614C95.9614 180.336 96.8734 180.752 98.6654 180.752C100.409 180.752 101.033 180.32 101.033 179.68C101.033 178.736 99.6094 178.72 97.4334 178.32C95.2254 177.904 94.2494 177.392 94.2494 175.872C94.2494 174.16 95.8494 173.232 98.3614 173.232C101.097 173.232 102.569 174.32 102.569 175.904H100.729C100.729 175.36 100.153 174.688 98.3294 174.688C96.6174 174.688 96.0254 175.12 96.0254 175.776C96.0254 176.64 97.7054 176.752 99.2254 177.008ZM110.968 173.472H113.032L107.912 184.672H105.96L107.288 181.696L103.32 173.472H105.384L108.216 179.632L110.968 173.472ZM118.663 177.008C121.079 177.424 122.439 177.744 122.439 179.424C122.439 181.408 120.791 182.24 117.943 182.24C115.351 182.24 113.367 181.344 113.367 179.408H115.399C115.399 180.336 116.311 180.752 118.103 180.752C119.847 180.752 120.471 180.32 120.471 179.68C120.471 178.736 119.047 178.72 116.871 178.32C114.663 177.904 113.687 177.392 113.687 175.872C113.687 174.16 115.287 173.232 117.799 173.232C120.535 173.232 122.007 174.32 122.007 175.904H120.167C120.167 175.36 119.591 174.688 117.767 174.688C116.055 174.688 115.463 175.12 115.463 175.776C115.463 176.64 117.143 176.752 118.663 177.008ZM129.297 174.976H126.721V178.816C126.721 180.256 127.297 180.656 129.297 180.448V181.984C129.009 182.064 128.577 182.128 128.177 182.128C125.585 182.128 124.753 181.072 124.753 178.816V174.976H123.089V173.472H124.753V171.264H126.721V173.472H129.297V174.976ZM135.218 173.232C137.922 173.232 140.098 174.832 139.874 178.368H132.194C132.418 179.824 133.458 180.784 135.25 180.784C136.914 180.784 137.618 179.984 137.906 179.376H139.634C139.202 181.12 137.538 182.24 135.25 182.24C132.818 182.24 130.418 180.848 130.418 177.744C130.418 174.688 132.77 173.232 135.218 173.232ZM132.242 176.928H138.114C137.858 175.584 136.93 174.688 135.218 174.688C133.634 174.688 132.546 175.584 132.242 176.928ZM152.375 173.232C154.599 173.232 155.671 174.496 155.671 176.48V182H153.687V177.072C153.687 175.632 153.159 174.832 151.655 174.832C150.167 174.832 149.559 175.792 149.559 177.072V182H147.591V177.072C147.591 175.632 147.047 174.832 145.559 174.832C144.071 174.832 143.463 175.792 143.463 177.072V182H141.495V173.472H143.463V174.72C143.783 174.16 144.599 173.232 146.263 173.232C147.735 173.232 148.695 173.776 149.175 174.72C149.607 174.144 150.663 173.232 152.375 173.232Z" fill="black"/>
<defs>
<clipPath id="clip0_4143_730">
<rect width="74" height="140" fill="white" transform="translate(71 17)"/>
</clipPath>
</defs>
</svg>
