<svg width="217" height="195" viewBox="0 0 217 195" fill="none" xmlns="http://www.w3.org/2000/svg">
<rect width="217" height="195" rx="10" fill="#D9D9D9"/>
<g clip-path="url(#clip0_2690_291)">
<path fill-rule="evenodd" clip-rule="evenodd" d="M144.792 28C145.623 36.7943 143.931 45.2125 142.981 54.0067C141.585 67.8345 138.32 82.0963 140.071 95.172C143.307 109.115 143.248 125.692 140.546 140.3H138.943C141.645 126.01 141.764 109.636 138.528 95.548C136.717 83.9188 139.329 72.087 140.517 60.4867C141.496 52.7049 142.565 44.9521 143.218 37.0835" fill="#1D1D1B"/>
<path fill-rule="evenodd" clip-rule="evenodd" d="M93.582 141.95L93.8789 140.098C95.3336 128.729 97.1741 116.955 94.9179 105.586L95.0664 105.21C95.8085 103.619 96.2835 101.768 96.6992 100.061C100.113 85.4522 101.301 70.4672 103.943 55.6848C104.061 54.9615 104.21 54.2383 104.329 53.5151C105.011 49.6676 105.694 45.7912 106.674 42.0016C106.793 41.5387 108.277 35.9555 108.425 35.377C112.374 48.8576 114.214 62.8879 116.203 76.7158C117.361 84.3529 118.311 91.99 120.092 99.4536C120.478 101.334 121.013 103.446 121.785 105.239L122.022 105.615C119.766 117.1 121.369 128.874 122.735 140.358H121.131C120.627 136.569 120.181 132.837 119.855 129.163C119.113 120.832 118.935 113.108 120.3 105.847C114.036 85.7993 113.828 61.8176 108.425 41.5677C107.386 45.4151 106.377 50.4776 105.546 55.4244C102.726 70.0911 101.835 86.4936 98.0054 101.045C97.2929 103.793 96.8476 106.599 97.1741 109.405C98.3022 119.096 96.8476 129.684 95.5117 139.664" fill="#1D1D1B"/>
<path fill-rule="evenodd" clip-rule="evenodd" d="M72.0887 28.0859C71.2871 44.4595 75.7105 62.2794 76.8089 78.2479C77.2839 84.1493 77.8479 90.1665 76.8089 95.2C73.4246 109.896 73.6324 127.542 76.8089 142.672L78.6792 144.35C75.5917 129.596 74.9386 110.272 78.3526 95.5182C80.1635 83.7733 77.462 71.739 76.2745 59.9941C75.3246 52.3569 74.2855 44.7487 73.6324 37.0538" fill="#1D1D1B"/>
<path d="M139.508 144.64C137.726 149.471 133.273 152.306 129.325 152.306C117.48 152.306 119.528 121.034 119.528 116.463C119.528 112.789 120.122 107.901 120.449 105.731C119.469 104.053 118.044 96.7052 117.302 92.1345C116.708 88.4606 113.443 67.4874 111.869 57.4492H143.248C142.922 59.2139 142.061 64.6235 141.259 72.1449C140.279 81.4309 140.992 88.8366 142.922 108.826L142.981 109.463C144.94 129.915 141.764 138.594 139.537 144.611L139.508 144.64Z" fill="#D3D3D5" stroke="#1D1D1B" stroke-width="0.5" stroke-miterlimit="10"/>
<path d="M122.438 146.953H138.409" stroke="#1D1D1B" stroke-width="0.5" stroke-miterlimit="10"/>
</g>
<path d="M79.8231 180.592C82.4311 180.592 83.4071 179.04 83.7271 177.568H85.7911C85.2791 180.736 82.7511 182.24 79.8231 182.24C76.7191 182.24 73.6791 180.544 73.6791 176.4C73.6791 172.256 76.7191 170.576 79.8231 170.576C82.7511 170.576 85.2791 172.08 85.7911 175.248H83.7271C83.4071 173.776 82.4311 172.224 79.8231 172.224C77.1351 172.224 75.7111 173.824 75.7111 176.4C75.7111 178.976 77.1351 180.592 79.8231 180.592ZM94.2537 173.472H96.2217V182H94.2537V180.688C93.8537 181.248 92.7657 182.24 90.9897 182.24C88.7657 182.24 87.5497 180.976 87.5497 178.992V173.472H89.5177V178.4C89.5177 179.84 90.3017 180.64 91.8537 180.64C93.4057 180.64 94.2537 179.744 94.2537 178.4V173.472ZM102.952 177.008C105.368 177.424 106.728 177.744 106.728 179.424C106.728 181.408 105.08 182.24 102.232 182.24C99.6399 182.24 97.6559 181.344 97.6559 179.408H99.6879C99.6879 180.336 100.6 180.752 102.392 180.752C104.136 180.752 104.76 180.32 104.76 179.68C104.76 178.736 103.336 178.72 101.16 178.32C98.9519 177.904 97.9759 177.392 97.9759 175.872C97.9759 174.16 99.5759 173.232 102.088 173.232C104.824 173.232 106.296 174.32 106.296 175.904H104.456C104.456 175.36 103.88 174.688 102.056 174.688C100.344 174.688 99.7519 175.12 99.7519 175.776C99.7519 176.64 101.432 176.752 102.952 177.008ZM113.563 173.232C115.787 173.232 117.003 174.496 117.003 176.48V182H115.035V177.072C115.035 175.632 114.251 174.832 112.699 174.832C111.147 174.832 110.299 175.728 110.299 177.072V182H108.331V170.8H110.299V174.784C110.699 174.224 111.787 173.232 113.563 173.232ZM119.237 182V173.472H121.205V182H119.237ZM120.213 172.288C119.605 172.288 119.173 171.936 119.173 171.328C119.173 170.72 119.605 170.368 120.213 170.368C120.837 170.368 121.269 170.72 121.269 171.328C121.269 171.936 120.837 172.288 120.213 172.288ZM127.68 173.232C130.176 173.232 132.576 174.592 132.576 177.744C132.576 180.896 130.176 182.24 127.68 182.24C125.184 182.24 122.8 180.896 122.8 177.744C122.8 174.592 125.184 173.232 127.68 173.232ZM127.68 180.784C129.968 180.784 130.752 179.232 130.752 177.744C130.752 176.24 129.968 174.688 127.68 174.688C125.392 174.688 124.608 176.24 124.608 177.744C124.608 179.232 125.392 180.784 127.68 180.784ZM139.407 173.232C141.631 173.232 142.847 174.496 142.847 176.48V182H140.879V177.072C140.879 175.632 140.095 174.832 138.543 174.832C136.991 174.832 136.143 175.728 136.143 177.072V182H134.175V173.472H136.143V174.784C136.543 174.224 137.631 173.232 139.407 173.232Z" fill="black"/>
<defs>
<clipPath id="clip0_2690_291">
<rect width="73" height="125" fill="white" transform="translate(72 28)"/>
</clipPath>
</defs>
</svg>
