<svg width="132" height="129" viewBox="0 0 132 129" fill="none" xmlns="http://www.w3.org/2000/svg">
<rect width="132" height="129" rx="10" fill="white"/>
<path d="M44.4923 119.944C46.4483 119.944 47.1803 118.78 47.4203 117.676H48.9683C48.5843 120.052 46.6883 121.18 44.4923 121.18C42.1643 121.18 39.8843 119.908 39.8843 116.8C39.8843 113.692 42.1643 112.432 44.4923 112.432C46.6883 112.432 48.5843 113.56 48.9683 115.936H47.4203C47.1803 114.832 46.4483 113.668 44.4923 113.668C42.4763 113.668 41.4083 114.868 41.4083 116.8C41.4083 118.732 42.4763 119.944 44.4923 119.944ZM55.3153 114.604H56.7913V121H55.3153V120.016C55.0153 120.436 54.1993 121.18 52.8673 121.18C51.1993 121.18 50.2873 120.232 50.2873 118.744V114.604H51.7633V118.3C51.7633 119.38 52.3513 119.98 53.5153 119.98C54.6793 119.98 55.3153 119.308 55.3153 118.3V114.604ZM61.839 117.256C63.651 117.568 64.671 117.808 64.671 119.068C64.671 120.556 63.435 121.18 61.299 121.18C59.355 121.18 57.867 120.508 57.867 119.056H59.391C59.391 119.752 60.075 120.064 61.419 120.064C62.727 120.064 63.195 119.74 63.195 119.26C63.195 118.552 62.127 118.54 60.495 118.24C58.839 117.928 58.107 117.544 58.107 116.404C58.107 115.12 59.307 114.424 61.191 114.424C63.243 114.424 64.347 115.24 64.347 116.428H62.967C62.967 116.02 62.535 115.516 61.167 115.516C59.883 115.516 59.439 115.84 59.439 116.332C59.439 116.98 60.699 117.064 61.839 117.256ZM69.7972 114.424C71.4652 114.424 72.3772 115.372 72.3772 116.86V121H70.9012V117.304C70.9012 116.224 70.3132 115.624 69.1492 115.624C67.9852 115.624 67.3492 116.296 67.3492 117.304V121H65.8732V112.6H67.3492V115.588C67.6492 115.168 68.4652 114.424 69.7972 114.424ZM74.0529 121V114.604H75.5289V121H74.0529ZM74.7849 113.716C74.3289 113.716 74.0049 113.452 74.0049 112.996C74.0049 112.54 74.3289 112.276 74.7849 112.276C75.2529 112.276 75.5769 112.54 75.5769 112.996C75.5769 113.452 75.2529 113.716 74.7849 113.716ZM80.3852 114.424C82.2572 114.424 84.0572 115.444 84.0572 117.808C84.0572 120.172 82.2572 121.18 80.3852 121.18C78.5132 121.18 76.7252 120.172 76.7252 117.808C76.7252 115.444 78.5132 114.424 80.3852 114.424ZM80.3852 120.088C82.1012 120.088 82.6892 118.924 82.6892 117.808C82.6892 116.68 82.1012 115.516 80.3852 115.516C78.6692 115.516 78.0812 116.68 78.0812 117.808C78.0812 118.924 78.6692 120.088 80.3852 120.088ZM89.18 114.424C90.848 114.424 91.76 115.372 91.76 116.86V121H90.284V117.304C90.284 116.224 89.696 115.624 88.532 115.624C87.368 115.624 86.732 116.296 86.732 117.304V121H85.256V114.604H86.732V115.588C87.032 115.168 87.848 114.424 89.18 114.424Z" fill="black"/>
<g clip-path="url(#clip0_9371_4430)">
<rect width="55" height="95" transform="translate(39 11)" fill="white"/>
<path fill-rule="evenodd" clip-rule="evenodd" d="M93.8436 11C94.4699 17.6836 93.195 24.0815 92.4793 30.7651C91.428 41.2742 88.9677 52.1132 90.2873 62.0507C92.7253 72.6478 92.6806 85.2455 90.6452 96.3483H89.4374C91.4727 85.4874 91.5622 73.0435 89.1242 62.3365C87.7599 53.4983 89.7281 44.5061 90.6228 35.6899C91.3609 29.7757 92.1661 23.8836 92.6582 17.9035" fill="black"/>
<path fill-rule="evenodd" clip-rule="evenodd" d="M55.2607 97.6045L55.4844 96.1974C56.5804 87.5571 57.9671 78.6089 56.2672 69.9686L56.3791 69.6827C56.9383 68.4735 57.2961 67.0664 57.6093 65.7693C60.1814 54.6665 61.0761 43.278 63.0668 32.0433C63.1562 31.4937 63.2681 30.944 63.3575 30.3944C63.872 27.4703 64.3864 24.5242 65.1245 21.6441C65.214 21.2923 66.3323 17.0491 66.4442 16.6094C69.4189 26.8547 70.8057 37.5177 72.3043 48.0269C73.1766 53.8311 73.8923 59.6353 75.2343 65.3076C75.5251 66.7367 75.9277 68.3416 76.5092 69.7047L76.6882 69.9905C74.9883 78.7188 76.1961 87.667 77.225 96.3953H76.0171C75.6369 93.5152 75.3014 90.679 75.0554 87.8869C74.4962 81.555 74.362 75.6848 75.3909 70.1664C70.6715 54.9304 70.5149 36.7043 66.4442 21.3143C65.6613 24.2384 64.9008 28.0859 64.2746 31.8454C62.1497 42.9922 61.4787 55.458 58.5934 66.5168C58.0566 68.6054 57.7211 70.7381 57.9671 72.8707C58.8171 80.2359 57.7211 88.2826 56.7146 95.8677" fill="black"/>
<path fill-rule="evenodd" clip-rule="evenodd" d="M39.0673 11.0625C38.4634 23.5064 41.7961 37.0495 42.6237 49.1856C42.9815 53.6707 43.4065 58.2437 42.6237 62.0692C40.0738 73.2379 40.2304 86.6492 42.6237 98.1477L44.0328 99.4228C41.7066 88.2102 41.2145 73.5237 43.7867 62.3111C45.1511 53.3849 43.1157 44.2388 42.2211 35.3127C41.5053 29.5085 40.7225 23.7262 40.2304 17.8781" fill="black"/>
<path d="M89.8621 99.6476C88.5201 103.319 85.165 105.474 82.1903 105.474C73.2659 105.474 74.8092 81.7073 74.8092 78.2335C74.8092 75.4414 75.2565 71.7258 75.5026 70.0769C74.7645 68.8017 73.6909 63.2173 73.1317 59.7436C72.6844 56.9514 70.224 41.0118 69.0386 33.3828H92.6803C92.4343 34.7239 91.7856 38.8353 91.1817 44.5515C90.4436 51.6089 90.9804 57.2372 92.4343 72.4293L92.479 72.913C93.9552 88.4569 91.562 95.0526 89.8844 99.6256L89.8621 99.6476Z" fill="#D3D3D5" stroke="black" stroke-width="0.5" stroke-miterlimit="10"/>
<path d="M77.001 101.406H89.0343" stroke="black" stroke-width="0.5" stroke-miterlimit="10"/>
</g>
<defs>
<clipPath id="clip0_9371_4430">
<rect width="55" height="95" fill="white" transform="translate(39 11)"/>
</clipPath>
</defs>
</svg>
