<svg width="217" height="195" viewBox="0 0 217 195" fill="none" xmlns="http://www.w3.org/2000/svg">
<rect width="217" height="195" rx="10" fill="#D9D9D9"/>
<g clip-path="url(#clip0_2717_261)">
<path fill-rule="evenodd" clip-rule="evenodd" d="M143.795 28C144.615 36.7572 142.946 45.1399 142.009 53.8971C140.633 67.6667 137.412 81.8683 139.139 94.8889C142.331 108.774 142.272 125.28 139.608 139.827H138.027C140.691 125.597 140.808 109.292 137.617 95.2634C135.831 83.6831 138.407 71.9012 139.579 60.3498C140.545 52.6008 141.599 44.8807 142.243 37.0453" fill="#1D1D1B"/>
<path fill-rule="evenodd" clip-rule="evenodd" d="M93.2861 141.469L93.5789 139.626C95.0137 128.305 96.829 116.58 94.6037 105.259L94.7501 104.885C95.4821 103.3 95.9506 101.457 96.3606 99.7572C99.7278 85.2099 100.899 70.2881 103.505 55.5679C103.622 54.8478 103.768 54.1276 103.886 53.4074C104.559 49.5762 105.232 45.7161 106.199 41.9424C106.316 41.4815 107.78 35.9218 107.926 35.3457C111.82 48.7696 113.636 62.7408 115.598 76.5103C116.74 84.1152 117.677 91.7202 119.433 99.1523C119.814 101.025 120.341 103.128 121.102 104.914L121.337 105.288C119.111 116.724 120.692 128.449 122.039 139.885H120.458C119.96 136.111 119.521 132.395 119.199 128.737C118.467 120.44 118.291 112.749 119.638 105.519C113.46 85.5556 113.255 61.6749 107.926 41.5103C106.901 45.3416 105.906 50.3827 105.086 55.3087C102.304 69.9136 101.426 86.2469 97.6489 100.737C96.9462 103.473 96.507 106.268 96.829 109.062C97.9417 118.712 96.507 129.255 95.1893 139.193" fill="#1D1D1B"/>
<path fill-rule="evenodd" clip-rule="evenodd" d="M72.0874 28.0859C71.2968 44.3905 75.6595 62.1353 76.7429 78.0365C77.2114 83.9131 77.7677 89.9049 76.7429 94.9172C73.405 109.551 73.6099 127.123 76.7429 142.189L78.5876 143.86C75.5424 129.168 74.8983 109.925 78.2655 95.2341C80.0516 83.5386 77.3871 71.5551 76.2159 59.8596C75.2789 52.2547 74.2541 44.6785 73.6099 37.016" fill="#1D1D1B"/>
<path d="M138.759 144.147C137.002 148.958 132.61 151.781 128.716 151.781C117.033 151.781 119.053 120.641 119.053 116.09C119.053 112.431 119.639 107.563 119.961 105.402C118.995 103.732 117.589 96.4148 116.857 91.8633C116.272 88.2049 113.051 67.3201 111.499 57.3242H142.448C142.126 59.0814 141.277 64.4683 140.486 71.958C139.52 81.2049 140.223 88.5794 142.126 108.485L142.185 109.118C144.117 129.485 140.984 138.127 138.788 144.118L138.759 144.147Z" fill="#D3D3D5" stroke="#1D1D1B" stroke-width="0.5" stroke-miterlimit="10"/>
<path d="M133.371 70.7773H124.909V74.2053H133.371V70.7773Z" stroke="#050A0A" stroke-width="0.29" stroke-miterlimit="10"/>
<path d="M122.538 146.453H138.32" stroke="#1D1D1B" stroke-width="0.5" stroke-miterlimit="10"/>
<path d="M131.848 72.3613H126.432V153.567H131.848V72.3613Z" fill="white" stroke="#050A0A" stroke-width="0.29" stroke-miterlimit="10"/>
</g>
<path d="M51.9505 170.8C55.5665 170.8 58.5585 172.048 58.5585 176.4C58.5585 180.752 55.5665 182 51.9505 182H47.3425V170.8H51.9505ZM51.7105 180.336C54.7665 180.336 56.5425 179.296 56.5425 176.4C56.5425 173.52 54.7665 172.464 51.7105 172.464H49.3105V180.336H51.7105ZM60.3231 182V173.472H62.2911V182H60.3231ZM61.2991 172.288C60.6911 172.288 60.2591 171.936 60.2591 171.328C60.2591 170.72 60.6911 170.368 61.2991 170.368C61.9231 170.368 62.3551 170.72 62.3551 171.328C62.3551 171.936 61.9231 172.288 61.2991 172.288ZM69.0223 177.008C71.4383 177.424 72.7983 177.744 72.7983 179.424C72.7983 181.408 71.1503 182.24 68.3023 182.24C65.7103 182.24 63.7263 181.344 63.7263 179.408H65.7582C65.7582 180.336 66.6703 180.752 68.4623 180.752C70.2063 180.752 70.8303 180.32 70.8303 179.68C70.8303 178.736 69.4063 178.72 67.2303 178.32C65.0223 177.904 64.0463 177.392 64.0463 175.872C64.0463 174.16 65.6463 173.232 68.1583 173.232C70.8943 173.232 72.3663 174.32 72.3663 175.904H70.5263C70.5263 175.36 69.9503 174.688 68.1263 174.688C66.4143 174.688 65.8223 175.12 65.8223 175.776C65.8223 176.64 67.5023 176.752 69.0223 177.008ZM79.6568 174.976H77.0807V178.816C77.0807 180.256 77.6568 180.656 79.6568 180.448V181.984C79.3688 182.064 78.9368 182.128 78.5368 182.128C75.9448 182.128 75.1128 181.072 75.1128 178.816V174.976H73.4488V173.472H75.1128V171.264H77.0807V173.472H79.6568V174.976ZM85.3971 173.232C87.7491 173.232 89.7491 174.016 89.7491 176.464V182H87.7811V180.896C87.3651 181.376 86.3411 182.24 84.3411 182.24C82.2931 182.24 80.9331 181.392 80.9331 179.76C80.9331 178 81.8931 176.608 87.7811 176.992V176.464C87.7811 175.28 87.1731 174.688 85.3971 174.688C83.8771 174.688 83.2531 175.184 83.1091 175.904H81.2691C81.5251 174.112 83.1891 173.232 85.3971 173.232ZM87.7811 179.6V178.176C84.2291 178 82.9491 178.304 82.9491 179.632C82.9491 180.496 83.6211 180.928 84.7571 180.928C86.2611 180.928 87.2531 180.368 87.7811 179.6ZM91.995 170.192H93.963V182H91.995V170.192ZM110.231 180.336V182H100.999V170.8H102.967V180.336H110.231ZM115.819 173.232C118.171 173.232 120.171 174.016 120.171 176.464V182H118.203V180.896C117.787 181.376 116.763 182.24 114.763 182.24C112.715 182.24 111.355 181.392 111.355 179.76C111.355 178 112.315 176.608 118.203 176.992V176.464C118.203 175.28 117.595 174.688 115.819 174.688C114.299 174.688 113.675 175.184 113.531 175.904H111.691C111.947 174.112 113.611 173.232 115.819 173.232ZM118.203 179.6V178.176C114.651 178 113.371 178.304 113.371 179.632C113.371 180.496 114.043 180.928 115.179 180.928C116.683 180.928 117.675 180.368 118.203 179.6ZM127.649 173.232C129.873 173.232 131.089 174.496 131.089 176.48V182H129.121V177.072C129.121 175.632 128.337 174.832 126.785 174.832C125.233 174.832 124.385 175.728 124.385 177.072V182H122.417V173.472H124.385V174.784C124.785 174.224 125.873 173.232 127.649 173.232ZM139.859 173.472H141.923L136.803 184.672H134.851L136.179 181.696L132.211 173.472H134.275L137.107 179.632L139.859 173.472ZM146.553 173.232C148.905 173.232 150.905 174.016 150.905 176.464V182H148.937V180.896C148.521 181.376 147.497 182.24 145.497 182.24C143.449 182.24 142.089 181.392 142.089 179.76C142.089 178 143.049 176.608 148.937 176.992V176.464C148.937 175.28 148.329 174.688 146.553 174.688C145.033 174.688 144.409 175.184 144.265 175.904H142.425C142.681 174.112 144.345 173.232 146.553 173.232ZM148.937 179.6V178.176C145.385 178 144.105 178.304 144.105 179.632C144.105 180.496 144.777 180.928 145.913 180.928C147.417 180.928 148.409 180.368 148.937 179.6ZM158.543 173.232C158.927 173.232 159.151 173.248 159.487 173.296V175.248H159.423C159.087 175.152 158.655 175.088 158.111 175.088C155.951 175.088 155.135 176.336 155.135 177.664V182H153.151V173.472H155.135V175.072C155.519 174.448 156.703 173.232 158.543 173.232ZM167.845 170.8H169.812V182H167.845V180.88C167.173 181.696 166.149 182.24 164.725 182.24C162.229 182.24 160.293 180.624 160.293 177.744C160.293 174.848 162.229 173.232 164.725 173.232C166.149 173.232 167.173 173.776 167.845 174.592V170.8ZM165.109 180.784C167.141 180.784 168.149 179.504 168.149 177.744C168.149 175.968 167.173 174.688 165.109 174.688C163.029 174.688 162.117 175.936 162.117 177.744C162.117 179.536 163.061 180.784 165.109 180.784Z" fill="black"/>
<defs>
<clipPath id="clip0_2717_261">
<rect width="72" height="126" fill="white" transform="translate(72 28)"/>
</clipPath>
</defs>
</svg>
