<svg width="132" height="129" viewBox="0 0 132 129" fill="none" xmlns="http://www.w3.org/2000/svg">
<rect width="132" height="129" rx="10" fill="white"/>
<path d="M37.6933 111.6C40.4053 111.6 42.6493 112.536 42.6493 115.8C42.6493 119.064 40.4053 120 37.6933 120H34.2373V111.6H37.6933ZM37.5133 118.752C39.8053 118.752 41.1373 117.972 41.1373 115.8C41.1373 113.64 39.8053 112.848 37.5133 112.848H35.7133V118.752H37.5133ZM43.9728 120V113.604H45.4488V120H43.9728ZM44.7048 112.716C44.2488 112.716 43.9248 112.452 43.9248 111.996C43.9248 111.54 44.2488 111.276 44.7048 111.276C45.1728 111.276 45.4968 111.54 45.4968 111.996C45.4968 112.452 45.1728 112.716 44.7048 112.716ZM50.4972 116.256C52.3092 116.568 53.3292 116.808 53.3292 118.068C53.3292 119.556 52.0932 120.18 49.9572 120.18C48.0132 120.18 46.5252 119.508 46.5252 118.056H48.0492C48.0492 118.752 48.7332 119.064 50.0772 119.064C51.3852 119.064 51.8532 118.74 51.8532 118.26C51.8532 117.552 50.7852 117.54 49.1532 117.24C47.4972 116.928 46.7652 116.544 46.7652 115.404C46.7652 114.12 47.9652 113.424 49.8492 113.424C51.9012 113.424 53.0052 114.24 53.0052 115.428H51.6252C51.6252 115.02 51.1932 114.516 49.8252 114.516C48.5412 114.516 48.0972 114.84 48.0972 115.332C48.0972 115.98 49.3572 116.064 50.4972 116.256ZM58.473 114.732H56.541V117.612C56.541 118.692 56.973 118.992 58.473 118.836V119.988C58.257 120.048 57.933 120.096 57.633 120.096C55.689 120.096 55.065 119.304 55.065 117.612V114.732H53.817V113.604H55.065V111.948H56.541V113.604H58.473V114.732ZM62.7783 113.424C64.5423 113.424 66.0423 114.012 66.0423 115.848V120H64.5663V119.172C64.2543 119.532 63.4863 120.18 61.9863 120.18C60.4503 120.18 59.4303 119.544 59.4303 118.32C59.4303 117 60.1503 115.956 64.5663 116.244V115.848C64.5663 114.96 64.1103 114.516 62.7783 114.516C61.6383 114.516 61.1703 114.888 61.0623 115.428H59.6823C59.8743 114.084 61.1223 113.424 62.7783 113.424ZM64.5663 118.2V117.132C61.9023 117 60.9423 117.228 60.9423 118.224C60.9423 118.872 61.4463 119.196 62.2983 119.196C63.4263 119.196 64.1703 118.776 64.5663 118.2ZM67.7267 111.144H69.2027V120H67.7267V111.144ZM77.7315 116.256C79.5435 116.568 80.5635 116.808 80.5635 118.068C80.5635 119.556 79.3275 120.18 77.1915 120.18C75.2475 120.18 73.7595 119.508 73.7595 118.056H75.2835C75.2835 118.752 75.9675 119.064 77.3115 119.064C78.6195 119.064 79.0875 118.74 79.0875 118.26C79.0875 117.552 78.0195 117.54 76.3875 117.24C74.7315 116.928 73.9995 116.544 73.9995 115.404C73.9995 114.12 75.1995 113.424 77.0835 113.424C79.1355 113.424 80.2395 114.24 80.2395 115.428H78.8595C78.8595 115.02 78.4275 114.516 77.0595 114.516C75.7755 114.516 75.3315 114.84 75.3315 115.332C75.3315 115.98 76.5915 116.064 77.7315 116.256ZM84.8858 113.424C86.9138 113.424 88.5458 114.624 88.3778 117.276H82.6178C82.7858 118.368 83.5658 119.088 84.9098 119.088C86.1578 119.088 86.6858 118.488 86.9018 118.032H88.1978C87.8738 119.34 86.6258 120.18 84.9098 120.18C83.0858 120.18 81.2858 119.136 81.2858 116.808C81.2858 114.516 83.0498 113.424 84.8858 113.424ZM82.6538 116.196H87.0578C86.8658 115.188 86.1698 114.516 84.8858 114.516C83.6978 114.516 82.8818 115.188 82.6538 116.196ZM92.4619 113.424C94.2259 113.424 95.7259 114.012 95.7259 115.848V120H94.2499V119.172C93.9379 119.532 93.1699 120.18 91.6699 120.18C90.1339 120.18 89.1139 119.544 89.1139 118.32C89.1139 117 89.8339 115.956 94.2499 116.244V115.848C94.2499 114.96 93.7939 114.516 92.4619 114.516C91.3219 114.516 90.8539 114.888 90.7459 115.428H89.3659C89.5579 114.084 90.8059 113.424 92.4619 113.424ZM94.2499 118.2V117.132C91.5859 117 90.6259 117.228 90.6259 118.224C90.6259 118.872 91.1299 119.196 91.9819 119.196C93.1099 119.196 93.8539 118.776 94.2499 118.2ZM97.4103 111.144H98.8863V120H97.4103V111.144Z" fill="black"/>
<path fill-rule="evenodd" clip-rule="evenodd" d="M55.9519 21C56.426 26.1542 55.4501 31.0604 54.9064 36.2009C54.1117 44.2768 52.2157 52.6283 53.2334 60.2769C55.0876 68.4355 55.0736 78.1238 53.5122 86.6545H52.5921C54.1396 78.303 54.2093 68.7249 52.3551 60.4975C51.3095 53.7032 52.8152 46.785 53.5122 40.0045C54.0838 35.4567 54.6972 30.9226 55.0736 26.3334" fill="black"/>
<path fill-rule="evenodd" clip-rule="evenodd" d="M26.4385 87.6025L26.6058 86.5276C27.4422 79.8712 28.5018 72.9943 27.2052 66.3516L27.3028 66.1311C27.735 65.194 27.9999 64.119 28.2369 63.1268C30.2026 54.5823 30.8858 45.8311 32.4054 37.1764C32.4751 36.7492 32.5587 36.322 32.6284 35.8948C33.0188 33.6484 33.4231 31.3745 33.9807 29.1694C34.0504 28.9076 34.9148 25.6414 34.9984 25.2969C37.2848 33.166 38.3304 41.3935 39.4736 49.4556C40.1288 53.907 40.6865 58.3722 41.7181 62.7409C41.9412 63.8434 42.2479 65.07 42.694 66.1173L42.8334 66.3378C41.5369 73.0632 42.457 79.9401 43.2517 86.6378H42.3176C42.0388 84.419 41.7739 82.2416 41.5787 80.1054C41.1465 75.2406 41.0629 70.7203 41.8436 66.4757C38.2328 54.7615 38.1213 40.732 34.9984 28.9076C34.399 31.154 33.8274 34.117 33.3394 37.0111C31.7222 45.5831 31.2064 55.1749 28.9897 63.678C28.5715 65.2767 28.3206 66.9304 28.5018 68.5704C29.157 74.2346 28.3066 80.4224 27.5398 86.2657" fill="black"/>
<path fill-rule="evenodd" clip-rule="evenodd" d="M14.0583 21.0547C13.5843 30.6327 16.1356 41.0377 16.763 50.3815C17.0418 53.8406 17.3624 57.3549 16.763 60.2903C14.8112 68.8899 14.9366 79.1983 16.763 88.046L17.8364 89.0383C16.0519 80.4111 15.6895 69.1242 17.6413 60.497C18.6729 53.6201 17.1254 46.6054 16.4562 39.7285C15.8986 35.2633 15.2991 30.8119 14.9366 26.3192" fill="black"/>
<path d="M52.8851 89.1727C51.8534 91.9841 49.2882 93.6516 47.0158 93.6516C39.1669 93.2657 41.4393 70.2784 41.8854 66.4196C39.599 59.2257 38.8183 48.807 36.9502 38.1953H55.0181C53.3452 47.7872 53.2058 53.2584 54.8369 68.225C56.0637 79.8702 54.1816 85.81 52.8851 89.1451V89.1727Z" fill="#D3D3D5" stroke="black" stroke-width="0.5" stroke-miterlimit="10"/>
<path d="M43.1401 90.5391H52.3553" stroke="black" stroke-width="0.5" stroke-miterlimit="10"/>
<path d="M55.6731 79.5H40.6444C40.5747 79.5 40.5049 79.5965 40.4492 79.7756L39.8358 82.1598C39.78 82.3941 39.78 82.7111 39.8358 82.9453L40.4631 85.3295C40.5049 85.4949 40.5747 85.5914 40.6444 85.5914H55.6731C55.7428 85.5914 55.8125 85.4949 55.8683 85.3157L56.4817 82.9316C56.5374 82.6973 56.5374 82.3803 56.4817 82.146L55.8543 79.7618C55.8125 79.5965 55.7428 79.5 55.6731 79.5Z" fill="white" stroke="black" stroke-width="0.53" stroke-miterlimit="10"/>
<path fill-rule="evenodd" clip-rule="evenodd" d="M117.297 21C117.771 26.1542 116.795 31.0604 116.251 36.2009C115.456 44.2768 113.56 52.6283 114.578 60.2769C116.432 68.4355 116.418 78.1238 114.857 86.6545H113.937C115.484 78.303 115.554 68.7249 113.7 60.4975C112.654 53.7032 114.16 46.785 114.857 40.0045C115.429 35.4567 116.042 30.9226 116.418 26.3334" fill="black"/>
<path fill-rule="evenodd" clip-rule="evenodd" d="M87.7827 87.6025L87.95 86.5276C88.7865 79.8712 89.846 72.9943 88.5495 66.3516L88.6471 66.1311C89.0792 65.194 89.3441 64.119 89.5811 63.1268C91.5469 54.5823 92.23 45.8311 93.7496 37.1764C93.8193 36.7492 93.9029 36.322 93.9726 35.8948C94.363 33.6484 94.7673 31.3745 95.325 29.1694C95.3947 28.9076 96.259 25.6414 96.3427 25.2969C98.629 33.166 99.6746 41.3935 100.818 49.4556C101.473 53.907 102.031 58.3722 103.062 62.7409C103.285 63.8434 103.592 65.07 104.038 66.1173L104.178 66.3378C102.881 73.0632 103.801 79.9401 104.596 86.6378H103.662C103.383 84.419 103.118 82.2416 102.923 80.1054C102.491 75.2406 102.407 70.7203 103.188 66.4757C99.577 54.7615 99.4655 40.732 96.3427 28.9076C95.7432 31.154 95.1716 34.117 94.6837 37.0111C93.0665 45.5831 92.5506 55.1749 90.334 63.678C89.9157 65.2767 89.6648 66.9304 89.846 68.5704C90.5013 74.2346 89.6509 80.4224 88.8841 86.2657" fill="black"/>
<path fill-rule="evenodd" clip-rule="evenodd" d="M75.4031 21.0547C74.9291 30.6327 77.4803 41.0377 78.1077 50.3815C78.3865 53.8406 78.7072 57.3549 78.1077 60.2903C76.1559 68.8899 76.2814 79.1983 78.1077 88.046L79.1812 89.0383C77.3967 80.4111 77.0342 69.1242 78.986 60.497C80.0176 53.6201 78.4702 46.6054 77.801 39.7285C77.2433 35.2633 76.6439 30.8119 76.2814 26.3192" fill="black"/>
<path d="M114.23 89.1727C113.198 91.9841 110.633 93.6516 108.361 93.6516C100.512 93.2657 102.784 70.2784 103.23 66.4196C100.944 59.2257 100.163 48.807 98.2949 38.1953H116.363C114.69 47.7872 114.55 53.2584 116.182 68.225C117.408 79.8702 115.526 85.81 114.23 89.1451V89.1727Z" fill="#D3D3D5" stroke="black" stroke-width="0.5" stroke-miterlimit="10"/>
<path d="M104.484 90.5391H113.7" stroke="black" stroke-width="0.5" stroke-miterlimit="10"/>
<path d="M117.408 76.0469H101.626C101.543 76.0469 101.473 76.0882 101.431 76.1433L100.79 76.984C100.72 77.0667 100.734 77.177 100.79 77.2596L101.445 78.1003C101.445 78.1003 101.571 78.1968 101.64 78.1968H117.422C117.505 78.1968 117.575 78.1554 117.617 78.1003L118.258 77.2596C118.328 77.177 118.314 77.0667 118.258 76.984L117.603 76.1433C117.603 76.1433 117.478 76.0469 117.408 76.0469Z" fill="white" stroke="black" stroke-width="0.5" stroke-miterlimit="10"/>
<path d="M117.408 79.5547H101.626C101.543 79.5547 101.473 79.596 101.431 79.6512L100.79 80.4918C100.72 80.5745 100.734 80.6848 100.79 80.7674L101.445 81.6081C101.445 81.6081 101.571 81.7046 101.64 81.7046H117.422C117.505 81.7046 117.575 81.6632 117.617 81.6081L118.258 80.7674C118.328 80.6848 118.314 80.5745 118.258 80.4918L117.603 79.6512C117.603 79.6512 117.478 79.5547 117.408 79.5547Z" fill="white" stroke="black" stroke-width="0.5" stroke-miterlimit="10"/>
<path d="M117.408 82.8125H101.626C101.543 82.8125 101.473 82.8538 101.431 82.909L100.79 83.7496C100.72 83.8323 100.734 83.9426 100.79 84.0253L101.445 84.8659C101.445 84.8659 101.571 84.9624 101.64 84.9624H117.422C117.505 84.9624 117.575 84.9211 117.617 84.8659L118.258 84.0253C118.328 83.9426 118.314 83.8323 118.258 83.7496L117.603 82.909C117.603 82.909 117.478 82.8125 117.408 82.8125Z" fill="white" stroke="black" stroke-width="0.5" stroke-miterlimit="10"/>
<path d="M39.7246 82.4922H56.496" stroke="black" stroke-width="0.25" stroke-miterlimit="10"/>
</svg>
