<svg width="132" height="129" viewBox="0 0 132 129" fill="none" xmlns="http://www.w3.org/2000/svg">
<rect width="132" height="129" rx="10" fill="white"/>
<path d="M25.5879 112.6C28.2999 112.6 30.5439 113.536 30.5439 116.8C30.5439 120.064 28.2999 121 25.5879 121H22.1319V112.6H25.5879ZM25.4079 119.752C27.6999 119.752 29.0319 118.972 29.0319 116.8C29.0319 114.64 27.6999 113.848 25.4079 113.848H23.6079V119.752H25.4079ZM31.8673 121V114.604H33.3433V121H31.8673ZM32.5993 113.716C32.1433 113.716 31.8193 113.452 31.8193 112.996C31.8193 112.54 32.1433 112.276 32.5993 112.276C33.0673 112.276 33.3913 112.54 33.3913 112.996C33.3913 113.452 33.0673 113.716 32.5993 113.716ZM38.3917 117.256C40.2037 117.568 41.2237 117.808 41.2237 119.068C41.2237 120.556 39.9877 121.18 37.8517 121.18C35.9077 121.18 34.4197 120.508 34.4197 119.056H35.9437C35.9437 119.752 36.6277 120.064 37.9717 120.064C39.2797 120.064 39.7477 119.74 39.7477 119.26C39.7477 118.552 38.6797 118.54 37.0477 118.24C35.3917 117.928 34.6597 117.544 34.6597 116.404C34.6597 115.12 35.8597 114.424 37.7437 114.424C39.7957 114.424 40.8997 115.24 40.8997 116.428H39.5197C39.5197 116.02 39.0877 115.516 37.7197 115.516C36.4357 115.516 35.9917 115.84 35.9917 116.332C35.9917 116.98 37.2517 117.064 38.3917 117.256ZM46.3676 115.732H44.4356V118.612C44.4356 119.692 44.8676 119.992 46.3676 119.836V120.988C46.1516 121.048 45.8276 121.096 45.5276 121.096C43.5836 121.096 42.9596 120.304 42.9596 118.612V115.732H41.7116V114.604H42.9596V112.948H44.4356V114.604H46.3676V115.732ZM50.6728 114.424C52.4368 114.424 53.9368 115.012 53.9368 116.848V121H52.4608V120.172C52.1488 120.532 51.3808 121.18 49.8808 121.18C48.3448 121.18 47.3248 120.544 47.3248 119.32C47.3248 118 48.0448 116.956 52.4608 117.244V116.848C52.4608 115.96 52.0048 115.516 50.6728 115.516C49.5328 115.516 49.0648 115.888 48.9568 116.428H47.5768C47.7688 115.084 49.0168 114.424 50.6728 114.424ZM52.4608 119.2V118.132C49.7968 118 48.8368 118.228 48.8368 119.224C48.8368 119.872 49.3408 120.196 50.1928 120.196C51.3208 120.196 52.0648 119.776 52.4608 119.2ZM55.6213 112.144H57.0973V121H55.6213V112.144ZM69.2981 119.752V121H62.3741V112.6H63.8501V119.752H69.2981ZM73.4893 114.424C75.2533 114.424 76.7533 115.012 76.7533 116.848V121H75.2773V120.172C74.9653 120.532 74.1973 121.18 72.6973 121.18C71.1613 121.18 70.1413 120.544 70.1413 119.32C70.1413 118 70.8613 116.956 75.2773 117.244V116.848C75.2773 115.96 74.8213 115.516 73.4893 115.516C72.3493 115.516 71.8813 115.888 71.7733 116.428H70.3933C70.5853 115.084 71.8333 114.424 73.4893 114.424ZM75.2773 119.2V118.132C72.6133 118 71.6533 118.228 71.6533 119.224C71.6533 119.872 72.1573 120.196 73.0093 120.196C74.1373 120.196 74.8813 119.776 75.2773 119.2ZM82.3617 114.424C84.0297 114.424 84.9417 115.372 84.9417 116.86V121H83.4657V117.304C83.4657 116.224 82.8777 115.624 81.7137 115.624C80.5497 115.624 79.9137 116.296 79.9137 117.304V121H78.4377V114.604H79.9137V115.588C80.2137 115.168 81.0297 114.424 82.3617 114.424ZM91.519 114.604H93.067L89.227 123.004H87.763L88.759 120.772L85.783 114.604H87.331L89.455 119.224L91.519 114.604ZM96.54 114.424C98.304 114.424 99.804 115.012 99.804 116.848V121H98.328V120.172C98.016 120.532 97.248 121.18 95.748 121.18C94.212 121.18 93.192 120.544 93.192 119.32C93.192 118 93.912 116.956 98.328 117.244V116.848C98.328 115.96 97.872 115.516 96.54 115.516C95.4 115.516 94.932 115.888 94.824 116.428H93.444C93.636 115.084 94.884 114.424 96.54 114.424ZM98.328 119.2V118.132C95.664 118 94.704 118.228 94.704 119.224C94.704 119.872 95.208 120.196 96.06 120.196C97.188 120.196 97.932 119.776 98.328 119.2ZM105.532 114.424C105.82 114.424 105.988 114.436 106.24 114.472V115.936H106.192C105.94 115.864 105.616 115.816 105.208 115.816C103.588 115.816 102.976 116.752 102.976 117.748V121H101.488V114.604H102.976V115.804C103.264 115.336 104.152 114.424 105.532 114.424ZM112.508 112.6H113.984V121H112.508V120.16C112.004 120.772 111.236 121.18 110.168 121.18C108.296 121.18 106.844 119.968 106.844 117.808C106.844 115.636 108.296 114.424 110.168 114.424C111.236 114.424 112.004 114.832 112.508 115.444V112.6ZM110.456 120.088C111.98 120.088 112.736 119.128 112.736 117.808C112.736 116.476 112.004 115.516 110.456 115.516C108.896 115.516 108.212 116.452 108.212 117.808C108.212 119.152 108.92 120.088 110.456 120.088Z" fill="black"/>
<g clip-path="url(#clip0_9371_4440)">
<rect width="54" height="96" transform="translate(39 11)" fill="white"/>
<path fill-rule="evenodd" clip-rule="evenodd" d="M92.8465 11C93.4614 17.6722 92.2096 24.059 91.5069 30.7311C90.4748 41.2222 88.0592 52.0425 89.3548 61.963C91.7485 72.5418 91.7046 85.118 89.7062 96.2016H88.5203C90.5187 85.3594 90.6066 72.9369 88.2129 62.2483C86.8733 53.4252 88.8058 44.4486 89.6842 35.6475C90.4089 29.7435 91.1995 23.8615 91.6826 17.8916" fill="black"/>
<path fill-rule="evenodd" clip-rule="evenodd" d="M54.9648 97.4497L55.1844 96.0451C56.2605 87.4195 57.622 78.4868 55.953 69.8612L56.0629 69.5759C56.6119 68.3688 56.9632 66.9641 57.2707 65.6692C59.7961 54.5855 60.6745 43.2165 62.6289 32.0012C62.7168 31.4525 62.8266 30.9038 62.9144 30.3551C63.4195 27.436 63.9246 24.495 64.6493 21.6198C64.7371 21.2686 65.8351 17.0327 65.9449 16.5938C68.8656 26.8215 70.2271 37.4662 71.6985 47.9573C72.5549 53.7515 73.2576 59.5457 74.5753 65.2083C74.8607 66.6349 75.256 68.2371 75.827 69.5979L76.0027 69.8832C74.3337 78.5965 75.5195 87.5293 76.5297 96.2426H75.3439C74.9705 93.3674 74.6411 90.5361 74.3996 87.7488C73.8506 81.4278 73.7188 75.5677 74.729 70.0588C70.0954 54.8489 69.9417 36.6541 65.9449 21.2906C65.1763 24.2097 64.4297 28.0505 63.8148 31.8036C61.7286 42.9312 61.0698 55.3756 58.2369 66.4154C57.7099 68.5005 57.3805 70.6294 57.622 72.7584C58.4565 80.1109 57.3805 88.1438 56.3923 95.7158" fill="black"/>
<path fill-rule="evenodd" clip-rule="evenodd" d="M39.066 11.0625C38.4731 23.485 41.7451 37.0049 42.5577 49.1201C42.909 53.5975 43.3263 58.1626 42.5577 61.9816C40.0542 73.1311 40.2079 86.5193 42.5577 97.998L43.9412 99.271C41.6573 88.0776 41.1742 73.4164 43.6996 62.223C45.0392 53.3122 43.0408 44.1818 42.1624 35.271C41.4597 29.4768 40.6911 23.7045 40.2079 17.8663" fill="black"/>
<path d="M89.0689 99.4946C87.7513 103.16 84.4573 105.311 81.5366 105.311C72.7745 105.311 74.2897 81.5852 74.2897 78.1174C74.2897 75.33 74.7289 71.6208 74.9705 69.9748C74.2458 68.7018 73.1917 63.127 72.6427 59.6592C72.2035 56.8719 69.7879 40.9597 68.624 33.3438H91.8359C91.5943 34.6826 90.9575 38.7868 90.3646 44.4933C89.6399 51.5385 90.1669 57.1572 91.5943 72.3232L91.6383 72.806C93.0876 88.3232 90.7379 94.9075 89.0909 99.4727L89.0689 99.4946Z" fill="#D3D3D5" stroke="black" stroke-width="0.5" stroke-miterlimit="10"/>
<path d="M85.0286 43.5938H78.6821V46.2055H85.0286V43.5938Z" stroke="black" stroke-width="0.29" stroke-miterlimit="10"/>
<path d="M76.9033 101.25H88.7398" stroke="black" stroke-width="0.5" stroke-miterlimit="10"/>
<path d="M83.8864 44.7969H79.8237V106.668H83.8864V44.7969Z" fill="white" stroke="black" stroke-width="0.29" stroke-miterlimit="10"/>
</g>
<defs>
<clipPath id="clip0_9371_4440">
<rect width="54" height="96" fill="white" transform="translate(39 11)"/>
</clipPath>
</defs>
</svg>
