<svg width="217" height="195" viewBox="0 0 217 195" fill="none" xmlns="http://www.w3.org/2000/svg">
<rect width="217" height="195" rx="10" fill="#D9D9D9"/>
<path fill-rule="evenodd" clip-rule="evenodd" d="M93.3193 45C94.0086 52.4953 92.5894 59.6298 91.7988 67.1051C90.6432 78.849 87.886 90.9938 89.366 102.116C92.0623 113.981 92.042 128.069 89.7714 140.475H88.4334C90.6837 128.33 90.7851 114.402 88.0887 102.437C86.5682 92.557 88.7578 82.4965 89.7714 72.6364C90.6026 66.0229 91.4947 59.4294 92.042 52.7558" fill="#1D1D1B"/>
<path fill-rule="evenodd" clip-rule="evenodd" d="M50.4004 141.857L50.6437 140.294C51.8601 130.614 53.4009 120.613 51.5154 110.954L51.6573 110.633C52.2858 109.27 52.671 107.707 53.0157 106.264C55.8742 93.8388 56.8676 81.1129 59.0774 68.5272C59.1788 67.9059 59.3004 67.2847 59.4018 66.6634C59.9694 63.3967 60.5574 60.09 61.3683 56.8834C61.4697 56.5027 62.7266 51.753 62.8483 51.252C66.1731 62.6953 67.6936 74.6597 69.356 86.3836C70.3089 92.8568 71.1198 99.3501 72.6201 105.703C72.9444 107.306 73.3904 109.09 74.0392 110.613L74.2419 110.934C72.3565 120.714 73.6945 130.714 74.8501 140.454H73.4918C73.0863 137.227 72.7011 134.061 72.4173 130.955C71.7888 123.88 71.6672 117.307 72.8025 111.134C67.5517 94.0993 67.3895 73.6977 62.8483 56.5027C61.9765 59.7693 61.1453 64.0781 60.4357 68.2867C58.084 80.7521 57.3339 94.7006 54.1104 107.066C53.5022 109.391 53.1373 111.795 53.4009 114.18C54.3537 122.417 53.117 131.415 52.002 139.913" fill="#1D1D1B"/>
<path fill-rule="evenodd" clip-rule="evenodd" d="M32.3973 45.0801C31.708 59.0085 35.4181 74.1393 36.3304 87.727C36.7359 92.7573 37.2021 97.8677 36.3304 102.136C33.4921 114.642 33.6746 129.633 36.3304 142.499L37.8914 143.942C35.2964 131.396 34.7693 114.983 37.6076 102.437C39.1078 92.4367 36.8575 82.2359 35.8844 72.2355C35.0734 65.7422 34.2017 59.269 33.6746 52.7357" fill="#1D1D1B"/>
<path d="M88.859 144.143C87.3588 148.231 83.6285 150.656 80.3239 150.656C68.91 150.095 72.2146 116.667 72.8633 111.055C69.5385 100.594 68.4032 85.4432 65.6865 70.0117H91.9609C89.5281 83.9602 89.3253 91.9164 91.6973 113.681C93.4814 130.615 90.7445 139.253 88.859 144.103V144.143Z" fill="#D3D3D5" stroke="#1D1D1B" stroke-width="0.5" stroke-miterlimit="10"/>
<path d="M74.6875 146.127H88.0882" stroke="#1D1D1B" stroke-width="0.5" stroke-miterlimit="10"/>
<path d="M92.9137 130.074H71.0589C70.9576 130.074 70.8562 130.215 70.7751 130.475L69.8831 133.942C69.802 134.283 69.802 134.744 69.8831 135.084L70.7954 138.552C70.8562 138.792 70.9576 138.932 71.0589 138.932H92.9137C93.0151 138.932 93.1164 138.792 93.1975 138.531L94.0895 135.064C94.1706 134.724 94.1706 134.263 94.0895 133.922L93.1772 130.455C93.1164 130.215 93.0151 130.074 92.9137 130.074Z" fill="white" stroke="#1D1D1B" stroke-width="0.53" stroke-miterlimit="10"/>
<path fill-rule="evenodd" clip-rule="evenodd" d="M182.527 45C183.217 52.4953 181.797 59.6298 181.007 67.1051C179.851 78.849 177.094 90.9938 178.574 102.116C181.27 113.981 181.25 128.069 178.979 140.475H177.641C179.892 128.33 179.993 114.402 177.297 102.437C175.776 92.557 177.966 82.4965 178.979 72.6364C179.811 66.0229 180.703 59.4294 181.25 52.7558" fill="#1D1D1B"/>
<path fill-rule="evenodd" clip-rule="evenodd" d="M139.607 141.857L139.851 140.294C141.067 130.614 142.608 120.613 140.722 110.954L140.864 110.633C141.493 109.27 141.878 107.707 142.223 106.264C145.081 93.8388 146.075 81.1129 148.284 68.5272C148.386 67.9059 148.507 67.2847 148.609 66.6634C149.176 63.3967 149.764 60.09 150.575 56.8834C150.677 56.5027 151.934 51.753 152.055 51.252C155.38 62.6953 156.901 74.6597 158.563 86.3836C159.516 92.8568 160.327 99.3501 161.827 105.703C162.151 107.306 162.597 109.09 163.246 110.613L163.449 110.934C161.564 120.714 162.902 130.714 164.057 140.454H162.699C162.293 137.227 161.908 134.061 161.624 130.955C160.996 123.88 160.874 117.307 162.01 111.134C156.759 94.0993 156.597 73.6977 152.055 56.5027C151.184 59.7693 150.352 64.0781 149.643 68.2867C147.291 80.7521 146.541 94.7006 143.317 107.066C142.709 109.391 142.344 111.795 142.608 114.18C143.561 122.417 142.324 131.415 141.209 139.913" fill="#1D1D1B"/>
<path fill-rule="evenodd" clip-rule="evenodd" d="M121.604 45.0801C120.915 59.0085 124.625 74.1393 125.537 87.727C125.943 92.7573 126.409 97.8677 125.537 102.136C122.699 114.642 122.882 129.633 125.537 142.499L127.098 143.942C124.503 131.396 123.976 114.983 126.815 102.437C128.315 92.4367 126.065 82.2359 125.091 72.2355C124.28 65.7422 123.409 59.269 122.882 52.7357" fill="#1D1D1B"/>
<path d="M178.066 144.143C176.566 148.231 172.836 150.656 169.531 150.656C158.117 150.095 161.422 116.667 162.07 111.055C158.745 100.594 157.61 85.4432 154.894 70.0117H181.168C178.735 83.9602 178.532 91.9164 180.904 113.681C182.688 130.615 179.951 139.253 178.066 144.103V144.143Z" fill="#D3D3D5" stroke="#1D1D1B" stroke-width="0.5" stroke-miterlimit="10"/>
<path d="M163.895 146.127H177.295" stroke="#1D1D1B" stroke-width="0.5" stroke-miterlimit="10"/>
<path d="M182.688 125.043H159.738C159.617 125.043 159.515 125.103 159.454 125.183L158.522 126.406C158.42 126.526 158.441 126.686 158.522 126.807L159.475 128.029C159.475 128.029 159.657 128.169 159.758 128.169H182.708C182.83 128.169 182.931 128.109 182.992 128.029L183.924 126.807C184.026 126.686 184.005 126.526 183.924 126.406L182.972 125.183C182.972 125.183 182.789 125.043 182.688 125.043Z" fill="white" stroke="#1D1D1B" stroke-width="0.5" stroke-miterlimit="10"/>
<path d="M182.688 130.152H159.738C159.617 130.152 159.515 130.212 159.454 130.293L158.522 131.515C158.42 131.635 158.441 131.796 158.522 131.916L159.475 133.138C159.475 133.138 159.657 133.279 159.758 133.279H182.708C182.83 133.279 182.931 133.219 182.992 133.138L183.924 131.916C184.026 131.796 184.005 131.635 183.924 131.515L182.972 130.293C182.972 130.293 182.789 130.152 182.688 130.152Z" fill="white" stroke="#1D1D1B" stroke-width="0.5" stroke-miterlimit="10"/>
<path d="M182.688 134.883H159.738C159.617 134.883 159.515 134.943 159.454 135.023L158.522 136.246C158.42 136.366 158.441 136.526 158.522 136.646L159.475 137.869C159.475 137.869 159.657 138.009 159.758 138.009H182.708C182.83 138.009 182.931 137.949 182.992 137.869L183.924 136.646C184.026 136.526 184.005 136.366 183.924 136.246L182.972 135.023C182.972 135.023 182.789 134.883 182.688 134.883Z" fill="white" stroke="#1D1D1B" stroke-width="0.5" stroke-miterlimit="10"/>
<path d="M69.7207 134.422H94.1096" stroke="#1D1D1B" stroke-width="0.25" stroke-miterlimit="10"/>
<path d="M77.0911 170.8C80.7071 170.8 83.6991 172.048 83.6991 176.4C83.6991 180.752 80.7071 182 77.0911 182H72.4831V170.8H77.0911ZM76.8511 180.336C79.9071 180.336 81.6831 179.296 81.6831 176.4C81.6831 173.52 79.9071 172.464 76.8511 172.464H74.4511V180.336H76.8511ZM85.4638 182V173.472H87.4318V182H85.4638ZM86.4398 172.288C85.8318 172.288 85.3997 171.936 85.3997 171.328C85.3997 170.72 85.8318 170.368 86.4398 170.368C87.0638 170.368 87.4958 170.72 87.4958 171.328C87.4958 171.936 87.0638 172.288 86.4398 172.288ZM94.1629 177.008C96.5789 177.424 97.9389 177.744 97.9389 179.424C97.9389 181.408 96.2909 182.24 93.4429 182.24C90.8509 182.24 88.8669 181.344 88.8669 179.408H90.8989C90.8989 180.336 91.8109 180.752 93.6029 180.752C95.3469 180.752 95.9709 180.32 95.9709 179.68C95.9709 178.736 94.5469 178.72 92.3709 178.32C90.1629 177.904 89.1869 177.392 89.1869 175.872C89.1869 174.16 90.7869 173.232 93.2989 173.232C96.0349 173.232 97.5069 174.32 97.5069 175.904H95.6669C95.6669 175.36 95.0909 174.688 93.2669 174.688C91.5549 174.688 90.9629 175.12 90.9629 175.776C90.9629 176.64 92.6429 176.752 94.1629 177.008ZM104.797 174.976H102.221V178.816C102.221 180.256 102.797 180.656 104.797 180.448V181.984C104.509 182.064 104.077 182.128 103.677 182.128C101.085 182.128 100.253 181.072 100.253 178.816V174.976H98.5894V173.472H100.253V171.264H102.221V173.472H104.797V174.976ZM110.538 173.232C112.89 173.232 114.89 174.016 114.89 176.464V182H112.922V180.896C112.506 181.376 111.482 182.24 109.482 182.24C107.434 182.24 106.074 181.392 106.074 179.76C106.074 178 107.034 176.608 112.922 176.992V176.464C112.922 175.28 112.314 174.688 110.538 174.688C109.018 174.688 108.394 175.184 108.25 175.904H106.41C106.666 174.112 108.33 173.232 110.538 173.232ZM112.922 179.6V178.176C109.37 178 108.09 178.304 108.09 179.632C108.09 180.496 108.762 180.928 109.898 180.928C111.402 180.928 112.394 180.368 112.922 179.6ZM117.136 170.192H119.104V182H117.136V170.192ZM130.475 177.008C132.891 177.424 134.251 177.744 134.251 179.424C134.251 181.408 132.603 182.24 129.755 182.24C127.163 182.24 125.179 181.344 125.179 179.408H127.211C127.211 180.336 128.123 180.752 129.915 180.752C131.659 180.752 132.283 180.32 132.283 179.68C132.283 178.736 130.859 178.72 128.683 178.32C126.475 177.904 125.499 177.392 125.499 175.872C125.499 174.16 127.099 173.232 129.611 173.232C132.347 173.232 133.819 174.32 133.819 175.904H131.979C131.979 175.36 131.403 174.688 129.579 174.688C127.867 174.688 127.275 175.12 127.275 175.776C127.275 176.64 128.955 176.752 130.475 177.008ZM140.014 173.232C142.718 173.232 144.894 174.832 144.67 178.368H136.99C137.214 179.824 138.254 180.784 140.046 180.784C141.71 180.784 142.414 179.984 142.702 179.376H144.43C143.998 181.12 142.334 182.24 140.046 182.24C137.614 182.24 135.214 180.848 135.214 177.744C135.214 174.688 137.566 173.232 140.014 173.232ZM137.038 176.928H142.91C142.654 175.584 141.726 174.688 140.014 174.688C138.43 174.688 137.342 175.584 137.038 176.928ZM150.116 173.232C152.468 173.232 154.468 174.016 154.468 176.464V182H152.5V180.896C152.084 181.376 151.06 182.24 149.06 182.24C147.012 182.24 145.652 181.392 145.652 179.76C145.652 178 146.612 176.608 152.5 176.992V176.464C152.5 175.28 151.892 174.688 150.116 174.688C148.596 174.688 147.972 175.184 147.828 175.904H145.988C146.244 174.112 147.908 173.232 150.116 173.232ZM152.5 179.6V178.176C148.948 178 147.668 178.304 147.668 179.632C147.668 180.496 148.34 180.928 149.476 180.928C150.98 180.928 151.972 180.368 152.5 179.6ZM156.714 170.192H158.682V182H156.714V170.192Z" fill="black"/>
</svg>
