<svg width="132" height="129" viewBox="0 0 132 129" fill="none" xmlns="http://www.w3.org/2000/svg">
<rect width="132" height="129" rx="10" fill="white"/>
<path d="M27.457 113.6C30.169 113.6 32.413 114.536 32.413 117.8C32.413 121.064 30.169 122 27.457 122H24.001V113.6H27.457ZM27.277 120.752C29.569 120.752 30.901 119.972 30.901 117.8C30.901 115.64 29.569 114.848 27.277 114.848H25.477V120.752H27.277ZM33.7365 122V115.604H35.2125V122H33.7365ZM34.4685 114.716C34.0125 114.716 33.6885 114.452 33.6885 113.996C33.6885 113.54 34.0125 113.276 34.4685 113.276C34.9365 113.276 35.2605 113.54 35.2605 113.996C35.2605 114.452 34.9365 114.716 34.4685 114.716ZM40.2608 118.256C42.0728 118.568 43.0928 118.808 43.0928 120.068C43.0928 121.556 41.8568 122.18 39.7208 122.18C37.7768 122.18 36.2888 121.508 36.2888 120.056H37.8128C37.8128 120.752 38.4968 121.064 39.8408 121.064C41.1488 121.064 41.6168 120.74 41.6168 120.26C41.6168 119.552 40.5488 119.54 38.9168 119.24C37.2608 118.928 36.5288 118.544 36.5288 117.404C36.5288 116.12 37.7288 115.424 39.6128 115.424C41.6648 115.424 42.7688 116.24 42.7688 117.428H41.3888C41.3888 117.02 40.9568 116.516 39.5888 116.516C38.3048 116.516 37.8608 116.84 37.8608 117.332C37.8608 117.98 39.1208 118.064 40.2608 118.256ZM48.2367 116.732H46.3047V119.612C46.3047 120.692 46.7367 120.992 48.2367 120.836V121.988C48.0207 122.048 47.6967 122.096 47.3967 122.096C45.4527 122.096 44.8287 121.304 44.8287 119.612V116.732H43.5807V115.604H44.8287V113.948H46.3047V115.604H48.2367V116.732ZM52.542 115.424C54.306 115.424 55.806 116.012 55.806 117.848V122H54.33V121.172C54.018 121.532 53.25 122.18 51.75 122.18C50.214 122.18 49.194 121.544 49.194 120.32C49.194 119 49.914 117.956 54.33 118.244V117.848C54.33 116.96 53.874 116.516 52.542 116.516C51.402 116.516 50.934 116.888 50.826 117.428H49.446C49.638 116.084 50.886 115.424 52.542 115.424ZM54.33 120.2V119.132C51.666 119 50.706 119.228 50.706 120.224C50.706 120.872 51.21 121.196 52.062 121.196C53.19 121.196 53.934 120.776 54.33 120.2ZM57.4904 113.144H58.9664V122H57.4904V113.144ZM64.1232 113.144H65.5992V122H64.1232V113.144ZM70.4555 115.424C72.3275 115.424 74.1275 116.444 74.1275 118.808C74.1275 121.172 72.3275 122.18 70.4555 122.18C68.5835 122.18 66.7955 121.172 66.7955 118.808C66.7955 116.444 68.5835 115.424 70.4555 115.424ZM70.4555 121.088C72.1715 121.088 72.7595 119.924 72.7595 118.808C72.7595 117.68 72.1715 116.516 70.4555 116.516C68.7395 116.516 68.1515 117.68 68.1515 118.808C68.1515 119.924 68.7395 121.088 70.4555 121.088ZM78.5303 121.088C79.8263 121.088 80.4743 120.332 80.6543 119.612H82.0343C81.7223 121.316 80.2583 122.18 78.5303 122.18C76.6583 122.18 74.8463 121.172 74.8463 118.808C74.8463 116.444 76.6583 115.424 78.5303 115.424C80.2583 115.424 81.7223 116.288 82.0343 117.992H80.6543C80.4743 117.272 79.8263 116.516 78.5303 116.516C76.8143 116.516 76.2023 117.68 76.2023 118.808C76.2023 119.924 76.8143 121.088 78.5303 121.088ZM88.2765 122L86.1045 119.096L84.7245 120.392V122H83.2365V113.6H84.7245V118.712L88.0245 115.604H89.8725L87.1485 118.136L90.0285 122H88.2765ZM91.1115 122V115.604H92.5875V122H91.1115ZM91.8435 114.716C91.3875 114.716 91.0635 114.452 91.0635 113.996C91.0635 113.54 91.3875 113.276 91.8435 113.276C92.3115 113.276 92.6355 113.54 92.6355 113.996C92.6355 114.452 92.3115 114.716 91.8435 114.716ZM98.1878 115.424C99.8558 115.424 100.768 116.372 100.768 117.86V122H99.2918V118.304C99.2918 117.224 98.7038 116.624 97.5398 116.624C96.3758 116.624 95.7398 117.296 95.7398 118.304V122H94.2638V115.604H95.7398V116.588C96.0398 116.168 96.8558 115.424 98.1878 115.424ZM107.64 115.604H109.116V121.388C109.116 123.86 107.232 124.232 105.396 124.232C103.392 124.232 102.192 123.524 102.06 122.312H103.428C103.524 122.696 104.004 123.116 105.396 123.116C107.184 123.116 107.64 122.54 107.64 121.388V120.68C107.172 121.244 106.416 121.604 105.288 121.604C103.428 121.604 101.964 120.68 101.964 118.58C101.964 116.468 103.428 115.424 105.288 115.424C106.416 115.424 107.172 115.844 107.64 116.468V115.604ZM105.576 120.644C106.956 120.644 107.868 119.9 107.868 118.58C107.868 117.248 106.98 116.516 105.576 116.516C104.184 116.516 103.332 117.224 103.332 118.58C103.332 119.924 104.196 120.644 105.576 120.644Z" fill="black"/>
<g clip-path="url(#clip0_9371_4402)">
<path fill-rule="evenodd" clip-rule="evenodd" d="M91.8546 6C92.4353 12.2992 91.2531 18.3289 90.5894 24.6281C89.6146 34.5327 87.3332 44.7481 88.5569 54.114C90.8176 64.1014 90.7761 75.9745 88.8887 86.4386H87.7688C89.6561 76.2025 89.7391 64.4744 87.4784 54.3833C86.2133 46.0535 88.0384 37.5787 88.868 29.2696C89.5524 23.6957 90.2991 18.1425 90.7554 12.5064" fill="#1D1D1B"/>
<path fill-rule="evenodd" clip-rule="evenodd" d="M56.0781 87.6171L56.2855 86.291C57.3018 78.1476 58.5877 69.7142 57.0114 61.5709L57.1151 61.3015C57.6336 60.1619 57.9655 58.8357 58.2558 57.6132C60.641 47.1492 61.4706 36.4157 63.3164 25.8273C63.3994 25.3093 63.5031 24.7913 63.5861 24.2733C64.0631 21.5174 64.5401 18.7408 65.2245 16.0263C65.3075 15.6948 66.3445 11.6957 66.4482 11.2812C69.2066 20.9372 70.4925 30.9868 71.8821 40.8914C72.691 46.3618 73.3547 51.8321 74.5991 57.1781C74.8687 58.5249 75.242 60.0376 75.7813 61.3223L75.9472 61.5916C74.3709 69.8178 75.4909 78.2512 76.4449 86.4774H75.325C74.9724 83.763 74.6613 81.09 74.4331 78.4585C73.9146 72.4908 73.7902 66.9583 74.7443 61.7574C70.3681 47.3978 70.2229 30.2202 66.4482 15.7155C65.7223 18.4714 65.0171 22.0976 64.4364 25.6408C62.4661 36.1463 61.8439 47.8951 59.1684 58.3177C58.6706 60.2862 58.3595 62.2961 58.5877 64.3061C59.3758 71.2476 58.3595 78.8314 57.4262 85.9801" fill="#1D1D1B"/>
<path fill-rule="evenodd" clip-rule="evenodd" d="M41.062 6.0625C40.5021 17.7905 43.5923 30.5546 44.3597 41.9926C44.6916 46.2196 45.0856 50.5296 44.3597 54.135C41.9954 64.6612 42.1405 77.301 44.3597 88.138L45.6664 89.3399C43.5094 78.7722 43.0531 64.9306 45.4382 54.3629C46.7034 45.9503 44.816 37.3304 43.9864 28.9177C43.3227 23.4473 42.5968 17.9977 42.1405 12.486" fill="#1D1D1B"/>
<path d="M88.1423 89.5466C86.8979 93.007 83.7869 95.0376 81.0284 95.0376C71.5087 94.5611 74.2672 66.4013 74.8064 61.677C72.0272 52.8498 71.0939 40.1065 68.8125 27.0938H90.7348C88.7023 38.8425 88.5364 45.5561 90.5274 63.8941C92.0207 78.1501 89.7186 85.4439 88.163 89.5259L88.1423 89.5466Z" fill="#D3D3D5" stroke="#1D1D1B" stroke-width="0.5" stroke-miterlimit="10"/>
<path d="M81.8582 95.1172H80.6553V100.318H81.8582V95.1172Z" fill="#D3D3D5" stroke="#050A0A" stroke-width="0.29" stroke-miterlimit="10"/>
<path d="M81.2569 101.69C80.9665 101.69 80.7591 101.565 80.7176 101.275L80.4272 100.156H82.0657L81.7754 101.275C81.7339 101.565 81.5265 101.69 81.2361 101.69H81.2569Z" fill="#D3D3D5" stroke="#050A0A" stroke-width="0.29" stroke-miterlimit="10"/>
<path d="M80.5928 96.8203L81.9409 97.2969" stroke="#050A0A" stroke-width="0.29" stroke-miterlimit="10"/>
<path d="M80.5928 98.25L81.9409 98.7266" stroke="#050A0A" stroke-width="0.29" stroke-miterlimit="10"/>
<path d="M80.5928 99.6797L81.9409 100.156" stroke="#050A0A" stroke-width="0.29" stroke-miterlimit="10"/>
<path d="M76.3203 91.2031H87.4992" stroke="#1D1D1B" stroke-width="0.5" stroke-miterlimit="10"/>
</g>
<defs>
<clipPath id="clip0_9371_4402">
<rect width="51" height="96" fill="white" transform="translate(41 6)"/>
</clipPath>
</defs>
</svg>
