<svg width="217" height="195" viewBox="0 0 217 195" fill="none" xmlns="http://www.w3.org/2000/svg">
<rect width="217" height="195" rx="10" fill="#D9D9D9"/>
<g clip-path="url(#clip0_2717_259)">
<path fill-rule="evenodd" clip-rule="evenodd" d="M141.81 28C142.573 36.2676 141.02 44.1817 140.148 52.4494C138.867 65.4492 135.87 78.8569 137.478 91.1496C140.447 104.258 140.393 119.842 137.913 133.576H136.442C138.922 120.141 139.031 104.748 136.061 91.5031C134.399 80.5703 136.796 69.447 137.886 58.5413C138.785 51.2256 139.766 43.937 140.366 36.5396" fill="#1D1D1B"/>
<path fill-rule="evenodd" clip-rule="evenodd" d="M94.8086 135.126L95.0811 133.386C96.4162 122.698 98.1055 111.629 96.0347 100.941L96.1709 100.587C96.8521 99.0914 97.2881 97.3508 97.6695 95.7462C100.803 82.0122 101.893 67.9245 104.318 54.0273C104.427 53.3474 104.563 52.6675 104.672 51.9876C105.299 48.3705 105.925 44.7262 106.824 41.1635C106.933 40.7283 108.296 35.4795 108.432 34.9355C112.056 47.609 113.745 60.7991 115.571 73.7989C116.633 80.9787 117.505 88.1585 119.14 95.1751C119.494 96.9429 119.985 98.9282 120.693 100.614L120.911 100.968C118.84 111.765 120.312 122.834 121.565 133.631H120.094C119.63 130.068 119.222 126.56 118.922 123.106C118.241 115.273 118.077 108.012 119.331 101.185C113.582 82.3385 113.391 59.7929 108.432 40.7555C107.478 44.3726 106.552 49.132 105.789 53.7825C103.201 67.571 102.383 82.9912 98.8684 96.6709C98.2145 99.2546 97.8057 101.893 98.1055 104.531C99.1408 113.641 97.8057 123.595 96.5796 132.978" fill="#1D1D1B"/>
<path fill-rule="evenodd" clip-rule="evenodd" d="M75.0817 28.082C74.3461 43.4751 78.4058 60.2279 79.414 75.2402C79.8499 80.7883 80.3676 86.4451 79.414 91.1772C76.3078 104.993 76.4986 121.583 79.414 135.806L81.1305 137.384C78.2969 123.514 77.6974 105.346 80.8308 91.4764C82.4929 80.4347 80.0134 69.1211 78.9235 58.0794C78.0516 50.8996 77.098 43.747 76.4986 36.5129" fill="#1D1D1B"/>
<path d="M136.932 137.655C135.297 142.197 131.21 144.862 127.586 144.862C115.08 144.236 118.704 107.277 119.412 101.076C115.761 89.4904 114.535 72.7648 111.538 55.6855H140.338C137.668 71.1058 137.45 79.9174 140.066 103.986C142.027 122.697 139.003 132.27 136.959 137.628L136.932 137.655Z" fill="#D3D3D5" stroke="#1D1D1B" stroke-width="0.5" stroke-miterlimit="10"/>
<path d="M128.676 144.971H127.096V151.797H128.676V144.971Z" fill="#D3D3D5" stroke="#050A0A" stroke-width="0.29" stroke-miterlimit="10"/>
<path d="M127.886 153.593C127.504 153.593 127.232 153.429 127.177 153.049L126.796 151.58H128.948L128.567 153.049C128.512 153.429 128.24 153.593 127.859 153.593H127.886Z" fill="#D3D3D5" stroke="#050A0A" stroke-width="0.29" stroke-miterlimit="10"/>
<path d="M127.015 147.201L128.786 147.827" stroke="#050A0A" stroke-width="0.29" stroke-miterlimit="10"/>
<path d="M127.015 149.078L128.786 149.704" stroke="#050A0A" stroke-width="0.29" stroke-miterlimit="10"/>
<path d="M127.015 150.953L128.786 151.579" stroke="#050A0A" stroke-width="0.29" stroke-miterlimit="10"/>
<path d="M121.401 139.83H136.087" stroke="#1D1D1B" stroke-width="0.5" stroke-miterlimit="10"/>
</g>
<path d="M55.9427 166.8C59.5587 166.8 62.5507 168.048 62.5507 172.4C62.5507 176.752 59.5587 178 55.9427 178H51.3347V166.8H55.9427ZM55.7027 176.336C58.7587 176.336 60.5347 175.296 60.5347 172.4C60.5347 169.52 58.7587 168.464 55.7027 168.464H53.3027V176.336H55.7027ZM64.3153 178V169.472H66.2833V178H64.3153ZM65.2913 168.288C64.6833 168.288 64.2513 167.936 64.2513 167.328C64.2513 166.72 64.6833 166.368 65.2913 166.368C65.9153 166.368 66.3473 166.72 66.3473 167.328C66.3473 167.936 65.9153 168.288 65.2913 168.288ZM73.0144 173.008C75.4304 173.424 76.7904 173.744 76.7904 175.424C76.7904 177.408 75.1424 178.24 72.2944 178.24C69.7024 178.24 67.7184 177.344 67.7184 175.408H69.7504C69.7504 176.336 70.6624 176.752 72.4544 176.752C74.1984 176.752 74.8224 176.32 74.8224 175.68C74.8224 174.736 73.3984 174.72 71.2224 174.32C69.0144 173.904 68.0384 173.392 68.0384 171.872C68.0384 170.16 69.6384 169.232 72.1504 169.232C74.8864 169.232 76.3584 170.32 76.3584 171.904H74.5184C74.5184 171.36 73.9424 170.688 72.1184 170.688C70.4064 170.688 69.8144 171.12 69.8144 171.776C69.8144 172.64 71.4944 172.752 73.0144 173.008ZM83.6489 170.976H81.0729V174.816C81.0729 176.256 81.6489 176.656 83.6489 176.448V177.984C83.3609 178.064 82.9289 178.128 82.5289 178.128C79.9369 178.128 79.1049 177.072 79.1049 174.816V170.976H77.4409V169.472H79.1049V167.264H81.0729V169.472H83.6489V170.976ZM89.3893 169.232C91.7413 169.232 93.7413 170.016 93.7413 172.464V178H91.7733V176.896C91.3573 177.376 90.3333 178.24 88.3333 178.24C86.2853 178.24 84.9253 177.392 84.9253 175.76C84.9253 174 85.8853 172.608 91.7733 172.992V172.464C91.7733 171.28 91.1653 170.688 89.3893 170.688C87.8693 170.688 87.2453 171.184 87.1013 171.904H85.2613C85.5173 170.112 87.1813 169.232 89.3893 169.232ZM91.7733 175.6V174.176C88.2213 174 86.9413 174.304 86.9413 175.632C86.9413 176.496 87.6133 176.928 88.7493 176.928C90.2533 176.928 91.2453 176.368 91.7733 175.6ZM95.9872 166.192H97.9552V178H95.9872V166.192ZM104.831 166.192H106.799V178H104.831V166.192ZM113.274 169.232C115.77 169.232 118.17 170.592 118.17 173.744C118.17 176.896 115.77 178.24 113.274 178.24C110.778 178.24 108.394 176.896 108.394 173.744C108.394 170.592 110.778 169.232 113.274 169.232ZM113.274 176.784C115.562 176.784 116.346 175.232 116.346 173.744C116.346 172.24 115.562 170.688 113.274 170.688C110.986 170.688 110.202 172.24 110.202 173.744C110.202 175.232 110.986 176.784 113.274 176.784ZM124.04 176.784C125.768 176.784 126.632 175.776 126.872 174.816H128.712C128.296 177.088 126.344 178.24 124.04 178.24C121.544 178.24 119.128 176.896 119.128 173.744C119.128 170.592 121.544 169.232 124.04 169.232C126.344 169.232 128.296 170.384 128.712 172.656H126.872C126.632 171.696 125.768 170.688 124.04 170.688C121.752 170.688 120.936 172.24 120.936 173.744C120.936 175.232 121.752 176.784 124.04 176.784ZM137.035 178L134.139 174.128L132.299 175.856V178H130.315V166.8H132.299V173.616L136.699 169.472H139.163L135.531 172.848L139.371 178H137.035ZM140.815 178V169.472H142.783V178H140.815ZM141.791 168.288C141.183 168.288 140.751 167.936 140.751 167.328C140.751 166.72 141.183 166.368 141.791 166.368C142.415 166.368 142.847 166.72 142.847 167.328C142.847 167.936 142.415 168.288 141.791 168.288ZM150.25 169.232C152.474 169.232 153.69 170.496 153.69 172.48V178H151.722V173.072C151.722 171.632 150.938 170.832 149.386 170.832C147.834 170.832 146.986 171.728 146.986 173.072V178H145.018V169.472H146.986V170.784C147.386 170.224 148.474 169.232 150.25 169.232ZM162.853 169.472H164.821V177.184C164.821 180.48 162.309 180.976 159.861 180.976C157.189 180.976 155.589 180.032 155.413 178.416H157.237C157.365 178.928 158.005 179.488 159.861 179.488C162.245 179.488 162.853 178.72 162.853 177.184V176.24C162.229 176.992 161.221 177.472 159.717 177.472C157.237 177.472 155.285 176.24 155.285 173.44C155.285 170.624 157.237 169.232 159.717 169.232C161.221 169.232 162.229 169.792 162.853 170.624V169.472ZM160.101 176.192C161.941 176.192 163.157 175.2 163.157 173.44C163.157 171.664 161.973 170.688 160.101 170.688C158.245 170.688 157.109 171.632 157.109 173.44C157.109 175.232 158.261 176.192 160.101 176.192Z" fill="black"/>
<defs>
<clipPath id="clip0_2717_259">
<rect width="67" height="126" fill="white" transform="translate(75 28)"/>
</clipPath>
</defs>
</svg>
