<svg width="217" height="195" viewBox="0 0 217 195" fill="none" xmlns="http://www.w3.org/2000/svg">
<rect width="217" height="195" rx="10" fill="#D9D9D9"/>
<g clip-path="url(#clip0_2717_255)">
<path fill-rule="evenodd" clip-rule="evenodd" d="M143.795 28C144.615 36.7572 142.946 45.1399 142.009 53.8971C140.633 67.6667 137.412 81.8683 139.139 94.8889C142.331 108.774 142.272 125.28 139.608 139.827H138.027C140.691 125.597 140.808 109.292 137.617 95.2634C135.831 83.6831 138.407 71.9012 139.579 60.3498C140.545 52.6008 141.599 44.8807 142.243 37.0453" fill="#1D1D1B"/>
<path fill-rule="evenodd" clip-rule="evenodd" d="M93.2861 141.469L93.5789 139.626C95.0137 128.305 96.829 116.58 94.6037 105.259L94.7501 104.885C95.4821 103.3 95.9506 101.457 96.3606 99.7572C99.7278 85.2099 100.899 70.2881 103.505 55.5679C103.622 54.8478 103.768 54.1276 103.886 53.4074C104.559 49.5762 105.232 45.7161 106.199 41.9424C106.316 41.4815 107.78 35.9218 107.926 35.3457C111.82 48.7696 113.636 62.7408 115.598 76.5103C116.74 84.1152 117.677 91.7202 119.433 99.1523C119.814 101.025 120.341 103.128 121.102 104.914L121.337 105.288C119.111 116.724 120.692 128.449 122.039 139.885H120.458C119.96 136.111 119.521 132.395 119.199 128.737C118.467 120.44 118.291 112.749 119.638 105.519C113.46 85.5556 113.255 61.6749 107.926 41.5103C106.901 45.3416 105.906 50.3827 105.086 55.3087C102.304 69.9136 101.426 86.2469 97.6489 100.737C96.9462 103.473 96.507 106.268 96.829 109.062C97.9417 118.712 96.507 129.255 95.1893 139.193" fill="#1D1D1B"/>
<path fill-rule="evenodd" clip-rule="evenodd" d="M72.0874 28.0859C71.2968 44.3905 75.6595 62.1353 76.7429 78.0365C77.2114 83.9131 77.7677 89.9049 76.7429 94.9172C73.405 109.551 73.6099 127.123 76.7429 142.189L78.5876 143.86C75.5424 129.168 74.8983 109.925 78.2655 95.2341C80.0516 83.5386 77.3871 71.5551 76.2159 59.8596C75.2789 52.2547 74.2541 44.6785 73.6099 37.016" fill="#1D1D1B"/>
<path d="M138.759 144.147C137.002 148.958 132.61 151.781 128.716 151.781C117.033 151.781 119.053 120.641 119.053 116.09C119.053 112.431 119.639 107.563 119.961 105.402C118.995 103.732 117.589 96.4148 116.857 91.8633C116.272 88.2049 113.051 67.3201 111.499 57.3242H142.448C142.126 59.0814 141.277 64.4683 140.486 71.958C139.52 81.2049 140.223 88.5794 142.126 108.485L142.185 109.118C144.117 129.485 140.984 138.127 138.788 144.118L138.759 144.147Z" fill="#D3D3D5" stroke="#1D1D1B" stroke-width="0.5" stroke-miterlimit="10"/>
<path d="M133.371 70.7773H124.909V74.2053H133.371V70.7773Z" stroke="#050A0A" stroke-width="0.29" stroke-miterlimit="10"/>
<path d="M122.538 146.453H138.32" stroke="#1D1D1B" stroke-width="0.5" stroke-miterlimit="10"/>
<path d="M131.848 72.3613H126.432V153.567H131.848V72.3613Z" fill="white" stroke="#050A0A" stroke-width="0.29" stroke-miterlimit="10"/>
</g>
<path d="M82.9026 180.336V182H73.6706V170.8H75.6386V180.336H82.9026ZM88.4909 173.232C90.8429 173.232 92.8429 174.016 92.8429 176.464V182H90.8749V180.896C90.4589 181.376 89.4349 182.24 87.4349 182.24C85.3869 182.24 84.0269 181.392 84.0269 179.76C84.0269 178 84.9869 176.608 90.8749 176.992V176.464C90.8749 175.28 90.2669 174.688 88.4909 174.688C86.9709 174.688 86.3469 175.184 86.2029 175.904H84.3629C84.6189 174.112 86.2829 173.232 88.4909 173.232ZM90.8749 179.6V178.176C87.3229 178 86.0429 178.304 86.0429 179.632C86.0429 180.496 86.7149 180.928 87.8509 180.928C89.3549 180.928 90.3469 180.368 90.8749 179.6ZM100.321 173.232C102.545 173.232 103.761 174.496 103.761 176.48V182H101.793V177.072C101.793 175.632 101.009 174.832 99.4568 174.832C97.9048 174.832 97.0568 175.728 97.0568 177.072V182H95.0888V173.472H97.0568V174.784C97.4568 174.224 98.5448 173.232 100.321 173.232ZM112.531 173.472H114.595L109.475 184.672H107.523L108.851 181.696L104.883 173.472H106.947L109.779 179.632L112.531 173.472ZM119.225 173.232C121.577 173.232 123.577 174.016 123.577 176.464V182H121.609V180.896C121.193 181.376 120.169 182.24 118.169 182.24C116.121 182.24 114.761 181.392 114.761 179.76C114.761 178 115.721 176.608 121.609 176.992V176.464C121.609 175.28 121.001 174.688 119.225 174.688C117.705 174.688 117.081 175.184 116.937 175.904H115.097C115.353 174.112 117.017 173.232 119.225 173.232ZM121.609 179.6V178.176C118.057 178 116.777 178.304 116.777 179.632C116.777 180.496 117.449 180.928 118.585 180.928C120.089 180.928 121.081 180.368 121.609 179.6ZM131.215 173.232C131.599 173.232 131.823 173.248 132.159 173.296V175.248H132.095C131.759 175.152 131.327 175.088 130.783 175.088C128.623 175.088 127.807 176.336 127.807 177.664V182H125.823V173.472H127.807V175.072C128.191 174.448 129.375 173.232 131.215 173.232ZM140.516 170.8H142.484V182H140.516V180.88C139.844 181.696 138.82 182.24 137.396 182.24C134.9 182.24 132.964 180.624 132.964 177.744C132.964 174.848 134.9 173.232 137.396 173.232C138.82 173.232 139.844 173.776 140.516 174.592V170.8ZM137.78 180.784C139.812 180.784 140.82 179.504 140.82 177.744C140.82 175.968 139.844 174.688 137.78 174.688C135.7 174.688 134.788 175.936 134.788 177.744C134.788 179.536 135.732 180.784 137.78 180.784Z" fill="black"/>
<defs>
<clipPath id="clip0_2717_255">
<rect width="72" height="126" fill="white" transform="translate(72 28)"/>
</clipPath>
</defs>
</svg>
