<svg width="132" height="129" viewBox="0 0 132 129" fill="none" xmlns="http://www.w3.org/2000/svg">
<rect width="132" height="129" rx="10" fill="white"/>
<path d="M11.1803 115.152C13.5563 115.476 14.9843 115.836 14.9843 117.468C14.9843 119.052 13.7963 120.18 10.8563 120.18C7.72433 120.18 6.47633 119.016 6.47633 117.504H8.06033C8.10833 118.38 9.09233 118.932 10.9043 118.932C12.4643 118.932 13.4483 118.548 13.4483 117.648C13.4483 116.64 12.0563 116.724 9.71633 116.34C7.70033 116.016 6.76433 115.368 6.76433 114C6.76433 112.536 7.83233 111.432 10.6043 111.432C13.4843 111.432 14.5763 112.74 14.5763 113.94H13.0643C12.9923 113.328 12.3563 112.68 10.5683 112.68C8.69633 112.68 8.25233 113.244 8.25233 113.892C8.25233 114.804 9.38033 114.9 11.1803 115.152ZM21.2098 113.604H22.6858V120H21.2098V119.016C20.9098 119.436 20.0938 120.18 18.7618 120.18C17.0938 120.18 16.1818 119.232 16.1818 117.744V113.604H17.6578V117.3C17.6578 118.38 18.2458 118.98 19.4098 118.98C20.5738 118.98 21.2098 118.308 21.2098 117.3V113.604ZM27.7335 116.256C29.5455 116.568 30.5655 116.808 30.5655 118.068C30.5655 119.556 29.3295 120.18 27.1935 120.18C25.2495 120.18 23.7615 119.508 23.7615 118.056H25.2855C25.2855 118.752 25.9695 119.064 27.3135 119.064C28.6215 119.064 29.0895 118.74 29.0895 118.26C29.0895 117.552 28.0215 117.54 26.3895 117.24C24.7335 116.928 24.0015 116.544 24.0015 115.404C24.0015 114.12 25.2015 113.424 27.0855 113.424C29.1375 113.424 30.2415 114.24 30.2415 115.428H28.8615C28.8615 115.02 28.4295 114.516 27.0615 114.516C25.7775 114.516 25.3335 114.84 25.3335 115.332C25.3335 115.98 26.5935 116.064 27.7335 116.256ZM35.5837 113.424C37.4557 113.424 38.9077 114.636 38.9077 116.808C38.9077 118.968 37.4557 120.18 35.5837 120.18C34.5157 120.18 33.7477 119.772 33.2437 119.16V122.004H31.7677V113.604H33.2437V114.444C33.7477 113.832 34.5157 113.424 35.5837 113.424ZM35.2957 119.088C36.8557 119.088 37.5397 118.152 37.5397 116.808C37.5397 115.452 36.8317 114.516 35.2957 114.516C33.7597 114.516 33.0157 115.476 33.0157 116.808C33.0157 118.128 33.7477 119.088 35.2957 119.088ZM43.2315 113.424C45.2595 113.424 46.8915 114.624 46.7235 117.276H40.9635C41.1315 118.368 41.9115 119.088 43.2555 119.088C44.5035 119.088 45.0315 118.488 45.2475 118.032H46.5435C46.2195 119.34 44.9715 120.18 43.2555 120.18C41.4315 120.18 39.6315 119.136 39.6315 116.808C39.6315 114.516 41.3955 113.424 43.2315 113.424ZM40.9995 116.196H45.4035C45.2115 115.188 44.5155 114.516 43.2315 114.516C42.0435 114.516 41.2275 115.188 40.9995 116.196ZM51.8636 113.424C53.5316 113.424 54.4436 114.372 54.4436 115.86V120H52.9676V116.304C52.9676 115.224 52.3796 114.624 51.2156 114.624C50.0516 114.624 49.4156 115.296 49.4156 116.304V120H47.9396V113.604H49.4156V114.588C49.7156 114.168 50.5316 113.424 51.8636 113.424ZM59.4913 116.256C61.3033 116.568 62.3233 116.808 62.3233 118.068C62.3233 119.556 61.0873 120.18 58.9513 120.18C57.0073 120.18 55.5193 119.508 55.5193 118.056H57.0433C57.0433 118.752 57.7273 119.064 59.0713 119.064C60.3793 119.064 60.8473 118.74 60.8473 118.26C60.8473 117.552 59.7793 117.54 58.1473 117.24C56.4913 116.928 55.7593 116.544 55.7593 115.404C55.7593 114.12 56.9593 113.424 58.8433 113.424C60.8953 113.424 61.9993 114.24 61.9993 115.428H60.6193C60.6193 115.02 60.1873 114.516 58.8193 114.516C57.5353 114.516 57.0913 114.84 57.0913 115.332C57.0913 115.98 58.3513 116.064 59.4913 116.256ZM63.5255 120V113.604H65.0015V120H63.5255ZM64.2575 112.716C63.8015 112.716 63.4775 112.452 63.4775 111.996C63.4775 111.54 63.8015 111.276 64.2575 111.276C64.7255 111.276 65.0495 111.54 65.0495 111.996C65.0495 112.452 64.7255 112.716 64.2575 112.716ZM69.8579 113.424C71.7299 113.424 73.5299 114.444 73.5299 116.808C73.5299 119.172 71.7299 120.18 69.8579 120.18C67.9859 120.18 66.1979 119.172 66.1979 116.808C66.1979 114.444 67.9859 113.424 69.8579 113.424ZM69.8579 119.088C71.5739 119.088 72.1619 117.924 72.1619 116.808C72.1619 115.68 71.5739 114.516 69.8579 114.516C68.1419 114.516 67.5539 115.68 67.5539 116.808C67.5539 117.924 68.1419 119.088 69.8579 119.088ZM78.6527 113.424C80.3207 113.424 81.2327 114.372 81.2327 115.86V120H79.7567V116.304C79.7567 115.224 79.1687 114.624 78.0047 114.624C76.8407 114.624 76.2047 115.296 76.2047 116.304V120H74.7287V113.604H76.2047V114.588C76.5047 114.168 77.3207 113.424 78.6527 113.424ZM89.7608 116.256C91.5728 116.568 92.5928 116.808 92.5928 118.068C92.5928 119.556 91.3568 120.18 89.2208 120.18C87.2768 120.18 85.7888 119.508 85.7888 118.056H87.3128C87.3128 118.752 87.9968 119.064 89.3408 119.064C90.6488 119.064 91.1168 118.74 91.1168 118.26C91.1168 117.552 90.0488 117.54 88.4168 117.24C86.7608 116.928 86.0288 116.544 86.0288 115.404C86.0288 114.12 87.2288 113.424 89.1128 113.424C91.1648 113.424 92.2688 114.24 92.2688 115.428H90.8888C90.8888 115.02 90.4568 114.516 89.0888 114.516C87.8048 114.516 87.3608 114.84 87.3608 115.332C87.3608 115.98 88.6208 116.064 89.7608 116.256ZM93.7951 111.144H95.2711V120H93.7951V111.144ZM100.067 113.424C102.095 113.424 103.727 114.624 103.559 117.276H97.7994C97.9674 118.368 98.7474 119.088 100.091 119.088C101.339 119.088 101.867 118.488 102.083 118.032H103.379C103.055 119.34 101.807 120.18 100.091 120.18C98.2674 120.18 96.4674 119.136 96.4674 116.808C96.4674 114.516 98.2314 113.424 100.067 113.424ZM97.8354 116.196H102.239C102.047 115.188 101.351 114.516 100.067 114.516C98.8794 114.516 98.0634 115.188 97.8354 116.196ZM107.896 113.424C109.924 113.424 111.556 114.624 111.388 117.276H105.628C105.796 118.368 106.576 119.088 107.92 119.088C109.168 119.088 109.696 118.488 109.912 118.032H111.208C110.884 119.34 109.636 120.18 107.92 120.18C106.096 120.18 104.296 119.136 104.296 116.808C104.296 114.516 106.06 113.424 107.896 113.424ZM105.664 116.196H110.068C109.876 115.188 109.18 114.516 107.896 114.516C106.708 114.516 105.892 115.188 105.664 116.196ZM117.493 113.604H119.053L116.185 120H114.637L111.769 113.604H113.329L115.417 118.56L117.493 113.604ZM122.896 113.424C124.924 113.424 126.556 114.624 126.388 117.276H120.628C120.796 118.368 121.576 119.088 122.92 119.088C124.168 119.088 124.696 118.488 124.912 118.032H126.208C125.884 119.34 124.636 120.18 122.92 120.18C121.096 120.18 119.296 119.136 119.296 116.808C119.296 114.516 121.06 113.424 122.896 113.424ZM120.664 116.196H125.068C124.876 115.188 124.18 114.516 122.896 114.516C121.708 114.516 120.892 115.188 120.664 116.196Z" fill="black"/>
<g clip-path="url(#clip0_9371_4476)">
<rect width="55" height="97" transform="translate(38 8)" fill="white"/>
<path fill-rule="evenodd" clip-rule="evenodd" d="M92.7546 8C93.3799 14.8243 92.1071 21.3569 91.3925 28.1812C90.3429 38.9116 87.8866 49.9787 89.2041 60.1254C91.6381 70.9456 91.5935 83.8086 89.5614 95.1451H88.3555C90.3876 84.0555 90.4769 71.3497 88.0429 60.4173C86.6807 51.393 88.6458 42.2115 89.539 33.2097C90.276 27.171 91.0799 21.1548 91.5711 15.0488" fill="black"/>
<path fill-rule="evenodd" clip-rule="evenodd" d="M54.2344 96.4269L54.4577 94.9902C55.5519 86.1679 56.9364 77.0314 55.2392 68.2091L55.3509 67.9173C55.9092 66.6826 56.2664 65.2459 56.5791 63.9214C59.1471 52.5849 60.0403 40.9566 62.0277 29.4854C62.117 28.9242 62.2287 28.363 62.318 27.8018C62.8316 24.8161 63.3452 21.808 64.0821 18.8673C64.1714 18.5081 65.288 14.1755 65.3996 13.7266C68.3696 24.1876 69.7541 35.0751 71.2502 45.8055C72.1211 51.7319 72.8357 57.6583 74.1755 63.45C74.4658 64.9092 74.8677 66.5479 75.4483 67.9397L75.627 68.2315C73.9299 77.1436 75.1357 86.2801 76.1629 95.1922H74.9571C74.5774 92.2514 74.2425 89.3556 73.9969 86.5046C73.4386 80.0395 73.3046 74.0457 74.3318 68.4111C69.6201 52.8543 69.4638 34.2445 65.3996 18.5305C64.6181 21.5162 63.8588 25.4447 63.2336 29.2834C61.1122 40.6648 60.4423 53.3931 57.5616 64.6847C57.0257 66.8173 56.6907 68.9948 56.9364 71.1723C57.7849 78.6925 56.6907 86.9087 55.6859 94.6534" fill="black"/>
<path fill-rule="evenodd" clip-rule="evenodd" d="M38.0672 8.07031C37.4643 20.7762 40.7915 34.6045 41.6178 46.996C41.9751 51.5755 42.3993 56.2448 41.6178 60.1508C39.0721 71.5547 39.2284 85.2483 41.6178 96.9889L43.0246 98.2909C40.7022 86.8421 40.2109 71.8465 42.7789 60.3978C44.1411 51.2837 42.109 41.9451 41.2158 32.831C40.5012 26.9046 39.7197 21.0007 39.2284 15.0294" fill="black"/>
<path d="M88.7794 98.5114C87.4396 102.26 84.09 104.46 81.1201 104.46C72.2102 104.46 73.751 80.1934 73.751 76.6465C73.751 73.7956 74.1976 70.0018 74.4433 68.3181C73.7064 67.0161 72.6345 61.3142 72.0762 57.7673C71.6296 54.9164 69.1733 38.6412 67.9897 30.8516H91.5931C91.3474 32.2209 90.6999 36.4188 90.0969 42.2554C89.36 49.4614 89.896 55.2082 91.3474 70.7201L91.3921 71.214C92.8659 87.0851 90.4766 93.8196 88.8018 98.4889L88.7794 98.5114Z" fill="#D3D3D5" stroke="black" stroke-width="0.5" stroke-miterlimit="10"/>
<path d="M75.9395 100.305H87.9533" stroke="black" stroke-width="0.5" stroke-miterlimit="10"/>
<path d="M66.5386 24.6356L92.4196 24.3438L91.0798 55.0084H69.9551C69.9551 55.0084 66.5386 36.4659 66.5386 24.6356Z" fill="white" stroke="black" stroke-width="0.5" stroke-miterlimit="10"/>
</g>
<defs>
<clipPath id="clip0_9371_4476">
<rect width="55" height="97" fill="white" transform="translate(38 8)"/>
</clipPath>
</defs>
</svg>
