<svg width="217" height="195" viewBox="0 0 217 195" fill="none" xmlns="http://www.w3.org/2000/svg">
<rect width="217" height="195" rx="10" fill="#D9D9D9"/>
<g clip-path="url(#clip0_2690_288)">
<path fill-rule="evenodd" clip-rule="evenodd" d="M144.674 26C145.504 35.0053 143.814 43.6255 142.866 52.6309C141.473 66.7906 138.213 81.3946 139.961 94.7841C143.192 109.062 143.133 126.036 140.436 140.996H138.835C141.532 126.362 141.651 109.595 138.42 95.1692C136.612 83.2608 139.221 71.1451 140.406 59.2664C141.384 51.2978 142.451 43.3589 143.103 35.3016" fill="#1D1D1B"/>
<path fill-rule="evenodd" clip-rule="evenodd" d="M93.5469 142.685L93.8433 140.789C95.2956 129.147 97.1332 117.091 94.8806 105.449L95.0288 105.064C95.7698 103.435 96.244 101.539 96.6589 99.7912C100.067 84.8317 101.253 69.4871 103.891 54.3499C104.009 53.6093 104.158 52.8687 104.276 52.1282C104.958 48.1883 105.639 44.2189 106.618 40.3383C106.736 39.8643 108.218 34.1471 108.366 33.5547C112.308 47.3589 114.146 61.7259 116.132 75.8856C117.287 83.706 118.236 91.5265 120.014 99.1691C120.399 101.095 120.933 103.257 121.704 105.094L121.941 105.479C119.688 117.239 121.289 129.295 122.652 141.056H121.052C120.548 137.175 120.103 133.354 119.777 129.592C119.036 121.06 118.858 113.151 120.222 105.716C113.968 85.1872 113.76 60.6299 108.366 39.894C107.329 43.8338 106.321 49.0178 105.491 54.0833C102.676 69.102 101.786 85.8981 97.963 100.798C97.2517 103.613 96.8071 106.486 97.1332 109.359C98.2594 119.283 96.8071 130.125 95.4734 140.345" fill="#1D1D1B"/>
<path fill-rule="evenodd" clip-rule="evenodd" d="M72.0885 26.0898C71.2883 42.8563 75.7044 61.104 76.8011 77.4557C77.2753 83.4988 77.8384 89.6603 76.8011 94.8147C73.4223 109.863 73.6297 127.933 76.8011 143.426L78.6683 145.144C75.5859 130.036 74.9338 110.248 78.3423 95.1405C80.1502 83.1137 77.4531 70.7906 76.2676 58.7638C75.3191 50.9434 74.2818 43.1526 73.6297 35.2729" fill="#1D1D1B"/>
<path d="M139.398 145.439C137.62 150.386 133.174 153.289 129.232 153.289C117.406 153.289 119.451 121.267 119.451 116.587C119.451 112.825 120.044 107.818 120.37 105.597C119.392 103.879 117.97 96.3544 117.229 91.674C116.636 87.9119 113.376 66.4354 111.805 56.1562H143.133C142.807 57.9632 141.947 63.5027 141.147 71.2046C140.169 80.7135 140.88 88.297 142.807 108.766L142.866 109.418C144.822 130.361 141.651 139.248 139.428 145.41L139.398 145.439Z" fill="#D3D3D5" stroke="#1D1D1B" stroke-width="0.5" stroke-miterlimit="10"/>
<path d="M122.356 147.809H138.302" stroke="#1D1D1B" stroke-width="0.5" stroke-miterlimit="10"/>
<path d="M109.878 47.9495L144.229 47.5645L142.451 88.0292H114.413C114.413 88.0292 109.878 63.5607 109.878 47.9495Z" fill="white" stroke="#1D1D1B" stroke-width="0.5" stroke-miterlimit="10"/>
</g>
<path d="M34.7404 173.536C37.9084 173.968 39.8124 174.448 39.8124 176.624C39.8124 178.736 38.2284 180.24 34.3084 180.24C30.1324 180.24 28.4684 178.688 28.4684 176.672H30.5804C30.6444 177.84 31.9564 178.576 34.3724 178.576C36.4524 178.576 37.7644 178.064 37.7644 176.864C37.7644 175.52 35.9084 175.632 32.7884 175.12C30.1004 174.688 28.8524 173.824 28.8524 172C28.8524 170.048 30.2764 168.576 33.9724 168.576C37.8124 168.576 39.2684 170.32 39.2684 171.92H37.2524C37.1564 171.104 36.3084 170.24 33.9244 170.24C31.4284 170.24 30.8364 170.992 30.8364 171.856C30.8364 173.072 32.3404 173.2 34.7404 173.536ZM48.1131 171.472H50.0811V180H48.1131V178.688C47.7131 179.248 46.6251 180.24 44.8491 180.24C42.6251 180.24 41.4091 178.976 41.4091 176.992V171.472H43.3771V176.4C43.3771 177.84 44.1611 178.64 45.7131 178.64C47.2651 178.64 48.1131 177.744 48.1131 176.4V171.472ZM56.8113 175.008C59.2273 175.424 60.5873 175.744 60.5873 177.424C60.5873 179.408 58.9393 180.24 56.0913 180.24C53.4993 180.24 51.5153 179.344 51.5153 177.408H53.5473C53.5473 178.336 54.4593 178.752 56.2513 178.752C57.9953 178.752 58.6193 178.32 58.6193 177.68C58.6193 176.736 57.1953 176.72 55.0193 176.32C52.8113 175.904 51.8353 175.392 51.8353 173.872C51.8353 172.16 53.4353 171.232 55.9473 171.232C58.6833 171.232 60.1553 172.32 60.1553 173.904H58.3153C58.3153 173.36 57.7393 172.688 55.9153 172.688C54.2033 172.688 53.6113 173.12 53.6113 173.776C53.6113 174.64 55.2913 174.752 56.8113 175.008ZM67.2783 171.232C69.7743 171.232 71.7103 172.848 71.7103 175.744C71.7103 178.624 69.7743 180.24 67.2783 180.24C65.8543 180.24 64.8303 179.696 64.1583 178.88V182.672H62.1903V171.472H64.1583V172.592C64.8303 171.776 65.8543 171.232 67.2783 171.232ZM66.8943 178.784C68.9743 178.784 69.8863 177.536 69.8863 175.744C69.8863 173.936 68.9423 172.688 66.8943 172.688C64.8463 172.688 63.8543 173.968 63.8543 175.744C63.8543 177.504 64.8303 178.784 66.8943 178.784ZM77.4753 171.232C80.1793 171.232 82.3553 172.832 82.1313 176.368H74.4513C74.6753 177.824 75.7153 178.784 77.5073 178.784C79.1713 178.784 79.8753 177.984 80.1633 177.376H81.8913C81.4593 179.12 79.7953 180.24 77.5073 180.24C75.0753 180.24 72.6753 178.848 72.6753 175.744C72.6753 172.688 75.0273 171.232 77.4753 171.232ZM74.4993 174.928H80.3713C80.1153 173.584 79.1873 172.688 77.4753 172.688C75.8913 172.688 74.8033 173.584 74.4993 174.928ZM88.9848 171.232C91.2088 171.232 92.4248 172.496 92.4248 174.48V180H90.4568V175.072C90.4568 173.632 89.6728 172.832 88.1208 172.832C86.5688 172.832 85.7208 173.728 85.7208 175.072V180H83.7528V171.472H85.7208V172.784C86.1208 172.224 87.2088 171.232 88.9848 171.232ZM99.1551 175.008C101.571 175.424 102.931 175.744 102.931 177.424C102.931 179.408 101.283 180.24 98.4351 180.24C95.8431 180.24 93.8591 179.344 93.8591 177.408H95.8911C95.8911 178.336 96.8031 178.752 98.5951 178.752C100.339 178.752 100.963 178.32 100.963 177.68C100.963 176.736 99.5391 176.72 97.3631 176.32C95.1551 175.904 94.1791 175.392 94.1791 173.872C94.1791 172.16 95.7791 171.232 98.2911 171.232C101.027 171.232 102.499 172.32 102.499 173.904H100.659C100.659 173.36 100.083 172.688 98.2591 172.688C96.5471 172.688 95.9551 173.12 95.9551 173.776C95.9551 174.64 97.6351 174.752 99.1551 175.008ZM104.534 180V171.472H106.502V180H104.534ZM105.51 170.288C104.902 170.288 104.47 169.936 104.47 169.328C104.47 168.72 104.902 168.368 105.51 168.368C106.134 168.368 106.566 168.72 106.566 169.328C106.566 169.936 106.134 170.288 105.51 170.288ZM112.977 171.232C115.473 171.232 117.873 172.592 117.873 175.744C117.873 178.896 115.473 180.24 112.977 180.24C110.481 180.24 108.097 178.896 108.097 175.744C108.097 172.592 110.481 171.232 112.977 171.232ZM112.977 178.784C115.265 178.784 116.049 177.232 116.049 175.744C116.049 174.24 115.265 172.688 112.977 172.688C110.689 172.688 109.905 174.24 109.905 175.744C109.905 177.232 110.689 178.784 112.977 178.784ZM124.704 171.232C126.928 171.232 128.144 172.496 128.144 174.48V180H126.176V175.072C126.176 173.632 125.392 172.832 123.84 172.832C122.288 172.832 121.44 173.728 121.44 175.072V180H119.472V171.472H121.44V172.784C121.84 172.224 122.928 171.232 124.704 171.232ZM139.514 175.008C141.93 175.424 143.29 175.744 143.29 177.424C143.29 179.408 141.642 180.24 138.794 180.24C136.202 180.24 134.218 179.344 134.218 177.408H136.25C136.25 178.336 137.162 178.752 138.954 178.752C140.698 178.752 141.322 178.32 141.322 177.68C141.322 176.736 139.898 176.72 137.722 176.32C135.514 175.904 134.538 175.392 134.538 173.872C134.538 172.16 136.138 171.232 138.65 171.232C141.386 171.232 142.858 172.32 142.858 173.904H141.018C141.018 173.36 140.442 172.688 138.618 172.688C136.906 172.688 136.314 173.12 136.314 173.776C136.314 174.64 137.994 174.752 139.514 175.008ZM144.893 168.192H146.861V180H144.893V168.192ZM153.257 171.232C155.961 171.232 158.137 172.832 157.913 176.368H150.233C150.457 177.824 151.497 178.784 153.289 178.784C154.953 178.784 155.657 177.984 155.945 177.376H157.673C157.241 179.12 155.577 180.24 153.289 180.24C150.857 180.24 148.457 178.848 148.457 175.744C148.457 172.688 150.809 171.232 153.257 171.232ZM150.281 174.928H156.153C155.897 173.584 154.969 172.688 153.257 172.688C151.673 172.688 150.585 173.584 150.281 174.928ZM163.694 171.232C166.398 171.232 168.574 172.832 168.35 176.368H160.67C160.894 177.824 161.934 178.784 163.726 178.784C165.39 178.784 166.094 177.984 166.382 177.376H168.11C167.678 179.12 166.014 180.24 163.726 180.24C161.294 180.24 158.894 178.848 158.894 175.744C158.894 172.688 161.246 171.232 163.694 171.232ZM160.718 174.928H166.59C166.334 173.584 165.406 172.688 163.694 172.688C162.11 172.688 161.022 173.584 160.718 174.928ZM176.491 171.472H178.571L174.747 180H172.683L168.859 171.472H170.939L173.723 178.08L176.491 171.472ZM183.694 171.232C186.398 171.232 188.574 172.832 188.35 176.368H180.67C180.894 177.824 181.934 178.784 183.726 178.784C185.39 178.784 186.094 177.984 186.382 177.376H188.11C187.678 179.12 186.014 180.24 183.726 180.24C181.294 180.24 178.894 178.848 178.894 175.744C178.894 172.688 181.246 171.232 183.694 171.232ZM180.718 174.928H186.59C186.334 173.584 185.406 172.688 183.694 172.688C182.11 172.688 181.022 173.584 180.718 174.928Z" fill="black"/>
<defs>
<clipPath id="clip0_2690_288">
<rect width="73" height="128" fill="white" transform="translate(72 26)"/>
</clipPath>
</defs>
</svg>
