<svg width="217" height="195" viewBox="0 0 217 195" fill="none" xmlns="http://www.w3.org/2000/svg">
<rect x="8.52372e-06" y="2.47442e-05" width="217" height="195" rx="10" fill="#D9D9D9"/>
<g clip-path="url(#clip0_3841_2327)">
<path fill-rule="evenodd" clip-rule="evenodd" d="M98.7982 151.583C99.3633 148.076 99.9285 144.256 100.494 140.267C100.764 138.321 101.059 136.351 101.329 134.333L101.427 133.588C101.575 132.603 101.698 131.594 101.845 130.585V130.392C101.943 129.936 101.992 129.455 102.066 128.999C102.779 123.809 103.541 118.668 104.327 113.863C104.376 113.526 104.45 113.19 104.499 112.853C105.359 107.784 106.268 103.123 107.251 99.2546C108.258 103.123 109.167 107.784 110.027 112.877C110.077 113.19 110.126 113.526 110.199 113.863C111.01 118.692 111.747 123.857 112.485 128.999C112.558 129.479 112.607 129.936 112.681 130.416V130.585C112.853 131.57 112.976 132.531 113.123 133.492L113.271 134.525C113.394 135.39 113.517 136.255 113.639 137.12H115.31C115.261 136.831 115.237 136.567 115.187 136.279C115.089 135.63 115.015 134.981 114.917 134.309C114.647 132.459 114.401 130.609 114.131 128.759V128.615C113.467 123.809 112.779 119.004 111.969 114.151C111.87 113.622 111.797 113.094 111.698 112.589C110.961 108.312 110.15 103.964 109.094 99.7352V99.7111C109.02 99.4228 108.946 99.1345 108.873 98.8462L107.3 92.7676L105.727 98.8462C105.654 99.1345 105.58 99.4228 105.506 99.7111V99.7352C104.499 103.723 103.811 107.808 103.098 111.844C103.049 112.085 103.024 112.325 102.975 112.589C102.877 113.118 102.803 113.622 102.705 114.151C101.894 119.028 101.182 123.833 100.543 128.639V128.783C100.248 130.705 99.9776 132.627 99.7073 134.525C99.6336 135.102 99.5353 135.678 99.4616 136.279C98.749 141.324 98.061 146.346 97.2256 151.295" fill="#050A0A"/>
<path fill-rule="evenodd" clip-rule="evenodd" d="M133.395 14.8981C133.395 15.1383 133.346 15.3786 133.321 15.6429C133.296 16.0033 133.247 16.3637 133.223 16.7241C133.223 16.9403 133.174 17.1565 133.149 17.3728C132.977 19.1027 132.805 20.8085 132.658 22.5384C132.363 25.7579 132.068 28.9774 131.773 32.2209C131.773 32.3891 131.748 32.5813 131.724 32.7975C131.527 35.4404 131.06 41.6872 131.847 43.369C133.665 47.069 135.066 51.3216 136.319 55.1898C138.137 60.9561 139.71 66.8905 140.889 72.801C141.258 74.7471 141.626 76.7893 141.946 78.8555C142.535 82.6516 142.929 86.5679 142.953 90.34C142.953 91.7816 142.904 93.2231 142.781 94.6166C142.732 95.3855 142.658 96.1543 142.585 96.9231C142.118 102.065 141.503 107.158 140.889 112.228C140.619 114.558 140.324 116.913 140.029 119.243C139.292 125.202 138.53 131.184 137.965 137.143H139.661C140.201 131.16 141.037 124.433 141.897 117.538C142.118 115.832 142.314 114.126 142.535 112.42C143.076 108.023 143.592 103.602 144.034 99.3498C144.182 97.7881 144.329 96.2744 144.477 94.7608C144.55 93.7757 144.624 92.7666 144.624 91.7335C144.624 91.277 144.624 90.7965 144.624 90.34C144.624 88.6822 144.526 86.9283 144.378 85.1504V85.0302C144.329 84.5737 144.305 84.1413 144.255 83.6848C144.255 83.5166 144.231 83.3484 144.206 83.1562C144.206 83.0841 144.206 83.012 144.182 82.9159C144.034 81.5705 143.862 80.177 143.641 78.8075C143.445 77.5821 143.248 76.3328 143.027 75.0834C142.879 74.2185 142.707 73.3536 142.535 72.4886C141.258 66.1938 139.562 59.971 137.891 54.7093C136.221 49.4236 134.574 45.1229 133.37 42.6242C132.903 41.6391 133.051 37.7229 133.444 32.3651C133.468 31.9806 133.493 31.6202 133.518 31.2599C133.665 29.3137 133.862 27.1754 134.083 24.941V24.8929C134.156 24.0761 134.23 23.2592 134.328 22.4183C134.378 21.8416 134.427 21.265 134.5 20.6884V20.5442C134.623 19.4871 134.722 18.4059 134.82 17.3247V17.1565L134.894 16.628V16.5799V16.5078L134.992 15.5468V15.4747C135.09 14.6578 135.238 13.0241 135.238 13.0241L133.419 14.9221L133.395 14.8981ZM77.2486 148.315C77.2486 144.855 76.9292 141.299 76.6098 137.816C76.0692 131.473 75.2829 125.106 74.4966 118.763C74.2263 116.576 73.956 114.414 73.6858 112.228C73.0715 107.158 72.4572 102.065 71.9903 96.9231C71.9166 96.1543 71.8675 95.3855 71.7937 94.6166C71.6709 93.2231 71.6217 91.8056 71.6217 90.34C71.6217 86.5439 72.0149 82.5796 72.6046 78.7594C72.924 76.7172 73.2926 74.723 73.6858 72.801C74.8652 66.8905 76.4378 60.9561 78.2561 55.1898C79.5092 51.3216 80.9344 47.045 82.6544 43.345C83.5881 41.495 82.9738 34.3352 82.7281 32.2209C82.4824 29.0014 82.2121 25.7819 81.9172 22.5624C81.7698 20.8325 81.5978 19.0786 81.4258 17.3487C81.4258 17.1325 81.3767 16.9163 81.3521 16.7C81.3275 16.3156 81.2784 15.9552 81.2538 15.5708C81.2538 15.3546 81.2047 15.1143 81.1801 14.8981L79.4109 13C79.4109 13 79.6075 14.9221 79.6812 15.8591V15.9312L79.7304 16.4598V16.5319L79.7795 17.0845C79.9024 18.2617 80.0007 19.415 80.1235 20.5682V20.6403C80.1972 21.2169 80.2464 21.7936 80.2955 22.3462C80.3692 23.1871 80.4429 24.028 80.5412 24.8449V24.917C80.7624 27.1274 80.9344 29.2417 81.1064 31.1878C81.1309 31.5482 81.1555 31.9326 81.1801 32.2689V32.317C81.5978 37.6748 81.7207 41.567 81.2538 42.5521V42.6002C80.0252 45.0989 78.3789 49.3755 76.7081 54.6132C75.0372 59.8989 73.3417 66.0977 72.0886 72.3925C71.9166 73.2574 71.7446 74.1224 71.5972 74.9633C71.376 76.2127 71.1549 77.486 70.9829 78.7354C70.7863 80.1289 70.5897 81.4984 70.4423 82.8679C70.4423 82.94 70.4423 83.0361 70.4177 83.1081C70.4177 83.2523 70.3932 83.3965 70.3686 83.5646C70.3194 83.9971 70.2949 84.4296 70.2457 84.862V84.9582V85.0302C70.0983 86.8082 70.0246 88.5621 70 90.2199C70 90.7004 70 91.1569 70 91.6374C70 92.6705 70.0737 93.6556 70.1474 94.6407C70.2703 96.1543 70.4177 97.692 70.5897 99.2537C71.032 103.506 71.548 107.927 72.0886 112.324C72.2852 114.03 72.5063 115.736 72.7029 117.417C73.5875 124.625 74.472 131.641 75.0126 137.84C75.3566 141.684 75.5778 145.192 75.6023 148.195" fill="#050A0A"/>
<path d="M107.816 103.698C111.109 116.912 112.141 131.736 114.131 141.299C115.728 149.011 119.561 152.471 125.237 152.471C134.624 152.471 138.186 148.651 139.931 139.809C140.422 137.382 142.462 120.804 142.462 120.804C143.69 111.723 144.182 105.908 144.182 103.434L107.816 103.698Z" fill="#D3D3D5" stroke="#050A0A" stroke-width="0.44" stroke-miterlimit="10"/>
<path d="M133.64 102.449C133.64 95.4579 138.8 89.7877 145.189 89.7877C145.238 89.7877 145.287 89.7877 145.361 89.7877C145.214 87.8897 144.992 85.9676 144.673 84.0455C144.304 80.5137 142.019 69.7019 142.019 69.7019L79.509 48.9434C79.509 48.9434 74.5701 61.509 73.6118 66.9149C104.621 74.4591 141.38 76.2851 108.946 113.045L111.87 132.458L141.7 132.915C142.412 127.076 143.395 121.094 144.206 115.015C138.284 114.463 133.64 109.105 133.64 102.474V102.449Z" fill="white" stroke="#1D1D1B" stroke-width="0.5" stroke-miterlimit="10"/>
</g>
<path d="M93.0653 180.592C95.6733 180.592 96.6493 179.04 96.9693 177.568H99.0333C98.5213 180.736 95.9933 182.24 93.0653 182.24C89.9613 182.24 86.9213 180.544 86.9213 176.4C86.9213 172.256 89.9613 170.576 93.0653 170.576C95.9933 170.576 98.5213 172.08 99.0333 175.248H96.9693C96.6493 173.776 95.6733 172.224 93.0653 172.224C90.3773 172.224 88.9533 173.824 88.9533 176.4C88.9533 178.976 90.3773 180.592 93.0653 180.592ZM105.032 173.232C107.528 173.232 109.928 174.592 109.928 177.744C109.928 180.896 107.528 182.24 105.032 182.24C102.536 182.24 100.152 180.896 100.152 177.744C100.152 174.592 102.536 173.232 105.032 173.232ZM105.032 180.784C107.32 180.784 108.104 179.232 108.104 177.744C108.104 176.24 107.32 174.688 105.032 174.688C102.744 174.688 101.96 176.24 101.96 177.744C101.96 179.232 102.744 180.784 105.032 180.784ZM111.526 181.856V173.472H113.494V181.856C113.494 183.296 113.254 184.976 110.854 184.976C110.438 184.976 110.214 184.944 109.846 184.896V183.28C111.366 183.36 111.526 182.88 111.526 181.856ZM112.502 172.288C111.894 172.288 111.462 171.936 111.462 171.328C111.462 170.72 111.894 170.368 112.502 170.368C113.126 170.368 113.558 170.72 113.558 171.328C113.558 171.936 113.126 172.288 112.502 172.288ZM115.729 182V173.472H117.697V182H115.729ZM117.233 170.24H119.313L117.329 172.304H116.049L117.233 170.24ZM125.165 173.232C127.389 173.232 128.605 174.496 128.605 176.48V182H126.637V177.072C126.637 175.632 125.853 174.832 124.301 174.832C122.749 174.832 121.901 175.728 121.901 177.072V182H119.933V173.472H121.901V174.784C122.301 174.224 123.389 173.232 125.165 173.232Z" fill="black"/>
<defs>
<clipPath id="clip0_3841_2327">
<rect width="76" height="140" fill="white" transform="translate(70 13)"/>
</clipPath>
</defs>
</svg>
