<svg width="132" height="187" viewBox="0 0 132 187" fill="none" xmlns="http://www.w3.org/2000/svg">
<rect width="132" height="187" rx="10" fill="white"/>
<path d="M28.2646 172.632C29.2486 172.92 29.7766 173.496 29.7766 174.528C29.7766 176.052 28.9126 177 26.5246 177H21.3526V168.6H26.6686C28.6846 168.6 29.4646 169.368 29.4646 170.748C29.4646 171.66 29.0686 172.248 28.2646 172.572V172.632ZM26.6446 169.836H22.8286V172.176H26.6446C27.7366 172.176 28.0606 171.684 28.0606 171.012C28.0606 170.292 27.6886 169.836 26.6446 169.836ZM26.6926 175.764C27.9766 175.764 28.2646 175.176 28.2646 174.456C28.2646 173.736 27.8206 173.328 26.6926 173.328H22.8286V175.764H26.6926ZM31.0998 168.144H32.5758V177H31.0998V168.144ZM37.4321 170.424C39.3041 170.424 41.1041 171.444 41.1041 173.808C41.1041 176.172 39.3041 177.18 37.4321 177.18C35.5601 177.18 33.7721 176.172 33.7721 173.808C33.7721 171.444 35.5601 170.424 37.4321 170.424ZM37.4321 176.088C39.1481 176.088 39.7361 174.924 39.7361 173.808C39.7361 172.68 39.1481 171.516 37.4321 171.516C35.7161 171.516 35.1281 172.68 35.1281 173.808C35.1281 174.924 35.7161 176.088 37.4321 176.088ZM47.4989 170.604H48.9749V179.004H47.4989V176.16C46.9949 176.772 46.2269 177.18 45.1469 177.18C43.2869 177.18 41.8229 175.968 41.8229 173.808C41.8229 171.636 43.2869 170.424 45.1469 170.424C46.2269 170.424 46.9949 170.832 47.4989 171.444V170.604ZM45.4349 176.088C46.9829 176.088 47.7269 175.128 47.7269 173.808C47.7269 172.476 46.9709 171.516 45.4349 171.516C43.8989 171.516 43.1909 172.452 43.1909 173.808C43.1909 175.152 43.8869 176.088 45.4349 176.088ZM55.6864 170.604H57.1624V177H55.6864V176.016C55.3864 176.436 54.5704 177.18 53.2384 177.18C51.5704 177.18 50.6584 176.232 50.6584 174.744V170.604H52.1344V174.3C52.1344 175.38 52.7224 175.98 53.8864 175.98C55.0504 175.98 55.6864 175.308 55.6864 174.3V170.604ZM61.958 170.424C63.986 170.424 65.618 171.624 65.45 174.276H59.69C59.858 175.368 60.638 176.088 61.982 176.088C63.23 176.088 63.758 175.488 63.974 175.032H65.27C64.946 176.34 63.698 177.18 61.982 177.18C60.158 177.18 58.358 176.136 58.358 173.808C58.358 171.516 60.122 170.424 61.958 170.424ZM59.726 173.196H64.13C63.938 172.188 63.242 171.516 61.958 171.516C60.77 171.516 59.954 172.188 59.726 173.196ZM69.8462 170.424C71.7182 170.424 73.5182 171.444 73.5182 173.808C73.5182 176.172 71.7182 177.18 69.8462 177.18C67.9742 177.18 66.1862 176.172 66.1862 173.808C66.1862 171.444 67.9742 170.424 69.8462 170.424ZM69.8462 176.088C71.5622 176.088 72.1502 174.924 72.1502 173.808C72.1502 172.68 71.5622 171.516 69.8462 171.516C68.1302 171.516 67.5422 172.68 67.5422 173.808C67.5422 174.924 68.1302 176.088 69.8462 176.088ZM83.3814 168.6H84.8574V177H83.3814V176.16C82.8774 176.772 82.1094 177.18 81.0414 177.18C79.1694 177.18 77.7174 175.968 77.7174 173.808C77.7174 171.636 79.1694 170.424 81.0414 170.424C82.1094 170.424 82.8774 170.832 83.3814 171.444V168.6ZM81.3294 176.088C82.8534 176.088 83.6094 175.128 83.6094 173.808C83.6094 172.476 82.8774 171.516 81.3294 171.516C79.7694 171.516 79.0854 172.452 79.0854 173.808C79.0854 175.152 79.7934 176.088 81.3294 176.088ZM86.5412 177V170.604H88.0172V177H86.5412ZM87.2732 169.716C86.8172 169.716 86.4932 169.452 86.4932 168.996C86.4932 168.54 86.8172 168.276 87.2732 168.276C87.7412 168.276 88.0652 168.54 88.0652 168.996C88.0652 169.452 87.7412 169.716 87.2732 169.716ZM93.0655 173.256C94.8775 173.568 95.8975 173.808 95.8975 175.068C95.8975 176.556 94.6615 177.18 92.5255 177.18C90.5815 177.18 89.0935 176.508 89.0935 175.056H90.6175C90.6175 175.752 91.3015 176.064 92.6455 176.064C93.9535 176.064 94.4215 175.74 94.4215 175.26C94.4215 174.552 93.3535 174.54 91.7215 174.24C90.0655 173.928 89.3335 173.544 89.3335 172.404C89.3335 171.12 90.5335 170.424 92.4175 170.424C94.4695 170.424 95.5735 171.24 95.5735 172.428H94.1935C94.1935 172.02 93.7615 171.516 92.3935 171.516C91.1095 171.516 90.6655 171.84 90.6655 172.332C90.6655 172.98 91.9255 173.064 93.0655 173.256ZM101.041 171.732H99.1094V174.612C99.1094 175.692 99.5414 175.992 101.041 175.836V176.988C100.825 177.048 100.501 177.096 100.201 177.096C98.2574 177.096 97.6334 176.304 97.6334 174.612V171.732H96.3854V170.604H97.6334V168.948H99.1094V170.604H101.041V171.732ZM105.347 170.424C107.111 170.424 108.611 171.012 108.611 172.848V177H107.135V176.172C106.823 176.532 106.055 177.18 104.555 177.18C103.019 177.18 101.999 176.544 101.999 175.32C101.999 174 102.719 172.956 107.135 173.244V172.848C107.135 171.96 106.679 171.516 105.347 171.516C104.207 171.516 103.739 171.888 103.631 172.428H102.251C102.443 171.084 103.691 170.424 105.347 170.424ZM107.135 175.2V174.132C104.471 174 103.511 174.228 103.511 175.224C103.511 175.872 104.015 176.196 104.867 176.196C105.995 176.196 106.739 175.776 107.135 175.2ZM110.295 168.144H111.771V177H110.295V168.144Z" fill="black"/>
<g clip-path="url(#clip0_9399_4486)">
<path fill-rule="evenodd" clip-rule="evenodd" d="M58.3042 141.772C58.7812 138.791 59.2582 135.545 59.7351 132.155C59.9632 130.502 60.2121 128.827 60.4402 127.112L60.5231 126.479C60.6476 125.642 60.7512 124.785 60.8757 123.927V123.764C60.9586 123.376 61.0001 122.967 61.0623 122.579C61.6637 118.169 62.3065 113.8 62.9701 109.716C63.0116 109.43 63.0738 109.144 63.1153 108.859C63.8411 104.55 64.6084 100.589 65.4379 97.3019C66.2881 100.589 67.0554 104.55 67.7812 108.879C67.8227 109.144 67.8641 109.43 67.9264 109.716C68.6107 113.82 69.2328 118.21 69.8549 122.579C69.9171 122.988 69.9586 123.376 70.0208 123.784V123.927C70.166 124.764 70.2697 125.581 70.3941 126.398L70.5185 127.276C70.6222 128.011 70.7259 128.746 70.8296 129.481H72.2397C72.1983 129.236 72.1775 129.011 72.136 128.766C72.0531 128.215 71.9909 127.664 71.9079 127.092C71.6798 125.52 71.4724 123.947 71.2443 122.375V122.253C70.6844 118.169 70.1038 114.086 69.4194 109.961C69.3365 109.512 69.2743 109.063 69.1913 108.634C68.5692 105 67.8849 101.304 66.9932 97.7103V97.6899C66.931 97.4448 66.8688 97.1998 66.8065 96.9548L65.4794 91.7891L64.1522 96.9548C64.09 97.1998 64.0277 97.4448 63.9655 97.6899V97.7103C63.1153 101.1 62.5347 104.571 61.9333 108.001C61.8918 108.205 61.8711 108.409 61.8296 108.634C61.7466 109.083 61.6844 109.512 61.6015 109.961C60.9171 114.106 60.3158 118.19 59.7766 122.273V122.396C59.5277 124.029 59.2996 125.663 59.0715 127.276C59.0093 127.766 58.9264 128.256 58.8641 128.766C58.2628 133.054 57.6821 137.321 56.9771 141.527" fill="black"/>
<path fill-rule="evenodd" clip-rule="evenodd" d="M87.5023 25.613C87.5023 25.8172 87.4608 26.0214 87.4401 26.246C87.4194 26.5523 87.3779 26.8585 87.3571 27.1648C87.3571 27.3486 87.3157 27.5323 87.2949 27.7161C87.1498 29.1862 87.0046 30.6359 86.8802 32.1059C86.6313 34.842 86.3825 37.578 86.1336 40.3344C86.1336 40.4773 86.1129 40.6407 86.0922 40.8244C85.9263 43.0704 85.5323 48.3791 86.1959 49.8084C87.7304 52.9527 88.9124 56.5667 89.97 59.854C91.5046 64.7543 92.8318 69.7976 93.8272 74.8204C94.1383 76.4743 94.4493 78.2098 94.7189 79.9658C95.2166 83.1918 95.5484 86.5199 95.5691 89.7256C95.5691 90.9506 95.5277 92.1757 95.424 93.36C95.3825 94.0133 95.3203 94.6667 95.2581 95.3201C94.8641 99.6895 94.3456 104.018 93.8272 108.326C93.5991 110.307 93.3502 112.308 93.1014 114.288C92.4793 119.352 91.8364 124.436 91.3595 129.5H92.7903C93.2465 124.416 93.9516 118.699 94.6774 112.839C94.8641 111.389 95.03 109.939 95.2166 108.49C95.6728 104.753 96.1083 100.996 96.4816 97.3823C96.606 96.0551 96.7304 94.7688 96.8548 93.4825C96.9171 92.6453 96.9793 91.7878 96.9793 90.9098C96.9793 90.5219 96.9793 90.1135 96.9793 89.7256C96.9793 88.3167 96.8963 86.8262 96.7719 85.3153V85.2132C96.7304 84.8252 96.7097 84.4577 96.6682 84.0698C96.6682 83.9268 96.6475 83.7839 96.6267 83.6206C96.6267 83.5593 96.6267 83.4981 96.606 83.4164C96.4816 82.273 96.3364 81.0887 96.1498 79.9249C95.9839 78.8836 95.818 77.8219 95.6313 76.7601C95.5069 76.0251 95.3618 75.29 95.2166 74.555C94.1383 69.2055 92.7074 63.9172 91.2972 59.4457C89.8871 54.9537 88.4977 51.2989 87.4816 49.1754C87.0876 48.3383 87.212 45.0101 87.5438 40.4569C87.5645 40.1302 87.5853 39.824 87.606 39.5177C87.7304 37.8638 87.8963 36.0466 88.083 34.1477V34.1069C88.1452 33.4127 88.2074 32.7185 88.2903 32.0039C88.3318 31.5138 88.3733 31.0238 88.4355 30.5338V30.4113C88.5392 29.5129 88.6221 28.5941 88.7051 27.6752V27.5323L88.7673 27.0831V27.0423V26.981L88.8502 26.1643V26.1031C88.9332 25.4088 89.0576 24.0204 89.0576 24.0204L87.523 25.6334L87.5023 25.613ZM40.1175 138.994C40.1175 136.054 39.8479 133.032 39.5783 130.072C39.1221 124.681 38.4585 119.27 37.7949 113.88C37.5668 112.022 37.3387 110.184 37.1106 108.326C36.5922 104.018 36.0737 99.6895 35.6797 95.3201C35.6175 94.6667 35.576 94.0133 35.5138 93.36C35.4101 92.1757 35.3687 90.9711 35.3687 89.7256C35.3687 86.4995 35.7005 83.1305 36.1982 79.8841C36.4677 78.1486 36.7788 76.4539 37.1106 74.8204C38.106 69.7976 39.4332 64.7543 40.9677 59.854C42.0253 56.5667 43.2281 52.9323 44.6797 49.7879C45.4677 48.2158 44.9493 42.1312 44.7419 40.3344C44.5346 37.5984 44.3065 34.8624 44.0576 32.1264C43.9332 30.6563 43.788 29.1658 43.6429 27.6957C43.6429 27.5119 43.6014 27.3281 43.5806 27.1444C43.5599 26.8177 43.5184 26.5114 43.4977 26.1847C43.4977 26.001 43.4562 25.7968 43.4355 25.613L41.9424 24C41.9424 24 42.1083 25.6334 42.1705 26.4297V26.491L42.212 26.9402V27.0014L42.2535 27.4711C42.3571 28.4715 42.4401 29.4516 42.5438 30.4317V30.4929C42.606 30.983 42.6475 31.473 42.6889 31.9426C42.7512 32.6572 42.8134 33.3719 42.8963 34.0661V34.1273C43.0829 36.0058 43.2281 37.8026 43.3733 39.4564C43.394 39.7627 43.4147 40.0894 43.4355 40.3752V40.4161C43.788 44.9693 43.8917 48.277 43.4977 49.1141V49.155C42.4608 51.2785 41.0714 54.9129 39.6613 59.364C38.2512 63.8559 36.8203 69.1238 35.7627 74.4733C35.6175 75.2084 35.4724 75.9434 35.3479 76.658C35.1613 77.7198 34.9747 78.8019 34.8295 79.8637C34.6636 81.0479 34.4977 82.2117 34.3733 83.3756C34.3733 83.4368 34.3733 83.5185 34.3525 83.5797C34.3525 83.7022 34.3318 83.8248 34.3111 83.9677C34.2696 84.3352 34.2488 84.7027 34.2074 85.0703V85.1519V85.2132C34.0829 86.7241 34.0207 88.2146 34 89.6235C34 90.0318 34 90.4198 34 90.8281C34 91.7061 34.0622 92.5432 34.1244 93.3804C34.2281 94.6667 34.3525 95.9735 34.4977 97.3006C34.871 100.915 35.3065 104.672 35.7627 108.408C35.9286 109.858 36.1152 111.307 36.2811 112.737C37.0277 118.862 37.7742 124.824 38.2304 130.092C38.5207 133.359 38.7074 136.34 38.7281 138.892" fill="black"/>
<path d="M65.7695 101.076C68.5483 112.306 69.4193 124.904 71.099 133.03C72.447 139.585 75.682 142.525 80.4723 142.525C88.394 142.525 91.4009 139.278 92.8732 131.764C93.288 129.702 95.0092 115.614 95.0092 115.614C96.046 107.896 96.4608 102.955 96.4608 100.852L65.7695 101.076Z" fill="#D3D3D5" stroke="black" stroke-width="0.44" stroke-miterlimit="10"/>
<path d="M82.3803 142.508H80.8457V149.001H82.3803V142.508Z" fill="#D3D3D5" stroke="black" stroke-width="0.29" stroke-miterlimit="10"/>
<path d="M81.6128 150.693C81.2395 150.693 80.9907 150.529 80.9284 150.162L80.5552 148.773H82.6289L82.2556 150.162C82.1934 150.529 81.9446 150.693 81.5713 150.693H81.6128Z" fill="#D3D3D5" stroke="black" stroke-width="0.29" stroke-miterlimit="10"/>
<path d="M80.7627 142.852L82.4632 143.444" stroke="black" stroke-width="0.29" stroke-miterlimit="10"/>
<path d="M80.7627 144.625L82.4632 145.217" stroke="black" stroke-width="0.29" stroke-miterlimit="10"/>
<path d="M80.7627 146.422L82.4632 146.994" stroke="black" stroke-width="0.29" stroke-miterlimit="10"/>
<path d="M80.7627 148.203L82.4632 148.775" stroke="black" stroke-width="0.29" stroke-miterlimit="10"/>
<path d="M72.0942 136.133H91.6288" stroke="black" stroke-width="0.29" stroke-miterlimit="10"/>
</g>
<defs>
<clipPath id="clip0_9399_4486">
<rect width="63" height="127" fill="white" transform="translate(34 24)"/>
</clipPath>
</defs>
</svg>
