<svg width="132" height="187" viewBox="0 0 132 187" fill="none" xmlns="http://www.w3.org/2000/svg">
<rect width="132" height="187" rx="10" fill="white"/>
<path d="M30.3542 169.152C32.7302 169.476 34.1582 169.836 34.1582 171.468C34.1582 173.052 32.9702 174.18 30.0302 174.18C26.8982 174.18 25.6502 173.016 25.6502 171.504H27.2342C27.2822 172.38 28.2662 172.932 30.0782 172.932C31.6382 172.932 32.6222 172.548 32.6222 171.648C32.6222 170.64 31.2302 170.724 28.8902 170.34C26.8742 170.016 25.9382 169.368 25.9382 168C25.9382 166.536 27.0062 165.432 29.7782 165.432C32.6582 165.432 33.7502 166.74 33.7502 167.94H32.2382C32.1662 167.328 31.5302 166.68 29.7422 166.68C27.8702 166.68 27.4262 167.244 27.4262 167.892C27.4262 168.804 28.5542 168.9 30.3542 169.152ZM38.4756 167.424C40.5036 167.424 42.1356 168.624 41.9676 171.276H36.2076C36.3756 172.368 37.1556 173.088 38.4996 173.088C39.7476 173.088 40.2756 172.488 40.4916 172.032H41.7876C41.4636 173.34 40.2156 174.18 38.4996 174.18C36.6756 174.18 34.8756 173.136 34.8756 170.808C34.8756 168.516 36.6396 167.424 38.4756 167.424ZM36.2436 170.196H40.6476C40.4556 169.188 39.7596 168.516 38.4756 168.516C37.2876 168.516 36.4716 169.188 36.2436 170.196ZM43.1838 165.144H44.6598V174H43.1838V165.144ZM46.3361 165.144H47.8121V174H46.3361V165.144ZM52.3564 167.424C54.1204 167.424 55.6204 168.012 55.6204 169.848V174H54.1444V173.172C53.8324 173.532 53.0644 174.18 51.5644 174.18C50.0284 174.18 49.0084 173.544 49.0084 172.32C49.0084 171 49.7284 169.956 54.1444 170.244V169.848C54.1444 168.96 53.6884 168.516 52.3564 168.516C51.2164 168.516 50.7484 168.888 50.6404 169.428H49.2604C49.4524 168.084 50.7004 167.424 52.3564 167.424ZM54.1444 172.2V171.132C51.4804 171 50.5204 171.228 50.5204 172.224C50.5204 172.872 51.0244 173.196 51.8764 173.196C53.0044 173.196 53.7484 172.776 54.1444 172.2ZM62.4888 165.6H63.9648V174H62.4888V173.16C61.9848 173.772 61.2168 174.18 60.1488 174.18C58.2768 174.18 56.8248 172.968 56.8248 170.808C56.8248 168.636 58.2768 167.424 60.1488 167.424C61.2168 167.424 61.9848 167.832 62.4888 168.444V165.6ZM60.4368 173.088C61.9608 173.088 62.7168 172.128 62.7168 170.808C62.7168 169.476 61.9848 168.516 60.4368 168.516C58.8768 168.516 58.1928 169.452 58.1928 170.808C58.1928 172.152 58.9008 173.088 60.4368 173.088ZM68.8286 167.424C70.7006 167.424 72.5006 168.444 72.5006 170.808C72.5006 173.172 70.7006 174.18 68.8286 174.18C66.9566 174.18 65.1686 173.172 65.1686 170.808C65.1686 168.444 66.9566 167.424 68.8286 167.424ZM68.8286 173.088C70.5446 173.088 71.1326 171.924 71.1326 170.808C71.1326 169.68 70.5446 168.516 68.8286 168.516C67.1126 168.516 66.5246 169.68 66.5246 170.808C66.5246 171.924 67.1126 173.088 68.8286 173.088ZM82.3638 165.6H83.8398V174H82.3638V173.16C81.8598 173.772 81.0918 174.18 80.0238 174.18C78.1518 174.18 76.6998 172.968 76.6998 170.808C76.6998 168.636 78.1518 167.424 80.0238 167.424C81.0918 167.424 81.8598 167.832 82.3638 168.444V165.6ZM80.3118 173.088C81.8358 173.088 82.5918 172.128 82.5918 170.808C82.5918 169.476 81.8598 168.516 80.3118 168.516C78.7518 168.516 78.0678 169.452 78.0678 170.808C78.0678 172.152 78.7758 173.088 80.3118 173.088ZM85.5236 174V167.604H86.9996V174H85.5236ZM86.2556 166.716C85.7996 166.716 85.4756 166.452 85.4756 165.996C85.4756 165.54 85.7996 165.276 86.2556 165.276C86.7236 165.276 87.0476 165.54 87.0476 165.996C87.0476 166.452 86.7236 166.716 86.2556 166.716ZM92.0479 170.256C93.8599 170.568 94.8799 170.808 94.8799 172.068C94.8799 173.556 93.6439 174.18 91.5079 174.18C89.5639 174.18 88.0759 173.508 88.0759 172.056H89.5999C89.5999 172.752 90.2839 173.064 91.6279 173.064C92.9359 173.064 93.4039 172.74 93.4039 172.26C93.4039 171.552 92.3359 171.54 90.7039 171.24C89.0479 170.928 88.3159 170.544 88.3159 169.404C88.3159 168.12 89.5159 167.424 91.3999 167.424C93.4519 167.424 94.5559 168.24 94.5559 169.428H93.1759C93.1759 169.02 92.7439 168.516 91.3759 168.516C90.0919 168.516 89.6479 168.84 89.6479 169.332C89.6479 169.98 90.9079 170.064 92.0479 170.256ZM100.024 168.732H98.0918V171.612C98.0918 172.692 98.5238 172.992 100.024 172.836V173.988C99.8078 174.048 99.4838 174.096 99.1838 174.096C97.2398 174.096 96.6158 173.304 96.6158 171.612V168.732H95.3678V167.604H96.6158V165.948H98.0918V167.604H100.024V168.732ZM104.329 167.424C106.093 167.424 107.593 168.012 107.593 169.848V174H106.117V173.172C105.805 173.532 105.037 174.18 103.537 174.18C102.001 174.18 100.981 173.544 100.981 172.32C100.981 171 101.701 169.956 106.117 170.244V169.848C106.117 168.96 105.661 168.516 104.329 168.516C103.189 168.516 102.721 168.888 102.613 169.428H101.233C101.425 168.084 102.673 167.424 104.329 167.424ZM106.117 172.2V171.132C103.453 171 102.493 171.228 102.493 172.224C102.493 172.872 102.997 173.196 103.849 173.196C104.977 173.196 105.721 172.776 106.117 172.2ZM109.278 165.144H110.754V174H109.278V165.144Z" fill="black"/>
<g clip-path="url(#clip0_9399_4523)">
<rect width="110" height="74" transform="translate(16 57)" fill="white"/>
<path fill-rule="evenodd" clip-rule="evenodd" d="M31.4802 130.843C31.8212 129.354 32.1361 127.602 32.4641 125.679C32.792 123.677 33.12 121.491 33.4348 119.225C33.5923 118.119 33.7497 116.986 33.9071 115.84L33.9727 115.418C34.0514 114.852 34.1301 114.286 34.2088 113.706V113.601C34.2613 113.337 34.3007 113.074 34.34 112.797C34.7598 109.847 35.1796 106.896 35.6388 104.156C35.665 103.959 35.7044 103.774 35.7306 103.577C36.216 100.679 36.7407 98.0182 37.3048 95.8185C37.8821 98.0182 38.3937 100.692 38.8922 103.59C38.9184 103.774 38.9578 103.959 38.984 104.143C39.4432 106.896 39.8761 109.833 40.2959 112.784C40.3353 113.061 40.3746 113.324 40.414 113.587V113.693C40.5058 114.246 40.5845 114.799 40.6632 115.353L40.7419 115.945C40.8075 116.446 40.8862 116.933 40.9518 117.42H41.9095C41.8833 117.262 41.8701 117.104 41.8439 116.946C41.7914 116.577 41.739 116.196 41.6865 115.827C41.5422 114.773 41.3847 113.719 41.2404 112.665V112.586C40.86 109.847 40.4664 107.107 39.9942 104.328C39.9417 104.025 39.8892 103.735 39.8367 103.432C39.4169 100.995 38.9578 98.5056 38.3412 96.0951V96.0819C38.3019 95.9239 38.2625 95.7526 38.21 95.5946L37.3048 92.1172L36.3997 95.5946C36.3603 95.7526 36.3209 95.9239 36.2685 96.0819V96.0951C35.7044 98.3607 35.2977 100.705 34.891 103.01C34.8648 103.155 34.8385 103.287 34.8123 103.432C34.7598 103.735 34.7073 104.025 34.6549 104.328C34.1826 107.107 33.789 109.847 33.4217 112.586V112.679C33.2512 113.772 33.0938 114.865 32.9363 115.958C32.8839 116.288 32.8445 116.617 32.792 116.959C32.3853 119.831 31.9918 122.702 31.5064 125.534C31.2309 127.247 30.9161 128.959 30.5225 130.632C30.4963 130.764 30.4569 130.882 30.4307 131.014" fill="black"/>
<path fill-rule="evenodd" clip-rule="evenodd" d="M51.3286 57.5561C51.3286 57.6483 51.3154 57.7537 51.3023 57.8854C51.1843 59.387 50.9219 62.9566 51.3679 63.9182C52.4043 66.0389 53.2177 68.4625 53.9261 70.6622C54.9624 73.9552 55.8676 77.3404 56.5367 80.7124C56.7597 81.8189 56.9565 82.978 57.1401 84.1635C57.4681 86.3237 57.7042 88.5629 57.7174 90.7099C57.7174 91.5398 57.6911 92.3564 57.6124 93.1467C57.573 93.5946 57.5468 94.0293 57.5075 94.4639C57.2451 97.4013 56.8909 100.299 56.5367 103.197C56.3793 104.527 56.2087 105.871 56.0382 107.201C55.6053 110.6 55.1855 114.011 54.8575 117.409H55.8283C56.1431 113.998 56.6154 110.152 57.1008 106.226C57.2188 105.252 57.3369 104.277 57.455 103.302C57.7567 100.786 58.0584 98.2706 58.3077 95.847C58.3995 94.9645 58.4782 94.0819 58.5569 93.2258C58.6094 92.6594 58.6357 92.093 58.6488 91.5002C58.6488 91.2368 58.6488 90.9734 58.6488 90.6967C58.6488 89.7484 58.5963 88.7473 58.5045 87.7331V87.6672C58.4782 87.4169 58.4651 87.1535 58.4389 86.8901C58.4389 86.7979 58.4126 86.6925 58.4126 86.6003C58.4126 86.5608 58.4126 86.5081 58.3995 86.4686C58.3208 85.6914 58.2159 84.9143 58.0978 84.1239C57.9928 83.4127 57.8748 82.7014 57.7436 81.9901C57.6518 81.5027 57.5599 81.0022 57.455 80.5148C56.7335 76.9189 55.7627 73.3756 54.805 70.3593C53.8473 67.3429 52.9028 64.8797 52.2206 63.4703C51.9583 62.9039 52.037 60.6779 52.2731 57.6088C52.2862 57.3981 52.2993 57.1873 52.3256 56.9766M19.7913 128.303V128.289C20.1061 126.893 20.1455 125.273 20.1455 123.824C20.1455 121.848 19.9618 119.82 19.7913 117.831C19.4896 114.209 19.0304 110.586 18.5844 106.964C18.427 105.726 18.2695 104.475 18.1252 103.236C17.771 100.339 17.4168 97.4408 17.1544 94.5034C17.1151 94.0688 17.0757 93.6209 17.0364 93.1862C16.9708 92.3959 16.9314 91.5793 16.9314 90.7494C16.9314 88.5892 17.1676 86.3237 17.4955 84.1371C17.6792 82.978 17.8891 81.832 18.1121 80.7388C18.7943 77.3536 19.6863 73.9815 20.7227 70.6886C21.4442 68.4757 22.2576 66.0389 23.2415 63.9314C23.7794 62.8776 23.412 58.7943 23.2809 57.5825L22.3363 57.0293C22.3494 57.24 22.3757 57.4508 22.3888 57.6483V57.6878C22.6249 60.7437 22.6905 62.9566 22.4413 63.523V63.5494C21.7329 64.9719 20.7883 67.4219 19.8438 70.3988C18.8861 73.4152 17.9284 76.9584 17.2069 80.5543C17.1151 81.0549 17.0101 81.5422 16.9314 82.0296C16.8002 82.7409 16.6822 83.4653 16.5772 84.1766C16.4592 84.9669 16.3542 85.7573 16.2755 86.5344C16.2755 86.5871 16.2755 86.6266 16.2624 86.6793C16.2624 86.7583 16.2493 86.8505 16.2361 86.9296C16.2099 87.1798 16.1837 87.4301 16.1705 87.6804V87.7331V87.7726C16.0525 88.7868 16 89.7747 16 90.7363C16 91.0129 16 91.2763 16 91.5398C16 92.1325 16.0394 92.6989 16.0918 93.2521C16.1705 94.1215 16.2493 94.9908 16.3411 95.8865C16.5903 98.3233 16.879 100.839 17.1938 103.342C17.3119 104.317 17.4299 105.278 17.548 106.253C18.0596 110.362 18.5581 114.38 18.873 117.91C19.0698 120.097 19.1878 122.099 19.2141 123.824C19.2272 125.55 19.1354 126.999 18.8992 128.079V128.105" fill="black"/>
<path d="M38 101.668C39.771 108.952 40.322 117.119 41.3846 122.388C42.2373 126.629 44.297 128.552 47.3405 128.552C52.3781 128.552 54.2803 126.445 55.2248 121.571C55.4872 120.228 56.576 111.099 56.576 111.099C57.232 106.107 57.5075 102.893 57.5075 101.523L38 101.668Z" fill="#D3D3D5" stroke="black" stroke-width="0.44" stroke-miterlimit="10"/>
<path d="M56.5101 117.844H40.3873C40.3085 117.844 40.2298 117.91 40.1905 118.028L39.5345 119.675C39.469 119.833 39.469 120.057 39.5345 120.215L40.2036 121.861C40.2561 121.98 40.3217 122.046 40.4004 122.046H56.5232C56.6019 122.046 56.6806 121.98 56.72 121.861L57.3759 120.215C57.4415 120.057 57.4415 119.833 57.3759 119.675L56.7069 118.028C56.6544 117.91 56.5888 117.844 56.5101 117.844Z" fill="white" stroke="black" stroke-width="0.44" stroke-miterlimit="10"/>
<path d="M39.5347 120H57.5204" stroke="black" stroke-width="0.25" stroke-miterlimit="10"/>
<path fill-rule="evenodd" clip-rule="evenodd" d="M85.2536 130.843C85.5947 129.354 85.9095 127.602 86.2375 125.679C86.5655 123.677 86.8934 121.491 87.2083 119.225C87.3657 118.119 87.5231 116.986 87.6805 115.84L87.7461 115.418C87.8248 114.852 87.9036 114.286 87.9823 113.706V113.601C88.0347 113.337 88.0741 113.074 88.1135 112.797C88.5333 109.847 88.9531 106.896 89.4122 104.156C89.4385 103.959 89.4778 103.774 89.504 103.577C89.9894 100.679 90.5142 98.0182 91.0783 95.8185C91.6555 98.0182 92.1671 100.692 92.6656 103.59C92.6919 103.774 92.7312 103.959 92.7575 104.143C93.2166 106.896 93.6495 109.833 94.0693 112.784C94.1087 113.061 94.148 113.324 94.1874 113.587V113.693C94.2792 114.246 94.3579 114.799 94.4367 115.353L94.5154 115.945C94.581 116.446 94.6597 116.933 94.7253 117.42H95.6829C95.6567 117.262 95.6436 117.104 95.6173 116.946C95.5649 116.577 95.5124 116.196 95.4599 115.827C95.3156 114.773 95.1582 113.719 95.0139 112.665V112.586C94.6334 109.847 94.2399 107.107 93.7676 104.328C93.7151 104.025 93.6627 103.735 93.6102 103.432C93.1904 100.995 92.7312 98.5056 92.1147 96.0951V96.0819C92.0753 95.9239 92.0359 95.7526 91.9835 95.5946L91.0783 92.1172L90.1731 95.5946C90.1337 95.7526 90.0944 95.9239 90.0419 96.0819V96.0951C89.4778 98.3607 89.0711 100.705 88.6644 103.01C88.6382 103.155 88.612 103.287 88.5857 103.432C88.5333 103.735 88.4808 104.025 88.4283 104.328C87.956 107.107 87.5625 109.847 87.1952 112.586V112.679C87.0246 113.772 86.8672 114.865 86.7098 115.958C86.6573 116.288 86.6179 116.617 86.5655 116.959C86.1588 119.831 85.7652 122.702 85.2798 125.534C85.0043 127.247 84.6895 128.959 84.2959 130.632C84.2697 130.764 84.2303 130.882 84.2041 131.014" fill="black"/>
<path fill-rule="evenodd" clip-rule="evenodd" d="M105.089 57.5561C105.089 57.6483 105.076 57.7537 105.063 57.8854C104.945 59.387 104.682 62.9566 105.128 63.9182C106.165 66.0389 106.978 68.4625 107.686 70.6622C108.723 73.9552 109.628 77.3404 110.297 80.7124C110.52 81.8189 110.717 82.978 110.901 84.1635C111.228 86.3237 111.465 88.5629 111.478 90.7099C111.478 91.5398 111.451 92.3564 111.373 93.1467C111.333 93.5946 111.307 94.0293 111.268 94.4639C111.005 97.4013 110.651 100.299 110.297 103.197C110.14 104.527 109.969 105.871 109.799 107.201C109.366 110.6 108.946 114.011 108.618 117.409H109.589C109.903 113.998 110.376 110.152 110.861 106.226C110.979 105.252 111.097 104.277 111.215 103.302C111.517 100.786 111.819 98.2706 112.068 95.847C112.16 94.9645 112.239 94.0819 112.317 93.2258C112.37 92.6594 112.396 92.093 112.409 91.5002C112.409 91.2368 112.409 90.9734 112.409 90.6967C112.409 89.7484 112.357 88.7473 112.265 87.7331V87.6672C112.239 87.4169 112.225 87.1535 112.199 86.8901C112.199 86.7979 112.173 86.6925 112.173 86.6003C112.173 86.5608 112.173 86.5081 112.16 86.4686C112.081 85.6914 111.976 84.9143 111.858 84.1239C111.753 83.4127 111.635 82.7014 111.504 81.9901C111.412 81.5027 111.32 81.0022 111.215 80.5148C110.494 76.9189 109.523 73.3756 108.565 70.3593C107.608 67.3429 106.663 64.8797 105.981 63.4703C105.719 62.9039 105.797 60.6779 106.033 57.6088C106.047 57.3981 106.06 57.1873 106.086 56.9766M73.5517 128.303V128.289C73.8665 126.893 73.9059 125.273 73.9059 123.824C73.9059 121.848 73.7222 119.82 73.5517 117.831C73.2499 114.209 72.7908 110.586 72.3448 106.964C72.1873 105.726 72.0299 104.475 71.8856 103.236C71.5314 100.339 71.1772 97.4408 70.9148 94.5034C70.8755 94.0688 70.8361 93.6209 70.7968 93.1862C70.7312 92.3959 70.6918 91.5793 70.6918 90.7494C70.6918 88.5892 70.9279 86.3237 71.2559 84.1371C71.4396 82.978 71.6495 81.832 71.8725 80.7388C72.5547 77.3536 73.4467 73.9815 74.4831 70.6886C75.2046 68.4757 76.018 66.0389 77.0019 63.9314C77.5398 62.8776 77.1724 58.7943 77.0412 57.5825L76.0967 57.0293C76.1098 57.24 76.1361 57.4508 76.1492 57.6483V57.6878C76.3853 60.7437 76.4509 62.9566 76.2016 63.523V63.5494C75.4932 64.9719 74.5487 67.4219 73.6042 70.3988C72.6465 73.4152 71.6888 76.9584 70.9673 80.5543C70.8755 81.0549 70.7705 81.5422 70.6918 82.0296C70.5606 82.7409 70.4426 83.4653 70.3376 84.1766C70.2195 84.9669 70.1146 85.7573 70.0359 86.5344C70.0359 86.5871 70.0359 86.6266 70.0228 86.6793C70.0228 86.7583 70.0096 86.8505 69.9965 86.9296C69.9703 87.1798 69.944 87.4301 69.9309 87.6804V87.7331V87.7726C69.8522 88.7868 69.7997 89.7879 69.7866 90.7363C69.7866 91.0129 69.7866 91.2763 69.7866 91.5398C69.7866 92.1325 69.826 92.6989 69.8785 93.2521C69.9572 94.1215 70.0359 94.9908 70.1277 95.8865C70.377 98.3233 70.6656 100.839 70.9804 103.342C71.0985 104.317 71.2166 105.278 71.3346 106.253C71.8463 110.362 72.3448 114.38 72.6596 117.91C72.8564 120.097 72.9745 122.099 73.0007 123.824C73.0138 125.55 72.922 126.999 72.6858 128.079V128.105" fill="black"/>
<path d="M91.7734 101.668C93.5445 108.952 94.0954 117.119 95.1581 122.388C96.0108 126.629 98.0704 128.552 101.114 128.552C106.151 128.552 108.054 126.445 108.998 121.571C109.261 120.228 110.349 111.099 110.349 111.099C111.005 106.107 111.281 102.893 111.281 101.523L91.7734 101.668Z" fill="#D3D3D5" stroke="black" stroke-width="0.44" stroke-miterlimit="10"/>
<path d="M109.799 120.32H94.3449C94.2662 120.32 94.2006 120.347 94.1481 120.399L93.5184 121.111C93.4528 121.176 93.4528 121.282 93.5184 121.348L94.1612 122.059C94.1612 122.059 94.2793 122.138 94.358 122.138H109.812C109.891 122.138 109.956 122.112 110.009 122.059L110.638 121.348C110.704 121.282 110.704 121.176 110.638 121.111L109.995 120.399C109.995 120.399 109.877 120.32 109.799 120.32Z" fill="white" stroke="black" stroke-width="0.44" stroke-miterlimit="10"/>
<path d="M110.271 117.695H94.148C94.0693 117.695 93.9906 117.722 93.9512 117.774L93.2953 118.486C93.2297 118.551 93.2297 118.657 93.2953 118.723L93.9643 119.434C93.9643 119.434 94.0824 119.513 94.1611 119.513H110.284C110.363 119.513 110.441 119.487 110.481 119.434L111.137 118.723C111.202 118.657 111.202 118.551 111.137 118.486L110.468 117.774C110.468 117.774 110.35 117.695 110.271 117.695Z" fill="white" stroke="black" stroke-width="0.44" stroke-miterlimit="10"/>
<path d="M109.143 122.93H94.7645C94.6989 122.93 94.6202 122.956 94.5809 123.009L93.9905 123.72C93.9381 123.786 93.9381 123.891 93.9905 123.957L94.594 124.668C94.594 124.668 94.6989 124.747 94.7776 124.747H109.156C109.221 124.747 109.3 124.721 109.339 124.668L109.93 123.957C109.982 123.891 109.982 123.786 109.93 123.72L109.326 123.009C109.326 123.009 109.221 122.93 109.143 122.93Z" fill="white" stroke="black" stroke-width="0.44" stroke-miterlimit="10"/>
</g>
<defs>
<clipPath id="clip0_9399_4523">
<rect width="110" height="74" fill="white" transform="translate(16 57)"/>
</clipPath>
</defs>
</svg>
