<svg width="217" height="195" viewBox="0 0 217 195" fill="none" xmlns="http://www.w3.org/2000/svg">
<rect x="8.52372e-06" y="2.47442e-05" width="217" height="195" rx="10" fill="#D9D9D9"/>
<g clip-path="url(#clip0_3841_2291)">
<path fill-rule="evenodd" clip-rule="evenodd" d="M100.619 148.826C101.141 145.54 101.663 141.961 102.186 138.225C102.436 136.402 102.708 134.556 102.958 132.665L103.049 131.968C103.185 131.045 103.299 130.1 103.435 129.154V128.974C103.526 128.547 103.571 128.096 103.639 127.669C104.298 122.807 105.002 117.99 105.729 113.489C105.774 113.174 105.842 112.858 105.888 112.543C106.683 107.794 107.523 103.428 108.432 99.8038C109.363 103.428 110.203 107.794 110.998 112.566C111.044 112.858 111.089 113.174 111.157 113.489C111.907 118.013 112.588 122.852 113.269 127.669C113.338 128.119 113.383 128.547 113.451 128.997V129.154C113.61 130.077 113.724 130.977 113.86 131.878L113.996 132.846C114.11 133.656 114.223 134.466 114.337 135.276H115.881C115.836 135.006 115.813 134.759 115.768 134.489C115.677 133.881 115.609 133.273 115.518 132.643C115.268 130.91 115.041 129.177 114.791 127.444V127.309C114.178 122.807 113.542 118.305 112.792 113.759C112.702 113.264 112.633 112.768 112.543 112.296C111.861 108.289 111.112 104.215 110.135 100.254V100.231C110.067 99.9613 109.999 99.6912 109.931 99.4211L108.477 93.7266L107.024 99.4211C106.955 99.6912 106.887 99.9613 106.819 100.231V100.254C105.888 103.99 105.252 107.817 104.593 111.598C104.548 111.823 104.525 112.048 104.48 112.296C104.389 112.791 104.321 113.264 104.23 113.759C103.48 118.328 102.822 122.829 102.231 127.331V127.466C101.959 129.267 101.709 131.067 101.459 132.846C101.391 133.386 101.3 133.926 101.232 134.489C100.573 139.215 99.9373 143.92 99.165 148.556" fill="#050A0A"/>
<path fill-rule="evenodd" clip-rule="evenodd" d="M132.598 20.7782C132.598 21.0032 132.552 21.2283 132.53 21.4759C132.507 21.8135 132.461 22.1511 132.439 22.4888C132.439 22.6913 132.393 22.8939 132.371 23.0965C132.212 24.7171 132.053 26.3151 131.916 27.9357C131.644 30.9518 131.371 33.9679 131.099 37.0065C131.099 37.164 131.076 37.3441 131.053 37.5466C130.872 40.0225 130.44 45.8746 131.167 47.4502C132.848 50.9164 134.142 54.9003 135.301 58.5241C136.981 63.9261 138.435 69.4856 139.525 75.0225C139.866 76.8457 140.206 78.7589 140.502 80.6946C141.047 84.2508 141.41 87.9196 141.433 91.4534C141.433 92.8039 141.387 94.1544 141.274 95.4598C141.228 96.1801 141.16 96.9003 141.092 97.6206C140.661 102.437 140.093 107.209 139.525 111.958C139.275 114.141 139.003 116.347 138.73 118.531C138.049 124.113 137.345 129.717 136.822 135.299H138.389C138.889 129.695 139.661 123.392 140.456 116.932C140.661 115.334 140.842 113.736 141.047 112.138C141.546 108.019 142.023 103.878 142.432 99.8939C142.568 98.4309 142.705 97.0129 142.841 95.5949C142.909 94.672 142.977 93.7267 142.977 92.7589C142.977 92.3312 142.977 91.881 142.977 91.4534C142.977 89.9003 142.886 88.2573 142.75 86.5917V86.4791C142.705 86.0515 142.682 85.6463 142.637 85.2187C142.637 85.0611 142.614 84.9036 142.591 84.7235C142.591 84.656 142.591 84.5884 142.568 84.4984C142.432 83.238 142.273 81.9325 142.069 80.6495C141.887 79.5016 141.705 78.3312 141.501 77.1608C141.365 76.3505 141.206 75.5402 141.047 74.7299C139.866 68.8328 138.299 63.0032 136.754 58.074C135.21 53.1222 133.688 49.0933 132.575 46.7524C132.144 45.8296 132.28 42.1608 132.643 37.1415C132.666 36.7814 132.689 36.4438 132.711 36.1061C132.848 34.283 133.029 32.2798 133.234 30.1865V30.1415C133.302 29.3762 133.37 28.611 133.461 27.8232C133.506 27.283 133.552 26.7428 133.62 26.2026V26.0675C133.733 25.0772 133.824 24.0643 133.915 23.0515V22.8939L133.983 22.3987V22.3537V22.2862L134.074 21.3859V21.3184C134.165 20.5531 134.301 19.0225 134.301 19.0225L132.62 20.8007L132.598 20.7782ZM80.7001 145.765C80.7001 142.524 80.4049 139.193 80.1096 135.929C79.6099 129.987 78.8832 124.023 78.1564 118.08C77.9065 116.032 77.6567 114.006 77.4069 111.958C76.839 107.209 76.2712 102.437 75.8397 97.6206C75.7716 96.9003 75.7261 96.1801 75.658 95.4598C75.5444 94.1544 75.499 92.8264 75.499 91.4534C75.499 87.8971 75.8624 84.1833 76.4075 80.6045C76.7028 78.6913 77.0435 76.8232 77.4069 75.0225C78.497 69.4856 79.9506 63.9261 81.6313 58.5241C82.7897 54.9003 84.107 50.8939 85.6968 47.4277C86.5599 45.6946 85.9921 38.9872 85.765 37.0065C85.5379 33.9904 85.288 30.9743 85.0155 27.9582C84.8792 26.3376 84.7202 24.6946 84.5612 23.074C84.5612 22.8714 84.5158 22.6688 84.4931 22.4663C84.4704 22.1061 84.425 21.7685 84.4022 21.4084C84.4022 21.2058 84.3568 20.9807 84.3341 20.7782L82.6988 19C82.6988 19 82.8805 20.8007 82.9487 21.6785V21.746L82.9941 22.2412V22.3087L83.0395 22.8264C83.1531 23.9293 83.2439 25.0097 83.3575 26.0901V26.1576C83.4256 26.6978 83.471 27.238 83.5165 27.7557C83.5846 28.5434 83.6527 29.3312 83.7436 30.0965V30.164C83.948 32.2348 84.107 34.2155 84.266 36.0386C84.2887 36.3762 84.3114 36.7364 84.3341 37.0515V37.0965C84.7202 42.1158 84.8338 45.7621 84.4022 46.6849V46.7299C83.2666 49.0708 81.7449 53.0772 80.2005 57.9839C78.656 62.9357 77.0889 68.7428 75.9306 74.6399C75.7716 75.4502 75.6126 76.2605 75.4763 77.0483C75.2719 78.2187 75.0675 79.4116 74.9085 80.582C74.7268 81.8875 74.5451 83.1704 74.4088 84.4534C74.4088 84.5209 74.4088 84.611 74.3861 84.6785C74.3861 84.8135 74.3634 84.9486 74.3407 85.1061C74.2953 85.5113 74.2726 85.9164 74.2271 86.3216V86.4116V86.4791C74.0909 88.1447 74.0227 89.7878 74 91.3409C74 91.791 74 92.2187 74 92.6688C74 93.6367 74.0681 94.5595 74.1363 95.4823C74.2498 96.9003 74.3861 98.3409 74.5451 99.8039C74.9539 103.788 75.4309 107.929 75.9306 112.048C76.1123 113.646 76.3167 115.244 76.4984 116.82C77.316 123.572 78.1336 130.145 78.6333 135.952C78.9513 139.553 79.1557 142.839 79.1784 145.653" fill="#050A0A"/>
<path d="M108.795 103.968C111.839 116.348 112.793 130.235 114.632 139.193C116.109 146.418 119.652 149.66 124.898 149.66C133.575 149.66 136.868 146.081 138.48 137.798C138.935 135.525 140.82 119.994 140.82 119.994C141.955 111.486 142.41 106.039 142.41 103.721L108.795 103.968Z" fill="#D3D3D5" stroke="#050A0A" stroke-width="0.44" stroke-miterlimit="10"/>
<path d="M126.988 149.637H125.307V156.794H126.988V149.637Z" fill="#D3D3D5" stroke="#050A0A" stroke-width="0.29" stroke-miterlimit="10"/>
<path d="M126.148 158.663C125.739 158.663 125.466 158.483 125.398 158.077L124.989 156.547H127.26L126.852 158.077C126.784 158.483 126.511 158.663 126.102 158.663H126.148Z" fill="#D3D3D5" stroke="#050A0A" stroke-width="0.29" stroke-miterlimit="10"/>
<path d="M125.216 150.02L127.079 150.672" stroke="#050A0A" stroke-width="0.29" stroke-miterlimit="10"/>
<path d="M125.216 151.979L127.079 152.631" stroke="#050A0A" stroke-width="0.29" stroke-miterlimit="10"/>
<path d="M125.216 153.959L127.079 154.589" stroke="#050A0A" stroke-width="0.29" stroke-miterlimit="10"/>
<path d="M125.216 155.916L127.079 156.546" stroke="#050A0A" stroke-width="0.29" stroke-miterlimit="10"/>
<path d="M115.723 142.615H137.118" stroke="#1D1D1B" stroke-width="0.29" stroke-miterlimit="10"/>
</g>
<path d="M57.5194 172.176C58.8314 172.56 59.5354 173.328 59.5354 174.704C59.5354 176.736 58.3834 178 55.1994 178H48.3034V166.8H55.3914C58.0794 166.8 59.1194 167.824 59.1194 169.664C59.1194 170.88 58.5914 171.664 57.5194 172.096V172.176ZM55.3594 168.448H50.2714V171.568H55.3594C56.8154 171.568 57.2474 170.912 57.2474 170.016C57.2474 169.056 56.7514 168.448 55.3594 168.448ZM55.4234 176.352C57.1354 176.352 57.5194 175.568 57.5194 174.608C57.5194 173.648 56.9274 173.104 55.4234 173.104H50.2714V176.352H55.4234ZM61.2997 166.192H63.2677V178H61.2997V166.192ZM69.7428 169.232C72.2388 169.232 74.6388 170.592 74.6388 173.744C74.6388 176.896 72.2388 178.24 69.7428 178.24C67.2468 178.24 64.8628 176.896 64.8628 173.744C64.8628 170.592 67.2468 169.232 69.7428 169.232ZM69.7428 176.784C72.0308 176.784 72.8148 175.232 72.8148 173.744C72.8148 172.24 72.0308 170.688 69.7428 170.688C67.4548 170.688 66.6708 172.24 66.6708 173.744C66.6708 175.232 67.4548 176.784 69.7428 176.784ZM83.1652 169.472H85.1332V180.672H83.1652V176.88C82.4932 177.696 81.4692 178.24 80.0292 178.24C77.5492 178.24 75.5972 176.624 75.5972 173.744C75.5972 170.848 77.5492 169.232 80.0292 169.232C81.4692 169.232 82.4932 169.776 83.1652 170.592V169.472ZM80.4132 176.784C82.4772 176.784 83.4692 175.504 83.4692 173.744C83.4692 171.968 82.4612 170.688 80.4132 170.688C78.3652 170.688 77.4212 171.936 77.4212 173.744C77.4212 175.536 78.3492 176.784 80.4132 176.784ZM94.0818 169.472H96.0498V178H94.0818V176.688C93.6818 177.248 92.5938 178.24 90.8178 178.24C88.5938 178.24 87.3778 176.976 87.3778 174.992V169.472H89.3458V174.4C89.3458 175.84 90.1298 176.64 91.6818 176.64C93.2338 176.64 94.0818 175.744 94.0818 174.4V169.472ZM102.444 169.232C105.148 169.232 107.324 170.832 107.1 174.368H99.4201C99.6441 175.824 100.684 176.784 102.476 176.784C104.14 176.784 104.844 175.984 105.132 175.376H106.86C106.428 177.12 104.764 178.24 102.476 178.24C100.044 178.24 97.6441 176.848 97.6441 173.744C97.6441 170.688 99.9961 169.232 102.444 169.232ZM99.4681 172.928H105.34C105.084 171.584 104.156 170.688 102.444 170.688C100.86 170.688 99.7721 171.584 99.4681 172.928ZM112.962 169.232C115.458 169.232 117.858 170.592 117.858 173.744C117.858 176.896 115.458 178.24 112.962 178.24C110.466 178.24 108.082 176.896 108.082 173.744C108.082 170.592 110.466 169.232 112.962 169.232ZM112.962 176.784C115.25 176.784 116.034 175.232 116.034 173.744C116.034 172.24 115.25 170.688 112.962 170.688C110.674 170.688 109.89 172.24 109.89 173.744C109.89 175.232 110.674 176.784 112.962 176.784ZM131.009 166.8H132.977V178H131.009V176.88C130.337 177.696 129.313 178.24 127.889 178.24C125.393 178.24 123.457 176.624 123.457 173.744C123.457 170.848 125.393 169.232 127.889 169.232C129.313 169.232 130.337 169.776 131.009 170.592V166.8ZM128.273 176.784C130.305 176.784 131.313 175.504 131.313 173.744C131.313 171.968 130.337 170.688 128.273 170.688C126.193 170.688 125.281 171.936 125.281 173.744C125.281 175.536 126.225 176.784 128.273 176.784ZM135.222 178V169.472H137.19V178H135.222ZM136.198 168.288C135.59 168.288 135.158 167.936 135.158 167.328C135.158 166.72 135.59 166.368 136.198 166.368C136.822 166.368 137.254 166.72 137.254 167.328C137.254 167.936 136.822 168.288 136.198 168.288ZM143.921 173.008C146.337 173.424 147.697 173.744 147.697 175.424C147.697 177.408 146.049 178.24 143.201 178.24C140.609 178.24 138.625 177.344 138.625 175.408H140.657C140.657 176.336 141.569 176.752 143.361 176.752C145.105 176.752 145.729 176.32 145.729 175.68C145.729 174.736 144.305 174.72 142.129 174.32C139.921 173.904 138.945 173.392 138.945 171.872C138.945 170.16 140.545 169.232 143.057 169.232C145.793 169.232 147.265 170.32 147.265 171.904H145.425C145.425 171.36 144.849 170.688 143.025 170.688C141.313 170.688 140.721 171.12 140.721 171.776C140.721 172.64 142.401 172.752 143.921 173.008ZM154.555 170.976H151.979V174.816C151.979 176.256 152.555 176.656 154.555 176.448V177.984C154.267 178.064 153.835 178.128 153.435 178.128C150.843 178.128 150.011 177.072 150.011 174.816V170.976H148.347V169.472H150.011V167.264H151.979V169.472H154.555V170.976ZM160.296 169.232C162.648 169.232 164.648 170.016 164.648 172.464V178H162.68V176.896C162.264 177.376 161.24 178.24 159.24 178.24C157.192 178.24 155.832 177.392 155.832 175.76C155.832 174 156.792 172.608 162.68 172.992V172.464C162.68 171.28 162.072 170.688 160.296 170.688C158.776 170.688 158.152 171.184 158.008 171.904H156.168C156.424 170.112 158.088 169.232 160.296 169.232ZM162.68 175.6V174.176C159.128 174 157.848 174.304 157.848 175.632C157.848 176.496 158.52 176.928 159.656 176.928C161.16 176.928 162.152 176.368 162.68 175.6ZM166.893 166.192H168.861V178H166.893V166.192Z" fill="black"/>
<defs>
<clipPath id="clip0_3841_2291">
<rect width="69" height="140" fill="white" transform="translate(74 19)"/>
</clipPath>
</defs>
</svg>
