<svg width="217" height="195" viewBox="0 0 217 195" fill="none" xmlns="http://www.w3.org/2000/svg">
<rect x="8.52372e-06" y="2.47442e-05" width="217" height="195" rx="10" fill="#D9D9D9"/>
<g clip-path="url(#clip0_3841_2308)">
<path fill-rule="evenodd" clip-rule="evenodd" d="M51.3311 152.741C51.8893 150.308 52.4045 147.443 52.9411 144.299C53.4778 141.025 54.0145 137.45 54.5297 133.745C54.7873 131.936 55.0449 130.084 55.3025 128.21L55.4098 127.521C55.5386 126.594 55.6674 125.668 55.7962 124.721V124.548C55.8821 124.118 55.9465 123.687 56.0109 123.234C56.6979 118.41 57.3848 113.585 58.1361 109.106C58.1791 108.783 58.2435 108.481 58.2864 108.158C59.0807 103.42 59.9394 99.0689 60.8624 95.4721C61.807 99.0689 62.6442 103.441 63.4599 108.179C63.5029 108.481 63.5673 108.783 63.6102 109.084C64.3615 113.585 65.0699 118.388 65.7569 123.213C65.8213 123.665 65.8857 124.096 65.9501 124.527V124.699C66.1004 125.604 66.2292 126.508 66.358 127.413L66.4868 128.382C66.5941 129.2 66.7229 129.997 66.8302 130.794H68.3973C68.3544 130.536 68.3329 130.277 68.29 130.019C68.2041 129.416 68.1182 128.791 68.0324 128.188C67.7962 126.465 67.5386 124.742 67.3025 123.019V122.89C66.68 118.41 66.036 113.93 65.2632 109.386C65.1773 108.89 65.0914 108.416 65.0055 107.921C64.3186 103.937 63.5673 99.8658 62.5583 95.9244V95.9029C62.4939 95.6444 62.4295 95.3644 62.3437 95.106L60.8624 89.4199L59.3812 95.106C59.3168 95.3644 59.2524 95.6444 59.1665 95.9029V95.9244C58.2435 99.6289 57.578 103.463 56.9125 107.232C56.8696 107.469 56.8267 107.684 56.7837 107.921C56.6979 108.416 56.612 108.89 56.5261 109.386C55.7533 113.93 55.1093 118.41 54.5082 122.89V123.041C54.2292 124.828 53.9716 126.616 53.714 128.404C53.6281 128.942 53.5637 129.48 53.4778 130.04C52.8123 134.736 52.1683 139.431 51.3741 144.062C50.9233 146.862 50.4081 149.662 49.764 152.397C49.7211 152.612 49.6567 152.806 49.6138 153.021" fill="black"/>
<path fill-rule="evenodd" clip-rule="evenodd" d="M83.8104 32.9047C83.8104 33.0555 83.7889 33.2278 83.7674 33.4432C83.5742 35.8985 83.1449 41.7353 83.8748 43.3075C85.5707 46.7751 86.9016 50.7381 88.0608 54.3349C89.7567 59.7194 91.2379 65.2547 92.3327 70.7684C92.6977 72.5776 93.0197 74.4729 93.3202 76.4113C93.8569 79.9435 94.2433 83.605 94.2648 87.1157C94.2648 88.4725 94.2218 89.8079 94.093 91.1002C94.0286 91.8325 93.9857 92.5432 93.9213 93.254C93.492 98.0569 92.9123 102.795 92.3327 107.534C92.0751 109.709 91.7961 111.906 91.517 114.081C90.8086 119.638 90.1217 125.216 89.585 130.773H91.1735C91.6887 125.195 92.4615 118.906 93.2558 112.487C93.449 110.894 93.6422 109.3 93.8354 107.706C94.3292 103.592 94.8229 99.4784 95.2308 95.5154C95.381 94.0724 95.5098 92.6294 95.6386 91.2294C95.7245 90.3033 95.7674 89.3771 95.7889 88.4079C95.7889 87.9772 95.7889 87.5464 95.7889 87.0941C95.7889 85.5434 95.703 83.9065 95.5528 82.2481V82.1404C95.5098 81.7312 95.4884 81.3004 95.4454 80.8697C95.4454 80.7189 95.4025 80.5466 95.4025 80.3958C95.4025 80.3312 95.4025 80.2451 95.381 80.1804C95.2522 78.9097 95.0805 77.639 94.8873 76.3467C94.7156 75.1837 94.5224 74.0206 94.3077 72.8576C94.1574 72.0607 94.0072 71.2422 93.8354 70.4453C92.6547 64.5655 91.0662 58.7718 89.4991 53.8396C87.932 48.9074 86.3864 44.8798 85.2701 42.5752C84.8408 41.6491 84.9696 38.0092 85.356 32.9909C85.3775 32.6463 85.3989 32.3017 85.4419 31.9571M32.2039 148.585V148.563C32.7191 146.28 32.7836 143.631 32.7836 141.262C32.7836 138.031 32.483 134.714 32.2039 131.462C31.7102 125.539 30.9589 119.616 30.229 113.693C29.9714 111.669 29.7138 109.623 29.4776 107.598C28.898 102.86 28.3184 98.1215 27.8891 93.3186C27.8247 92.6078 27.7603 91.8755 27.6959 91.1648C27.5886 89.8725 27.5242 88.5372 27.5242 87.1803C27.5242 83.6481 27.9106 79.9435 28.4472 76.3682C28.7478 74.4729 29.0912 72.5991 29.4562 70.8115C30.5725 65.2762 32.0322 59.7625 33.7281 54.378C34.9088 50.7597 36.2397 46.7751 37.8497 43.3291C38.7299 41.606 38.1288 34.9293 37.9141 32.9478L36.3685 32.0432C36.39 32.3878 36.4329 32.7324 36.4544 33.0555V33.1201C36.8408 38.1169 36.9481 41.7353 36.5403 42.6614V42.7045C35.381 45.0306 33.8354 49.0366 32.2898 53.9042C30.7227 58.8364 29.1556 64.6301 27.975 70.5099C27.8247 71.3284 27.653 72.1253 27.5242 72.9222C27.3095 74.0852 27.1163 75.2698 26.9446 76.4328C26.7514 77.7251 26.5796 79.0174 26.4508 80.2881C26.4508 80.3743 26.4508 80.4389 26.4293 80.5251C26.4293 80.6543 26.4079 80.805 26.3864 80.9343C26.3435 81.3435 26.3005 81.7527 26.2791 82.1619V82.2481V82.3127C26.0859 83.9711 26 85.5865 26 87.1587C26 87.611 26 88.0418 26 88.4725C26 89.4417 26.0644 90.3679 26.1503 91.2725C26.2791 92.694 26.4079 94.1155 26.5581 95.5801C26.966 99.5646 27.4383 103.678 27.9535 107.771C28.1467 109.364 28.3399 110.937 28.5331 112.53C29.3703 119.25 30.1861 125.819 30.7013 131.591C31.0233 135.167 31.2165 138.441 31.2594 141.262C31.2809 144.083 31.1306 146.453 30.7442 148.219V148.262" fill="black"/>
<path d="M62 105.036C64.898 116.946 65.7997 130.3 67.5385 138.915C68.9338 145.85 72.3041 148.995 77.2844 148.995C85.5277 148.995 88.6404 145.549 90.1861 137.58C90.6154 135.383 92.3971 120.457 92.3971 120.457C93.4705 112.294 93.9213 107.039 93.9213 104.799L62 105.036Z" fill="#D3D3D5" stroke="#1D1D1B" stroke-width="0.44" stroke-miterlimit="10"/>
<path d="M92.2898 131.484H65.907C65.7782 131.484 65.6494 131.592 65.585 131.786L64.5117 134.478C64.4043 134.737 64.4043 135.103 64.5117 135.361L65.6065 138.053C65.6923 138.247 65.7997 138.355 65.9285 138.355H92.3113C92.4401 138.355 92.5689 138.247 92.6333 138.053L93.7067 135.361C93.814 135.103 93.814 134.737 93.7067 134.478L92.6118 131.786C92.526 131.592 92.4186 131.484 92.2898 131.484Z" fill="white" stroke="#1D1D1B" stroke-width="0.44" stroke-miterlimit="10"/>
<path d="M64.5117 135.361H93.9429" stroke="#1D1D1B" stroke-width="0.25" stroke-miterlimit="10"/>
<path fill-rule="evenodd" clip-rule="evenodd" d="M139.324 152.741C139.882 150.308 140.397 147.443 140.934 144.299C141.47 141.025 142.007 137.449 142.522 133.745C142.78 131.936 143.038 130.084 143.295 128.21L143.403 127.521C143.531 126.594 143.66 125.668 143.789 124.721V124.548C143.875 124.118 143.939 123.687 144.004 123.234C144.691 118.41 145.377 113.585 146.129 109.106C146.172 108.783 146.236 108.481 146.279 108.158C147.073 103.42 147.932 99.0689 148.855 95.4721C149.8 99.0689 150.637 103.441 151.453 108.179C151.496 108.481 151.56 108.783 151.603 109.084C152.354 113.585 153.063 118.388 153.75 123.213C153.814 123.665 153.878 124.096 153.943 124.527V124.699C154.093 125.604 154.222 126.508 154.351 127.413L154.479 128.382C154.587 129.2 154.716 129.997 154.823 130.794H156.39C156.347 130.536 156.326 130.277 156.283 130.019C156.197 129.416 156.111 128.791 156.025 128.188C155.789 126.465 155.531 124.742 155.295 123.019V122.89C154.673 118.41 154.029 113.93 153.256 109.386C153.17 108.89 153.084 108.416 152.998 107.921C152.311 103.937 151.56 99.8658 150.551 95.9244V95.9029C150.487 95.6444 150.422 95.3644 150.336 95.106L148.855 89.4199L147.374 95.106C147.309 95.3644 147.245 95.6444 147.159 95.9029V95.9244C146.236 99.6289 145.571 103.463 144.905 107.232C144.862 107.469 144.819 107.684 144.776 107.921C144.691 108.416 144.605 108.89 144.519 109.386C143.746 113.93 143.102 118.41 142.501 122.89V123.041C142.222 124.828 141.964 126.616 141.707 128.404C141.621 128.942 141.556 129.48 141.47 130.04C140.805 134.736 140.161 139.431 139.367 144.062C138.916 146.862 138.401 149.661 137.757 152.397C137.714 152.612 137.649 152.806 137.606 153.021" fill="black"/>
<path fill-rule="evenodd" clip-rule="evenodd" d="M171.782 32.9047C171.782 33.0555 171.76 33.2278 171.739 33.4432C171.545 35.8985 171.116 41.7353 171.846 43.3075C173.542 46.7751 174.873 50.7381 176.032 54.3349C177.728 59.7194 179.209 65.2547 180.304 70.7684C180.669 72.5776 180.991 74.4729 181.291 76.4113C181.828 79.9435 182.215 83.605 182.236 87.1157C182.236 88.4725 182.193 89.8079 182.064 91.1002C182 91.8325 181.957 92.5432 181.893 93.254C181.463 98.0569 180.884 102.795 180.304 107.534C180.046 109.709 179.767 111.906 179.488 114.081C178.78 119.638 178.093 125.216 177.556 130.773H179.145C179.66 125.195 180.433 118.906 181.227 112.487C181.42 110.894 181.613 109.3 181.807 107.706C182.3 103.592 182.794 99.4784 183.202 95.5154C183.352 94.0724 183.481 92.6294 183.61 91.2294C183.696 90.3033 183.739 89.3771 183.76 88.4079C183.76 87.9772 183.76 87.5464 183.76 87.0941C183.76 85.5434 183.674 83.9065 183.524 82.2481V82.1404C183.481 81.7312 183.46 81.3004 183.417 80.8697C183.417 80.7189 183.374 80.5466 183.374 80.3958C183.374 80.3312 183.374 80.2451 183.352 80.1804C183.223 78.9097 183.052 77.639 182.859 76.3467C182.687 75.1837 182.494 74.0206 182.279 72.8576C182.129 72.0607 181.978 71.2422 181.807 70.4453C180.626 64.5655 179.037 58.7718 177.47 53.8396C175.903 48.9074 174.358 44.8798 173.241 42.5752C172.812 41.6491 172.941 38.0092 173.327 32.9909C173.349 32.6463 173.37 32.3017 173.413 31.9571M120.175 148.585V148.563C120.69 146.28 120.755 143.631 120.755 141.262C120.755 138.031 120.454 134.714 120.175 131.462C119.681 125.539 118.93 119.616 118.2 113.693C117.943 111.669 117.685 109.623 117.449 107.598C116.869 102.86 116.29 98.1215 115.86 93.3186C115.796 92.6078 115.732 91.8755 115.667 91.1648C115.56 89.8725 115.495 88.5372 115.495 87.1803C115.495 83.6481 115.882 79.9435 116.418 76.3682C116.719 74.4729 117.062 72.5991 117.427 70.8115C118.544 65.2762 120.003 59.7625 121.699 54.378C122.88 50.7597 124.211 46.7751 125.821 43.3291C126.701 41.606 126.1 34.9293 125.885 32.9478L124.34 32.0432C124.361 32.3878 124.404 32.7324 124.426 33.0555V33.1201C124.812 38.1169 124.919 41.7353 124.511 42.6614V42.7045C123.352 45.0306 121.807 49.0366 120.261 53.9042C118.694 58.8364 117.127 64.6301 115.946 70.5099C115.796 71.3284 115.624 72.1253 115.495 72.9222C115.281 74.0852 115.088 75.2698 114.916 76.4328C114.723 77.7251 114.551 79.0174 114.422 80.2881C114.422 80.3743 114.422 80.4389 114.401 80.5251C114.401 80.6543 114.379 80.805 114.358 80.9343C114.315 81.3435 114.272 81.7527 114.25 82.1619V82.2481V82.3127C114.122 83.9711 114.036 85.608 114.014 87.1587C114.014 87.611 114.014 88.0418 114.014 88.4725C114.014 89.4417 114.079 90.3679 114.164 91.2725C114.293 92.694 114.422 94.1155 114.572 95.5801C114.98 99.5646 115.452 103.678 115.968 107.771C116.161 109.364 116.354 110.937 116.547 112.53C117.384 119.25 118.2 125.819 118.715 131.591C119.037 135.167 119.231 138.441 119.274 141.262C119.295 144.083 119.145 146.453 118.758 148.219V148.262" fill="black"/>
<path d="M149.994 105.036C152.892 116.946 153.793 130.3 155.532 138.915C156.927 145.85 160.298 148.995 165.278 148.995C173.521 148.995 176.634 145.549 178.18 137.58C178.609 135.383 180.391 120.457 180.391 120.457C181.464 112.294 181.915 107.039 181.915 104.799L149.994 105.036Z" fill="#D3D3D5" stroke="#1D1D1B" stroke-width="0.44" stroke-miterlimit="10"/>
<path d="M179.489 135.533H154.201C154.072 135.533 153.965 135.576 153.879 135.662L152.849 136.825C152.741 136.933 152.741 137.105 152.849 137.213L153.9 138.376C153.9 138.376 154.094 138.505 154.222 138.505H179.51C179.639 138.505 179.747 138.462 179.832 138.376L180.863 137.213C180.97 137.105 180.97 136.933 180.863 136.825L179.811 135.662C179.811 135.662 179.618 135.533 179.489 135.533Z" fill="white" stroke="#1D1D1B" stroke-width="0.44" stroke-miterlimit="10"/>
<path d="M180.262 131.248H153.879C153.75 131.248 153.622 131.291 153.557 131.377L152.484 132.54C152.376 132.648 152.376 132.82 152.484 132.928L153.579 134.091C153.579 134.091 153.772 134.22 153.901 134.22H180.283C180.412 134.22 180.541 134.177 180.605 134.091L181.679 132.928C181.786 132.82 181.786 132.648 181.679 132.54L180.584 131.377C180.584 131.377 180.391 131.248 180.262 131.248Z" fill="white" stroke="#1D1D1B" stroke-width="0.44" stroke-miterlimit="10"/>
<path d="M178.416 139.797H154.888C154.781 139.797 154.652 139.84 154.588 139.926L153.622 141.089C153.536 141.197 153.536 141.369 153.622 141.477L154.609 142.64C154.609 142.64 154.781 142.769 154.91 142.769H178.437C178.545 142.769 178.673 142.726 178.738 142.64L179.704 141.477C179.79 141.369 179.79 141.197 179.704 141.089L178.716 139.926C178.716 139.926 178.545 139.797 178.416 139.797Z" fill="white" stroke="#1D1D1B" stroke-width="0.44" stroke-miterlimit="10"/>
</g>
<path d="M57.6389 175.536C60.8069 175.968 62.7109 176.448 62.7109 178.624C62.7109 180.736 61.1269 182.24 57.2069 182.24C53.0309 182.24 51.3669 180.688 51.3669 178.672H53.4789C53.5429 179.84 54.8549 180.576 57.2709 180.576C59.3509 180.576 60.6629 180.064 60.6629 178.864C60.6629 177.52 58.8069 177.632 55.6869 177.12C52.9989 176.688 51.7509 175.824 51.7509 174C51.7509 172.048 53.1749 170.576 56.8709 170.576C60.7109 170.576 62.1669 172.32 62.1669 173.92H60.1509C60.0549 173.104 59.2069 172.24 56.8229 172.24C54.3269 172.24 53.7349 172.992 53.7349 173.856C53.7349 175.072 55.2389 175.2 57.6389 175.536ZM68.4675 173.232C71.1715 173.232 73.3475 174.832 73.1235 178.368H65.4435C65.6675 179.824 66.7075 180.784 68.4995 180.784C70.1635 180.784 70.8675 179.984 71.1555 179.376H72.8835C72.4515 181.12 70.7875 182.24 68.4995 182.24C66.0675 182.24 63.6675 180.848 63.6675 177.744C63.6675 174.688 66.0195 173.232 68.4675 173.232ZM65.4915 176.928H71.3635C71.1075 175.584 70.1795 174.688 68.4675 174.688C66.8835 174.688 65.7955 175.584 65.4915 176.928ZM74.745 170.192H76.713V182H74.745V170.192ZM78.9481 170.192H80.9161V182H78.9481V170.192ZM86.9753 173.232C89.3273 173.232 91.3273 174.016 91.3273 176.464V182H89.3593V180.896C88.9433 181.376 87.9193 182.24 85.9193 182.24C83.8713 182.24 82.5113 181.392 82.5113 179.76C82.5113 178 83.4713 176.608 89.3593 176.992V176.464C89.3593 175.28 88.7513 174.688 86.9753 174.688C85.4553 174.688 84.8313 175.184 84.6873 175.904H82.8473C83.1033 174.112 84.7673 173.232 86.9753 173.232ZM89.3593 179.6V178.176C85.8073 178 84.5273 178.304 84.5273 179.632C84.5273 180.496 85.1993 180.928 86.3353 180.928C87.8393 180.928 88.8313 180.368 89.3593 179.6ZM100.485 170.8H102.453V182H100.485V180.88C99.8131 181.696 98.7891 182.24 97.3651 182.24C94.8691 182.24 92.9331 180.624 92.9331 177.744C92.9331 174.848 94.8691 173.232 97.3651 173.232C98.7891 173.232 99.8131 173.776 100.485 174.592V170.8ZM97.7491 180.784C99.7811 180.784 100.789 179.504 100.789 177.744C100.789 175.968 99.8131 174.688 97.7491 174.688C95.6691 174.688 94.7571 175.936 94.7571 177.744C94.7571 179.536 95.7011 180.784 97.7491 180.784ZM108.938 173.232C111.434 173.232 113.834 174.592 113.834 177.744C113.834 180.896 111.434 182.24 108.938 182.24C106.442 182.24 104.058 180.896 104.058 177.744C104.058 174.592 106.442 173.232 108.938 173.232ZM108.938 180.784C111.226 180.784 112.01 179.232 112.01 177.744C112.01 176.24 111.226 174.688 108.938 174.688C106.65 174.688 105.866 176.24 105.866 177.744C105.866 179.232 106.65 180.784 108.938 180.784ZM126.985 170.8H128.953V182H126.985V180.88C126.313 181.696 125.289 182.24 123.865 182.24C121.369 182.24 119.433 180.624 119.433 177.744C119.433 174.848 121.369 173.232 123.865 173.232C125.289 173.232 126.313 173.776 126.985 174.592V170.8ZM124.249 180.784C126.281 180.784 127.289 179.504 127.289 177.744C127.289 175.968 126.313 174.688 124.249 174.688C122.169 174.688 121.257 175.936 121.257 177.744C121.257 179.536 122.201 180.784 124.249 180.784ZM131.198 182V173.472H133.166V182H131.198ZM132.174 172.288C131.566 172.288 131.134 171.936 131.134 171.328C131.134 170.72 131.566 170.368 132.174 170.368C132.798 170.368 133.23 170.72 133.23 171.328C133.23 171.936 132.798 172.288 132.174 172.288ZM139.897 177.008C142.313 177.424 143.673 177.744 143.673 179.424C143.673 181.408 142.025 182.24 139.177 182.24C136.585 182.24 134.601 181.344 134.601 179.408H136.633C136.633 180.336 137.545 180.752 139.337 180.752C141.081 180.752 141.705 180.32 141.705 179.68C141.705 178.736 140.281 178.72 138.105 178.32C135.897 177.904 134.921 177.392 134.921 175.872C134.921 174.16 136.521 173.232 139.033 173.232C141.769 173.232 143.241 174.32 143.241 175.904H141.401C141.401 175.36 140.825 174.688 139.001 174.688C137.289 174.688 136.697 175.12 136.697 175.776C136.697 176.64 138.377 176.752 139.897 177.008ZM150.532 174.976H147.956V178.816C147.956 180.256 148.532 180.656 150.532 180.448V181.984C150.244 182.064 149.812 182.128 149.412 182.128C146.82 182.128 145.988 181.072 145.988 178.816V174.976H144.324V173.472H145.988V171.264H147.956V173.472H150.532V174.976ZM156.272 173.232C158.624 173.232 160.624 174.016 160.624 176.464V182H158.656V180.896C158.24 181.376 157.216 182.24 155.216 182.24C153.168 182.24 151.808 181.392 151.808 179.76C151.808 178 152.768 176.608 158.656 176.992V176.464C158.656 175.28 158.048 174.688 156.272 174.688C154.752 174.688 154.128 175.184 153.984 175.904H152.144C152.4 174.112 154.064 173.232 156.272 173.232ZM158.656 179.6V178.176C155.104 178 153.824 178.304 153.824 179.632C153.824 180.496 154.496 180.928 155.632 180.928C157.136 180.928 158.128 180.368 158.656 179.6ZM162.87 170.192H164.838V182H162.87V170.192Z" fill="black"/>
<defs>
<clipPath id="clip0_3841_2308">
<rect width="180" height="121" fill="white" transform="translate(26 32)"/>
</clipPath>
</defs>
</svg>
