<svg width="217" height="195" viewBox="0 0 217 195" fill="none" xmlns="http://www.w3.org/2000/svg">
<rect x="8.52372e-06" y="2.47442e-05" width="217" height="195" rx="10" fill="#D9D9D9"/>
<g clip-path="url(#clip0_3841_2336)">
<path fill-rule="evenodd" clip-rule="evenodd" d="M99.5477 157C100.108 153.456 100.668 149.597 101.228 145.567C101.496 143.601 101.789 141.611 102.057 139.572L102.154 138.82C102.3 137.825 102.422 136.805 102.568 135.786V135.592C102.666 135.131 102.714 134.645 102.787 134.184C103.494 128.941 104.249 123.747 105.028 118.893C105.077 118.553 105.15 118.213 105.199 117.873C106.051 112.752 106.953 108.043 107.927 104.135C108.926 108.043 109.827 112.752 110.679 117.898C110.728 118.213 110.777 118.553 110.85 118.893C111.654 123.771 112.384 128.99 113.115 134.184C113.188 134.669 113.237 135.131 113.31 135.616V135.786C113.481 136.781 113.602 137.752 113.748 138.723L113.895 139.767C114.016 140.64 114.138 141.514 114.26 142.388H115.916C115.868 142.097 115.843 141.83 115.795 141.538C115.697 140.883 115.624 140.228 115.527 139.548C115.259 137.679 115.015 135.81 114.747 133.941V133.796C114.089 128.941 113.407 124.087 112.604 119.184C112.506 118.65 112.433 118.116 112.336 117.606C111.605 113.286 110.801 108.893 109.754 104.621V104.597C109.681 104.305 109.608 104.014 109.535 103.723L107.976 97.5821L106.417 103.723C106.344 104.014 106.271 104.305 106.197 104.597V104.621C105.199 108.65 104.517 112.776 103.81 116.854C103.762 117.097 103.737 117.339 103.689 117.606C103.591 118.14 103.518 118.65 103.421 119.184C102.617 124.111 101.91 128.966 101.277 133.82V133.966C100.985 135.907 100.717 137.849 100.449 139.767C100.376 140.349 100.278 140.932 100.205 141.538C99.499 146.635 98.817 151.708 97.9888 156.708" fill="#050A0A"/>
<path fill-rule="evenodd" clip-rule="evenodd" d="M133.844 18.9175C133.844 19.1602 133.795 19.4029 133.771 19.6699C133.747 20.034 133.698 20.3981 133.673 20.7622C133.673 20.9806 133.625 21.1991 133.6 21.4175C133.43 23.1651 133.259 24.8884 133.113 26.6359C132.821 29.8884 132.529 33.1408 132.236 36.4175C132.236 36.5874 132.212 36.7816 132.188 37C131.993 39.6699 131.53 45.9806 132.309 47.6796C134.112 51.4175 135.5 55.7136 136.743 59.6214C138.545 65.4466 140.104 71.4418 141.273 77.4126C141.639 79.3787 142.004 81.4418 142.321 83.5292C142.905 87.3641 143.295 91.3204 143.319 95.1311C143.319 96.5874 143.271 98.0437 143.149 99.4515C143.1 100.228 143.027 101.005 142.954 101.782C142.491 106.976 141.882 112.121 141.273 117.243C141.005 119.597 140.713 121.976 140.421 124.33C139.69 130.35 138.935 136.393 138.375 142.413H140.055C140.591 136.369 141.419 129.573 142.272 122.607C142.491 120.884 142.686 119.16 142.905 117.437C143.441 112.995 143.953 108.529 144.391 104.233C144.537 102.655 144.683 101.126 144.829 99.5971C144.903 98.602 144.976 97.5826 144.976 96.5389C144.976 96.0777 144.976 95.5923 144.976 95.1311C144.976 93.4563 144.878 91.6845 144.732 89.8884V89.767C144.683 89.3059 144.659 88.869 144.61 88.4078C144.61 88.2379 144.586 88.068 144.562 87.8738C144.562 87.801 144.562 87.7282 144.537 87.6311C144.391 86.2719 144.221 84.8641 144.001 83.4806C143.806 82.2427 143.612 80.9806 143.392 79.7185C143.246 78.8447 143.076 77.9709 142.905 77.0971C141.639 70.7379 139.958 64.4515 138.302 59.136C136.645 53.7961 135.013 49.4515 133.82 46.9272C133.357 45.9321 133.503 41.9758 133.893 36.5631C133.917 36.1748 133.941 35.8107 133.966 35.4466C134.112 33.4806 134.307 31.3204 134.526 29.0631V29.0146C134.599 28.1893 134.672 27.3641 134.77 26.5146C134.818 25.9321 134.867 25.3495 134.94 24.767V24.6214C135.062 23.5534 135.159 22.4612 135.257 21.369V21.1991L135.33 20.6651V20.6165V20.5437L135.427 19.5728V19.5C135.525 18.6748 135.671 17.0243 135.671 17.0243L133.868 18.9418L133.844 18.9175ZM78.1857 153.699C78.1857 150.204 77.869 146.612 77.5523 143.092C77.0165 136.684 76.237 130.252 75.4575 123.845C75.1896 121.636 74.9217 119.451 74.6537 117.243C74.0448 112.121 73.4358 106.976 72.973 101.782C72.8999 101.005 72.8512 100.228 72.7782 99.4515C72.6564 98.0437 72.6076 96.6117 72.6076 95.1311C72.6076 91.2961 72.9974 87.2913 73.582 83.4321C73.8986 81.369 74.264 79.3544 74.6537 77.4126C75.8229 71.4418 77.3818 65.4466 79.1843 59.6214C80.4266 55.7136 81.8394 51.3932 83.5444 47.6554C84.4701 45.7864 83.8611 38.5534 83.6175 36.4175C83.3739 33.1651 83.106 29.9126 82.8137 26.6602C82.6676 24.9126 82.497 23.1408 82.3265 21.3932C82.3265 21.1748 82.2778 20.9563 82.2535 20.7379C82.2291 20.3495 82.1804 19.9855 82.156 19.5971C82.156 19.3787 82.1073 19.1359 82.083 18.9175L80.3292 17C80.3292 17 80.524 18.9418 80.5971 19.8884V19.9612L80.6458 20.4952V20.568L80.6945 21.1262C80.8163 22.3156 80.9138 23.4806 81.0356 24.6457V24.7185C81.1086 25.301 81.1573 25.8835 81.2061 26.4418C81.2791 27.2913 81.3522 28.1408 81.4496 28.966V29.0389C81.6689 31.2719 81.8394 33.4078 82.0099 35.3738C82.0342 35.7379 82.0586 36.1262 82.083 36.466V36.5146C82.497 41.9272 82.6188 45.8592 82.156 46.8544V46.9029C80.9381 49.4272 79.3061 53.7476 77.6498 59.0389C75.9934 64.3787 74.3127 70.6408 73.0704 77C72.8999 77.8738 72.7294 78.7476 72.5833 79.5971C72.3641 80.8593 72.1448 82.1457 71.9743 83.4078C71.7795 84.8156 71.5846 86.1991 71.4385 87.5826C71.4385 87.6554 71.4385 87.7525 71.4141 87.8253C71.4141 87.9709 71.3897 88.1165 71.3654 88.2864C71.3167 88.7233 71.2923 89.1602 71.2436 89.5971V89.6942V89.767C71.0974 91.5631 71.0244 93.335 71 95.0097C71 95.4952 71 95.9563 71 96.4418C71 97.4855 71.0731 98.4806 71.1462 99.4758C71.2679 101.005 71.4141 102.558 71.5846 104.136C72.023 108.432 72.5346 112.898 73.0704 117.34C73.2653 119.063 73.4845 120.786 73.6794 122.485C74.5563 129.767 75.4332 136.854 75.9691 143.117C76.3101 147 76.5293 150.544 76.5537 153.578" fill="#050A0A"/>
<path d="M108.39 104.986C111.654 118.335 112.677 133.311 114.65 142.971C116.233 150.762 120.033 154.258 125.66 154.258C134.964 154.258 138.496 150.398 140.226 141.466C140.713 139.015 142.735 122.267 142.735 122.267C143.953 113.093 144.44 107.219 144.44 104.719L108.39 104.986Z" fill="#D3D3D5" stroke="#050A0A" stroke-width="0.44" stroke-miterlimit="10"/>
<path d="M115.819 146.66H138.789" stroke="#1D1D1B" stroke-width="0.29" stroke-miterlimit="10"/>
<path d="M131.457 112.486H122.542V116.127H131.457V112.486Z" stroke="#050A0A" stroke-width="0.29" stroke-miterlimit="10"/>
<path d="M129.874 114.137H124.149V155.69H129.874V114.137Z" fill="white" stroke="#050A0A" stroke-width="0.29" stroke-miterlimit="10"/>
</g>
<path d="M82.9481 180.592C85.5561 180.592 86.5321 179.04 86.8521 177.568H88.9161C88.4041 180.736 85.8761 182.24 82.9481 182.24C79.8441 182.24 76.8041 180.544 76.8041 176.4C76.8041 172.256 79.8441 170.576 82.9481 170.576C85.8761 170.576 88.4041 172.08 88.9161 175.248H86.8521C86.5321 173.776 85.5561 172.224 82.9481 172.224C80.2601 172.224 78.8361 173.824 78.8361 176.4C78.8361 178.976 80.2601 180.592 82.9481 180.592ZM94.9147 173.232C97.4107 173.232 99.8107 174.592 99.8107 177.744C99.8107 180.896 97.4107 182.24 94.9147 182.24C92.4187 182.24 90.0347 180.896 90.0347 177.744C90.0347 174.592 92.4187 173.232 94.9147 173.232ZM94.9147 180.784C97.2027 180.784 97.9867 179.232 97.9867 177.744C97.9867 176.24 97.2027 174.688 94.9147 174.688C92.6267 174.688 91.8427 176.24 91.8427 177.744C91.8427 179.232 92.6267 180.784 94.9147 180.784ZM106.801 173.232C107.185 173.232 107.409 173.248 107.745 173.296V175.248H107.681C107.345 175.152 106.913 175.088 106.369 175.088C104.209 175.088 103.393 176.336 103.393 177.664V182H101.409V173.472H103.393V175.072C103.777 174.448 104.961 173.232 106.801 173.232ZM116.102 170.8H118.07V182H116.102V180.88C115.43 181.696 114.406 182.24 112.982 182.24C110.486 182.24 108.55 180.624 108.55 177.744C108.55 174.848 110.486 173.232 112.982 173.232C114.406 173.232 115.43 173.776 116.102 174.592V170.8ZM113.366 180.784C115.398 180.784 116.406 179.504 116.406 177.744C116.406 175.968 115.43 174.688 113.366 174.688C111.286 174.688 110.374 175.936 110.374 177.744C110.374 179.536 111.318 180.784 113.366 180.784ZM124.555 173.232C127.051 173.232 129.451 174.592 129.451 177.744C129.451 180.896 127.051 182.24 124.555 182.24C122.059 182.24 119.675 180.896 119.675 177.744C119.675 174.592 122.059 173.232 124.555 173.232ZM124.555 180.784C126.843 180.784 127.627 179.232 127.627 177.744C127.627 176.24 126.843 174.688 124.555 174.688C122.267 174.688 121.483 176.24 121.483 177.744C121.483 179.232 122.267 180.784 124.555 180.784ZM125.067 170.24H127.147L125.163 172.304H123.883L125.067 170.24ZM136.282 173.232C138.506 173.232 139.722 174.496 139.722 176.48V182H137.754V177.072C137.754 175.632 136.97 174.832 135.418 174.832C133.866 174.832 133.018 175.728 133.018 177.072V182H131.05V173.472H133.018V174.784C133.418 174.224 134.506 173.232 136.282 173.232Z" fill="black"/>
<defs>
<clipPath id="clip0_3841_2336">
<rect width="74" height="140" fill="white" transform="translate(71 17)"/>
</clipPath>
</defs>
</svg>
