<svg width="132" height="187" viewBox="0 0 132 187" fill="none" xmlns="http://www.w3.org/2000/svg">
<rect width="132" height="187" rx="10" fill="white"/>
<path d="M46.336 175.944C48.292 175.944 49.024 174.78 49.264 173.676H50.812C50.428 176.052 48.532 177.18 46.336 177.18C44.008 177.18 41.728 175.908 41.728 172.8C41.728 169.692 44.008 168.432 46.336 168.432C48.532 168.432 50.428 169.56 50.812 171.936H49.264C49.024 170.832 48.292 169.668 46.336 169.668C44.32 169.668 43.252 170.868 43.252 172.8C43.252 174.732 44.32 175.944 46.336 175.944ZM55.311 170.424C57.183 170.424 58.983 171.444 58.983 173.808C58.983 176.172 57.183 177.18 55.311 177.18C53.439 177.18 51.651 176.172 51.651 173.808C51.651 171.444 53.439 170.424 55.311 170.424ZM55.311 176.088C57.027 176.088 57.615 174.924 57.615 173.808C57.615 172.68 57.027 171.516 55.311 171.516C53.595 171.516 53.007 172.68 53.007 173.808C53.007 174.924 53.595 176.088 55.311 176.088ZM64.2258 170.424C64.5138 170.424 64.6818 170.436 64.9338 170.472V171.936H64.8858C64.6338 171.864 64.3098 171.816 63.9018 171.816C62.2818 171.816 61.6698 172.752 61.6698 173.748V177H60.1818V170.604H61.6698V171.804C61.9578 171.336 62.8458 170.424 64.2258 170.424ZM71.2017 168.6H72.6777V177H71.2017V176.16C70.6977 176.772 69.9297 177.18 68.8617 177.18C66.9897 177.18 65.5377 175.968 65.5377 173.808C65.5377 171.636 66.9897 170.424 68.8617 170.424C69.9297 170.424 70.6977 170.832 71.2017 171.444V168.6ZM69.1497 176.088C70.6737 176.088 71.4297 175.128 71.4297 173.808C71.4297 172.476 70.6977 171.516 69.1497 171.516C67.5897 171.516 66.9057 172.452 66.9057 173.808C66.9057 175.152 67.6137 176.088 69.1497 176.088ZM77.5415 170.424C79.4135 170.424 81.2135 171.444 81.2135 173.808C81.2135 176.172 79.4135 177.18 77.5415 177.18C75.6695 177.18 73.8815 176.172 73.8815 173.808C73.8815 171.444 75.6695 170.424 77.5415 170.424ZM77.5415 176.088C79.2575 176.088 79.8455 174.924 79.8455 173.808C79.8455 172.68 79.2575 171.516 77.5415 171.516C75.8255 171.516 75.2375 172.68 75.2375 173.808C75.2375 174.924 75.8255 176.088 77.5415 176.088ZM77.9255 168.18H79.4855L77.9975 169.728H77.0375L77.9255 168.18ZM86.3363 170.424C88.0043 170.424 88.9163 171.372 88.9163 172.86V177H87.4403V173.304C87.4403 172.224 86.8523 171.624 85.6883 171.624C84.5243 171.624 83.8883 172.296 83.8883 173.304V177H82.4123V170.604H83.8883V171.588C84.1883 171.168 85.0043 170.424 86.3363 170.424Z" fill="black"/>
<g clip-path="url(#clip0_9399_4503)">
<rect width="63" height="119" transform="translate(36 24)" fill="white"/>
<path fill-rule="evenodd" clip-rule="evenodd" d="M60.3042 142.997C60.7812 139.985 61.2582 136.705 61.7351 133.28C61.9632 131.609 62.2121 129.917 62.4402 128.184L62.5231 127.544C62.6476 126.698 62.7512 125.832 62.8757 124.965V124.8C62.9586 124.408 63.0001 123.996 63.0623 123.604C63.6637 119.148 64.3065 114.732 64.9701 110.606C65.0116 110.317 65.0738 110.029 65.1153 109.74C65.8411 105.387 66.6084 101.384 67.4379 98.0626C68.2881 101.384 69.0554 105.387 69.7812 109.76C69.8227 110.029 69.8641 110.317 69.9264 110.606C70.6107 114.753 71.2328 119.189 71.8549 123.604C71.9171 124.016 71.9586 124.408 72.0208 124.821V124.965C72.166 125.811 72.2697 126.637 72.3941 127.462L72.5185 128.349C72.6222 129.092 72.7259 129.834 72.8296 130.577H74.2397C74.1983 130.33 74.1775 130.103 74.136 129.855C74.0531 129.298 73.9909 128.741 73.9079 128.163C73.6798 126.575 73.4724 124.986 73.2443 123.398V123.274C72.6844 119.148 72.1038 115.021 71.4194 110.854C71.3365 110.4 71.2743 109.946 71.1913 109.513C70.5692 105.84 69.8849 102.106 68.9932 98.4752V98.4546C68.931 98.207 68.8688 97.9594 68.8065 97.7118L67.4794 92.4922L66.1522 97.7118C66.09 97.9594 66.0277 98.207 65.9655 98.4546V98.4752C65.1153 101.9 64.5347 105.407 63.9333 108.873C63.8918 109.08 63.8711 109.286 63.8296 109.513C63.7466 109.967 63.6844 110.4 63.6015 110.854C62.9171 115.042 62.3158 119.168 61.7766 123.294V123.418C61.5277 125.069 61.2996 126.719 61.0715 128.349C61.0093 128.844 60.9264 129.339 60.8641 129.855C60.2628 134.188 59.6821 138.499 58.9771 142.749" fill="black"/>
<path fill-rule="evenodd" clip-rule="evenodd" d="M89.5023 25.6299C89.5023 25.8362 89.4608 26.0425 89.4401 26.2694C89.4194 26.5789 89.3779 26.8883 89.3571 27.1978C89.3571 27.3835 89.3157 27.5692 89.2949 27.7549C89.1498 29.2403 89.0046 30.7051 88.8802 32.1905C88.6313 34.9551 88.3825 37.7197 88.1336 40.5049C88.1336 40.6493 88.1129 40.8143 88.0922 41C87.9263 43.2694 87.5323 48.6335 88.1959 50.0777C89.7304 53.2549 90.9124 56.9066 91.97 60.2282C93.5046 65.1796 94.8318 70.2755 95.8272 75.3507C96.1382 77.0218 96.4493 78.7755 96.7189 80.5498C97.2166 83.8095 97.5484 87.1723 97.5691 90.4114C97.5691 91.6493 97.5276 92.8871 97.424 94.0837C97.3825 94.7439 97.3203 95.4041 97.2581 96.0643C96.8641 100.479 96.3456 104.853 95.8272 109.206C95.5991 111.208 95.3502 113.229 95.1014 115.231C94.4793 120.347 93.8364 125.484 93.3594 130.601H94.7903C95.2465 125.464 95.9516 119.687 96.6774 113.766C96.8641 112.301 97.03 110.836 97.2166 109.371C97.6728 105.596 98.1083 101.8 98.4816 98.1481C98.606 96.807 98.7304 95.5073 98.8548 94.2075C98.917 93.3616 98.9793 92.4951 98.9793 91.608C98.9793 91.216 98.9793 90.8034 98.9793 90.4114C98.9793 88.9879 98.8963 87.4818 98.7719 85.9551V85.8519C98.7304 85.4599 98.7097 85.0886 98.6682 84.6966C98.6682 84.5522 98.6475 84.4078 98.6267 84.2427C98.6267 84.1808 98.6267 84.1189 98.606 84.0364C98.4816 82.8811 98.3364 81.6845 98.1498 80.5085C97.9839 79.4563 97.818 78.3835 97.6313 77.3107C97.5069 76.568 97.3617 75.8252 97.2166 75.0825C96.1382 69.6772 94.7074 64.3337 93.2972 59.8155C91.8871 55.2767 90.4977 51.5837 89.4816 49.4381C89.0876 48.5922 89.212 45.2294 89.5438 40.6286C89.5645 40.2985 89.5853 39.9891 89.606 39.6796C89.7304 38.0085 89.8963 36.1723 90.0829 34.2536V34.2124C90.1452 33.5109 90.2074 32.8095 90.2903 32.0874C90.3318 31.5922 90.3733 31.0971 90.4355 30.6019V30.4782C90.5392 29.5704 90.6221 28.642 90.7051 27.7136V27.5692L90.7673 27.1153V27.074V27.0121L90.8502 26.1869V26.125C90.9332 25.4235 91.0576 24.0206 91.0576 24.0206L89.523 25.6505L89.5023 25.6299ZM42.1175 140.194C42.1175 137.223 41.8479 134.17 41.5783 131.178C41.1221 125.732 40.4585 120.265 39.7949 114.818C39.5668 112.941 39.3387 111.084 39.1106 109.206C38.5922 104.853 38.0737 100.479 37.6797 96.0643C37.6175 95.4041 37.576 94.7439 37.5138 94.0837C37.4101 92.8871 37.3687 91.6699 37.3687 90.4114C37.3687 87.1517 37.7005 83.7476 38.1982 80.4672C38.4677 78.7136 38.7788 77.0012 39.1106 75.3507C40.106 70.2755 41.4332 65.1796 42.9677 60.2282C44.0253 56.9066 45.2281 53.2342 46.6797 50.057C47.4677 48.4684 46.9493 42.3204 46.7419 40.5049C46.5346 37.7403 46.3065 34.9757 46.0576 32.2112C45.9332 30.7257 45.788 29.2197 45.6429 27.7342C45.6429 27.5485 45.6014 27.3629 45.5806 27.1772C45.5599 26.8471 45.5184 26.5376 45.4977 26.2075C45.4977 26.0218 45.4562 25.8155 45.4355 25.6299L43.9424 24C43.9424 24 44.1083 25.6505 44.1705 26.4551V26.517L44.212 26.9709V27.0328L44.2535 27.5073C44.3571 28.5182 44.4401 29.5085 44.5438 30.4988V30.5607C44.606 31.0558 44.6475 31.551 44.6889 32.0255C44.7512 32.7476 44.8134 33.4697 44.8963 34.1711V34.233C45.0829 36.1311 45.2281 37.9466 45.3733 39.6177C45.394 39.9272 45.4147 40.2573 45.4355 40.5461V40.5874C45.788 45.1881 45.8917 48.5303 45.4977 49.3762V49.4175C44.4608 51.5631 43.0714 55.2354 41.6613 59.733C40.2512 64.2718 38.8203 69.5947 37.7627 75C37.6175 75.7427 37.4724 76.4854 37.3479 77.2075C37.1613 78.2803 36.9747 79.3738 36.8295 80.4466C36.6636 81.6432 36.4977 82.8192 36.3733 83.9951C36.3733 84.057 36.3733 84.1396 36.3525 84.2015C36.3525 84.3252 36.3318 84.449 36.3111 84.5934C36.2696 84.9648 36.2488 85.3362 36.2074 85.7075V85.79V85.8519C36.0829 87.3786 36.0207 88.8847 36 90.3083C36 90.7209 36 91.1129 36 91.5255C36 92.4126 36.0622 93.2585 36.1244 94.1044C36.2281 95.4041 36.3525 96.7245 36.4977 98.0655C36.871 101.717 37.3065 105.513 37.7627 109.289C37.9286 110.754 38.1152 112.218 38.2811 113.663C39.0276 119.852 39.7742 125.876 40.2304 131.199C40.5207 134.5 40.7074 137.512 40.7281 140.091" fill="black"/>
<path d="M67.832 98.7894C70.6108 110.137 71.4818 122.866 73.1615 131.077C74.5095 137.7 77.7445 140.671 82.5348 140.671C90.4565 140.671 93.4634 137.39 94.9357 129.798C95.3505 127.714 97.0717 113.479 97.0717 113.479C98.1085 105.68 98.5233 100.687 98.5233 98.5625L67.832 98.7894Z" fill="#D3D3D5" stroke="black" stroke-width="0.44" stroke-miterlimit="10"/>
<path d="M74.1567 134.211H93.712" stroke="black" stroke-width="0.29" stroke-miterlimit="10"/>
<path d="M87.4702 105.164H79.8804V108.259H87.4702V105.164Z" stroke="black" stroke-width="0.29" stroke-miterlimit="10"/>
<path d="M86.1223 106.562H81.249V141.883H86.1223V106.562Z" fill="white" stroke="black" stroke-width="0.29" stroke-miterlimit="10"/>
</g>
<defs>
<clipPath id="clip0_9399_4503">
<rect width="63" height="119" fill="white" transform="translate(36 24)"/>
</clipPath>
</defs>
</svg>
