<svg width="12" height="13" viewBox="0 0 12 13" fill="none" xmlns="http://www.w3.org/2000/svg">
<path d="M5.50668 9.65493C5.76052 9.90877 6.17208 9.90877 6.42592 9.65493L10.5625 5.51836C10.8163 5.26452 10.8163 4.85296 10.5625 4.59912C10.3087 4.34528 9.8971 4.34528 9.64326 4.59912L5.9663 8.27607L2.28935 4.59912C2.03551 4.34527 1.62395 4.34527 1.37011 4.59911C1.11627 4.85296 1.11627 5.26451 1.37011 5.51835L5.50668 9.65493ZM6.61631 0.64887C6.61631 0.289885 6.32529 -0.00113012 5.96631 -0.0011301C5.60732 -0.00113104 5.31631 0.289884 5.31631 0.64887L5.96631 0.64887L6.61631 0.64887ZM5.9663 9.19531L6.6163 9.19531L6.61631 0.64887L5.96631 0.64887L5.31631 0.64887L5.3163 9.19531L5.9663 9.19531Z" fill="black"/>
<path d="M2.56188 8.49219H2.22729C1.35612 8.49219 0.649902 9.19841 0.649902 10.0696C0.649902 10.9407 1.35612 11.647 2.22728 11.647H9.58841C10.4596 11.647 11.1658 10.9407 11.1658 10.0696C11.1658 9.19841 10.4596 8.49219 9.58841 8.49219H9.25381" stroke="black" stroke-width="1.3"/>
</svg>
