<svg width="14" height="14" viewBox="0 0 14 14" fill="none" xmlns="http://www.w3.org/2000/svg">
<path d="M7 0.0498047C10.8346 0.0498047 13.9502 3.16538 13.9502 7C13.9502 10.8346 10.8346 13.9502 7 13.9502C3.16538 13.9502 0.0498047 10.8346 0.0498047 7C0.0498047 3.16538 3.16538 0.0498047 7 0.0498047ZM4.38184 10.3555C4.51707 10.8149 4.67792 11.2347 4.8623 11.6064C5.35681 12.6034 5.99098 13.225 6.6709 13.3779L6.73145 13.3916V10.291H4.36328L4.38184 10.3555ZM7.26855 13.3916L7.3291 13.3779C8.00902 13.225 8.64319 12.6034 9.1377 11.6064C9.32208 11.2347 9.48293 10.8149 9.61816 10.3555L9.63672 10.291H7.26855V13.3916ZM1.53809 10.3672C2.35185 11.6853 3.63109 12.6867 5.14648 13.1426L5.32031 13.1953L5.19727 13.0615C4.89061 12.728 4.61784 12.3098 4.38477 11.8398C4.16074 11.3881 3.96957 10.8806 3.81641 10.3271L3.80664 10.291H1.49121L1.53809 10.3672ZM10.1836 10.3271C10.0304 10.8806 9.83926 11.3881 9.61523 11.8398C9.38216 12.3098 9.10939 12.728 8.80273 13.0615L8.67969 13.1953L8.85352 13.1426C10.3689 12.6867 11.6481 11.6853 12.4619 10.3672L12.5088 10.291H10.1934L10.1836 10.3271ZM0.59668 7.32031C0.638665 8.17646 0.847593 8.99025 1.19238 9.72559L1.20605 9.75488H3.67578L3.66309 9.69434C3.50669 8.95778 3.41417 8.15757 3.39551 7.31738L3.39453 7.26855H0.59375L0.59668 7.32031ZM3.93262 7.31934C3.95262 8.17323 4.05242 8.98223 4.2168 9.71582L4.22559 9.75488H6.73145V7.26855H3.93066L3.93262 7.31934ZM7.26855 9.75488H9.77441L9.7832 9.71582C9.94758 8.98223 10.0474 8.17323 10.0674 7.31934L10.0693 7.26855H7.26855V9.75488ZM10.6045 7.31738C10.5858 8.15757 10.4933 8.95778 10.3369 9.69434L10.3242 9.75488H12.7939L12.8076 9.72559C13.1524 8.99025 13.3613 8.17646 13.4033 7.32031L13.4062 7.26855H10.6055L10.6045 7.31738ZM1.19238 4.27441C0.846433 5.01085 0.638743 5.82199 0.59668 6.67969L0.59375 6.73145H3.39453L3.39551 6.68262C3.41441 5.84382 3.50698 5.04203 3.66309 4.30566L3.67578 4.24512H1.20605L1.19238 4.27441ZM4.2168 4.28418C4.05244 5.01696 3.9529 5.82777 3.93262 6.68066L3.93066 6.73145H6.73145V4.24512H4.22559L4.2168 4.28418ZM7.26855 6.73145H10.0693L10.0674 6.68066C10.0471 5.82777 9.94756 5.01696 9.7832 4.28418L9.77441 4.24512H7.26855V6.73145ZM10.3369 4.30566C10.493 5.04203 10.5856 5.84382 10.6045 6.68262L10.6055 6.73145H13.4062L13.4033 6.67969C13.3613 5.82199 13.1536 5.01085 12.8076 4.27441L12.7939 4.24512H10.3242L10.3369 4.30566ZM5.14648 0.862305C3.63117 1.31814 2.3519 2.31458 1.53809 3.63281L1.49121 3.70898H3.80664L3.81641 3.67285C3.96959 3.11856 4.1608 2.60692 4.38477 2.15527C4.61766 1.68572 4.89047 1.27615 5.19727 0.943359L5.32129 0.80957L5.14648 0.862305ZM6.6709 0.626953C5.9911 0.779814 5.3569 1.39647 4.8623 2.39355C4.67852 2.76409 4.51679 3.18687 4.38184 3.64453L4.36328 3.70898H6.73145V0.613281L6.6709 0.626953ZM7.26855 3.70898H9.63672L9.61816 3.64453C9.48321 3.18687 9.32148 2.76409 9.1377 2.39355C8.6431 1.39647 8.0089 0.779814 7.3291 0.626953L7.26855 0.613281V3.70898ZM8.80273 0.943359C9.10953 1.27615 9.38234 1.68572 9.61523 2.15527C9.8392 2.60692 10.0304 3.11856 10.1836 3.67285L10.1934 3.70898H12.5088L12.4619 3.63281C11.6481 2.31458 10.3688 1.31814 8.85352 0.862305L8.67871 0.80957L8.80273 0.943359Z" fill="white" stroke="white" stroke-width="0.1"/>
</svg>
