<svg width="171" height="16" viewBox="0 0 171 16" fill="none" xmlns="http://www.w3.org/2000/svg">
<path d="M15.3686 15.6763H0.000976562V0.308594H15.154V3.86479H5.20475V6.01708H14.539V9.57328H5.20475V12.1433H15.3686V15.6763Z" fill="black"/>
<path d="M33.7465 3.86479H27.9278V15.6763H22.724V3.86479H16.9053V0.308594H33.7465V3.86479Z" fill="black"/>
<path d="M53.6127 0.308594V15.6763H48.4089V9.6603H40.7279V15.6763H35.501V0.308594H40.7279V5.93006H48.4089V0.308594H53.6127Z" fill="black"/>
<path d="M73.5035 0.308594V15.6763H67.9923L61.0075 6.545V15.6763H55.8037V0.308594H61.315L68.2997 9.46305V0.308594H73.5035Z" fill="black"/>
<path d="M95.2597 7.9884C95.2597 13.8709 90.23 16 85.2467 16C80.2633 16 75.2568 13.8709 75.2568 7.9884C75.2568 2.10587 80.2633 0 85.2467 0C90.23 0 95.2597 2.12908 95.2597 7.9884ZM89.9689 7.9884C89.9689 5.19797 88.2808 3.50979 85.2467 3.50979C82.2126 3.50979 80.5244 5.19797 80.5244 7.9884C80.5244 10.7788 82.2358 12.4902 85.2467 12.4902C88.2575 12.4902 89.9689 10.802 89.9689 7.9884Z" fill="black"/>
<path d="M110.295 9.39232H115.632C114.907 14.2016 110.736 16 106.171 16C101.164 16 96.5752 13.8709 96.5752 7.9884C96.5752 2.10587 101.164 0 106.171 0C110.736 0 114.907 1.79841 115.632 6.60769H110.295C109.814 4.65265 108.648 3.50979 106.171 3.50979C103.206 3.50979 101.849 5.29079 101.849 7.9884C101.849 10.686 103.212 12.4902 106.171 12.4902C108.654 12.4902 109.814 11.3474 110.295 9.39232Z" fill="black"/>
<path d="M128.781 13.3035H121.361L120.392 15.6763H114.968L122.057 0.308594H128.073L135.185 15.6763H129.761L128.775 13.3035H128.781ZM127.354 9.74732L125.068 4.19547L122.805 9.74732H127.348H127.354Z" fill="black"/>
<path d="M145.576 10.6929H141.492V15.6763H136.288V0.308594H147.224C151.458 0.308594 153.791 2.26363 153.791 5.40214C153.791 7.72846 152.607 9.2252 150.652 10.0142L154.295 15.6763H148.697L145.582 10.6929H145.576ZM141.492 7.17734H146.475C148.013 7.17734 148.494 6.38836 148.494 5.40214C148.494 4.41592 147.856 3.86479 146.475 3.86479H141.492V7.17734Z" fill="black"/>
<path d="M170.972 15.6763H155.604V0.308594H170.752V3.86479H160.808V6.01708H170.137V9.57328H160.808V12.1433H170.972V15.6763Z" fill="black"/>
</svg>
