<svg width="256" height="331" viewBox="0 0 256 331" fill="none" xmlns="http://www.w3.org/2000/svg">
<rect width="256" height="331" rx="10" fill="black"/>
<path d="M157 291C156.12 291 155.36 290.364 155.28 289.542L155 287H159L158.72 289.542C158.64 290.364 157.88 291 157 291Z" fill="#CDCCCC" stroke="#010101" stroke-width="0.25" stroke-miterlimit="10"/>
<path d="M158.291 282H155.651C155.651 282 155.514 281.971 155.48 281.914L155 281.286C155 281.286 155 281 155.171 281H158.806C158.806 281 159.08 281.171 158.977 281.286L158.497 281.914C158.497 281.914 158.394 282 158.326 282H158.291Z" fill="#CDCCCC" stroke="#010101" stroke-width="0.25" stroke-miterlimit="10"/>
<path d="M158.291 283H155.651C155.651 283 155.514 282.971 155.48 282.914L155 282.286C155 282.286 155 282 155.171 282H158.806C158.806 282 159.08 282.171 158.977 282.286L158.497 282.914C158.497 282.914 158.394 283 158.326 283H158.291Z" fill="#CDCCCC" stroke="#010101" stroke-width="0.25" stroke-miterlimit="10"/>
<path d="M158.291 284H155.651C155.651 284 155.514 283.971 155.48 283.914L155 283.286C155 283.286 155 283 155.171 283H158.806C158.806 283 159.08 283.171 158.977 283.286L158.497 283.914C158.497 283.914 158.394 284 158.326 284H158.291Z" fill="#CDCCCC" stroke="#010101" stroke-width="0.25" stroke-miterlimit="10"/>
<path d="M158.291 285H155.651C155.651 285 155.514 284.971 155.48 284.914L155 284.286C155 284.286 155 284 155.171 284H158.806C158.806 284 159.08 284.171 158.977 284.286L158.497 284.914C158.497 284.914 158.394 285 158.326 285H158.291Z" fill="#CDCCCC" stroke="#010101" stroke-width="0.25" stroke-miterlimit="10"/>
<path d="M158.291 286H155.651C155.651 286 155.514 285.971 155.48 285.914L155 285.286C155 285.286 155 285 155.171 285H158.806C158.806 285 159.08 285.171 158.977 285.286L158.497 285.914C158.497 285.914 158.394 286 158.326 286H158.291Z" fill="#CDCCCC" stroke="#010101" stroke-width="0.25" stroke-miterlimit="10"/>
<path d="M158.291 287H155.651C155.651 287 155.514 286.971 155.48 286.914L155 286.286C155 286.286 155 286 155.171 286H158.806C158.806 286 159.08 286.171 158.977 286.286L158.497 286.914C158.497 286.914 158.394 287 158.326 287H158.291Z" fill="#CDCCCC" stroke="#010101" stroke-width="0.25" stroke-miterlimit="10"/>
<path d="M120.377 242C120.527 236.549 138.675 232.124 160.819 232.124C172.134 232.124 185.578 233.363 193.195 235.381L184.532 235.274V236.973L201 237.221L200.813 231.168H196.78L196.93 234.142C187.93 232.089 173.292 230 160.782 230C133.933 230 115.187 235.381 115 241.965H120.34L120.377 242Z" fill="white"/>
<path fill-rule="evenodd" clip-rule="evenodd" d="M107.992 281.213C113.464 249.693 116.072 215.62 123.455 185.728C128.707 206.667 131.756 231.972 134.988 254.243H138C137.927 253.725 137.853 253.245 137.78 252.727C134.107 226.423 130.764 199.675 123.455 174C115.227 202.857 109.02 253.134 106.008 280.917C105.861 282.175 107.735 282.434 107.955 281.176L107.992 281.213Z" fill="white"/>
<path fill-rule="evenodd" clip-rule="evenodd" d="M55.2918 178.833C57.9251 210.604 64.3785 245.046 65.2315 276.075C65.4169 281.085 64.9719 285.056 64.3043 288.879C64.0818 290.067 65.862 290.475 66.1587 289.288C67.4197 284.648 68.384 279.712 68.1986 276.075C67.2343 243.413 60.8551 211.198 58.2589 178.611C57.1462 165.546 59.0748 151.851 61.7081 139.046C65.5653 120.86 70.5722 102.599 78.1012 85.5632C80.5861 74.3916 77.1739 59.2858 76.766 47.8544C75.3937 32.5259 73.7247 44.8481 75.3566 65.6696C76.0984 75.3937 76.3209 82.4456 75.505 84.2271C73.2426 88.8294 70.2384 96.5864 67.1972 106.162C60.41 128.208 53.5858 154.894 55.2547 178.833H55.2918Z" fill="white"/>
<path fill-rule="evenodd" clip-rule="evenodd" d="M189.543 161.948C188.034 143.819 182.953 123.284 177.762 106.857C174.744 97.3111 171.725 89.5043 169.553 84.9904C168.632 83.8804 169.111 72.7807 169.847 64.4189C170.768 53.3192 168.816 42.8485 168.264 48.6573C167.638 59.831 164.546 75.9256 166.828 86.3223C174.56 103.268 179.382 121.471 183.248 139.601C185.715 152.403 187.776 166.018 186.672 179.042C184.573 204.83 180.413 230.286 177.947 256H180.229C182.475 231.877 187.519 204.053 189.691 179.264C190.206 173.492 190.022 167.831 189.543 161.911V161.948Z" fill="white"/>
<path d="M124 189.482C129.883 213.427 131.735 240.301 135.293 257.611C138.089 271.288 144.698 277.59 154.503 277.849V281H159.732V277.664C173.131 276.441 178.578 269.398 181.411 254.905C182.282 250.494 185.913 220.47 185.913 220.47C188.092 204.012 189 193.485 189 189L124.036 189.445L124 189.482Z" fill="#3D3D3D"/>
<path d="M140.338 270H175.656C178.992 265.452 180.841 259.291 181.929 253.79C182.836 249.242 188.529 199.181 189 195H125C128.445 214.511 131.382 242.897 134.21 256.577C135.08 260.795 137.075 265.342 140.338 270Z" fill="#0B0B0B" stroke="#A3A3A3" stroke-miterlimit="10"/>
<path d="M157 139.5C153.859 139.5 151.727 141.924 151.5 145C151.462 145.815 151.332 146.5 150.5 146.5C150.235 146.5 150.227 146.611 150 146.5C149.765 145.718 147.937 145.893 147.218 145.893C144.683 145.893 143 148.302 143 150.785C143 153.268 145.081 155.306 147.616 155.306C147.805 155.306 147.995 155.306 148.146 155.306H148.184H148.259C148.524 155.306 148.751 155.417 148.941 155.603L152.5 159.5C153.181 160.167 153.5 161.273 153.5 162.088L153 198H161.995L161.5 151C161.5 150.704 161.735 150.222 162 150C163.059 148.888 163.5 147.519 163.5 146C163.5 142.739 161.292 139.5 158 139.5H157Z" fill="#0B0B0B"/>
<path d="M157.622 149C155.622 149 153.989 147.367 153.989 145.367C153.989 143.367 155.622 141.734 157.622 141.734C159.622 141.734 161.255 143.367 161.255 145.367C161.255 147.367 159.622 149 157.622 149ZM157.622 142.061C155.785 142.061 154.316 143.571 154.316 145.367C154.316 147.163 155.826 148.673 157.622 148.673C159.418 148.673 160.928 147.163 160.928 145.367C160.928 143.571 159.418 142.061 157.622 142.061Z" fill="#A3A3A3" stroke="#A3A3A3" stroke-width="0.15" stroke-miterlimit="10"/>
<path d="M147.789 153C146.406 153 145.289 151.883 145.289 150.5C145.289 149.117 146.406 148 147.789 148C149.172 148 150.289 149.117 150.289 150.5C150.289 151.883 149.172 153 147.789 153ZM147.789 148.479C146.672 148.479 145.715 149.383 145.715 150.553C145.715 151.723 146.619 152.628 147.789 152.628C148.959 152.628 149.864 151.723 149.864 150.553C149.864 149.383 148.959 148.479 147.789 148.479Z" fill="#A3A3A3" stroke="#A3A3A3" stroke-width="0.15" stroke-miterlimit="10"/>
<path d="M157.5 214.04C156.06 214.04 155.126 213.779 154.737 213.555C154.076 213.145 153.803 212.361 154.153 211.653C155.554 208.818 156.177 205.983 156.177 202.738L156.202 162.081C156.202 161.372 156.785 160.812 157.525 160.812V160.962C156.902 160.962 156.357 161.447 156.357 162.081L156.333 202.738C156.333 206.02 155.671 208.855 154.27 211.727C153.959 212.324 154.192 213.07 154.815 213.406C155.204 213.629 156.099 213.853 157.5 213.853C158.901 213.853 159.796 213.629 160.185 213.406C160.769 213.07 161.002 212.324 160.73 211.727C159.329 208.855 158.667 206.02 158.667 202.738L158.692 162.081C158.692 161.484 158.186 160.962 157.525 160.962V160.812C158.264 160.812 158.848 161.372 158.848 162.081L158.823 202.738C158.823 205.983 159.485 208.818 160.847 211.653C161.197 212.324 160.924 213.145 160.263 213.555C159.874 213.779 158.94 214.04 157.5 214.04Z" fill="#A3A3A3"/>
<path d="M157.525 160.812C156.785 160.812 156.202 161.372 156.202 162.081L156.177 202.738C156.177 205.983 155.554 208.818 154.153 211.653C153.803 212.361 154.076 213.145 154.737 213.555C155.126 213.779 156.06 214.04 157.5 214.04C158.94 214.04 159.874 213.779 160.263 213.555C160.924 213.145 161.197 212.324 160.847 211.653C159.485 208.818 158.823 205.983 158.823 202.738L158.848 162.081C158.848 161.372 158.264 160.812 157.525 160.812ZM157.525 160.812V160.962M157.525 160.962C156.902 160.962 156.357 161.447 156.357 162.081L156.333 202.738C156.333 206.02 155.671 208.855 154.27 211.727C153.959 212.324 154.192 213.07 154.815 213.406C155.204 213.629 156.099 213.853 157.5 213.853C158.901 213.853 159.796 213.629 160.185 213.406C160.769 213.07 161.002 212.324 160.73 211.727C159.329 208.855 158.667 206.02 158.667 202.738L158.692 162.081C158.692 161.484 158.186 160.962 157.525 160.962Z" stroke="#A3A3A3" stroke-width="0.5" stroke-miterlimit="10"/>
<path d="M165.135 233.928C165.135 233.928 165.059 233.928 165.021 233.928C164.717 233.892 164.489 233.639 164.489 233.35C164.489 232.808 164.489 232.193 164.451 231.507C164.451 230.206 164.413 228.58 164.261 226.484C163.843 220.631 162.703 218.174 162.209 217.162C162.133 217.017 162.095 216.909 162.057 216.837C161.981 216.62 161.981 216.439 162.057 216.295C162.095 216.186 162.209 216.078 162.361 216.042C162.665 215.933 162.969 216.042 163.083 216.295C163.159 216.403 163.235 216.62 163.387 216.873C164.489 219.005 167.795 225.509 167.985 227.894C168.137 230.206 167.111 231.724 166.275 232.916C166.085 233.169 165.933 233.422 165.781 233.675C165.667 233.855 165.439 234 165.211 234L165.135 233.928ZM165.059 233.747C165.249 233.783 165.477 233.675 165.591 233.53C165.743 233.277 165.895 233.024 166.085 232.771C166.883 231.579 167.909 230.061 167.757 227.821C167.605 225.473 164.261 219.005 163.197 216.873C163.083 216.62 162.969 216.439 162.893 216.295C162.817 216.114 162.589 216.042 162.361 216.114C162.247 216.114 162.209 216.223 162.171 216.295C162.133 216.403 162.133 216.548 162.171 216.728C162.171 216.801 162.247 216.909 162.323 217.054C162.817 218.101 163.995 220.558 164.375 226.448C164.527 228.544 164.565 230.17 164.565 231.471C164.565 232.157 164.565 232.771 164.603 233.313C164.603 233.53 164.793 233.711 165.021 233.747H165.059Z" fill="#A3A3A3" stroke="#A3A3A3" stroke-width="0.5" stroke-miterlimit="10"/>
<path d="M150.324 234C150.134 234 149.944 233.892 149.849 233.675C149.723 233.422 149.596 233.169 149.438 232.916C148.741 231.687 147.886 230.17 148.013 227.894C148.139 225.509 150.926 219.005 151.844 216.873C151.939 216.62 152.034 216.439 152.098 216.295C152.193 216.042 152.446 215.933 152.699 216.042C152.826 216.078 152.889 216.186 152.953 216.295C153.016 216.439 153.016 216.62 152.953 216.837C152.953 216.909 152.889 217.017 152.826 217.162C152.414 218.21 151.464 220.631 151.116 226.484C150.989 228.58 150.989 230.206 150.958 231.507C150.958 232.193 150.958 232.808 150.926 233.35C150.926 233.639 150.736 233.892 150.483 233.928C150.483 233.928 150.419 233.928 150.388 233.928L150.324 234ZM152.478 216.186C152.478 216.186 152.256 216.259 152.193 216.403C152.129 216.512 152.066 216.728 151.939 216.981C151.021 219.113 148.266 225.581 148.139 227.93C148.013 230.17 148.868 231.687 149.533 232.88C149.691 233.133 149.818 233.386 149.944 233.639C150.039 233.819 150.198 233.892 150.388 233.855C150.578 233.819 150.704 233.639 150.736 233.422C150.736 232.88 150.736 232.266 150.768 231.579C150.768 230.278 150.799 228.652 150.926 226.557C151.274 220.667 152.224 218.21 152.636 217.162C152.699 217.017 152.731 216.909 152.762 216.837C152.826 216.656 152.826 216.512 152.762 216.403C152.762 216.331 152.668 216.259 152.604 216.223C152.573 216.223 152.509 216.223 152.478 216.223V216.186Z" fill="#A3A3A3" stroke="#A3A3A3" stroke-width="0.5" stroke-miterlimit="10"/>
<path d="M150.627 211.994C150.407 212.473 150.15 212.988 149.931 213.504C149.674 214.056 149.344 214.756 149.014 215.529C148.171 217.445 147.071 219.838 146.632 220.759L146.558 220.906C146.082 221.864 145.715 222.527 144.799 222.527C144.469 222.527 144.066 222.453 143.552 222.232C140.987 221.275 139.007 220.796 137.577 220.796C135.451 220.796 133.142 221.68 129 223.3C129 223.521 129.073 223.779 129.11 224C133.252 222.38 135.561 221.496 137.577 221.496C138.934 221.496 140.803 221.938 143.332 222.895C143.919 223.116 144.395 223.227 144.835 223.227C146.155 223.227 146.705 222.195 147.181 221.238L147.255 221.091C147.731 220.17 148.794 217.776 149.674 215.824C150.004 215.051 150.334 214.314 150.59 213.799C150.81 213.32 151.067 212.804 151.287 212.325L152.826 208.827V208.79C153.12 207.98 152.753 207.169 151.983 206.838L151.47 206.617C151.47 206.617 151.36 206.543 151.36 206.47V200.172C151.36 200.172 151.36 200.062 151.47 200.025L152.973 199.141C153.413 198.883 153.706 198.367 153.706 197.852V161.76C153.706 160.95 153.633 160.103 152.973 159.477L148.794 155.315C148.611 155.131 148.391 155.02 148.134 155.02H148.061H148.024C147.841 155.02 147.658 155.02 147.511 155.02C145.055 155.02 143.039 152.995 143.039 150.527C143.039 148.06 145.055 146.034 147.511 146.034C148.244 146.034 148.941 146.218 149.564 146.55C149.784 146.66 150.004 146.734 150.26 146.734C151.067 146.734 151.727 146.108 151.763 145.298C151.947 142.241 154.513 139.847 157.555 139.847C160.744 139.847 163.347 142.462 163.347 145.703C163.347 147.213 162.797 148.612 161.77 149.717C161.55 149.975 161.404 150.269 161.404 150.564V197.852C161.404 198.367 161.697 198.883 162.137 199.141L163.64 200.025C163.713 200.025 163.75 200.098 163.75 200.172V206.47C163.75 206.47 163.75 206.58 163.677 206.617L163.127 206.875C162.357 207.243 162.027 208.016 162.284 208.827V208.864L163.823 212.362C164.043 212.841 164.3 213.357 164.52 213.835C164.776 214.388 165.106 215.088 165.436 215.861C166.279 217.776 167.379 220.17 167.855 221.091L167.929 221.238C168.442 222.232 168.955 223.227 170.275 223.227C170.714 223.227 171.191 223.116 171.777 222.895C174.27 221.938 176.176 221.496 177.532 221.496C179.549 221.496 181.821 222.38 185.927 223.963C185.927 223.742 186 223.484 186 223.263C181.931 221.68 179.659 220.796 177.532 220.796C176.103 220.796 174.123 221.275 171.558 222.232C171.044 222.416 170.641 222.527 170.311 222.527C169.395 222.527 169.028 221.864 168.552 220.906L168.478 220.759C168.002 219.875 166.939 217.481 166.096 215.529C165.766 214.756 165.436 214.02 165.179 213.504C164.959 212.988 164.703 212.51 164.483 211.994L162.943 208.495C162.76 207.98 163.017 207.575 163.42 207.354L163.97 207.096C164.263 206.948 164.446 206.654 164.446 206.322V200.025C164.446 199.693 164.263 199.399 163.97 199.251L162.467 198.367C162.21 198.22 162.064 197.962 162.064 197.668V150.38C162.064 150.38 162.137 150.085 162.247 149.975C163.383 148.76 164.006 147.176 164.006 145.519C164.006 141.909 161.111 139 157.555 139C153.999 139 151.323 141.688 151.104 145.077C151.104 145.555 150.7 145.85 150.297 145.85C150.187 145.85 150.041 145.85 149.931 145.74C149.234 145.371 148.391 145.15 147.548 145.15C144.725 145.15 142.416 147.471 142.416 150.343C142.416 153.216 144.725 155.536 147.548 155.536C147.731 155.536 147.951 155.536 148.134 155.536C148.208 155.536 148.281 155.536 148.318 155.61L152.496 159.771C152.973 160.25 153.01 160.913 153.01 161.576V197.668C153.01 197.962 152.863 198.22 152.606 198.367L151.104 199.251C150.81 199.399 150.627 199.693 150.627 200.025V206.322C150.627 206.654 150.81 206.948 151.104 207.096L151.653 207.354C152.057 207.538 152.313 207.943 152.13 208.495L150.59 211.994H150.627Z" fill="#A3A3A3"/>
<path d="M180.816 259.274C180.816 259.274 180.889 259.013 180.926 258.864C180.926 258.789 180.963 258.677 181 258.602C178.899 257.632 178.198 255.914 178.493 252.666C178.567 251.994 178.567 251.284 178.198 250.836C178.051 250.687 177.83 250.537 177.461 250.537C177.093 250.537 176.871 250.687 176.761 250.836C176.429 251.172 176.318 251.732 176.392 252.628C176.54 254.756 176.613 256.362 175.987 257.632C175.323 258.976 173.996 259.872 172.042 260.88C171.563 261.141 171.084 261.253 170.605 261.253C170.162 261.253 169.757 261.141 169.351 260.955C167.877 260.245 166.624 258.304 165.518 255.018C164.965 253.412 164.485 251.545 164.08 249.455V249.343C163.638 247.177 164.301 245.758 164.891 244.601C165.296 243.779 165.628 243.07 165.518 242.211C165.407 241.315 164.744 240.531 163.969 239.597C163.011 238.44 161.905 237.17 161.536 235.266C161.389 234.445 161.352 233.026 161.315 231.047C161.242 228.135 161.168 224.177 160.541 221.041C159.878 217.718 158.809 216 157.297 216C155.786 216 154.68 217.68 154.053 221.041C153.427 224.177 153.353 228.135 153.279 231.047C153.242 233.026 153.205 234.445 153.058 235.266C152.689 237.17 151.62 238.477 150.625 239.597C149.851 240.531 149.187 241.315 149.077 242.211C148.966 243.07 149.298 243.779 149.704 244.601C150.256 245.721 150.957 247.14 150.515 249.343V249.455C150.072 251.545 149.593 253.412 149.077 255.018C147.971 258.304 146.718 260.245 145.243 260.955C144.838 261.141 144.395 261.253 143.99 261.253C143.511 261.253 143.031 261.141 142.552 260.88C140.598 259.872 139.271 258.976 138.608 257.632C137.981 256.362 138.055 254.756 138.202 252.628C138.276 251.732 138.165 251.172 137.834 250.836C137.723 250.687 137.465 250.537 137.133 250.537C136.802 250.537 136.544 250.724 136.396 250.836C136.027 251.247 136.027 251.994 136.101 252.666C136.396 255.727 135.806 257.407 134 258.416C134.074 258.64 134.111 258.864 134.184 259.088C136.359 257.968 137.096 256.026 136.765 252.591C136.765 252.33 136.654 251.583 136.912 251.321C136.986 251.247 137.096 251.247 137.133 251.247C137.133 251.247 137.281 251.247 137.355 251.321C137.465 251.433 137.613 251.769 137.539 252.591C137.391 254.831 137.318 256.511 138.018 257.968C138.755 259.498 140.193 260.469 142.257 261.552C142.847 261.851 143.4 262 143.99 262C144.506 262 145.059 261.888 145.538 261.627C147.16 260.805 148.524 258.752 149.704 255.279C150.256 253.636 150.736 251.732 151.141 249.641V249.529C151.657 247.14 150.846 245.534 150.293 244.377C149.888 243.518 149.63 242.995 149.74 242.398C149.814 241.688 150.441 240.979 151.141 240.157C152.1 239 153.316 237.581 153.722 235.49C153.869 234.631 153.906 233.175 153.98 231.159C154.053 228.284 154.127 224.326 154.717 221.265C155.122 219.211 155.896 216.784 157.297 216.784C158.698 216.784 159.509 219.211 159.878 221.265C160.467 224.326 160.578 228.284 160.615 231.159C160.652 233.175 160.689 234.594 160.873 235.49C161.278 237.581 162.458 239 163.453 240.157C164.154 240.979 164.78 241.726 164.854 242.398C164.928 243.032 164.707 243.555 164.301 244.377C163.748 245.534 162.937 247.14 163.416 249.529V249.641C163.859 251.732 164.338 253.636 164.891 255.279C166.071 258.752 167.435 260.805 169.056 261.627C169.573 261.888 170.089 262 170.605 262C171.195 262 171.747 261.851 172.337 261.552C174.402 260.469 175.839 259.498 176.576 257.968C177.277 256.549 177.203 254.831 177.056 252.591C176.982 251.769 177.129 251.471 177.24 251.321C177.314 251.247 177.424 251.247 177.461 251.247C177.498 251.247 177.609 251.247 177.682 251.321C177.904 251.583 177.83 252.367 177.83 252.591C177.498 256.213 178.346 258.192 180.816 259.274Z" fill="#A3A3A3" stroke="#A3A3A3" stroke-width="0.15" stroke-miterlimit="10"/>
<path d="M182.853 247.952C180.463 247.09 178.883 246.659 177.376 246.659C175.317 246.659 173.332 247.485 169.288 249.102C168.994 249.21 168.737 249.281 168.479 249.281C167.965 249.281 167.744 248.994 167.707 248.778C167.707 248.635 167.707 248.491 167.818 248.347C168.002 248.096 168.406 247.916 168.884 247.88C171.604 247.377 173.479 246.982 174.839 245.976C176.346 244.862 176.934 243.066 176.751 240.192C176.714 239.473 176.751 239.006 176.971 238.826C177.118 238.683 177.302 238.683 177.339 238.683C177.412 238.683 177.559 238.683 177.706 238.826C177.89 239.042 177.964 239.473 177.89 240.228C177.523 243.82 178.515 245.689 181.235 246.659C181.64 246.802 182.044 246.946 182.485 247.09C182.632 247.126 182.779 247.198 182.926 247.234C182.926 247.018 183 246.802 183 246.551C182.926 246.551 182.816 246.479 182.743 246.443C182.302 246.299 181.86 246.12 181.456 245.976C179.03 245.114 178.221 243.569 178.552 240.263C178.662 239.293 178.552 238.754 178.184 238.359C178.037 238.18 177.743 238 177.302 238C176.861 238 176.604 238.18 176.457 238.359C176.126 238.719 175.979 239.293 176.052 240.228C176.199 242.85 175.685 244.467 174.398 245.437C173.185 246.371 171.384 246.731 168.774 247.234C168.112 247.305 167.56 247.593 167.266 247.988C167.046 248.275 166.972 248.599 167.009 248.922C167.083 249.461 167.56 250 168.443 250C168.774 250 169.141 249.928 169.509 249.784L169.766 249.677C173.552 248.168 175.427 247.413 177.339 247.413C178.773 247.413 180.243 247.808 182.706 248.707C182.706 248.491 182.779 248.275 182.779 248.024L182.853 247.952Z" fill="#A3A3A3" stroke="#A3A3A3" stroke-width="0.15" stroke-miterlimit="10"/>
<path d="M146.173 234.2C143.484 233.727 141.628 233.473 140.378 232.527C139.052 231.545 138.522 229.909 138.673 227.255C138.711 226.273 138.598 225.727 138.257 225.364C138.105 225.218 137.802 225 137.386 225C136.969 225 136.666 225.218 136.477 225.364C136.136 225.727 136.022 226.309 136.098 227.291C136.439 230.673 135.643 232.236 133.106 233.073C132.689 233.218 132.273 233.364 131.818 233.509C131.212 233.727 130.606 233.945 130 234.127C130 234.345 130.076 234.564 130.114 234.818C130.757 234.6 131.439 234.382 132.083 234.127C132.538 233.982 132.954 233.836 133.371 233.691C136.174 232.745 137.196 230.855 136.818 227.182C136.742 226.455 136.818 225.982 137.007 225.764C137.158 225.618 137.31 225.618 137.386 225.618C137.386 225.618 137.613 225.618 137.764 225.764C137.992 225.982 138.067 226.418 137.992 227.145C137.84 230.055 138.446 231.836 139.961 233C141.325 234.018 143.294 234.418 146.097 234.927C146.589 235 147.006 235.145 147.195 235.4C147.309 235.545 147.347 235.691 147.309 235.836C147.309 236.055 147.044 236.345 146.514 236.345C146.248 236.345 145.983 236.273 145.68 236.164C141.514 234.527 139.469 233.691 137.348 233.691C135.53 233.691 133.56 234.309 130.189 235.545C130.189 235.764 130.265 236.018 130.303 236.236C133.788 234.964 135.606 234.382 137.348 234.382C139.279 234.382 141.249 235.145 145.15 236.673L145.415 236.782C145.794 236.927 146.173 237 146.514 237C147.423 237 147.915 236.455 147.991 235.909C148.029 235.582 147.953 235.255 147.726 234.964C147.423 234.564 146.892 234.309 146.173 234.2Z" fill="#A3A3A3" stroke="#A3A3A3" stroke-width="0.15" stroke-miterlimit="10"/>
<path d="M168.827 234.2C171.516 233.727 173.372 233.473 174.622 232.527C175.948 231.545 176.478 229.909 176.327 227.255C176.289 226.273 176.402 225.727 176.743 225.364C176.895 225.218 177.198 225 177.614 225C178.031 225 178.334 225.218 178.523 225.364C178.864 225.727 178.978 226.309 178.902 227.291C178.561 230.673 179.357 232.236 181.894 233.073C182.311 233.218 182.727 233.364 183.182 233.509C183.788 233.727 184.394 233.945 185 234.127C185 234.345 184.924 234.564 184.886 234.818C184.243 234.6 183.561 234.382 182.917 234.127C182.462 233.982 182.046 233.836 181.629 233.691C178.826 232.745 177.804 230.855 178.182 227.182C178.258 226.455 178.182 225.982 177.993 225.764C177.842 225.618 177.69 225.618 177.614 225.618C177.614 225.618 177.387 225.618 177.236 225.764C177.008 225.982 176.933 226.418 177.008 227.145C177.16 230.055 176.554 231.836 175.039 233C173.675 234.018 171.706 234.418 168.903 234.927C168.411 235 167.994 235.145 167.805 235.4C167.691 235.545 167.653 235.691 167.691 235.836C167.691 236.055 167.956 236.345 168.486 236.345C168.752 236.345 169.017 236.273 169.32 236.164C173.486 234.527 175.531 233.691 177.652 233.691C179.47 233.691 181.44 234.309 184.811 235.545C184.811 235.764 184.735 236.018 184.697 236.236C181.212 234.964 179.394 234.382 177.652 234.382C175.721 234.382 173.751 235.145 169.85 236.673L169.585 236.782C169.206 236.927 168.827 237 168.486 237C167.577 237 167.085 236.455 167.009 235.909C166.971 235.582 167.047 235.255 167.274 234.964C167.577 234.564 168.108 234.309 168.827 234.2Z" fill="#A3A3A3" stroke="#A3A3A3" stroke-width="0.15" stroke-miterlimit="10"/>
<path d="M146.227 247.317C143.561 246.846 141.722 246.447 140.483 245.505C139.17 244.526 138.644 242.894 138.794 240.248C138.832 239.269 138.719 238.725 138.381 238.363C138.231 238.218 137.931 238 137.518 238C137.105 238 136.805 238.218 136.617 238.363C136.279 238.725 136.167 239.305 136.242 240.284C136.58 243.656 135.791 245.214 133.276 246.048C132.863 246.193 132.45 246.338 132 246.483C132 246.701 132.075 246.918 132.113 247.172C132.15 247.172 132.188 247.172 132.225 247.136C132.676 246.991 133.089 246.846 133.501 246.701C136.279 245.758 137.293 243.873 136.917 240.211C136.842 239.486 136.917 239.015 137.105 238.798C137.255 238.653 137.405 238.653 137.48 238.653C137.518 238.653 137.706 238.653 137.856 238.798C138.081 239.015 138.156 239.45 138.081 240.175C137.931 243.076 138.531 244.852 140.033 246.012C141.384 247.027 143.336 247.426 146.114 247.934C146.602 248.006 147.015 248.151 147.202 248.405C147.315 248.55 147.353 248.695 147.315 248.84C147.315 249.057 147.052 249.347 146.527 249.347C146.264 249.347 146.001 249.275 145.701 249.166C141.572 247.535 139.545 246.701 137.443 246.701C135.979 246.701 134.44 247.1 132.188 247.897C132.188 248.115 132.263 248.332 132.3 248.586C134.628 247.789 136.054 247.39 137.443 247.39C139.357 247.39 141.309 248.151 145.176 249.674L145.438 249.782C145.814 249.928 146.189 250 146.527 250C147.428 250 147.916 249.456 147.991 248.912C148.028 248.586 147.953 248.26 147.728 247.97C147.428 247.571 146.902 247.317 146.189 247.208L146.227 247.317Z" fill="#A3A3A3" stroke="#A3A3A3" stroke-width="0.15" stroke-miterlimit="10"/>
<path d="M154 278L161 278" stroke="black" stroke-width="0.5" stroke-miterlimit="10"/>
<path d="M123 108C123.552 108 124 106.657 124 105C124 103.343 123.552 102 123 102C122.448 102 122 103.343 122 105C122 106.657 122.448 108 123 108Z" fill="white"/>
<path d="M195.623 241C195.473 246.906 177.325 251.699 155.181 251.699C143.866 251.699 130.422 250.357 122.805 248.171L131.468 248.286V246.445L115 246.177L115.187 252.735H119.22L119.07 249.513C128.07 251.737 142.708 254 155.218 254C182.067 254 200.813 248.171 201 241.038H195.66L195.623 241Z" fill="white"/>
</svg>
