<svg width="19" height="18" viewBox="0 0 19 18" fill="none" xmlns="http://www.w3.org/2000/svg">
<path d="M0 14.7227V6.72266C1.28853e-07 5.0658 1.34315 3.72266 3 3.72266H9.27246V5.72266H3C2.44772 5.72266 2 6.17037 2 6.72266V14.7227C2 15.2749 2.44772 15.7227 3 15.7227H11C11.5523 15.7227 12 15.2749 12 14.7227V9.54102H14V14.7227C14 16.3795 12.6569 17.7227 11 17.7227H3C1.34315 17.7227 0 16.3795 0 14.7227Z" fill="black"/>
<path d="M8.31533 0.00140646L17.3026 0.474063C17.8541 0.503169 18.278 0.97435 18.2489 1.52582L17.7753 10.5131C17.7463 11.0646 17.2759 11.4883 16.7245 11.4594C16.173 11.4304 15.7492 10.9592 15.7782 10.4077L16.1239 3.83051L7.91885 11.2163C7.50836 11.5857 6.87621 11.5525 6.50674 11.142C6.1373 10.7315 6.1705 10.0994 6.58096 9.72992L14.786 2.34418L8.20986 1.99848C7.65841 1.96945 7.23466 1.49913 7.26358 0.947696C7.2926 0.396174 7.76381 -0.027621 8.31533 0.00140646Z" fill="black"/>
</svg>
